<?xml version="1.0" encoding="UTF-8"?>
<svg width="600px" height="300px" viewBox="0 0 600 300" version="1.1" xmlns="http://www.w3.org/2000/svg" xmlns:xlink="http://www.w3.org/1999/xlink">
    <!-- Generator: Sketch 48.2 (47327) - http://www.bohemiancoding.com/sketch -->
    <title>setIcons</title>
    <desc>Created with Sketch.</desc>
    <defs></defs>
    <g id="Desktop-HD" stroke="none" stroke-width="1" fill="none" fill-rule="evenodd" transform="translate(-716.000000, -498.000000)">
        <g id="Group-9" transform="translate(718.000000, 498.000000)">
            <g id="grid">
                <rect id="Rectangle" stroke="#FFFFFF" opacity="0.0828238225" x="1.0625" y="1" width="99" height="99"></rect>
                <rect id="Rectangle-Copy-3" stroke="#FFFFFF" opacity="0.0828238225" x="101.0625" y="1" width="99" height="99"></rect>
                <rect id="Rectangle-Copy-6" stroke="#FFFFFF" opacity="0.0828238225" x="201.0625" y="1" width="99" height="99"></rect>
                <rect id="Rectangle-Copy-9" stroke="#FFFFFF" opacity="0.0828238225" x="301.0625" y="1" width="99" height="99"></rect>
                <rect id="Rectangle-Copy-12" stroke="#FFFFFF" opacity="0.0828238225" x="401.0625" y="1" width="99" height="99"></rect>
                <rect id="Rectangle-Copy-15" stroke="#FFFFFF" opacity="0.0828238225" x="501.0625" y="1" width="99" height="99"></rect>
                <rect id="Rectangle-Copy" stroke="#FFFFFF" opacity="0.0828238225" x="1.0625" y="101" width="99" height="99"></rect>
                <rect id="Rectangle-Copy-4" stroke="#FFFFFF" opacity="0.0828238225" x="101.0625" y="101" width="99" height="99"></rect>
                <rect id="Rectangle-Copy-7" stroke="#FFFFFF" opacity="0.0828238225" x="201.0625" y="101" width="99" height="99"></rect>
                <rect id="Rectangle-Copy-10" stroke="#FFFFFF" opacity="0.0828238225" x="301.0625" y="101" width="99" height="99"></rect>
                <rect id="Rectangle-Copy-13" stroke="#FFFFFF" opacity="0.0828238225" x="401.0625" y="101" width="99" height="99"></rect>
                <rect id="Rectangle-Copy-16" stroke="#FFFFFF" opacity="0.0828238225" x="501.0625" y="101" width="99" height="99"></rect>
                <rect id="Rectangle-Copy-2" stroke="#FFFFFF" opacity="0.0828238225" x="1.0625" y="201" width="99" height="99"></rect>
                <rect id="Rectangle-Copy-5" stroke="#FFFFFF" opacity="0.0828238225" x="101.0625" y="201" width="99" height="99"></rect>
                <rect id="Rectangle-Copy-8" stroke="#FFFFFF" opacity="0.0828238225" x="201.0625" y="201" width="99" height="99"></rect>
                <rect id="Rectangle-Copy-11" stroke="#FFFFFF" opacity="0.0828238225" x="301.0625" y="201" width="99" height="99"></rect>
                <rect id="Rectangle-Copy-14" stroke="#FFFFFF" opacity="0.0828238225" x="401.0625" y="201" width="99" height="99"></rect>
                <rect id="Rectangle-2" stroke="#3A0EC3" x="1.5" y="2.5" width="599" height="299"></rect>
                <rect id="Rectangle-Copy-17" stroke="#FFFFFF" opacity="0.0828238225" x="501.0625" y="201" width="99" height="99"></rect>
            </g>
            <g id="standard" transform="translate(214.000000, 125.500000)" fill="#FFFFFF">
                <path d="M4.23535156,41.9145508 C3.53435156,42.7845508 2.95279607,44.9716264 3.93359375,47.6467285 C4.4839369,49.1477763 5.64909663,49.0225785 6.34380171,49.2351074 C6.88716987,49.4013384 7.15625213,46.8682053 7.96473598,47.072998 C8.77321984,47.2777908 8.41509432,49.9128955 9.22314264,49.9644581 C15.2799149,50.3509488 43.6810713,52.9926761 50.9052734,52.9926761 C50.6492872,51.4924971 45.3886719,47.6467285 45.3886719,47.6467285 C45.3886719,47.6467285 47.7236328,44.536377 46.8847656,44.1081543 C46.0458984,43.6799316 26.5297852,41.9145508 19.3793945,41.9145508 C14.9431001,41.9145508 11.5324689,41.9334395 9.40762395,41.9360597 C8.1076576,41.9376627 7.24394809,44.1267801 6.96606445,44.1081543 C6.40667762,44.07066 6.30713654,42.9469608 6.96606445,40.9033203 C7.62499236,38.8596799 28.4380199,8.12964978 32.5415039,2.06347656 C33.6965039,0.356476563 36.7688017,0.250676107 38.8378017,0.192676107 C49.9808017,-0.116323893 61.1368017,0.0106761071 72.2878017,0.131676107 C73.5828017,0.145676107 75.9096958,0.985652454 76.0228017,2.69067611 C76.1359076,4.39569976 73.4288017,7.83767611 72.8778017,9.02567611 C71.676679,11.6127949 74.5257979,16.6166763 74.5257979,16.6166763 C74.5257979,16.6166763 79.0898434,15.7986878 79.0898437,17.5776367 C79.0898441,19.3565856 76.3248017,22.5706761 74.5258017,25.2886761 C69.1098017,33.4736761 61.2736523,44.6456761 56.1186523,52.9926761 C54.3696523,55.8236761 53.6728017,55.7646761 50.5468017,55.5976761 C41.2581392,55.100921 18.5235095,53.625543 9.13818359,52.9926761 C8.69815341,52.9630042 8.34960571,51.4589207 7.96473598,51.4316406 C6.5773968,51.3333041 6.86601583,53.0527231 6.34380171,52.9926761 C4.5310772,52.7839976 4.00904279,52.1680306 1.95898436,49.8836746 C-0.0910740741,47.5993186 0.293945315,44.89497 0.293945312,43.137104 C0.293945306,39.2749138 5.31683567,35.0057358 9.68554687,27.9799805 C9.6855469,27.9799804 10.7188671,26.9724176 11.9130859,26.9799805 C12.7751934,26.9854401 13.2416289,27.8401423 13.6889648,27.8036679 C14.0112365,28.2224691 7.22735156,38.2055508 4.23535156,41.9145508 Z M71.6577148,14.9370117 C72.2606112,16.7131345 74.1074219,17.6899414 74.1074219,17.6899414 C74.1074219,17.6899414 57.7642813,43.5953438 52.6132813,50.9023438 C52.3721926,51.2445693 48.0395508,49.6230469 47.3747559,47.2658691 C46.956419,45.7825632 47.612455,44.5454634 48.7978516,44.1203613 C49.4962136,43.8699176 49.5664062,44.1987305 51.3586426,44.1203613 C53.1508789,44.0419922 70.0437148,12.8341445 71.6577148,10.4731445 C71.6577148,10.4731445 71.0548185,13.160889 71.6577148,14.9370117 Z M14.2299805,27 C14.2299805,27 12.2314453,25.6171875 10,26.2653419 C13.869503,17.9044132 19.5150772,11.2141126 19.5150772,11.2141126 C19.5150772,11.2141126 21.1166973,10.3232478 22.5053711,10.4956055 C23.1446054,10.5749451 23.5025431,11.4954093 24.06,11.7323419 C20.892,16.8193419 14.2299805,27 14.2299805,27 Z M25.583,2.31503266 C27.8798828,0.814453133 30.267,0.257032659 31.658,0.285032659 C31.526,1.56403266 24.8867188,10.6835938 24.8867188,10.6835938 C24.8867188,10.6835938 24.6886669,9.19238284 23.2958984,9.19238281 C22.1604464,9.19238279 20.4736328,9.85503235 20.4736328,9.85503244 L25.583,2.31503266 Z M35.0039063,12.6176758 C35.0039063,12.6176758 39.1972656,10.28125 44.5771484,10.6640625 C49.9570313,11.046875 54.1503906,13.8251953 54.1503906,13.8251953 C54.1503906,13.8251953 40.3818359,27.8740234 36.1982422,28 C32.0146484,28.1259766 35.0039063,12.6176758 35.0039063,12.6176758 Z" id="Combined-Shape"></path>
            </g>
            <g id="wild" transform="translate(11.000000, 131.000000)" fill="#FFFFFF" fill-rule="nonzero">
                <path d="M70.3968596,50.1029554 C67.0626066,51.6312341 57.4773442,46.0741458 57.4773442,46.0741458 C47.2254853,45.8345778 40.8702226,38.1127064 40.8702226,38.1127064 L50.7478477,28.5882226 C51.8846838,30.1876727 55.5315689,33.987717 58.5881264,33.987717 C61.6446838,33.987717 64.8397713,32.3209083 65.3951624,27.5975421 C65.9505535,22.8741759 62.1505091,20.3539458 60.8999259,20.3539458 C59.6493428,20.3539458 57.3083121,20.1785591 52.7533425,24.1247591 C47.9918488,28.2488875 36.082713,39.2671098 36.082713,39.2671098 C36.082713,46.7687024 27.7473983,49.1307032 27.7473983,49.1307032 C27.8865638,47.324729 26.9136762,44.9627282 26.9136762,44.9627282 C23.0240321,46.6295369 15.6609695,48.0192856 8.85393352,43.2959194 C2.04689751,38.5725532 2.46375857,29.1258208 2.46375857,29.1258208 L0.102393197,25.0970112 L3.99203728,22.1796193 C4.82575939,18.1508097 9.9827959,13.1906486 9.9827959,13.1906486 C13.87244,-0.145727867 20.8011968,0.368762571 20.8011968,0.368762571 C20.5235012,5.92585088 22.8848666,8.5649118 22.8848666,8.5649118 C34.6929644,8.28721625 40.8702226,17.7746222 40.8702226,17.7746222 L30.5569765,27.0610804 C27.3618891,23.3099664 22.1261286,20.9766955 19.9058352,20.8801058 C15.8763901,20.7047191 13.4908773,23.7244199 13.4235187,28.5882226 C13.3682337,32.5674663 16.9515866,34.4052136 18.7670928,34.2819345 C21.3508688,34.1065479 21.7454888,28.9383604 21.7454888,28.9383604 C21.7454888,28.9383604 24.441741,30.6121592 24.4608047,33.6687167 C24.4690657,35.0438498 27.1920072,32.8769348 27.1920072,32.8769348 L43.7234712,18.2899752 L42.1951924,6.20354643 L54.5593168,10.0931905 C54.5593168,10.0931905 62.4904796,6.02307609 70.3962241,14.6773912 C72.4468501,15.3503422 74.4549003,12.6725183 74.4549003,12.6725183 C75.7938122,15.5181034 73.7298416,19.6790884 73.7298416,19.6790884 C73.7298416,19.6790884 83.4358413,32.9195106 68.8685809,42.4621973 C68.0348587,45.5187547 70.3968596,50.1029554 70.3968596,50.1029554 Z" id="Shape"></path>
            </g>
            <g id="naxx" transform="translate(514.000000, 14.500000)" fill="#FFFFFF">
                <path d="M18.477649,6.601 C22.029649,10.678 24.479649,13.489 26.460649,15.763 C29.761649,10.508 33.043649,5.282 36.325649,0.056 C37.066649,0.038 37.808649,0.019 38.549649,0 C41.803649,5.235 45.056649,10.469 48.388649,15.829 C50.356649,13.573 52.816649,10.754 55.636649,7.522 C59.806649,12.591 62.525649,17.795 63.724649,24.006 C65.262649,31.977 65.500649,31.918 72.865649,28.932 C73.435649,28.701 74.139649,28.798 76.585649,28.587 C74.318649,32.158 72.949649,34.961 70.987649,37.258 C67.805649,40.985 67.709649,47.92 71.181649,51.201 C74.149649,54.007 73.949649,56.543 70.814649,58.978 C67.022649,61.923 63.363649,65.039 59.153649,68.485 C54.034649,60.636 46.623649,59.189 37.717649,59.246 C28.858649,59.303 21.305649,60.562 16.329649,68.041 C11.336649,64.459 6.72164901,61.549 2.69064901,57.979 C1.66564901,57.072 1.98064901,53.899 2.58564901,52.067 C3.66364901,48.806 5.76464901,45.873 6.73664901,42.595 C7.08764901,41.412 5.68464901,39.409 4.62664901,38.168 C2.28164901,35.417 -0.403350994,32.934 0.0506490056,28.882 C0.778649006,28.721 1.14264901,28.512 1.39564901,28.604 C9.56664901,31.592 9.23964901,31.503 11.707649,22.847 C13.205649,17.592 15.894649,12.677 18.477649,6.601 Z M45.999649,49.99 C48.333649,49.445 51.719649,50.149 49.928649,45.81 C49.603649,45.022 50.594649,43.49 51.283649,42.518 C54.838649,37.507 54.843649,33.134 51.158649,28.466 C46.007649,21.939 37.109649,20.457 29.236649,24.815 C22.426649,28.584 20.690649,36.115 25.088649,42.515 C25.698649,43.403 26.598649,44.929 26.257649,45.503 C23.064649,50.884 27.931649,49.51 30.232649,50.008 L30.232649,56.23 C34.357649,55.301 37.983649,54.485 41.973649,53.587 C42.809649,54.009 44.513649,54.87 47.465649,56.361 C46.738649,53.2 46.415649,51.798 45.999649,49.99 Z M36.529849,38.35 C35.537849,43.469 33.590849,44.851 30.646849,43.061 C29.462849,42.342 29.100849,40.272 28.364849,38.817 C30.910849,38.672 33.455849,38.526 36.529849,38.35 Z M40.102749,38.0556 C43.529749,38.3316 45.885749,38.5216 48.241749,38.7106 C47.228749,40.1806 46.535749,42.2736 45.136749,42.9936 C41.975749,44.6216 41.320749,42.0486 40.102749,38.0556 Z M39.337949,43.2554 C39.894949,45.0734 40.452949,46.8924 41.104949,49.0194 L35.831949,49.0194 C36.596949,46.6884 37.212949,44.8134 37.827949,42.9394 C38.331949,43.0444 38.834949,43.1504 39.337949,43.2554 Z" id="Combined-Shape"></path>
            </g>
            <g id="og" transform="translate(316.600000, 10.000000)" fill="#FFFFFF">
                <path d="M41.3726595,35.5258243 C37.9796595,38.5788243 34.9876595,41.7038243 31.5236595,44.1648243 C30.2016595,45.1038243 27.7976595,44.6108243 25.8866595,44.6068243 C23.3806595,44.6028243 20.8726595,44.3868243 18.3736595,44.4728243 C18.2326595,44.4778243 17.8676595,47.2248243 18.0976595,47.3058243 C20.4746595,48.1468243 23.1746595,49.6658243 25.3656595,49.1648243 C33.7386595,47.2488243 39.8596595,41.5118243 44.4466595,34.7458243 C47.6996595,29.9458243 50.0986595,24.1578243 51.2876595,18.4778243 C52.5506595,12.4398243 49.6386595,8.89682431 44.8526595,7.77682431 C39.6296595,6.55482431 34.6766595,9.25982431 32.4266595,14.5138243 C32.0026595,15.5038243 31.4096595,16.4218243 30.8636595,17.4308243 C26.6356595,14.1628243 26.9256595,8.70682431 31.2046595,4.59982431 C38.1926595,-2.10817569 51.9736595,-1.31417569 58.4176595,5.90382431 C61.8056595,9.69982431 63.1326595,13.1348243 62.9176595,18.8008243 C62.6956595,24.6258243 62.5426595,29.9198243 61.0436595,35.7328243 C59.9086595,40.1328243 60.6186595,44.2248243 55.0926595,45.5038243 C54.6896595,45.5968243 54.1766595,46.1548243 54.0976595,46.5688243 C52.8816595,52.9718243 48.1746595,55.2588243 42.5856595,56.8388243 C41.5406595,57.1348243 41.0376595,59.1348243 40.1486595,60.2398243 C37.8586595,63.0848243 35.7586595,65.8218243 31.1336595,64.3438243 C29.1576595,63.7128243 26.2106595,64.4488243 24.3166595,65.5848243 C20.4526595,67.9028243 17.7886595,67.2148243 15.0306595,63.7458243 C13.4856595,61.8028243 10.4526595,60.3248243 7.93465946,60.0478243 C4.41765946,59.6598243 0.89365946,55.8928243 1.26065946,52.2788243 C1.51165946,49.8068243 0.53465946,47.2328243 0.36165946,44.6878243 C0.21065946,42.4698243 -0.50234054,39.4348243 0.62265946,38.1308243 C5.76565946,32.1658243 11.0486595,26.4898243 20.4696595,27.7038243 C25.9216595,28.4058243 36.1936595,29.6598243 41.3726595,35.5258243 Z M56.9951595,50.5050243 C63.7571595,58.8820243 68.7861595,69.2050243 70.6981595,81.7140243 C62.6691595,81.7140243 55.0771595,81.8310243 47.4991595,81.5690243 C46.5281595,81.5350243 45.2221595,79.6740243 44.7691595,78.4090243 C43.6011595,75.1500243 43.0261595,71.6770243 41.8491595,68.4230243 C39.7951595,62.7460243 41.9471595,59.8750243 47.7931595,57.9840243 C51.0541595,56.9290243 53.5261595,53.4390243 56.9951595,50.5050243 Z" id="Combined-Shape"></path>
            </g>
            <g id="core" transform="translate(421.800000, 18.500000)" fill="#FFFFFF">
                <path d="M5.68110528,52.5782652 C7.65510528,53.1162652 9.76510528,53.3692652 11.5791053,54.2392652 C21.3801053,58.9402652 40.6601053,51.5432652 43.8671053,39.2812652 C47.2021053,26.5302652 39.4731053,13.3122652 27.2671053,13.8422652 C22.8861053,14.0322652 18.0871053,15.9922652 14.4411053,18.5282652 C10.8481053,21.0262652 11.9121053,25.9342652 13.9601053,29.0282652 C15.4071053,31.2132652 18.9421053,32.0942652 21.6781053,33.2382652 C21.9931053,33.3692652 23.5701053,31.5442652 23.8501053,30.4462652 C24.2891053,28.7192652 24.1211053,26.8382652 24.2391053,24.4622652 C28.6461053,23.4442652 31.7101053,25.2632652 33.8551053,29.1212652 C36.2261053,33.3862652 35.3061053,38.2142652 31.3061053,41.1282652 C20.1501053,49.2542652 6.53410528,43.4972652 2.29110528,32.0522652 C-2.49789472,19.1332652 -0.0148947168,14.5552652 11.9741053,4.88026522 C22.9121053,-3.94773478 41.4401053,0.199265219 49.8561053,9.37326522 C60.1971053,20.6452652 61.9451053,34.6982652 54.6631053,48.4052652 C46.4651053,63.8362652 22.9701053,69.8282652 8.41610528,59.9882652 C6.63210528,58.7822652 5.78310528,56.1922652 4.50110528,54.2432652 C4.89510528,53.6882652 5.28810528,53.1332652 5.68110528,52.5782652" id="Fill-8"></path>
            </g>
            <g id="tgt" transform="translate(220.400000, 19.000000)" fill="#FFFFFF">
                <path d="M0.417886228,6.87558429 C20.9153681,-1.33439114 40.3581659,-1.36228361 59.959602,6.45981209 C62.7270584,30.5092262 52.8592241,53.022811 33.1043793,63.4563396 C31.6138752,64.2434304 28.7915055,63.8171985 27.1990196,62.8976185 C14.4539022,55.5401068 6.28140727,44.5103766 3.27599318,30.17103 C1.57280898,22.0482186 1.20846354,13.6447391 0.417886228,6.87558429 Z M6.47815376,14.9681523 C7.8003327,32.8005913 13.4555437,46.2970024 26.2948598,56.201361 C28.978164,58.2705111 31.462742,59.0304644 34.6843049,56.4879662 C48.6360888,45.4791289 54.6188486,30.8362968 54.8595171,13.495181 C54.8764938,12.3158054 53.8778692,10.3145618 52.9681222,10.0599125 C46.2853265,8.18649279 39.5336258,5.52715555 32.7449759,5.34940038 C26.172029,5.17663833 19.5761137,8.04668535 12.9033043,8.8735465 C7.54268755,9.53763184 5.72718808,11.9572992 6.47815376,14.9681523 Z M30.1185771,30.1182958 L13.5600355,28.0333333 L10.6905973,13.8935923 L29.9703984,10.1333381 L29.9703984,30.2499134 L30.1185771,30.1182958 Z M47.7380787,30.2500877 C44.513883,39.6951768 39.6527477,47.240091 31.0531493,53.2282565 C30.7280277,45.1002153 30.4281836,37.6058561 30.1231096,30.1149836 C30.1187514,30.1184701 29.9705727,30.2500877 29.9705727,30.2500877 L47.7380787,30.2500877 Z" id="Combined-Shape"></path>
            </g>
            <g id="gng" transform="translate(114.200000, 13.000000)" fill="#FFFFFF">
                <path d="M25.0258906,73.1209259 C25.0258906,73.1209259 26.8422968,65.9919968 20.4230005,62.0467072 C14.0037043,58.1014175 10.989,63.79 9.291,64.992 C6.257,60.259 3.369,55.754 -1.33226763e-15,50.499 C8.822,48.43 8.7505002,45.9158478 8.7505002,39.7527618 C8.7505002,33.5896759 -1.33226763e-15,31.9021759 -1.33226763e-15,31.9021759 C-1.33226763e-15,31.9021759 2.99,21.124 4.673,17.036 C9.069,19.068 12.6449997,20.6658485 16.534,17.097 C20.4230003,13.5281515 17.5571406,4.72541714 17.5571406,4.72541714 C17.5571406,4.72541714 27.661,1.263 31.514,0 C31.98,0.945 32.1469862,10.2742453 39.6108534,11.2742453 C47.0747206,12.2742453 49.870619,4.72541714 49.870619,4.72541714 L61.7192518,11.8338156 C61.7192518,11.8338156 55.3442518,16.3149776 58.7290175,22.2224884 C62.1137831,28.1299992 68.556,25.14 70.482,24.846 C71.118,29.519 71.2200006,35.3457618 71.4820006,39.7527618 C71.5400006,40.7357618 65.7995665,37.2410431 63.1137831,46.326004 C60.4279997,55.410965 69.1508925,56.9129181 69.1508925,56.9129181 C69.1508925,56.9129181 62.137,65.368 58.371,69.442 C54.499,66.53 52.1588018,63.0856934 46.0747206,64.9919968 C38.2553847,67.4420013 40.3872206,75.2097931 40.3872206,75.2097931 L25.0258906,73.1209259 Z M36.139,62.974 C49.888,62.967 60.538,52.412 60.535,38.795 C60.532,24.876 49.893,14.262 35.952,14.267 C22.037,14.272 11.642,24.848 11.655,38.986 C11.667,52.567 22.297,62.981 36.139,62.974 Z M56.2858665,39.2634134 C56.0170125,50.3538727 46.6339148,59.1355134 35.4067187,58.8047583 C24.5038105,58.4823182 15.7766797,49.202697 16.0483054,38.2194098 C16.3171594,27.3405229 25.6180303,18.3704072 36.4414834,18.5505671 C47.4922151,18.7344226 56.5547205,28.1932798 56.2858665,39.2634134 Z M45.1111,38.7374 C45.2521,33.4034 40.7391,28.7764 35.4051,28.7844 C30.5351,28.7914 25.7931,33.5554 25.8131,38.4194 C25.8351,43.5584 30.1931,47.9144 35.3641,47.9654 C40.7331,48.0184 44.9721,44.0054 45.1111,38.7374 Z" id="Combined-Shape"></path>
            </g>
            <g id="loe" transform="translate(311.000000, 127.500000)" fill="#FFFFFF">
                <path d="M52.370524,3.69454451 C53.724524,7.75254451 55.856524,11.5515445 58.009524,16.2545445 C54.072524,17.2665445 50.720524,18.1285445 46.630524,19.1805445 C45.716524,22.2885445 41.455524,24.1725445 37.551524,21.9535445 C35.808524,26.7665445 32.113524,28.1925445 28.175524,25.5735445 C26.509524,28.5515445 24.897524,31.4115445 21.085524,27.6805445 C20.726524,27.3285445 17.800524,28.6275445 17.833524,29.0085445 C17.997524,30.9325445 18.226524,33.3555445 19.457524,34.5255445 C20.449524,35.4685445 23.115524,35.4505445 24.666524,34.8675445 C31.600524,32.2585445 38.406524,29.3085445 45.247524,26.4535445 C50.696524,24.1805445 56.131524,21.8725445 61.567524,19.5675445 C64.465524,18.3375445 67.313524,16.9825445 70.252524,15.8625445 C73.297524,14.7025445 76.848524,13.5985445 78.370524,17.6215445 C79.815524,21.4365445 76.694524,23.8565445 73.676524,24.5165445 C69.012524,25.5365445 64.093524,25.3355445 59.317524,25.9355445 C57.856524,26.1185445 56.424524,27.0935445 55.128524,27.9355445 C46.368524,33.6335445 37.878524,39.7895445 28.843524,45.0055445 C21.576524,49.2015445 13.554524,49.2545445 5.74452405,45.8165445 C-1.26447595,42.7315445 -1.92447595,38.6305445 4.12152405,34.1925445 C7.16652405,31.9585445 10.641524,30.1525445 14.165524,28.7755445 C16.919524,27.6995445 17.637524,26.3815445 17.145524,23.5785445 C16.720524,21.1565445 17.082524,18.6075445 16.907524,16.1275445 C16.749524,13.8775445 16.335524,11.6445445 16.128524,10.1015445 C24.773524,7.10154451 33.291524,4.14654451 41.809524,1.19154451 C43.080524,1.11354451 44.351524,1.03554451 45.622524,0.958544512 C48.953524,-0.796455488 51.043524,-0.285455488 52.370524,3.69454451 Z" id="Combined-Shape"></path>
            </g>
            <g id="expert" transform="translate(7.000000, 8.000000)" fill="#FFFFFF">
                <path d="M42.5718,58.6013 C50.6178,58.4823 58.7548,50.2523 58.6318,42.3593 C58.5058,34.2243 50.4358,26.3603 42.3158,26.4573 C34.1348,26.5563 26.1888,34.5543 26.2628,42.6153 C26.3358,50.5703 34.6488,58.7183 42.5718,58.6013 M64.9628,65.7723 C58.6758,62.3183 53.2158,65.3433 47.4978,66.5323 C44.0188,67.2543 40.0258,67.3033 36.6518,66.3223 C31.1888,64.7323 26.0178,62.5263 19.9678,66.1243 C23.0098,59.6883 19.8608,54.6743 18.5468,49.1783 C17.3318,44.0943 17.4188,38.0923 18.9618,33.1253 C20.5288,28.0833 22.7048,23.6353 19.5698,18.7253 C20.2978,18.3343 20.6478,17.9893 20.8508,18.0603 C26.0138,19.8673 30.8478,19.6583 36.1658,17.6873 C39.8238,16.3323 44.5628,16.3913 48.4058,17.3973 C53.8908,18.8333 59.0598,20.7503 65.1068,17.8103 C62.3188,23.5633 64.2838,28.1063 66.5898,33.0393 C69.4468,39.1493 69.2488,45.9763 66.1068,51.9293 C63.7358,56.4213 62.8878,60.4603 64.9628,65.7723 Z M12.834,49.3267 C8.683,46.9247 4.719,44.6307 0,41.9007 C4.62,39.1907 8.637,36.8337 12.834,34.3717 L12.834,49.3267 Z M72.7011,34.8786 C76.7581,37.1666 80.4461,39.2466 84.9651,41.7956 C80.6081,44.3586 76.8941,46.5436 72.7011,49.0106 L72.7011,34.8786 Z M35.3282,12.2664 C37.7342,8.2484 39.9022,4.6274 42.4812,0.3214 C45.0492,4.6194 47.2072,8.2314 49.6182,12.2664 L35.3282,12.2664 Z M35.3513,71.513 L49.5873,71.513 C47.2293,75.477 45.0833,79.085 42.4653,83.485 C39.8713,79.12 37.6683,75.412 35.3513,71.513 Z" id="Combined-Shape"></path>
            </g>
            <g id="reward" transform="translate(124.000000, 119.500000)" fill="#FFFFFF">
                <path d="M30.94,14.769333 C31.402,15.393333 31.864,16.018333 32.327,16.642333 C36.673,14.765333 41.147,13.121333 45.289,10.868333 C46.529,10.194333 46.843,7.81933297 47.581,6.22333297 C45.85,5.85733297 43.492,4.59133297 42.497,5.28333297 C38.419,8.12133297 34.756,11.555333 30.94,14.769333 L30.94,14.769333 Z M22.846,16.645333 C23.257,16.022333 23.668,15.399333 24.079,14.776333 C20.26,11.562333 16.596,8.12333297 12.512,5.29133297 C11.481,4.57533297 9.107,5.79733297 7.349,6.12933297 C8.056,7.70033297 8.343,10.051333 9.547,10.699333 C13.81,12.996333 18.388,14.710333 22.846,16.645333 L22.846,16.645333 Z M24.261,37.167333 C16.478,37.167333 -4.4408921e-16,37.1903326 -4.4408921e-16,37.1903326 L-4.4408921e-16,19.755333 L20.915,19.755333 C21.033,19.361333 17.847,17.253333 16.191,16.476333 C12.435,14.715333 8.623,13.043333 5.01,11.020333 C2.353,9.53333297 1.11605787,7.08633306 2.59305787,3.88833306 C4.14105787,0.534333058 6.827,-1.00066703 9.952,0.696332971 C14.384,3.10233297 18.719,6.05233297 22.295,9.58133297 C27.9,15.113333 27.36,15.143333 32.864,9.63533297 C36.311,6.18433297 40.437,3.22433297 44.704,0.840332971 C47.955,-0.975667029 51.402,0.266332971 53.061,3.88833297 C54.622,7.29633297 52.665,9.80233297 49.827,11.304333 C44.869,13.928333 39.729,16.209333 34.613,19.433333 L55.95,19.433333 C55.95,24.996333 55.9500008,37.1903326 55.9500008,37.1903326 C55.9500008,37.1903326 38.5,37.190333 30.454,37.190333 C30.454,32.644333 30.214,28.525333 30.518,24.446333 C30.856,19.911333 28.883,18.796333 24.261,19.996333 L24.261,37.167333 Z M30.7768,62.511333 L30.7768,44.278333 L55.6388,44.278333 L55.6388,62.511333 L30.7768,62.511333 Z M0.3348,62.505333 L0.3348,44.322333 L23.7848,44.322333 L23.7848,62.505333 L0.3348,62.505333 Z" id="Combined-Shape"></path>
            </g>
            <g id="brm" transform="translate(413.000000, 123.500000)" fill="#FFFFFF">
                <path d="M41.672,32.4052712 C35.242,34.7992712 29.75,36.8442712 23.545,39.1542712 C26.806,43.1192712 29.478,46.3672712 32.456,49.9892712 L0,49.9892712 C1.496,47.1512712 2.532,44.9702712 3.758,42.9002712 C8.834,34.3312712 14.026,25.8302712 19.048,17.2302712 C20.765,14.2892712 22.28,14.0332712 24.762,16.4732712 C30.065,21.6872712 35.577,26.6892712 41.672,32.4052712 Z M60.6214,23.5633712 C65.2634,32.4203712 69.5504,40.6003712 73.9264,48.9493712 C62.6144,54.4653712 59.5604,45.9193712 55.7074,38.1943712 C53.3814,41.6723712 51.5984,44.4413712 49.7104,47.1363712 C46.9064,51.1373712 42.5714,51.8273712 38.6704,48.7513712 C35.4204,46.1893712 32.3574,43.3913712 28.8874,40.4203712 C39.0344,33.9133712 52.2854,34.5023712 60.6214,23.5633712 Z M27.2069,16.3784712 C30.3019,11.4014712 33.1539,6.72747119 36.0999,2.11347119 C37.7649,-0.49552881 40.0799,-0.83552881 41.5599,1.91947119 C46.0279,10.2344712 50.1569,18.7324712 54.5199,27.3614712 C49.8509,30.1834712 46.1229,31.3454712 41.7399,27.3314712 C37.3569,23.3174712 32.2349,20.1104712 27.2069,16.3784712 Z" id="Combined-Shape"></path>
            </g>
            <g id="gangs" transform="translate(16.000000, 221.000000)" fill="#FFFFFF">
                <path d="M9.22940909,26.0935983 C9.22940909,26.0935983 8.52605725,19.9849548 13.8767899,15.8233469 C19.2275225,11.661739 25.281607,12.3466853 25.281607,12.3466853 C25.281607,12.3466853 25.1777476,8.11737159 31.406684,4.64596876 C37.6356204,1.17456592 43.8330046,4.24170579 43.8330046,4.24170579 C43.8330046,4.24170579 55.53954,-6.06075523 64.4964298,5.44660664 C73.4533196,16.9539685 55.4126737,23.1145418 56.5170018,27.2984992 C57.6213299,31.4824566 64.5713663,26.8975229 66.1805302,31.2425282 C67.789694,35.5875334 57.3899469,42.8807003 49.1528424,47.7528908 C40.9157379,52.6250812 26.8756521,59.1531065 23.462095,56.9957227 C20.0485379,54.8383388 28.1042171,47.3249636 23.462095,46.3172642 C18.8199729,45.3095648 9.25175858,57.6228233 2.02564016,43.9547909 C-5.20047826,30.2867585 9.22940909,26.0935983 9.22940909,26.0935983 Z M41.100004,23.6939811 C43.9967071,22.7667787 45.4425299,17.5786623 43.8726563,13.6643155 C42.3027827,9.74996862 37.5926484,7.49848349 34.7481453,8.62187441 C31.9036422,9.74526533 29.3579724,12.8774817 31.4483077,17.6412113 C33.5386431,22.404941 38.2033009,24.6211836 41.100004,23.6939811 Z M58.0748933,19.1836596 C60.9715964,18.2564571 62.4174192,13.0683407 60.8475456,9.15399388 C59.277672,5.23964704 54.5675377,2.98816191 51.7230346,4.11155283 C48.8785315,5.23494375 46.3328617,8.3671601 48.423197,13.1308898 C50.5135324,17.8946194 55.1781902,20.110862 58.0748933,19.1836596 Z M10.3199331,45.3542638 C14.3162537,45.3542638 17.5559116,42.1146059 17.5559116,38.1182853 C17.5559116,34.1219648 14.3162537,30.8823068 10.3199331,30.8823068 C6.32361253,30.8823068 3.0839546,34.1219648 3.0839546,38.1182853 C3.0839546,42.1146059 6.32361253,45.3542638 10.3199331,45.3542638 Z M27.6052974,43.4254664 C28.5324999,46.3221695 35.0864631,49.9196739 45.7767536,43.4254664 C56.4670441,36.9312588 54.1124588,32.8827878 52.9890679,30.0382846 C51.865677,27.1937815 44.8788297,25.0701228 36.4957961,28.7683073 C28.1127625,32.4664918 26.678095,40.5287633 27.6052974,43.4254664 Z M25.7351703,32.1779204 C28.6318734,31.2507179 30.2453176,26.40376 28.675444,22.4894132 C27.1055703,18.5750663 21.9427415,16.4172477 19.0982383,17.5406386 C16.2537352,18.6640295 13.3640661,23.1796183 15.4544015,27.9433479 C17.5447368,32.7070776 22.8384673,33.1051228 25.7351703,32.1779204 Z" id="Combined-Shape"></path>
            </g>
            <g id="kara" transform="translate(526.500000, 119.500000)" fill="#FFFFFF">
                <path d="M5.7106094,0 L10.5324755,0 L12.4625007,4.36516352 L17.5839638,4.36516352 L17.5839638,0 L28.4443518,0 L28.4443518,4.36516352 L33.8014734,4.36516352 L35.2784496,0 L40.5515379,0 C40.5515379,0 40.6492723,7.00399118 40.5515379,10.9855245 C40.4538035,14.9670578 39.2974325,18.0050436 33.8014734,18.0050436 L12.4625007,18.0050436 C7.34103771,18.0050436 5.7106094,15.909692 5.7106094,10.9855245 L5.7106094,0 Z M9.93054149,39.0142769 C12.3243582,28.7303413 12.546534,20.5771927 12.546534,20.5771927 L34.2682234,20.5771927 C34.2682234,20.5771927 34.6782042,34.290512 35.8438474,39.0142769 C37.0094907,43.7380419 41.0192014,47.9355056 41.0192014,47.9355056 C41.0192014,47.9355056 9.93054149,47.9355056 6.17827287,47.9355056 C2.42600425,47.9355056 7.53672474,49.2982125 9.93054149,39.0142769 Z M2.32004924,50.273823 L43.4744346,50.273823 C43.4744346,50.273823 46,53.2212719 46,56.1687208 C46,59.1161697 43.4744346,62.0636186 43.4744346,62.0636186 L2.32004924,62.0636186 C2.32004924,62.0636186 6.65510339e-16,59.1161697 0,56.1687208 C0,53.2212719 2.32004924,50.273823 2.32004924,50.273823 Z M19.7136066,31.5672842 L19.7136066,39.2837315 L27.1962221,39.2837315 L27.1962221,31.5672842 L23.4549143,28.0926908 L19.7136066,31.5672842 Z" id="Combined-Shape"></path>
            </g>
            <g id="icecrown" transform="translate(227.000000, 216.000000)" fill="#FFFFFF">
                <path d="M18.1105092,54.6263914 C18.1105092,55.3028715 21.6220785,58.9654354 21.6220785,60.1937678 C21.6220785,61.4221001 16.8350883,68.7068486 14.4571668,69.0847203 C12.0792453,69.462592 4.21137532,67.2317531 3.14915112,65.105103 C2.44100165,63.6873363 3.41604971,62.6060649 6.07429532,61.8612887 C2.35131942,52.7484986 0.482134199,47.8537803 0.466739645,47.1771341 C0.451345092,46.5004878 1.65194127,45.0021284 4.06852818,42.6820559 C2.09086506,37.6889647 1.17560514,34.7504056 1.32274843,33.8663786 C1.46989172,32.9823515 3.65036914,31.4150314 7.86418069,29.1644181 C4.12760031,27.3471776 2.25931011,26.1027267 2.25931011,25.4310655 C2.25931011,24.4235738 8.2144547,22.8300875 10.8442383,19.4985352 C12.5974273,17.2775003 13.2626568,12.213864 15.5671857,6.45472687 C14.9002077,20.1524935 15.2715416,24.9814222 15.5671857,26.1811523 C25.6982422,17.3686523 16.6230469,18.3671576 16.6230469,10.7394332 C16.6230469,5.65428357 19.2810323,2.07447251 21.6220785,0 C19.8913876,7.43086161 18.8632813,12.5358686 24,12.5358686 C29.1367187,12.5358686 27.7568409,7.77857338 26.3779215,0 C28.7189677,2.07447251 31.1835937,5.65428357 31.1835937,10.7394332 C31.1835937,18.3671576 22.2109457,15.3046875 31.7724609,26.1811523 C33.0216815,25.6435547 33.0997923,20.1524935 32.4328143,6.45472687 C34.7373432,12.213864 36.2980805,18.3497659 38.0512695,20.5708008 C40.6810531,23.9023531 45.7406899,24.4235738 45.7406899,25.4310655 C45.7406899,26.1027267 43.8723997,27.3471776 40.1358193,29.1644181 C44.3496309,31.4150314 46.5301083,32.9823515 46.6772516,33.8663786 C46.8243949,34.7504056 45.9091349,37.6889647 43.9314718,42.6820559 C46.3480587,45.0021284 47.5486549,46.5004878 47.5332604,47.1771341 C47.5178658,47.8537803 45.6486806,52.7484986 41.9257047,61.8612887 C44.5839503,62.6060649 45.5589984,63.6873363 44.8508489,65.105103 C43.7886247,67.2317531 35.9207547,69.462592 33.5428332,69.0847203 C31.1649117,68.7068486 26.3779215,61.4221001 26.3779215,60.1937678 C26.3779215,58.9654354 29.8894908,55.3028715 29.8894908,54.6263914 C29.8894908,54.1940236 24.68697,44.5880618 24,44.6035156 C23.31303,44.6189695 18.1105092,54.1852311 18.1105092,54.6263914 Z M8.50878906,37.6083984 C10.700323,42.6910933 12.2972185,45.6870165 13.2994755,46.5961681 C14.3017325,47.5053198 16.9618577,47.036719 21.279851,45.1903657 L8.50878906,37.6083984 Z M39.6464844,37.9052734 L26.6022494,45.2498886 C30.4385364,47.0451947 32.9060506,47.6471637 34.0047921,47.0557957 C35.1035337,46.4644278 36.9840977,43.4142537 39.6464844,37.9052734 Z" id="Combined-Shape"></path>
            </g>
            <g id="ungoro" transform="translate(127.000000, 224.000000)" fill="#FFFFFF">
                <path d="M3.2120001,55.8092155 C9.0458055,59.9836469 15.2742525,52.652709 20.800488,50.3550178 C26.3267235,48.0573266 39.2008101,45.8911826 41.5999806,44.1234387 C43.9991511,42.3556948 57.9469134,31.5663182 56.6314414,30.3823934 C55.3159693,29.1984685 51.4823079,30.2427027 48.2236956,31.1090351 C44.9650834,31.9753674 43.2029773,31.1090351 40.0533613,31.1090351 C36.9037453,31.1090351 28.748701,36.5588479 26.9381048,34.3225454 C25.1275086,32.0862429 31.3148683,23.6634632 35.1028014,23.0946781 C38.8907346,22.5258931 43.7730152,3.52546513 41.5999806,1.52970609 C39.426946,-0.46605296 25.2849949,8.93894588 23.443334,12.7099658 C21.6016731,16.4809857 23.3268208,17.4913935 21.8547449,20.2388509 C20.382669,22.9863083 17.0445021,26.0288072 14.0258069,26.0288072 C11.0071117,26.0288072 12.7078292,13.6026076 11.4568779,12.7099658 C10.2059266,11.817324 10.7759645,11.0274144 9.85513402,9.4526064 C8.93430358,7.87779842 10.3312096,0 9.00696775,0 C7.68272587,0 1.27387126,2.89529137 1.27387126,12.7099658 C1.27387126,22.5246402 1.27387126,27.2033359 1.27387126,34.3225454 C1.27387126,41.4417549 -2.62180529,51.6347842 3.2120001,55.8092155 Z" id="Path-4"></path>
            </g>
            <g id="kobolds" transform="translate(327.000000, 212.000000)" fill="#FFFFFF">
                <path d="M21.3271716,27.8261719 C15.8392817,26.2036125 12.8470865,23.9028312 12.3505859,20.9238281 C11.6058352,16.4553235 15.494723,15.7100695 16.9628906,11.2675781 C18.4310583,6.82508677 17.6429866,0.82421875 18.9931641,0.82421875 C20.3433415,0.82421875 32.7392578,10.4726563 32.7392578,18.1621094 C32.7392578,23.2884115 30.3320313,26.5097656 25.5175781,27.8261719 C27.125651,26.9456989 27.9296875,25.337626 27.9296875,23.0019531 C27.9296875,19.4984438 24.9962984,21.5809236 23.9746094,19.4984438 C22.9529203,17.4159641 25.5175781,14.9404297 23.9746094,14.9404297 C22.4316406,14.9404297 18.9931641,19.0464146 18.9931641,23.0019531 C18.9931641,25.6389788 19.7711666,27.2470517 21.3271716,27.8261719 Z M1.00878906,65.2070313 C1.78172972,64.1325231 4.96203208,64.8056524 6.0573534,61.1183593 C6.79891911,58.6219502 7.35579341,52.7944021 7.7279763,43.635715 C7.69105061,46.6956289 6.55906893,47.5224609 4.33203125,46.1162109 C0.991474727,44.0068359 7.7279763,41.4511252 7.7279763,33.8857422 C7.7279763,26.3203592 14.6900473,29.5679218 18.4609375,30.5101159 C22.2318277,31.45231 23.265625,34.1533203 23.265625,39.5908203 C23.265625,45.0283203 17.8662109,52.9912109 24.5390625,52.9912109 C31.2119141,52.9912109 27.5175781,45.3203125 27.5175781,39.5908203 C27.5175781,33.8613281 31.5529517,26.8945313 35.15625,28.359375 C38.7595483,29.8242187 39.5190966,32.2586957 36.7048608,35.924758 C33.890625,39.5908203 35.15625,50.8591418 36.7048608,57.663121 C38.2534716,64.4671002 43.0585938,66.054233 41.5710725,69.302813 C40.0835512,72.5513929 37.0827134,68.3961876 31.1972656,69.302813 C25.3118179,70.2094383 26.2841797,73.5566406 18.4609375,73.5566406 C10.6376953,73.5566406 8.62345044,72.2172203 6.0573534,69.302813 C3.49125636,66.3884056 -1.32805646,68.4556112 1.00878906,65.2070313 Z"></path>
            </g>
            <g id="mamouth" transform="translate(516.000000, 214.000000)" fill="#FFFFFF" fill-rule="nonzero">
                <path d="M54.570895,8.71858936 C52.7377662,11.2271789 55.0512501,13.9994081 55.0512501,13.9994081 C55.0512501,13.9994081 55.6915177,11.5988676 56.9714355,11.5988676 C58.2513534,11.5988676 63.212347,15.5991511 63.212347,25.3612258 C63.212347,35.1233006 59.5318886,38.643229 57.6117032,38.643229 C55.6915177,38.643229 53.9843432,36.2426885 54.731425,34.0026779 C55.500734,31.6947508 53.9312448,26.9615862 51.2108791,26.6417611 L50.7008877,23.7522215 C50.7008877,23.7522215 52.1308394,21.6406349 51.8906618,20.1606721 C51.6504843,18.6807092 49.3123035,16.6740845 48.9412322,15.3972538 C48.1638967,12.7225774 46.9568348,9.48357643 44.6149494,7.23739163 C44.3006811,6.93608921 46.4091806,5.99884113 45.1095052,4.73868082 C43.8092124,3.47852051 39.3304261,3.70943671 39.3304261,3.70943671 C38.17708,3.33095642 36.9095106,3.11856292 35.5178392,3.11856292 C35.3079154,3.01854039 34.6478902,0.238284705 33.8878425,0.578484768 C33.1277948,0.918684831 30.2820923,4.28734462 30.2820923,4.28734462 C25.7532947,6.49030982 23.2675498,11.3969703 22.1049423,15.3978712 C21.7338711,16.6753193 19.4006297,18.6813266 19.1604521,20.1612895 C18.9202746,21.6412524 20.3526959,23.752839 20.3526959,23.752839 L19.8439394,26.6423785 C17.1235737,26.9622036 15.5547019,31.6953682 16.324011,34.0032953 C17.0704753,36.2439233 15.3639182,38.6438464 13.4437327,38.6438464 C11.5235473,38.6438464 7.84308888,35.1233006 7.84308888,25.3618433 C7.84308888,15.6003859 12.8040825,11.599485 14.0840004,11.599485 C15.3639182,11.599485 16.0041859,14.0000255 16.0041859,14.0000255 C16.0041859,14.0000255 18.3176698,11.2277964 16.4845409,8.71920678 C15.4707324,7.33247477 14.3501097,6.70640786 12.8040825,7.11884641 C11.2043396,7.54486827 0.802614615,14.3192332 0.962527168,28.5613292 C1.05884515,37.1274556 2.93642844,41.2567805 5.89635422,44.3772363 C5.89635422,44.3772363 6.96326113,45.9238808 9.04335915,45.6040557 C11.1234572,45.2842306 16.4308251,38.5895132 24.0590861,39.336595 L24.3258128,36.7230435 C24.3258128,36.7230435 25.245773,35.3628607 25.8459082,36.7230435 L25.9261732,40.2034569 C25.9261732,40.2034569 30.6469893,50.5249169 35.9278081,53.08537 L38.0079061,54.3652878 C38.0079061,54.3652878 38.8167302,54.8789838 38.1276861,55.8853832 C37.607816,56.6454309 36.3272807,55.4451606 36.3272807,55.4451606 C36.3272807,55.4451606 34.3669628,53.7651527 33.6470476,54.6048479 C32.9271324,55.4451606 34.2873152,60.8858919 33.1666925,61.3656296 C32.0460698,61.8453673 31.5663321,61.7657197 31.3662871,61.3656296 C31.166242,60.9655395 30.9260645,53.8046678 30.9260645,53.8046678 C30.9260645,53.8046678 27.2456061,42.2026725 21.6844773,41.8427149 C16.1233485,41.4827573 11.2438547,46.1239259 11.1240746,49.4444267 C11.0042945,52.7649275 12.8040825,57.9654812 17.5248987,57.9259662 C22.2457148,57.8858337 22.6569185,55.133362 23.0860275,53.5249752 C23.5663825,51.7245697 23.3663375,49.0042041 21.8061096,48.8442915 C21.8061096,48.8442915 21.165842,48.7245115 20.6861043,50.2847393 C20.6861043,50.2847393 20.3261467,51.0046545 19.6858791,51.044787 C18.5652564,51.1145558 17.0852935,50.1248268 17.5255161,48.7245115 C18.0466211,47.0654959 19.1258764,45.8041008 21.0460619,46.4042359 C23.606515,47.2044161 25.6069655,50.2446068 25.286523,53.6052401 C24.9666979,56.9658734 19.7655267,59.3657966 20.3255293,63.8470526 C20.8855319,68.3276911 22.8859824,70.8881442 31.9275246,70.8480118 C40.9690667,70.8078793 47.4896708,56.2058257 48.2497185,50.9651395 C49.0097662,45.7244532 46.249268,36.1229084 46.249268,36.1229084 C46.249268,36.1229084 46.0090905,34.6824606 47.4495383,36.1229084 C48.8899861,37.5633562 50.4100815,49.0048215 50.4100815,49.0048215 C50.250169,49.044954 56.1712554,48.8850414 59.0515336,48.0848613 C61.9318118,47.2846811 69.9329962,42.8040425 70.0929088,28.5619466 C70.2528213,14.3192332 59.8517138,7.54486827 58.2513534,7.11822899 C56.7053262,6.70579044 55.5840861,7.33185734 54.570895,8.71858936 Z M35.527718,22.2006376 C35.527718,22.2006376 38.2480836,22.5605952 38.8883512,24.5610457 C38.8883512,24.5610457 35.8919975,23.9707893 35.527718,24.012774 C35.1634384,23.9707893 32.1670847,24.5610457 32.1670847,24.5610457 C32.8073523,22.5605952 35.527718,22.2006376 35.527718,22.2006376 Z M28.4866263,27.7321301 L23.3657201,27.7321301 C23.3657201,27.7321301 21.978988,23.4651199 23.045895,22.1845846 C24.1128019,20.9046668 30.1938008,26.4972841 28.4866263,27.7321301 Z M40.7616126,30.2833218 C39.063082,27.7160771 35.5283354,27.9531675 35.5283354,27.9531675 C35.5283354,27.9531675 31.9929714,27.7160771 30.2950582,30.2833218 C29.4565978,31.5508912 28.8212695,30.2425719 29.2281513,29.5066037 C29.6004573,28.8329953 31.5657147,26.4812311 35.5289528,26.4812311 C39.4921909,26.4812311 41.4574483,28.8329953 41.8297543,29.5066037 C42.2347838,30.2425719 41.5994556,31.5508912 40.7616126,30.2833218 Z M47.6897159,27.7321301 L42.5688096,27.7321301 C40.8616351,26.4972841 46.942634,20.9046668 48.009541,22.1845846 C49.0764479,23.4651199 47.6897159,27.7321301 47.6897159,27.7321301 Z"></path>
            </g>
            <path d="M475.147958,266.287641 L472.282726,257.559972 C473.349233,256.045962 474.242231,254.401987 474.935594,252.656186 L490,243.662561 L474.754047,234.680324 C474.123656,233.184401 473.341864,231.768198 472.432118,230.447124 L474.947653,220.537723 L465.341724,223.691019 C464.198177,222.982917 462.989649,222.371284 461.727527,221.862817 L452.853147,206.998047 L444.131508,221.801855 C442.709275,222.363915 441.355375,223.057948 440.083204,223.870556 L429.197066,220.737358 L432.432761,231.75882 C431.809069,232.805899 431.265767,233.906571 430.806204,235.049448 L416.188633,243.662561 L430.621977,252.279693 C431.112356,253.58067 431.713941,254.826044 432.414673,256.006437 L429.39804,266.487945 L439.47492,263.529596 C440.91792,264.515042 442.476815,265.341049 444.124138,265.992207 L452.853147,280.809414 L461.734896,265.932585 C463.122292,265.372535 464.444037,264.685871 465.686731,263.885991 L475.147958,266.287641 Z M442.19344,256.13707 C441.994475,255.866424 441.704401,254.887007 441.704401,254.887007 L441.160429,253.745469 C441.160429,253.745469 440.67139,252.930181 441.704401,253.092971 C442.737412,253.255761 446.488273,254.723547 448.553624,254.77848 C450.619646,254.832743 451.70692,253.745469 452.087432,253.636943 C452.467945,253.528417 454.696756,252.658195 455.349254,252.549669 C456.001753,252.441143 460.0246,249.97987 460.622165,244.061831 C461.2204,238.143791 455.892556,234.664916 452.848457,234.610653 C452.848457,234.610653 450.945895,234.55639 450.51112,234.828376 C450.076344,235.100362 447.249298,236.404688 445.999234,236.568148 C445.999234,236.568148 444.966223,237.546896 445.129683,238.742696 C445.292472,239.938496 445.292472,244.055132 449.641568,244.062501 C449.641568,244.062501 450.679938,243.501781 450.568732,239.437399 C450.568732,239.437399 455.981655,238.987215 456.122338,244.062501 C456.26302,249.137786 451.272144,249.840528 448.179141,249.700515 C445.086138,249.560503 438.547756,245.27036 439.040144,238.451952 L439.421327,236.023506 L440.508601,234.773443 C440.508601,234.773443 443.009398,229.717585 448.717084,228.195535 C448.717084,228.195535 449.206123,227.380247 449.804358,227.380247 C450.402593,227.380247 450.891632,228.032746 451.761183,228.141272 C452.630734,228.249799 452.956984,227.325984 453.772272,227.380247 C454.58756,227.434511 454.641823,228.032746 455.512044,228.195535 C456.381595,228.358325 460.622165,228.848034 464.046776,233.522709 C464.046776,233.522709 464.209566,234.718509 464.699275,234.936232 C465.188314,235.153955 466.329851,235.642994 466.49331,236.023506 C466.6561,236.404019 467.798307,240.481129 467.689111,242.220901 C467.579914,243.960673 467.090876,252.06063 461.709439,254.560757 L461.600912,256.028544 C461.600912,256.028544 457.578066,259.616615 451.434934,259.181839 C445.292472,258.746394 443.638449,258.099925 442.19344,256.13707 Z" id="Shape" fill="#FFFFFF" fill-rule="nonzero"></path>
        </g>
        <g id="Group-31" transform="translate(722.126465, 791.217285)" fill="#FFFFFF" fill-opacity="0.519984149" font-family="OpenSans, Open Sans" font-size="24" font-weight="normal">
            <text id="CLASS">
                <tspan x="0" y="26.328125">CLASS</tspan>
            </text>
        </g>
    </g>
</svg>