<?xml version="1.0" encoding="UTF-8" standalone="no"?>
<svg width="220px" height="254px" viewBox="0 0 220 254" version="1.1" xmlns="http://www.w3.org/2000/svg" xmlns:xlink="http://www.w3.org/1999/xlink">
    <!-- Generator: Sketch 3.8.2 (29753) - http://www.bohemiancoding.com/sketch -->
    <title>attack</title>
    <desc>Created with Sketch.</desc>
    <defs>
        <linearGradient x1="69.749814%" y1="100%" x2="33.5100446%" y2="24.7372582%" id="linearGradient-1">
            <stop stop-color="#58544F" offset="0%"></stop>
            <stop stop-color="#8A847E" offset="100%"></stop>
        </linearGradient>
        <ellipse id="path-2" cx="84" cy="84" rx="84" ry="84"></ellipse>
        <mask id="mask-3" maskContentUnits="userSpaceOnUse" maskUnits="objectBoundingBox" x="-4" y="-4" width="176" height="176">
            <rect x="-4" y="-4" width="176" height="176" fill="white"></rect>
            <use xlink:href="#path-2" fill="black"></use>
        </mask>
        <radialGradient cx="50%" cy="50%" fx="50%" fy="50%" r="50.1067552%" id="radialGradient-4">
            <stop stop-color="#FFD500" offset="0%"></stop>
            <stop stop-color="#F7CB01" offset="79.819037%"></stop>
            <stop stop-color="#AF7B0C" offset="100%"></stop>
        </radialGradient>
        <path d="M53.3828125,0 C67.8789047,8.8817842e-16 73.1220099,13.2055487 73.1220099,13.2055487 C73.6069104,14.1965968 73.1055269,15 71.9947301,15 L35.0052699,15 C33.8977899,15 33.3618342,14.1828825 33.857786,13.1906495 C33.857786,13.1906495 38.8867203,-9.99200722e-16 53.3828125,0 Z" id="path-5"></path>
        <mask id="mask-6" maskContentUnits="userSpaceOnUse" maskUnits="objectBoundingBox" x="-3" y="-3" width="45.6347947" height="21">
            <rect x="30.6720483" y="-3" width="45.6347947" height="21" fill="white"></rect>
            <use xlink:href="#path-5" fill="black"></use>
        </mask>
        <path d="M64.1766364,80 L75,80 L75,104 L75,128 L55.5,144.496094 L34,128 L34,104 L34,80 L44.4171442,80 C44.8850131,67.5983192 45.1085616,42.8789257 41,21 C41,21 58.8007812,25.4648438 69.3007812,18 C61.4651754,34.7439434 62.9291364,65.4796559 64.1766364,80 Z" id="path-7"></path>
        <mask id="mask-8" maskContentUnits="userSpaceOnUse" maskUnits="objectBoundingBox" x="0" y="0" width="41" height="126.496094" fill="white">
            <use xlink:href="#path-7"></use>
        </mask>
        <linearGradient x1="95.719401%" y1="53.5059571%" x2="8.21940104%" y2="50%" id="linearGradient-9">
            <stop stop-color="#D0D0C7" offset="0%"></stop>
            <stop stop-color="#A3A296" offset="45.014881%"></stop>
            <stop stop-color="#5F5B56" offset="100%"></stop>
        </linearGradient>
        <path d="M0,13.3248958 C0,13.3248958 12.2578125,10.8055208 21.5,0 C31.5742187,10.8055208 41,13.3248958 41,13.3248958 L41,32.6582292 C41,32.6582292 33.0585937,48.8196875 21.5,57.565 C6.640625,48.8196875 0,32.6582292 0,32.6582292 L0,13.3248958 Z" id="path-10"></path>
        <mask id="mask-11" maskContentUnits="userSpaceOnUse" maskUnits="objectBoundingBox" x="0" y="0" width="41" height="57.565" fill="white">
            <use xlink:href="#path-10"></use>
        </mask>
    </defs>
    <g id="Page-1" stroke="none" stroke-width="1" fill="none" fill-rule="evenodd" opacity="0.697702892">
        <g id="attack" transform="translate(-31.000000, -25.000000)">
            <g id="Group-5" transform="translate(79.000000, 107.000000)">
                <g id="Oval-61">
                    <use fill="url(#linearGradient-1)" fill-rule="evenodd" xlink:href="#path-2"></use>
                    <use stroke="#000000" mask="url(#mask-3)" stroke-width="8" xlink:href="#path-2"></use>
                </g>
                <path d="M161,84.5 C161,50.9903043 139.454562,22.5128151 109.460875,12.1647203 C101.637842,9.46570282 115.517431,32.4999993 106.777344,32.4999993 C96.6647341,32.4999993 108.77942,43.7734744 99.9433594,47.3378906 C91.8156615,58.9411321 43,39.2579566 43,54.5 C43,93.9883596 75.0116404,126 114.5,126 C129.742043,126 143.870153,121.230684 155.473395,113.102986 C159.037811,104.266925 161,94.6126096 161,84.5 Z" id="Combined-Shape" fill="#EEEEEE" opacity="0.185576026"></path>
                <ellipse id="Oval-61" fill="#48443E" cx="83.5" cy="84.5" rx="71.5" ry="71.5"></ellipse>
                <ellipse id="Oval-61" fill="#000000" cx="84" cy="84" rx="67" ry="67"></ellipse>
                <path d="M84.5,147.5 C119.293939,147.5 147.5,119.293939 147.5,84.5 C147.5,49.7060608 119.293939,21.5 84.5,21.5 C49.7060608,21.5 21.5,49.7060608 21.5,84.5 C21.5,119.293939 49.7060608,147.5 84.5,147.5 Z" id="Oval-61" fill="url(#radialGradient-4)"></path>
                <path d="M79.8858037,130.152344 C100.340142,130.152344 115.343747,113.794374 115.343747,96.1807556 C115.343747,78.5671377 104.318272,44.4296875 79.8858037,44.4296875 C55.4533352,44.4296875 43.5664062,83.5231008 43.5664062,101.136719 C43.5664062,118.750337 59.4314649,130.152344 79.8858037,130.152344 Z" id="Oval-61" fill="#D68807" opacity="0.641324627"></path>
                <path d="M138.434083,87.3317376 C139.228573,83.8489639 139.64817,80.223483 139.64817,76.5 C139.64817,49.7141896 117.933981,28 91.1481702,28 C85.1565165,28 79.4186271,29.0864943 74.1207734,31.0732116 C75.1237865,31.0245916 76.1331065,31 77.1481702,31 C109.373093,31 135.809228,55.7847439 138.434083,87.3317376 Z" id="Combined-Shape" fill="#FFF4C2"></path>
                <path d="M75.4012213,126.886958 C80.0162738,128.347009 84.9302881,129.134546 90.0282416,129.134546 C100.668598,129.134546 110.507655,125.703776 118.499574,119.888076 C109.651222,129.449632 96.9944488,135.435574 82.9395843,135.435574 C56.187376,135.435574 34.5004262,113.748625 34.5004262,86.9964163 C34.5004262,70.8845642 42.3667195,56.6099834 54.4682521,47.8037277 C46.4745385,56.4417575 41.5890835,67.998043 41.5890835,80.6953877 C41.5890835,88.704979 43.5330999,96.260521 46.9750376,102.915919 C49.9897176,95.8209841 61.5806622,93.6369113 73.1044038,98.0604613 C84.7876822,102.545252 91.9776642,112.123587 89.1636781,119.454271 C87.3861002,124.08502 82.0417811,126.711152 75.4012213,126.886958 Z" id="Combined-Shape" fill="#FFE884"></path>
                <ellipse id="Oval-70" fill="#FFFFFF" transform="translate(62.571458, 114.320986) rotate(21.000000) translate(-62.571458, -114.320986) " cx="62.571458" cy="114.320986" rx="15.1682236" ry="9.51731677"></ellipse>
            </g>
            <g id="Group" transform="translate(86.757907, 90.399086) rotate(-37.000000) translate(-86.757907, -90.399086) translate(32.757907, 17.899086)">
                <g id="Rectangle-1-Copy-2">
                    <use fill="#8A847E" fill-rule="evenodd" xlink:href="#path-5"></use>
                    <use stroke="#000000" mask="url(#mask-6)" stroke-width="6" xlink:href="#path-5"></use>
                </g>
                <use id="Combined-Shape" stroke="#000000" mask="url(#mask-8)" stroke-width="4" fill="#504B47" xlink:href="#path-7"></use>
                <polygon id="Combined-Shape-Copy" fill="#A3A296" points="57 109.98981 72.8324937 109.98981 72.8324938 125.842773 57 139.280274"></polygon>
                <rect id="Rectangle-1-Copy-2" stroke="#000000" stroke-width="4" fill="#A3A296" x="33" y="14" width="41" height="19" rx="2"></rect>
                <rect id="Rectangle-1" stroke="#000000" stroke-width="3" fill="url(#linearGradient-9)" x="0" y="88" width="108" height="19" rx="3"></rect>
                <path d="M55.2792969,2.4921875 C59.972319,2.54427367 67.1582031,6.1015625 69.2246094,10.2363281 C71.2910156,14.3710937 52.4941406,10.2363282 52.4941406,10.2363282 C52.4941406,10.2363282 50.5862747,2.44010133 55.2792969,2.4921875 Z" id="Path-47" fill="#FFFFFF"></path>
            </g>
            <g id="Group-3" transform="translate(212.230662, 254.414596) rotate(-37.000000) translate(-212.230662, -254.414596) translate(191.730662, 225.414596)">
                <g id="Group-2" stroke="#000000" stroke-width="4" fill="#504B47">
                    <use id="Combined-Shape-Copy" mask="url(#mask-11)" xlink:href="#path-10"></use>
                </g>
                <path d="M22.3337531,4.64 C30.5132406,13.4132482 38.1662468,15.4587861 38.1662468,15.4587861 L38.1662468,31.1559594 C38.1662468,31.1559594 31.7184384,44.2778151 22.3337531,51.3783333 C22.3337531,51.3783333 22.3337531,7.24965505 22.3337531,4.64 Z" id="Combined-Shape-Copy" fill="#A3A296"></path>
            </g>
            <polygon id="Path-41" fill="#FFFFFF" transform="translate(102.709731, 109.591429) rotate(-37.000000) translate(-102.709731, -109.591429) " points="149.092544 106.101194 52.6081688 104.073851 149.050851 103.085112 152.244888 103.052366 152.811294 115.978148 52.893325 116.130491 149.092544 113.300413"></polygon>
            <path d="M42.0648045,47.3299309 L72.8639021,46.4983035 L74.0648045,57.3426251 L42.1558695,57.4707613 C42.1558695,57.4707613 64.7821834,54.863025 64.7562108,51.9707613 C64.7302381,49.0784975 42.0648045,47.3299309 42.0648045,47.3299309 Z" id="Path-41-Copy" fill="#FFFFFF" opacity="0.583372201" transform="translate(58.064805, 51.984532) rotate(-37.000000) translate(-58.064805, -51.984532) "></path>
            <path d="M76.4667951,52.8252531 C76.4667951,52.8252531 78.6679669,53.1963468 85.3222638,53.1963468 C80.6679669,76.3486906 84.1035138,99.0010343 84.1035138,99.0010343 L76.6679669,98.5010343 L76.4667951,52.8252531 Z" id="Path-42" fill="#A3A296" transform="translate(80.894529, 75.913144) rotate(-37.000000) translate(-80.894529, -75.913144) "></path>
            <polygon id="Path-44-Copy" fill="#FFFFFF" opacity="0.378731343" transform="translate(222.794736, 251.826929) rotate(-37.000000) translate(-222.794736, -251.826929) " points="216.300595 236.073023 216.300595 267.580836 229.288876 251.826929 219.499814 257.811304"></polygon>
        </g>
    </g>
</svg>