<?xml version="1.0" encoding="UTF-8"?>
<svg width="492px" height="197px" viewBox="0 0 492 197" version="1.1" xmlns="http://www.w3.org/2000/svg" xmlns:xlink="http://www.w3.org/1999/xlink">
    <!-- Generator: Sketch 46.2 (44496) - http://www.bohemiancoding.com/sketch -->
    <title>classIcons</title>
    <desc>Created with Sketch.</desc>
    <defs></defs>
    <g id="Page-1" stroke="none" stroke-width="1" fill="none" fill-rule="evenodd">
        <g id="Desktop-HD" transform="translate(-716.000000, -1484.000000)" fill="#FFFFFF">
            <g id="Group-21" transform="translate(1125.033951, 1591.028273)">
                <path d="M21.0423239,77.9335206 C19.6517957,74.4457221 19.3929251,68.784087 20.2657121,60.9486153 C22.0824071,67.2230759 24.4520676,71.3802765 27.3746936,73.4202172 C29.7620475,75.0865476 32.0089447,76.982009 34.1153853,79.1066015 C35.8607017,77.0037745 37.7441888,75.0801688 39.7658465,73.3357845 C42.4592301,71.0118026 44.3813636,66.6489798 45.5322469,60.2473161 C47.2493487,68.0513602 47.5651199,73.7475995 46.4795604,77.3360339 C42.23971,78.8893376 37.6596463,79.7370941 32.8815784,79.7370941 C28.7571342,79.7370941 24.7802268,79.1054137 21.0423239,77.9335206 Z M16.7117068,4.12816599 C15.151172,9.88249674 14.2488602,14.9565612 14.0047712,19.3503595 C13.67781,25.2359264 14.5027666,32.3302176 16.4796411,40.6332332 C11.9593752,38.8850274 8.4798818,34.9875504 6.04116108,28.9408021 C4.27921325,24.5720956 2.89043091,20.1549228 1.87481404,15.6892835 C5.79629798,10.736967 10.8790198,6.74617023 16.7117068,4.12816599 Z M0.52032804,62.9135014 C0.658677743,59.5627251 0.950011314,56.7444294 1.39432876,54.4586143 C2.06964636,50.9844064 3.62775032,46.9733599 6.06864064,42.4254747 C6.53157041,50.1257693 7.22367173,55.1322202 8.1449446,57.4448272 C9.00427021,59.6019323 11.3806504,65.6565517 15.2740851,75.6086853 C9.36139442,72.6621019 4.29088175,68.2777803 0.52032804,62.9135014 Z M31.419556,0.706820139 C30.2647069,4.33983443 29.2347075,8.25601581 28.3295578,12.4553643 C27.3714734,16.9002976 26.6900344,21.0279752 26.2852408,24.8383971 C23.9795268,21.373119 22.3555114,17.2454414 21.4131947,12.4553643 C20.6838027,8.74764663 20.5189902,5.43679902 20.9187574,2.52282146 C24.249568,1.46645918 27.7714989,0.839460638 31.419556,0.706820139 Z M65.90035,18.4692561 C64.3890805,22.232469 62.5965043,25.9180519 60.5226214,29.5260049 C57.2629418,35.1968992 53.2728578,38.5866305 48.5523694,39.6951988 C51.6698838,31.7173613 53.4778395,24.780646 53.9762366,18.8850529 C54.2782162,15.3129034 54.2134285,11.2350071 53.7818733,6.65136387 C58.6222197,9.67242884 62.761621,13.7116353 65.90035,18.4692561 Z M52.1323298,74.7408086 C54.4243669,69.0436171 56.2201736,64.5194586 57.51975,61.1683331 C58.9969082,57.3592898 60.8140789,52.1322534 62.971262,45.4872238 C64.1345102,51.3065501 64.7161343,55.98583 64.7161343,59.5250636 C64.7161343,60.8057666 64.8348863,62.0154367 65.0723903,63.1540737 C61.6778433,67.9078677 57.2565196,71.8780829 52.1323298,74.7408086 Z M48.773744,4.00480486 C48.5784039,6.89175784 47.7864733,10.0474512 46.3979523,13.471885 C44.554052,18.0193963 42.168048,21.7831131 39.2399404,24.7630354 C39.5735501,20.9253024 39.6964575,16.7216842 39.6086624,12.1521808 C39.5342061,8.27692636 39.3172219,4.60766302 38.9577099,1.14439072 C42.3960102,1.67483717 45.6880744,2.64836149 48.773744,4.00480486 Z" id="Combined-Shape"></path>
            </g>
            <g id="Group-21-Copy" transform="translate(829.151516, 1592.696094)">
                <g id="Group-20" transform="translate(0.544445, 0.113132)">
                    <path d="M12.8947518,55.5715919 C15.1330708,57.603371 17.5199777,59.438261 20.0554725,61.0762618 C22.5909672,62.7142626 25.2900975,64.1650954 28.1528634,65.4287603 L20.5238076,75.1383863 C17.8612939,74.1642389 15.5184261,73.0056591 13.4952043,71.6626469 C11.4719826,70.3196347 9.6402223,68.7071015 7.99992352,66.8250471 L12.8947518,55.5715919 Z M0.525787182,29.7485559 C8.85246411,39.2982318 15.6024672,46.0075586 20.7757964,49.8765363 C22.3596511,51.0610536 21.3365256,54.6852036 23.0045305,55.7942467 C24.5570264,56.8264887 28.7726787,55.3338102 30.3533769,56.2709508 C35.978941,59.6061503 44.8191448,63.2538409 56.8739882,67.2140223 L47.3329181,70.9003449 C37.6947756,67.5769047 29.1789011,63.4326048 21.7852944,58.4674453 C14.3916878,53.5022857 7.30518535,47.1688453 0.525787182,39.4671239 L0.525787182,29.7485559 Z M18.6636566,44.6650846 C20.9676293,43.424748 25.522067,38.2415415 32.3269698,29.1154652 C39.1318725,19.9893889 45.5010808,10.3138913 51.4345946,0.0889724909 C53.6603064,0.554541696 55.7542151,1.4588718 57.7163207,2.80196282 C59.6784264,4.14505383 61.3697979,5.83180534 62.7904353,7.86221735 C54.1664924,19.8733661 48.1293289,29.2525867 44.6789447,35.9998794 C41.2285605,42.747172 38.9023099,49.4019268 37.7001929,55.9641439 C32.7075991,54.4940858 30.5452845,52.4259598 31.2132488,49.7597657 C31.8812131,47.0935716 39.2873906,33.528769 53.4317811,9.06535792 C37.7317878,32.5329329 28.8373703,45.1822279 26.7485287,47.013243 C24.6596871,48.8442581 21.9647297,48.0615387 18.6636566,44.6650846 Z" id="Combined-Shape"></path>
                </g>
            </g>
            <g id="Group-22" transform="translate(830.000000, 1497.260937)">
                <path d="M15.4268363,61.1442775 L13.7308604,62.8158137 C11.7812421,61.9248114 10.3434189,60.8738241 9.4173906,59.6628519 C8.5531925,58.5327353 7.88804278,57.244655 7.42194145,55.7986108 L9.08564737,53.6887289 C9.30358097,55.5058783 9.81323447,56.9704562 10.6146079,58.0824625 C11.6255353,59.4852515 13.2296115,60.5058565 15.4268363,61.1442775 Z M23.6003451,53.0885528 C20.2823614,52.6688429 18.0911865,51.7630492 17.0268204,50.3711719 C16.1638832,49.2427042 15.6693337,47.6187845 15.5431718,45.4994126 L24.1675447,34.5621381 L27.999358,48.7529317 L23.6003451,53.0885528 Z M7.73513728,68.7251357 L6.27297643,70.1662261 C4.1183012,70.0251698 2.46283323,69.2804585 1.30657251,67.932092 C0.150311791,66.5837255 0.150311791,65.1243654 1.30657251,63.5540116 L2.09348997,62.5560571 C2.2085015,64.2443877 2.60648254,65.5610052 3.28743309,66.5059098 C4.18143956,67.7464562 5.66400762,68.4861981 7.73513728,68.7251357 Z M43.0867803,16.7972035 C42.8647257,17.0966275 42.6636367,17.4151741 42.4859489,17.7493561 C40.9181292,20.6979961 42.8756569,24.5783384 46.4140249,26.4597221 C49.9523929,28.3411057 54.4760868,26.0296422 55.4599081,23.550815 C56.2563844,21.5440208 55.1473499,18.3830188 52.8186212,16.2536478 C53.9181038,18.5116105 54.1647661,20.2106006 53.5586081,21.350618 C52.3179195,23.6840139 49.0422333,24.3686728 46.2421583,22.8798464 C43.7664781,21.563504 42.4914708,18.9888335 43.0867803,16.7972035 Z M30.1278836,1.08564106 L51.5163348,2.03624873 L67.3595577,42.1481939 L43.9004488,45.0580356 L30.1278836,1.08564106 Z M27.9974889,1.73003991 L41.5219208,45.8547724 L31.7634137,54.4866328 L21.6516321,15.6554103 L27.9974889,1.73003991 Z M43.2364236,47.7323609 L66.0777694,44.4145713 L52.9631546,53.5431656 L33.8218451,55.8263656 L43.2364236,47.7323609 Z M3.42248114,60.6250109 C4.04834399,58.8729688 4.74336639,57.7405589 5.50754835,57.2277813 C6.65382129,56.4586148 6.3562871,60.3447692 8.58841973,62.2763175 C10.8205524,64.2078658 12.0817638,63.8761286 12.748741,64.493 C13.1933924,64.9042476 12.0515683,65.8552825 9.32326873,67.3461049 C7.76538555,67.4174339 6.30484762,66.8272412 4.94165494,65.5755268 C3.57846226,64.3238124 3.072071,62.6736405 3.42248114,60.6250109 Z M10.8730216,50.0020094 C11.5453024,48.4995024 12.3272415,47.1438816 13.218839,45.935147 C13.6188272,49.9795415 14.5472842,52.6529323 16.0042101,53.9553192 C17.4611361,55.2577062 19.6124601,56.0552218 22.4581821,56.3478661 C20.9354675,57.7522195 19.7723719,58.7137554 18.9688955,59.2324738 C17.7636809,60.0105515 15.5872937,58.7320182 13.8314619,56.9291802 C12.0756301,55.1263422 9.86460049,52.2557698 10.8730216,50.0020094 Z" id="Combined-Shape"></path>
            </g>
            <g id="Group-23" transform="translate(1027.000000, 1594.766245)">
                <path d="M0.463111237,62.8588573 C1.37578717,58.0880242 2.49114751,56.580708 3.80919225,58.3369087 C5.78625936,60.9712098 7.20728302,63.1739056 9.85529775,64.7527642 C12.5033125,66.3316228 14.6611536,68.536107 18.7601475,68.536107 C21.4928101,68.536107 20.0486838,70.2312043 14.4277684,73.621399 C11.5352381,72.6123002 9.01062503,71.2766696 6.85392925,69.6145072 C4.69723347,67.9523448 2.5669608,65.7004615 0.463111237,62.8588573 Z M4.35733433,54.3693615 L7.2339625,49.647113 C13.637003,54.6815791 17.6030599,57.625272 19.132133,58.4781916 C20.6612061,59.3311113 23.2415574,60.0390164 26.8731868,60.6019069 C26.5461992,63.7611453 24.9801642,65.6016985 22.1750816,66.1235665 C17.9674578,66.9063684 15.0791389,65.4272005 12.0599377,63.3578186 C10.0471369,61.9782307 7.47960249,58.9820783 4.35733433,54.3693615 Z M9.45961607,47.9964274 C11.2508988,41.9871373 12.265513,37.4908223 12.5034589,34.5074824 C13.1083798,26.9230482 11.7044695,19.3337404 13.9198652,14.8485858 C19.2036687,4.15132043 39.2792606,-4.57513725 54.9241118,3.69259794 C70.5689631,11.9603331 70.3945949,33.6168633 68.5346674,32.779896 C66.67474,31.9429286 61.329237,9.90725936 47.5407364,7.58592684 C33.7522358,5.26459431 20.5404915,13.3856814 22.1366312,24.8018803 C23.2007243,32.4126795 23.2007243,43.3856554 22.1366312,57.7208077 L9.45961607,47.9964274 Z M24.4543869,57.4284057 C25.4344256,40.3898011 25.4344256,29.1864208 24.4543869,23.8182648 C22.981583,15.7509902 40.5351287,6.31351057 50.9243736,11.8038488 C61.3136185,17.2941871 62.6242664,28.3782772 61.3891481,27.822474 C60.1540298,27.2666708 56.7383712,16.2380952 47.5818694,14.6965725 C38.4253675,13.1550499 30.4994052,18.5920517 29.3742527,26.4248458 C28.2491002,34.2576399 30.5894649,52.8009419 29.3742527,55.0480562 C28.5641112,56.5461324 26.924156,57.3395822 24.4543869,57.4284057 Z M57.0630284,35.2004843 L58.1101318,31.077347 L62.1626275,31.077347 L63.552208,36.1313422 L60.3076182,37.613919 L23.2016185,78.1424534 L57.0630284,35.2004843 Z" id="Combined-Shape"></path>
            </g>
            <g id="Group-24" transform="translate(1010.600000, 1494.460938)">
                <path d="M81.6354047,25.1511224 C79.1763682,22.6047155 78.9523,18.8317793 81.1349345,16.7240337 C83.317569,14.6162881 87.0803869,14.9718933 89.5394235,17.5183002 C91.9984601,20.0647071 92.2225282,23.8376433 90.0398937,25.9453889 C87.8572592,28.0531345 84.0944413,27.6975293 81.6354047,25.1511224 Z M53.7558289,24.3208029 C52.1498531,41.3136545 67.2805417,41.3136545 74.5709208,58.306506 C75.8344196,37.6291203 64.1691156,41.3136545 53.7558289,24.3208029 Z M66.3765096,35.3489208 C67.3257332,31.9400355 68.7001123,29.2926196 70.4996469,27.4066729 C72.2991815,25.5207262 74.7919016,24.1153483 77.9778071,23.1905393 C78.9064864,24.7058458 79.6576109,25.7922939 80.2311807,26.4498833 C80.8047505,27.1074727 81.6438044,27.8441411 82.7483422,28.6598884 C82.1350553,31.1381453 80.9627645,33.3678228 79.2314697,35.3489208 C77.500175,37.3300188 74.8947862,38.9353985 71.4153035,40.1650598 L66.3765096,35.3489208 Z M56.0369226,41.0583615 L60.5727312,44.105334 L36.8975538,67.3056934 L62.7514395,46.1078857 L65.821214,50.391084 C64.4369988,50.0551644 62.3213313,51.1410163 59.4742116,53.6486396 C55.203532,57.4100746 53.9489752,65.5342914 47.6055496,69.668159 C43.3765991,72.4240707 36.8087303,74.4580683 27.9019432,75.7701517 C30.4468247,66.3262509 33.4453615,59.8829734 36.8975538,56.4403192 C42.0758422,51.2763379 47.7966839,50.9226835 52.5169205,47.0105765 C55.6637448,44.4025051 56.8370789,42.4184335 56.0369226,41.0583615 Z" id="Combined-Shape"></path>
                <path d="M48.660877,13.7588958 C46.719247,11.6767525 46.5920254,8.63969705 48.3767197,6.97544269 C50.161414,5.31118832 53.1821967,5.64995429 55.1238268,7.73209764 C57.0654569,9.814241 57.1926785,12.8512964 55.4079842,14.5155508 C53.6232899,16.1798051 50.6025071,15.8410392 48.660877,13.7588958 Z M48.1841889,36.6224362 C34.4688713,37.1970207 35.1057376,25.0448867 21.7648768,18.47441 C38.4249937,18.32997 34.9747745,27.5438124 48.1841889,36.6224362 Z M39.8582308,26.0220172 L35.9828563,21.12648 C37.2631778,18.8143358 38.7353289,17.0047167 40.3993094,15.6976228 C42.06329,14.3905289 43.9033867,13.542859 45.9195998,13.1546133 C46.8012606,14.3616147 47.4940897,15.2092846 47.9980871,15.6976228 C48.5020845,16.185961 49.2065496,16.6921715 50.1114824,17.2162543 C48.1685598,19.7960334 46.7712656,21.5810024 45.9195998,22.5711614 C45.0679339,23.5613204 43.0474776,24.7116056 39.8582308,26.0220172 Z M35.2787758,33.4016006 C34.0283241,33.0440363 32.6236125,33.8622078 31.0646411,35.8561151 C28.726184,38.846976 26.0433683,44.8685705 21.677984,48.8101286 C20.3817233,49.980538 15.3854626,51.9395227 6.68920209,54.6870826 C9.79184404,46.151466 11.6509902,41.4613907 12.2666405,40.6168566 C15.8537361,35.696166 21.2949512,34.6345975 24.4956855,31.3629461 C26.6295084,29.1818452 27.97206,27.3842338 28.5233403,25.9701119 L31.0646411,28.4806174 L15.0167159,45.9136795 L32.581276,30.3147252 L35.2787758,33.4016006 Z" id="Combined-Shape" transform="translate(31.678367, 30.303013) rotate(-15.000000) translate(-31.678367, -30.303013) "></path>
            </g>
            <g id="Group-25" transform="translate(1124.000000, 1497.757906)">
                <g id="Group-26" transform="translate(0.771829, 1.199618)">
                    <path d="M47.4710319,26.3615031 L51.2034959,25.6348973 L50.5493992,22.0718129 L42.7639066,23.5787062 L42.7639066,27.2778479 L45.4292671,26.7589772 L45.4292671,24.5011777 L47.4710319,24.5011777 L47.4710319,26.3615031 Z M23.9941371,22.3684345 L26.3267611,24.0611701 L30.1800333,19.5140825 L24.770605,15.0035856 L19.6867226,19.2426352 L22.3208874,21.1541927 L25.0116189,18.4634612 L26.4553647,19.9072069 L23.9941371,22.3684345 Z M1.31489175,36.3130586 L0.712408829,10.2618819 L43.6148826,0.237576372 L75.0940198,31.2680268 L64.5264435,50.8609997 L47.5562716,42.004649 L47.5562716,57.6112504 L40.461487,52.1290364 L26.4022647,69.3510259 L21.5599901,44.4415073 L8.16915217,49.6454385 L14.4934115,36.8680924 L1.31489175,36.3130586 Z M5.30888042,32.3941219 L20.9383861,33.0523828 L16.4955263,42.0286052 L24.6359357,38.8650891 L28.7483152,60.0198982 L39.8123709,46.4668691 L43.4727419,49.295276 L43.4727419,35.2673759 L62.8445879,45.3771062 L70.0457491,32.0256854 L42.351591,4.72626494 L4.87153878,13.4836036 L5.30888042,32.3941219 Z M14.7032565,19.4103255 L24.770605,11.0159553 L34.5124074,19.1388782 L26.826917,28.2082085 L14.7032565,19.4103255 Z M39.7012594,21.0519995 L53.0033689,18.4773571 L54.7629014,28.0621215 L39.7012594,30.9941996 L39.7012594,21.0519995 Z" id="Combined-Shape" fill-rule="nonzero"></path>
                    <path d="M6.73692662,14.9518397 L12.3178834,13.7510069 L7.73786992,21.7934467 L6.73692662,14.9518397 Z M15.9782054,12.7919357 L21.3413274,11.6135343 L12.8103794,19.702831 L19.1624812,24.4877188 L15.9782054,30.0098552 L7.98810574,29.3693113 L7.98810574,25.9138636 L15.9782054,12.7919357 Z M21.1658632,25.9352982 L27.2044225,30.4689532 L35.9048529,18.8678808 L29.5637176,11.9819094 L30.5128193,10.1734321 L41.8721299,6.91488317 L44.3685064,9.23330313 L27.9087716,35.8874062 L21.2712912,37.2208342 L24.0764747,30.4689532 L18.4661078,30.4689532 L21.1658632,25.9352982 Z M38.4037218,24.5420529 L38.4037218,32.5186937 L52.6552003,29.7147564 L48.2486571,35.7727563 L41.4150258,32.5186937 L41.4150258,43.9333354 L38.4037218,42.5625216 L29.7536377,53.8076809 L28.3384594,40.682762 L38.4037218,24.5420529 Z M45.9701154,10.7556541 L51.990231,16.8251191 L40.4519669,19.0622872 L45.9701154,10.7556541 Z M54.4566989,19.5532877 L56.9540723,22.2704899 L55.3255456,24.987692 L54.4566989,19.5532877 Z M58.9579529,24.707049 L67.27306,31.8497365 L61.0879482,41.6154139 L50.8970694,36.5025277 L58.9579529,24.707049 Z" id="Combined-Shape"></path>
                </g>
            </g>
            <g id="Group-27" transform="translate(730.900000, 1503.260937)">
                <path d="M22.1958135,28.4628657 C21.8100462,25.4342063 22.1020824,21.8718097 23.071922,17.7756759 L29.1184746,14.2266124 L25.7389075,20.585546 L26.5995248,28.6920193 L32.7525163,27.66849 L35.3754207,27.2321788 L35.7807522,31.3343481 L36.1651853,35.2250145 L42.6986275,35.2250145 L48.7196956,31.2959178 L46.8432255,37.9719843 C42.8492722,39.4272852 39.298493,40.18153 36.190888,40.2347186 L36.6422388,41.8340163 L28.6427624,48.1524044 L25.6758204,43.5159988 L19.7365713,44.6096003 L19.7365713,39.600315 L14.709402,36.7710792 L20.9942664,28.2148782 L22.1958135,28.4628657 Z M1.33974659,55.0776568 L13.8643869,41.5067406 L15.5548643,42.7649852 L15.5548643,48.136756 L22.9932328,47.0006801 L24.1315441,49.2290163 L10.3657653,63.5159471 C8.32734055,62.6949966 6.62511639,61.6459838 5.2590928,60.3689087 C3.89306921,59.0918336 2.58662047,57.328083 1.33974659,55.0776568 Z M28.8019292,19.2305326 L32.3599347,14.2909945 L31.4728924,13.2387495 L37.6717091,4.34996263 L59.8104072,0.816803799 L51.0669598,20.0303909 L44.3061682,14.2909945 L58.7288772,2.13708403 L42.1138234,11.9870988 L38.5294392,6.63801903 L40.1698416,13.2387495 L32.3599347,25.070526 L28.8019292,26.2991511 L28.8019292,19.2305326 Z M52.1136161,23.2638032 L58.8263446,22.518938 L50.0144912,30.3176675 L49.4994344,28.7881454 L41.6944456,33.6682194 L38.8768343,33.6682194 L38.8768343,31.5927908 L52.1136161,23.2638032 Z M41.7384847,15.27461 L49.3375849,22.3553002 L37.7324871,29.6532799 L37.7324871,25.4469824 L34.1393845,25.4469824 L41.7384847,15.27461 Z M59.4138313,6.56201238 L59.4138313,19.6324737 L53.4540157,20.743065 L59.4138313,6.56201238 Z" id="Combined-Shape"></path>
            </g>
            <g id="Group-28" transform="translate(725.000000, 1597.496094)">
                <path d="M15.7009058,8.28743387 C12.8323758,11.249103 15.4500562,16.2089597 18.0360379,18.7323269 C19.7600257,20.4145717 24.5770429,21.2507371 32.4870894,21.2408231 C34.3196091,26.2969496 36.4297202,29.4759436 38.8174224,30.7778048 C42.3989759,32.7305967 47.8953611,33.5383247 49.1715243,37.1848407 C50.4476875,40.8313568 53.1428534,47.2833969 59.2732112,46.6048115 C65.403569,45.9262261 52.9311379,37.9342589 55.3038388,34.8821899 C57.6765397,31.8301209 68.5174698,38.986575 71.9835776,34.8821899 C75.4496854,30.7778048 51.4229095,26.7532533 55.3038388,24.9753909 C59.1847681,23.1975284 71.2102877,26.1408046 72.8249609,18.2709358 C74.4396342,10.401067 54.08442,21.0244115 51.6279722,18.7323269 C49.1715243,16.4402423 68.8923746,5.79498263 63.5259146,1.31608415 C58.1594545,-3.16281433 43.6293522,15.1253363 33.8215624,13.5717123 C24.0137727,12.0180882 18.5694358,5.32576469 15.7009058,8.28743387 Z" id="Path-48"></path>
                <path d="M32.2287225,27.6210453 C32.774182,30.6145151 33.7591387,32.4346508 35.1835928,33.0814525 C36.6080468,33.7282542 39.4110529,34.7233452 43.5926109,36.0667255 C41.2682977,39.1955169 40.0122506,41.1228071 39.8244694,41.8485961 C39.6366883,42.5743851 39.6366883,43.8025632 39.8244694,45.5331303 C36.2444072,46.1781436 33.7124915,46.846555 32.2287225,47.5383645 C30.0030689,48.5760789 25.0478824,53.8656947 23.7660526,53.5840229 C22.4842228,53.3023512 27.2896315,43.4335583 26.5832167,42.9645526 C26.1122736,42.6518821 23.0092648,42.6518821 17.2741904,42.9645526 L32.2287225,27.6210453 Z" id="Path-50"></path>
                <path d="M2.8195139,44.518665 C6.81478113,56.1968633 16.3415441,74.4670737 43.7736856,73.8375598 C62.0617799,73.4178839 75.3709915,64.2964897 83.7013204,46.4733772 C73.5843881,45.796769 66.5774691,47.2495393 62.6805635,50.831688 C61.961015,51.4931178 62.7933465,61.8436411 63.9798301,61.6666596 C64.3395449,61.6130028 68.3241664,61.2788878 68.4025229,60.3486148 C68.5758028,58.291384 64.596672,54.5366806 65.8254504,53.0680719 C68.8239549,49.4843258 74.7965508,49.5294463 75.6034824,50.831688 C77.8298318,54.4246133 72.1697702,64.088142 60.7142267,68.922165 C49.2586832,73.756188 31.9086003,71.0208428 31.7378089,66.1394274 C31.5670175,61.2580121 39.5596558,56.2755526 42.5684672,56.2755526 C45.5772787,56.2755526 55.9452314,60.6664954 57.2706783,61.6666596 C58.5961252,62.6668238 50.4586941,66.1394274 45.9653597,64.1659371 C43.939584,63.2762083 46.0481598,61.0034364 42.5684672,60.3486148 C40.1962662,59.9022052 35.9957335,63.9944662 36.2052116,64.1659371 C40.1466968,67.3922889 55.9454939,67.029285 58.611078,66.1394274 C65.8717504,63.7155816 58.611078,56.2755526 45.9653597,50.831688 C33.3196415,45.3878234 22.4024039,61.2893089 19.6098301,60.3486148 C17.7481143,59.7214855 19.1308392,55.0964063 23.7580048,46.4733772 L13.1278041,46.4733772 C18.9871717,31.4210798 18.9871717,22.9238343 13.1278041,20.9816409 C9.49217137,19.7765446 6.69878719,20.7612312 4.46304594,23.3047618 C2.2273047,25.8482924 3.63412635,34.4419716 7.08661668,31.5483537 C10.539107,28.6547358 8.43238149,22.0636179 13.1278041,24.2284661 C17.8232267,26.3933144 12.5050873,33.284836 10.539107,35.5650816 C2.8195139,44.518665 -1.17575333,32.8404667 2.8195139,44.518665 Z" id="Path-45"></path>
            </g>
            <g id="Group-29" transform="translate(929.000000, 1497.260937)">
                <path d="M61.6896549,27.3150278 L72.5457578,27.3150278 L65.2999953,40.1033655 L54.9223371,35.8020962 L61.6896549,27.3150278 Z M66.6809068,42.3427325 L73.3261289,30.8245683 L72.6953013,39.3944535 L66.6809068,49.44605 L66.6809068,42.3427325 Z M54.3885235,38.6997386 L64.4789256,42.8666081 L64.4789256,49.2387713 L54.3885235,42.8666081 L54.3885235,38.6997386 Z M52.0343961,38.0404233 L52.0343961,42.7690275 L25.9735972,53.5877444 L25.9735972,49.5827227 L52.0343961,38.0404233 Z M0.123626245,28.566745 L6.67656678,29.2770767 L8.35893146,34.6199451 L0.798938309,35.2313699 L0.123626245,28.566745 Z M0.051693916,26.4717159 L4.84276563,19.1634859 L11.3512217,20.6944141 L7.10532132,27.230318 L0.051693916,26.4717159 Z M13.844718,21.8936017 L20.0398899,23.4136454 L16.8530984,27.8526273 L9.7474147,27.263918 L13.844718,21.8936017 Z M22.0151895,24.301915 L28.8241523,26.9936985 L19.8023239,27.630205 L22.0151895,24.301915 Z M17.3731881,19.7744375 L37.4967304,10.5827162 L36.5365284,14.4504986 L21.2944465,21.2845431 L17.3731881,19.7744375 Z M41.1813693,8.44888153 L50.0546007,9.7285198 L44.7642618,15.2852922 L38.8468813,14.6856984 L41.1813693,8.44888153 Z M42.3526358,6.62833107 L44.0373667,1.28451619 L56.973355,2.92286964 L51.785709,8.02627909 L42.3526358,6.62833107 Z M52.5438379,10.2221081 L57.6765882,4.90668756 L57.6765882,10.2221081 L52.5438379,12.778072 L52.5438379,10.2221081 Z M38.0045158,16.6832403 L43.4425053,17.3027101 L35.9393008,24.3000221 L38.0045158,16.6832403 Z M48.6486076,27.0519069 L58.4527001,27.0519069 L52.7113645,34.5972297 L45.616092,30.8245683 L48.6486076,27.0519069 Z M32.9772979,38.5506683 L43.4193166,33.6867178 L50.3054174,36.724439 L36.482106,42.8235433 L32.9772979,38.5506683 Z M28.104829,40.3163231 L30.7469224,39.7030053 L33.7903225,43.9914972 L26.5961431,47.2648914 L28.104829,40.3163231 Z M15.1716802,44.1315759 L20.3661882,38.4976656 L25.5606961,40.1738781 L23.2631208,47.5672911 L15.1716802,44.1315759 Z M8.70628889,29.4535949 L16.783059,30.1511492 L18.1705958,37.0628049 L13.4384423,41.8325808 L8.70628889,29.4535949 Z M22.7477635,36.5701631 L28.3996569,32.1491643 L26.5090671,37.8138352 L22.7477635,36.5701631 Z M19.2188202,30.3499096 L26.4977094,30.3499096 L20.4094895,35.2824797 L19.2188202,30.3499096 Z M30.2670581,32.2854571 L37.0485731,29.7839157 L41.2954199,32.2854571 L28.8847269,38.0556603 L30.2670581,32.2854571 Z M23.6535429,22.5632349 L35.8437065,16.7565923 L34.2753925,23.3398201 L29.5169742,25.1570579 L23.6535429,22.5632349 Z M39.3291118,24.7126865 L44.8707406,19.5837221 L46.4253307,23.8267831 L39.3291118,24.7126865 Z M46.8427276,17.4650311 L50.8245606,12.6048665 L58.5492409,23.5291157 L49.3863872,24.0468392 L46.8427276,17.4650311 Z M38.8795348,27.0003239 L45.5730273,27.0003239 L43.3966011,29.748896 L38.8795348,27.0003239 Z M6.68319213,48.1843948 C11.0701177,46.6334328 14.9337987,46.6334328 18.2742351,48.1843948 C21.6146716,49.7353568 23.3445179,53.4998153 23.4637741,59.4777705 L20.9437764,59.4777705 C20.5998894,54.7567381 19.3391807,51.9296083 17.1616502,50.996381 C14.9841198,50.0631537 11.8588494,49.9013059 7.78583902,50.5108378 L6.68319213,48.1843948 Z M2.71792248,64.2920309 L10.9906136,53.6148124 C12.7488542,53.4993421 14.0709263,53.7533137 14.9568297,54.3767272 C15.8427331,55.0001407 16.3688172,56.1587876 16.5350818,57.8526677 L8.51131442,68.8157226 C6.96918624,69.33597 5.53779598,69.0875195 4.21714366,68.0703711 C2.89649134,67.0532228 2.39675095,65.793776 2.71792248,64.2920309 Z" id="Combined-Shape"></path>
            </g>
            <g id="Group-30" transform="translate(923.067188, 1599.304366)">
                <path d="M15.1013805,28.9969095 C11.9694011,27.0369007 10.0356546,23.4887406 10.5600179,18.6463646 C11.5195928,9.78490694 15.4983413,1.0063982 36.7588651,0.445546427 C58.0193889,-0.115305343 62.5853822,5.64025921 63.0755383,12.9351027 C63.4329055,18.253688 61.2764447,25.1150432 55.8086658,28.4423377 C55.7979948,22.676777 52.0947902,12.2342366 49.5321189,12.1952434 C47.1003669,12.1582422 42.9615286,18.58086 42.0410054,27.0437802 C40.35725,23.786579 40.5936088,18.177526 42.7500817,10.2166211 C42.0532318,9.94250121 41.6769741,9.94250121 41.6213086,10.2166211 C40.6542954,14.9785864 39.6332202,18.0723163 36.7588651,18.0723163 C33.636319,18.0723163 31.9504645,15.6865755 31.7013018,10.9150937 C30.85185,10.7143685 30.4545408,10.7143685 30.509374,10.9150937 C32.7560505,19.1393898 32.5990094,25.318029 28.5845518,28.5361519 C29.7694908,25.4288703 30.8439671,22.8923987 28.8014434,19.3908632 C25.2840765,13.3609774 18.2819591,11.135774 15.6976542,14.5631577 C13.8487047,17.0152908 13.859334,23.3994109 15.1013805,28.9969095 Z" id="Combined-Shape"></path>
                <path d="M66.8440852,13.2819824 C65.410995,12.5919933 65.9929102,24.2190632 64.6119894,32.5649146 C63.2310687,40.910766 72.25277,31.5054232 72.9389886,27.9423649 C73.6252073,24.3793066 68.2771753,13.9719715 66.8440852,13.2819824 Z" id="Path-78"></path>
                <path d="M49.3125187,13.941808 C47.5592678,13.9069315 44.507103,20.2978139 44.1112076,28.4749384 C43.7153123,36.652063 46.9140214,43.1362635 48.5532168,43.1362635 C50.1924121,43.1362635 53.6004426,33.619693 53.6004426,28.4749384 C53.6004426,23.3301839 51.0657696,13.9766845 49.3125187,13.941808 Z" id="Path-79"></path>
                <path d="M16.339666,16.3363567 C14.2064819,19.373353 15.0720223,29.2169611 17.5204539,34.450193 C19.9688854,39.683425 25.2853636,44.5640449 28.2382357,45.2570866 C31.1017749,45.9291618 25.9670559,43.2068764 25.6499324,35.9856233 C25.3328089,28.7643703 30.0594039,25.9572418 27.1560348,20.6141747 C24.2526657,15.2711077 18.4728501,13.2993604 16.339666,16.3363567 Z" id="Path-80"></path>
                <path d="M8.88444674,33.6673622 C7.6144077,35.4755062 8.12972662,41.3361191 9.5874553,44.4518413 C11.045184,47.5675634 14.2104686,50.47335 15.9685272,50.8859679 C17.6733996,51.286103 14.6163294,49.6653292 14.4275228,45.3659941 C14.2387162,41.0666591 17.0528006,39.3953721 15.3242147,36.2142572 C13.5956287,33.0331423 10.1544858,31.8592183 8.88444674,33.6673622 Z" id="Path-80-Copy"></path>
                <path d="M5.76831478,47.0207475 C5.11221792,47.9548271 5.37842952,50.9823952 6.13148606,52.5919642 C6.88454259,54.2015332 8.51971538,55.7026504 9.42792113,55.9158071 C10.3086511,56.1225152 8.72938138,55.2852303 8.63184469,53.0642118 C8.53430799,50.8431933 9.98805223,49.9798134 9.09507195,48.3364628 C8.20209166,46.6931121 6.42441163,46.0866679 5.76831478,47.0207475 Z" id="Path-80-Copy-2" transform="translate(7.544865, 51.263479) rotate(-10.000000) translate(-7.544865, -51.263479) "></path>
                <path d="M8.14317093,20.4646555 C4.98587001,23.4503143 3.18399623,25.9771322 2.7375496,28.0451092 C2.29110298,30.1130862 3.03914099,32.467721 4.98166364,35.1090136 C4.98888411,33.12411 5.66842594,31.5631512 7.02028913,30.426137 C8.37215232,29.2891229 10.1398566,29.050643 12.3234018,29.7106975 C11.0912542,28.570852 10.1669485,27.3234674 9.5504847,25.9685437 C8.93402093,24.61362 8.46491634,22.7789906 8.14317093,20.4646555 Z" id="Path-81"></path>
                <path d="M2.42672461,35.3809561 C4.17431987,38.2305876 5.37488829,40.2109137 6.02842984,41.3219344 C6.59130922,42.2788293 4.47344582,42.3670413 3.43578649,43.6676588 C2.66625535,44.6322005 2.46218248,46.941419 1.87954066,46.0960527 C-0.3140653,42.9133072 -0.131670649,39.3416083 2.42672461,35.3809561 Z" id="Path-82"></path>
                <path d="M38.4834053,38.8147759 C39.8347977,37.2417463 35.6574185,49.3705126 45.846284,49.1755962 C56.0351495,48.9806798 56.850927,42.3937608 56.6170522,44.9505048 C56.3831774,47.5072487 53.0459377,51.4806325 45.434915,51.3604864 C37.8238924,51.2403403 37.8113633,45.3919919 37.407651,44.4422381 C37.1385094,43.8090689 36.748022,43.5501317 36.236189,43.6654263 C36.8334049,41.4803458 37.582477,39.8634624 38.4834053,38.8147759 Z M73.0690685,35.3960378 C74.294459,36.9645375 76.4662278,55.4269295 57.836523,58.7821427 C39.2068181,62.1373559 34.3250512,53.4078631 30.8543685,51.0235361 C27.3836858,48.6392091 26.1366154,51.0235361 21.4146205,48.4690206 C18.2666239,46.7660102 17.1744554,44.2963931 18.138115,41.0601694 C18.4312661,44.6568474 20.012334,46.8936562 22.8813186,47.7705958 C27.1847955,49.0860053 27.278585,47.7687106 30.8543685,49.0860053 C34.430152,50.4033 38.3891057,58.9070383 49.9464226,57.5355436 C61.5037395,56.1640489 63.6604266,55.2035314 67.9257279,49.8556448 C72.1910292,44.5077582 71.8436781,33.827538 73.0690685,35.3960378 Z" id="Combined-Shape"></path>
            </g>
        </g>
    </g>
</svg>