<?xml version="1.0" encoding="UTF-8"?>
<svg width="493px" height="197px" viewBox="0 0 493 197" version="1.1" xmlns="http://www.w3.org/2000/svg" xmlns:xlink="http://www.w3.org/1999/xlink">
    <!-- Generator: Sketch 46.2 (44496) - http://www.bohemiancoding.com/sketch -->
    <title>classIcons</title>
    <desc>Created with Sketch.</desc>
    <defs></defs>
    <g id="Page-1" stroke="none" stroke-width="1" fill="none" fill-rule="evenodd">
        <g id="Desktop-HD" transform="translate(-722.000000, -828.000000)" fill="#FFFFFF">
            <g id="Group-31" transform="translate(722.126465, 791.217285)">
                <g id="Group-21" transform="translate(409.033951, 144.028273)">
                    <path d="M20.2657121,60.9486153 C21.0423239,58.0156719 24.4520676,71.3802765 27.3746936,73.4202172 C29.7620475,75.0865476 32.0089447,76.982009 34.1153853,79.1066015 C35.8607017,77.0037745 37.7441888,75.0801688 39.7658465,73.3357845 C42.4592301,71.0118026 43.6765699,63.8100149 45.5322469,60.2473161 C47.3879238,56.6846172 47.5651199,73.7475995 46.4795604,77.3360339 C42.23971,78.8893376 37.6596463,79.7370941 32.8815784,79.7370941 C28.7571342,79.7370941 24.7802268,79.1054137 21.0423239,77.9335206 C19.6517957,74.4457221 19.4891002,63.8815587 20.2657121,60.9486153 Z M14.0047712,19.3503595 C12.9304043,28.9408021 17.5459678,38.807435 16.4796411,40.6332332 C15.4133145,42.4590313 8.4798818,34.9875504 6.04116108,28.9408021 C4.27921325,24.5720956 2.89043091,20.1549228 1.87481404,15.6892835 C5.79629798,10.736967 10.8790198,6.74617023 16.7117068,4.12816599 C15.151172,9.88249674 14.4835099,15.076851 14.0047712,19.3503595 Z M1.39432876,54.4586143 C2.06964636,50.9844064 4.98324417,42.4168204 6.06864064,42.4254747 C7.15403712,42.434129 7.22367173,55.1322202 8.1449446,57.4448272 C9.00427021,59.6019323 11.3806504,65.6565517 15.2740851,75.6086853 C9.36139442,72.6621019 4.29088175,68.2777803 0.52032804,62.9135014 C0.658677743,59.5627251 0.950011314,56.7444294 1.39432876,54.4586143 Z M31.419556,0.706820139 C30.2647069,4.33983443 29.2032298,7.66105003 28.2980801,11.8603985 C27.3399957,16.3053318 27.2240617,24.0576066 26.2852408,24.8383971 C25.3464199,25.6191876 22.3555114,17.2454414 21.4131947,12.4553643 C20.6838027,8.74764663 20.5189902,5.43679902 20.9187574,2.52282146 C24.249568,1.46645918 27.7714989,0.839460638 31.419556,0.706820139 Z M60.5226214,29.5260049 C57.2629418,35.1968992 49.867416,40.1499493 48.5523694,39.6951988 C47.2373229,39.2404482 53.4778395,24.780646 53.9762366,18.8850529 C54.2782162,15.3129034 54.2134285,11.2350071 53.7818733,6.65136387 C58.6222197,9.67242884 62.761621,13.7116353 65.90035,18.4692561 C64.3890805,22.232469 62.5965043,25.9180519 60.5226214,29.5260049 Z M58.0104824,61.6709454 C59.4876407,57.8619021 61.2263897,47.0627796 62.971262,45.4872238 C64.7161343,43.911668 64.7161343,55.98583 64.7161343,59.5250636 C64.7161343,60.8057666 64.8348863,62.0154367 65.0723903,63.1540737 C61.6778433,67.9078677 57.2565196,71.8780829 52.1323298,74.7408086 C54.4243669,69.0436171 56.7109061,65.0220708 58.0104824,61.6709454 Z M46.3979523,13.471885 C44.554052,18.0193963 40.4445645,24.9805157 39.2399404,24.7630354 C38.0353163,24.545555 39.6964575,16.7216842 39.6086624,12.1521808 C39.5342061,8.27692636 39.3172219,4.60766302 38.9577099,1.14439072 C42.3960102,1.67483717 45.6880744,2.64836149 48.773744,4.00480486 C48.5784039,6.89175784 47.7864733,10.0474512 46.3979523,13.471885 Z" id="Combined-Shape"></path>
                </g>
                <g id="Group-21-Copy" transform="translate(113.151516, 144.696094)">
                    <g id="Group-20" transform="translate(0.544445, 0.113132)">
                        <path d="M12.8947518,56.5715919 C15.1330708,58.603371 17.5199777,60.438261 20.0554725,62.0762618 C22.5909672,63.7142626 25.2900975,65.1650954 28.1528634,66.4287603 L20.5238076,76.1383863 C17.8612939,75.1642389 15.5184261,74.0056591 13.4952043,72.6626469 C11.4719826,71.3196347 9.6402223,69.7071015 7.99992352,67.8250471 L12.8947518,56.5715919 Z M0.525787182,30.7485559 C8.85246411,40.2982318 15.6024672,47.0075586 20.7757964,50.8765363 C22.3596511,52.0610536 21.3365256,55.6852036 23.0045305,56.7942467 C24.5570264,57.8264887 28.7726787,56.3338102 30.3533769,57.2709508 C35.978941,60.6061503 44.8191448,64.2538409 56.8739882,68.2140223 L47.3329181,71.9003449 C37.6947756,68.5769047 29.1789011,64.4326048 21.7852944,59.4674453 C14.3916878,54.5022857 7.30518535,48.1688453 0.525787182,40.4671239 L0.525787182,30.7485559 Z M18.6636566,45.6650846 C20.2251486,43.5706346 24.408346,37.9603714 31.2132488,28.8342951 C38.0181515,19.7082188 43.8537534,10.3316025 48.7200543,0.70444633 C52.7554596,1.42636631 55.7542151,2.4588718 57.7163207,3.80196282 C59.6784264,5.14505383 61.8242021,7.23285219 64.1536481,10.0653579 C55.7589802,22.4667805 49.8364542,32.0411381 46.38607,38.7884307 C42.9356858,45.5357233 40.0403934,51.5942944 37.7001929,56.9641439 C32.7075991,55.4940858 30.5452845,53.4259598 31.2132488,50.7597657 C31.8812131,48.0935716 39.2873906,34.528769 53.4317811,10.0653579 C37.7317878,33.5329329 28.8373703,46.1822279 26.7485287,48.013243 C24.6596871,49.8442581 21.9647297,49.0615387 18.6636566,45.6650846 Z" id="Combined-Shape"></path>
                    </g>
                </g>
                <g id="Group-22" transform="translate(111.755859, 48.916313)">
                    <path d="M16.2350499,64.1060075 L14.4874945,65.8813576 C12.490047,64.9469474 11.0103005,63.8507061 10.0482547,62.5926337 C9.0528711,61.2909651 8.3049748,59.7928917 7.80456584,58.0984137 L9.63430759,55.6305699 C9.82205936,57.8436481 10.3858477,59.6022498 11.3256727,60.9063752 C12.369477,62.3547849 14.0059361,63.421329 16.2350499,64.1060075 Z M24.6945239,55.5119861 C21.4259097,55.0389581 19.2502133,54.0944663 18.1674347,52.6785107 C17.0929367,51.2733838 16.5537394,49.1483199 16.549843,46.3033189 L24.1031209,36.1159197 L28.4398488,51.707092 L24.6945239,55.5119861 Z M8.21156525,72.257105 L6.69319855,73.7996212 C4.3941832,73.6491157 2.62781663,72.8545167 1.39409885,71.4158241 C0.160381068,69.9771316 0.160381068,68.42001 1.39409885,66.7444593 L2.22963021,65.6175458 C2.34675159,67.4488237 2.77276013,68.8743428 3.50765584,69.894103 C4.45553419,71.2094034 6.02350399,71.9970707 8.21156525,72.257105 Z M36.3364893,54.5576851 C36.430446,55.3976127 36.6047119,55.8278726 36.8592869,55.8484647 C48.8453922,56.8179966 56.1426621,56.0460564 56.6171183,55.6666225 C56.7858626,55.5316737 56.4621255,55.8706353 57.522687,54.8167636 C57.6877701,54.6527218 57.9310439,54.1659837 58.2525086,53.3565491 C59.369426,52.9639204 60.0188864,52.6766808 60.2008895,52.4948302 C64.110132,48.5888652 66.4343442,46.3574075 66.9337792,46.0647611 C67.4257179,45.7765071 68.0437867,45.7765071 68.7879856,46.0647611 C60.8323761,53.434435 56.7754203,57.1584777 56.6171183,57.236889 C55.873838,57.6050559 48.2555624,57.6050559 33.7622914,57.236889 L33.8473135,57.0384512 C32.8169897,56.164536 29.7587398,44.1742589 24.672564,21.0676198 L25.5473076,18.6856496 L23.7445295,18.1043775 C23.3013322,17.2979615 23.115041,16.4625883 23.185656,15.5982578 C23.2562711,14.7339273 23.5712102,13.9946447 24.1304734,13.3804099 L29.8730203,0.778944755 L30.9697804,3.76290855 L29.8730203,11.032294 L33.1085892,10.2013135 L42.0999549,43.4946945 L45.3043228,46.1871939 L41.4948377,46.983268 C39.3110531,50.3488985 37.5916036,52.8737043 36.3364893,54.5576851 Z M45.9731324,16.8554467 C45.7362025,17.1749289 45.5216426,17.5148147 45.3320517,17.8713833 C43.6592049,21.0175505 45.747866,25.1578342 49.5232666,27.1652503 C53.2986673,29.1726665 58.1254002,26.7063597 59.175127,24.0614777 C59.4868302,23.2761131 59.525014,22.3250721 59.3257854,21.3234356 C59.2992035,21.3996406 59.2703635,21.4757022 59.2392652,21.5516203 C58.4569742,23.4613766 56.7369366,24.3076561 54.8383904,24.4793581 C54.4838486,24.5114224 53.5286907,19.6300422 52.7854062,19.5702921 C52.0421217,19.510542 52.3891179,24.3856246 51.7296036,24.2294534 C50.8570455,24.0228339 50.0347719,23.7150384 49.3398868,23.3455614 C46.6983626,21.9410381 45.3379436,19.1938924 45.9731324,16.8554467 Z M32.1461286,0.0913780926 L53.4478573,0.804722476 C53.63878,1.09026619 53.9626871,1.36812798 54.4195788,1.63830784 C54.8764705,1.90848771 55.3169247,2.38377874 55.7409412,3.06418093 L70.9412409,42.8058547 L69.168309,44.4658401 L58.0696408,45.0247068 L54.9673765,40.2671748 L54.9673765,45.0247068 L44.7965142,42.8058547 L34.7750354,8.96797527 L32.1461286,8.96797527 L35.6441104,5.67598698 L33.4257313,4.81478909 L32.1461286,0.0913780926 Z M3.65175066,63.619247 C4.3195396,61.7498368 5.06112105,60.5415676 5.87649501,59.9944394 C7.09955594,59.1737471 6.78209015,63.3202321 9.16375172,65.3811734 C11.5454133,67.4421147 12.8911124,67.0881547 13.6027698,67.7463499 C14.0772081,68.1851466 12.8588941,69.1998907 9.94782772,70.7905822 C8.28558308,70.8666894 6.72720477,70.2369601 5.27269281,68.9013943 C3.81818084,67.5658285 3.2778668,65.8051128 3.65175066,63.619247 Z M11.6013974,52.2846183 C12.3187138,50.6814595 13.1530344,49.2350266 14.1043594,47.9453198 C14.5311425,52.2606454 15.5217962,55.1131246 17.0763205,56.5027575 C18.6308449,57.8923904 20.9262845,58.743331 23.9626394,59.0555793 C22.3379192,60.5540094 21.0969088,61.5799579 20.239608,62.1334249 C18.9536569,62.9636254 16.6314751,61.5994441 14.7580214,59.6758353 C12.8845677,57.7522264 10.5254229,54.6893565 11.6013974,52.2846183 Z" id="Combined-Shape"></path>
                </g>
                <g id="Group-23" transform="translate(311.000000, 147.766245)">
                    <path d="M0.463111237,62.8588573 C1.37578717,58.0880242 2.49114751,56.580708 3.80919225,58.3369087 C5.78625936,60.9712098 7.20728302,63.1739056 9.85529775,64.7527642 C12.5033125,66.3316228 14.6611536,68.536107 18.7601475,68.536107 C21.4928101,68.536107 20.0486838,70.2312043 14.4277684,73.621399 C11.5352381,72.6123002 9.01062503,71.2766696 6.85392925,69.6145072 C4.69723347,67.9523448 2.5669608,65.7004615 0.463111237,62.8588573 Z M4.35733433,54.3693615 L7.2339625,49.647113 C13.637003,54.6815791 17.6030599,57.625272 19.132133,58.4781916 C20.6612061,59.3311113 23.2415574,60.0390164 26.8731868,60.6019069 C26.5461992,63.7611453 24.9801642,65.6016985 22.1750816,66.1235665 C17.9674578,66.9063684 15.0791389,65.4272005 12.0599377,63.3578186 C10.0471369,61.9782307 7.47960249,58.9820783 4.35733433,54.3693615 Z M9.45961607,47.9964274 C11.2508988,41.9871373 12.265513,37.4908223 12.5034589,34.5074824 C13.1083798,26.9230482 11.7044695,19.3337404 13.9198652,14.8485858 C19.2036687,4.15132043 39.2792606,-4.57513725 54.9241118,3.69259794 C70.5689631,11.9603331 70.3945949,33.6168633 68.5346674,32.779896 C66.67474,31.9429286 61.329237,9.90725936 47.5407364,7.58592684 C33.7522358,5.26459431 20.5404915,13.3856814 22.1366312,24.8018803 C23.2007243,32.4126795 23.2007243,43.3856554 22.1366312,57.7208077 L9.45961607,47.9964274 Z M24.4543869,57.4284057 C25.4344256,40.3898011 25.4344256,29.1864208 24.4543869,23.8182648 C22.981583,15.7509902 40.5351287,6.31351057 50.9243736,11.8038488 C61.3136185,17.2941871 62.6242664,28.3782772 61.3891481,27.822474 C60.1540298,27.2666708 56.7383712,16.2380952 47.5818694,14.6965725 C38.4253675,13.1550499 30.4994052,18.5920517 29.3742527,26.4248458 C28.2491002,34.2576399 30.5894649,52.8009419 29.3742527,55.0480562 C28.5641112,56.5461324 26.924156,57.3395822 24.4543869,57.4284057 Z M57.0630284,35.2004843 L58.1101318,31.077347 L62.1626275,31.077347 L63.552208,36.1313422 L60.3076182,37.613919 L23.2016185,78.1424534 L57.0630284,35.2004843 Z" id="Combined-Shape"></path>
                </g>
                <g id="Group-24" transform="translate(294.600000, 45.460938)">
                    <path d="M83.7120649,27.1143722 C81.2530283,24.5679653 81.0289602,20.7950292 83.2115947,18.6872836 C85.3942292,16.5795379 89.1570471,16.9351431 91.6160836,19.4815501 C94.0751202,22.027957 94.2991884,25.8008931 92.1165539,27.9086388 C89.9339194,30.0163844 86.1711015,29.6607792 83.7120649,27.1143722 Z M49.5542969,34.2607422 C63.7286133,42.7836914 66.8338397,45.7214976 73.552832,61.1572266 C75.2110128,40.5156944 68.1319336,34.4814453 49.5542969,34.2607422 Z M68.3111328,36.5590168 C69.3220902,34.0653626 70.7273362,31.8755622 72.5268708,29.9896155 C74.3264054,28.1036688 76.8191255,26.698291 80.005031,25.7734819 C80.9337103,27.2887885 81.6848348,28.3752365 82.2584046,29.0328259 C82.8319744,29.6904154 83.6710282,30.4270837 84.7755661,31.2428311 C84.1622792,33.721088 82.9899884,35.9507654 81.2586936,37.9318634 C79.5273989,39.9129614 76.9220101,41.5183411 73.4425274,42.7480025 C72.8852103,41.1895745 72.2136451,39.9364752 71.427832,38.9887043 C70.6420189,38.0409335 69.6031192,37.2310377 68.3111328,36.5590168 Z M56.0369226,43.0583615 L60.5727312,46.105334 C46.1227026,60.0346155 39.0792857,67.1661709 39.4424805,67.5 C39.8056753,67.8338291 47.5753283,61.3697911 62.7514395,48.1078857 L65.821214,52.391084 C64.4369988,52.0551644 62.3213313,53.1410163 59.4742116,55.6486396 C55.203532,59.4100746 53.9489752,67.5342914 47.6055496,71.668159 C46.303592,72.5166154 44.7799457,73.296647 43.0346107,74.0082536 C42.7091064,74.140968 42.1702583,73.7607754 41.4180664,72.8676758 C40.925944,74.2118602 40.5348068,74.9313696 40.2446548,75.0262041 C39.8216939,75.1644464 39.0443741,74.045098 37.9126953,71.668159 C37.3860765,74.4775184 36.9457599,75.922073 36.5917455,76.0018227 C35.363259,76.2785669 32.4666582,76.8680099 27.9019432,77.7701517 C30.4468247,68.3262509 33.4453615,61.8829734 36.8975538,58.4403192 C40.2656355,55.0815432 43.863245,53.757781 47.2657629,52.1662587 C47.5522213,52.0322683 48.4049191,52.3381768 49.8238565,53.0839844 C49.5427362,51.7612849 49.5427362,51.0193486 49.8238565,50.8581755 C50.7489333,50.3278062 51.6498101,49.729233 52.5169205,49.0105765 C55.6637448,46.4025051 56.8370789,44.4184335 56.0369226,43.0583615 Z" id="Combined-Shape"></path>
                    <path d="M48.9581313,14.1642349 C47.0165013,12.0820915 46.8892797,9.04503609 48.673974,7.38078172 C50.4586683,5.71652736 53.479451,6.05529332 55.4210811,8.13743668 C57.3627112,10.21958 57.4899328,13.2566354 55.7052385,14.9208898 C53.9205442,16.5851442 50.8997614,16.2463782 48.9581313,14.1642349 Z M41.2860921,42.5944081 C34.62185,30.756744 31.5438193,26.8398083 19.2241438,20.7918419 C35.8842607,20.647402 42.2542492,26.4845314 41.2860921,42.5944081 Z M40.0046871,26.1441236 C39.6661267,25.4185782 39.1126735,24.7157398 38.3443275,24.0356085 C37.5759815,23.3554772 36.6705595,22.7669356 35.6280616,22.2699836 C37.2425505,19.276908 38.8817851,17.1268232 40.5457657,15.8197293 C42.2097462,14.5126353 44.049843,13.6649655 46.066056,13.2767197 C46.9477169,14.4837212 47.640546,15.331391 48.1445434,15.8197293 C48.6485408,16.3080675 49.3530058,16.814278 50.2579386,17.3383608 C49.231819,19.7958871 47.8662995,21.7567651 46.1613802,23.2209948 C44.456461,24.6852244 42.4042299,25.6596007 40.0046871,26.1441236 Z M34.2004872,34.2308138 C32.9500355,33.8732495 31.5453239,34.6914211 29.9863525,36.6853283 C27.6478954,39.6761892 24.9650797,45.6977837 20.5996954,49.6393418 C19.3034347,50.8097513 14.307174,52.7687359 5.61091349,55.5162958 C7.7545673,49.7165665 9.14784961,46.0299862 9.79076043,44.4565549 C9.87746755,44.2443518 10.8756479,44.0485697 12.7853016,43.8692086 C11.5837943,42.4415434 11.0514777,41.6338305 11.1883519,41.4460698 C14.7754475,36.5253793 20.2166626,35.4638107 23.4173969,32.1921593 C25.5512198,30.0110584 26.6405165,28.2562067 26.6852871,26.9276044 L29.9863525,29.3098307 C22.303314,37.436748 18.5882167,41.6530922 18.8410608,41.9588633 C19.0939048,42.2646345 23.314547,38.6596595 31.5029874,31.1439384 L34.2004872,34.2308138 Z" id="Combined-Shape" transform="translate(31.287850, 30.920290) rotate(-15.000000) translate(-31.287850, -30.920290) "></path>
                </g>
                <g id="Group-25" transform="translate(405.657985, 48.350509)">
                    <g id="Group-26" transform="translate(0.759790, 0.196504)">
                        <path d="M50.521717,28.1650437 L54.5228336,27.3861389 L53.8216569,23.5665934 L45.4757857,25.1819488 L45.4757857,29.1473446 L48.3329915,28.591127 L48.3329915,26.1708173 L50.521717,26.1708173 L50.521717,28.1650437 Z M25.3550195,23.884565 L27.8555394,25.6991391 L31.9861596,20.8247645 L26.1873754,15.9896144 L20.7375691,20.5337792 L23.5613339,22.5829254 L26.4457369,19.6985224 L27.9933995,21.246185 L25.3550195,23.884565 Z M1.04338397,38.832885 L0.397535974,10.9066158 L46.3880127,0.160788146 L80.1329321,33.4247257 L68.8047306,54.4279472 L50.613092,44.9341406 L50.613092,61.6640626 L43.0076442,55.7872538 L27.9364775,74.248835 L22.7456692,47.5463973 L8.39099534,53.1248933 L15.1704576,39.4278687 L1.04338397,38.832885 Z M4.28458965,34.6325548 L21.5447832,35.3594947 L16.6383824,45.2722417 L25.6281128,41.7786635 L30.1695531,65.1406373 L42.3879653,50.1735672 L46.4302373,53.2970729 L45.7426619,38.6382816 L67.8232243,48.970105 L75.775711,34.2256779 L45.1921122,4.07800125 L3.80161844,13.7490276 L4.28458965,34.6325548 Z M15.3954066,20.7135394 L26.1873754,11.7149654 L36.6303661,20.4225541 L28.3916951,30.1446699 L15.3954066,20.7135394 Z M42.1926975,22.4733766 L56.4522566,19.7134185 L58.3384354,29.9880681 L42.1926975,33.1311891 L42.1926975,22.4733766 Z" id="Combined-Shape" fill-rule="nonzero"></path>
                        <path d="M10.570388,18.3972223 L15.0789655,17.4741388 L10.570388,25.3911382 L10.570388,18.3972223 Z M10.8167208,28.6743287 L14.1889027,23.4713664 L21.4777124,28.9312444 L18.6821964,33.4793928 L10.8167208,32.8488397 L10.8167208,28.6743287 Z M23.3472604,30.3419972 L29.8585939,34.6151124 L40.2476953,20.7075405 L31.0924619,13.6158035 L44.1722453,10.7446403 L46.629685,13.0268992 L30.4266778,39.2652698 L23.8927243,40.5778999 L26.6541545,33.9313302 L21.1312942,33.9313302 L23.3472604,30.3419972 Z M40.2303914,28.8675562 L40.2303914,36.5896858 L54.3744507,33.9335289 L51.1823519,38.6861078 L43.7222708,35.8742154 L43.7222708,47.1857041 L40.757935,45.8362714 L32.2427689,56.9060364 L30.8496636,43.985831 L40.2303914,28.8675562 Z M48.2063132,14.5255056 L52.4863971,18.9487859 L44.7625852,19.9206912 L48.2063132,14.5255056 Z M60.9915753,28.2592962 L69.1769891,35.290577 L63.0883484,44.903936 L53.0564199,39.8707971 L57.2083867,33.7952303 L61.1167045,32.899137 L60.9915753,28.2592962 Z" id="Combined-Shape"></path>
                    </g>
                </g>
                <g id="Group-27" transform="translate(11.200238, 51.162891)">
                    <path d="M68.023928,1.18520755 C68.0868137,1.17335986 68.1521597,1.16333235 68.2199661,1.15512504 L66.8489415,26.0891494 L66.8319531,26.0930135 L67.0388888,26.1065193 L57.1057228,34.7823059 L56.7335309,32.7283163 L62.3447124,27.761607 L55.0723948,25.3255192 L65.1405292,25.9826218 C65.9897409,13.3076915 66.5264506,5.69099304 66.7506582,3.13252644 L55.5728018,20.2277644 L50.2054456,15.3478672 L66.8028246,2.57228188 C66.8042015,2.55872143 66.8055577,2.5454971 66.8068931,2.53260888 L47.8040396,11.3245954 L42.5140245,5.04297243 L44.1698621,14.1719339 L32.2311648,30.4889732 L32.2311648,23.7962777 L36.3560102,16.5677495 L35.3276497,15.3478672 L42.5140245,5.04297243 L68.1797263,0.946932051 L68.023928,1.18520755 Z M22.3938466,39.9505098 L20.3167508,29.3550976 L26.8039276,16.4931105 L32.5981403,16.4931105 L28.6801609,23.8651109 L29.1917522,28.6839786 L24.8119228,35.640753 L31.1383353,32.3116878 L39.8519053,31.5706452 L40.5852365,38.9923456 L38.4615994,45.4241628 L44.1698621,40.8368512 L48.3418012,40.8368512 L55.3221095,36.2817945 L56.6064479,40.8368512 L44.1698621,49.2751456 L36.592182,48.2792622 C28.60674,49.7736699 24.6011143,50.6245297 24.575305,50.8318416 C24.548317,51.0486206 28.2202109,51.3613446 35.5909865,51.7700136 L32.659137,55.128125 L18.7181655,53.6746516 L15.8202698,41.0871094 L18.4031799,37.6858364 L20.7671594,49.3235634 L22.3938466,39.9505098 Z M0.393872965,63.8522966 L13.621051,49.1232422 L16.0904627,57.0718861 L24.4901917,58.2951172 L10.8578625,73.6349244 C7.57530507,72.9729016 5.14220125,71.9016247 3.55855103,70.4210938 C1.9749008,68.9405628 0.920008116,66.7509637 0.393872965,63.8522966 Z M46.1682561,18.4876613 L53.1534131,24.5842489 L42.5844853,34.4146426 L42.5844853,28.1108729 L36.298075,29.5010421 L46.1682561,18.4876613 Z" id="Combined-Shape"></path>
                </g>
                <g id="Group-28" transform="translate(9.000000, 150.496094)">
                    <path d="M15.7009058,8.28743387 C12.8323758,11.249103 15.4500562,16.2089597 18.0360379,18.7323269 C19.7600257,20.4145717 24.5770429,21.2507371 32.4870894,21.2408231 C34.3196091,26.2969496 36.4297202,29.4759436 38.8174224,30.7778048 C42.3989759,32.7305967 47.8953611,33.5383247 49.1715243,37.1848407 C50.4476875,40.8313568 53.1428534,47.2833969 59.2732112,46.6048115 C65.403569,45.9262261 52.9311379,37.9342589 55.3038388,34.8821899 C57.6765397,31.8301209 68.5174698,38.986575 71.9835776,34.8821899 C75.4496854,30.7778048 51.4229095,26.7532533 55.3038388,24.9753909 C59.1847681,23.1975284 71.2102877,26.1408046 72.8249609,18.2709358 C74.4396342,10.401067 54.08442,21.0244115 51.6279722,18.7323269 C49.1715243,16.4402423 68.8923746,5.79498263 63.5259146,1.31608415 C58.1594545,-3.16281433 43.6293522,15.1253363 33.8215624,13.5717123 C24.0137727,12.0180882 18.5694358,5.32576469 15.7009058,8.28743387 Z" id="Path-48"></path>
                    <path d="M32.2287225,27.6210453 C32.774182,30.6145151 33.7591387,32.4346508 35.1835928,33.0814525 C36.6080468,33.7282542 39.4110529,34.7233452 43.5926109,36.0667255 C41.2682977,39.1955169 40.0122506,41.1228071 39.8244694,41.8485961 C39.6366883,42.5743851 39.6366883,43.8025632 39.8244694,45.5331303 C36.2444072,46.1781436 33.7124915,46.846555 32.2287225,47.5383645 C30.0030689,48.5760789 25.0478824,53.8656947 23.7660526,53.5840229 C22.4842228,53.3023512 27.2896315,43.4335583 26.5832167,42.9645526 C26.1122736,42.6518821 23.0092648,42.6518821 17.2741904,42.9645526 L32.2287225,27.6210453 Z" id="Path-50"></path>
                    <path d="M2.8195139,44.518665 C6.81478113,56.1968633 16.3415441,74.4670737 43.7736856,73.8375598 C62.0617799,73.4178839 75.3709915,64.2964897 83.7013204,46.4733772 C73.5843881,45.796769 66.5774691,47.2495393 62.6805635,50.831688 C61.961015,51.4931178 62.7933465,61.8436411 63.9798301,61.6666596 C64.3395449,61.6130028 68.3241664,61.2788878 68.4025229,60.3486148 C68.5758028,58.291384 64.596672,54.5366806 65.8254504,53.0680719 C68.8239549,49.4843258 74.7965508,49.5294463 75.6034824,50.831688 C77.8298318,54.4246133 72.1697702,64.088142 60.7142267,68.922165 C49.2586832,73.756188 31.9086003,71.0208428 31.7378089,66.1394274 C31.5670175,61.2580121 39.5596558,56.2755526 42.5684672,56.2755526 C45.5772787,56.2755526 55.9452314,60.6664954 57.2706783,61.6666596 C58.5961252,62.6668238 50.4586941,66.1394274 45.9653597,64.1659371 C43.939584,63.2762083 46.0481598,61.0034364 42.5684672,60.3486148 C40.1962662,59.9022052 35.9957335,63.9944662 36.2052116,64.1659371 C40.1466968,67.3922889 55.9454939,67.029285 58.611078,66.1394274 C65.8717504,63.7155816 58.611078,56.2755526 45.9653597,50.831688 C33.3196415,45.3878234 22.4024039,61.2893089 19.6098301,60.3486148 C17.7481143,59.7214855 19.1308392,55.0964063 23.7580048,46.4733772 L13.1278041,46.4733772 C18.9871717,31.4210798 18.9871717,22.9238343 13.1278041,20.9816409 C9.49217137,19.7765446 6.69878719,20.7612312 4.46304594,23.3047618 C2.2273047,25.8482924 3.63412635,34.4419716 7.08661668,31.5483537 C10.539107,28.6547358 8.43238149,22.0636179 13.1278041,24.2284661 C17.8232267,26.3933144 12.5050873,33.284836 10.539107,35.5650816 C2.8195139,44.518665 -1.17575333,32.8404667 2.8195139,44.518665 Z" id="Path-45"></path>
                </g>
                <g id="Group-29" transform="translate(211.166016, 49.527445)">
                    <path d="M55.5063795,14.2117163 L59.6813651,11.1451435 L59.6813651,4.33872492 L60.5746145,3.36694146 L60.5746145,11.4278388 L55.8430254,14.9857478 L60.894043,26.5992785 L50.3969434,26.5992785 L48.9936238,16.5293769 L54.0599845,10.8860987 L55.5063795,14.2117163 Z M41.5041343,23.8874598 L44.7116217,20.704223 L45.6412537,26.6020115 L41.7184529,25.8271882 L39.2124373,30.3030885 L39.0660162,30.362479 L41.561712,31.8325311 L31.134286,36.6806381 L32.0541671,32.8408194 L27.2124883,31.7587887 L24.0134177,34.3506203 L23.013021,30.20629 L26.9218874,30.20629 L30.2941127,25.2366083 L26.7390613,23.66395 L36.9811992,18.7852268 L36.0779798,22.5766224 L41.5041343,23.8874598 Z M1.50728242,26.9078375 L1.50728242,31.7411093 L8.50458064,32.6811534 L8.88350293,33.8840207 L0.663070444,32.5657751 L0.133409158,26.7600804 L0.0542913361,26.7515715 L5.08609594,19.0761311 L11.9215769,20.6839825 L7.46233635,27.5482904 L1.50728242,26.9078375 Z M55.6906942,43.023328 L26.8823242,54.822164 L26.8823242,53.542576 L55.3534638,41.7693003 L55.3200684,41.6439413 C62.0263051,45.8341932 65.9009464,48.2594799 66.9439923,48.9198015 C67.2534161,49.1156886 67.3812198,48.837982 67.4540975,48.6662085 L67.0265973,41.8453863 L56.5024973,37.4834206 L63.6098468,28.5699098 L75.8943866,28.5699098 L67.6718312,41.5734447 L68.3911266,48.3272713 L75.3836223,35.3835517 L75.3836223,30.6200085 L76.0602824,29.1284846 L76.0602824,35.3835517 C71.0686198,44.8776996 68.5122345,49.733977 68.3911266,49.9523837 C68.285348,50.1431452 68.0657255,50.3514863 67.7322592,50.5774069 C67.7279033,50.6055174 67.723398,50.6339097 67.7187432,50.6625837 L67.660154,50.6253725 C67.6341047,50.6423959 67.607423,50.6595169 67.5801088,50.6767356 L67.5734377,50.5702973 L55.6906942,43.023328 Z M14.5054095,22.4368584 L19.69292,23.9020296 L17.060887,27.6242934 L11.2555953,27.1646374 L14.5054095,22.4368584 Z M15.8618963,20.5134406 L41.6457469,8.82483684 L39.4621785,13.8170957 L21.8987604,22.0847073 L15.8618963,20.5134406 Z M44.4937476,8.34885487 L51.784481,9.35156752 L47.319273,14.2070529 L41.9689171,13.7774208 L44.4937476,8.34885487 Z M44.4806926,5.91113302 L46.2500747,0.298812034 L59.8360466,2.01948643 L54.3877413,7.37932255 L44.4806926,5.91113302 Z M50.679161,28.451321 L60.0532962,28.451321 L54.8491149,34.8284001 L48.372311,31.7904313 L50.679161,28.451321 Z M29.2063813,41.7753605 L45.6009699,34.3290994 L52.8330708,37.5194544 L26.5871761,49.2216216 L29.2063813,41.7753605 Z M15.5536846,45.8349683 L21.7993164,41.0394491 L26.1551386,42.0327817 L23.6388878,49.7374442 C22.6932426,48.62025 21.6513368,47.7308898 20.5131704,47.0693636 C19.3750041,46.4078374 17.7218421,45.9963723 15.5536846,45.8349683 Z M9.14374636,29.8832784 L16.7993164,29.8832784 L19.8598633,39.4725546 L14.7588301,43.6614195 L9.14374636,29.8832784 Z M7.97016875,50.0828952 C10.6388606,48.5808586 12.9300244,47.1118911 18.1924451,49.5552288 C23.4548658,51.9985666 23.5680279,57.1442875 23.1330975,60.0863872 C22.4448991,64.7417263 16.1189373,64.0220115 15.1152271,63.7437874 C14.6234275,63.6074626 23.1330975,60.0863872 15.9121424,54.647466 C8.69118735,49.2085448 7.12499624,58.5891559 6.81992358,58.155124 C6.1065721,57.1402271 5.55891835,51.4400344 7.97016875,50.0828952 Z M1.85448762,66.4722116 L10.5428496,55.258504 C12.389435,55.1372318 13.7779361,55.4039645 14.7083528,56.0587021 C15.6387694,56.7134398 16.1912871,57.9303041 16.3659059,59.7092952 L7.93897517,71.2232014 C6.31936099,71.7695892 4.8160489,71.508655 3.42903888,70.4403989 C2.04202887,69.3721427 1.51717845,68.0494136 1.85448762,66.4722116 Z" id="Combined-Shape"></path>
                </g>
                <g id="Group-30" transform="translate(207.067188, 147.304366)">
                    <path d="M15.1013805,33.9969095 C11.9694011,32.0369007 10.0356546,28.4887406 10.5600179,23.6463646 C10.8672268,20.8093598 12.2524047,17.6155561 13.7414062,15.8928998 C15.2304078,14.1702436 10.1670151,12.2180727 10.5600179,11.6795209 C10.9487028,11.1468862 14.7135742,12.4866498 16.3605469,11.0022748 C18.0075195,9.51789982 25.5334534,7.18190783 27.2404572,6.4247263 C28.9474609,5.66754478 24.6964569,0.622392004 25.968457,0.491532629 C27.2404572,0.360673254 31.8781963,5.73813534 32.7017197,5.66754478 C33.2829899,5.6177196 31.5462769,1.03663554 32.7017197,1.25227482 C33.8571624,1.46791409 36.0617119,6.23883046 36.7588651,6.4247263 C37.4560184,6.61062215 39.1225891,2.46403675 39.6842773,2.27131778 C40.2459656,2.07859882 40.2476987,5.66252468 40.7570312,5.66754478 C43.7322367,5.69686906 47.5930079,5.42102204 49.7941406,5.66754478 C51.4809535,5.85646466 52.7369156,1.93364125 54.0636719,2.27131778 C55.1214249,2.54052954 54.9899314,7.44501334 55.8656846,7.81928302 C56.687473,8.17048978 59.1457031,5.60194388 59.1457031,6.4247263 C59.1457031,7.24750872 58.2238281,10.2376264 58.2238281,11.0022748 C58.2238281,11.7669233 59.9968496,9.11997846 60.4518555,9.81038028 C61.6043615,11.559132 62.9324031,15.8048644 63.0755383,17.9351027 C63.4329055,23.253688 61.2764447,30.1150432 55.8086658,33.4423377 C55.7979948,27.676777 52.0947902,17.2342366 49.5321189,17.1952434 C47.0713727,17.1578011 42.8625898,23.7349342 42.0094596,32.3473573 C39.7369083,29.0064696 39.3194322,22.9474317 40.7570312,14.1702436 C40.5657045,12.5465456 39.6601056,12.5465456 38.0402344,14.1702436 C35.6104276,16.6057904 39.1144531,20.5775659 36.7588651,21.5970014 C34.4032771,22.6164369 34.5529297,15.3694623 32.3957031,15.8928998 C30.2384766,16.4163373 32.3134533,21.2959137 32.3957031,21.5970014 C34.7255113,30.1256133 33.1915626,32.6022518 28.2787393,34.3502735 C29.5619611,30.8573961 31.0193704,28.1930957 28.8014434,24.3908632 C25.2840765,18.3609774 18.2819591,16.135774 15.6976542,19.5631577 C13.8487047,22.0152908 13.859334,28.3994109 15.1013805,33.9969095 Z" id="Combined-Shape"></path>
                    <path d="M75.7382435,19.6225738 C70.5383826,21.5460127 70.0800238,22.6356797 71.1796835,29.8612671 C72.2793433,37.0868544 68.3825463,38.0098012 66.1211676,41.22288 C62.8330816,45.894755 76.0966419,42.4313169 81.261681,32.9615903 C86.42672,23.4918638 80.9381044,17.699135 75.7382435,19.6225738 Z" id="Path-78" transform="translate(74.469527, 31.271647) rotate(-24.000000) translate(-74.469527, -31.271647) "></path>
                    <path d="M49.2263947,21.5968411 C47.7920374,21.5683082 45.2950217,26.7967721 44.9711346,33.486584 C44.6472474,40.1763958 47.264153,45.4812045 48.6052,45.4812045 C49.946247,45.4812045 52.734401,37.6955745 52.734401,33.486584 C52.734401,29.2775934 50.6607521,21.6253741 49.2263947,21.5968411 Z" id="Path-79"></path>
                    <path d="M17.5209705,23.1575318 C15.8240535,25.5734184 16.5125783,33.4038659 18.4602701,37.5668261 C20.407962,41.7297863 24.6371433,45.6122487 26.9861102,46.1635533 C29.2640142,46.6981794 25.1794197,44.5326408 24.9271525,38.7882387 C24.6748854,33.0438365 28.4348232,30.8108065 26.1252351,26.560474 C23.8156471,22.3101416 19.2178876,20.7416453 17.5209705,23.1575318 Z" id="Path-80"></path>
                    <path d="M8.88444674,38.6673622 C7.6144077,40.4755062 8.12972662,46.3361191 9.5874553,49.4518413 C11.045184,52.5675634 14.2104686,55.47335 15.9685272,55.8859679 C17.6733996,56.286103 14.6163294,54.6653292 14.4275228,50.3659941 C14.2387162,46.0666591 17.0528006,44.3953721 15.3242147,41.2142572 C13.5956287,38.0331423 10.1544858,36.8592183 8.88444674,38.6673622 Z" id="Path-80-Copy"></path>
                    <path d="M5.76831478,52.0207475 C5.11221792,52.9548271 5.37842952,55.9823952 6.13148606,57.5919642 C6.88454259,59.2015332 8.51971538,60.7026504 9.42792113,60.9158071 C10.3086511,61.1225152 8.72938138,60.2852303 8.63184469,58.0642118 C8.53430799,55.8431933 9.98805223,54.9798134 9.09507195,53.3364628 C8.20209166,51.6931121 6.42441163,51.0866679 5.76831478,52.0207475 Z" id="Path-80-Copy-2" transform="translate(7.544865, 56.263479) rotate(-10.000000) translate(-7.544865, -56.263479) "></path>
                    <path d="M8.14317093,25.4646555 C4.98587001,28.4503143 3.18399623,30.9771322 2.7375496,33.0451092 C2.29110298,35.1130862 3.03914099,37.467721 4.98166364,40.1090136 C4.98888411,38.12411 5.66842594,36.5631512 7.02028913,35.426137 C8.37215232,34.2891229 10.1398566,34.050643 12.3234018,34.7106975 C11.0912542,33.570852 10.1669485,32.3234674 9.5504847,30.9685437 C8.93402093,29.61362 8.46491634,27.7789906 8.14317093,25.4646555 Z" id="Path-81"></path>
                    <path d="M2.42672461,40.3809561 C4.17431987,43.2305876 5.37488829,45.2109137 6.02842984,46.3219344 C6.59130922,47.2788293 4.47344582,47.3670413 3.43578649,48.6676588 C2.66625535,49.6322005 2.46218248,51.941419 1.87954066,51.0960527 C-0.3140653,47.9133072 -0.131670649,44.3416083 2.42672461,40.3809561 Z" id="Path-82"></path>
                    <path d="M63.7377658,11.4459645 C63.1244314,10.4225278 64.2488815,9.75997548 66.1552031,9.59610094 C66.5660327,9.56078449 68.4336612,6.52248422 69.0520235,6.54084903 C69.6703857,6.55921385 68.1938719,10.9103454 68.365918,11.4459645 C68.537964,11.9815837 69.7547418,9.78113246 70.1144739,9.84850271 C70.6915035,9.95656822 71.2804354,10.0956429 71.869432,10.2674331 C72.6697096,10.5008468 79.3504652,8.21214784 80.1212891,8.57063419 C81.0007395,8.9796394 75.961336,12.0553431 76.7196976,12.6390841 C78.4936036,14.0045299 79.8155978,15.8654019 80.1212891,18.3030561 C80.2854233,19.6119009 78.2988261,15.049756 73.7116211,15.7097943 C70.6534844,16.1498199 67.9038099,18.6630035 65.4625977,23.2493451 C65.673732,17.651486 65.098788,13.7170258 63.7377658,11.4459645 Z" id="Path-82-Copy"></path>
                    <path d="M77.83125,43.2688764 C77.0529297,50.1567115 74.9930339,54.4082647 71.6515625,56.0235361 C66.6393555,58.4464432 59.1738054,55.3341294 55.3458984,56.0235361 C52.5653694,56.5243099 50.2202723,62.599422 44.8839844,62.6604779 C37.2023437,62.7483686 33.8070433,58.0519964 30.8543685,56.0235361 C27.3836858,53.6392091 26.1366154,56.0235361 21.4146205,53.4690206 C18.2666239,51.7660102 17.1744554,49.2963931 18.138115,46.0601694 C18.5993845,49.2194661 20.2645115,51.2375843 23.1334961,52.114524 C27.436973,53.4299334 29.0103493,50.7972292 32.5861328,52.114524 C36.1619163,53.4318187 39.253125,62.6604779 46.6886719,58.0413373 C54.1242187,53.4221967 40.2902362,52.1210851 41.6789062,50.5803998 C41.9627698,50.2654622 63.3385742,57.51388 70.003125,52.9652856 C74.4461589,49.9328893 77.0555339,46.7007529 77.83125,43.2688764 Z" id="Combined-Shape"></path>
                </g>
            </g>
        </g>
    </g>
</svg>