<?xml version="1.0" encoding="UTF-8" standalone="no"?>
<svg width="96px" height="95px" viewBox="0 0 96 95" version="1.1" xmlns="http://www.w3.org/2000/svg" xmlns:xlink="http://www.w3.org/1999/xlink">
    <!-- Generator: Sketch 3.8.2 (29753) - http://www.bohemiancoding.com/sketch -->
    <title>common</title>
    <desc>Created with Sketch.</desc>
    <defs>
        <radialGradient cx="66.2532261%" cy="36.9977474%" fx="66.2532261%" fy="36.9977474%" r="52.2642842%" id="radialGradient-1">
            <stop stop-color="#616361" offset="0%"></stop>
            <stop stop-color="#CACCC9" offset="100%"></stop>
        </radialGradient>
    </defs>
    <g id="Page-1" stroke="none" stroke-width="1" fill="none" fill-rule="evenodd">
        <g id="Desktop-HD" transform="translate(-83.000000, -473.000000)">
            <g id="common" transform="translate(85.000000, 475.000000)">
                <path d="M45.8253527,91.264 C71.1339962,91.264 91.6507055,70.8338577 91.6507055,45.632 C91.6507055,20.4301423 71.1339962,0 45.8253527,0 C20.5167093,0 -1.13686838e-13,20.4301423 -1.13686838e-13,45.632 C-1.13686838e-13,70.8338577 20.5167093,91.264 45.8253527,91.264 Z" id="Oval-1" stroke="#000000" stroke-width="3" fill="url(#radialGradient-1)"></path>
                <path d="M82,66.0364461 C77.3643661,68.0970563 72.2285072,69.2426364 66.8239499,69.2426364 C46.2414882,69.2426364 29.5561063,52.6276558 29.5561063,32.1320385 C29.5561063,23.2366825 32.6990805,15.0723101 37.9395389,8.68 C55.2447254,16.0106901 81.974722,20.7634794 81.9999922,66.0364496 Z" id="Combined-Shape" fill="#131C26" opacity="0.239155784" transform="translate(55.778053, 38.961318) rotate(-180.000000) translate(-55.778053, -38.961318) "></path>
                <path d="M87.3916993,72.9712376 C85.2069012,73.3222283 82.9654295,73.5046387 80.681173,73.5046387 C57.5901834,73.5046387 38.8712377,54.8646747 38.8712377,31.8711138 C38.8712377,20.9965446 43.058142,11.0957532 49.9142867,3.68 C49.4240342,5.38990027 48.9763504,7.16280864 48.5726412,9.00104443 C37.0804542,61.3291732 67.8690338,16.8414852 78.7210776,61.3291715 C80.051548,66.783402 83.0878465,70.5873486 87.3917026,72.9712371 Z" id="Combined-Shape" fill="#FFFFFF" opacity="0.394181437" transform="translate(63.131470, 38.592319) rotate(-180.000000) translate(-63.131470, -38.592319) "></path>
                <path d="M56.173013,14.7808006 C57.7256121,21.6083471 63.2593429,26.9315019 70.2162663,28.2031184 C70.1860959,28.0042025 70.15826,27.8019511 70.1327917,27.5963349 C68.0334248,10.6472623 60.9641163,13.9875202 56.173013,14.7808006 Z" id="Combined-Shape" fill="#FFFFFF" transform="translate(63.194640, 21.093559) rotate(-180.000000) translate(-63.194640, -21.093559) "></path>
                <path d="M65.7720957,85.967771 C68.8590016,80.5943677 70.6233355,74.3707227 70.6233355,67.7367341 C70.6233355,47.4298267 54.0915814,30.9678256 33.6986292,30.9678256 C23.1991435,30.9678256 13.7231815,35.3315617 7,42.3370736 C12.708661,39.2656321 19.243697,37.5220822 26.1876865,37.5220822 C48.5124181,37.5220822 66.6101888,55.5434922 66.6101888,77.7740281 C66.6101888,80.5816912 66.3215098,83.3222141 65.7720957,85.967771 Z" id="Combined-Shape" fill="#FFFFFF" opacity="0.422458022" transform="translate(38.811668, 58.467798) rotate(-180.000000) translate(-38.811668, -58.467798) "></path>
            </g>
        </g>
    </g>
</svg>