<?xml version="1.0" encoding="UTF-8" standalone="no"?>
<svg width="194px" height="169px" viewBox="0 0 194 169" version="1.1" xmlns="http://www.w3.org/2000/svg" xmlns:xlink="http://www.w3.org/1999/xlink">
    <!-- Generator: Sketch 3.7.2 (28276) - http://www.bohemiancoding.com/sketch -->
    <title>cristal</title>
    <desc>Created with Sketch.</desc>
    <defs>
        <polygon id="path-1" points="115 27.5115057 194.674337 73.5115057 194.674337 165.511506 115 211.511506 35.3256629 165.511506 35.3256629 73.5115057"></polygon>
        <mask id="mask-2" maskContentUnits="userSpaceOnUse" maskUnits="objectBoundingBox" x="-4" y="-4" width="167.348674" height="192">
            <rect x="31.3256629" y="23.5115057" width="167.348674" height="192" fill="white"></rect>
            <use xlink:href="#path-1" fill="black"></use>
        </mask>
        <linearGradient x1="21.631282%" y1="120.811326%" x2="50%" y2="50%" id="linearGradient-3">
            <stop stop-color="#3976BB" offset="0%"></stop>
            <stop stop-color="#1A3459" offset="100%"></stop>
        </linearGradient>
        <linearGradient x1="43.6630636%" y1="-3.51757708%" x2="67.4109642%" y2="92.2646725%" id="linearGradient-4">
            <stop stop-color="#0C2242" offset="0%"></stop>
            <stop stop-color="#303F54" offset="100%"></stop>
        </linearGradient>
        <radialGradient cx="50%" cy="8.25352041%" fx="50%" fy="8.25352041%" r="105.879498%" id="radialGradient-5">
            <stop stop-color="#D4DFEA" offset="0%"></stop>
            <stop stop-color="#A3AFBB" offset="42.6857462%"></stop>
            <stop stop-color="#636F7C" offset="100%"></stop>
        </radialGradient>
        <linearGradient x1="0%" y1="0%" x2="50%" y2="100%" id="linearGradient-6">
            <stop stop-color="#657C9F" offset="0%"></stop>
            <stop stop-color="#354666" offset="100%"></stop>
        </linearGradient>
        <linearGradient x1="92.504131%" y1="100%" x2="39.1562682%" y2="0%" id="linearGradient-7">
            <stop stop-color="#72ADDF" offset="0%"></stop>
            <stop stop-color="#1351A3" offset="100%"></stop>
        </linearGradient>
        <linearGradient x1="-3.88844824%" y1="83.6471915%" x2="88.414519%" y2="83.6471915%" id="linearGradient-8">
            <stop stop-color="#1B3459" offset="0%"></stop>
            <stop stop-color="#2E5D96" offset="0%"></stop>
            <stop stop-color="#2C3C52" offset="100%"></stop>
        </linearGradient>
    </defs>
    <g id="Page-1" stroke="none" stroke-width="1" fill="none" fill-rule="evenodd" opacity="0.732101213">
        <g id="Desktop-HD" transform="translate(-100.000000, -89.000000)">
            <g id="cristal" transform="translate(82.000000, 54.000000)">
                <g id="Polygon-1" transform="translate(115.000000, 119.511506) rotate(-330.000000) translate(-115.000000, -119.511506) ">
                    <use fill="#1E2129" fill-rule="evenodd" xlink:href="#path-1"></use>
                    <use stroke="#000000" mask="url(#mask-2)" stroke-width="8" xlink:href="#path-1"></use>
                </g>
                <polygon id="Path-1" fill="url(#linearGradient-3)" points="70.6640625 198.980469 116.236853 118.012864 161.371094 199.023438"></polygon>
                <polygon id="Path-1" fill="url(#linearGradient-4)" transform="translate(116.017578, 79.518151) scale(-1, -1) translate(-116.017578, -79.518151) " points="70.6640625 119.980469 116.236853 39.0128637 161.371094 120.023438"></polygon>
                <polygon id="Path-1" fill="url(#radialGradient-5)" transform="translate(149.767578, 99.085138) scale(-1, -1) rotate(60.000000) translate(-149.767578, -99.085138) " points="104.414062 138.681431 148.986853 59.4458764 195.121094 138.724399"></polygon>
                <polygon id="Path-1" fill="url(#linearGradient-6)" transform="translate(149.767578, 139.085138) scale(-1, 1) rotate(60.000000) translate(-149.767578, -139.085138) " points="104.414063 178.681431 148.986853 99.4458764 195.121094 178.724399"></polygon>
                <polygon id="Path-1" fill="url(#linearGradient-7)" transform="translate(80.767578, 140.085138) rotate(60.000000) translate(-80.767578, -140.085138) " points="35.4140625 179.681431 79.9868528 100.445876 126.121094 179.724399"></polygon>
                <polygon id="Path-1" fill="url(#linearGradient-8)" transform="translate(81.767578, 99.085138) scale(1, -1) rotate(60.000000) translate(-81.767578, -99.085138) " points="36.4140625 138.681431 80.9868528 59.4458764 127.121094 138.724399"></polygon>
                <polygon id="Path-7" fill="#FFFFFF" opacity="0.304920709" points="139.664062 104 155.683594 54.453125 118.625 117.296875 196.199219 117.296875"></polygon>
                <polygon id="Path-7" fill="#47A0FF" opacity="0.304920709" transform="translate(71.327359, 153.914621) rotate(179.000000) translate(-71.327359, -153.914621) " points="48.1632969 176.039621 69.5988438 122.492746 32.54025 185.336496 110.114469 185.336496"></polygon>
                <polygon id="Path-7" fill="#02070B" opacity="0.247084888" transform="translate(106.605697, 56.301560) rotate(300.000000) translate(-106.605697, -56.301560) " points="83.4416342 78.4265596 104.877181 24.8796846 67.8185873 87.7234346 145.392806 87.7234346"></polygon>
                <polygon id="Path-7" fill="#47A0FF" opacity="0.304920709" transform="translate(95.905421, 166.626952) rotate(356.000000) translate(-95.905421, -166.626952) " points="96.5680245 183.454398 110.296756 133.750029 73.5066876 196.593779 118.304154 199.503875"></polygon>
                <polygon id="Path-7" fill="#000000" opacity="0.181553172" transform="translate(84.532476, 83.638599) scale(-1, 1) rotate(2.000000) translate(-84.532476, -83.638599) " points="85.1950802 100.466045 98.9238114 50.7616768 62.1337433 113.605427 106.93121 116.515522"></polygon>
                <polygon id="Path-7" fill="#242E3C" opacity="0.27891791" transform="translate(145.544168, 154.211688) rotate(298.000000) translate(-145.544168, -154.211688) " points="146.206772 171.039134 159.935503 121.334765 123.145435 184.178515 167.942901 187.08861"></polygon>
            </g>
        </g>
    </g>
</svg>