<?xml version="1.0" encoding="UTF-8" standalone="no"?>
<svg width="170px" height="257px" viewBox="0 0 170 257" version="1.1" xmlns="http://www.w3.org/2000/svg" xmlns:xlink="http://www.w3.org/1999/xlink">
    <!-- Generator: Sketch 3.8.2 (29753) - http://www.bohemiancoding.com/sketch -->
    <title>health</title>
    <desc>Created with Sketch.</desc>
    <defs>
        <linearGradient x1="69.749814%" y1="100%" x2="33.5100446%" y2="24.7372582%" id="linearGradient-1">
            <stop stop-color="#58544F" offset="0%"></stop>
            <stop stop-color="#8A847E" offset="100%"></stop>
        </linearGradient>
        <path d="M81,245.782227 C125.500488,245.782227 161.575261,209.707453 161.575261,165.206965 C161.575261,120.706477 81,0.260742188 81,0.260742188 C81,0.260742188 0.424738649,120.706477 0.424738649,165.206965 C0.424738649,209.707453 36.4995119,245.782227 81,245.782227 Z" id="path-2"></path>
        <mask id="mask-3" maskContentUnits="userSpaceOnUse" maskUnits="objectBoundingBox" x="-4" y="-4" width="169.150523" height="253.521484">
            <rect x="-3.57526135" y="-3.73925781" width="169.150523" height="253.521484" fill="white"></rect>
            <use xlink:href="#path-2" fill="black"></use>
        </mask>
        <linearGradient x1="79.1418651%" y1="40.3380058%" x2="30.3385417%" y2="83.6226265%" id="linearGradient-4">
            <stop stop-color="#5A2018" offset="0%"></stop>
            <stop stop-color="#BB1A1D" offset="100%"></stop>
        </linearGradient>
    </defs>
    <g id="Page-1" stroke="none" stroke-width="1" fill="none" fill-rule="evenodd" opacity="0.697702892">
        <g id="health" transform="translate(4.000000, 7.000000)">
            <g id="Oval-61">
                <use fill="url(#linearGradient-1)" fill-rule="evenodd" xlink:href="#path-2"></use>
                <use stroke="#000000" mask="url(#mask-3)" stroke-width="8" xlink:href="#path-2"></use>
            </g>
            <path d="M158,166.5 C158,132.990304 136.454562,104.512815 106.460875,94.1647203 C98.637842,91.4657028 112.517431,114.499999 103.777344,114.499999 C93.6647341,114.499999 105.77942,125.773474 96.9433594,129.337891 C88.8156615,140.941132 40,121.257957 40,136.5 C40,175.98836 72.0116404,208 111.5,208 C126.742043,208 140.870153,203.230684 152.473395,195.102986 C156.037811,186.266925 158,176.61261 158,166.5 Z" id="Combined-Shape" fill="#EEEEEE" opacity="0.185576026"></path>
            <path d="M80.5,238 C119.98836,238 152,205.98836 152,166.5 C152,127.01164 80.5,13.7539062 80.5,13.7539062 C80.5,13.7539062 9,127.01164 9,166.5 C9,205.98836 41.0116404,238 80.5,238 Z" id="Oval-61" fill="#48443E"></path>
            <path d="M81,233 C118.003078,233 148,203.003078 148,166 C148,128.996922 81,22.1992188 81,22.1992188 C81,22.1992188 14,128.996922 14,166 C14,203.003078 43.9969218,233 81,233 Z" id="Oval-61" fill="#000000"></path>
            <path d="M81.5,229.5 C116.293939,229.5 144.5,201.293939 144.5,166.5 C144.5,131.706061 81.5,33.0351562 81.5,33.0351562 C81.5,33.0351562 18.5,131.706061 18.5,166.5 C18.5,201.293939 46.7060608,229.5 81.5,229.5 Z" id="Oval-61" fill="url(#linearGradient-4)"></path>
            <path d="M73.4637172,213.15057 C93.918056,213.15057 110.499574,198.871912 110.499574,181.258294 C110.499574,163.644676 87.9278658,114.021484 73.4637172,114.021484 C58.9995687,114.021484 36.4278607,163.644676 36.4278607,181.258294 C36.4278607,198.871912 53.0093785,213.15057 73.4637172,213.15057 Z" id="Oval-61" fill="#E42F33" opacity="0.641324627"></path>
            <path d="M137.64817,163.5 C137.648171,135.597651 119.609376,105.820313 87.6992188,56.8945313 C87.6992187,56.8945311 82.4995425,82.7539063 98.6835934,102.019531 C114.867644,121.285156 148.773438,163.5 128.218749,198.242191 C128.218749,198.242191 137.64817,191.402349 137.64817,163.5 Z" id="Combined-Shape" fill="#AAD8E6"></path>
            <path d="M123.640622,200.214844 C114.792269,209.7764 96.9261934,218.25011 82.8710956,218.25 C45.9750367,218.24971 22.2388368,187.229675 27.0976562,161.550781 C32.621094,132.359375 78.8710938,47.8320312 78.8710938,47.8320312 C64.8545145,78.5838647 39.3789066,133.041016 39.3789066,169.207031 C39.3789066,177.216623 60.5806622,172.636911 72.1044038,177.060461 C83.7876822,181.545252 90.9776642,199.123587 88.1636781,206.454271 C86.3861002,211.08502 115.648703,206.030544 123.640622,200.214844 Z" id="Combined-Shape" fill="#F75841"></path>
            <ellipse id="Oval-70" fill="#FFF299" opacity="0.567922108" transform="translate(60.571458, 192.320986) rotate(13.000000) translate(-60.571458, -192.320986) " cx="60.571458" cy="192.320986" rx="15.1682236" ry="9.51731677"></ellipse>
        </g>
    </g>
</svg>