<?xml version="1.0" encoding="UTF-8" standalone="no"?>
<svg width="217px" height="30px" viewBox="0 0 217 30" version="1.1" xmlns="http://www.w3.org/2000/svg" xmlns:xlink="http://www.w3.org/1999/xlink" xmlns:sketch="http://www.bohemiancoding.com/sketch/ns">
    <!-- Generator: Sketch 3.5.1 (25234) - http://www.bohemiancoding.com/sketch -->
    <title>logo-instantsearch</title>
    <desc>Created with Sketch.</desc>
    <defs>
        <path d="M125.579727,24.8780488 C125.049757,24.8780488 124.49972,24.8384974 123.9296,24.7593935 C123.35948,24.6802897 122.793384,24.573501 122.231294,24.4390244 C121.669205,24.3045478 121.131212,24.1384321 120.617302,23.9406724 C120.103391,23.7429127 119.653726,23.5253802 119.268293,23.2880686 L120.785928,20.7251154 C121.621033,21.1997387 122.432036,21.5636111 123.218962,21.8167436 C124.005887,22.069876 124.760682,22.1964403 125.483369,22.1964403 C126.045459,22.1964403 126.47505,22.1094274 126.772155,21.9353988 C127.069259,21.7613703 127.217809,21.5082416 127.217809,21.1760053 C127.217809,20.8437689 127.017066,20.5866852 126.615573,20.4047462 C126.21408,20.2228073 125.523523,20.0052748 124.543881,19.7521424 C123.692716,19.5306515 122.97004,19.3091639 122.375831,19.087673 C121.781622,18.8661821 121.303853,18.6170086 120.942509,18.340145 C120.581166,18.0632814 120.320199,17.7508257 120.159602,17.4027686 C119.999005,17.0547115 119.918708,16.6433775 119.918708,16.1687541 C119.918708,15.535923 120.051198,14.9584733 120.316184,14.4363876 C120.581169,13.9143019 120.946522,13.4713268 121.412253,13.1074489 C121.877985,12.743571 122.428022,12.4588013 123.06238,12.2531312 C123.696739,12.0474611 124.391311,11.9446276 125.146117,11.9446276 C126.029401,11.9446276 126.932746,12.075147 127.85618,12.3361898 C128.779613,12.5972327 129.682958,12.95715 130.566242,13.4159525 L129.048607,15.8127884 C128.261681,15.3856274 127.55908,15.0731717 126.940781,14.875412 C126.322482,14.6776523 125.724267,14.5787739 125.146117,14.5787739 C124.664326,14.5787739 124.266854,14.6618317 123.95369,14.8279499 C123.640525,14.9940681 123.483945,15.2590621 123.483945,15.62294 C123.483945,15.7969686 123.524094,15.9433086 123.604393,16.0619644 C123.684691,16.1806202 123.817182,16.291364 124.001869,16.3941991 C124.186555,16.4970341 124.431462,16.5919574 124.736597,16.6789717 C125.041731,16.7659859 125.419129,16.8648643 125.8688,16.9756098 C126.800264,17.2129214 127.587178,17.4502295 128.229566,17.6875412 C128.871954,17.9248529 129.393887,18.1898469 129.79538,18.4825313 C130.196873,18.7752157 130.485943,19.1114022 130.6626,19.4911009 C130.839257,19.8707995 130.927584,20.3216849 130.927584,20.8437706 C130.927584,21.4607809 130.803123,22.018455 130.554197,22.5168095 C130.305272,23.015164 129.947949,23.4383635 129.482217,23.7864206 C129.016486,24.1344777 128.454404,24.4034269 127.795956,24.5932762 C127.137508,24.7831255 126.398772,24.8780488 125.579727,24.8780488 Z M138.604087,24.8780488 C137.544146,24.8780488 136.592622,24.707978 135.749488,24.3678312 C134.906353,24.0276845 134.191706,23.5649337 133.605527,22.9795649 C133.019348,22.3941962 132.573697,21.717868 132.268563,20.9505603 C131.963428,20.1832526 131.810863,19.3803602 131.810863,18.5418589 C131.810863,17.6400746 131.963428,16.7897205 132.268563,15.9907713 C132.573697,15.191822 133.015333,14.4917631 133.593482,13.8905735 C134.171632,13.2893839 134.882263,12.8147677 135.725398,12.4667106 C136.568533,12.1186535 137.528086,11.9446276 138.604087,11.9446276 C139.680087,11.9446276 140.635626,12.1186535 141.470731,12.4667106 C142.305836,12.8147677 143.012452,13.2854288 143.590602,13.878708 C144.168751,14.4719871 144.606372,15.1562255 144.903477,15.9314436 C145.200581,16.7066618 145.349131,17.5214196 145.349131,18.3757416 C145.349131,18.5972325 145.341102,18.8147649 145.325042,19.0283454 C145.308982,19.2419259 145.284893,19.4278173 145.252773,19.586025 L135.906069,19.586025 C135.970308,20.4245263 136.279453,21.061303 136.833513,21.4963744 C137.387573,21.9314458 138.017907,22.1489782 138.724534,22.1489782 C139.286624,22.1489782 139.828631,22.0145037 140.350572,21.7455504 C140.872512,21.4765972 141.221806,21.1127248 141.398462,20.6539222 L144.674627,21.555702 C144.176776,22.5365903 143.405921,23.3355276 142.36204,23.9525379 C141.318159,24.5695482 140.06552,24.8780488 138.604087,24.8780488 Z M141.278015,17.2366513 C141.197717,16.4456124 140.908646,15.820701 140.410795,15.3618985 C139.912944,14.9030959 139.294655,14.6736981 138.555908,14.6736981 C137.801102,14.6736981 137.178797,14.9070511 136.688976,15.373764 C136.199155,15.840477 135.914099,16.4614332 135.833801,17.2366513 L141.278015,17.2366513 Z M150.496243,24.8780488 C149.869914,24.8780488 149.287758,24.7791704 148.749758,24.5814107 C148.211758,24.383651 147.750048,24.1067915 147.364615,23.750824 C146.979182,23.3948565 146.674052,22.9756122 146.449216,22.4930784 C146.22438,22.0105447 146.111964,21.4845117 146.111964,20.9149637 C146.111964,20.2979534 146.244454,19.7363242 146.509439,19.2300593 C146.774425,18.7237944 147.147807,18.2887296 147.629599,17.9248517 C148.11139,17.5609738 148.681501,17.2762041 149.339949,17.0705339 C149.998397,16.8648638 150.729103,16.7620303 151.532089,16.7620303 C152.062059,16.7620303 152.575962,16.8055368 153.073813,16.8925511 C153.571664,16.9795654 154.00527,17.1100848 154.374643,17.2841134 L154.374643,16.7145682 C154.374643,15.2748774 153.531521,14.5550428 151.845251,14.5550428 C151.154684,14.5550428 150.496246,14.6697418 149.869917,14.899143 C149.243588,15.1285443 148.58515,15.4726411 147.894583,15.9314436 L146.762379,13.5583388 C147.597484,13.0204324 148.464695,12.6170086 149.364039,12.3480554 C150.263382,12.0791021 151.218921,11.9446276 152.230683,11.9446276 C154.141788,11.9446276 155.619259,12.3876027 156.66314,13.2735662 C157.707021,14.1595298 158.228954,15.4568141 158.228954,17.1654581 L158.228954,20.3691496 C158.228954,20.7488483 158.301222,21.0138424 158.445759,21.1641397 C158.590297,21.3144371 158.847248,21.4054052 159.216621,21.4370468 L159.216621,24.6407383 C158.847248,24.7198422 158.505984,24.7712589 158.19282,24.7949901 C157.879656,24.8187213 157.60263,24.8305867 157.361734,24.8305867 C156.655107,24.8147659 156.117115,24.672381 155.747741,24.4034278 C155.378368,24.1344746 155.145506,23.7468714 155.049148,23.2406065 L154.976879,22.6710613 C154.414789,23.3829963 153.744307,23.928805 152.965411,24.3085036 C152.186515,24.6882023 151.363467,24.8780488 150.496243,24.8780488 Z M151.628446,22.1489782 C152.045999,22.1489782 152.4515,22.0777858 152.844963,21.9353988 C153.238426,21.7930118 153.563631,21.6031653 153.820586,21.3658537 C154.189959,21.0810797 154.374643,20.7804894 154.374643,20.4640738 L154.374643,19.2775214 C154.037389,19.1509552 153.672036,19.0520768 153.278573,18.9808833 C152.88511,18.9096898 152.519758,18.8740936 152.182504,18.8740936 C151.475876,18.8740936 150.893721,19.032299 150.436019,19.3487146 C149.978317,19.6651301 149.74947,20.0764642 149.74947,20.5827291 C149.74947,21.0415316 149.926124,21.4172695 150.279438,21.7099539 C150.632751,22.0026382 151.082416,22.1489782 151.628446,22.1489782 Z M168.916638,15.4330916 C167.985175,15.4489124 167.146067,15.5992075 166.399291,15.8839815 C165.652514,16.1687555 165.102477,16.5959101 164.749164,17.1654581 L164.749164,24.6407383 L160.894853,24.6407383 L160.894853,12.181938 L164.436001,12.181938 L164.436001,14.6974291 C164.885673,13.8589279 165.451769,13.2063306 166.134307,12.7396177 C166.816845,12.2729047 167.543536,12.0237312 168.314402,11.9920897 C168.635596,11.9920897 168.836339,11.9999999 168.916638,12.0158207 L168.916638,15.4330916 Z M169.631291,18.3994726 C169.631291,17.5451506 169.783856,16.7264377 170.088991,15.9433092 C170.394125,15.1601807 170.835761,14.4719871 171.41391,13.878708 C171.99206,13.2854288 172.702691,12.8147677 173.545826,12.4667106 C174.388961,12.1186535 175.348514,11.9446276 176.424515,11.9446276 C177.885948,11.9446276 179.114498,12.249173 180.1102,12.8582729 C181.105902,13.4673729 181.852667,14.262355 182.350518,15.2432432 L178.592565,16.3586025 C178.094714,15.5675636 177.364008,15.1720501 176.400425,15.1720501 C175.59744,15.1720501 174.926957,15.4647301 174.388957,16.0500989 C173.850956,16.6354677 173.58196,17.4185844 173.58196,18.3994726 C173.58196,18.8899168 173.654228,19.336847 173.798765,19.7402769 C173.943303,20.1437067 174.144046,20.4878035 174.401001,20.7725775 C174.657957,21.0573515 174.959072,21.278839 175.304355,21.4370468 C175.649639,21.5952546 176.014992,21.6743573 176.400425,21.6743573 C176.882216,21.6743573 177.323852,21.5596584 177.725345,21.3302571 C178.126837,21.1008558 178.423938,20.8042207 178.616654,20.4403428 L182.374607,21.5794331 C181.908876,22.5445005 181.166125,23.3355276 180.146334,23.9525379 C179.126542,24.5695482 177.885948,24.8780488 176.424515,24.8780488 C175.364574,24.8780488 174.41305,24.7000677 173.569915,24.3441002 C172.726781,23.9881327 172.012134,23.5135165 171.425955,22.9202373 C170.839776,22.3269581 170.394125,21.6387646 170.088991,20.8556361 C169.783856,20.0725076 169.631291,19.2537946 169.631291,18.3994726 Z M196.097561,24.6407383 L192.24325,24.6407383 L192.24325,17.6400791 C192.24325,16.8332194 192.07864,16.2399492 191.749416,15.8602505 C191.420192,15.4805518 190.974542,15.2907053 190.412452,15.2907053 C190.187616,15.2907053 189.942709,15.3421221 189.677724,15.4449572 C189.412739,15.5477922 189.155787,15.6980873 188.906862,15.8958471 C188.657936,16.0936068 188.429089,16.3269598 188.220313,16.595913 C188.011536,16.8648662 187.850942,17.1654565 187.738524,17.4976928 L187.738524,24.6407383 L183.884213,24.6407383 L183.884213,7.31707317 L187.738524,7.31707317 L187.738524,14.2702703 C188.204255,13.5266937 188.81853,12.9531991 189.581366,12.5497693 C190.344202,12.1463394 191.191339,11.9446276 192.122803,11.9446276 C192.973967,11.9446276 193.66051,12.0909676 194.18245,12.3836519 C194.704391,12.6763363 195.105877,13.048119 195.386922,13.4990112 C195.667967,13.9499034 195.856666,14.4561607 195.953024,15.0177983 C196.049383,15.5794359 196.097561,16.1291997 196.097561,16.6671061 L196.097561,24.6407383 Z" id="path-1"></path>
    </defs>
    <g id="Page-1" stroke="none" stroke-width="1" fill="none" fill-rule="evenodd" sketch:type="MSPage">
        <g id="-supersearch" sketch:type="MSArtboardGroup" transform="translate(-44.000000, -285.000000)">
            <g id="logo-instantsearch" sketch:type="MSLayerGroup" transform="translate(44.000000, 285.000000)">
                <g id="icon-widget-copy" fill="#FFFFFF" sketch:type="MSShapeGroup">
                    <path d="M22.7107846,15.4045317 C22.7646714,15.0989244 22.6932024,14.7804814 22.5263173,14.5378931 L20.0375534,10.9201634 C20.9390904,9.99478313 21.5411307,8.80343153 21.7661874,7.52707173 C22.3827159,4.03056494 20.0971164,0.708160108 16.6580539,0.101760601 C13.2189914,-0.504638905 9.93490099,1.83567933 9.31837251,5.33218611 C8.70184402,8.8286929 10.9874435,12.1510977 14.426506,12.7574972 C15.6818965,12.9788564 16.9877563,12.8105946 18.1505047,12.2649177 L20.6408535,15.873659 C20.8061536,16.1252357 21.0757106,16.3025166 21.376297,16.3555181 C21.9951515,16.4646389 22.5998411,16.0337231 22.7107846,15.4045317 Z M19.4998142,7.12487064 C19.1083424,9.34501762 17.01278,10.8383635 14.8291079,10.4533232 C12.6454358,10.0682829 11.1870057,7.94827223 11.5784775,5.72812525 C11.9699493,3.50797827 14.0655117,2.01463235 16.2491838,2.39967265 C18.4328559,2.78471295 19.891286,4.90472366 19.4998142,7.12487064 Z M14.4935765,22.1307144 C14.7130071,21.9112838 15.0148533,21.7871764 15.3092913,21.7847377 L19.7002583,21.7483692 C19.9411851,20.479097 20.5717671,19.3026032 21.4882126,18.3861577 C23.9987571,15.8756132 28.0312778,15.8422136 30.5005764,18.3115122 C32.969875,20.7808108 32.9364754,24.8133316 30.4259309,27.323876 C27.9153865,29.8344205 23.8828657,29.8678201 21.4135671,27.3985215 C20.5121779,26.4971323 19.9009995,25.3309235 19.6810668,24.0654684 L15.2965536,24.095383 C14.9956617,24.1042756 14.6958302,23.9851516 14.4800046,23.769326 C14.0356578,23.3249792 14.0418076,22.5824833 14.4935765,22.1307144 Z M23.10049,20.023947 C21.5063911,21.6180459 21.485079,24.1911782 23.0529884,25.7590876 C24.6208978,27.326997 27.1940301,27.3056848 28.788129,25.7115859 C30.3822279,24.117487 30.4035401,21.5443547 28.8356307,19.9764453 C27.2677213,18.4085359 24.694589,18.429848 23.10049,20.023947 Z M13.5099052,14.1156834 C13.5849789,14.4167873 13.5358974,14.73944 13.386341,14.9930786 L11.1559997,18.7756031 C12.1198918,19.6358412 12.8035701,20.7822945 13.1171129,22.039846 C13.9760435,25.4848286 11.9277708,28.9585756 8.53938602,29.8033948 C5.1510012,30.6482141 1.71165835,28.5426833 0.852727711,25.0977007 C-0.00620292493,21.652718 2.04206974,18.1789711 5.43045456,17.3341518 C6.66734568,17.0257602 7.98176186,17.10252 9.17974233,17.5657585 L11.4122917,13.79209 C11.5596401,13.5295953 11.816174,13.3339429 12.112331,13.2601026 C12.722066,13.1080786 13.3553419,13.4957636 13.5099052,14.1156834 Z M10.8828583,22.6001816 C10.3374705,20.4127505 8.14284219,19.0692213 5.99134849,19.6056489 C3.83985478,20.1420766 2.53286175,22.358658 3.07824958,24.5460891 C3.62363741,26.7335202 5.81826571,28.0770494 7.96975941,27.5406217 C10.1212531,27.0041941 11.4282462,24.7876127 10.8828583,22.6001816 Z" id="Icons/Search"></path>
                </g>
                <path d="M40.2439024,24.3956221 L40.2439024,12.113104 L44.089954,12.113104 L44.089954,24.3956221 L40.2439024,24.3956221 Z M40.2439024,10.7093877 L40.2439024,7.31707317 L44.089954,7.31707317 L44.089954,10.7093877 L40.2439024,10.7093877 Z M58.6728994,24.3956221 L54.8268479,24.3956221 L54.8268479,17.4940167 C54.8268479,16.6829766 54.6706036,16.0942014 54.3581104,15.7276736 C54.0456171,15.3611459 53.6329719,15.1778847 53.1201625,15.1778847 C52.8477325,15.1778847 52.5713003,15.2324732 52.2908576,15.3416517 C52.010415,15.4508301 51.7460016,15.6028979 51.4976095,15.7978595 C51.2492174,15.992821 51.0208604,16.2228723 50.8125316,16.48802 C50.6042028,16.7531678 50.4439522,17.0417066 50.3317751,17.3536451 L50.3317751,24.3956221 L46.4857236,24.3956221 L46.4857236,12.113104 L49.94717,12.113104 L49.94717,14.171888 C50.4119035,13.4388325 51.0689308,12.8734524 51.9182714,12.4757308 C52.767612,12.0780091 53.7451404,11.8791513 54.8508857,11.8791513 C55.6681757,11.8791513 56.3292092,12.0234207 56.834006,12.3119639 C57.3388028,12.600507 57.7274104,12.9748276 57.9998404,13.4349369 C58.2722704,13.8950463 58.4525523,14.3980396 58.5406914,14.943932 C58.6288305,15.4898244 58.6728994,16.020112 58.6728994,16.5348106 L58.6728994,24.3956221 Z M66.2608386,24.6295749 C65.7320039,24.6295749 65.1831458,24.5905831 64.6142478,24.5125985 C64.0453498,24.4346139 63.4804667,24.3293362 62.9195814,24.1967623 C62.358696,24.0641884 61.8218567,23.9004232 61.3090473,23.7054616 C60.7962378,23.5105 60.3475363,23.2960455 59.9629292,23.0620916 L61.477312,20.5354022 C62.3106274,21.0033099 63.1198926,21.3620339 63.9051321,21.6115847 C64.6903715,21.8611355 65.4435491,21.9859091 66.1646873,21.9859091 C66.7255727,21.9859091 67.1542429,21.9001272 67.4507108,21.7285611 C67.7471788,21.5569949 67.8954105,21.3074478 67.8954105,20.9799123 C67.8954105,20.6523769 67.6950974,20.3989306 67.294465,20.219566 C66.8938326,20.0402013 66.2047553,19.8257468 65.2272123,19.576196 C64.3778716,19.357839 63.6567442,19.1394853 63.0638083,18.9211284 C62.4708724,18.7027714 61.994127,18.4571235 61.6335579,18.1841773 C61.2729887,17.9112311 61.0125816,17.6031964 60.8523286,17.260064 C60.6920757,16.9169316 60.6119504,16.5114176 60.6119504,16.0435098 C60.6119504,15.4196328 60.7441571,14.8503535 61.0085745,14.3356549 C61.2729919,13.8209564 61.6375618,13.384249 62.1022954,13.0255197 C62.5670289,12.6667904 63.1158871,12.3860499 63.7488862,12.1832899 C64.3818854,11.9805298 65.074969,11.8791513 65.8281578,11.8791513 C66.709549,11.8791513 67.6109584,12.007824 68.5324128,12.2651733 C69.4538673,12.5225226 70.3552766,12.8773473 71.2366678,13.3296582 L69.722285,15.6925807 C68.9370456,15.2714637 68.2359494,14.9634291 67.6189756,14.7684675 C67.0020017,14.5735059 66.4050684,14.4760266 65.8281578,14.4760266 C65.347399,14.4760266 64.9507789,14.5579092 64.6382856,14.7216769 C64.3257924,14.8854447 64.1695481,15.1466893 64.1695481,15.5054186 C64.1695481,15.6769848 64.2096107,15.8212542 64.2897372,15.9382311 C64.3698637,16.055208 64.5020704,16.1643849 64.6863613,16.2657649 C64.8706522,16.3671449 65.1150343,16.4607251 65.4195149,16.5465082 C65.7239955,16.6322913 66.1005842,16.7297706 66.5492925,16.8389491 C67.4787596,17.072903 68.2639873,17.3068534 68.9049991,17.5408073 C69.5460109,17.7747612 70.0668251,18.0360058 70.4674575,18.3245489 C70.8680899,18.613092 71.1565409,18.9445218 71.3328191,19.318848 C71.5090973,19.6931742 71.5972351,20.1376799 71.5972351,20.6523785 C71.5972351,21.2606586 71.473041,21.8104421 71.2246489,22.3017452 C70.9762568,22.7930484 70.6196994,23.2102599 70.1549658,23.5533923 C69.6902323,23.8965247 69.1293554,24.1616685 68.4723183,24.3488316 C67.8152812,24.5359947 67.0781287,24.6295749 66.2608386,24.6295749 L66.2608386,24.6295749 Z M81.3005027,23.7405545 C80.771668,23.9589115 80.1707284,24.1616685 79.497666,24.3488316 C78.8246036,24.5359947 78.1355263,24.6295749 77.4304133,24.6295749 C76.9496545,24.6295749 76.4969467,24.5710873 76.0722764,24.4541103 C75.6476061,24.3371334 75.2750235,24.1499731 74.9545176,23.8926238 C74.6340118,23.6352745 74.3816171,23.2960464 74.1973263,22.8749294 C74.0130354,22.4538124 73.9208913,21.9469199 73.9208913,21.3542367 L73.9208913,14.943932 L72.3103572,14.943932 L72.3103572,12.113104 L73.9208913,12.113104 L73.9208913,8.20609353 L77.7669428,8.20609353 L77.7669428,12.113104 L80.3389898,12.113104 L80.3389898,14.943932 L77.7669428,14.943932 L77.7669428,20.0674967 C77.7669428,20.4730168 77.875112,20.7654548 78.0914534,20.9448194 C78.3077949,21.1241841 78.5762146,21.2138651 78.8967205,21.2138651 C79.1691505,21.2138651 79.4576015,21.167075 79.7620821,21.0734934 C80.0665627,20.9799119 80.3389886,20.8785334 80.579368,20.7693549 L81.3005027,23.7405545 Z M86.172168,24.6295749 C85.5471815,24.6295749 84.9662733,24.5320955 84.4294259,24.3371339 C83.8925785,24.1421724 83.4318582,23.8692302 83.0472511,23.5182994 C82.662644,23.1673686 82.358168,22.7540562 82.1338139,22.27835 C81.9094597,21.8026437 81.7972844,21.2840537 81.7972844,20.7225643 C81.7972844,20.1142842 81.9294911,19.5606016 82.1939084,19.0615 C82.4583258,18.5623983 82.8309083,18.1334893 83.3116672,17.77476 C83.792426,17.4160307 84.3613154,17.1352902 85.0183525,16.9325302 C85.6753896,16.7297701 86.4045296,16.6283916 87.2057943,16.6283916 C87.7346291,16.6283916 88.2474308,16.6712825 88.744215,16.7570656 C89.2409991,16.8428487 89.6736756,16.9715214 90.0422574,17.1430876 L90.0422574,16.5816011 C90.0422574,15.1622808 89.200942,14.4526313 87.518286,14.4526313 C86.8291984,14.4526313 86.1721711,14.5657073 85.5471846,14.7918627 C84.9221981,15.0180182 84.2651709,15.3572462 83.5760832,15.8095571 L82.4463056,13.4700298 C83.2796209,12.9397344 84.1449738,12.5420187 85.0423904,12.2768709 C85.9398069,12.0117232 86.8932976,11.8791513 87.9028912,11.8791513 C89.8099013,11.8791513 91.2842063,12.3158587 92.3258505,13.1892866 C93.3674946,14.0627145 93.8883089,15.3416432 93.8883089,17.0261113 L93.8883089,20.1844731 C93.8883089,20.5587993 93.9604216,20.8200439 94.1046493,20.9682147 C94.248877,21.1163855 94.5052778,21.2060665 94.8738596,21.2372603 L94.8738596,24.3956221 C94.5052778,24.4736068 94.1647454,24.524296 93.8522522,24.5476914 C93.5397589,24.5710868 93.2633267,24.5827843 93.0229473,24.5827843 C92.3178343,24.5671874 91.780995,24.4268171 91.4124132,24.1616694 C91.0438314,23.8965217 90.8114681,23.5144027 90.7153164,23.015301 L90.6432029,22.4538145 C90.0823176,23.1556762 89.4132716,23.6937621 88.6360448,24.0680883 C87.858818,24.4424145 87.0375339,24.6295749 86.172168,24.6295749 L86.172168,24.6295749 Z M87.3019456,21.9391185 C87.7186033,21.9391185 88.1232359,21.8689334 88.5158557,21.7285611 C88.9084754,21.5881887 89.2329827,21.4010284 89.4893874,21.1670745 C89.8579692,20.8863298 90.0422574,20.5899927 90.0422574,20.2780542 L90.0422574,19.1082905 C89.7057262,18.9835151 89.3411562,18.8860358 88.9485365,18.8158496 C88.5559167,18.7456635 88.1913467,18.7105709 87.8548155,18.7105709 C87.1497026,18.7105709 86.5687943,18.8665378 86.1120734,19.1784763 C85.6553525,19.4904149 85.4269955,19.8959289 85.4269955,20.3950305 C85.4269955,20.8473414 85.6032711,21.2177628 85.9558276,21.506306 C86.3083841,21.7948491 86.7570856,21.9391185 87.3019456,21.9391185 L87.3019456,21.9391185 Z M108.73567,24.3956221 L104.889619,24.3956221 L104.889619,17.4940167 C104.889619,16.6829766 104.733375,16.0942014 104.420881,15.7276736 C104.108388,15.3611459 103.695743,15.1778847 103.182933,15.1778847 C102.910503,15.1778847 102.634071,15.2324732 102.353629,15.3416517 C102.073186,15.4508301 101.808773,15.6028979 101.56038,15.7978595 C101.311988,15.992821 101.083631,16.2228723 100.875303,16.48802 C100.666974,16.7531678 100.506723,17.0417066 100.394546,17.3536451 L100.394546,24.3956221 L96.5484946,24.3956221 L96.5484946,12.113104 L100.009941,12.113104 L100.009941,14.171888 C100.474675,13.4388325 101.131702,12.8734524 101.981042,12.4757308 C102.830383,12.0780091 103.807911,11.8791513 104.913657,11.8791513 C105.730947,11.8791513 106.39198,12.0234207 106.896777,12.3119639 C107.401574,12.600507 107.790181,12.9748276 108.062611,13.4349369 C108.335041,13.8950463 108.515323,14.3980396 108.603462,14.943932 C108.691601,15.4898244 108.73567,16.020112 108.73567,16.5348106 L108.73567,24.3956221 Z M119.18411,23.7405545 C118.655276,23.9589115 118.054336,24.1616685 117.381274,24.3488316 C116.708211,24.5359947 116.019134,24.6295749 115.314021,24.6295749 C114.833262,24.6295749 114.380554,24.5710873 113.955884,24.4541103 C113.531214,24.3371334 113.158631,24.1499731 112.838125,23.8926238 C112.517619,23.6352745 112.265225,23.2960464 112.080934,22.8749294 C111.896643,22.4538124 111.804499,21.9469199 111.804499,21.3542367 L111.804499,14.943932 L110.193965,14.943932 L110.193965,12.113104 L111.804499,12.113104 L111.804499,8.20609353 L115.650551,8.20609353 L115.650551,12.113104 L118.222598,12.113104 L118.222598,14.943932 L115.650551,14.943932 L115.650551,20.0674967 C115.650551,20.4730168 115.75872,20.7654548 115.975061,20.9448194 C116.191403,21.1241841 116.459822,21.2138651 116.780328,21.2138651 C117.052758,21.2138651 117.341209,21.167075 117.64569,21.0734934 C117.95017,20.9799119 118.222596,20.8785334 118.462976,20.7693549 L119.18411,23.7405545 Z M198.741289,24.3956221 L198.741289,22.407024 L199.798953,22.407024 L199.798953,24.3956221 L198.741289,24.3956221 Z M200.776491,28.5365854 C200.263682,28.5365854 199.786937,28.4702994 199.346241,28.3377255 C198.905545,28.2051517 198.508925,27.9828988 198.156369,27.6709603 L198.80539,26.8989163 C199.07782,27.1172733 199.374284,27.2654418 199.694789,27.3434265 C200.015295,27.4214111 200.335796,27.4604028 200.656302,27.4604028 C200.960783,27.4604028 201.257246,27.4019152 201.545702,27.2849383 C201.834157,27.1679613 202.090558,27.0041961 202.314912,26.7936376 C202.539266,26.5830791 202.723554,26.333532 202.867782,26.0449888 C203.01201,25.7564457 203.084122,25.4406127 203.084122,25.0974803 L203.084122,12.2300804 L204.286014,12.2300804 L204.286014,25.0506898 C204.286014,25.5653883 204.185857,26.0332891 203.985541,26.4544061 C203.785225,26.8755231 203.516805,27.2420454 203.180274,27.5539839 C202.843743,27.8659224 202.467154,28.1076712 202.050496,28.2792374 C201.633838,28.4508036 201.209174,28.5365854 200.776491,28.5365854 L200.776491,28.5365854 Z M203.084122,9.46943824 L203.084122,7.31707317 L204.286014,7.31707317 L204.286014,9.46943824 L203.084122,9.46943824 Z M211.777801,24.6295749 C210.816284,24.6295749 209.894843,24.4736079 209.013452,24.1616694 C208.132061,23.8497309 207.362858,23.3818301 206.705821,22.757953 L207.306767,21.9625138 C207.979829,22.555197 208.676919,22.9919044 209.398057,23.272649 C210.119195,23.5533937 210.912436,23.6937639 211.777801,23.6937639 C212.867521,23.6937639 213.744893,23.4715111 214.409943,23.0269987 C215.074993,22.5824863 215.407513,21.9625178 215.407513,21.1670745 C215.407513,20.7927483 215.323381,20.4769153 215.155115,20.219566 C214.98685,19.9622167 214.734455,19.743863 214.397924,19.5644983 C214.061393,19.3851337 213.644741,19.2252676 213.147957,19.0848953 C212.651173,18.9445229 212.074271,18.7963543 211.417234,18.6403851 C210.712121,18.4844158 210.099163,18.3284489 209.578341,18.1724796 C209.057519,18.0165104 208.628848,17.8293501 208.292317,17.6109931 C207.955786,17.3926361 207.703391,17.1274923 207.535126,16.8155538 C207.36686,16.5036153 207.282729,16.1058996 207.282729,15.6223949 C207.282729,15.0141148 207.402917,14.4838273 207.643296,14.0315164 C207.883675,13.5792055 208.216195,13.2048849 208.640866,12.9085433 C209.065536,12.6122017 209.5543,12.3899488 210.107173,12.241778 C210.660045,12.0936072 211.248966,12.019523 211.873953,12.019523 C212.851496,12.019523 213.716849,12.179389 214.470038,12.499126 C215.223226,12.818863 215.808141,13.2282762 216.224799,13.7273778 L215.55174,14.3590502 C215.135082,13.8911424 214.594236,13.5402168 213.929187,13.3062629 C213.264137,13.072309 212.555028,12.9553339 211.801839,12.9553339 C211.337106,12.9553339 210.900423,13.0021239 210.491778,13.0957055 C210.083133,13.189287 209.726575,13.3374556 209.422095,13.5402157 C209.117614,13.7429757 208.877238,14.0042203 208.70096,14.3239573 C208.524682,14.6436943 208.436544,15.0219141 208.436544,15.458628 C208.436544,15.8173573 208.496638,16.1058961 208.616828,16.3242531 C208.737018,16.5426101 208.929318,16.7297704 209.193736,16.8857396 C209.458153,17.0417089 209.798685,17.17818 210.215343,17.2951569 C210.632001,17.4121339 211.128777,17.5408066 211.705688,17.6811789 C212.490927,17.868342 213.188017,18.047704 213.796978,18.2192702 C214.40594,18.3908364 214.914735,18.6013917 215.32338,18.8509425 C215.732025,19.1004934 216.044514,19.3968305 216.260855,19.7399629 C216.477197,20.0830953 216.585366,20.5198027 216.585366,21.0500982 C216.585366,22.141883 216.148683,23.0113986 215.275305,23.658671 C214.401926,24.3059435 213.236103,24.6295749 211.777801,24.6295749 L211.777801,24.6295749 Z" id="instantsearch.js" fill="#FFFFFF" sketch:type="MSShapeGroup"></path>
                <g id="Path">
                    <use fill="#00B7E5" fill-rule="evenodd" sketch:type="MSShapeGroup" xlink:href="#path-1"></use>
                    <use fill="none" xlink:href="#path-1"></use>
                </g>
            </g>
        </g>
    </g>
</svg>