<?xml version="1.0" encoding="UTF-8"?>
<svg width="209px" height="54px" viewBox="0 0 209 54" version="1.1" xmlns="http://www.w3.org/2000/svg" xmlns:xlink="http://www.w3.org/1999/xlink">
    <!-- Generator: Sketch 41.2 (35397) - http://www.bohemiancoding.com/sketch -->
    <title>powered-by</title>
    <desc>Created with Sketch.</desc>
    <defs></defs>
    <g id="Styleguide" stroke="none" stroke-width="1" fill="none" fill-rule="evenodd">
        <g id="logos" transform="translate(-663.000000, -303.000000)" fill="#FFFFFF">
            <g id="Group-3-Copy" transform="translate(609.000000, 243.000000)">
                <g id="powered-by" transform="translate(54.340694, 60.350877)">
                    <path d="M6.77921298,0 L44.7053169,0 C48.4385701,0 51.4845299,3.12055852 51.4845299,6.98104329 L51.4845299,46.0523662 C51.4845299,49.8967656 48.4541904,53.0334095 44.7053169,53.0334095 L6.77921298,53.0334095 C3.04595975,53.0334095 5.49388713e-16,49.912851 5.49388713e-16,46.0523662 L5.49388713e-16,6.96495794 C5.49388713e-16,3.12055852 3.03033944,0 6.77921298,0 Z M26.3358366,13.3990992 C18.3069991,13.3990992 11.7933313,20.1066915 11.7933313,28.3906484 C11.7933313,36.6746053 18.3069991,43.3661122 26.3358366,43.3661122 C34.3646741,43.3661122 40.8783418,36.6585199 40.8783418,28.3745631 C40.8783418,20.0906062 34.3802944,13.3990992 26.3358366,13.3990992 Z M26.3358366,38.9426401 C20.6812857,38.9426401 16.0889156,34.2135463 16.0889156,28.3906484 C16.0889156,22.5677505 20.6812857,17.8386567 26.3358366,17.8386567 C31.9903875,17.8386567 36.5827576,22.5677505 36.5827576,28.3906484 C36.5827576,34.2135463 32.0060078,38.9426401 26.3358366,38.9426401 Z M26.3358366,19.994094 L26.3358366,27.8598317 C26.3358366,28.0850267 26.5701412,28.2458802 26.7732052,28.1332828 L33.5524181,24.5140783 C33.7086212,24.4336515 33.7554821,24.2406273 33.6773806,24.0797737 C32.271553,21.5382879 29.6629619,19.8010698 26.6482427,19.6884723 C26.4920397,19.6884723 26.3358366,19.8171551 26.3358366,19.994094 Z M16.8386903,14.2194522 L15.9483328,13.3025871 C15.0735957,12.4018073 13.6677681,12.4018073 12.7930309,13.3025871 L11.7308501,14.3963911 C10.8561129,15.2971709 10.8561129,16.7448527 11.7308501,17.6456325 L12.6055873,18.5464122 C12.74617,18.6911804 12.949234,18.6590097 13.0741965,18.5142415 C13.5896666,17.7904006 14.1519976,17.0987305 14.7768099,16.4553163 C15.4172424,15.7958168 16.0732953,15.2167441 16.7918294,14.6859275 C16.9480324,14.5894154 16.9636527,14.3642204 16.8386903,14.2194522 Z M31.10003,11.83882 L31.10003,10.021175 C31.10003,8.75043214 30.1003304,7.72096954 28.8663262,7.72096954 L23.6647642,7.72096954 C22.43076,7.72096954 21.4310604,8.75043214 21.4310604,10.021175 L21.4310604,11.887076 C21.4310604,12.0961856 21.6185041,12.2409538 21.821568,12.1926977 C23.2742565,11.7583932 24.8050466,11.5331982 26.3514569,11.5331982 C27.835386,11.5331982 29.3036948,11.7423078 30.7251427,12.1444417 C30.9125864,12.1926977 31.10003,12.0479295 31.10003,11.83882 Z M128.726945,40.5672608 C128.726945,44.8620501 127.664764,47.998694 125.524782,49.9932778 C123.3848,51.9878616 120.120156,52.9851535 115.71523,52.9851535 C114.106338,52.9851535 110.763593,52.6634464 108.09252,52.052203 L109.0766,47.0657435 C111.310303,47.5483041 114.262541,47.6769869 115.808952,47.6769869 C118.26134,47.6769869 120.010814,47.1622556 121.057375,46.132793 C122.103935,45.1033304 122.619405,43.5752218 122.619405,41.5484673 L122.619405,40.5190047 C122.010213,40.8246264 121.213578,41.1302481 120.229498,41.4519552 C119.245419,41.7575769 118.105137,41.9184304 116.824272,41.9184304 C115.137278,41.9184304 113.606488,41.6449794 112.216281,41.0980774 C110.826074,40.5511754 109.62331,39.7469078 108.639231,38.6852745 C107.655152,37.6236411 106.874136,36.2885568 106.327426,34.6961069 C105.780715,33.1036569 105.499549,30.2565494 105.499549,28.1654535 C105.499549,26.2030404 105.796335,23.7419813 106.374287,22.1012753 C106.967858,20.4605693 107.811355,19.0450582 108.951637,17.8708274 C110.076299,16.6965966 111.450886,15.7958168 113.059778,15.1363174 C114.668669,14.4768179 116.558726,14.0585987 118.604986,14.0585987 C120.588765,14.0585987 122.416341,14.3159644 124.197056,14.6215861 C125.977771,14.9272078 127.492941,15.2489148 128.726945,15.6027926 L128.726945,40.5672608 L128.726945,40.5672608 Z M157.718234,28.1493681 C157.718234,30.2726347 157.421448,31.88117 156.812256,33.6344735 C156.203064,35.387777 155.343947,36.8837149 154.234905,38.1222871 C153.125864,39.3608593 151.798138,40.3259805 150.236107,41.0015653 C148.674076,41.6771501 146.268549,42.0631986 145.065786,42.0631986 C143.863022,42.0471133 141.473115,41.6932355 139.926705,41.0015653 C138.380294,40.3098951 137.052568,39.3608593 135.943527,38.1222871 C134.834485,36.8837149 133.975368,35.387777 133.350556,33.6344735 C132.725743,31.88117 132.413337,30.2726347 132.413337,28.1493681 C132.413337,26.0261015 132.694503,23.9832616 133.319315,22.2460435 C133.944127,20.5088253 134.818865,19.0289728 135.943527,17.7904006 C137.068189,16.5518284 138.411535,15.6027926 139.942325,14.9272078 C141.488735,14.2516229 143.191349,13.9299159 145.034545,13.9299159 C146.877741,13.9299159 148.580354,14.2677083 150.142385,14.9272078 C151.704416,15.6027926 153.047762,16.5518284 154.141184,17.7904006 C155.250225,19.0289728 156.109342,20.5088253 156.734154,22.2460435 C157.390207,23.9832616 157.718234,26.0261015 157.718234,28.1493681 Z M171.323521,42.0631986 C161.310904,42.1114547 161.310904,33.7309857 161.310904,32.3959014 L161.295284,2.67016863 L167.402824,1.67287673 L167.402824,31.2055852 C167.402824,31.9615968 167.402824,36.7550321 171.323521,36.7711174 L171.323521,42.0631986 Z M182.085912,42.0631986 L175.947131,42.0631986 L175.947131,14.9111224 L182.085912,13.9138305 L182.085912,42.0631986 Z M179.008711,10.9380402 C181.054971,10.9380402 182.726344,9.23299274 182.726344,7.12581147 C182.726344,5.0186302 181.070592,3.31358276 179.008711,3.31358276 C176.946831,3.31358276 175.291078,5.0186302 175.291078,7.12581147 C175.291078,9.23299274 176.962451,10.9380402 179.008711,10.9380402 Z M197.346951,13.9299159 C199.361971,13.9299159 201.064584,14.1872815 202.439171,14.7020128 C203.813758,15.2167441 204.9228,15.940585 205.735056,16.8574502 C206.547312,17.7743153 207.125263,19.0289728 207.46891,20.3479718 C207.828177,21.6669708 208,23.1146526 208,24.7071025 L208,40.8889678 C207.062782,41.0980774 205.641334,41.3393577 203.735656,41.6288941 C201.829979,41.9184304 199.689997,42.0631986 197.31571,42.0631986 C195.738059,42.0631986 194.285371,41.9023451 192.988886,41.5967234 C191.67678,41.2911017 190.567738,40.7924557 189.63052,40.1007855 C188.708922,39.4091153 187.990388,38.5244209 187.459297,37.4306169 C186.943827,36.3368129 186.678282,34.792619 186.678282,33.1840837 C186.678282,31.6398898 186.975068,30.6586832 187.553019,29.5970499 C188.146591,28.5354166 188.943226,27.6668075 189.942926,26.9912227 C190.958246,26.3156378 192.114148,25.8330772 193.441874,25.5435409 C194.7696,25.2540045 196.159808,25.1092363 197.596876,25.1092363 C198.268549,25.1092363 198.971463,25.1574924 199.721238,25.2379192 C200.471012,25.3183459 201.252028,25.4631141 202.095524,25.6722237 L202.095524,24.6427611 C202.095524,23.9189202 202.017423,23.22725 201.845599,22.5838359 C201.673776,21.9243364 201.37699,21.3613491 200.970862,20.8627031 C200.549114,20.3640572 200.002403,19.9780087 199.31511,19.7045577 C198.627816,19.4311067 197.753079,19.2219971 196.706518,19.2219971 C195.300691,19.2219971 194.019826,19.398936 192.848303,19.6080456 C191.67678,19.8171551 190.708321,20.0584354 189.974166,20.3318864 L189.240012,15.1684881 C190.005407,14.8950371 191.145689,14.6215861 192.613998,14.3481351 C194.082307,14.0746841 195.659958,13.9299159 197.346951,13.9299159 Z M77.2424151,14.0907694 C79.2574347,14.0907694 80.9600481,14.3481351 82.334635,14.8628664 C83.709222,15.3775977 84.8182637,16.1014386 85.6305197,17.0183037 C86.4583959,17.9512542 87.0207269,19.1898264 87.3643737,20.5088253 C87.7236407,21.8278243 87.8954641,23.2755061 87.8954641,24.8679561 L87.8954641,41.0498214 C86.9582457,41.258931 85.5367978,41.5002113 83.6311205,41.7897476 C81.7254431,42.079284 79.5854611,42.2240522 77.2111745,42.2240522 C75.6335236,42.2240522 74.1808351,42.0631986 72.8843497,41.7575769 C71.5722439,41.4519552 70.4632022,40.9533093 69.5259838,40.2616391 C68.6043857,39.5699689 67.8858516,38.6852745 67.3547612,37.5914704 C66.8392911,36.4976664 66.5737459,34.9534725 66.5737459,33.3449372 C66.5737459,31.8007433 66.8705317,30.8195367 67.448483,29.7579034 C68.0420547,28.6962701 68.8386903,27.827661 69.8383899,27.1520762 C70.8537098,26.4764914 72.0096125,25.9939308 73.3373385,25.7043944 C74.6650646,25.4148581 76.0552719,25.2700899 77.49234,25.2700899 C78.1640132,25.2700899 78.866927,25.3183459 79.6167017,25.3987727 C80.3508561,25.4791995 81.1474917,25.6239677 81.9909883,25.8330772 L81.9909883,24.8036146 C81.9909883,24.0797737 81.9128868,23.3881036 81.7410634,22.7446894 C81.56924,22.0851899 81.2724542,21.5222026 80.8663262,21.0235566 C80.444578,20.5249107 79.8978672,20.1388622 79.2105737,19.8654112 C78.5232803,19.5919602 77.6485431,19.3828506 76.6019826,19.3828506 C75.196155,19.3828506 73.9152899,19.5597895 72.7437669,19.7688991 C71.5722439,19.9780087 70.6037849,20.219289 69.8696305,20.49274 L69.1354761,15.3293416 C69.9008711,15.0558906 71.0411535,14.7824396 72.5094623,14.5089886 C73.9777711,14.2194522 75.555422,14.0907694 77.2424151,14.0907694 Z M102.531691,42.0631986 C92.5190748,42.1114547 92.5190748,33.7309857 92.5190748,32.3959014 L92.5034545,2.67016863 L98.6109943,1.67287673 L98.6109943,31.2055852 C98.6109943,31.9615968 98.6109943,36.7550321 102.531691,36.7711174 L102.531691,42.0631986 L102.531691,42.0631986 Z M197.862421,36.7550321 C199.736858,36.7550321 201.127065,36.6424346 202.095524,36.4494104 L202.095524,30.0474398 C201.751877,29.9509277 201.267648,29.8383302 200.627215,29.7418181 C199.986783,29.645306 199.283869,29.5809645 198.502854,29.5809645 C197.831181,29.5809645 197.143887,29.6292206 196.456594,29.7418181 C195.7693,29.8383302 195.144488,30.0313544 194.597777,30.3048054 C194.051066,30.5782564 193.598078,30.9643049 193.270051,31.4629509 C192.926404,31.9615968 192.770201,32.2511332 192.770201,33.0071448 C192.770201,34.4869973 193.270051,35.339521 194.176029,35.9025083 C195.097627,36.4815811 196.316011,36.7550321 197.862421,36.7550321 Z M151.470111,28.1654535 C151.470111,25.4470288 150.89216,23.178994 149.767498,21.6026294 C148.642836,20.0101794 147.065185,19.2219971 145.050165,19.2219971 C143.035146,19.2219971 141.457495,20.0101794 140.332833,21.6026294 C139.208171,23.1950793 138.66146,25.4470288 138.66146,28.1654535 C138.66146,30.9160489 139.223791,32.7658645 140.348453,34.3583144 C141.473115,35.9668498 143.050766,36.7550321 145.065786,36.7550321 C147.080805,36.7550321 148.658456,35.9507644 149.783118,34.3583144 C150.90778,32.7497791 151.470111,30.9160489 151.470111,28.1654535 Z M111.747672,28.1493681 C111.747672,30.787366 112.310003,33.7149003 113.434665,34.9373872 C114.559327,36.159874 116.012016,36.7711174 117.792731,36.7711174 C118.76119,36.7711174 119.682788,36.6263492 120.541904,36.3528982 C121.401021,36.0794472 122.088315,35.7577402 122.635026,35.3716917 L122.635026,19.7528137 C122.197657,19.6563016 120.370081,19.2702531 118.604986,19.2219971 C116.386903,19.1576557 114.69991,20.0906062 113.512767,21.586544 C112.341244,23.0824818 111.747672,25.7043944 111.747672,28.1493681 Z M77.7735056,36.931971 C79.6479423,36.931971 81.0381496,36.8193735 82.0066086,36.6263492 L82.0066086,30.2243787 C81.6629619,30.1278665 81.1787324,30.0152691 80.5382998,29.918757 C79.8978672,29.8222448 79.1949534,29.7579034 78.4139381,29.7579034 C77.7422649,29.7579034 77.0549715,29.8061595 76.367678,29.918757 C75.6803845,30.0152691 75.0555722,30.2082933 74.5088615,30.4817443 C73.9621508,30.7551953 73.5091619,31.1412438 73.1811355,31.6398898 C72.8374887,32.1385357 72.6812857,32.4280721 72.6812857,33.1840837 C72.6812857,34.6639362 73.1811355,35.5164599 74.0871132,36.0794472 C74.993091,36.6424346 76.2270952,36.931971 77.7735056,36.931971 Z" id="Combined-Shape"></path>
                </g>
            </g>
        </g>
    </g>
</svg>