<?xml version="1.0" encoding="UTF-8" standalone="no"?>
<svg width="120px" height="19px" viewBox="0 0 120 19" version="1.1" xmlns="http://www.w3.org/2000/svg" xmlns:xlink="http://www.w3.org/1999/xlink">
    <!-- Generator: Sketch 3.7.2 (28276) - http://www.bohemiancoding.com/sketch -->
    <title>powered-by-algolia</title>
    <desc>Created with Sketch.</desc>
    <defs></defs>
    <g id="Page-1" stroke="none" stroke-width="1" fill="none" fill-rule="evenodd">
        <g id="powered-by-algolia" fill="#FFFFFF">
            <g id="Group" transform="translate(62.000000, 0.000000)">
                <g id="logo-3">
                    <path d="M34.7283845,7.24991292 L33.9649736,9.94513181 L36.4236366,8.60257906 C36.0665641,7.9502653 35.4572671,7.45702676 34.7283845,7.24991292 Z" id="Fill-1"></path>
                    <path d="M30.0420836,5.04083446 C29.6626294,4.67917883 29.0470486,4.67941036 28.6675943,5.04083446 L28.4958438,5.20452878 C28.1163895,5.56595287 28.1166325,6.15265925 28.4958438,6.51431488 L28.678769,6.68842822 C29.0681834,6.09292356 29.5640004,5.56734208 30.1402268,5.1346056 L30.0420836,5.04083446 Z" id="Fill-2"></path>
                    <path d="M35.6295048,4.19731801 C35.6309154,4.1763363 35.6353822,4.15633048 35.6353822,4.13486082 L35.6353822,3.64691407 C35.6351471,3.10822085 35.2143278,2.67126452 34.695004,2.67102055 L33.0491072,2.67102055 C32.5300184,2.67126452 32.1089641,3.10797687 32.1089641,3.64691407 L32.1089641,4.12632175 C32.6329899,3.97408237 33.1842865,3.89088744 33.7546259,3.89088744 C34.4084238,3.89088744 35.038242,3.99921162 35.6295048,4.19731801" id="Fill-3"></path>
                    <path d="M33.9649736,6.29597701 C36.0116881,6.29597701 37.6769926,8.007815 37.6769926,10.1117207 C37.6769926,12.2156263 36.0116881,13.9274643 33.9649736,13.9274643 C31.9182592,13.9274643 30.2529546,12.2156263 30.2529546,10.1117207 C30.2529546,8.007815 31.9182592,6.29597701 33.9649736,6.29597701 M28.7681471,10.1117207 C28.7681471,13.0617414 31.0944356,15.4537618 33.9649736,15.4537618 C36.8355116,15.4537618 39.1618002,13.0617414 39.1618002,10.1117207 C39.1618002,7.16169987 36.8355116,4.76967955 33.9649736,4.76967955 C31.0944356,4.76967955 28.7681471,7.16169987 28.7681471,10.1117207 Z" id="Fill-4"></path>
                    <path d="M10.2427627,15.2629746 C10.0279548,14.6763311 9.82623632,14.099823 9.63690614,13.5329675 C9.44757596,12.9661121 9.25170103,12.3893627 9.04998258,11.8029605 L3.10501494,11.8029605 L1.91223481,15.2629746 L0,15.2629746 C0.504646738,13.8295471 0.977972187,12.5037473 1.41997635,11.2850926 C1.86174677,10.0666792 2.29370006,8.91004317 2.71700495,7.81566712 C3.13960861,6.72080843 3.55940738,5.67517857 3.97593377,4.6782949 C4.39246017,3.68141122 4.82791958,2.69442158 5.28231201,1.71708464 L6.96735061,1.71708464 C7.42174304,2.69442158 7.85720245,3.68141122 8.27372885,4.6782949 C8.69025524,5.67517857 9.10982027,6.72080843 9.53289141,7.81566712 C9.95549507,8.91004317 10.3876821,10.0666792 10.8296863,11.2850926 C11.2714567,12.5037473 11.7447821,13.8295471 12.2496626,15.2629746 L10.2427627,15.2629746 L10.2427627,15.2629746 Z M8.51985808,10.2394627 C8.11571996,9.10551056 7.71508795,8.00799738 7.31772831,6.94571659 C6.91990119,5.88367712 6.50641343,4.86410957 6.07749876,3.88653132 C5.6354946,4.86410957 5.21592958,5.88367712 4.81856994,6.94571659 C4.42097656,8.00799738 4.02618808,9.10551056 3.63513945,10.2394627 L8.51985808,10.2394627 L8.51985808,10.2394627 Z" id="Fill-5"></path>
                    <path d="M16.6497815,15.2629746 C15.5917395,15.2370832 14.8414956,14.9978276 14.3985943,14.5444885 C13.9554652,14.0916289 13.7344702,13.3860885 13.7344702,12.4278673 L13.7344702,0.310696683 L15.4502571,0 L15.4502571,12.1365892 C15.4502571,12.4348197 15.4750906,12.6805481 15.524074,12.8747336 C15.5735131,13.0686792 15.6534814,13.2242673 15.7639789,13.3407786 C15.8747042,13.4570501 16.0225658,13.5445534 16.207108,13.602809 C16.391878,13.6610647 16.6192523,13.7097309 16.8896863,13.748568 L16.6497815,15.2629746" id="Fill-6"></path>
                    <path d="M24.9922494,14.0361238 C24.8433471,14.1397769 24.5542877,14.2716122 24.1255317,14.4328238 C23.6967758,14.5940354 23.1964454,14.6747607 22.6247707,14.6747607 C22.0406683,14.6747607 21.4906271,14.5777948 20.9751073,14.3845797 C20.4593573,14.1908869 20.0087378,13.8911527 19.6234788,13.4848994 C19.2382198,13.0784073 18.9337409,12.5725611 18.7100421,11.9664053 C18.4865735,11.3602496 18.3744939,10.6380216 18.3744939,9.7997211 C18.3744939,9.06459609 18.4798993,8.39061208 18.6914005,7.7780079 C18.9026716,7.16564256 19.2101423,6.63662959 19.6142731,6.19168551 C20.0179435,5.74674142 20.5118299,5.39852431 21.0961624,5.14703417 C21.6802648,4.89554404 22.3389334,4.76967955 23.0721683,4.76967955 C23.8799694,4.76967955 24.5851269,4.83129822 25.1881009,4.95358022 C25.7908449,5.07633989 26.297159,5.18906861 26.7072734,5.29200522 L26.7072734,14.2685074 C26.7072734,15.816139 26.3222445,16.937933 25.5517265,17.6343673 C24.7807482,18.3308015 23.6127736,18.6787798 22.0468822,18.6787798 C21.4379244,18.6787798 20.8632579,18.6276697 20.3226525,18.5244943 C19.7820471,18.4208412 19.312786,18.298798 18.9153294,18.1569318 L19.2322361,16.5899548 C19.5799818,16.7313433 20.0057459,16.8574466 20.5090682,16.9670705 C21.0123904,17.0764556 21.5373461,17.1316258 22.0841653,17.1316258 C23.1156652,17.1316258 23.8581058,16.9188265 24.3119474,16.492989 C24.7655588,16.0676291 24.9922494,15.3903014 24.9922494,14.4617225 L24.9922494,14.0361238 L24.9922494,14.0361238 Z M24.2746643,6.42383025 C23.9823829,6.37892982 23.5879182,6.35600195 23.09104,6.35600195 C22.1589617,6.35600195 21.4411464,6.6724544 20.9378242,7.30416514 C20.4345019,7.93611471 20.1829559,8.77417633 20.1829559,9.81882766 C20.1829559,10.3994283 20.25407,10.8959602 20.3972188,11.3086619 C20.5401374,11.7216025 20.7327669,12.0628935 20.9751073,12.3339679 C21.2174476,12.6045645 21.4970711,12.8047058 21.8139777,12.9334363 C22.1308843,13.0626444 22.4572268,13.1268902 22.7927749,13.1268902 C23.2523701,13.1268902 23.6749122,13.0593007 24.0601712,12.923883 C24.4452001,12.7882264 24.7499091,12.6305972 24.9736079,12.4500402 L24.9736079,6.56904013 C24.7993898,6.51745241 24.5667154,6.46920833 24.2746643,6.42383025 Z" id="Fill-7"></path>
                    <path d="M43.7475546,15.2629746 C42.6894376,15.2368434 41.9393021,14.9978276 41.4964648,14.5444885 C41.0536274,14.0916289 40.8322087,13.3858488 40.8322087,12.4278673 L40.8322087,0.310696683 L42.5484313,0 L42.5484313,12.1363495 C42.5484313,12.4345799 42.5728055,12.6803084 42.6220097,12.8744938 C42.6712138,13.0686792 42.7511706,13.2240276 42.8621077,13.3405388 C42.9725893,13.4570501 43.1199739,13.5445534 43.3047173,13.602809 C43.4892328,13.6610647 43.7165742,13.7094912 43.9874249,13.7483282 L43.7475546,15.2629746" id="Fill-8"></path>
                    <path d="M46.9568109,3.13502742 C46.6477051,3.13502742 46.3844267,3.02797845 46.1683506,2.81436056 C45.951587,2.60026262 45.8434343,2.3122385 45.8434343,1.94908807 C45.8434343,1.58617767 45.951587,1.29767351 46.1683506,1.08405561 C46.3844267,0.869957676 46.6477051,0.763148729 46.9568109,0.763148729 C47.2661458,0.763148729 47.5291951,0.869957676 47.7459586,1.08405561 C47.9620348,1.29767351 48.0706457,1.58617767 48.0706457,1.94908807 C48.0706457,2.3122385 47.9620348,2.60026262 47.7459586,2.81436056 C47.5291951,3.02797845 47.2661458,3.13502742 46.9568109,3.13502742 L46.9568109,3.13502742 Z M46.1032757,4.96254051 L47.8293645,4.96254051 L47.8293645,15.0721874 L46.1032757,15.0721874 L46.1032757,4.96254051 Z" id="Fill-9"></path>
                    <path d="M53.9640487,4.76967955 C54.6655133,4.76967955 55.2572582,4.86496923 55.7397471,5.05457871 C56.2217721,5.24443067 56.6100829,5.51284204 56.9044475,5.85957038 C57.1988121,6.20678366 57.4087412,6.61922065 57.5340027,7.09712384 C57.6590323,7.57502703 57.7218951,8.10190862 57.7218951,8.67801109 L57.7218951,15.0612071 C57.5715812,15.0873936 57.3616521,15.1232787 57.0925718,15.1691051 C56.8230275,15.2149314 56.5193842,15.2573632 56.1811781,15.2966429 C55.8429719,15.3359226 55.4764659,15.3718078 55.082124,15.4045409 C54.6873181,15.4370315 54.2957598,15.4537618 53.907681,15.4537618 C53.3562982,15.4537618 52.8492209,15.3948422 52.3857532,15.277003 C51.9222855,15.1591639 51.5214486,14.972464 51.1832424,14.7173884 C50.8450362,14.4620702 50.581987,14.1250406 50.3940946,13.7058145 C50.2062023,13.2868309 50.1122562,12.7827412 50.1122562,12.1935455 C50.1122562,11.6307787 50.221744,11.1460865 50.4411837,10.7401961 C50.6599275,10.3345482 50.9575396,10.0072172 51.3335562,9.75820323 C51.7093409,9.50967417 52.1477563,9.32612638 52.6488025,9.20828723 C53.1496167,9.09044809 53.6757152,9.03152852 54.2270979,9.03152852 C54.4022321,9.03152852 54.5840933,9.04122722 54.7719857,9.06086707 C54.959878,9.08050693 55.1384917,9.10717834 55.3073628,9.13966897 C55.4764659,9.17240206 55.6237642,9.20174061 55.7492577,9.22792709 C55.8742873,9.25435603 55.9619703,9.27399589 56.012075,9.28684666 L56.012075,8.77621038 C56.012075,8.47506591 55.9807596,8.17731598 55.9181288,7.88247565 C55.8552661,7.5878778 55.7425307,7.32625551 55.5799226,7.09712384 C55.4170826,6.86799218 55.1946274,6.68468684 54.9127889,6.54696538 C54.6309504,6.40972885 54.2644444,6.34086811 53.8137348,6.34086811 C53.2372998,6.34086811 52.73347,6.38354237 52.3010857,6.46864842 C51.8691653,6.55375446 51.5465009,6.64225505 51.3335562,6.73366525 L51.1268747,5.22139626 C51.3523455,5.11689283 51.7283621,5.015299 52.2542286,4.91709972 C52.7803271,4.81865796 53.3502671,4.76967955 53.9640487,4.76967955 L53.9640487,4.76967955 Z M54.1143625,13.9218529 C54.5277256,13.9218529 54.8942317,13.9119117 55.2136486,13.8922719 C55.5330655,13.872632 55.7991303,13.8369893 56.012075,13.7843739 L56.012075,10.7401961 C55.8865815,10.6749724 55.6831474,10.6192049 55.4015409,10.5733785 C55.1194705,10.5275522 54.7782487,10.5042753 54.3774118,10.5042753 C54.1143625,10.5042753 53.8355396,10.5241577 53.541407,10.5634374 C53.2470423,10.6027171 52.977498,10.6846711 52.73347,10.8088143 C52.488978,10.9334426 52.285312,11.1034122 52.122704,11.3196931 C51.959864,11.5354891 51.878444,11.8203882 51.878444,12.1739056 C51.878444,12.8285675 52.0786305,13.2834363 52.4796994,13.5387545 C52.8805363,13.7943151 53.425424,13.9218529 54.1143625,13.9218529 L54.1143625,13.9218529 Z" id="Fill-10"></path>
                </g>
            </g>
            <path d="M5.95566441,12.0004883 C5.95566441,12.6860386 5.70599243,13.2118309 5.20664097,13.5778809 C4.70728952,13.9439309 3.9921274,14.1269531 3.06113316,14.1269531 C2.12590713,14.1269531 1.37477532,13.9851902 0.807715192,13.7016602 L0.807715192,12.4130859 C1.63291463,12.7939472 2.40097336,12.984375 3.11191441,12.984375 C4.03021327,12.984375 4.48935582,12.7071968 4.48935582,12.152832 C4.48935582,11.9750968 4.43857508,11.8269863 4.33701207,11.7084961 C4.23544906,11.5900059 4.06829578,11.4672858 3.83554722,11.340332 C3.60279866,11.2133783 3.27907143,11.0694995 2.86435582,10.9086914 C2.05608355,10.5955388 1.50913264,10.2823909 1.22348668,9.96923828 C0.937840717,9.65608567 0.79501988,9.24983974 0.79501988,8.75048828 C0.79501988,8.14957382 1.03728634,7.68302575 1.52182652,7.35083008 C2.0063667,7.01863441 2.66545842,6.85253906 3.49912144,6.85253906 C4.32432088,6.85253906 5.10507479,7.01969234 5.8414066,7.35400391 L5.35898472,8.47753906 C4.60149396,8.16438646 3.96461882,8.0078125 3.44834019,8.0078125 C2.66122688,8.0078125 2.26767613,8.23209411 2.26767613,8.68066406 C2.26767613,8.90071725 2.37029555,9.0869133 2.57553746,9.23925781 C2.78077937,9.39160232 3.22828466,9.60107289 3.91806675,9.86767578 C4.49782226,10.0919608 4.91887925,10.2971996 5.18125035,10.4833984 C5.44362145,10.6695973 5.63828096,10.8843575 5.76523472,11.1276855 C5.89218848,11.3710136 5.95566441,11.6619449 5.95566441,12.0004883 L5.95566441,12.0004883 Z M10.308887,14.1269531 C9.21708466,14.1269531 8.36333343,13.8085156 7.74760769,13.1716309 C7.13188196,12.5347462 6.82402371,11.6577204 6.82402371,10.5405273 C6.82402371,9.39371171 7.10966538,8.49235354 7.6809573,7.83642578 C8.25224922,7.18049802 9.03723486,6.85253906 10.0359378,6.85253906 C10.9627002,6.85253906 11.6947893,7.13394901 12.2322268,7.69677734 C12.7696644,8.25960568 13.0383792,9.034012 13.0383792,10.0200195 L13.0383792,10.8261719 L8.36015652,10.8261719 C8.38131548,11.5074904 8.56539567,12.0311668 8.91240261,12.3972168 C9.25940956,12.7632668 9.7481742,12.9462891 10.3787112,12.9462891 C10.7934268,12.9462891 11.1795721,12.9071456 11.5371585,12.8288574 C11.8947449,12.7505693 12.2787743,12.6204436 12.6892581,12.4384766 L12.6892581,13.6508789 C12.325324,13.8243824 11.9571636,13.9471025 11.5847659,14.019043 C11.2123682,14.0909834 10.7870795,14.1269531 10.308887,14.1269531 L10.308887,14.1269531 Z M10.0359378,7.98242188 C9.56197707,7.98242188 9.18217943,8.13264824 8.89653347,8.43310547 C8.61088751,8.7335627 8.44056044,9.1715466 8.38554715,9.74707031 L11.5720706,9.74707031 C11.563607,9.16731481 11.42396,8.72827298 11.1531253,8.42993164 C10.8822906,8.13159031 10.5098985,7.98242188 10.0359378,7.98242188 L10.0359378,7.98242188 Z M18.8007814,14 L18.5024416,13.0224609 L18.4516603,13.0224609 C18.113117,13.4498719 17.7724628,13.7408033 17.4296877,13.8952637 C17.0869125,14.0497241 16.6468128,14.1269531 16.1093752,14.1269531 C15.4195931,14.1269531 14.8811056,13.9407571 14.4938967,13.5683594 C14.1066877,13.1959617 13.9130861,12.6691115 13.9130861,11.987793 C13.9130861,11.2641565 14.1818009,10.7182636 14.7192385,10.3500977 C15.2566761,9.98193175 16.0755155,9.78092465 17.1757814,9.74707031 L18.3881838,9.70898438 L18.3881838,9.33447266 C18.3881838,8.88590271 18.2834485,8.55053822 18.0739748,8.32836914 C17.8645011,8.10620006 17.5397159,7.99511719 17.0996096,7.99511719 C16.7399072,7.99511719 16.3950214,8.04801379 16.0649416,8.15380859 C15.7348618,8.25960339 15.4174822,8.38443938 15.1127932,8.52832031 L14.6303713,7.46191406 C15.0112326,7.26301984 15.4280578,7.11173554 15.8808596,7.00805664 C16.3336613,6.90437774 16.7610659,6.85253906 17.1630861,6.85253906 C18.0559942,6.85253906 18.729897,7.04719857 19.1848146,7.43652344 C19.6397323,7.8258483 19.8671877,8.43733307 19.8671877,9.27099609 L19.8671877,14 L18.8007814,14 Z M16.5791018,12.984375 C17.1207711,12.984375 17.5555812,12.8330907 17.8835451,12.5305176 C18.211509,12.2279445 18.3754885,11.8037137 18.3754885,11.2578125 L18.3754885,10.6484375 L17.4741213,10.6865234 C16.7716438,10.7119142 16.2606626,10.8293447 15.9411623,11.0388184 C15.621662,11.2482921 15.4619143,11.5688455 15.4619143,12.0004883 C15.4619143,12.3136409 15.5550123,12.5559073 15.7412111,12.7272949 C15.92741,12.8986825 16.2067041,12.984375 16.5791018,12.984375 L16.5791018,12.984375 Z M25.185254,6.85253906 C25.4857113,6.85253906 25.7332674,6.87369771 25.9279298,6.91601562 L25.7819337,8.30615234 C25.5703441,8.25537084 25.3502942,8.22998047 25.1217775,8.22998047 C24.5250948,8.22998047 24.0416198,8.42463998 23.671338,8.81396484 C23.3010562,9.20328971 23.1159181,9.70898126 23.1159181,10.3310547 L23.1159181,14 L21.6242189,14 L21.6242189,6.97949219 L22.7921876,6.97949219 L22.988965,8.21728516 L23.0651368,8.21728516 C23.2978854,7.79833775 23.6015119,7.46614706 23.9760255,7.22070312 C24.3505391,6.97525919 24.7536112,6.85253906 25.185254,6.85253906 L25.185254,6.85253906 Z M29.475,14.1269531 C28.4128202,14.1269531 27.605618,13.816979 27.0533692,13.1970215 C26.5011203,12.577064 26.225,11.687343 26.225,10.527832 C26.225,9.34716207 26.5138155,8.4394563 27.0914551,7.8046875 C27.6690947,7.1699187 28.5038032,6.85253906 29.5956055,6.85253906 C30.3361691,6.85253906 31.0026663,6.99007024 31.5951172,7.26513672 L31.1444336,8.46484375 C30.5138966,8.21939981 29.993394,8.09667969 29.5829102,8.09667969 C28.3683859,8.09667969 27.7611329,8.90282397 27.7611329,10.5151367 C27.7611329,11.30225 27.9124171,11.8936341 28.2149903,12.2893066 C28.5175634,12.6849792 28.960837,12.8828125 29.5448243,12.8828125 C30.2092156,12.8828125 30.8376273,12.7177751 31.4300782,12.3876953 L31.4300782,13.6889648 C31.1634753,13.8455411 30.8788915,13.957682 30.5763184,14.0253906 C30.2737453,14.0930993 29.9066428,14.1269531 29.475,14.1269531 L29.475,14.1269531 Z M38.9317382,14 L37.4336914,14 L37.4336914,9.68359375 C37.4336914,9.14192438 37.3247244,8.7377943 37.1067871,8.47119141 C36.8888498,8.20458851 36.542906,8.07128906 36.0689453,8.07128906 C35.4426401,8.07128906 34.9824396,8.25854305 34.68833,8.63305664 C34.3942205,9.00757023 34.2471679,9.63492398 34.2471679,10.5151367 L34.2471679,14 L32.7554687,14 L32.7554687,4.12304688 L34.2471679,4.12304688 L34.2471679,6.63037109 C34.2471679,7.03239133 34.2217776,7.46191178 34.1709961,7.91894531 L34.2662109,7.91894531 C34.4693369,7.58040195 34.7518048,7.31803479 35.113623,7.13183594 C35.4754412,6.94563709 35.8975561,6.85253906 36.3799804,6.85253906 C38.0811608,6.85253906 38.9317382,7.70946409 38.9317382,9.42333984 L38.9317382,14 Z M47.3208006,6.85253906 C48.1967815,6.85253906 48.8791478,7.1699187 49.3679197,7.8046875 C49.8566917,8.4394563 50.101074,9.33023515 50.101074,10.4770508 C50.101074,11.6280982 49.8535179,12.5241667 49.3583982,13.1652832 C48.8632786,13.8063997 48.1756227,14.1269531 47.29541,14.1269531 C46.4067336,14.1269531 45.7169619,13.8074576 45.226074,13.168457 L45.1245115,13.168457 L44.8515623,14 L43.7343748,14 L43.7343748,4.12304688 L45.226074,4.12304688 L45.226074,6.47167969 C45.226074,6.64518316 45.2176106,6.9033186 45.2006834,7.24609375 C45.1837562,7.5888689 45.171061,7.80680292 45.1625975,7.89990234 L45.226074,7.89990234 C45.7000347,7.20165667 46.3982699,6.85253906 47.3208006,6.85253906 L47.3208006,6.85253906 Z M46.9335936,8.07128906 C46.3326791,8.07128906 45.8999849,8.24796373 45.6354979,8.60131836 C45.3710109,8.95467299 45.2345376,9.54605705 45.226074,10.3754883 L45.226074,10.4770508 C45.226074,11.3318728 45.3614893,11.9507631 45.632324,12.3337402 C45.9031587,12.7167174 46.3453743,12.9082031 46.9589842,12.9082031 C47.4879582,12.9082031 47.8889145,12.6987326 48.161865,12.2797852 C48.4348156,11.8608377 48.5712889,11.2557006 48.5712889,10.4643555 C48.5712889,8.86896989 48.0253959,8.07128906 46.9335936,8.07128906 L46.9335936,8.07128906 Z M50.1823239,6.97949219 L51.8073239,6.97949219 L53.2355466,10.9594727 C53.451368,11.5265328 53.5952468,12.0597306 53.6671872,12.559082 L53.7179685,12.559082 C53.7560546,12.3263335 53.8258781,12.0438656 53.9274411,11.7116699 C54.0290041,11.3794743 54.5664337,9.80209745 55.5397458,6.97949219 L57.1520505,6.97949219 L54.1496091,14.9331055 C53.6037079,16.3930737 52.6938863,17.1230469 51.4201169,17.1230469 C51.0900371,17.1230469 50.7684258,17.0870772 50.4552732,17.0151367 L50.4552732,15.8344727 C50.6795581,15.8852542 50.9355777,15.9106445 51.2233396,15.9106445 C51.9427442,15.9106445 52.4484358,15.4938193 52.7404294,14.6601562 L53.0006833,14 L50.1823239,6.97949219 Z" id="search-by" opacity="0.563432836"></path>
        </g>
    </g>
</svg>