<?xml version="1.0" encoding="UTF-8" standalone="no"?>
<svg width="63px" height="63px" viewBox="0 0 63 63" version="1.1" xmlns="http://www.w3.org/2000/svg" xmlns:xlink="http://www.w3.org/1999/xlink">
    <!-- Generator: Sketch 3.7.2 (28276) - http://www.bohemiancoding.com/sketch -->
    <title>rare</title>
    <desc>Created with Sketch.</desc>
    <defs>
        <linearGradient x1="28.7062122%" y1="13.3647303%" x2="68.8382056%" y2="91.3778982%" id="linearGradient-1">
            <stop stop-color="#364B9F" offset="0%"></stop>
            <stop stop-color="#4799E9" offset="100%"></stop>
        </linearGradient>
        <linearGradient x1="78.5779688%" y1="97.1718464%" x2="6.50598038%" y2="22.6638208%" id="linearGradient-2">
            <stop stop-color="#FFFFFF" offset="0%"></stop>
            <stop stop-color="#1577FF" offset="100%"></stop>
        </linearGradient>
    </defs>
    <g id="Page-1" stroke="none" stroke-width="1" fill="none" fill-rule="evenodd">
        <g id="Desktop-HD" transform="translate(-192.000000, -341.000000)">
            <g id="rare" transform="translate(193.794956, 343.000000)">
                <path d="M29.6135534,59.2245106 C45.9686674,59.2245106 59.2271068,45.9666523 59.2271068,29.6122553 C59.2271068,13.2578583 45.9686674,0 29.6135534,0 C13.2584395,0 0,13.2578583 0,29.6122553 C0,45.9666523 13.2584395,59.2245106 29.6135534,59.2245106 Z" id="Oval-1" stroke="#000000" stroke-width="3" fill="url(#linearGradient-1)"></path>
                <path d="M9.72475562,11.3066891 C5.20753252,16.1359154 2.44225492,22.6242664 2.44225492,29.7584542 C2.44225492,44.2158179 13.7983201,56.0209468 28.0773842,56.7411444 C15.7771393,51.1786816 7.2186345,38.8008148 7.2186345,24.4240897 C7.2186345,19.7902004 8.10777272,15.3639713 9.72475756,11.306687 Z" id="Combined-Shape" fill="#4799EA"></path>
                <path d="M44.7923896,51.7181303 C51.9043453,46.8515756 56.5711372,38.6735504 56.5711372,29.4055854 C56.5711372,14.484232 44.4744601,2.38808511 29.5524526,2.38808511 C21.9652882,2.38808511 15.1085456,5.51525543 10.2009324,10.5509418 C10.7722396,10.5221459 11.3472974,10.5075745 11.9257586,10.5075745 C30.5408563,10.5075745 45.6313747,25.5974313 45.6313747,44.211713 C45.6313747,46.7918321 45.341446,49.3042376 44.7923896,51.7181303 Z" id="Combined-Shape" fill="#320C3B"></path>
                <path d="M32.8072258,56.2290574 C46.194527,54.6217785 56.5711372,43.2254224 56.5711372,29.4055854 C56.5711372,14.484232 44.4744601,2.38808511 29.5524526,2.38808511 C22.2383925,2.38808511 15.6031166,5.29417871 10.7384089,10.01463 C24.535177,16.1056792 34.1643336,29.9069454 34.1643336,45.9571231 C34.1643336,49.5111375 33.6921978,52.9548835 32.8072233,56.2290666 Z" id="Combined-Shape" fill="#320C3B" opacity="0.410331157"></path>
                <path d="M56.4748267,44.1451002 C53.1140546,45.6452791 49.390626,46.4792919 45.4723948,46.4792919 C30.5503873,46.4792919 18.4537102,34.383145 18.4537102,19.4617916 C18.4537102,12.9857363 20.7323242,7.04185649 24.5315859,2.38808511 C37.077613,7.72502209 56.4565005,11.1851788 56.474821,44.1451027 Z" id="Combined-Shape" fill="#286FC8" opacity="0.627973414" transform="translate(37.464268, 24.433688) rotate(-180.000000) translate(-37.464268, -24.433688) "></path>
                <path d="M56.4748211,45.7466384 C54.7752641,46.0815823 53.0184833,46.2571607 51.2206921,46.2571607 C36.2986846,46.2571607 24.2020075,34.1610138 24.2020075,19.2396604 C24.2020075,12.8661931 26.4090016,7.00817438 30.1004772,2.38808511 C18.8214094,36.6843971 51.0297511,2.61590619 54.2658799,38.1376715 C54.5477493,41.2316459 55.3101375,43.7494019 56.4748267,45.746648 Z" id="Combined-Shape" fill="url(#linearGradient-2)" opacity="0.374708489" transform="translate(40.338417, 24.322623) rotate(-180.000000) translate(-40.338417, -24.322623) "></path>
                <path d="M36.3004848,9.59179614 C37.3038154,14.022438 40.8798584,17.4768257 45.375606,18.3020237 C45.3561091,18.1729399 45.3381208,18.0416917 45.3216626,17.9082599 C43.9649962,6.90939362 39.3966223,9.0770078 36.3004848,9.59179614 Z" id="Combined-Shape" fill="#FFFFFF" transform="translate(40.838045, 13.688374) rotate(-180.000000) translate(-40.838045, -13.688374) "></path>
                <path d="M28.7554236,56.8241114 C28.8404409,55.9515582 28.8839496,55.0668436 28.8839496,54.1719676 C28.8839496,39.9082849 17.8301142,28.2262507 3.82110367,27.2241702 C17.3908618,30.676074 27.6294802,42.469815 28.7554236,56.8241114 Z" id="Combined-Shape" fill="#C6E5FF" transform="translate(16.352527, 42.024141) rotate(-180.000000) translate(-16.352527, -42.024141) "></path>
            </g>
        </g>
    </g>
</svg>