<?xml version="1.0" encoding="UTF-8" standalone="no"?>
<svg width="1186px" height="285px" viewBox="0 0 1186 285" version="1.1" xmlns="http://www.w3.org/2000/svg" xmlns:xlink="http://www.w3.org/1999/xlink">
    <!-- Generator: Sketch 3.8.2 (29753) - http://www.bohemiancoding.com/sketch -->
    <title>searchstone</title>
    <desc>Created with Sketch.</desc>
    <defs>
        <linearGradient x1="40.0228143%" y1="137.286458%" x2="40.8839746%" y2="-4.82317291%" id="linearGradient-1">
            <stop stop-color="#020671" offset="0%"></stop>
            <stop stop-color="#343128" offset="100%"></stop>
        </linearGradient>
        <linearGradient x1="50.5830646%" y1="0%" x2="50.5830646%" y2="59.5517919%" id="linearGradient-2">
            <stop stop-color="#B56500" offset="0%"></stop>
            <stop stop-color="#EA9321" offset="100%"></stop>
        </linearGradient>
    </defs>
    <g id="Page-1" stroke="none" stroke-width="1" fill="none" fill-rule="evenodd">
        <g id="Desktop-HD" transform="translate(-55.000000, -49.000000)">
            <g id="searchstone" transform="translate(55.000000, 49.000000)">
                <polygon id="Stroke-1" fill="#3A0EC3" points="136.281202 86.9510874 72.1549164 92.2028009 0.390625 124.351562 21.9453125 243.101562 51.0039062 268.972656 101.976562 264.241592 123.791684 251.455687 145.825802 258.049626 281.315952 215.704072 398.118527 215.704081 469.363786 231.955477 508.103354 204.328344 612.292242 198.311586 639.862005 196.719472 712.717487 204.328344 745.816628 188.236673 762.224706 210.267988 837.531125 204.328344 890.160722 231.955477 945.265223 231.955475 965.371094 243.101562 1024.67726 225.455403 1050.05078 258.049621 1147.35547 284.511718 1170.76562 264.241592 1184.54688 146.042968 1184.54686 124.351562 1045.20534 92.2028019 1017.73239 106.959961 945.265223 73.8195233 855.013592 61.8189981 762.224725 50.7242647 679.397739 25.3189995 620.221217 43.451072 499.287771 43.4510715 439.056065 61.818999 390.709546 50.7242642 320.175429 61.818999 306.789007 81.1425285 295.378653 67.8269373 237.583459 81.1425285 223.923649 106.959957 215.549341 86.9510894 164.24832 99.4069088"></polygon>
                <polygon id="Stroke-1" fill="url(#linearGradient-1)" points="136.281202 62.4132723 72.1549164 67.6649858 0.671875 121.289928 25.4375 239.703776 80.8505717 246.092234 118.880292 226.917872 143.370106 233.51181 281.315952 191.166257 398.118527 191.166266 469.363786 207.417661 508.103354 179.790529 639.862005 172.181657 712.717487 179.790529 745.816628 163.698858 762.224706 185.730173 837.531125 179.790529 890.160722 207.417661 945.265223 207.41766 964.82446 220.926601 1024.67726 200.917588 1056.46701 239.70378 1165.14062 262.374995 1185.48436 121.289928 1045.20534 67.6649868 1017.73239 82.4221456 945.265223 49.2817081 855.013592 37.2811829 762.224725 26.1864496 679.397739 0.781184332 620.221217 18.9132569 499.287771 18.9132565 439.056065 37.2811839 390.709546 26.1864491 320.175429 37.2811839 306.789007 56.6047133 295.378653 43.2891222 237.583459 56.6047133 223.923649 82.4221419 215.549341 62.4132743 164.24832 74.8690937"></polygon>
                <path d="M54.6130405,183.199328 C56.8231671,183.199328 59.0038253,183.027563 61.0936228,182.686487 C71.3044076,181.025277 81.0166861,177.926151 88.8208886,175.435563 C91.711243,174.512941 94.4935468,173.624672 96.7896228,172.984235 C96.7920785,173.320403 96.7847114,173.693378 96.7626101,174.108067 C96.5931671,177.300437 95.8687367,179.832739 94.6065089,181.636269 C94.3904076,181.82521 93.0643316,182.885244 89.0959266,183.957546 C84.4227367,185.21879 78.8433949,185.859227 72.5150658,185.859227 C69.563319,185.859227 66.4003823,185.719361 63.1097494,185.442084 C53.9647367,184.676504 48.0710658,183.326924 44.3113949,182.019059 C47.7297241,182.787092 51.2315468,183.199328 54.6130405,183.199328 M76.9819772,128.612504 C79.3983823,127.707059 81.7681291,126.92921 84.0642051,126.286319 C89.4716481,124.77479 94.4444329,124.00921 98.8425848,124.00921 C105.52699,124.011664 110.956534,125.768571 115.371876,129.373176 C102.418078,132.850185 83.6393696,137.60316 76.7216734,137.60316 C76.5424076,137.60316 76.3754203,137.600706 76.2207114,137.590891 C75.9702304,137.573714 75.7590405,137.55163 75.5822304,137.524639 C75.5404835,137.114857 75.5183823,136.530857 75.5650405,135.738286 C75.690281,133.57405 76.1642304,131.188975 76.9819772,128.612504 M128.446003,77.5738487 C127.66018,77.5738487 126.869446,77.6474622 126.086078,77.8020504 C104.586458,82.0102857 94.1276481,84.2162353 72.7925595,89.0477311 C70.8844835,89.4795966 69.1090152,90.3605042 67.6110405,91.6168403 C55.5462051,101.738689 49.6697241,106.717412 37.6687367,116.984034 C37.2316228,117.357008 36.8215215,117.761882 36.4433443,118.191294 C29.7073696,125.827462 25.8519266,136.913647 24.9899772,151.140672 C24.7984329,154.293782 24.7394962,159.252874 24.8082557,166.302588 C24.8475468,170.54763 27.0822304,174.468773 30.7142051,176.672269 C32.2416481,177.599798 33.8820532,178.441445 35.6010405,179.189849 C35.4684329,179.184941 35.3333696,179.182487 35.200762,179.182487 C33.0765848,179.182487 30.957319,179.732134 29.0590658,180.826521 C25.4295468,182.92205 23.1211924,186.722958 22.9345595,190.906655 L21.9571924,212.912168 C21.7288127,218.020941 24.6952937,222.732202 29.4004076,224.741849 C37.7743316,228.312101 47.3589139,230.125445 57.8938506,230.125445 C68.0776228,230.125445 79.5113443,228.422521 91.8782304,225.063294 C94.9183823,224.238824 97.9609899,223.296571 100.925015,222.261076 C102.700484,221.642723 104.31142,220.62195 105.630129,219.282185 C109.298939,215.557345 112.736914,211.938017 115.853192,208.524807 C123.679496,199.902218 129.413547,193.053714 133.404053,187.559697 C142.111952,175.739832 146.610787,165.129681 147.106838,155.186958 C147.656914,144.211193 143.479775,134.962891 135.329319,129.054185 C136.586635,127.316908 137.392104,125.24837 137.603294,123.030151 L140.668003,91.0083025 C141.036357,87.1534118 139.562939,83.3525042 136.689775,80.7514958 C134.410889,78.6878655 131.466509,77.5738487 128.446003,77.5738487 M1083.04922,219.954515 C1081.79094,223.412643 1079.00471,226.220008 1075.33667,227.423096 C1074.07445,227.837785 1072.78275,228.036541 1071.50824,228.036541 C1067.41705,228.036541 1063.48794,225.987634 1061.18204,222.407566 C1045.26422,197.695533 1023.43062,175.464272 1001.56756,154.077113 C1002.26989,163.111936 1002.98695,172.269449 1003.92748,184.312608 C1004.21971,188.042356 1002.79295,191.698491 1000.05485,194.24797 C997.766142,196.377852 994.770192,197.536037 991.688294,197.536037 C991.079281,197.536037 990.467813,197.491869 989.8588,197.401079 C981.217205,196.100575 976.988496,195.489583 968.3248,194.289684 C961.898243,193.401415 957.274167,187.669382 957.767762,181.206121 C958.179241,175.795261 958.518621,170.574431 958.785657,165.552057 C957.768502,167.420604 956.673666,169.272322 955.5014,171.106356 C953.691552,173.93802 950.796286,175.903499 947.49583,176.543936 C945.209577,176.988071 937.61902,178.786692 916.55897,185.868306 C915.294286,186.29281 913.970666,186.511197 912.642134,186.511197 C912.313071,186.511197 911.984008,186.498928 911.652489,186.471936 C907.536742,186.140676 903.472565,185.654827 899.572919,185.021751 C874.966843,181.022087 856.067805,171.03765 843.396413,155.326087 C832.91059,142.323499 827.350894,126.768978 826.872033,109.062491 C826.649218,100.826895 827.60211,93.1889662 829.707879,86.2627685 C827.116436,85.7822406 823.249141,85.144889 817.660716,84.3892269 C816.879805,93.1443193 816.587577,102.024555 816.793856,110.921966 C817.186767,127.855513 819.517223,141.930403 823.721375,152.758941 C825.216894,156.618739 824.666818,160.971748 822.255324,164.338336 C819.944514,167.562605 816.221678,169.464286 812.272919,169.464286 C812.103476,169.464286 811.929122,169.461832 811.757223,169.454471 C798.027425,168.877832 791.316008,168.659445 777.561653,168.330639 C773.51221,168.234941 769.772185,166.151681 767.564514,162.760555 C765.354387,159.371882 764.95902,155.112118 766.508565,151.372555 C770.791299,141.034773 772.714109,124.027613 772.225425,100.819748 C772.082995,94.035042 771.687628,86.7939328 771.04178,79.2019328 C770.555552,79.1823025 770.076691,79.1700336 769.610109,79.1700336 C764.087248,79.1700336 759.666995,80.5907731 756.101324,83.5132269 C754.114541,85.1424724 751.707563,86.0758248 749.233604,86.261381 C752.558628,91.8189287 754.334785,98.0194046 754.441519,104.598817 C754.615873,115.142716 750.163696,125.490313 741.293722,135.266178 C737.310582,139.749237 731.606,144.983153 723.818987,151.296733 C720.712532,153.797136 717.291747,156.383422 713.652405,158.98443 C711.643646,160.422346 709.246886,161.219825 706.778911,161.273808 C705.919418,161.293439 705.055013,161.3008 704.185696,161.3008 C701.965747,161.3008 699.694228,161.239455 697.42762,161.114313 C678.419139,160.073893 661.602996,155.988304 647.231997,148.937204 C647.052188,149.459875 646.836183,149.972526 646.583658,150.471035 C644.493861,154.603203 640.255329,157.513388 635.628797,157.513388 L635.471633,157.513388 C625.899329,157.513388 619.858316,157.407876 613.181278,157.407876 C609.416696,157.407876 605.394266,157.513388 600.52462,157.513388 L600.455861,157.513388 C596.934392,157.513388 593.582367,155.491472 591.251911,152.851203 C588.904266,150.196212 587.821304,146.145018 588.280519,142.633657 C590.606063,124.851103 591.912494,110.118598 592.180165,99.2851529 C590.321203,99.2115395 588.179835,98.6226319 585.716772,98.6226319 L584.842544,98.6226319 C580.680139,98.6226319 576.331101,99.3170521 571.834722,99.5575227 C572.384797,114.397993 572.777709,125.486632 573.438291,143.109691 C573.674038,149.379103 569.135911,154.816682 562.920544,155.712313 C560.57781,156.050934 557.589228,156.465624 553.952342,156.971103 C548.095506,157.785758 540.541785,158.835976 531.291177,160.173287 C530.704266,160.25917 530.117354,160.300884 529.532899,160.300884 C526.22262,160.300884 523.022848,158.961119 520.689937,156.544145 C520.080905,155.91216 519.547777,155.223806 519.094666,154.492726 C517.788613,155.708178 516.387447,157.013444 514.712035,158.575139 C512.632061,160.513627 509.943073,161.669358 507.104289,161.848484 C503.801377,162.054602 500.554947,162.157661 497.455858,162.157661 C477.265164,162.157661 460.949194,157.678931 448.808254,148.827631 C451.291682,151.141552 453.867168,153.454478 456.529471,155.761388 C460.598559,159.147607 464.812534,162.604985 469.053522,166.037825 C472.614281,168.921018 474.271876,173.541489 473.353446,178.027002 C472.437471,182.510061 469.097724,186.112212 464.694661,187.368548 C463.341572,187.753792 461.843597,187.99917 460.112332,188.119405 C459.257749,188.178296 458.376154,188.210195 457.492104,188.210195 C445.847192,188.210195 431.478914,183.040077 415.94418,173.261758 C402.467319,164.779035 390.761015,153.005792 380.208889,140.687808 C380.690205,145.246934 381.269749,149.931203 381.947522,154.7308 C382.858585,161.171976 378.580762,167.200918 372.198408,168.476884 C360.128661,170.891405 354.237446,172.115842 342.184889,174.719304 C341.322939,174.905792 340.453623,174.996582 339.589218,174.996582 C337.481548,174.996582 335.407398,174.452582 333.57137,173.421637 C322.017745,175.129322 316.111523,176.052027 304.320509,177.982097 C303.650104,178.092518 302.982154,178.146501 302.324028,178.146501 C296.906762,178.146501 292.019927,174.554165 290.512129,169.190198 C288.525471,162.120854 285.959268,154.577929 282.855268,146.674299 C275.291724,147.911005 269.275268,148.941593 261.237775,150.374602 C254.983116,164.65561 253.033294,172.951845 252.54461,177.518333 C251.99699,182.646736 248.2938,186.884417 243.28418,188.123576 C231.153041,191.119644 225.237268,192.631173 213.140509,195.821089 C212.099294,196.095913 211.048256,196.228417 210.007041,196.228417 C208.406803,196.228417 206.834876,195.915067 205.376378,195.321829 C203.69523,196.45952 201.713451,197.192751 199.566649,197.379731 C196.686118,197.632471 191.096953,198.407866 180.827232,200.672706 C168.693637,203.347328 155.066978,206.949479 140.320523,211.381008 C139.158978,211.729445 137.967966,211.898756 136.786776,211.898756 C133.746624,211.898756 130.765409,210.770017 128.466877,208.654857 C125.274472,205.715227 123.87227,201.313143 124.775966,197.070555 C126.486775,189.0609 127.858986,180.724578 128.884245,172.132739 C127.366896,174.770434 125.560925,177.509962 123.465851,180.352941 C119.720914,185.508336 114.161218,192.126185 106.781851,200.258017 C103.726965,203.604975 100.424053,207.077076 96.8780278,210.679227 C94.1890405,211.616571 91.4509392,212.46558 88.656357,213.223798 C77.3478759,216.295933 67.0904329,217.856538 57.8938506,217.856538 C49.0189646,217.856538 41.1288127,216.403899 34.2233949,213.456908 C34.6138506,204.655193 34.8103063,200.253109 35.200762,191.451395 C41.376838,194.656034 50.3278506,196.682857 62.0857241,197.669277 C65.7201544,197.973546 69.1974203,198.128134 72.5150658,198.128134 C79.9165342,198.128134 86.5174456,197.362555 92.2981544,195.80195 C98.2384835,194.197176 102.339496,191.902891 104.507876,188.894555 C107.228787,185.113277 108.726762,180.367664 109.023901,174.753412 C109.267015,170.147664 108.513116,166.413008 106.740104,163.72121 C105.092332,161.225714 102.725041,159.939933 99.8003063,159.939933 C99.1078,159.939933 98.3833696,160.013546 97.6294709,160.158319 C89.3734203,161.750824 74.5532937,168.066857 59.119243,170.577076 C57.6335468,170.82 56.120838,170.93042 54.6130405,170.93042 C47.948281,170.93042 41.3400025,168.766185 37.084281,166.184807 C37.0204329,159.468807 37.0744582,154.701109 37.246357,151.884168 C37.941319,140.402924 40.7457241,131.868672 45.6546608,126.303496 C57.5967114,116.088403 63.5665089,111.03116 75.5061038,101.01237 C96.6128127,96.2348571 107.201775,93.9994622 128.446003,89.8427563 C127.22061,102.649042 126.609142,109.053412 125.381294,121.862151 C118.412028,115.146151 109.564154,111.742756 98.8450405,111.740303 C93.3148127,111.740303 87.2860785,112.645748 80.758838,114.471361 C76.4417241,115.678622 71.9870911,117.271126 67.3998506,119.253782 C64.9539772,124.931832 63.5861544,130.197647 63.3062051,135.029143 C62.773319,144.252908 66.8816987,149.261076 75.3980532,149.830353 C75.8081544,149.859798 76.2501797,149.872067 76.7216734,149.872067 C84.8131924,149.872067 101.85818,145.845412 127.743673,138.71963 C128.998328,139.58229 130.087953,140.554884 131.012217,141.637041 C131.271246,128.131781 130.513673,115.584223 128.749282,104.241546 C127.769459,97.9451429 131.772244,91.9481008 137.96551,90.4365714 C163.438447,84.2186891 175.925662,81.3919328 201.592599,76.0451429 C202.42508,75.8709244 203.264928,75.7874958 204.099865,75.7874958 C207.007409,75.7874958 209.851105,76.818084 212.098067,78.7467563 C214.990877,81.2275294 216.564978,84.9106555 216.361156,88.711563 L215.474649,105.218151 C215.22908,109.816538 212.471333,113.924168 208.264725,115.798857 C207.144928,116.296975 205.983384,116.620874 204.809561,116.773008 C206.400852,117.224504 207.908649,117.997445 209.229814,119.074655 C212.368194,121.63395 214.040523,125.577176 213.699181,129.611193 L212.594118,142.667765 C212.129991,148.17405 208.036346,152.689008 202.599434,153.697513 C195.170953,155.074084 186.797029,156.848168 177.612725,158.990319 L177.146143,165.941882 C183.199434,164.312571 188.201687,163.004706 195.959232,161.009782 C196.970978,160.749681 197.999915,160.622084 199.021485,160.622084 C201.803789,160.622084 204.539434,161.56679 206.749561,163.355597 C207.554083,164.00668 208.263638,164.748834 208.868688,165.560643 C211.140409,162.415172 213.440836,159.025042 215.760737,155.4024 C229.853977,133.671711 240.312787,109.946097 250.282914,86.8192067 C249.757395,86.4167866 249.062433,85.9309378 248.15137,85.3714756 C243.920205,82.7827361 241.665876,77.9021647 242.436965,73.0044168 C243.208053,68.1066689 246.854762,64.1560807 251.675294,62.9880807 C264.855015,59.7981647 271.301218,58.2939966 284.530053,55.3298286 C285.428838,55.1286185 286.330078,55.0304672 287.221496,55.0304672 C292.12061,55.0304672 296.671015,57.975005 298.586458,62.6715429 C304.627471,77.4825681 310.39099,90.8900303 315.722306,102.547946 C321.889847,116.108188 326.771802,126.186383 330.615617,133.675288 C331.23066,126.568947 331.625923,119.842466 331.797294,113.536716 C332.588028,84.5281109 329.019901,73.5449849 326.822053,69.5796739 C324.95818,66.2155395 324.778914,62.1717076 326.340737,58.6578924 C327.902559,55.1416235 331.023749,52.5626992 334.773597,51.6866992 C347.884559,48.6317412 354.293927,47.1938252 367.431901,44.3597076 C368.291395,44.1732202 369.160711,44.0824303 370.022661,44.0824303 C372.854078,44.0824303 375.629015,45.0663966 377.85142,46.904279 C378.674078,47.5815227 379.393597,48.3593714 380.00261,49.2083798 C385.30937,46.9484471 390.692256,45.5350689 396.1218,44.9756067 C397.997952,44.781758 399.864281,44.668884 401.669218,44.6222622 C401.767446,44.6198084 401.865673,44.6394387 401.963901,44.6394387 L402.113699,44.6394387 C419.15623,44.6394387 426.719775,51.8020269 430.069344,57.9266655 C431.446649,60.3511611 432.343074,63.3796376 432.862123,67.581223 C434.299439,65.402168 435.926272,63.6620326 437.782441,62.3010218 C437.824187,62.2691227 437.865934,62.1807866 437.910137,62.1513412 C467.172213,41.2672067 473.456339,39.6550723 476.142871,39.0170891 C483.109681,37.3607866 491.888795,36.0112067 501.532314,35.5498958 C505.213403,35.3732235 508.919048,34.8235765 512.546111,34.8235765 L512.548567,34.8235765 C515.264567,34.8235765 518.005124,35.333963 520.691656,35.4345681 C522.82823,35.5126644 524.825063,36.1861958 526.547338,37.2869581 C527.676185,36.7650744 528.889265,36.4125573 530.149278,36.2524134 C542.196924,34.7138924 548.085684,34.0096571 560.143152,32.6600773 C560.599911,32.6085479 561.056671,32.5840101 561.510975,32.5840101 C564.632165,32.5840101 567.657582,33.7790017 569.948747,35.9456908 C572.573886,38.4289176 573.973633,41.9451866 573.76981,45.5522454 L572.694215,64.5715059 C573.074848,64.5690521 573.455481,64.5886824 573.83857,64.5837748 C579.592266,64.5273378 585.274747,64.2476067 590.831987,63.6709681 C590.247532,58.8787328 589.697456,54.4349345 588.926367,48.0919092 C588.501532,44.5952706 589.599228,41.2483126 591.941962,38.6178588 C594.272418,35.9996739 597.612165,34.8243126 601.116443,34.8243126 L601.168013,34.8243126 C613.444038,34.8243126 619.438392,34.640279 631.719329,34.8881109 C634.437602,34.9438565 637.038325,35.7073623 639.130719,37.295417 C639.135187,37.2916861 639.139656,37.2879567 639.144127,37.2842286 C639.785063,36.7493042 640.480025,36.2806319 641.214278,35.8880269 C653.166152,29.4934723 659.003342,26.4090689 670.957671,20.1740101 C672.718405,19.2562958 674.668228,18.7802622 676.640152,18.7802622 C677.045342,18.7802622 677.450532,18.7998924 677.855722,18.8416067 C699.905418,21.0328336 710.666278,22.2572706 732.679139,25.0791193 C738.953443,25.8839597 743.589797,31.3190857 743.38843,37.6375731 L743.311508,40.0516599 C744.102499,39.8928271 744.911874,39.8113782 745.728463,39.8113782 C746.153299,39.8113782 746.58059,39.8334622 747.007881,39.8776303 C778.897552,43.2123193 811.32502,46.8267395 843.38659,50.6153782 C847.296058,51.0791429 850.746311,53.3856975 852.666666,56.8209916 C853.685988,58.6467777 854.20657,60.6735683 854.221405,62.7075966 C855.022165,62.3927265 855.839553,62.0640674 856.666995,61.7241378 C864.616084,58.4581546 873.623577,55.0375832 881.970489,54.2155664 C884.131501,54.0020874 886.373552,54.4535832 888.632792,54.4535832 L888.635248,54.4535832 C911.380073,54.4535832 934.493929,64.6941142 944.563771,73.3288043 C946.838485,71.064872 949.946323,69.7504571 953.22718,69.7504571 C953.644648,69.7504571 954.064572,69.7725412 954.486952,69.8142555 C964.938395,70.8890118 970.03642,71.4484739 980.458395,72.6655496 C983.469078,73.0188941 986.244015,74.4715328 988.247863,76.7461882 C999.143787,89.1132471 1008.70381,99.7528437 1017.43136,109.221987 C1026.61812,119.078827 1034.63105,127.382424 1041.43333,134.103331 C1040.1048,125.367869 1038.01746,115.729415 1035.19095,105.283667 C1034.0687,101.13923 1035.19586,96.7101546 1038.16234,93.606121 C1040.50508,91.1547933 1043.72695,89.810121 1047.04214,89.810121 C1047.92619,89.810121 1048.81761,89.9058185 1049.70166,90.102121 C1060.89718,92.5853479 1066.35374,93.8367765 1077.50996,96.4868605 C1080.00407,97.0793639 1082.22706,98.4303875 1083.89191,100.321552 C1084.15206,100.304952 1084.41312,100.296602 1084.6747,100.296602 C1085.73311,100.296602 1086.79888,100.434013 1087.84746,100.713745 C1113.26392,107.510719 1125.61607,111.041711 1150.79187,118.707324 C1155.74255,120.213946 1159.21736,124.662652 1159.47521,129.830316 L1160.15544,143.424266 L1160.30032,146.319728 C1160.56554,151.619896 1157.39278,156.490652 1152.43227,158.389879 C1152.11058,158.512568 1151.78397,158.622988 1151.45491,158.718686 C1156.97286,159.952938 1160.93881,164.796703 1161.04686,170.452669 L1161.24577,180.670215 L1161.29488,183.290854 C1161.37101,187.263526 1159.51696,191.030081 1156.31718,193.390618 C1154.17827,194.973308 1151.61207,195.795324 1149.01886,195.795324 C1147.73453,195.795324 1146.44283,195.594114 1145.19288,195.184333 C1139.91805,193.456871 1134.15944,191.68524 1127.96617,189.886618 L1128.2142,196.678686 C1138.17696,199.061308 1143.53283,200.38635 1153.94989,203.036434 C1159.12159,204.354114 1162.85179,208.861711 1163.17349,214.186417 L1163.55167,220.438652 L1163.92002,226.509308 C1164.17541,230.751896 1162.21577,234.825173 1158.74096,237.276501 C1156.63643,238.758585 1154.15863,239.519257 1151.66118,239.519257 C1150.03551,239.519257 1148.40002,239.195358 1146.85539,238.540198 C1143.9282,237.293677 1138.29974,235.185879 1128.12088,232.216803 C1116.15918,228.727526 1102.70443,225.400198 1088.12741,222.330518 C1086.21424,221.927266 1084.49336,221.095896 1083.04922,219.954515 Z M523.163142,80.3043186 C522.50988,80.4105723 521.849176,80.4639126 521.187706,80.4639126 C519.368035,80.4639126 517.540997,80.0590387 515.846567,79.2394756 C509.086035,75.9759462 500.650719,74.3196437 490.773909,74.3196437 C488.998441,74.3196437 487.149301,74.3736269 485.278061,74.4791395 C481.012516,74.7220639 478.677149,75.0901311 477.532795,75.3281479 C476.385985,76.9672739 474.954314,81.043005 474.843808,88.8705681 C474.799605,91.981963 474.971504,95.5595765 475.359504,99.5322487 C476.597175,112.527476 482.773251,119.66798 496.117504,123.441896 C500.940491,124.855274 506.762947,125.571778 513.420339,125.571778 C515.065656,125.571778 516.787099,125.52761 518.540466,125.441728 C518.744289,125.429459 518.948111,125.424551 519.151934,125.424551 C519.651629,125.424801 520.146706,125.455393 520.634964,125.514951 C522.294182,112.627613 523.16842,100.309 523.241405,88.7118084 C523.259406,85.8047781 523.233248,83.0015157 523.163142,80.3043186 Z M436.684431,136.740521 C434.941336,134.870986 433.264982,133.006569 431.65818,131.14996 C424.855901,123.28559 419.431268,115.730397 415.450585,108.589892 C419.230862,105.415156 422.52417,101.875477 425.30577,97.9928279 C425.125997,113.216712 428.947049,126.214315 436.684431,136.740521 Z M883.092742,130.084037 C878.316413,121.976743 875.882818,114.247331 875.651982,106.461482 C875.470261,100.361382 876.459906,94.9164403 878.66021,89.9769782 C881.641425,90.1830958 884.666843,90.5266252 887.706995,91.0051126 C903.681299,93.5226924 913.639147,98.5014151 915.751046,105.023566 C919.363375,116.188272 921.354944,126.067197 921.664362,134.38797 C921.900109,140.706457 921.34021,148.509482 917.759805,152.359466 C916.652286,152.256407 915.444084,152.094457 914.140109,151.873617 C900.756565,149.621045 890.602261,142.49281 883.092742,130.084037 Z" id="Combined-Shape" fill="#000000" opacity="0.259853078"></path>
                <path d="M945.148676,171.705764 C947.851951,167.512742 950.066662,163.248576 951.795263,158.905909 C953.410613,154.84961 954.601299,150.728078 955.37223,146.535415 L955.37223,146.531059 C956.078813,142.690164 956.429653,138.792881 956.429653,134.831859 L956.429653,119.880968 C956.429653,123.841371 956.078489,127.742884 955.371248,131.585506 L955.371248,131.589862 C954.60013,135.779083 953.409444,139.899658 951.794281,143.954037 L951.794281,143.957485 C950.065613,148.297374 947.850902,152.563678 945.147694,156.756397 C940.174472,157.721143 929.389371,160.834949 912.637714,166.421842 L912.637714,181.375187 C929.390473,175.785472 940.175891,172.674077 945.148676,171.707287 L945.148676,171.705764 L945.148676,171.705764 Z M806.883157,78.617442 C821.271081,80.2393916 831.039841,81.750921 836.233638,82.9557277 L836.233638,68.004837 C831.039841,66.8000303 821.271081,65.2860471 806.883157,63.6640975 L806.883157,63.6663066 C805.267471,74.972779 804.452263,86.4755323 804.452263,98.1451261 L804.452263,113.096017 C804.452263,101.428954 805.267461,89.9262757 806.883125,78.6174224 L806.883157,78.617442 Z M866.69016,94.5802723 C867.925227,91.4820406 869.496546,88.5285048 871.406575,85.7172134 L871.406575,70.7663227 C869.496043,73.5783563 867.924397,76.5327092 866.689182,79.6293815 L866.689182,79.6318508 C866.689509,79.6310275 866.689838,79.6302045 866.690165,79.6293815 L866.690165,94.5802723 L866.69016,94.5802723 Z M866.689182,94.5813586 L866.689182,79.6318508 L866.689182,94.5813586 Z M604.325056,96.5675394 C600.152833,95.7087475 594.013673,95.2278252 585.865833,95.2278252 C585.509757,95.2278252 585.151225,95.230279 584.787782,95.2327328 C576.853428,95.252363 568.300238,95.6695059 559.128213,96.5037916 L559.128213,81.5504471 C559.327333,81.5323882 559.526163,81.5145249 559.724701,81.496857 L559.724701,69.253321 C560.454043,56.7611193 560.807663,50.5137916 561.514904,37.9970521 L561.514904,52.9479429 C560.860964,64.5213508 560.509353,70.734733 559.883514,81.4827602 C568.770204,80.6959706 577.071626,80.300865 584.787782,80.2793882 C585.151225,80.2769345 585.509757,80.2769345 585.865833,80.2769345 C594.013833,80.2769345 600.153073,80.7554218 604.325301,81.6166992 L604.325301,81.6211341 C604.43566,83.5048271 604.501866,85.7829772 604.501866,88.4335496 L604.501866,103.38444 C604.501866,100.734356 604.435562,98.4547933 604.325056,96.5678353 L604.325056,96.5675394 Z M367.777909,93.5911976 C368.12165,91.7185778 368.607551,89.9953494 369.23561,88.4166185 L369.23561,73.4657277 C368.606952,75.0435092 368.120724,76.7709714 367.776927,78.6456605 L367.776927,78.6502618 C367.720829,78.955262 367.669573,79.265099 367.620744,79.5773613 C366.869301,84.5094622 366.427276,90.3617311 366.272567,97.0262017 C366.220997,98.9548739 366.196441,100.915445 366.196441,102.907916 L366.196441,117.861261 C366.196441,115.866336 366.220997,113.905765 366.272567,111.977092 C366.427276,105.315076 366.869301,99.4628067 367.620744,94.5307059 C367.669858,94.2141681 367.721428,93.9049916 367.777909,93.5958151 L367.777909,93.5911976 L367.777909,93.5911976 Z M369.84008,72.0828974 C369.89826,69.7171493 369.952867,67.4961065 370.029782,64.367842 L370.029782,49.4169513 C369.897175,54.810363 369.830871,57.5046151 369.698263,62.8980269 L369.698263,72.3849489 C369.536352,72.7368484 369.382149,73.0968081 369.23561,73.4647462 L369.23561,88.4180908 C369.810243,86.9728134 370.502749,85.6551328 371.315585,84.4601412 L371.315585,69.5092504 C370.769733,70.3100867 370.278146,71.1684644 369.84008,72.0828974 L369.84008,72.0828974 Z M391.069451,61.4947092 L391.069451,76.4456 C393.743704,77.0614992 395.931729,78.7914151 397.589324,81.6844235 C399.14378,84.4130286 399.939425,87.5955832 399.939425,91.2320874 L399.939425,76.2811966 C399.939425,72.6446924 399.14378,69.4621378 397.589324,66.7335328 C395.93183,63.8407015 393.743971,62.1083666 391.069942,61.4948219 C390.419182,61.3131294 389.59898,61.2174319 388.606878,61.2174319 C387.914372,61.2174319 387.135916,61.2640538 386.273967,61.362205 C379.501157,62.0860706 374.498904,64.8269445 371.316322,69.5087597 L371.316322,84.4621042 C374.498904,79.7802891 379.501157,77.0369613 386.273967,76.3155496 C387.135916,76.2149445 387.914372,76.1683227 388.606878,76.1683227 C389.59898,76.1683227 390.419182,76.2664739 391.069942,76.4456 L391.069942,61.4948219 L391.069451,61.4947092 Z M420.916965,87.0655041 C421.058904,86.2964561 421.129873,85.5591931 421.129873,84.8512739 L421.129873,69.9003832 C421.129873,70.6070723 421.058658,71.3481143 420.916228,72.1186017 L420.916228,72.121398 C420.71229,73.2342272 420.358927,74.4107043 419.865927,75.6532739 L419.865927,90.6041647 C420.359522,89.3600975 420.713142,88.1822824 420.916965,87.0682655 L420.916965,87.0655046 L420.916965,87.0655041 Z M465.174013,65.6020941 C465.77793,64.0885698 466.484925,62.7344446 467.294997,61.5397185 C468.272365,60.1009613 469.399529,58.8961546 470.678947,57.9220034 C472.424947,56.5846924 477.044111,55.6866084 484.580643,55.2473815 C486.677808,55.1320538 488.723403,55.073163 490.719884,55.073163 C502.607909,55.073163 512.759757,57.1318857 521.180339,61.1659025 L521.180339,76.1167933 C512.759757,72.0827765 502.607909,70.0240538 490.719884,70.0240538 C488.723403,70.0240538 486.677808,70.0829445 484.580643,70.2007261 C477.044111,70.6374992 472.424947,71.538037 470.678947,72.8728941 C469.399851,73.8468007 468.272932,75.0536993 467.295734,76.4886862 C466.485573,77.6841904 465.778497,79.0382675 465.174504,80.5517541 C464.442706,82.3950387 463.863162,84.4709378 463.438327,86.7848538 L463.438327,71.833963 C463.863066,69.5205648 464.442446,67.4426241 465.174013,65.6025932 L465.174013,65.6020941 Z M240.339309,183.343232 C240.464527,182.183956 240.643632,180.965943 240.879071,179.689193 L240.879071,179.682532 C241.888771,174.207049 243.906943,167.66749 246.931134,160.068756 C248.56647,155.962745 250.493946,151.549009 252.716018,146.828642 L252.716018,131.877751 C250.493613,136.598827 248.565891,141.01318 246.930397,145.118356 C243.905389,152.718289 241.887052,159.259453 240.877843,164.738303 L240.877843,164.744951 C240.642702,166.018505 240.463841,167.235814 240.338818,168.394437 C228.18345,171.354966 222.127703,172.910664 210.016372,176.068639 L210.016372,191.019529 C222.127703,187.864009 228.18345,186.305857 240.338818,183.346674 C240.338859,183.347402 240.338899,183.347023 240.338941,183.346644 L240.339309,183.343232 L240.339309,183.343232 Z M285.536397,126.294598 L285.536397,114.868383 C281.668676,106.670299 277.889359,99.3506689 274.242651,92.9045849 L274.242651,107.857929 C277.396771,113.43117 280.650095,119.661575 283.97402,126.545967 C275.509903,127.910188 269.215887,128.966263 261.066593,130.396982 C267.643881,118.799499 272.030498,111.296622 274.242651,107.855966 L274.242651,92.9050756 C271.78941,96.7182521 266.661916,105.529782 258.838068,119.383832 L258.838068,130.789381 C256.924528,131.127248 254.899086,131.487126 252.716018,131.87677 L252.716018,146.830114 C267.811182,144.133408 275.369815,142.86235 290.509182,140.450282 L290.509182,125.499392 C288.757954,125.778405 287.108158,126.042151 285.536397,126.294598 L285.536397,126.294598 Z M167.029656,141.300767 L167.029656,129.75155 C168.068335,116.558584 168.598764,109.982447 169.659461,96.7880497 L169.659461,96.7845042 C177.949891,94.7478655 184.882322,93.7467227 190.456752,93.7467227 C196.453562,93.7467227 200.876271,94.9073613 203.717511,97.179563 L203.717511,112.130454 C200.876271,109.858252 196.453562,108.700067 190.456752,108.700067 C184.882342,108.700067 177.949941,109.698749 169.65955,111.737827 C168.695972,123.724135 168.170002,130.248647 167.303131,141.234711 C180.598762,138.025397 191.793546,135.635973 200.866694,133.960276 L200.866694,148.911166 C191.606263,150.621452 180.135706,153.077687 166.477124,156.387839 L166.477124,141.434494 C166.661701,141.389762 166.845878,141.345186 167.029656,141.300767 L167.029656,141.300767 Z M96.8795013,202.590091 C100.415704,199.017385 103.730894,195.574729 106.780868,192.244948 C114.162691,184.176914 119.73221,177.60078 123.467324,172.494461 C124.31681,171.351247 125.119658,170.22275 125.873414,169.113874 C128.758543,164.866854 130.946405,160.870053 132.444367,157.111219 C133.379218,154.766101 134.041934,152.517756 134.439866,150.360055 L134.439866,150.355708 C134.655967,149.180346 134.793486,148.03443 134.849967,146.915506 C134.872068,146.461556 134.884347,146.017422 134.884347,145.578195 L134.884347,160.529086 C134.884347,160.968313 134.872068,161.414901 134.849967,161.866397 C134.793572,162.983625 134.656384,164.130209 134.440848,165.301264 L134.440848,165.305617 C134.043025,167.464945 133.379987,169.717516 132.444367,172.063331 C130.946405,175.820945 128.758543,179.820198 125.873415,184.064776 C125.119659,185.176092 124.316811,186.302138 123.467324,187.447805 C119.73221,192.554124 114.162691,199.130259 106.780868,207.195839 C103.731106,210.527843 100.416164,213.967798 96.880238,217.540237 C94.1838835,218.485687 91.4433266,219.317519 88.6585671,220.085553 C77.3500861,223.128242 67.0950987,224.676578 57.9009722,224.676578 C49.0211747,224.676578 41.1285671,223.233755 34.2231494,220.303939 L34.2231494,205.353049 C41.1285671,208.28041 49.0211747,209.723234 57.9009722,209.723234 C67.0950987,209.723234 77.3500861,208.177351 88.6585671,205.132208 C91.4430729,204.366698 94.1833843,203.532495 96.8795013,202.590348 L96.8795013,202.590091 Z M128.440846,82.6688807 L128.440846,97.6197714 C127.225276,110.313183 126.606441,116.668477 125.390871,129.381519 L125.390871,114.430629 C126.606441,101.717587 127.225276,95.3598387 128.440846,82.6688807 L128.440846,82.6688807 Z M125.390871,114.430138 L125.390871,129.381029 C118.421605,122.731281 109.573732,119.34997 98.852162,119.34997 C93.3219342,119.34997 87.2956557,120.248054 80.7684152,122.061398 C76.4365671,123.244121 71.9942127,124.843987 67.3971494,126.794743 L67.3971494,111.843852 C71.9942127,109.893096 76.4365671,108.29323 80.7684152,107.108054 C87.2956557,105.297163 93.3219342,104.396625 98.852162,104.399079 C109.573732,104.399079 118.421605,107.777936 125.390871,114.430138 L125.390871,114.430138 Z M67.3971494,111.843607 L67.3971494,126.794497 C67.1319342,127.410397 66.8765418,128.018934 66.6383392,128.622565 L66.6383392,113.66922 C66.8765418,113.06559 67.1319342,112.457052 67.3971494,111.843607 L67.3971494,111.843607 Z M66.637357,113.669466 L66.637357,128.620356 C65.3284709,131.908424 64.4051291,135.044356 63.8550532,138.033062 L63.8550532,123.079718 C64.4051291,120.093466 65.3284709,116.957533 66.637357,113.669466 L66.637357,113.669466 Z M63.8550532,123.079963 L63.8550532,138.030854 C63.5775595,139.549745 63.395838,141.026921 63.3074329,142.467291 C63.2779646,142.989946 63.2632304,143.500333 63.2632304,143.995997 L63.2632304,129.045106 C63.2632304,128.549442 63.2779646,128.039055 63.3074329,127.5164 C63.395838,126.07603 63.5775595,124.5964 63.8550532,123.079963 L63.8550532,123.079963 Z M37.0963139,158.422269 L37.0963139,173.37316 C37.0766684,171.432218 37.0668456,169.653227 37.0668456,168.038639 L37.0668456,153.087748 C37.0668456,154.699882 37.0766684,156.478874 37.0963139,158.422269 L37.0963139,158.422269 Z M109.058281,165.296292 L109.058281,180.247183 C109.058281,176.431553 108.289648,173.288259 106.737648,170.942444 C105.097243,168.466578 102.739775,167.190612 99.827319,167.190612 C99.1249899,167.190612 98.3931924,167.264225 97.6319266,167.411452 C89.3660532,168.991687 74.5582051,175.258645 59.1094203,177.736965 C57.6139013,177.979889 56.0938253,178.092763 54.5786608,178.092763 C47.9335468,178.092763 41.3424582,175.94325 37.0965595,173.374141 L37.0965595,158.42325 C41.3424582,160.99236 47.9335468,163.141872 54.5786608,163.141872 C56.0938253,163.141872 57.6139013,163.028998 59.1094203,162.78362 C74.5582051,160.307755 89.3660532,154.038343 97.6319266,152.460561 C98.3931924,152.310881 99.1249899,152.237267 99.827319,152.237267 C102.739775,152.237267 105.097243,153.515687 106.737648,155.989099 C108.289648,158.337368 109.058281,161.478208 109.058281,165.296292 L109.058281,165.296292 Z M204.601808,80.7836403 L204.601808,95.7345311 C204.248187,102.288582 204.071377,105.576649 203.717757,112.130699 L203.717757,97.1798084 C204.071377,90.625758 204.248187,87.3376908 204.601808,80.7836403 L204.601808,80.7836403 Z M143.847147,128.83359 L143.847147,143.784481 C143.847147,131.667708 143.026944,120.377859 141.391451,109.939472 L141.391451,94.9885815 C143.026944,105.426968 143.847147,116.716817 143.847147,128.83359 L143.847147,128.83359 Z M201.971757,121.006027 L201.971757,135.956918 C201.529732,141.154027 201.308719,143.740313 200.866694,148.912884 L200.866694,133.959539 C201.308719,128.786968 201.529732,126.200682 201.971757,121.006027 L201.971757,121.006027 Z M166.477124,141.434739 L166.477124,156.38563 C165.769884,166.863277 165.416263,172.080017 164.709023,182.557664 L164.709023,167.606773 C165.416263,157.129126 165.769884,151.912387 166.477124,141.434739 L166.477124,141.434739 Z M164.709023,167.606528 L164.709023,182.557418 C164.704111,182.660477 164.701656,182.761082 164.701656,182.859234 L164.701656,167.905889 C164.701656,167.807738 164.704111,167.707133 164.709023,167.606528 L164.709023,167.606528 Z M199.540618,164.998158 L199.540618,179.949049 C199.319605,184.817351 199.209099,187.249049 199.010187,192.114897 L199.010187,177.164007 C199.209099,172.298158 199.319605,169.864007 199.540618,164.998158 L199.540618,164.998158 Z M199.010187,177.163516 L199.010187,192.114407 C194.457327,192.509466 187.694339,193.650474 178.699124,195.623314 C166.742339,198.253768 152.929048,201.826474 137.303453,206.493566 L137.303453,191.542676 C152.929048,186.873129 166.742339,183.300424 178.699124,180.66997 C187.694339,178.697129 194.457327,177.558575 199.010187,177.163516 L199.010187,177.163516 Z M263.439306,78.6395261 L263.439306,93.5904168 C263.439306,89.9882655 260.477737,86.3836605 254.571787,82.7815092 L254.571787,67.8281647 C260.477737,71.4327697 263.439306,75.034921 263.439306,78.6395261 L263.439306,78.6395261 Z M332.589992,153.446491 L332.589992,168.397382 C320.478499,170.173919 314.422752,171.116171 302.333359,173.066928 L302.333359,158.116037 C314.422752,156.165281 320.478499,155.223029 332.589992,153.446491 L332.589992,153.446491 Z M302.333359,158.115301 L302.333359,173.066192 C299.460195,162.919805 295.504068,152.025015 290.509182,140.450528 L290.509182,125.499637 C295.504068,137.071671 299.460195,147.966461 302.333359,158.115301 L302.333359,158.115301 Z M463.438327,71.833963 L463.438327,86.7848538 C462.912808,89.6533244 462.62058,92.8849546 462.566554,96.4821983 C462.564099,96.8306353 462.561643,97.1839798 462.561643,97.5422319 L462.561643,82.5888874 C462.561643,82.2306353 462.564099,81.8772908 462.566554,81.5288538 C462.62058,77.9340639 462.912808,74.7024336 463.438327,71.833963 L463.438327,71.833963 Z M419.865435,75.6522924 L419.865435,90.6031832 C419.118904,92.4754185 418.04822,94.4948807 416.663208,96.6566622 C416.454473,96.9830151 416.240828,97.3069143 416.022271,97.6283597 L416.022271,82.6774689 C416.240828,82.3560235 416.454473,82.0321244 416.663208,81.7033176 C418.04822,79.5415361 419.118904,77.5245277 419.865435,75.6522924 L419.865435,75.6522924 Z M416.022271,82.6764874 L416.022271,97.6273782 C412.110347,103.386403 406.732372,108.274336 399.866246,112.197933 L399.866246,97.2445882 C406.732372,93.3209916 412.110347,88.4330588 416.022271,82.6764874 L416.022271,82.6764874 Z M344.198559,98.3480538 L344.198559,113.298945 C344.198559,93.4134992 341.976154,79.5054655 337.563268,71.6018353 L337.563268,56.6509445 C341.976154,64.552121 344.198559,78.4626084 344.198559,98.3480538 L344.198559,98.3480538 Z M519.146777,130.146363 L519.146777,145.097254 C514.019284,149.810968 511.455537,152.178867 506.328043,156.934296 L506.328043,141.983405 C511.455537,137.225523 514.019284,134.860077 519.146777,130.146363 L519.146777,130.146363 Z M506.328043,141.982914 L506.328043,156.933805 C503.285435,157.122746 500.336144,157.218444 497.485081,157.218444 C476.744271,157.218444 461.079385,152.212729 450.743359,141.789066 C441.942144,132.930914 437.580828,121.221469 437.580828,106.756427 L437.580828,91.8055361 C437.580828,106.268124 441.942144,117.980024 450.743359,126.835721 C461.079385,137.261839 476.744271,142.265099 497.485081,142.265099 C500.336144,142.265099 503.285435,142.171855 506.328043,141.982914 L506.328043,141.982914 Z M369.786668,148.777681 L369.786668,163.728571 C357.697276,166.118555 351.66363,167.367529 339.596339,169.953815 L339.596339,155.002924 C351.66363,152.416639 357.697276,151.167664 369.786668,148.777681 L369.786668,148.777681 Z M461.329866,167.73805 L461.329866,182.688941 C460.821537,182.843529 460.136397,182.95395 459.252347,183.017748 C458.685081,183.057008 458.100625,183.076639 457.503891,183.076639 C448.638828,183.076639 436.431562,178.81442 422.497942,170.108403 C402.275284,157.483697 385.854043,136.089176 370.935689,117.217143 L370.935689,102.263798 C385.854043,121.138286 402.275284,142.530353 422.497942,155.157513 C436.431562,163.863529 448.638828,168.125748 457.503891,168.125748 C458.100625,168.125748 458.685081,168.106118 459.252347,168.066857 C460.136397,168.000605 460.821537,167.892639 461.329866,167.73805 L461.329866,167.73805 Z M604.479765,67.0184168 L604.479765,81.9693076 C603.131587,70.9886353 602.468549,65.5093412 601.120372,54.5482992 L601.120372,39.5974084 C602.468549,50.5559966 603.131587,56.0377445 604.479765,67.0184168 L604.479765,67.0184168 Z M535.530446,79.6654521 L535.530446,94.6163429 C535.530446,79.0078387 534.246116,66.3095193 531.699559,56.4993008 L531.699559,41.5484101 C534.246116,51.3561748 535.530446,64.0569479 535.530446,79.6654521 L535.530446,79.6654521 Z M631.465656,39.9698924 L631.465656,54.9207832 C629.032061,74.8307664 627.79439,92.2010857 627.79439,106.990027 L627.79439,92.0366824 C627.79439,77.2477412 629.032061,59.8798756 631.465656,39.9698924 L631.465656,39.9698924 Z M635.620694,137.028975 L635.620694,151.979866 C626.249757,151.864538 620.002466,151.815462 612.706592,151.815462 C609.059884,151.815462 605.150415,151.827731 600.45758,151.849815 L600.45758,136.896471 C605.150415,136.874387 609.059884,136.864571 612.706592,136.864571 C620.002466,136.864571 626.249757,136.911193 635.620694,137.028975 L635.620694,137.028975 Z M561.161529,135.976793 L561.161529,150.927684 C555.06158,151.806138 544.519276,153.207247 529.534618,155.35676 L529.534618,140.403415 C544.519276,138.256356 555.06158,136.852793 561.161529,135.976793 L561.161529,135.976793 Z M669.391428,39.9478084 L669.391428,54.8986992 C669.15077,55.4360773 668.924846,55.9734555 668.7112,56.5083798 L668.7112,41.5574891 C668.924846,41.0201109 669.15077,40.4851866 669.391428,39.9478084 L669.391428,39.9478084 Z M668.710954,41.5565076 L668.710954,56.5073983 C667.797435,58.8065916 667.131942,61.0886084 666.714473,63.3608101 L666.714473,48.4074655 C667.131942,46.1377176 667.797435,43.8532471 668.710954,41.5565076 L668.710954,41.5565076 Z M666.714228,48.4079563 L666.714228,63.3588471 C666.360608,65.2826118 666.186253,67.1965613 666.186253,69.1006958 L666.186253,54.149805 C666.186253,52.2432168 666.360608,50.3292672 666.714228,48.4079563 L666.714228,48.4079563 Z M731.120263,30.4568269 L731.120263,45.4077176 C730.722441,57.858205 730.523529,64.0834487 730.125706,76.5339361 L730.125706,61.5830454 C730.523529,49.132558 730.722441,42.9073143 731.120263,30.4568269 L731.120263,30.4568269 Z M730.125706,61.5823092 L730.125706,76.5332 C718.434137,62.8779059 702.786441,55.4257714 683.072111,54.4835193 C681.753403,54.4246286 680.422415,54.3951832 679.084061,54.3951832 C675.913757,54.3951832 672.684516,54.5620403 669.391428,54.9006622 L669.391428,39.9473176 C672.684516,39.6086958 675.913757,39.4442924 679.084061,39.4442924 C680.422415,39.4442924 681.753403,39.4737378 683.072111,39.5301748 C702.786441,40.4748807 718.434137,47.9270151 730.125706,61.5823092 L730.125706,61.5823092 Z M640.726086,77.0354891 L640.726086,91.9863798 C640.195656,85.2360269 639.930441,80.4585143 639.908339,77.6955563 L639.908339,62.7446655 C639.930441,65.5051697 640.195656,70.2851361 640.726086,77.0354891 L640.726086,77.0354891 Z M716.712694,109.721822 L716.712694,124.672713 C716.712694,124.535301 716.712694,124.392982 716.710238,124.253116 C716.643934,119.716074 715.605175,115.726225 713.571858,112.438158 C711.229124,108.647066 707.891833,106.411671 703.8252,105.884108 C695.360415,104.767637 679.513808,106.016612 664.219732,103.670797 C655.357124,102.311402 646.450314,96.8983597 640.726086,91.9883429 L640.726086,77.0349983 C646.450314,81.9450151 655.357124,87.3605109 664.219732,88.7174521 C679.513808,91.0632672 695.360415,89.8142924 703.8252,90.9332168 C707.891833,91.4583261 711.229124,93.693721 713.571858,97.4872672 C715.605175,100.775334 716.643934,104.762729 716.710238,109.299771 C716.712694,109.442091 716.712694,109.581956 716.712694,109.721822 L716.712694,109.721822 Z M640.9692,123.526797 L640.9692,138.477687 C640.79239,129.776578 640.681884,125.435839 640.482972,116.734729 L640.482972,101.783839 C640.681884,110.484948 640.79239,114.825687 640.9692,123.526797 L640.9692,123.526797 Z M742.173597,97.8590151 L742.173597,112.809906 C742.173597,114.235553 742.043446,115.6612 741.780686,117.089301 L741.780686,102.13841 C742.043446,100.707855 742.173597,99.2822084 742.173597,97.8590151 L742.173597,97.8590151 Z M741.779949,102.138165 L741.779949,117.089055 C741.470532,118.769896 740.981848,120.45319 740.308987,122.141392 L740.308987,107.190501 C740.981848,105.502299 741.470532,103.819005 741.779949,102.138165 L741.779949,102.138165 Z M740.308251,107.190255 L740.308251,122.141146 C739.416833,124.376541 738.20863,126.621751 736.678732,128.871869 L736.678732,113.920978 C738.20863,111.668407 739.416833,109.42565 740.308251,107.190255 L740.308251,107.190255 Z M736.678241,113.920487 L736.678241,128.871378 C735.386544,130.775513 733.864013,132.682101 732.115557,134.598504 C728.579354,138.566269 723.252949,143.38795 716.114241,149.132252 C713.174772,151.475613 709.970089,153.887681 706.50019,156.343916 L706.50019,141.390571 C709.970089,138.93679 713.174772,136.524723 716.114241,134.178908 C723.252949,128.437059 728.579354,123.615378 732.115557,119.647613 C733.864013,117.73121 735.386544,115.822168 736.678241,113.920487 L736.678241,113.920487 Z M706.499453,141.391062 L706.499453,156.341953 C705.833959,156.354222 705.16601,156.359129 704.495605,156.359129 C702.403352,156.359129 700.276719,156.305146 698.100972,156.189818 C675.292466,154.962928 656.219073,149.152373 640.9692,138.478424 L640.9692,123.527533 C656.219073,134.201482 675.292466,140.009583 698.100972,141.236474 C700.276719,141.354255 702.403352,141.408239 704.495605,141.408239 C705.16601,141.408239 705.833959,141.400877 706.499453,141.391062 L706.499453,141.391062 Z M782.350997,61.5604706 L782.350997,76.5113613 C779.632542,75.8120336 776.914086,75.3286387 774.217732,75.066084 C772.64363,74.9164034 771.111276,74.8427899 769.623124,74.8427899 C761.192719,74.8427899 754.100668,77.2106891 748.315048,81.9047731 L748.315048,66.9514286 C754.100668,62.2597983 761.192719,59.8918992 769.623124,59.8918992 C771.111276,59.8918992 772.64363,59.9655126 774.217732,60.1127395 C776.914086,60.3777479 779.632542,60.8586891 782.350997,61.5604706 L782.350997,61.5604706 Z M748.314803,66.9526555 L748.314803,81.9035462 C747.276043,73.202437 746.767714,68.8396134 745.728954,60.1385042 L745.728954,45.1876134 C746.767714,53.8887227 747.276043,58.2515462 748.314803,66.9526555 L748.314803,66.9526555 Z M841.93601,55.8176403 L841.93601,70.7685311 C839.65958,75.6368336 838.510314,78.0906151 836.233884,82.9564639 L836.233884,68.0055731 C838.510314,63.1397244 839.65958,60.6834891 841.93601,55.8176403 L841.93601,55.8176403 Z M871.662213,70.3938387 L871.662213,85.3447294 C871.576263,85.4698723 871.490314,85.5950151 871.40682,85.7177042 L871.40682,70.7668134 C871.490314,70.6416706 871.576263,70.5165277 871.662213,70.3938387 L871.662213,70.3938387 Z M864.179215,88.3861916 L864.179215,103.337082 C863.624228,106.35278 863.346734,109.483805 863.346734,112.732612 L863.346734,97.7792672 C863.346734,94.5329143 863.624228,91.4018891 864.179215,88.3861916 L864.179215,88.3861916 Z M784.571684,100.32482 L784.571684,115.275711 C784.571684,112.996148 784.547127,110.65524 784.495557,108.250534 C784.296646,98.3887866 783.567304,87.8228034 782.351734,76.5133244 L782.351734,61.5599798 C783.567304,72.8719126 784.296646,83.435442 784.495557,93.2996437 C784.547127,95.7018958 784.571684,98.0428034 784.571684,100.32482 L784.571684,100.32482 Z M933.995886,129.246316 L933.995886,144.197207 C933.995886,143.277039 933.978696,142.334787 933.944316,141.372904 C933.590696,132.033812 931.424772,121.18319 927.424443,108.931459 C923.777734,97.7078622 911.157911,90.1035933 889.631278,86.7271899 C883.646747,85.8045681 877.789911,85.3457109 872.060772,85.3457109 L871.662949,85.3457109 L871.662949,70.3948202 C871.795557,70.3923664 871.928165,70.3923664 872.060772,70.3923664 C877.789911,70.3923664 883.646747,70.8536773 889.631278,71.7738454 C911.157911,75.1502487 923.777734,82.7569714 927.424443,93.9805681 C931.424772,106.232299 933.590696,117.082921 933.944316,126.41956 C933.978696,127.383896 933.995886,128.326148 933.995886,129.246316 L933.995886,129.246316 Z M971.805749,132.413657 L971.805749,147.364548 C971.805749,142.623842 971.717344,138.133422 971.538078,133.898195 C971.38337,130.104649 971.073952,126.664447 970.742433,123.661018 C969.526863,112.373624 963.824737,100.909556 953.23823,89.8405479 L953.23823,74.8872034 C963.824737,85.9562118 969.526863,97.420279 970.742433,108.710128 C971.073952,111.711103 971.38337,115.153758 971.538078,118.94485 C971.717344,123.180077 971.805749,127.670497 971.805749,132.413657 L971.805749,132.413657 Z M1074.66234,101.10316 L1074.66234,116.05405 C1073.64568,119.079563 1072.73953,122.149244 1071.94388,125.238555 C1071.26611,127.954891 1070.68657,130.600067 1070.21507,133.17163 L1070.21507,118.218286 C1070.68657,115.649176 1071.26611,113.004 1071.94388,110.287664 C1072.73953,107.195899 1073.64568,104.128672 1074.66234,101.10316 L1074.66234,101.10316 Z M1070.21483,118.219267 L1070.21483,133.170158 C1069.39463,137.63604 1068.89366,141.873721 1068.73895,145.866024 C1068.57442,150.273015 1068.50075,154.689822 1068.50075,159.11399 L1068.50075,144.160645 C1068.50075,139.736477 1068.57442,135.319671 1068.73895,130.912679 C1068.89366,126.92283 1069.39463,122.682696 1070.21483,118.219267 L1070.21483,118.219267 Z M1055.43424,146.06159 L1055.43424,161.012481 C1055.43424,159.427338 1055.39004,157.76122 1055.30163,156.014128 C1054.61649,142.861859 1051.85383,127.430027 1047.03576,109.765254 L1047.03576,94.8119092 C1051.85383,112.479136 1054.61649,127.910968 1055.30163,141.063237 C1055.39004,142.807876 1055.43424,144.473993 1055.43424,146.06159 L1055.43424,146.06159 Z M812.276111,149.501301 L812.276111,164.452192 C798.529124,163.882914 791.633529,163.664528 777.842339,163.335721 L777.842339,148.382376 C791.633529,148.711183 798.529124,148.932024 812.276111,149.501301 L812.276111,149.501301 Z M912.637714,166.422824 L912.637714,181.373714 C908.836296,181.066992 905.123284,180.630218 901.542878,180.060941 C880.170954,176.596202 863.86022,168.35395 852.964296,154.939126 C844.145891,144.090958 839.548828,131.17916 839.151005,116.319059 C839.131359,115.627092 839.121537,114.942487 839.121537,114.265244 L839.121537,99.3118992 C839.121537,99.9915966 839.131359,100.676202 839.151005,101.365714 C839.548828,116.228269 844.145891,129.137613 852.964296,139.988235 C863.86022,153.403059 880.170954,161.645311 901.542878,165.107597 C905.123284,165.676874 908.836296,166.116101 912.637714,166.422824 L912.637714,166.422824 Z M991.694187,177.382639 L991.694187,192.333529 C983.030491,191.040387 978.698643,190.404857 970.012846,189.222134 L970.012846,174.271244 C978.698643,175.453966 983.030491,176.089496 991.694187,177.382639 L991.694187,177.382639 Z M1071.50161,207.653469 L1071.50161,222.60436 C1049.00252,187.952057 1015.96113,158.754511 986.787461,129.974108 L986.787461,115.020763 C1015.96113,143.801166 1049.00252,172.998713 1071.50161,207.653469 L1071.50161,207.653469 Z M1148.0383,139.330622 L1148.0383,154.281513 C1142.07095,147.00605 1130.6225,140.955025 1113.60452,136.484235 L1113.60452,121.530891 C1130.6225,126.004134 1142.07095,132.052706 1148.0383,139.330622 L1148.0383,139.330622 Z M1092.36545,172.902524 L1092.36545,187.853415 C1092.36545,182.268608 1092.20338,176.497314 1091.87923,170.546894 C1090.90677,152.923835 1088.49773,136.132608 1084.67421,120.175667 L1084.67421,105.224776 C1088.49773,121.181718 1090.90677,137.970491 1091.87923,155.596003 C1092.20338,161.546424 1092.36545,167.315264 1092.36545,172.902524 L1092.36545,172.902524 Z M1149.011,175.651005 L1149.011,190.601896 C1139.88317,187.623005 1128.56733,184.29077 1115.08555,180.718064 L1115.08555,165.764719 C1128.56733,169.337425 1139.88317,172.669661 1149.011,175.651005 L1149.011,175.651005 Z M1151.6629,219.051529 L1151.6629,234.00242 C1147.13214,232.073748 1140.43546,229.816269 1131.55075,227.229983 C1119.74868,223.811866 1106.1343,220.435462 1090.66341,217.191563 L1090.66341,202.238218 C1106.1343,205.484571 1119.74868,208.858521 1131.55075,212.279092 C1140.43546,214.865378 1147.13214,217.122857 1151.6629,219.051529 L1151.6629,219.051529 Z" id="Combined-Shape" fill="url(#linearGradient-2)"></path>
                <path d="M128.440846,82.6688807 C127.225276,95.3598387 126.606441,101.717587 125.390871,114.430629 C118.421605,107.778427 109.573732,104.39957 98.852162,104.397116 C93.3219342,104.397116 87.2956557,105.297654 80.7684152,107.108545 C76.4365671,108.293721 71.9942127,109.893587 67.3971494,111.844343 C64.9439089,117.497855 63.5957316,122.714595 63.3084152,127.516645 C62.7779848,136.656982 66.8888203,141.63325 75.3978076,142.202528 C75.8128203,142.229519 76.259757,142.244242 76.7386177,142.244242 C84.8448709,142.244242 101.875124,138.234763 127.733605,131.177687 C132.816896,134.639973 135.203833,139.900881 134.850213,146.913788 C134.474491,154.257956 130.695175,162.762763 123.468061,172.494461 C119.732947,177.60078 114.163428,184.176914 106.781605,192.244948 C103.73163,195.574729 100.416441,199.017385 96.880238,202.590091 C94.1838835,203.532343 91.4433266,204.366629 88.6585671,205.132208 C77.3500861,208.177351 67.0950987,209.723234 57.9009722,209.723234 C49.0211747,209.723234 41.1285671,208.28041 34.2231494,205.353049 C34.6209722,196.605318 34.8198835,192.244948 35.1956051,183.519301 C41.3839595,186.699402 50.3349722,188.713956 62.0928456,189.678292 C65.7444658,189.985015 69.2315544,190.139603 72.5590228,190.139603 C79.945757,190.139603 86.5294785,189.378931 92.3052759,187.837956 C98.2284152,186.238091 102.339251,183.958528 104.505175,180.977183 C107.22363,177.230259 108.726516,172.516545 109.013833,166.92683 C109.256947,162.367704 108.505504,158.662494 106.737403,155.990326 C105.096997,153.514461 102.739529,152.238494 99.8270734,152.238494 C99.1272,152.238494 98.3929468,152.312108 97.631681,152.459334 C89.3658076,154.03957 74.5579595,160.306528 59.1091747,162.784847 C57.6136557,163.027771 56.0935797,163.140645 54.5784152,163.140645 C47.9333013,163.140645 41.3422127,160.993587 37.0963139,158.422024 C37.0300101,151.760007 37.0742127,147.024208 37.2510228,144.24162 C37.936162,132.841351 40.7430228,124.380713 45.6495038,118.85725 C57.6062886,108.70841 63.5736304,103.690427 75.5083139,93.7378891 C96.6150228,89.0045445 107.201529,86.7887798 128.440846,82.6688807 L128.440846,82.6688807 Z M204.601808,80.7836403 C204.248187,87.3376908 204.071377,90.625758 203.717757,97.1798084 C200.876516,94.9076067 196.453808,93.7469681 190.456997,93.7469681 C184.882567,93.7469681 177.950137,94.7481109 169.659706,96.7847496 C168.598846,109.981187 168.068415,116.557321 167.029656,129.751304 C181.130263,126.551573 192.799732,123.680649 201.971757,121.006027 C201.529732,126.200682 201.308719,128.786968 200.866694,133.959539 C191.606263,135.669825 180.135706,138.126061 166.477124,141.433758 C165.769884,151.911405 165.416263,157.128145 164.709023,167.605792 C164.620618,169.382329 165.305757,170.741724 166.764441,171.683976 C167.682871,172.263069 168.699529,172.557523 169.819327,172.557523 C170.474997,172.557523 171.165048,172.456918 171.891934,172.253254 C182.942567,169.271909 188.467884,167.826632 199.540618,164.997422 C199.319605,169.863271 199.209099,172.297422 199.010187,177.163271 C194.457327,177.558329 187.694339,178.696884 178.699124,180.669724 C166.742339,183.300178 152.929048,186.872884 137.303453,191.54243 C140.596542,176.198934 142.651959,160.043237 143.491808,142.991909 C144.353757,125.410565 143.646516,109.387371 141.392187,94.9885815 C166.609732,88.8713042 179.251656,86.0224639 204.601808,80.7836403 L204.601808,80.7836403 Z M332.589992,153.446982 C320.478499,155.221066 314.422752,156.163318 302.333359,158.114074 C299.460195,147.967687 295.504068,137.072897 290.509182,125.49841 C275.369815,127.910477 267.811182,129.181536 252.716018,131.878242 C245.4226,147.373872 241.289663,159.561805 240.339309,168.395418 C228.183613,171.354679 222.127866,172.910376 210.016372,176.068393 C215.254372,170.039452 220.602878,162.805704 226.061891,154.345066 C241.223359,131.176461 252.207689,106.035015 263.192018,80.7389815 C263.324625,80.1697042 263.41303,79.5341748 263.435132,78.8765613 C263.567739,75.1934353 260.60617,71.512763 254.572524,67.829637 C267.612271,64.6937042 274.154246,63.2042588 287.216094,60.2891664 C293.382347,75.3038555 299.172878,88.6524269 304.543486,100.312797 C317.472727,128.501839 326.887866,146.279486 332.589992,153.446982 L332.589992,153.446982 Z M512.640656,41.1464807 C515.197035,41.1464807 517.726403,41.1931025 520.228757,41.2838924 C520.62658,49.2415059 520.80339,53.2092706 521.179111,61.166884 C512.760985,57.1304134 502.606681,55.0741445 490.721111,55.0741445 C488.722175,55.0716908 486.67658,55.1305815 484.579415,55.248363 C477.042884,55.6851361 472.423719,56.5856739 470.677719,57.9229849 C465.439719,61.9103798 462.743365,69.7796571 462.566554,81.528363 C462.522352,85.0593546 462.699162,89.0467496 463.141187,93.4316571 C464.865086,111.361439 474.678048,122.648834 492.668478,127.691355 C498.657922,129.440901 505.565795,130.292363 513.369997,130.292363 C515.243694,130.292363 517.168959,130.243287 519.145795,130.14759 C514.018301,134.85885 511.454554,137.22675 506.327061,141.982178 C503.286909,142.171119 500.337618,142.264363 497.486554,142.264363 C476.745744,142.264363 461.080858,137.261103 450.742377,126.837439 C441.680858,117.719187 437.326909,105.575422 437.592124,90.5165647 C437.680529,84.6422118 438.542478,79.2046319 440.089567,74.2087328 C441.526149,69.5833546 443.183744,66.557842 445.040251,65.1984471 C463.627415,52.0486319 474.965365,45.2295731 478.987795,44.287321 C484.734124,42.9279261 492.491668,41.8556235 502.105719,41.3943126 C505.656656,41.2299092 509.170757,41.1464807 512.640656,41.1464807 L512.640656,41.1464807 Z M370.029782,49.4169513 C369.897175,54.810363 369.830871,57.5046151 369.698263,62.8980269 C378.826086,55.4017244 388.042314,51.1934891 397.391149,50.2291529 C398.982441,50.0745647 400.507428,49.9641445 401.988213,49.9199765 C411.125858,49.9199765 416.874643,52.2878756 419.359808,56.8911697 C420.420668,58.6897916 421.017403,62.942195 421.127909,69.6925479 C421.194213,73.0026992 419.669225,77.0146319 416.663453,81.7038084 C412.707327,87.884884 407.115706,93.1016235 399.866491,97.2460605 C404.330947,108.072145 411.823276,119.514128 422.36558,131.635808 C429.902111,140.251035 438.632111,148.822094 448.577681,157.371069 C452.75482,160.811271 456.998263,164.273556 461.330111,167.738296 C460.821782,167.89043 460.136643,168.00085 459.252592,168.067103 C458.685327,168.106363 458.100871,168.125993 457.504137,168.125993 C448.639073,168.125993 436.431808,163.861321 422.498187,155.155304 C402.275529,142.530598 385.854289,121.138531 370.935934,102.264044 C375.135175,101.015069 378.870289,99.7660941 382.097073,98.5171193 C389.810415,95.3370185 394.42958,92.4881782 395.976668,89.9018924 C398.518314,85.7599092 399.84439,81.4191697 399.932795,76.8600437 C400.0212,72.9806151 399.225554,69.6042118 397.590061,66.7332874 C395.932466,63.840279 393.744441,62.1079092 391.070187,61.4944639 C390.419428,61.312884 389.599225,61.2171866 388.607124,61.2171866 C387.914618,61.2171866 387.136162,61.2638084 386.274213,61.3619597 C375.5772,62.5029681 369.300441,68.6840437 367.620744,79.5788336 C366.869301,84.5109345 366.427276,90.3632034 366.272567,97.0252202 C365.874744,112.238666 367.046111,129.48875 369.786668,148.777926 C357.697276,151.167909 351.66363,152.416884 339.596339,155.00317 C342.182187,136.985052 343.685073,120.809724 344.082896,106.516447 C344.745934,82.2313714 342.557909,65.592279 337.563023,56.6506992 C350.536466,53.6472706 357.034238,52.1995395 370.029782,49.4169513 L370.029782,49.4169513 Z M561.514904,37.9970521 C560.807663,50.5137916 560.454043,56.7611193 559.724701,69.253321 C563.715208,69.5845815 567.916904,69.7440773 572.3126,69.7440773 C572.857765,69.7440773 573.405385,69.7416235 573.957916,69.736716 C584.456018,69.6262958 594.6226,68.7282118 604.479765,67.0179261 C603.131587,56.0372538 602.468549,50.5579597 601.120372,39.5969176 C613.253967,39.6410857 619.331815,39.7294218 631.46541,39.9698924 C628.967967,60.3976235 627.730296,78.1531866 627.7966,93.1899597 C627.885005,115.678867 630.470853,130.278867 635.620448,137.02922 C626.249511,136.911439 620.00222,136.862363 612.706347,136.862363 C609.059638,136.862363 605.15017,136.874632 600.457334,136.896716 C603.17579,116.20643 604.523967,100.050733 604.501866,88.4345311 C604.501866,85.7819933 604.435562,83.5024303 604.325056,81.6179261 C600.152828,80.7566487 594.013587,80.2757076 585.865587,80.2757076 C585.509511,80.2757076 585.15098,80.2781613 584.787537,80.2806151 C576.853182,80.3026992 568.299992,80.7173882 559.127967,81.5516739 C559.945714,103.316716 560.343537,114.211506 561.161284,135.976548 C555.061334,136.852548 544.51903,138.256111 529.534372,140.405624 C533.424195,119.361993 535.413309,99.7660941 535.523815,81.6179261 C535.634322,65.1113378 534.352448,51.7627664 531.700296,41.5476739 C543.63498,40.0361445 549.58022,39.334363 561.514904,37.9970521 L561.514904,37.9970521 Z M676.640643,24.2973445 C698.432491,26.4444034 709.328415,27.6958319 731.120263,30.4563361 C730.722441,42.9068235 730.523529,49.1320672 730.125706,61.5825546 C718.434137,47.9272605 702.786441,40.4726723 683.072111,39.5304202 C681.753403,39.4715294 680.422415,39.442084 679.084061,39.442084 C675.913757,39.442084 672.684516,39.6089412 669.391428,39.947563 C667.203403,44.8354958 666.142542,49.6571765 666.186744,54.4371429 C666.253048,63.5112269 670.872213,69.8689748 679.889529,73.2650084 C687.713377,76.2242689 705.792213,77.8903866 733.706111,79.2718655 C739.231428,84.444437 742.06039,90.5150924 742.170896,97.5083697 C742.281403,104.80837 738.944111,112.172168 732.11482,119.646387 C728.578618,123.614151 723.252213,128.435832 716.113504,134.180134 C713.174035,136.52595 709.969352,138.935563 706.499453,141.391798 C705.833959,141.401613 705.16601,141.406521 704.495605,141.406521 C702.403352,141.406521 700.276719,141.352538 698.100972,141.23721 C675.292466,140.010319 656.219073,134.202218 640.9692,123.525815 C640.79239,114.824706 640.681884,110.483966 640.482972,101.782857 C647.223858,107.021681 656.793706,112.020034 669.214618,116.885882 C681.613428,121.751731 692.13363,124.468067 700.708922,124.951462 C701.482466,124.993176 702.224086,125.012807 702.933782,125.012807 C707.818162,125.012807 711.18001,124.023933 712.975124,122.014286 C715.538871,119.121277 716.776542,114.84679 716.710238,109.301244 C716.643934,104.764202 715.605175,100.774353 713.571858,97.4862857 C711.229124,93.6951933 707.891833,91.4573445 703.8252,90.9322353 C695.360415,89.8133109 679.513808,91.0647395 664.219732,88.7189244 C655.357124,87.3595294 646.450314,81.9464874 640.726086,77.0364706 C640.195656,70.2836639 639.930441,65.5061513 639.908339,62.7431933 C639.864137,51.4337143 642.228972,43.8049076 647.002846,39.8371429 C658.893327,33.5260168 664.816466,30.4342521 676.640643,24.2973445 L676.640643,24.2973445 Z M745.7292,45.1866319 C777.842339,48.5188672 809.889175,52.047405 841.93601,55.8164134 C839.65958,60.684716 838.510314,63.1384975 836.233884,68.0043462 C831.040086,66.7995395 821.271327,65.2880101 806.883403,63.6636067 C805.004795,76.8158756 804.209149,90.2306992 804.518567,103.863909 C804.938491,122.144582 807.524339,137.358027 812.276111,149.501792 C798.529124,148.932514 791.633529,148.711674 777.842339,148.382867 C782.815124,136.482027 785.025251,118.135103 784.49482,93.3003798 C784.295909,83.4361782 783.566567,72.870195 782.350997,61.560716 C779.632542,60.8589345 776.914086,60.3779933 774.217732,60.1129849 C772.64363,59.965758 771.111276,59.8921445 769.623124,59.8921445 C761.192719,59.8921445 754.100668,62.2575899 748.315048,66.9516739 C747.276289,58.2505647 746.767959,53.8877412 745.7292,45.1866319 L745.7292,45.1866319 Z M956.375873,117.19236 C956.928405,131.088124 953.215392,144.240393 945.14843,156.757133 C940.175646,157.721469 929.390228,160.832864 912.637468,166.422578 C908.836051,166.115855 905.123038,165.676629 901.542633,165.107351 C880.170709,161.645066 863.859975,153.402813 852.964051,139.98799 C844.145646,129.137368 839.548582,116.228024 839.150759,101.365469 C838.929747,93.4961916 839.968506,86.439116 842.244937,80.2359563 C844.410861,74.3174353 847.129316,70.8772336 850.400304,69.8687294 C859.616532,67.0395193 873.076203,59.8499395 883.176481,58.8635193 C884.981418,58.6868471 886.806,58.6034185 888.633038,58.6034185 C909.896911,58.6034185 931.83119,69.8809983 937.855013,76.1577714 C949.590785,88.235284 955.757038,101.95683 956.375873,117.19236 L956.375873,117.19236 Z M953.237739,74.8874487 C963.55903,75.940121 968.730727,76.5093983 979.029916,77.714205 C989.660625,89.6837513 999.451486,100.512289 1008.4467,110.199818 C1030.06174,133.213835 1045.57683,148.18681 1054.90356,154.652524 C1055.43399,150.817264 1055.5666,146.299852 1055.30138,141.061029 C1054.61625,127.911213 1051.85359,112.479382 1047.03551,94.8121546 C1058.10825,97.2463059 1063.63356,98.4952807 1074.66209,101.10365 C1073.64544,104.129163 1072.73928,107.19639 1071.94364,110.288155 C1070.08713,117.718205 1068.98207,124.623146 1068.73895,130.914642 C1067.7886,156.36281 1069.88822,182.139785 1071.50161,207.654205 C1049.00252,172.999449 1015.96113,143.801903 986.787461,115.021499 C988.732372,139.966642 989.726929,152.439213 991.693942,177.381903 C983.030246,176.08876 978.698397,175.45323 970.0126,174.270508 C971.670195,152.591348 972.178524,134.136457 971.537587,118.945096 C971.382878,115.154003 971.073461,111.711348 970.741942,108.707919 C969.526372,97.4205244 963.824246,85.9564571 953.237739,74.8874487 L953.237739,74.8874487 Z M1084.67421,105.223795 C1109.78125,111.888266 1122.29057,115.416803 1147.22079,122.957274 C1147.55231,129.511324 1147.70702,132.777308 1148.03854,139.331358 C1142.0712,132.053442 1130.62274,126.002417 1113.60477,121.531627 C1113.93629,134.529308 1114.091,141.03919 1114.42252,154.039324 C1128.39052,157.962921 1139.81687,160.963896 1148.76788,162.895022 C1148.87839,168.001341 1148.92259,170.543459 1149.011,175.649778 C1139.88317,172.670887 1128.56733,169.338652 1115.08555,165.765946 C1115.46128,176.133173 1115.66019,181.327829 1116.03591,191.717139 C1116.14642,193.493677 1116.98626,195.248131 1118.55545,196.955963 C1120.12464,198.666249 1121.89274,199.741005 1123.79345,200.177778 C1134.66728,202.744434 1140.08209,204.079291 1150.91171,206.820165 C1151.22112,211.708097 1151.37583,214.142249 1151.66315,219.052266 C1147.13239,217.123593 1140.43571,214.863661 1131.551,212.277375 C1119.74892,208.859257 1106.13454,205.482854 1090.66366,202.238955 C1092.40966,188.210686 1092.80748,172.648803 1091.87923,155.595022 C1090.90677,137.971963 1088.49773,121.180736 1084.67421,105.223795 L1084.67421,105.223795 Z M921.500076,156.997603 C930.384785,152.350141 934.517722,142.201301 933.943089,126.421032 C933.589468,117.081939 931.423544,106.231318 927.423215,93.9795866 C923.776506,82.7559899 911.156684,75.151721 889.630051,71.7753176 C883.647975,70.8526958 877.791139,70.3938387 872.062,70.3938387 L871.661722,70.3938387 C865.826987,78.8103092 863.042228,88.5223765 863.373747,99.5251328 C863.661063,109.278914 866.711038,119.032696 872.545772,128.830645 C881.983013,144.350813 895.19957,153.402813 912.107038,156.22957 C915.193848,156.76204 917.966329,157.01478 920.407291,157.01478 C920.780557,157.01478 921.144,157.009872 921.500076,156.997603 L921.500076,156.997603 Z M258.838068,119.383587 C269.51298,117.499082 274.861486,116.600998 285.536397,114.868629 C281.668676,106.670545 277.889359,99.3484605 274.242651,92.9048303 C271.78941,96.7180067 266.661916,105.529536 258.838068,119.383587 L258.838068,119.383587 Z" id="Combined-Shape" fill="#F8DA1C"></path>
                <polygon id="Path-189-Copy-8" fill="#FFFFFF" opacity="0.0707206157" points="398.708984 193.354492 399.77832 214.875 467.959961 230.826172 467.959961 208.401367"></polygon>
                <path d="M469.375,209.262695 L469.375,230.923828 L507.917969,203.133789 L507.917969,181.152344 L469.375,209.262695 Z M84.0273438,248.824219 L96.6054688,263.578125 L121.976562,250.609375 L118.84375,229.851562 L84.0273438,248.824219 Z M144,236.972656 L144,255.753906 L282.40625,213.105469 L282.40625,194.484375 L144,236.972656 Z M714,184.199219 L714,201.5625 L745.9375,184.199219 L744.261719,166 L714,184.199219 Z M765,190.199219 L765,208.5625 L837.984375,200.570312 L838.414062,183.207031 L765,190.199219 Z M892,209.992188 L890,229.355469 L944.984375,230.363281 L942.414062,210 L892,209.992188 Z M966,222 L968,240.363281 L1024.60938,223 L1022.60938,205.027344 L966,222 Z M1058.99609,243.878906 L1053.54297,256.351562 L1145.58984,281.335938 L1164.6875,265.107422 L1058.99609,243.878906 Z" id="Combined-Shape" fill="#000000" opacity="0.300664646"></path>
            </g>
        </g>
    </g>
</svg>