<?xml version="1.0" encoding="UTF-8" standalone="no"?>
<svg width="474px" height="119px" viewBox="0 0 474 119" version="1.1" xmlns="http://www.w3.org/2000/svg" xmlns:xlink="http://www.w3.org/1999/xlink">
    <!-- Generator: Sketch 3.7.2 (28276) - http://www.bohemiancoding.com/sketch -->
    <title>logo searchstone</title>
    <desc>Created with Sketch.</desc>
    <defs>
        <linearGradient x1="29.5422143%" y1="-32.7068852%" x2="67.5454065%" y2="77.8665517%" id="linearGradient-1">
            <stop stop-color="#BB7D0C" offset="-8.7219454%"></stop>
            <stop stop-color="#B87A0B" offset="0%"></stop>
            <stop stop-color="#9F5100" offset="100%"></stop>
        </linearGradient>
        <radialGradient cx="47.9579137%" cy="-19.8705805%" fx="47.9579137%" fy="-19.8705805%" r="62.8375754%" id="radialGradient-2">
            <stop stop-color="#FBE25F" offset="0%"></stop>
            <stop stop-color="#F4C131" offset="100%"></stop>
        </radialGradient>
    </defs>
    <g id="Page-1" stroke="none" stroke-width="1" fill="none" fill-rule="evenodd">
        <g id="logo-searchstone">
            <polygon id="Stroke-1" fill="#2E2917" points="49.7949224 35.4355459 23.6816412 37.575799 0.1274 59.4298 0.1274 101.115234 2.93750008 110.554687 30.2226555 109.291013 44.7089849 102.476804 53.6816412 105.16406 108.855465 87.9067964 156.4194 87.9068 185.431645 94.5298004 201.207036 83.2707977 254.861332 80.1699219 284.529286 83.2707977 298.007802 76.7128906 304.689442 85.6914062 335.355458 83.2707977 356.787098 94.5298004 379.22656 94.5297999 387.191404 100.035156 411.56445 91.8807978 424.509763 107.687499 468.76952 118.132812 473.07031 111.554688 473.07031 57.1816401 419.923825 37.5757994 408.736387 43.589847 379.22656 30.0839838 342.474607 25.1933588 304.68945 20.671875 270.960935 10.3183594 246.863279 17.7077999 197.617185 17.7077997 173.089841 25.1933592 153.402341 20.6718748 124.679685 25.1933592 119.228513 33.0683592 114.582029 27.6417998 91.0468724 33.0683592 85.4843724 43.5898455 82.0742161 35.4355467 61.1835943 40.5117197"></polygon>
            <g id="Page-1">
                <polygon id="Stroke-1" fill="#564A2C" points="49.7949224 25.4355459 23.6816412 27.575799 0.1274 49.4298 0.1274 100.291016 27.2226555 100.291013 42.7089849 92.4768038 52.6816412 95.1640596 108.855465 77.9067964 156.4194 77.9068 185.431645 84.5298004 201.207036 73.2707977 254.861332 70.1699219 284.529286 73.2707977 298.007802 66.7128906 304.689442 75.6914062 335.355458 73.2707977 356.787098 84.5298004 379.22656 84.5297999 387.191404 90.0351557 411.56445 81.8807978 424.509763 97.6874995 473.07031 110.423828 473.07031 47.1816401 419.923825 27.5757994 408.736387 33.589847 379.22656 20.0839838 342.474607 15.1933588 304.68945 10.671875 270.960935 0.318359368 246.863279 7.70779989 197.617185 7.70779974 173.089841 15.1933592 153.402341 10.6718748 124.679685 15.1933592 119.228513 23.0683592 114.582029 17.6417998 91.0468724 23.0683592 85.4843724 33.5898455 82.0742161 25.4355467 61.1835943 30.5117197"></polygon>
                <path d="M16.5383,74.66 C17.4383,74.66 18.3263,74.59 19.1773,74.451 C23.3353,73.774 27.2903,72.511 30.4683,71.496 C31.6453,71.12 32.7783,70.758 33.7133,70.497 C33.7143,70.634 33.7113,70.786 33.7023,70.955 C33.6333,72.256 33.3383,73.288 32.8243,74.023 C32.7363,74.1 32.1963,74.532 30.5803,74.969 C28.6773,75.483 26.4053,75.744 23.8283,75.744 C22.6263,75.744 21.3383,75.687 19.9983,75.574 C16.2743,75.262 13.8743,74.712 12.3433,74.179 C13.7353,74.492 15.1613,74.66 16.5383,74.66 M25.6473,52.414 C26.6313,52.045 27.5963,51.728 28.5313,51.466 C30.7333,50.85 32.7583,50.538 34.5493,50.538 C37.2713,50.539 39.4823,51.255 41.2803,52.724 C36.0053,54.141 28.3583,56.078 25.5413,56.078 C25.4683,56.078 25.4003,56.077 25.3373,56.073 C25.2353,56.066 25.1493,56.057 25.0773,56.046 C25.0603,55.879 25.0513,55.641 25.0703,55.318 C25.1213,54.436 25.3143,53.464 25.6473,52.414 M46.6043,31.614 C46.2843,31.614 45.9623,31.644 45.6433,31.707 C36.8883,33.422 32.6293,34.321 23.9413,36.29 C23.1643,36.466 22.4413,36.825 21.8313,37.337 C16.9183,41.462 14.5253,43.491 9.6383,47.675 C9.4603,47.827 9.2933,47.992 9.1393,48.167 C6.3963,51.279 4.8263,55.797 4.4753,61.595 C4.3973,62.88 4.3733,64.901 4.4013,67.774 C4.4173,69.504 5.3273,71.102 6.8063,72 C7.4283,72.378 8.0963,72.721 8.7963,73.026 C8.7423,73.024 8.6873,73.023 8.6333,73.023 C7.7683,73.023 6.9053,73.247 6.1323,73.693 C4.6543,74.547 3.7143,76.096 3.6383,77.801 L3.2403,86.769 C3.1473,88.851 4.3553,90.771 6.2713,91.59 C9.6813,93.045 13.5843,93.784 17.8743,93.784 C22.0213,93.784 26.6773,93.09 31.7133,91.721 C32.9513,91.385 34.1903,91.001 35.3973,90.579 C36.1203,90.327 36.7763,89.911 37.3133,89.365 C38.8073,87.847 40.2073,86.372 41.4763,84.981 C44.6633,81.467 46.9983,78.676 48.6233,76.437 C52.1693,71.62 54.0013,67.296 54.2033,63.244 C54.4273,58.771 52.7263,55.002 49.4073,52.594 C49.9193,51.886 50.2473,51.043 50.3333,50.139 L51.5813,37.089 C51.7313,35.518 51.1313,33.969 49.9613,32.909 C49.0333,32.068 47.8343,31.614 46.6043,31.614 M46.6043,36.614 C46.1053,41.833 45.8563,44.443 45.3563,49.663 C42.5183,46.926 38.9153,45.539 34.5503,45.538 C32.2983,45.538 29.8433,45.907 27.1853,46.651 C25.4273,47.143 23.6133,47.792 21.7453,48.6 C20.7493,50.914 20.1923,53.06 20.0783,55.029 C19.8613,58.788 21.5343,60.829 25.0023,61.061 C25.1693,61.073 25.3493,61.078 25.5413,61.078 C28.8363,61.078 35.7773,59.437 46.3183,56.533 C48.3863,57.956 49.3533,60.113 49.2103,62.994 C49.0593,66.013 47.5173,69.506 44.5763,73.5 C43.0513,75.601 40.7873,78.298 37.7823,81.612 C36.5383,82.976 35.1933,84.391 33.7493,85.859 C32.6543,86.241 31.5393,86.587 30.4013,86.896 C25.7963,88.148 21.6193,88.784 17.8743,88.784 C14.2603,88.784 11.0473,88.192 8.2353,86.991 C8.3943,83.404 8.4743,81.61 8.6333,78.023 C11.1483,79.329 14.7933,80.155 19.5813,80.557 C21.0613,80.681 22.4773,80.744 23.8283,80.744 C26.8423,80.744 29.5303,80.432 31.8843,79.796 C34.3033,79.142 35.9733,78.207 36.8563,76.981 C37.9643,75.44 38.5743,73.506 38.6953,71.218 C38.7943,69.341 38.4873,67.819 37.7653,66.722 C37.0943,65.705 36.1303,65.181 34.9393,65.181 C34.6573,65.181 34.3623,65.211 34.0553,65.27 C30.6933,65.919 24.6583,68.493 18.3733,69.516 C17.7683,69.615 17.1523,69.66 16.5383,69.66 C13.8243,69.66 11.1333,68.778 9.4003,67.726 C9.3743,64.989 9.3963,63.046 9.4663,61.898 C9.7493,57.219 10.8913,53.741 12.8903,51.473 C17.7533,47.31 20.1843,45.249 25.0463,41.166 C33.6413,39.219 37.9533,38.308 46.6043,36.614" id="Fill-3" fill="#332D1E"></path>
                <path d="M67.8658005,46.571 C69.3078005,46.329 70.5738005,46.207 71.6518005,46.207 C73.3928005,46.207 73.9478005,46.532 73.9538005,46.535 C74.4808005,46.959 75.0758005,47.263 75.7008005,47.441 C75.4418005,47.474 75.1838005,47.528 74.9298005,47.603 C72.9018005,48.199 70.5138005,48.835 67.6308005,49.545 L67.8658005,46.571 Z M77.4118005,30.886 C77.0718005,30.886 76.7298005,30.92 76.3908005,30.991 C65.9388005,33.17 60.8538005,34.322 50.4808005,36.856 C47.9588005,37.472 46.3288005,39.916 46.7278005,42.482 C47.5948005,48.06 47.8648005,54.353 47.5308005,61.184 C47.2018005,67.889 46.3878005,74.325 45.1098005,80.313 C44.7418005,82.042 45.3128005,83.836 46.6128005,85.034 C47.5488005,85.896 48.7628005,86.356 50.0008005,86.356 C50.4818005,86.356 50.9668005,86.287 51.4398005,86.145 C57.4448005,84.339 62.9938005,82.871 67.9348005,81.781 C72.1168005,80.858 74.3928005,80.542 75.5658005,80.439 C78.0668005,80.221 80.0178005,78.181 80.1258005,75.672 L80.2138005,73.608 L80.3398005,70.673 C80.4068005,69.091 79.7218005,67.57 78.4908005,66.573 C77.5908005,65.844 76.4768005,65.459 75.3438005,65.459 C74.9278005,65.459 74.5088005,65.511 74.0968005,65.617 C70.9378005,66.43 68.9008005,66.963 66.4358005,67.627 L66.6258005,64.794 C70.3658005,63.921 73.7758005,63.198 76.8008005,62.637 C79.0148005,62.226 80.6818005,60.386 80.8708005,58.142 L81.3208005,52.821 C81.4598005,51.177 80.7788005,49.57 79.5008005,48.527 C78.9628005,48.088 78.3488005,47.773 77.7008005,47.589 C78.1788005,47.527 78.6518005,47.395 79.1078005,47.192 C80.8208005,46.428 81.9438005,44.754 82.0438005,42.88 L82.4048005,36.153 C82.4878005,34.604 81.8468005,33.103 80.6688005,32.092 C79.7538005,31.306 78.5958005,30.886 77.4118005,30.886 L77.4118005,30.886 Z M77.4118005,35.886 C77.2678005,38.576 77.1958005,39.922 77.0508005,42.613 C75.8948005,41.682 74.0938005,41.207 71.6518005,41.207 C69.3808005,41.207 66.5548005,41.617 63.1758005,42.453 C62.7488005,47.867 62.5348005,50.574 62.1068005,55.989 C67.8508005,54.676 72.5998005,53.499 76.3388005,52.4 C76.1588005,54.528 76.0688005,55.592 75.8888005,57.721 C72.1118005,58.421 67.4408005,59.427 61.8838005,60.787 C61.5948005,65.085 61.4508005,67.233 61.1618005,71.531 C61.1278005,72.262 61.4088005,72.82 62.0028005,73.204 C62.3778005,73.447 62.7938005,73.569 63.2498005,73.569 C63.5148005,73.569 63.7938005,73.528 64.0868005,73.445 C68.5848005,72.217 70.8358005,71.62 75.3438005,70.459 C75.2588005,72.459 75.2158005,73.459 75.1298005,75.458 C73.2798005,75.62 70.5208005,76.09 66.8568005,76.898 C61.9888005,77.973 56.3678005,79.442 49.9998005,81.356 C51.3418005,75.065 52.1818005,68.424 52.5248005,61.429 C52.8788005,54.205 52.5888005,47.632 51.6678005,41.713 C61.9348005,39.205 67.0848005,38.039 77.4118005,35.886 L77.4118005,35.886 Z" id="Fill-5" fill="#332D1E"></path>
                <path d="M111.2603,22.4268 C110.8973,22.4268 110.5303,22.4668 110.1643,22.5488 C104.7773,23.7568 102.1523,24.3698 96.7853,25.6698 C94.8223,26.1458 93.3373,27.7558 93.0233,29.7518 C92.7093,31.7478 93.6273,33.7368 95.3503,34.7918 C95.7213,35.0198 96.0043,35.2178 96.2183,35.3818 C92.1583,44.8068 87.8993,54.4758 82.1603,63.3318 C80.0653,66.6058 78.0093,69.4138 76.0333,71.7018 C74.6003,73.3608 74.4153,75.7588 75.5763,77.6178 C76.5053,79.1058 78.1223,79.9698 79.8173,79.9698 C80.2413,79.9698 80.6693,79.9158 81.0933,79.8038 C86.0193,78.5038 88.4283,77.8878 93.3683,76.6668 C95.4083,76.1618 96.9163,74.4348 97.1393,72.3448 C97.3383,70.4838 98.1323,67.1028 100.6793,61.2828 C103.9523,60.6988 106.4023,60.2788 109.4823,59.7748 C110.7463,62.9958 111.7913,66.0698 112.6003,68.9508 C113.2143,71.1368 115.2043,72.6008 117.4103,72.6008 C117.6783,72.6008 117.9503,72.5788 118.2233,72.5338 C123.1373,71.7288 125.5413,71.3538 130.4693,70.6258 C132.2353,70.3658 133.7283,69.1838 134.3863,67.5248 C135.0453,65.8668 134.7693,63.9828 133.6643,62.5818 C132.4763,61.0768 129.4943,56.3758 122.8663,41.7918 C120.6953,37.0408 118.3483,31.5768 115.8883,25.5408 C115.1083,23.6268 113.2553,22.4268 111.2603,22.4268 M99.7053,51.6898 C104.0503,50.9188 106.2253,50.5488 110.5783,49.8408 C108.9993,46.4718 107.4643,43.4638 105.9713,40.8168 C104.9733,42.3908 102.8903,46.0058 99.7053,51.6898 M111.2583,27.4278 C113.7703,33.5918 116.1253,39.0708 118.3143,43.8608 C123.5753,55.4358 127.4113,62.7318 129.7393,65.6798 C124.8053,66.4088 122.3403,66.7928 117.4143,67.5998 C116.2433,63.4268 114.6363,58.9588 112.5993,54.2068 C106.4353,55.1928 103.3563,55.7168 97.2083,56.8268 C94.2403,63.1878 92.5553,68.1918 92.1683,71.8128 C87.2233,73.0358 84.7523,73.6668 79.8173,74.9698 C81.9533,72.4958 84.1343,69.5228 86.3563,66.0508 C92.5263,56.5308 97.0043,46.2078 101.4713,35.8258 C101.5283,35.5898 101.5633,35.3338 101.5733,35.0588 C101.6273,33.5518 100.4213,32.0358 97.9633,30.5288 C103.2763,29.2418 105.9353,28.6218 111.2583,27.4278" id="Fill-7" fill="#332D1E"></path>
                <path d="M148.6893,38.2041 C148.7603,37.4431 148.8443,36.7431 148.9423,36.1051 C149.3153,33.6621 150.2673,33.0661 151.9953,32.8531 C152.1173,33.1951 152.1743,33.6231 152.1633,34.1301 C152.1443,35.0311 151.8963,35.8931 151.4063,36.7591 C151.1553,36.9511 150.4223,37.4441 148.6893,38.2041 M144.9783,17.9651 C144.6273,17.9651 144.2733,18.0021 143.9233,18.0781 C138.5733,19.2331 135.9633,19.8191 130.6243,21.0641 C129.0973,21.4211 127.8263,22.4721 127.1903,23.9051 C126.5543,25.3371 126.6273,26.9851 127.3863,28.3561 C128.2813,29.9721 129.7343,34.4481 129.4123,46.2701 C129.2583,51.9411 128.6603,58.4471 127.6363,65.6091 C127.4043,67.2291 127.9803,68.8601 129.1773,69.9761 C130.1123,70.8461 131.3343,71.3171 132.5853,71.3171 C132.9373,71.3171 133.2913,71.2801 133.6423,71.2041 C138.5503,70.1431 140.9493,69.6441 145.8643,68.6601 C148.4633,68.1401 150.2053,65.6831 149.8343,63.0581 C149.5583,61.1021 149.3223,59.1931 149.1263,57.3351 C153.4233,62.3551 158.1903,67.1531 163.6783,70.6101 C170.0043,74.5951 175.8553,76.7021 180.5973,76.7021 C180.9573,76.7021 181.3163,76.6891 181.6643,76.6651 C182.3693,76.6161 182.9793,76.5161 183.5303,76.3591 C185.3233,75.8471 186.6833,74.3791 187.0563,72.5521 C187.4303,70.7241 186.7553,68.8411 185.3053,67.6661 C183.5783,66.2671 181.8623,64.8581 180.2053,63.4781 C176.3503,60.1351 172.9423,56.7611 170.0773,53.4481 C167.3073,50.2431 165.0983,47.1641 163.4773,44.2541 C165.3453,42.6841 166.9213,40.8951 168.1873,38.9031 C169.9803,36.0811 170.8323,33.5601 170.7913,31.1981 C170.7243,27.4021 170.3283,25.1891 169.4303,23.6071 C168.0663,21.1111 164.9863,18.1921 158.0463,18.1921 L157.9853,18.1921 C157.9453,18.1921 157.9053,18.1841 157.8653,18.1851 C157.1303,18.2041 156.3703,18.2501 155.6063,18.3291 C153.3953,18.5571 151.2033,19.1331 149.0423,20.0541 C148.7943,19.7081 148.5013,19.3911 148.1663,19.1151 C147.2613,18.3661 146.1313,17.9651 144.9783,17.9651 M144.9783,22.9651 C144.9243,25.1781 144.8973,26.2841 144.8423,28.4971 C148.5603,25.4261 152.3153,23.7001 156.1203,23.3071 C156.7703,23.2391 157.3963,23.1921 157.9963,23.1921 L158.0463,23.1921 C161.7133,23.1921 164.0543,24.1501 165.0643,26.0461 C165.5013,26.7781 165.7433,28.5241 165.7913,31.2891 C165.8153,32.6491 165.1923,34.2951 163.9673,36.2231 C162.3563,38.7581 160.0833,40.9011 157.1353,42.6071 C158.9493,47.0541 161.9963,51.7451 166.2963,56.7201 C169.3593,60.2621 172.9163,63.7781 176.9683,67.2891 C178.6693,68.7061 180.3993,70.1261 182.1583,71.5511 C181.9533,71.6101 181.6723,71.6531 181.3183,71.6771 C181.0843,71.6941 180.8443,71.7021 180.5973,71.7021 C176.9823,71.7021 172.0173,69.9541 166.3433,66.3791 C158.1133,61.1941 151.4233,52.4151 145.3483,44.6651 C147.0643,44.1471 148.5803,43.6341 149.8973,43.1241 C153.0363,41.8221 154.9183,40.6511 155.5433,39.5861 C156.5833,37.8861 157.1223,36.1051 157.1623,34.2361 C157.1963,32.6401 156.8743,31.2521 156.1993,30.0721 C155.5243,28.8911 154.6393,28.1751 153.5453,27.9281 C153.2813,27.8481 152.9443,27.8091 152.5373,27.8091 C152.2583,27.8091 151.9443,27.8271 151.5983,27.8651 C147.2413,28.3411 144.6843,30.8731 143.9993,35.3491 C143.6893,37.3741 143.5153,39.7731 143.4473,42.5091 C143.2913,48.7581 143.7653,55.8391 144.8833,63.7581 C139.9623,64.7421 137.5023,65.2541 132.5853,66.3171 C133.6443,58.9171 134.2503,52.2811 134.4103,46.4061 C134.6823,36.4341 133.7943,29.6061 131.7603,25.9341 C137.0453,24.7011 139.6883,24.1071 144.9783,22.9651" id="Fill-9" fill="#332D1E"></path>
                <path d="M203.0172,14.1918 L203.0162,14.1918 C201.5392,14.1918 200.0302,14.4158 198.5312,14.4878 C194.6042,14.6758 191.0292,15.2258 188.1922,15.9008 C187.0982,16.1608 184.5392,16.8178 172.6232,25.3288 C172.6052,25.3408 172.5882,25.3768 172.5712,25.3898 C170.8882,26.6248 169.6682,28.6258 168.7322,31.6618 C167.9582,34.1698 167.5422,36.8938 167.4932,39.7478 C167.3642,47.3198 169.6482,53.5498 174.2832,58.2578 C179.3942,63.4508 186.9942,66.0848 196.8712,66.0848 C198.1332,66.0848 199.4552,66.0428 200.8002,65.9588 C201.9562,65.8858 203.0512,65.4148 203.8982,64.6248 C205.9832,62.6798 207.0252,61.7108 209.1062,59.7798 C210.6462,58.3498 211.1282,56.1098 210.3122,54.1738 C209.5282,52.3138 207.7082,51.1158 205.7062,51.1148 C205.6232,51.1148 205.5402,51.1168 205.4572,51.1218 C204.7432,51.1568 204.0422,51.1748 203.3722,51.1748 C200.6612,51.1748 198.2902,50.8828 196.3262,50.3068 C190.8922,48.7688 188.3772,45.8588 187.8732,40.5628 C187.7152,38.9438 187.6452,37.4858 187.6632,36.2178 C187.7082,33.0278 188.2912,31.3668 188.7582,30.6988 C189.2242,30.6018 190.1752,30.4518 191.9122,30.3528 C192.6742,30.3098 193.4272,30.2878 194.1502,30.2878 C198.1722,30.2878 201.6072,30.9628 204.3602,32.2928 C205.0502,32.6268 205.7942,32.7918 206.5352,32.7918 C207.5002,32.7918 208.4612,32.5128 209.2932,31.9628 C210.7642,30.9908 211.6142,29.3158 211.5302,27.5538 L211.1432,19.3888 C211.0202,16.7928 208.9302,14.5358 206.3332,14.4408 C205.2392,14.3998 204.1232,14.1918 203.0172,14.1918 M203.0162,19.5678 C204.0692,19.5678 205.1132,19.5868 206.1492,19.6248 C206.3032,22.8918 206.3802,24.5248 206.5362,27.7918 C203.1082,26.1348 198.9802,25.2878 194.1502,25.2878 C193.3292,25.2878 192.4892,25.3118 191.6282,25.3608 C188.5622,25.5358 186.6742,25.9098 185.9652,26.4538 C183.8342,28.0908 182.7322,31.3268 182.6632,36.1458 C182.6422,37.6028 182.7192,39.2328 182.8962,41.0368 C183.5962,48.3958 187.5972,53.0338 194.9192,55.1048 C197.3672,55.8228 200.1862,56.1748 203.3722,56.1748 C204.1292,56.1748 204.9062,56.1548 205.7042,56.1148 C203.6202,58.0498 202.5762,59.0208 200.4872,60.9688 C199.2432,61.0468 198.0372,61.0868 196.8712,61.0868 C188.4272,61.0868 182.0552,59.0288 177.8462,54.7538 C174.1632,51.0118 172.3872,46.0248 172.4922,39.8388 C172.5332,37.4288 172.8782,35.1948 173.5102,33.1478 C174.0972,31.2438 174.7672,30.0038 175.5292,29.4448 C183.0942,24.0408 187.7162,21.2478 189.3492,20.8588 C191.6902,20.3018 194.8532,19.8568 198.7692,19.6698 C200.2012,19.6018 201.6162,19.5678 203.0162,19.5678" id="Fill-11" fill="#332D1E"></path>
                <path d="M222.9555,13.2791 C222.7705,13.2791 222.5845,13.2891 222.3985,13.3101 C217.4885,13.8601 215.0905,14.1471 210.1845,14.7741 C208.7615,14.9551 207.4855,15.7391 206.6805,16.9261 C205.8745,18.1121 205.6175,19.5871 205.9745,20.9761 C206.9405,24.7441 207.4105,29.8501 207.3715,36.1531 C207.3265,43.3091 206.5335,51.1391 205.0155,59.4271 C204.7255,61.0111 205.2155,62.6371 206.3325,63.7971 C207.2825,64.7821 208.5855,65.3281 209.9335,65.3281 C210.1715,65.3281 210.4105,65.3111 210.6495,65.2761 C214.4165,64.7311 217.4925,64.3031 219.8775,63.9711 C221.3585,63.7651 222.5755,63.5961 223.5295,63.4581 C226.0605,63.0931 227.9085,60.8771 227.8125,58.3221 C227.5435,51.1401 227.3835,46.6211 227.1595,40.5731 C228.9905,40.4751 230.7615,40.1921 232.4565,40.1921 L232.8125,40.1921 C233.8155,40.1921 234.6875,40.4321 235.4445,40.4621 C235.3355,44.8771 234.8035,50.8811 233.8565,58.1281 C233.6695,59.5591 234.1105,61.2101 235.0665,62.2921 C236.0155,63.3681 237.3805,64.1921 238.8145,64.1921 L238.8425,64.1921 C240.8255,64.1921 242.4635,64.1491 243.9965,64.1491 C246.7155,64.1491 249.1755,64.1921 253.0735,64.1921 L253.1375,64.1921 C255.0215,64.1921 256.7475,63.0061 257.5985,61.3221 C258.4605,59.6191 258.2775,57.5111 257.1275,55.9881 C256.6265,55.3241 254.9885,52.2511 254.9455,40.9531 C254.9225,35.0361 255.4145,27.8751 256.4075,19.7021 C256.5775,18.2991 256.1465,16.8811 255.2195,15.8141 C254.2935,14.7461 252.9585,14.2471 251.5455,14.2181 C246.5445,14.1171 244.1035,14.1921 239.1045,14.1921 L239.0835,14.1921 C237.6565,14.1921 236.2965,14.6711 235.3475,15.7381 C234.3935,16.8101 233.9465,18.1741 234.1195,19.5991 C234.4335,22.1841 234.6575,23.9951 234.8955,25.9481 C232.6325,26.1831 230.3185,26.2971 227.9755,26.3201 C227.8195,26.3221 227.6645,26.3141 227.5095,26.3151 L227.9475,18.5641 C228.0305,17.0941 227.4605,15.6611 226.3915,14.6491 C225.4585,13.7661 224.2265,13.2791 222.9555,13.2791 M222.9555,18.2791 C222.6665,23.4111 222.5215,25.9771 222.2305,31.1101 C223.8385,31.2421 225.5275,31.3071 227.2955,31.3071 C227.5375,31.3071 227.7805,31.3061 228.0255,31.3031 C232.2955,31.2611 236.4395,30.8921 240.4545,30.1891 C239.9045,25.6851 239.6295,23.4341 239.0835,18.9311 C244.0275,18.9521 246.4995,18.9831 251.4435,19.0831 C250.4245,27.4721 249.9215,34.7591 249.9455,40.9411 C249.9805,50.1701 251.0415,56.1631 253.1375,58.9381 C249.4025,58.8901 246.8845,58.8691 243.9965,58.8691 C242.4545,58.8691 240.8085,58.8751 238.8145,58.8861 C239.9245,50.3911 240.4715,43.7571 240.4655,38.9841 C240.4635,37.8941 240.4365,36.7401 240.3865,35.9671 C238.6815,35.6061 236.1565,35.1921 232.8125,35.1921 L232.4355,35.1921 C229.2035,35.1921 225.7205,35.5981 221.9855,35.9371 C222.3155,44.8771 222.4815,49.4581 222.8165,58.3981 C220.3265,58.7571 216.0335,59.3901 209.9335,60.2721 C211.5165,51.6301 212.3245,43.6131 212.3715,36.1571 C212.4135,29.3841 211.8925,23.9121 210.8175,19.7201 C215.6735,19.1001 218.1005,18.8231 222.9555,18.2791" id="Fill-13" fill="#332D1E"></path>
                <path d="M280.566,49.0056 C280.36,49.0056 280.145,48.9986 279.92,48.9866 C277.008,48.8226 273.216,47.8236 268.648,46.0186 C267.001,45.3686 265.496,44.7156 264.136,44.0626 C268.141,44.6696 272.15,44.7246 275.377,44.7696 C277.317,44.7956 279.15,44.8216 280.259,44.9676 C280.317,44.9746 280.413,44.9876 280.618,45.3216 C280.962,45.8806 281.142,46.6556 281.156,47.6246 C281.164,48.2616 281.108,48.7016 281.044,48.9916 C280.911,48.9996 280.752,49.0056 280.566,49.0056 M270.65,24.1916 L270.787,24.1916 C271.266,24.1916 271.747,24.0416 272.217,24.0646 C278.135,24.3456 282.847,26.2136 286.562,29.9286 C281.318,29.5796 275.192,28.9796 272.932,28.1216 C270.969,27.3756 270.59,26.5976 270.579,25.1616 C270.576,24.7986 270.6,24.1916 270.65,24.1916 M269.838,7.6536 C269.035,7.6536 268.241,7.8476 267.524,8.2216 C262.656,10.7626 260.279,12.0196 255.412,14.6256 C255.113,14.7856 254.83,14.9766 254.569,15.1946 C251.383,17.8536 249.85,22.1916 249.882,28.4586 C249.889,29.7376 250.003,31.7776 250.23,34.6946 C250.333,36.0076 250.95,37.2276 251.947,38.0886 C252.403,38.4826 253.061,39.0206 253.886,39.6156 C253.544,39.7026 253.208,39.8266 252.884,39.9886 C251.153,40.8526 250.076,42.6386 250.119,44.5726 L250.317,53.5096 C250.352,55.0946 251.137,56.5686 252.432,57.4826 C259.321,62.3456 268.025,65.0966 278.303,65.6596 C279.226,65.7106 280.151,65.7356 281.055,65.7356 C281.409,65.7356 281.761,65.7326 282.111,65.7246 C283.116,65.7026 284.092,65.3776 284.91,64.7916 C286.392,63.7316 287.785,62.6776 289.05,61.6586 C292.221,59.0856 294.544,56.9526 296.166,55.1256 C299.778,51.1416 301.591,46.9246 301.52,42.6276 C301.452,38.4326 299.72,34.6156 296.512,31.5886 C296.244,31.3356 295.951,31.1146 295.639,30.9286 C296.227,30.1306 296.578,29.1586 296.612,28.1216 L297.019,15.3386 C297.101,12.7636 295.213,10.5486 292.658,10.2206 C283.694,9.0706 279.312,8.5716 270.333,7.6786 C270.168,7.6616 270.003,7.6536 269.838,7.6536 M269.838,12.6536 C278.714,13.5366 283.151,14.0416 292.022,15.1796 C291.86,20.2926 291.778,22.8486 291.614,27.9616 C286.861,22.3486 280.485,19.2896 272.454,18.9086 C271.903,18.8826 271.347,18.8696 270.787,18.8696 C269.51,18.8696 268.21,18.9376 266.885,19.0736 C265.999,21.0836 265.563,23.0676 265.579,25.0216 C265.609,28.7496 267.488,31.3626 271.157,32.7556 C274.349,33.9676 281.708,34.6566 293.081,35.2246 C295.327,37.3446 296.474,39.8436 296.521,42.7096 C296.57,45.7116 295.21,48.7366 292.429,51.8046 C290.988,53.4266 288.819,55.4066 285.914,57.7646 C284.712,58.7326 283.407,59.7186 282.001,60.7256 C281.687,60.7326 281.372,60.7356 281.055,60.7356 C280.242,60.7356 279.416,60.7136 278.577,60.6676 C269.291,60.1586 261.524,57.7806 255.316,53.3986 C255.236,49.8236 255.197,48.0366 255.117,44.4616 C257.86,46.6216 261.756,48.6726 266.81,50.6686 C271.865,52.6666 276.144,53.7816 279.639,53.9786 C279.962,53.9966 280.271,54.0056 280.566,54.0056 C282.543,54.0056 283.908,53.5986 284.633,52.7756 C285.681,51.5876 286.186,49.8306 286.155,47.5566 C286.13,45.6926 285.708,44.0546 284.879,42.7046 C283.923,41.1486 282.566,40.2276 280.911,40.0096 C277.459,39.5556 271.004,40.0626 264.783,39.1036 C261.17,38.5466 257.546,36.3186 255.215,34.3056 C254.999,31.5286 254.888,29.5706 254.882,28.4326 C254.858,23.7966 255.823,20.6596 257.773,19.0336 C262.609,16.4436 265.022,15.1676 269.838,12.6536" id="Fill-15" fill="#332D1E"></path>
                <path d="M297.9719,16.2245 C296.6419,16.2245 295.3589,16.7555 294.4139,17.7115 C293.3469,18.7925 292.8289,20.2995 293.0069,21.8085 L294.0599,30.7545 C294.2739,32.5685 295.4609,34.1225 297.1559,34.8055 C297.7599,35.0495 298.3939,35.1685 299.0249,35.1685 C300.1619,35.1685 301.2869,34.7805 302.1959,34.0345 C303.6479,32.8435 305.4479,32.2645 307.6969,32.2645 C307.8869,32.2645 308.0819,32.2695 308.2799,32.2775 C308.5429,35.3715 308.7039,38.3225 308.7619,41.0875 C308.9609,50.5455 308.1779,57.4765 306.4339,61.6895 C305.8029,63.2135 305.9639,64.9495 306.8639,66.3305 C307.7629,67.7125 309.2859,68.5615 310.9349,68.6005 C316.5359,68.7345 319.2689,68.8235 324.8599,69.0585 C324.9299,69.0615 325.0009,69.0625 325.0699,69.0625 C326.6779,69.0625 328.1939,68.2875 329.1349,66.9735 C330.1169,65.6015 330.3409,63.8275 329.7319,62.2545 C328.0199,57.8415 327.0709,52.1055 326.9109,45.2045 C326.8269,41.5785 326.9459,37.9595 327.2639,34.3915 C331.1139,34.9125 332.9579,35.2955 333.6739,35.4645 C334.0579,35.5555 334.4439,35.5985 334.8249,35.5985 C336.7329,35.5985 338.5209,34.5015 339.3559,32.7095 L341.6859,27.7005 C342.3619,26.2465 342.2999,24.5565 341.5189,23.1565 C340.7369,21.7565 339.3319,20.8165 337.7399,20.6275 C324.6839,19.0835 311.4789,17.6105 298.4929,16.2515 C298.3189,16.2335 298.1449,16.2245 297.9719,16.2245 M297.9719,21.2245 C311.0459,22.5925 324.0989,24.0485 337.1519,25.5935 C336.2219,27.5935 335.7559,28.5945 334.8229,30.5985 C332.7159,30.1005 328.7379,29.4765 322.8789,28.8135 C322.1069,34.2195 321.7829,39.7225 321.9129,45.3205 C322.0869,52.8295 323.1349,59.0745 325.0699,64.0625 C319.4689,63.8275 316.6649,63.7355 311.0539,63.6025 C313.0779,58.7115 313.9759,51.1765 313.7609,40.9825 C313.6759,36.9335 313.3839,32.5905 312.8869,27.9535 C311.7799,27.6615 310.6749,27.4625 309.5719,27.3565 C308.9299,27.2955 308.3049,27.2645 307.6969,27.2645 C304.2679,27.2645 301.3779,28.2385 299.0249,30.1685 C298.6029,26.5905 298.3929,24.8015 297.9719,21.2245" id="Fill-17" fill="#332D1E"></path>
                <path d="M353.9089,53.0137 C351.9639,49.7097 350.9729,46.5597 350.8789,43.3867 C350.8049,40.9007 351.2079,38.6817 352.1039,36.6687 C353.3179,36.7527 354.5499,36.8927 355.7879,37.0877 C362.2929,38.1137 366.3479,40.1427 367.2079,42.8007 C368.6789,47.3507 369.4899,51.3767 369.6159,54.7677 C369.7119,57.3427 369.4839,60.5227 368.0259,62.0917 C367.5749,62.0497 367.0829,61.9837 366.5519,61.8937 C361.1019,60.9757 356.9669,58.0707 353.9089,53.0137 M356.1659,22.1917 L356.1649,22.1917 C355.2449,22.1917 354.3319,22.0077 353.4519,22.0947 C350.0529,22.4297 346.3849,23.8237 343.1479,25.1547 C341.6399,25.7747 340.2139,26.3027 339.1099,26.6467 C336.2209,27.5327 334.0169,29.9687 332.5759,33.9357 C331.4359,37.0727 330.9109,40.5997 331.0149,44.4467 C331.2099,51.6627 333.4739,58.0017 337.7439,63.3007 C342.9039,69.7037 350.5999,73.7727 360.6199,75.4027 C362.2079,75.6607 363.8629,75.8587 365.5389,75.9937 C365.6739,76.0047 365.8079,76.0097 365.9419,76.0097 C366.4829,76.0097 367.0219,75.9207 367.5369,75.7477 C376.1129,72.8617 379.2039,72.1287 380.1349,71.9477 C381.4789,71.6867 382.6579,70.8857 383.3949,69.7317 C387.2129,63.7537 389.0139,57.3147 388.7459,50.5927 C388.4479,43.0897 385.4419,36.5497 379.8119,30.7047 C376.3309,27.0517 366.1609,22.1917 356.1659,22.1917 M369.1129,67.1467 C369.2609,67.1467 369.4069,67.1447 369.5499,67.1397 C373.1719,65.2317 374.8539,61.0577 374.6129,54.5817 C374.4699,50.7497 373.5919,46.2927 371.9649,41.2617 C370.4739,36.6517 365.3389,33.3417 356.5669,31.9577 C354.1359,31.5737 351.7579,31.1917 349.4299,31.1917 L349.2549,31.1917 C346.8749,35.1917 345.7479,38.8327 345.8809,43.3437 C345.9999,47.3517 347.2419,51.4547 349.6149,55.4797 C353.4589,61.8517 358.8409,65.6177 365.7209,66.7767 C366.9879,66.9897 368.1189,67.1467 369.1129,67.1467 M356.1649,26.7357 C364.8239,26.7357 373.7519,31.3647 376.2109,33.9457 C380.9849,38.9017 383.5019,44.5407 383.7499,50.7917 C383.9769,56.4957 382.4629,61.9017 379.1809,67.0397 C377.1569,67.4327 372.7599,68.7137 365.9419,71.0087 C364.3879,70.8827 362.8809,70.7007 361.4219,70.4637 C352.7169,69.0477 346.0749,65.6637 341.6369,60.1567 C338.0449,55.6987 336.1779,50.3997 336.0129,44.2977 C335.9259,41.0647 336.3469,38.1697 337.2759,35.6147 C338.1559,33.1897 339.2629,31.7727 340.5949,31.3637 C344.3449,30.1977 349.8329,27.2477 353.9429,26.8427 C354.6779,26.7697 355.4209,26.7357 356.1649,26.7357" id="Fill-19" fill="#332D1E"></path>
                <path d="M382.4688,28.4257 C380.5788,28.4257 378.8298,29.4977 377.9828,31.2207 C377.0608,33.0987 377.4038,35.3517 378.8448,36.8687 C382.2948,40.5017 384.2428,44.1927 384.6328,47.8407 C384.7848,49.2637 384.8788,50.4947 384.9298,51.7157 C385.1798,57.7687 384.9738,65.2147 384.3178,73.8477 C384.1168,76.4817 385.9998,78.8177 388.6168,79.1797 C392.1448,79.6687 393.8668,79.9177 397.3858,80.4477 C397.6338,80.4847 397.8828,80.5027 398.1308,80.5027 C399.3858,80.5027 400.6058,80.0307 401.5378,79.1627 C402.6528,78.1237 403.2338,76.6337 403.1148,75.1137 C402.7318,70.2057 402.4398,66.4737 402.1538,62.7917 C411.0568,71.5077 419.9478,80.5677 426.4298,90.6387 C427.3688,92.0977 428.9688,92.9327 430.6348,92.9327 C431.1538,92.9327 431.6798,92.8517 432.1938,92.6827 C434.3568,91.9727 435.7668,89.8917 435.6248,87.6197 C435.5358,86.2107 435.4438,84.7987 435.3518,83.3857 C434.7768,74.5457 434.1818,65.4047 434.5078,56.6107 C434.5878,54.4357 434.9778,51.9317 435.6668,49.1697 C435.9528,48.0377 436.2888,46.8917 436.6628,45.7777 C437.1098,44.4467 436.9758,42.9887 436.2948,41.7597 C435.6128,40.5317 434.4458,39.6467 433.0788,39.3217 C428.5358,38.2417 426.3138,37.7317 421.7548,36.7197 C421.3948,36.6397 421.0318,36.6007 420.6718,36.6007 C419.3218,36.6007 418.0098,37.1487 417.0558,38.1477 C415.8478,39.4127 415.3888,41.2177 415.8458,42.9067 C416.9968,47.1637 417.8468,51.0917 418.3878,54.6517 C415.6178,51.9127 412.3548,48.5287 408.6138,44.5117 C405.0598,40.6527 401.1668,36.3167 396.7298,31.2767 C395.9138,30.3497 394.7838,29.7577 393.5578,29.6137 C389.3138,29.1177 387.2378,28.8897 382.9818,28.4517 C382.8098,28.4347 382.6388,28.4257 382.4688,28.4257 M382.4708,33.4257 C386.6788,33.8577 388.7798,34.0887 392.9768,34.5797 C397.3028,39.4947 401.2958,43.9457 404.9548,47.9197 C413.7588,57.3717 420.0788,63.5197 423.8738,66.1747 C424.0878,64.6017 424.1398,62.7417 424.0318,60.5907 C423.7598,55.1947 422.6358,48.8597 420.6718,41.6017 C425.1788,42.6007 427.4288,43.1177 431.9228,44.1867 C431.5048,45.4317 431.1358,46.6897 430.8148,47.9597 C430.0548,51.0127 429.6068,53.8477 429.5108,56.4257 C429.1238,66.8777 429.9788,77.4607 430.6338,87.9327 C421.4738,73.7027 408.0178,61.7147 396.1358,49.9027 C396.9308,60.1417 397.3298,65.2617 398.1298,75.5027 C394.6028,74.9727 392.8378,74.7167 389.3028,74.2277 C389.9808,65.3247 390.1838,57.7527 389.9258,51.5087 C389.8608,49.9597 389.7368,48.5457 389.6038,47.3097 C389.1088,42.6777 386.7828,37.9657 382.4708,33.4257" id="Fill-21" fill="#332D1E"></path>
                <path d="M453.0154,62.1053 L452.9554,59.6413 C455.8804,60.9763 457.2734,62.2383 457.9174,63.0323 C458.0644,63.2133 458.2224,63.3823 458.3894,63.5373 C456.7904,63.1293 455.0104,62.6553 453.0154,62.1053 M435.9964,40.8743 C434.7104,40.8743 433.4554,41.3703 432.5104,42.2903 C431.2474,43.5173 430.7244,45.3183 431.1314,47.0313 C432.6184,53.2823 433.5614,59.9443 433.9364,66.8313 C434.2994,73.5243 434.1434,79.6703 433.4714,85.1013 C433.1534,87.6793 434.8614,90.0713 437.4024,90.6073 C443.3384,91.8583 448.8174,93.2143 453.6884,94.6363 C457.8334,95.8463 460.1254,96.7053 461.3174,97.2133 C461.9464,97.4803 462.6124,97.6123 463.2744,97.6123 C464.2914,97.6123 465.3004,97.3023 466.1574,96.6983 C467.5724,95.6993 468.3704,94.0393 468.2664,92.3103 L468.1164,89.8363 L467.9624,87.2883 C467.8314,85.1183 466.3124,83.2813 464.2064,82.7443 C459.9644,81.6643 457.7834,81.1243 453.7264,80.1533 L453.6254,77.3853 C456.1474,78.1183 458.4924,78.8403 460.6404,79.5443 C461.1494,79.7113 461.6754,79.7933 462.1984,79.7933 C463.2544,79.7933 464.2994,79.4583 465.1704,78.8133 C466.4734,77.8513 467.2284,76.3163 467.1974,74.6973 L467.1774,73.6293 L467.0964,69.4653 C467.0524,67.1603 465.4374,65.1863 463.1904,64.6833 C463.3244,64.6443 463.4574,64.5993 463.5884,64.5493 C465.6084,63.7753 466.9004,61.7903 466.7924,59.6303 L466.7334,58.4503 L466.4564,52.9103 C466.3514,50.8043 464.9364,48.9913 462.9204,48.3773 C452.6684,45.2533 447.6384,43.8143 437.2884,41.0443 C436.8614,40.9303 436.4274,40.8743 435.9964,40.8743 M435.9954,45.8743 C446.2194,48.6113 451.3144,50.0683 461.4624,53.1603 C461.5974,55.8483 461.6644,57.1923 461.7994,59.8803 C459.3704,56.8903 454.7104,54.4123 447.7814,52.5773 C447.9124,57.9163 447.9774,60.5853 448.1074,65.9233 C453.7944,67.5373 458.4544,68.7693 462.0974,69.5623 C462.1384,71.6543 462.1584,72.7003 462.1984,74.7933 C458.4764,73.5723 453.8734,72.2033 448.3804,70.7343 C448.5354,74.9973 448.6134,77.1293 448.7684,81.3923 C448.8094,82.1263 449.1524,82.8423 449.7944,83.5443 C450.4354,84.2443 451.1474,84.6863 451.9284,84.8643 C456.3534,85.9213 458.5624,86.4663 462.9714,87.5903 C463.0934,89.5993 463.1534,90.6033 463.2754,92.6123 C461.4324,91.8283 458.7054,90.8923 455.0894,89.8373 C450.2834,88.4333 444.7364,87.0433 438.4344,85.7153 C439.1474,79.9493 439.3094,73.5653 438.9284,66.5603 C438.5354,59.3263 437.5544,52.4283 435.9954,45.8743" id="Fill-23" fill="#332D1E"></path>
                <path d="M379.1791,69.9759791 C380.279918,68.267179 381.181785,66.5293856 381.8857,64.7596 C382.543497,63.1065191 383.028364,61.4268537 383.3423,59.7182 L383.3423,59.7164246 C383.630032,58.1511284 383.7729,56.5628521 383.7729,54.9486 L383.7729,48.8556 C383.7729,50.4696 383.6299,52.0596 383.3419,53.6256 L383.3419,53.6273753 C383.027888,55.3346264 382.543021,57.0139017 381.8853,58.6662 L381.8853,58.6676051 C381.181358,60.4362587 380.279491,62.1749237 379.1787,63.8836 C377.153522,64.2767671 372.761651,65.5457499 365.9401,67.8226 L365.9401,73.9166 C372.7621,71.6386 377.1541,70.3706 379.1791,69.9766 L379.1791,69.9759791 Z M322.8751,32.0393 C328.7341,32.7003 332.7121,33.3163 334.8271,33.8073 L334.8271,27.7143 C332.7121,27.2233 328.7341,26.6063 322.8751,25.9453 L322.8751,25.9462003 C322.217166,30.553975 321.8852,35.2417409 321.8852,39.9975 L321.8852,46.0905 C321.8852,41.3357724 322.217162,36.648037 322.875087,32.039292 Z M347.229498,38.5447 C347.732438,37.2820645 348.372305,36.0783975 349.1501,34.9327 L349.1501,28.8397 C348.3721,29.9857 347.7321,31.1897 347.2291,32.4517 L347.2291,32.4527063 C347.229233,32.4523708 347.229367,32.4520354 347.2295,32.4517 L347.2295,38.5447 Z M347.2291,38.5451427 L347.2291,32.4527063 Z M240.3901,39.3545794 C238.691102,39.0045923 236.191135,38.8086 232.8732,38.8086 C232.7282,38.8086 232.5822,38.8096 232.4342,38.8106 C229.2032,38.8186 225.7202,38.9886 221.9852,39.3286 L221.9852,33.2346 C222.066285,33.2272404 222.147252,33.2199605 222.2281,33.2127602 L222.2281,28.2231 C222.5251,23.1321 222.6691,20.5861 222.9571,15.4851 L222.9571,21.5781 C222.690805,26.2946601 222.547623,28.8268261 222.292771,33.2070153 C225.911578,32.8863716 229.292054,32.7253525 232.4342,32.7166 C232.5822,32.7156 232.7282,32.7156 232.8732,32.7156 C236.1912,32.7156 238.6912,32.9106 240.3902,33.2616 L240.3902,33.2634074 C240.43514,34.0310768 240.4621,34.959501 240.4621,36.0397 L240.4621,42.1327 C240.4621,41.0527 240.4351,40.1237 240.3901,39.3547 Z M144.0642,38.1416182 C144.204177,37.3784615 144.402044,36.6761869 144.6578,36.0328 L144.6578,29.9398 C144.4018,30.5828 144.2038,31.2868 144.0638,32.0508 L144.0638,32.0526752 C144.040956,32.1769732 144.020084,32.3032424 144.0002,32.4305 C143.6942,34.4405 143.5142,36.8255 143.4512,39.5415 C143.4302,40.3275 143.4202,41.1265 143.4202,41.9385 L143.4202,48.0325 C143.4202,47.2195 143.4302,46.4205 143.4512,45.6345 C143.5142,42.9195 143.6942,40.5345 144.0002,38.5245 C144.0202,38.3955 144.0412,38.2695 144.0642,38.1435 L144.0642,38.1416182 Z M144.90395,29.3762493 C144.927642,28.4121259 144.949879,27.5069749 144.9812,26.2321 L144.9812,20.1391 C144.9272,22.3371 144.9002,23.4351 144.8462,25.6331 L144.8462,29.4993456 C144.780267,29.6427567 144.717473,29.7894526 144.6578,29.9394 L144.6578,36.0334 C144.8918,35.4444 145.1738,34.9074 145.5048,34.4204 L145.5048,28.3274 C145.28252,28.6537682 145.082338,29.0035865 144.90395,29.3762493 Z M153.5489,25.0612 L153.5489,31.1542 C154.6379,31.4052 155.5289,32.1102 156.2039,33.2892 C156.8369,34.4012 157.1609,35.6982 157.1609,37.1802 L157.1609,31.0872 C157.1609,29.6052 156.8369,28.3082 156.2039,27.1962 C155.528941,26.0172722 154.638009,25.3112864 153.5491,25.0612459 C153.2841,24.9872 152.9501,24.9482 152.5461,24.9482 C152.2641,24.9482 151.9471,24.9672 151.5961,25.0072 C148.8381,25.3022 146.8011,26.4192 145.5051,28.3272 L145.5051,34.4212 C146.8011,32.5132 148.8381,31.3952 151.5961,31.1012 C151.9471,31.0602 152.2641,31.0412 152.5461,31.0412 C152.9501,31.0412 153.2841,31.0812 153.5491,31.1542 L153.5491,25.0612459 Z M165.7033,35.4821746 C165.7611,35.1687612 165.79,34.8683013 165.79,34.5798 L165.79,28.4868 C165.79,28.7748 165.761,29.0768 165.703,29.3908 L165.703,29.3919396 C165.619953,29.8454556 165.476058,30.3249103 165.2753,30.8313 L165.2753,36.9243 C165.4763,36.4173 165.6203,35.9373 165.7033,35.4833 L165.7033,35.4821748 Z M183.7255,26.7351 C183.971425,26.118287 184.259325,25.5664346 184.5892,25.0795428 C184.9872,24.4932 185.4462,24.0022 185.9672,23.6052 C186.6782,23.0602 188.5592,22.6942 191.6282,22.5152 C192.4822,22.4682 193.3152,22.4442 194.1282,22.4442 C198.9692,22.4442 203.1032,23.2832 206.5322,24.9272 L206.5322,31.0202 C203.1032,29.3762 198.9692,28.5372 194.1282,28.5372 C193.3152,28.5372 192.4822,28.5612 191.6282,28.6092 C188.5592,28.7872 186.6782,29.1542 185.9672,29.6982 C185.446331,30.0951003 184.987431,30.5869528 184.5895,31.1717591 C184.259589,31.658968 183.971656,32.2108008 183.7257,32.8275984 C183.4277,33.5788 183.1917,34.4248 183.0187,35.3678 L183.0187,29.2748 C183.191661,28.332011 183.427594,27.485179 183.7255,26.7353034 Z M92.1691,74.718646 C92.2200908,74.2462013 92.2930254,73.7498193 92.3889,73.2295 L92.3889,73.2267855 C92.8000665,70.9953386 93.6218994,68.3302442 94.8534,65.2335 C95.5193357,63.5601598 96.3042359,61.7614111 97.2091,59.8377 L97.2091,53.7447 C96.3041,55.6687 95.5191,57.4677 94.8531,59.1407 C93.6212666,62.2379328 92.7993666,64.9036813 92.3884,67.1365 L92.3884,67.1392093 C92.2926465,67.6582263 92.2198114,68.1543215 92.1689,68.6265 C87.2190336,69.8330171 84.7530336,70.4670173 79.8211,71.754 L79.8211,77.847 C84.7530336,76.5610173 87.2190336,75.9260171 92.1689,74.7200487 C92.1689167,74.7203455 92.1689333,74.720191 92.16895,74.7200366 L92.1691,74.718646 Z M110.5741,51.4693739 L110.5741,46.8128 C108.9991,43.4718 107.4601,40.4888 105.9751,37.8618 L105.9751,43.9558 C107.25951,46.2270866 108.584317,48.7661898 109.937874,51.5718154 C106.491146,52.1277821 103.928119,52.558169 100.609592,53.1412358 C103.287972,48.4148645 105.074275,45.3571851 105.9751,43.955 L105.9751,37.862 C104.9761,39.416 102.8881,43.007 99.7021,48.653 L99.7021,53.3011518 C98.9228748,53.4388444 98.0980815,53.5855068 97.2091,53.7443 L97.2091,59.8383 C103.3561,58.7393 106.4341,58.2213 112.5991,57.2383 L112.5991,51.1453 C111.885971,51.2590074 111.214147,51.3664929 110.5741,51.4693739 Z M62.3162,57.5849015 L62.3162,52.8782 C62.7391674,47.5016149 62.9551667,44.8216136 63.3871,39.4444449 L63.3871,39.443 C66.7631,38.613 69.5861,38.205 71.8561,38.205 C74.2981,38.205 76.0991,38.678 77.2561,39.604 L77.2561,45.697 C76.0991,44.771 74.2981,44.299 71.8561,44.299 C69.5861082,44.299 66.7631203,44.7059971 63.3871365,45.536991 C62.9947513,50.4218222 62.780568,53.0807844 62.4275636,57.5579815 C67.8417641,56.250076 72.4004646,55.2763039 76.0952,54.5934 L76.0952,60.6864 C72.3242,61.3834 67.6532,62.3844 62.0912,63.7334 L62.0912,57.6394 C62.1663627,57.6211701 62.2413627,57.603004 62.3162,57.5849015 Z M33.7499,82.5624 C35.1899,81.1064 36.5399,79.7034 37.7819,78.3464 C40.7879,75.0584 43.0559,72.3784 44.5769,70.2974 C44.9228247,69.8315015 45.2497576,69.3716003 45.5566995,68.9196952 C46.7315716,67.1888892 47.6225053,65.560056 48.2325,64.0282023 C48.6131866,63.0724864 48.8830557,62.1562087 49.0451,61.2768717 L49.0451,61.2751 C49.1331,60.7961 49.1891,60.3291 49.2121,59.8731 C49.2211,59.6881 49.2261,59.5071 49.2261,59.3281 L49.2261,65.4211 C49.2261,65.6001 49.2211,65.7821 49.2121,65.9661 C49.1891349,66.4214087 49.1332697,66.8886811 49.0455,67.3659261 L49.0455,67.3677 C48.8835,68.2477 48.6135,69.1657 48.2325,70.1217 C47.6225053,71.6530563 46.7315716,73.2828891 45.5567,75.0127 C45.249758,75.4655993 44.9228249,75.9245014 44.5769,76.3914 C43.0559,78.4724 40.7879,81.1524 37.7819,84.4394 C36.5399863,85.7973057 35.1900875,87.1992053 33.7502,88.6550967 C32.6522,89.0404 31.5362,89.3794 30.4022,89.6924 C25.7972,90.9324 21.6212,91.5634 17.8772,91.5634 C14.2612,91.5634 11.0472,90.9754 8.2352,89.7814 L8.2352,83.6884 C11.0472,84.8814 14.2612,85.4694 17.8772,85.4694 C21.6212,85.4694 25.7972,84.8394 30.4022,83.5984 C31.5360967,83.2864284 32.6519967,82.9464619 33.7499,82.5625049 Z M46.6022,33.6904 L46.6022,39.7834 C46.1072,44.9564 45.8552,47.5464 45.3602,52.7274 L45.3602,46.6344 C45.8552,41.4534 46.1072,38.8624 46.6022,33.6904 Z M45.3602,46.6342 L45.3602,52.7272 C42.5222,50.0172 38.9192,48.6392 34.5532,48.6392 C32.3012,48.6392 29.8472,49.0052 27.1892,49.7442 C25.4252,50.2262 23.6162,50.8782 21.7442,51.6732 L21.7442,45.5802 C23.6162,44.7852 25.4252,44.1332 27.1892,43.6502 C29.8472,42.9122 32.3012,42.5452 34.5532,42.5462 C38.9192,42.5462 42.5222,43.9232 45.3602,46.6342 Z M21.7442,45.5801 L21.7442,51.6731 C21.6362,51.9241 21.5322,52.1721 21.4352,52.4181 L21.4352,46.3241 C21.5322,46.0781 21.6362,45.8301 21.7442,45.5801 Z M21.4348,46.3242 L21.4348,52.4172 C20.9018,53.7572 20.5258,55.0352 20.3018,56.2532 L20.3018,50.1592 C20.5258,48.9422 20.9018,47.6642 21.4348,46.3242 Z M20.3018,50.1593 L20.3018,56.2523 C20.1888,56.8713 20.1148,57.4733 20.0788,58.0603 C20.0668,58.2733 20.0608,58.4813 20.0608,58.6833 L20.0608,52.5903 C20.0608,52.3883 20.0668,52.1803 20.0788,51.9673 C20.1148,51.3803 20.1888,50.7773 20.3018,50.1593 Z M9.4052,64.5625 L9.4052,70.6555 C9.3972,69.8645 9.3932,69.1395 9.3932,68.4815 L9.3932,62.3885 C9.3932,63.0455 9.3972,63.7705 9.4052,64.5625 Z M38.7093,67.3639 L38.7093,73.4569 C38.7093,71.9019 38.3963,70.6209 37.7643,69.6649 C37.0963,68.6559 36.1363,68.1359 34.9503,68.1359 C34.6643,68.1359 34.3663,68.1659 34.0563,68.2259 C30.6903,68.8699 24.6603,71.4239 18.3693,72.4339 C17.7603,72.5329 17.1413,72.5789 16.5243,72.5789 C13.8183,72.5789 11.1343,71.7029 9.4053,70.6559 L9.4053,64.5629 C11.1343,65.6099 13.8183,66.4859 16.5243,66.4859 C17.1413,66.4859 17.7603,66.4399 18.3693,66.3399 C24.6603,65.3309 30.6903,62.7759 34.0563,62.1329 C34.3663,62.0719 34.6643,62.0419 34.9503,62.0419 C36.1363,62.0419 37.0963,62.5629 37.7643,63.5709 C38.3963,64.5279 38.7093,65.8079 38.7093,67.3639 Z M77.6162,32.9221 L77.6162,39.0151 C77.4722,41.6861 77.4002,43.0261 77.2562,45.6971 L77.2562,39.6041 C77.4002,36.9331 77.4722,35.5931 77.6162,32.9221 Z M52.8759,52.5041 L52.8759,58.5971 C52.8759,53.6591 52.5419,49.0581 51.8759,44.8041 L51.8759,38.7111 C52.5419,42.9651 52.8759,47.5661 52.8759,52.5041 Z M76.5452,49.3141 L76.5452,55.4071 C76.3652,57.5251 76.2752,58.5791 76.0952,60.6871 L76.0952,54.5931 C76.2752,52.4851 76.3652,51.4311 76.5452,49.3141 Z M62.0912,57.6395 L62.0912,63.7325 C61.8032,68.0025 61.6592,70.1285 61.3712,74.3985 L61.3712,68.3055 C61.6592,64.0355 61.8032,61.9095 62.0912,57.6395 Z M61.3712,68.3054 L61.3712,74.3984 C61.3692,74.4404 61.3682,74.4814 61.3682,74.5214 L61.3682,68.4274 C61.3682,68.3874 61.3692,68.3464 61.3712,68.3054 Z M75.5552,67.2424 L75.5552,73.3354 C75.4652,75.3194 75.4202,76.3104 75.3392,78.2934 L75.3392,72.2004 C75.4202,70.2174 75.4652,69.2254 75.5552,67.2424 Z M75.3392,72.2002 L75.3392,78.2932 C73.4852,78.4542 70.7312,78.9192 67.0682,79.7232 C62.1992,80.7952 56.5742,82.2512 50.2112,84.1532 L50.2112,78.0602 C56.5742,76.1572 62.1992,74.7012 67.0682,73.6292 C70.7312,72.8252 73.4852,72.3612 75.3392,72.2002 Z M101.5758,32.0483 L101.5758,38.1413 C101.5758,36.6733 100.3698,35.2043 97.9648,33.7363 L97.9648,27.6423 C100.3698,29.1113 101.5758,30.5793 101.5758,32.0483 Z M129.7351,62.5347 L129.7351,68.6277 C124.8031,69.3517 122.3371,69.7357 117.4141,70.5307 L117.4141,64.4377 C122.3371,63.6427 124.8031,63.2587 129.7351,62.5347 Z M117.4141,64.4374 L117.4141,70.5304 C116.2441,66.3954 114.6331,61.9554 112.5991,57.2384 L112.5991,51.1454 C114.6331,55.8614 116.2441,60.3014 117.4141,64.4374 Z M183.0187,29.2748 L183.0187,35.3678 C182.8047,36.5368 182.6857,37.8538 182.6637,39.3198 C182.6627,39.4618 182.6617,39.6058 182.6617,39.7518 L182.6617,33.6578 C182.6617,33.5118 182.6627,33.3678 182.6637,33.2258 C182.6857,31.7608 182.8047,30.4438 183.0187,29.2748 Z M165.2751,30.8309 L165.2751,36.9239 C164.9711,37.6869 164.5351,38.5099 163.9711,39.3909 C163.8861,39.5239 163.7991,39.6559 163.7101,39.7869 L163.7101,33.6939 C163.7991,33.5629 163.8861,33.4309 163.9711,33.2969 C164.5351,32.4159 164.9711,31.5939 165.2751,30.8309 Z M163.7101,33.6935 L163.7101,39.7865 C162.1171,42.1335 159.9271,44.1255 157.1311,45.7245 L157.1311,39.6305 C159.9271,38.0315 162.1171,36.0395 163.7101,33.6935 Z M134.4623,40.0802 L134.4623,46.1732 C134.4623,38.0692 133.5573,32.4012 131.7603,29.1802 L131.7603,23.0872 C133.5573,26.3072 134.4623,31.9762 134.4623,40.0802 Z M205.7041,53.0391 L205.7041,59.1321 C203.6161,61.0531 202.5721,62.0181 200.4841,63.9561 L200.4841,57.8631 C202.5721,55.9241 203.6161,54.9601 205.7041,53.0391 Z M200.4841,57.8629 L200.4841,63.9559 C199.2451,64.0329 198.0441,64.0719 196.8831,64.0719 C188.4371,64.0719 182.0581,62.0319 177.8491,57.7839 C174.2651,54.1739 172.4891,49.4019 172.4891,43.5069 L172.4891,37.4139 C172.4891,43.3079 174.2651,48.0809 177.8491,51.6899 C182.0581,55.9389 188.4371,57.9779 196.8831,57.9779 C198.0441,57.9779 199.2451,57.9399 200.4841,57.8629 Z M144.8822,60.632 L144.8822,66.725 C139.9592,67.699 137.5022,68.208 132.5882,69.262 L132.5882,63.169 C137.5022,62.115 139.9592,61.606 144.8822,60.632 Z M182.1601,68.359 L182.1601,74.452 C181.9531,74.515 181.6741,74.56 181.3141,74.586 C181.0831,74.602 180.8451,74.61 180.6021,74.61 C176.9921,74.61 172.0211,72.873 166.3471,69.325 C158.1121,64.18 151.4251,55.461 145.3501,47.77 L145.3501,41.676 C151.4251,49.368 158.1121,58.086 166.3471,63.232 C172.0211,66.78 176.9921,68.517 180.6021,68.517 C180.8451,68.517 181.0831,68.509 181.3141,68.493 C181.6741,68.466 181.9531,68.422 182.1601,68.359 Z M240.4531,27.3123 L240.4531,33.4053 C239.9041,28.9303 239.6341,26.6973 239.0851,22.2303 L239.0851,16.1373 C239.6341,20.6033 239.9041,22.8373 240.4531,27.3123 Z M212.3758,32.4664 L212.3758,38.5594 C212.3758,32.1984 211.8528,27.0234 210.8158,23.0254 L210.8158,16.9324 C211.8528,20.9294 212.3758,26.1054 212.3758,32.4664 Z M251.4422,16.2891 L251.4422,22.3821 C250.4512,30.4961 249.9472,37.5751 249.9472,43.6021 L249.9472,37.5081 C249.9472,31.4811 250.4512,24.4031 251.4422,16.2891 Z M253.1342,55.844 L253.1342,61.937 C249.3182,61.89 246.7742,61.87 243.8032,61.87 C242.3182,61.87 240.7262,61.875 238.8152,61.884 L238.8152,55.79 C240.7262,55.781 242.3182,55.777 243.8032,55.777 C246.7742,55.777 249.3182,55.796 253.1342,55.844 Z M222.8132,55.4152 L222.8132,61.5082 C220.3292,61.8662 216.0362,62.4372 209.9342,63.3132 L209.9342,57.2192 C216.0362,56.3442 220.3292,55.7722 222.8132,55.4152 Z M266.8862,16.2801 L266.8862,22.3731 C266.7882,22.5921 266.6962,22.8111 266.6092,23.0291 L266.6092,16.9361 C266.6962,16.7171 266.7882,16.4991 266.8862,16.2801 Z M266.6091,16.9357 L266.6091,23.0287 C266.2371,23.9657 265.9661,24.8957 265.7961,25.8217 L265.7961,19.7277 C265.9661,18.8027 266.2371,17.8717 266.6091,16.9357 Z M265.796,19.7279 L265.796,25.8209 C265.652,26.6049 265.581,27.3849 265.581,28.1609 L265.581,22.0679 C265.581,21.2909 265.652,20.5109 265.796,19.7279 Z M292.0232,12.4122 L292.0232,18.5052 C291.8612,23.5792 291.7802,26.1162 291.6182,31.1902 L291.6182,25.0972 C291.7802,20.0232 291.8612,17.4862 292.0232,12.4122 Z M291.6182,25.0969 L291.6182,31.1899 C286.8572,25.6249 280.4852,22.5879 272.4572,22.2039 C271.9202,22.1799 271.3782,22.1679 270.8332,22.1679 C269.5422,22.1679 268.2272,22.2359 266.8862,22.3739 L266.8862,16.2799 C268.2272,16.1419 269.5422,16.0749 270.8332,16.0749 C271.3782,16.0749 271.9202,16.0869 272.4572,16.1099 C280.4852,16.4949 286.8572,19.5319 291.6182,25.0969 Z M255.2132,31.3946 L255.2132,37.4876 C254.9972,34.7366 254.8892,32.7896 254.8802,31.6636 L254.8802,25.5706 C254.8892,26.6956 254.9972,28.6436 255.2132,31.3946 Z M286.1562,44.7154 L286.1562,50.8084 C286.1562,50.7524 286.1562,50.6944 286.1552,50.6374 C286.1282,48.7884 285.7052,47.1624 284.8772,45.8224 C283.9232,44.2774 282.5642,43.3664 280.9082,43.1514 C277.4612,42.6964 271.0082,43.2054 264.7802,42.2494 C261.1712,41.6954 257.5442,39.4894 255.2132,37.4884 L255.2132,31.3944 C257.5442,33.3954 261.1712,35.6024 264.7802,36.1554 C271.0082,37.1114 277.4612,36.6024 280.9082,37.0584 C282.5642,37.2724 283.9232,38.1834 284.8772,39.7294 C285.7052,41.0694 286.1282,42.6944 286.1552,44.5434 C286.1562,44.6014 286.1562,44.6584 286.1562,44.7154 Z M255.3122,50.3414 L255.3122,56.4344 C255.2402,52.8884 255.1952,51.1194 255.1142,47.5734 L255.1142,41.4804 C255.1952,45.0264 255.2402,46.7954 255.3122,50.3414 Z M296.5243,39.8809 L296.5243,45.9739 C296.5243,46.5549 296.4713,47.1359 296.3643,47.7179 L296.3643,41.6249 C296.4713,41.0419 296.5243,40.4609 296.5243,39.8809 Z M296.364,41.6248 L296.364,47.7178 C296.238,48.4028 296.039,49.0888 295.765,49.7768 L295.765,43.6838 C296.039,42.9958 296.238,42.3098 296.364,41.6248 Z M295.7647,43.6837 L295.7647,49.7767 C295.4017,50.6877 294.9097,51.6027 294.2867,52.5197 L294.2867,46.4267 C294.9097,45.5087 295.4017,44.5947 295.7647,43.6837 Z M294.2865,46.4265 L294.2865,52.5195 C293.7605,53.2955 293.1405,54.0725 292.4285,54.8535 C290.9885,56.4705 288.8195,58.4355 285.9125,60.7765 C284.7155,61.7315 283.4105,62.7145 281.9975,63.7155 L281.9975,57.6215 C283.4105,56.6215 284.7155,55.6385 285.9125,54.6825 C288.8195,52.3425 290.9885,50.3775 292.4285,48.7605 C293.1405,47.9795 293.7605,47.2015 294.2865,46.4265 Z M281.9972,57.6217 L281.9972,63.7147 C281.7262,63.7197 281.4542,63.7217 281.1812,63.7217 C280.3292,63.7217 279.4632,63.6997 278.5772,63.6527 C269.2892,63.1527 261.5222,60.7847 255.3122,56.4347 L255.3122,50.3417 C261.5222,54.6917 269.2892,57.0587 278.5772,57.5587 C279.4632,57.6067 280.3292,57.6287 281.1812,57.6287 C281.4542,57.6287 281.7262,57.6257 281.9972,57.6217 Z M312.8852,25.088 L312.8852,31.181 C311.7782,30.896 310.6712,30.699 309.5732,30.592 C308.9322,30.531 308.3082,30.501 307.7022,30.501 C304.2692,30.501 301.3812,31.466 299.0252,33.379 L299.0252,27.285 C301.3812,25.373 304.2692,24.408 307.7022,24.408 C308.3082,24.408 308.9322,24.438 309.5732,24.498 C310.6712,24.606 311.7782,24.802 312.8852,25.088 Z M299.0251,27.2855 L299.0251,33.3785 C298.6021,29.8325 298.3951,28.0545 297.9721,24.5085 L297.9721,18.4155 C298.3951,21.9615 298.6021,23.7395 299.0251,27.2855 Z M337.1492,22.7476 L337.1492,28.8406 C336.2222,30.8246 335.7542,31.8246 334.8272,33.8076 L334.8272,27.7146 C335.7542,25.7316 336.2222,24.7306 337.1492,22.7476 Z M349.2542,28.6879 L349.2542,34.7809 C349.2192,34.8319 349.1842,34.8829 349.1502,34.9329 L349.1502,28.8399 C349.1842,28.7889 349.2192,28.7379 349.2542,28.6879 Z M346.207,36.0204 L346.207,42.1134 C345.981,43.3424 345.868,44.6184 345.868,45.9424 L345.868,39.8484 C345.868,38.5254 345.981,37.2494 346.207,36.0204 Z M313.7895,40.8858 L313.7895,46.9788 C313.7895,46.0498 313.7795,45.0958 313.7585,44.1158 C313.6775,40.0968 313.3805,35.7908 312.8855,31.1818 L312.8855,25.0878 C313.3805,29.6978 313.6775,34.0028 313.7585,38.0228 C313.7795,39.0018 313.7895,39.9558 313.7895,40.8858 Z M374.6375,52.6723 L374.6375,58.7653 C374.6375,58.3903 374.6305,58.0063 374.6165,57.6143 C374.4725,53.8083 373.5905,49.3863 371.9615,44.3933 C370.4765,39.8193 365.3375,36.7203 356.5715,35.3443 C354.1345,34.9683 351.7495,34.7813 349.4165,34.7813 L349.2545,34.7813 L349.2545,28.6883 C349.3085,28.6873 349.3625,28.6873 349.4165,28.6873 C351.7495,28.6873 354.1345,28.8753 356.5715,29.2503 C365.3375,30.6263 370.4765,33.7263 371.9615,38.3003 C373.5905,43.2933 374.4725,47.7153 374.6165,51.5203 C374.6305,51.9133 374.6375,52.2973 374.6375,52.6723 Z M390.0343,53.9631 L390.0343,60.0561 C390.0343,58.1241 389.9983,56.2941 389.9253,54.5681 C389.8623,53.0221 389.7363,51.6201 389.6013,50.3961 C389.1063,45.7961 386.7843,41.1241 382.4733,36.6131 L382.4733,30.5191 C386.7843,35.0301 389.1063,39.7021 389.6013,44.3031 C389.7363,45.5261 389.8623,46.9291 389.9253,48.4741 C389.9983,50.2001 390.0343,52.0301 390.0343,53.9631 Z M431.9192,41.203 L431.9192,47.296 C431.5052,48.529 431.1362,49.78 430.8122,51.039 C430.5362,52.146 430.3002,53.224 430.1082,54.272 L430.1082,48.178 C430.3002,47.131 430.5362,46.053 430.8122,44.946 C431.1362,43.686 431.5052,42.436 431.9192,41.203 Z M430.1081,48.1784 L430.1081,54.2714 C429.7741,56.0914 429.5701,57.8184 429.5071,59.4454 C429.4401,61.2414 429.4101,63.0414 429.4101,64.8444 L429.4101,58.7504 C429.4101,56.9474 429.4401,55.1474 429.5071,53.3514 C429.5701,51.7254 429.7741,49.9974 430.1081,48.1784 Z M424.0892,59.5251 L424.0892,65.6181 C424.0892,64.9721 424.0712,64.2931 424.0352,63.5811 C423.7562,58.2211 422.6312,51.9321 420.6692,44.7331 L420.6692,38.6391 C422.6312,45.8391 423.7562,52.1281 424.0352,57.4881 C424.0712,58.1991 424.0892,58.8781 424.0892,59.5251 Z M325.0712,60.9269 L325.0712,67.0199 C319.4732,66.7879 316.6652,66.6989 311.0492,66.5649 L311.0492,60.4709 C316.6652,60.6049 319.4732,60.6949 325.0712,60.9269 Z M365.9401,67.823 L365.9401,73.916 C364.3921,73.791 362.8801,73.613 361.4221,73.381 C352.7191,71.969 346.0771,68.61 341.6401,63.143 C338.0491,58.722 336.1771,53.46 336.0151,47.404 C336.0071,47.122 336.0031,46.843 336.0031,46.567 L336.0031,40.473 C336.0031,40.75 336.0071,41.029 336.0151,41.31 C336.1771,47.367 338.0491,52.628 341.6401,57.05 C346.0771,62.517 352.7191,65.876 361.4221,67.287 C362.8801,67.519 364.3921,67.698 365.9401,67.823 Z M398.1332,72.2895 L398.1332,78.3825 C394.6052,77.8555 392.8412,77.5965 389.3042,77.1145 L389.3042,71.0215 C392.8412,71.5035 394.6052,71.7625 398.1332,72.2895 Z M430.6321,84.6259 L430.6321,90.7189 C421.4701,76.5969 408.0151,64.6979 396.1351,52.9689 L396.1351,46.8749 C408.0151,58.6039 421.4701,70.5029 430.6321,84.6259 Z M461.7991,56.782 L461.7991,62.875 C459.3691,59.91 454.7071,57.444 447.7771,55.622 L447.7771,49.528 C454.7071,51.351 459.3691,53.816 461.7991,56.782 Z M439.1282,70.4637 L439.1282,76.5567 C439.1282,74.2807 439.0622,71.9287 438.9302,69.5037 C438.5342,62.3217 437.5532,55.4787 435.9962,48.9757 L435.9962,42.8827 C437.5532,49.3857 438.5342,56.2277 438.9302,63.4107 C439.0622,65.8357 439.1282,68.1867 439.1282,70.4637 Z M462.1952,71.5838 L462.1952,77.6768 C458.4782,76.4628 453.8702,75.1048 448.3802,73.6488 L448.3802,67.5548 C453.8702,69.0108 458.4782,70.3688 462.1952,71.5838 Z M463.2751,89.271 L463.2751,95.364 C461.4301,94.578 458.7031,93.658 455.0851,92.604 C450.2791,91.211 444.7351,89.835 438.4351,88.513 L438.4351,82.419 C444.7351,83.742 450.2791,85.117 455.0851,86.511 C458.7031,87.565 461.4301,88.485 463.2751,89.271 Z" id="Combined-Shape" fill="url(#linearGradient-1)"></path>
            </g>
            <g id="Group-2" transform="translate(8.000000, 9.000000)" stroke="#ECDD52" fill="url(#radialGradient-2)">
                <path d="M38.6022,24.6904 C38.1072,29.8624 37.8552,32.4534 37.3602,37.6344 C34.5222,34.9234 30.9192,33.5464 26.5532,33.5454 C24.3012,33.5454 21.8472,33.9124 19.1892,34.6504 C17.4252,35.1334 15.6162,35.7854 13.7442,36.5804 C12.7452,38.8844 12.1962,41.0104 12.0792,42.9674 C11.8632,46.6924 13.5372,48.7204 17.0022,48.9524 C17.1712,48.9634 17.3532,48.9694 17.5482,48.9694 C20.8492,48.9694 27.7842,47.3354 38.3142,44.4594 C40.3842,45.8704 41.3562,48.0144 41.2122,50.8724 C41.0592,53.8654 39.5202,57.3314 36.5772,61.2974 C35.0562,63.3784 32.7882,66.0584 29.7822,69.3464 C28.5402,70.7034 27.1902,72.1064 25.7502,73.5624 C24.6522,73.9464 23.5362,74.2864 22.4022,74.5984 C17.7972,75.8394 13.6212,76.4694 9.8772,76.4694 C6.2612,76.4694 3.0472,75.8814 0.2352,74.6884 C0.3972,71.1234 0.4782,69.3464 0.6312,65.7904 C3.1512,67.0864 6.7962,67.9074 11.5842,68.3004 C13.0712,68.4254 14.4912,68.4884 15.8462,68.4884 C18.8542,68.4884 21.5352,68.1784 23.8872,67.5504 C26.2992,66.8984 27.9732,65.9694 28.8552,64.7544 C29.9622,63.2274 30.5742,61.3064 30.6912,59.0284 C30.7902,57.1704 30.4842,55.6604 29.7642,54.5714 C29.0962,53.5624 28.1362,53.0424 26.9502,53.0424 C26.6652,53.0424 26.3662,53.0724 26.0562,53.1324 C22.6902,53.7764 16.6602,56.3304 10.3692,57.3404 C9.7602,57.4394 9.1412,57.4854 8.5242,57.4854 C5.8182,57.4854 3.1342,56.6104 1.4052,55.5624 C1.3782,52.8474 1.3962,50.9174 1.4682,49.7834 C1.7472,45.1374 2.8902,41.6894 4.8882,39.4384 C9.7572,35.3024 12.1872,33.2574 17.0472,29.2014 C25.6422,27.2724 29.9532,26.3694 38.6022,24.6904 Z M69.6162,23.9221 C69.4722,26.5931 69.4002,27.9331 69.2562,30.6041 C68.0992,29.6781 66.2982,29.2051 63.8562,29.2051 C61.5862,29.2051 58.7632,29.6131 55.3872,30.4431 C54.9552,35.8211 54.7392,38.5011 54.3162,43.8781 C60.0582,42.5741 64.8102,41.4041 68.5452,40.3141 C68.3652,42.4311 68.2752,43.4851 68.0952,45.5931 C64.3242,46.2901 59.6532,47.2911 54.0912,48.6391 C53.8032,52.9091 53.6592,55.0351 53.3712,59.3051 C53.3352,60.0291 53.6142,60.5831 54.2082,60.9671 C54.5822,61.2031 54.9962,61.3231 55.4522,61.3231 C55.7192,61.3231 56.0002,61.2821 56.2962,61.1991 C60.7962,59.9841 63.0462,59.3951 67.5552,58.2421 C67.4652,60.2251 67.4202,61.2171 67.3392,63.2001 C65.4852,63.3611 62.7312,63.8251 59.0682,64.6291 C54.1992,65.7011 48.5742,67.1571 42.2112,69.0601 C43.5522,62.8071 44.3892,56.2231 44.7312,49.2741 C45.0822,42.1091 44.7942,35.5791 43.8762,29.7111 C54.1452,27.2181 59.2932,26.0571 69.6162,23.9221 Z M121.7351,53.5349 C116.8031,54.2579 114.3371,54.6419 109.4141,55.4369 C108.2441,51.3019 106.6331,46.8619 104.5991,42.1449 C98.4341,43.1279 95.3561,43.6459 89.2091,44.7449 C86.2391,51.0599 84.5561,56.0269 84.1691,59.6269 C79.2191,60.8329 76.7531,61.4669 71.8211,62.7539 C73.9541,60.2969 76.1321,57.3489 78.3551,53.9009 C84.5291,44.4589 89.0021,34.2129 93.4751,23.9039 C93.5291,23.6719 93.5651,23.4129 93.5741,23.1449 C93.6281,21.6439 92.4221,20.1439 89.9651,18.6429 C95.2751,17.3649 97.9391,16.7579 103.2581,15.5699 C105.7691,21.6889 108.1271,27.1289 110.3141,31.8809 C115.5791,43.3689 119.4131,50.6139 121.7351,53.5349 Z M195.0547,7.7686 C196.0957,7.7686 197.1257,7.7876 198.1447,7.8246 C198.3067,11.0676 198.3787,12.6846 198.5317,15.9276 C195.1037,14.2826 190.9687,13.4446 186.1287,13.4446 C185.3147,13.4436 184.4817,13.4676 183.6277,13.5156 C180.5587,13.6936 178.6777,14.0606 177.9667,14.6056 C175.8337,16.2306 174.7357,19.4376 174.6637,24.2256 C174.6457,25.6646 174.7177,27.2896 174.8977,29.0766 C175.5997,36.3836 179.5957,40.9836 186.9217,43.0386 C189.3607,43.7516 192.1737,44.0986 195.3517,44.0986 C196.1147,44.0986 196.8987,44.0786 197.7037,44.0396 C195.6157,45.9596 194.5717,46.9246 192.4837,48.8626 C191.2457,48.9396 190.0447,48.9776 188.8837,48.9776 C180.4377,48.9776 174.0587,46.9386 169.8487,42.6906 C166.1587,38.9746 164.3857,34.0256 164.4937,27.8886 C164.5297,25.4946 164.8807,23.2786 165.5107,21.2426 C166.0957,19.3576 166.7707,18.1246 167.5267,17.5706 C175.0957,12.2116 179.7127,9.4326 181.3507,9.0486 C183.6907,8.4946 186.8497,8.0576 190.7647,7.8696 C192.2107,7.8026 193.6417,7.7686 195.0547,7.7686 Z M136.9812,11.1391 C136.9272,13.3371 136.9002,14.4351 136.8462,16.6331 C140.5632,13.5781 144.3162,11.8631 148.1232,11.4701 C148.7712,11.4071 149.3922,11.3621 149.9952,11.3441 C153.7162,11.3441 156.0572,12.3091 157.0692,14.1851 C157.5012,14.9181 157.7442,16.6511 157.7892,19.4021 C157.8162,20.7511 157.1952,22.3861 155.9712,24.2971 C154.3602,26.8161 152.0832,28.9421 149.1312,30.6311 C150.9492,35.0431 154.0002,39.7061 158.2932,44.6461 C161.3622,48.1571 164.9172,51.6501 168.9672,55.1341 C170.6682,56.5361 172.3962,57.9471 174.1602,59.3591 C173.9532,59.4211 173.6742,59.4661 173.3142,59.4931 C173.0832,59.5091 172.8452,59.5171 172.6022,59.5171 C168.9922,59.5171 164.0212,57.7791 158.3472,54.2311 C150.1122,49.0861 143.4252,40.3681 137.3502,32.6761 C139.0602,32.1671 140.5812,31.6581 141.8952,31.1491 C145.0362,29.8531 146.9172,28.6921 147.5472,27.6381 C148.5822,25.9501 149.1222,24.1811 149.1582,22.3231 C149.1942,20.7421 148.8702,19.3661 148.2042,18.1961 C147.5292,17.0171 146.6382,16.3111 145.5492,16.0611 C145.2842,15.9871 144.9502,15.9481 144.5462,15.9481 C144.2642,15.9481 143.9472,15.9671 143.5962,16.0071 C139.2402,16.4721 136.6842,18.9911 136.0002,23.4311 C135.6942,25.4411 135.5142,27.8261 135.4512,30.5411 C135.2892,36.7411 135.7662,43.7711 136.8822,51.6321 C131.9592,52.6061 129.5022,53.1151 124.5882,54.1691 C125.6412,46.8261 126.2532,40.2341 126.4152,34.4091 C126.6852,24.5121 125.7942,17.7311 123.7602,14.0871 C129.0432,12.8631 131.6892,12.2731 136.9812,11.1391 Z M214.9571,6.4851 C214.6691,11.5861 214.5251,14.1321 214.2281,19.2231 C215.8531,19.3581 217.5641,19.4231 219.3541,19.4231 C219.5761,19.4231 219.7991,19.4221 220.0241,19.4201 C224.2991,19.3751 228.4391,19.0091 232.4531,18.3121 C231.9041,13.8371 231.6341,11.6041 231.0851,7.1371 C236.0261,7.1551 238.5011,7.1911 243.4421,7.2891 C242.4251,15.6141 241.9211,22.8501 241.9481,28.9781 C241.9841,38.1431 243.0371,44.0931 245.1341,46.8441 C241.3181,46.7961 238.7741,46.7761 235.8031,46.7761 C234.3181,46.7761 232.7261,46.7811 230.8151,46.7901 C231.9221,38.3581 232.4711,31.7741 232.4621,27.0401 C232.4621,25.9591 232.4351,25.0301 232.3901,24.2621 C230.6911,23.9111 228.1911,23.7151 224.8731,23.7151 C224.7281,23.7151 224.5821,23.7161 224.4341,23.7171 C221.2031,23.7261 217.7201,23.8951 213.9851,24.2351 C214.3181,33.1051 214.4801,37.5451 214.8131,46.4151 C212.3291,46.7721 208.0361,47.3441 201.9341,48.2201 C203.5181,39.6441 204.3281,31.6581 204.3731,24.2621 C204.4181,17.5351 203.8961,12.0951 202.8161,7.9321 C207.6761,7.3161 210.0971,7.0301 214.9571,6.4851 Z M261.8382,0.902 C270.7122,1.777 275.1492,2.287 284.0232,3.412 C283.8612,8.486 283.7802,11.023 283.6182,16.097 C278.8572,10.532 272.4852,7.494 264.4572,7.11 C263.9202,7.086 263.3782,7.074 262.8332,7.074 C261.5422,7.074 260.2272,7.142 258.8862,7.28 C257.9952,9.272 257.5632,11.237 257.5812,13.185 C257.6082,16.883 259.4892,19.474 263.1612,20.858 C266.3472,22.064 273.7092,22.743 285.0762,23.306 C287.3262,25.414 288.4782,27.888 288.5232,30.738 C288.5682,33.713 287.2092,36.714 284.4282,39.76 C282.9882,41.377 280.8192,43.342 277.9122,45.683 C276.7152,46.639 275.4102,47.621 273.9972,48.622 C273.7262,48.626 273.4542,48.628 273.1812,48.628 C272.3292,48.628 271.4632,48.606 270.5772,48.559 C261.2892,48.059 253.5222,45.692 247.3122,41.341 C247.2402,37.795 247.1952,36.026 247.1142,32.48 C249.8592,34.615 253.7562,36.652 258.8142,38.635 C263.8632,40.618 268.1472,41.725 271.6392,41.922 C271.9542,41.939 272.2562,41.947 272.5452,41.947 C274.5342,41.947 275.9032,41.544 276.6342,40.725 C277.6782,39.546 278.1822,37.804 278.1552,35.544 C278.1282,33.695 277.7052,32.069 276.8772,30.729 C275.9232,29.184 274.5642,28.272 272.9082,28.058 C269.4612,27.602 263.0082,28.112 256.7802,27.156 C253.1712,26.602 249.5442,24.396 247.2132,22.395 C246.9972,19.643 246.8892,17.696 246.8802,16.57 C246.8622,11.961 247.8252,8.852 249.7692,7.235 C254.6112,4.663 257.0232,3.403 261.8382,0.902 Z M289.9722,9.4151 C303.0492,10.7731 316.0992,12.2111 329.1492,13.7471 C328.2222,15.7311 327.7542,16.7311 326.8272,18.7141 C324.7122,18.2231 320.7342,17.6071 314.8752,16.9451 C314.1102,22.3051 313.7862,27.7721 313.9122,33.3281 C314.0832,40.7781 315.1362,46.9781 317.0712,51.9271 C311.4732,51.6951 308.6652,51.6051 303.0492,51.4711 C305.0742,46.6211 305.9742,39.1441 305.7582,29.0231 C305.6772,25.0031 305.3802,20.6971 304.8852,16.0881 C303.7782,15.8021 302.6712,15.6061 301.5732,15.4981 C300.9322,15.4381 300.3082,15.4081 299.7022,15.4081 C296.2692,15.4081 293.3812,16.3721 291.0252,18.2851 C290.6022,14.7391 290.3952,12.9611 289.9722,9.4151 Z M375.751,38.7599 C375.976,44.4229 374.464,49.7829 371.179,54.8839 C369.154,55.2769 364.762,56.5449 357.94,58.8229 C356.392,58.6979 354.88,58.5189 353.422,58.2869 C344.719,56.8759 338.077,53.5169 333.64,48.0499 C330.049,43.6279 328.177,38.3669 328.015,32.3099 C327.925,29.1029 328.348,26.2269 329.275,23.6989 C330.157,21.2869 331.264,19.8849 332.596,19.4739 C336.349,18.3209 341.83,15.3909 345.943,14.9889 C346.678,14.9169 347.421,14.8829 348.165,14.8829 C356.824,14.8829 365.756,19.4789 368.209,22.0369 C372.988,26.9589 375.499,32.5509 375.751,38.7599 Z M374.4731,21.5192 C378.6761,21.9482 380.7821,22.1802 384.9761,22.6712 C389.3051,27.5492 393.2921,31.9622 396.9551,35.9102 C405.7571,45.2892 412.0751,51.3912 415.8731,54.0262 C416.0891,52.4632 416.1431,50.6222 416.0351,48.4872 C415.7561,43.1282 414.6311,36.8392 412.6691,29.6392 C417.1781,30.6312 419.4281,31.1402 423.9191,32.2032 C423.5051,33.4362 423.1361,34.6862 422.8121,35.9462 C422.0561,38.9742 421.6061,41.7882 421.5071,44.3522 C421.1201,54.7232 421.9751,65.2282 422.6321,75.6262 C413.4701,61.5032 400.0151,49.6042 388.1351,37.8752 C388.9271,48.0412 389.3321,53.1242 390.1331,63.2892 C386.6051,62.7622 384.8411,62.5032 381.3041,62.0212 C381.9791,53.1862 382.1861,45.6652 381.9251,39.4742 C381.8621,37.9292 381.7361,36.5262 381.6011,35.3022 C381.1061,30.7022 378.7841,26.0302 374.4731,21.5192 Z M427.9962,33.8823 C438.2202,36.5983 443.3142,38.0363 453.4662,41.1093 C453.6012,43.7803 453.6642,45.1113 453.7992,47.7823 C451.3692,44.8163 446.7072,42.3503 439.7772,40.5283 C439.9122,45.8253 439.9752,48.4783 440.1102,53.7763 C445.7982,55.3753 450.4512,56.5983 454.0962,57.3853 C454.1412,59.4663 454.1592,60.5023 454.1952,62.5833 C450.4782,61.3693 445.8702,60.0113 440.3802,58.5553 C440.5332,62.7803 440.6142,64.8973 440.7672,69.1313 C440.8122,69.8553 441.1542,70.5703 441.7932,71.2663 C442.4322,71.9633 443.1522,72.4013 443.9262,72.5793 C448.3542,73.6253 450.5592,74.1693 454.9692,75.2863 C455.0952,77.2783 455.1582,78.2703 455.2752,80.2713 C453.4302,79.4853 450.7032,78.5643 447.0852,77.5103 C442.2792,76.1173 436.7352,74.7413 430.4352,73.4193 C431.1462,67.7023 431.3082,61.3603 430.9302,54.4103 C430.5342,47.2283 429.5532,40.3853 427.9962,33.8823 Z M361.549,54.9819 C365.167,53.0879 366.85,48.9519 366.616,42.5209 C366.472,38.7149 365.59,34.2929 363.961,29.2999 C362.476,24.7259 357.337,21.6269 348.571,20.2509 C346.135,19.8749 343.75,19.6879 341.417,19.6879 L341.254,19.6879 C338.878,23.1179 337.744,27.0759 337.879,31.5599 C337.996,35.5349 339.238,39.5099 341.614,43.5029 C345.457,49.8279 350.839,53.5169 357.724,54.6689 C358.981,54.8859 360.11,54.9889 361.104,54.9889 C361.256,54.9889 361.404,54.9869 361.549,54.9819 Z M91.7021,39.6529 C96.0491,38.8849 98.2271,38.5189 102.5741,37.8129 C100.9991,34.4719 99.4601,31.4879 97.9751,28.8619 C96.9761,30.4159 94.8881,34.0069 91.7021,39.6529 Z" id="Combined-Shape"></path>
            </g>
        </g>
    </g>
</svg>