<?xml version="1.0" encoding="UTF-8" standalone="no"?>
<svg width="1186px" height="290px" viewBox="0 0 1186 290" version="1.1" xmlns="http://www.w3.org/2000/svg" xmlns:xlink="http://www.w3.org/1999/xlink">
    <!-- Generator: Sketch 3.8.2 (29753) - http://www.bohemiancoding.com/sketch -->
    <title>searchstone</title>
    <desc>Created with Sketch.</desc>
    <defs>
        <radialGradient cx="40.8549616%" cy="0%" fx="40.8549616%" fy="0%" r="53.1416284%" id="radialGradient-1">
            <stop stop-color="#635884" offset="0%"></stop>
            <stop stop-color="#5B4E66" offset="100%"></stop>
        </radialGradient>
        <linearGradient x1="48.3656086%" y1="-15.293233%" x2="50.5830638%" y2="77.8665517%" id="linearGradient-2">
            <stop stop-color="#BD6901" offset="0%"></stop>
            <stop stop-color="#965656" offset="100%"></stop>
        </linearGradient>
    </defs>
    <g id="Page-1" stroke="none" stroke-width="1" fill="none" fill-rule="evenodd">
        <g id="Desktop-HD" transform="translate(-243.000000, -132.000000)">
            <g id="searchstone" transform="translate(243.000000, 132.000000)">
                <polygon id="Stroke-1" fill="#3D2666" points="136.281202 86.9510874 72.1549164 92.2028009 14.3128557 145.827745 14.3128557 248.114692 21.2136078 271.277047 88.2176603 268.176267 123.791684 251.455687 145.825802 258.049626 281.315952 215.704072 398.118527 215.704081 469.363786 231.955477 508.103354 204.328344 639.862005 196.719472 712.717487 204.328344 745.816628 188.236673 762.224706 210.267988 837.531125 204.328344 890.160722 231.955477 945.265223 231.955475 964.82446 245.464416 1024.67726 225.455403 1056.46701 264.241594 1165.15553 289.87211 1175.71696 273.730831 1175.71696 140.311251 1045.20534 92.2028019 1017.73239 106.959961 945.265223 73.8195233 855.013592 61.8189981 762.224725 50.7242647 679.397739 25.3189995 620.221217 43.451072 499.287771 43.4510715 439.056065 61.818999 390.709546 50.7242642 320.175429 61.818999 306.789007 81.1425285 295.378653 67.8269373 237.583459 81.1425285 223.923649 106.959957 215.549341 86.9510894 164.24832 99.4069088"></polygon>
                <polygon id="Stroke-1" fill="url(#radialGradient-1)" points="136.281202 62.4132723 72.1549164 67.6649858 0.671875 121.289928 14.3128557 246.092241 80.8505717 246.092234 118.880292 226.917872 143.370106 233.51181 281.315952 191.166257 398.118527 191.166266 469.363786 207.417661 508.103354 179.790529 639.862005 172.181657 712.717487 179.790529 745.816628 163.698858 762.224706 185.730173 837.531125 179.790529 890.160722 207.417661 945.265223 207.41766 964.82446 220.926601 1024.67726 200.917588 1056.46701 239.70378 1175.71696 270.955948 1185.48436 121.289928 1045.20534 67.6649868 1017.73239 82.4221456 945.265223 49.2817081 855.013592 37.2811829 762.224725 26.1864496 679.397739 0.781184332 620.221217 18.9132569 499.287771 18.9132565 439.056065 37.2811839 390.709546 26.1864491 320.175429 37.2811839 306.789007 56.6047133 295.378653 43.2891222 237.583459 56.6047133 223.923649 82.4221419 215.549341 62.4132743 164.24832 74.8690937"></polygon>
                <g id="Group-4" transform="translate(21.000000, 18.000000)" fill="#3E3731">
                    <path d="M33.6130405,165.199328 C35.8231671,165.199328 38.0038253,165.027563 40.0936228,164.686487 C50.3044076,163.025277 60.0166861,159.926151 67.8208886,157.435563 C70.711243,156.512941 73.4935468,155.624672 75.7896228,154.984235 C75.7920785,155.320403 75.7847114,155.693378 75.7626101,156.108067 C75.5931671,159.300437 74.8687367,161.832739 73.6065089,163.636269 C73.3904076,163.82521 72.0643316,164.885244 68.0959266,165.957546 C63.4227367,167.21879 57.8433949,167.859227 51.5150658,167.859227 C48.563319,167.859227 45.4003823,167.719361 42.1097494,167.442084 C32.9647367,166.676504 27.0710658,165.326924 23.3113949,164.019059 C26.7297241,164.787092 30.2315468,165.199328 33.6130405,165.199328 M55.9819772,110.612504 C58.3983823,109.707059 60.7681291,108.92921 63.0642051,108.286319 C68.4716481,106.77479 73.4444329,106.00921 77.8425848,106.00921 C84.5269899,106.011664 89.9565342,107.768571 94.3718759,111.373176 C81.4180785,114.850185 62.6393696,119.60316 55.7216734,119.60316 C55.5424076,119.60316 55.3754203,119.600706 55.2207114,119.590891 C54.9702304,119.573714 54.7590405,119.55163 54.5822304,119.524639 C54.5404835,119.114857 54.5183823,118.530857 54.5650405,117.738286 C54.690281,115.57405 55.1642304,113.188975 55.9819772,110.612504 M107.446003,59.5738487 C106.66018,59.5738487 105.869446,59.6474622 105.086078,59.8020504 C83.5864582,64.0102857 73.1276481,66.2162353 51.7925595,71.0477311 C49.8844835,71.4795966 48.1090152,72.3605042 46.6110405,73.6168403 C34.5462051,83.7386891 28.6697241,88.7174118 16.6687367,98.9840336 C16.2316228,99.3570084 15.8215215,99.7618824 15.4433443,100.191294 C8.70736962,107.827462 4.85192658,118.913647 3.98997722,133.140672 C3.79843291,136.293782 3.7394962,141.252874 3.8082557,148.302588 C3.84754684,152.54763 6.08223038,156.468773 9.71420506,158.672269 C11.2416481,159.599798 12.8820532,160.441445 14.6010405,161.189849 C14.4684329,161.184941 14.3333696,161.182487 14.200762,161.182487 C12.0765848,161.182487 9.95731899,161.732134 8.05906582,162.826521 C4.42954684,164.92205 2.12119241,168.722958 1.93455949,172.906655 L0.957192405,194.912168 C0.728812658,200.020941 3.69529367,204.732202 8.40040759,206.741849 C16.7743316,210.312101 26.3589139,212.125445 36.8938506,212.125445 C47.0776228,212.125445 58.5113443,210.422521 70.8782304,207.063294 C73.9183823,206.238824 76.9609899,205.296571 79.9250152,204.261076 C81.7004835,203.642723 83.3114203,202.62195 84.6301291,201.282185 C88.2989392,197.557345 91.7369139,193.938017 94.8531924,190.524807 C102.679496,181.902218 108.413547,175.053714 112.404053,169.559697 C121.111952,157.739832 125.610787,147.129681 126.106838,137.186958 C126.656914,126.211193 122.479775,116.962891 114.329319,111.054185 C115.586635,109.316908 116.392104,107.24837 116.603294,105.030151 L119.668003,73.0083025 C120.036357,69.1534118 118.562939,65.3525042 115.689775,62.7514958 C113.410889,60.6878655 110.466509,59.5738487 107.446003,59.5738487 M107.446003,71.8427563 C106.22061,84.649042 105.609142,91.0534118 104.381294,103.862151 C97.4120278,97.1461513 88.5641544,93.7427563 77.8450405,93.7403025 C72.3148127,93.7403025 66.2860785,94.6457479 59.758838,96.4713613 C55.4417241,97.6786218 50.9870911,99.2711261 46.3998506,101.253782 C43.9539772,106.931832 42.5861544,112.197647 42.3062051,117.029143 C41.773319,126.252908 45.8816987,131.261076 54.3980532,131.830353 C54.8081544,131.859798 55.2501797,131.872067 55.7216734,131.872067 C63.8131924,131.872067 80.8581797,127.845412 106.743673,120.71963 C111.822053,124.211361 114.196711,129.504168 113.845547,136.573513 C113.474737,143.981479 109.688053,152.552538 102.465851,162.352941 C98.7209139,167.508336 93.1612177,174.126185 85.7818506,182.258017 C82.7269646,185.604975 79.4240532,189.077076 75.8780278,192.679227 C73.1890405,193.616571 70.4509392,194.46558 67.656357,195.223798 C56.3478759,198.295933 46.0904329,199.856538 36.8938506,199.856538 C28.0189646,199.856538 20.1288127,198.403899 13.2233949,195.456908 C13.6138506,186.655193 13.8103063,182.253109 14.200762,173.451395 C20.376838,176.656034 29.3278506,178.682857 41.0857241,179.669277 C44.7201544,179.973546 48.1974203,180.128134 51.5150658,180.128134 C58.9165342,180.128134 65.5174456,179.362555 71.2981544,177.80195 C77.2384835,176.197176 81.3394962,173.902891 83.5078759,170.894555 C86.2287873,167.113277 87.726762,162.367664 88.0239013,156.753412 C88.2670152,152.147664 87.5131165,148.413008 85.7401038,145.72121 C84.0923316,143.225714 81.7250405,141.939933 78.8003063,141.939933 C78.1078,141.939933 77.3833696,142.013546 76.6294709,142.158319 C68.3734203,143.750824 53.5532937,150.066857 38.119243,152.577076 C36.6335468,152.82 35.120838,152.93042 33.6130405,152.93042 C26.948281,152.93042 20.3400025,150.766185 16.084281,148.184807 C16.0204329,141.468807 16.0744582,136.701109 16.246357,133.884168 C16.941319,122.402924 19.7457241,113.868672 24.6546608,108.303496 C36.5967114,98.0884034 42.5665089,93.0311597 54.5061038,83.0123697 C75.6128127,78.2348571 86.2017747,75.9994622 107.446003,71.8427563" id="Fill-3"></path>
                    <path d="M159.657789,96.2750588 C163.198902,95.6812437 166.307814,95.3818824 168.955054,95.3818824 C173.230421,95.3818824 174.593333,96.1793613 174.608067,96.1867227 C175.902219,97.2271261 177.363358,97.9730756 178.898168,98.4098487 C178.262143,98.4908235 177.628573,98.6233277 177.004827,98.8073613 C172.024675,100.269815 166.160472,101.83042 159.0807,103.572605 L159.657789,96.2750588 L159.657789,96.2750588 Z M183.099865,57.7874958 C182.264928,57.7874958 181.42508,57.8709244 180.592599,58.0451429 C154.925662,63.3919328 142.438447,66.2186891 116.96551,72.4365714 C110.772244,73.9481008 106.769459,79.9451429 107.749282,86.2415462 C109.878371,99.9287395 110.541409,115.370387 109.721206,132.132168 C108.913282,148.584773 106.914346,164.377311 103.775966,179.070555 C102.87227,183.313143 104.274472,187.715227 107.466877,190.654857 C109.765409,192.770017 112.746624,193.898756 115.786776,193.898756 C116.967966,193.898756 118.158978,193.729445 119.320523,193.381008 C134.066978,188.949479 147.693637,185.347328 159.827232,182.672706 C170.096953,180.407866 175.686118,179.632471 178.566649,179.379731 C184.708346,178.844807 189.499409,173.839092 189.764624,167.682555 L189.980725,162.61795 L190.290143,155.416101 C190.454675,151.534218 188.772523,147.802017 185.749561,145.355597 C183.539434,143.56679 180.803789,142.622084 178.021485,142.622084 C176.999915,142.622084 175.970978,142.749681 174.959232,143.009782 C167.201687,145.004706 162.199434,146.312571 156.146143,147.941882 L156.612725,140.990319 C165.797029,138.848168 174.170953,137.074084 181.599434,135.697513 C187.036346,134.689008 191.129991,130.17405 191.594118,124.667765 L192.699181,111.611193 C193.040523,107.577176 191.368194,103.63395 188.229814,101.074655 C186.908649,99.9974454 185.400852,99.2245042 183.809561,98.7730084 C184.983384,98.6208739 186.144928,98.2969748 187.264725,97.7988571 C191.471333,95.9241681 194.22908,91.8165378 194.474649,87.2181513 L195.361156,70.711563 C195.564978,66.9106555 193.990877,63.2275294 191.098067,60.7467563 C188.851105,58.818084 186.007409,57.7874958 183.099865,57.7874958 L183.099865,57.7874958 L183.099865,57.7874958 Z M183.099865,70.0564034 C182.746244,76.6570756 182.569434,79.9598655 182.213358,86.5629916 C179.374573,84.278521 174.951865,83.1129748 168.955054,83.1129748 C163.378168,83.1129748 156.438371,84.1190252 148.140573,86.1703866 C147.091991,99.4551597 146.566472,106.097546 145.515434,119.384773 C159.620953,116.162958 171.283054,113.274857 180.464902,110.578151 C180.022877,115.799798 179.801865,118.410622 179.359839,123.634723 C170.084675,125.35237 158.614118,127.820874 144.967814,131.158017 C144.258118,141.70437 143.904497,146.975092 143.194801,157.521445 C143.111308,159.31516 143.801358,160.68437 145.260042,161.626622 C146.180928,162.222891 147.202497,162.522252 148.322295,162.522252 C148.973054,162.522252 149.658194,162.421647 150.377713,162.217983 C161.423434,159.204739 166.951206,157.739832 178.021485,154.890992 C177.812751,159.798555 177.707156,162.252336 177.495966,167.157445 C172.952928,167.554958 166.177662,168.708235 157.179991,170.690891 C145.225662,173.328706 131.422194,176.933311 115.78432,181.629849 C119.079865,166.193109 121.142649,149.897546 121.984953,132.733345 C122.85427,115.007227 122.142118,98.878521 119.880421,84.3545882 C145.093054,78.2005042 157.73989,75.339395 183.099865,70.0564034 L183.099865,70.0564034 L183.099865,70.0564034 Z" id="Fill-5"></path>
                    <path d="M266.221496,37.0304672 C265.330078,37.0304672 264.428838,37.1286185 263.530053,37.3298286 C250.301218,40.2939966 243.855015,41.7981647 230.675294,44.9880807 C225.854762,46.1560807 222.208053,50.1066689 221.436965,55.0044168 C220.665876,59.9021647 222.920205,64.7827361 227.15137,67.3714756 C228.062433,67.9309378 228.757395,68.4167866 229.282914,68.8192067 C219.312787,91.9460975 208.853977,115.671711 194.760737,137.4024 C189.616053,145.436081 184.567142,152.326299 179.714686,157.940551 C176.195673,162.011375 175.74137,167.895543 178.592433,172.457123 C180.873775,176.10835 184.844635,178.228417 189.007041,178.228417 C190.048256,178.228417 191.099294,178.095913 192.140509,177.821089 C204.237268,174.631173 210.153041,173.119644 222.28418,170.123576 C227.2938,168.884417 230.99699,164.646736 231.54461,159.518333 C232.033294,154.951845 233.983116,146.65561 240.237775,132.374602 C248.275268,130.941593 254.291724,129.911005 261.855268,128.674299 C264.959268,136.577929 267.525471,144.120854 269.512129,151.190198 C271.019927,156.554165 275.906762,160.146501 281.324028,160.146501 C281.982154,160.146501 282.650104,160.092518 283.320509,159.982097 C295.3878,158.006803 301.291294,157.086635 313.392965,155.300282 C317.729724,154.662299 321.396078,151.761929 323.011927,147.691106 C324.63023,143.622736 323.952458,138.999812 321.238914,135.562064 C318.321547,131.869123 310.998661,120.333896 294.722306,84.5479462 C289.39099,72.8900303 283.627471,59.4825681 277.586458,44.6715429 C275.671015,39.975005 271.12061,37.0304672 266.221496,37.0304672 M237.845927,108.835476 C248.515927,106.94361 253.857066,106.035711 264.546711,104.298434 C260.669167,96.0316437 256.899673,88.6506689 253.233319,82.1555092 C250.782534,86.0177613 245.667319,94.8881815 237.845927,108.835476 M266.216585,49.3018286 C272.385294,64.4269378 278.168458,77.8712067 283.543977,89.6248202 C296.463395,118.027341 305.883446,135.930131 311.600306,143.163879 C299.483901,144.952686 293.43061,145.894938 281.333851,147.875139 C278.45823,137.635509 274.511927,126.672013 269.509673,115.011644 C254.372762,117.431072 246.811673,118.716854 231.714053,121.440551 C224.425547,137.049055 220.287699,149.327778 219.337344,158.212921 C207.193927,161.213896 201.125901,162.762232 189.007041,165.959509 C194.252408,159.888854 199.608281,152.593761 205.064838,144.074232 C220.216484,120.714232 231.213091,95.3838454 242.182686,69.9086857 C242.322661,69.3295933 242.40861,68.7014252 242.433167,68.0266353 C242.565775,64.3287866 239.604205,60.6088538 233.568104,56.911005 C246.615218,53.7529882 253.144914,52.2316437 266.216585,49.3018286" id="Fill-7"></path>
                    <path d="M358.135749,75.7445143 C358.310104,73.8771866 358.516382,72.1595395 358.757041,70.5940269 C359.673015,64.5994387 362.010838,63.1369849 366.254281,62.6143294 C366.553876,63.4535227 366.693851,64.5037412 366.666838,65.7478084 C366.62018,67.9586655 366.011167,70.0738252 364.807876,72.1988 C364.191496,72.6699261 362.391471,73.8796403 358.135749,75.7445143 M349.022661,26.0824303 C348.160711,26.0824303 347.291395,26.1732202 346.431901,26.3597076 C333.293927,29.1938252 326.884559,30.6317412 313.773597,33.6866992 C310.023749,34.5626992 306.902559,37.1416235 305.340737,40.6578924 C303.778914,44.1717076 303.95818,48.2155395 305.822053,51.5796739 C308.019901,55.5449849 311.588028,66.5281109 310.797294,95.536716 C310.419116,109.452111 308.95061,125.416413 306.435977,142.990397 C305.866256,146.965523 307.280737,150.96764 310.220205,153.706061 C312.516281,155.84085 315.517142,156.996582 318.589218,156.996582 C319.453623,156.996582 320.322939,156.905792 321.184889,156.719304 C333.237446,154.115842 339.128661,152.891405 351.198408,150.476884 C357.580762,149.200918 361.858585,143.171976 360.947522,136.7308 C360.269749,131.931203 359.690205,127.246934 359.208889,122.687808 C369.761015,135.005792 381.467319,146.779035 394.94418,155.261758 C410.478914,165.040077 424.847192,170.210195 436.492104,170.210195 C437.376154,170.210195 438.257749,170.178296 439.112332,170.119405 C440.843597,169.99917 442.341572,169.753792 443.694661,169.368548 C448.097724,168.112212 451.437471,164.510061 452.353446,160.027002 C453.271876,155.541489 451.614281,150.921018 448.053522,148.037825 C443.812534,144.604985 439.598559,141.147607 435.529471,137.761388 C426.062762,129.558397 417.693749,121.279338 410.65818,113.14996 C403.855901,105.28559 398.431268,97.7303966 394.450585,90.5898924 C399.037825,86.7374555 402.908003,82.3476403 406.016914,77.4597076 C410.419977,70.5351361 412.51223,64.3491529 412.411547,58.553321 C412.247015,49.2387664 411.274559,43.8085479 409.069344,39.9266655 C405.719775,33.8020269 398.15623,26.6394387 381.113699,26.6394387 L380.963901,26.6394387 C380.865673,26.6394387 380.767446,26.6198084 380.669218,26.6222622 C378.864281,26.668884 376.997952,26.781758 375.1218,26.9756067 C369.692256,27.5350689 364.30937,28.9484471 359.00261,31.2083798 C358.393597,30.3593714 357.674078,29.5815227 356.85142,28.904279 C354.629015,27.0663966 351.854078,26.0824303 349.022661,26.0824303 M349.022661,38.3513378 C348.890053,43.7815563 348.823749,46.4954387 348.688686,51.9256571 C357.818965,44.3900941 367.040104,40.1548672 376.384028,39.1905311 C377.98023,39.0236739 379.517496,38.9083462 380.990914,38.9083462 L381.113699,38.9083462 C390.118737,38.9083462 395.867522,41.2590689 398.347775,45.9114387 C399.420914,47.7076067 400.015192,51.9919092 400.133066,58.7766151 C400.192003,62.113758 398.662104,66.1526824 395.653876,70.8835731 C391.697749,77.1039092 386.115952,82.362363 378.876559,86.5485143 C383.331192,97.4604807 390.813699,108.97117 401.373192,121.178733 C408.89499,129.870027 417.629901,138.497523 427.580382,147.11275 C431.757522,150.589758 436.005876,154.074128 440.325446,157.570766 C439.822028,157.715539 439.131977,157.821052 438.262661,157.879943 C437.688028,157.921657 437.098661,157.941287 436.492104,157.941287 C427.614762,157.941287 415.42223,153.652077 401.48861,144.879808 C381.27823,132.156951 364.849623,110.615203 349.931268,91.5983966 C354.145243,90.3273378 357.868078,89.0685479 361.10223,87.8171193 C368.810661,84.6222958 373.432281,81.7489176 374.967091,79.1356403 C377.521015,74.9642118 378.844635,70.5940269 378.942863,66.0079092 C379.026357,62.0916739 378.235623,58.6858252 376.578028,55.790363 C374.920433,52.8924471 372.747142,51.1355395 370.06061,50.5294555 C369.412306,50.3331529 368.584737,50.2374555 367.585268,50.2374555 C366.900129,50.2374555 366.129041,50.2816235 365.27937,50.3748672 C354.579901,51.5428672 348.300686,57.755842 346.618534,68.7389681 C345.857268,73.7078756 345.429977,79.5944975 345.26299,86.3080437 C344.879901,101.641724 346.043901,119.016951 348.78937,138.448447 C336.704889,140.862968 330.663876,142.119304 318.589218,144.727674 C321.1898,126.569691 322.677952,110.286397 323.070863,95.8704303 C323.738813,71.401321 321.558154,54.6469008 316.563268,45.6366151 C329.541623,42.6111025 336.032028,41.1535563 349.022661,38.3513378" id="Fill-9"></path>
                    <path d="M491.548567,16.8235765 L491.546111,16.8235765 C487.919048,16.8235765 484.213403,17.3732235 480.532314,17.5498958 C470.888795,18.0112067 462.109681,19.3607866 455.142871,21.0170891 C452.456339,21.6550723 446.172213,23.2672067 416.910137,44.1513412 C416.865934,44.1807866 416.824187,44.2691227 416.782441,44.3010218 C412.649504,47.331442 409.653554,52.2414588 407.355023,59.6911395 C405.454314,65.8452235 404.432744,72.5293244 404.312415,79.5324168 C403.99563,98.1124504 409.604441,113.399509 420.986592,124.951913 C433.537656,137.6944 452.200947,144.157661 476.455858,144.157661 C479.554947,144.157661 482.801377,144.054602 486.104289,143.848484 C488.943073,143.669358 491.632061,142.513627 493.712035,140.575139 C498.832162,135.802534 501.390997,133.42482 506.501301,128.686568 C510.283073,125.177661 511.466719,119.68119 509.462871,114.930669 C507.537605,110.366635 503.068238,107.427005 498.151934,107.424551 C497.948111,107.424551 497.744289,107.429459 497.540466,107.441728 C495.787099,107.52761 494.065656,107.571778 492.420339,107.571778 C485.762947,107.571778 479.940491,106.855274 475.117504,105.441896 C461.773251,101.66798 455.597175,94.5274756 454.359504,81.5322487 C453.971504,77.5595765 453.799605,73.981963 453.843808,70.8705681 C453.954314,63.043005 455.385985,58.9672739 456.532795,57.3281479 C457.677149,57.0901311 460.012516,56.7220639 464.278061,56.4791395 C466.149301,56.3736269 467.998441,56.3196437 469.773909,56.3196437 C479.650719,56.3196437 488.086035,57.9759462 494.846567,61.2394756 C496.540997,62.0590387 498.368035,62.4639126 500.187706,62.4639126 C502.557453,62.4639126 504.917377,61.7793076 506.960516,60.4297277 C510.572846,58.0446521 512.660187,53.9345681 512.453909,49.611005 L511.503554,29.575879 C511.201504,23.2058622 506.069099,17.6676773 499.691656,17.4345681 C497.005124,17.333963 494.264567,16.8235765 491.548567,16.8235765 M491.546111,30.0151059 C494.131959,30.0151059 496.695706,30.0617277 499.239808,30.1549714 C499.617985,38.1714756 499.807073,42.1785008 500.190162,50.195005 C491.772035,46.1290891 481.634922,44.0507361 469.773909,44.0507361 C467.757782,44.0507361 465.694997,44.1096269 463.580643,44.2298622 C456.051478,44.6592739 451.415124,45.5769882 449.674035,46.9118454 C444.440947,50.9286857 441.73477,58.8691227 441.565327,70.6938958 C441.513757,74.2690555 441.702846,78.2687193 442.137504,82.6953412 C443.856491,100.752719 453.681732,112.133358 471.662339,117.215139 C477.673884,118.976955 484.596491,119.840686 492.420339,119.840686 C494.279301,119.840686 496.187377,119.79161 498.147023,119.693459 C493.029352,124.441526 490.465605,126.824148 485.335656,131.604114 C482.28077,131.795509 479.3192,131.893661 476.455858,131.893661 C455.719959,131.893661 440.072263,126.843778 429.736238,116.353862 C420.691909,107.171812 416.330592,94.9348034 416.588441,79.7557109 C416.689124,73.8420975 417.536339,68.3603496 419.088339,63.3374588 C420.529833,58.6654588 422.175149,55.6227697 424.04639,54.2511059 C442.623732,40.9908706 453.973959,34.1374588 457.984111,33.1829378 C463.732896,31.8161815 471.500263,30.7242487 481.11677,30.2653916 C484.633327,30.0985345 488.108137,30.0151059 491.546111,30.0151059" id="Fill-11"></path>
                    <path d="M540.510975,14.5840101 C540.056671,14.5840101 539.599911,14.6085479 539.143152,14.6600773 C527.085684,16.0096571 521.196924,16.7138924 509.149278,18.2524134 C505.654823,18.6965479 502.521354,20.6203126 500.544519,23.5329513 C498.565228,26.4431361 497.934114,30.0624639 498.810797,33.4707664 C501.183,42.7166151 502.337177,55.2456235 502.241405,70.7118084 C502.130899,88.2710689 500.183532,107.484178 496.455785,127.821119 C495.743633,131.707909 496.946924,135.697758 499.689937,138.544145 C502.022848,140.961119 505.22262,142.300884 508.532899,142.300884 C509.117354,142.300884 509.704266,142.25917 510.291177,142.173287 C519.541785,140.835976 527.095506,139.785758 532.952342,138.971103 C536.589228,138.465624 539.57781,138.050934 541.920544,137.712313 C548.135911,136.816682 552.674038,131.379103 552.438291,125.109691 C551.777709,107.486632 551.384797,96.3979933 550.834722,81.5575227 C555.331101,81.3170521 559.680139,80.6226319 563.842544,80.6226319 L564.716772,80.6226319 C567.179835,80.6226319 569.321203,81.2115395 571.180165,81.2851529 C570.912494,92.1185983 569.606063,106.851103 567.280519,124.633657 C566.821304,128.145018 567.904266,132.196212 570.251911,134.851203 C572.582367,137.491472 575.934392,139.513388 579.455861,139.513388 L579.52462,139.513388 C584.394266,139.513388 588.416696,139.407876 592.181278,139.407876 C598.858316,139.407876 604.899329,139.513388 614.471633,139.513388 L614.628797,139.513388 C619.255329,139.513388 623.493861,136.603203 625.583658,132.471035 C627.700468,128.292245 627.251076,123.119674 624.427025,119.382565 C623.196722,117.753254 619.174291,110.212783 619.068696,82.4899597 C619.012215,67.9709345 620.220418,50.399405 622.658924,30.3446487 C623.076392,26.9019933 622.017987,23.4225311 619.741557,20.8043462 C617.467582,18.1837076 614.189228,16.9592706 610.719329,16.8881109 C598.438392,16.640279 592.444038,16.8243126 580.168013,16.8243126 L580.116443,16.8243126 C576.612165,16.8243126 573.272418,17.9996739 570.941962,20.6178588 C568.599228,23.2483126 567.501532,26.5952706 567.926367,30.0919092 C568.697456,36.4349345 569.247532,40.8787328 569.831987,45.6709681 C564.274747,46.2476067 558.592266,46.5273378 552.83857,46.5837748 C552.455481,46.5886824 552.074848,46.5690521 551.694215,46.5715059 L552.76981,27.5522454 C552.973633,23.9451866 551.573886,20.4289176 548.948747,17.9456908 C546.657582,15.7790017 543.632165,14.5840101 540.510975,14.5840101 M540.510975,26.8529176 C539.801278,39.4457244 539.445203,45.7421277 538.730595,58.3373882 C542.679354,58.6612874 546.827025,58.8207832 551.168696,58.8207832 C551.762975,58.8207832 552.359709,58.8183294 552.961354,58.8109681 C563.447177,58.7079092 573.623582,57.8024639 583.483203,56.0774555 C582.13257,45.0256235 581.457253,39.5021613 580.116443,28.4527832 C592.257405,28.5043126 598.327886,28.5803798 610.468848,28.825758 C607.966494,49.4105311 606.731278,67.291237 606.790215,82.4605143 C606.876165,105.106464 609.481658,119.811976 614.628797,126.62122 C605.456772,126.503439 599.273329,126.451909 592.181278,126.451909 C588.394595,126.451909 584.352519,126.466632 579.455861,126.493624 C582.181684,105.64875 583.524949,89.370363 583.510215,77.6584639 C583.505304,74.983842 583.439,72.1521782 583.316215,70.255405 C579.129253,69.3695899 572.92862,68.3537244 564.716772,68.3537244 L563.790975,68.3537244 C555.854165,68.3537244 547.300975,69.3499597 538.128949,70.1817916 C538.939329,92.1185983 539.346975,103.359371 540.169633,125.296178 C534.054949,126.177086 523.512646,127.730329 508.532899,129.894565 C512.420266,108.688985 514.404468,89.0170185 514.519886,70.7216235 C514.623025,54.1021613 513.343608,40.6750689 510.703734,30.3888168 C522.628595,28.8674723 528.58857,28.1877748 540.510975,26.8529176" id="Fill-13"></path>
                    <path d="M681.984861,102.249035 C681.478987,102.249035 680.951013,102.231859 680.398481,102.202413 C673.247494,101.799993 663.935494,99.3486655 652.717873,94.9195899 C648.673342,93.3246319 644.977519,91.7223126 641.637772,90.1199933 C651.472835,91.6094387 661.317722,91.7443966 669.242253,91.8548168 C674.006304,91.9186151 678.507595,91.9824134 681.230962,92.3406655 C681.373392,92.357842 681.609139,92.3897412 682.112557,93.2093042 C682.957316,94.5809681 683.399342,96.4826487 683.433722,98.860363 C683.453367,100.423422 683.315848,101.503086 683.158684,102.214682 C682.832076,102.234313 682.44162,102.249035 681.984861,102.249035 M657.634177,41.3609008 L657.970608,41.3609008 C659.146886,41.3609008 660.328076,40.9928336 661.482253,41.0492706 C676.015063,41.7387832 687.586304,46.3224471 696.709215,55.4382454 C683.831544,54.5818756 668.787949,53.1096067 663.238076,51.0042622 C658.417544,49.1737412 657.486835,47.2646992 657.459823,43.7410689 C657.452456,42.8503462 657.511392,41.3609008 657.634177,41.3609008 M655.640152,0.780262185 C653.668228,0.780262185 651.718405,1.2562958 649.957671,2.17401008 C638.003342,8.40906891 632.166152,11.4934723 620.214278,17.8880269 C619.480025,18.2806319 618.785063,18.7493042 618.144127,19.2842286 C610.320278,25.8088336 606.555696,36.4533378 606.634278,51.8311866 C606.651468,54.9695731 606.931418,59.9752874 607.488861,67.1329681 C607.741797,70.3547832 609.256962,73.3483966 611.705291,75.4611025 C612.825089,76.4278924 614.440937,77.7480269 616.466886,79.2080269 C615.627038,79.4215059 614.801924,79.7257748 614.006278,80.1232874 C609.755468,82.2433546 607.110684,86.6258084 607.216278,91.3714218 L607.702506,113.300867 C607.788456,117.190111 609.716177,120.806985 612.896304,123.049741 C629.813595,134.982481 651.187975,141.732834 676.42762,143.114313 C678.694228,143.239455 680.965747,143.3008 683.185696,143.3008 C684.055013,143.3008 684.919418,143.293439 685.778911,143.273808 C688.246886,143.219825 690.643646,142.422346 692.652405,140.98443 C696.291747,138.383422 699.712532,135.797136 702.818987,133.296733 C710.606,126.983153 716.310582,121.749237 720.293722,117.266178 C729.163696,107.490313 733.615873,97.142716 733.441519,86.5988168 C733.274532,76.3052034 729.021266,66.9391193 721.143392,59.5115227 C720.485266,58.890716 719.765747,58.3484303 718.99957,57.8920269 C720.443519,55.9339092 721.305468,53.5488336 721.388962,51.0042622 L722.38843,19.6375731 C722.589797,13.3190857 717.953443,7.88395966 711.679139,7.07911933 C689.666278,4.25727059 678.905418,3.03283361 656.855722,0.841606723 C656.450532,0.799892437 656.045342,0.780262185 655.640152,0.780262185 M655.640152,13.0491697 C677.436911,15.2158588 688.332835,16.4550185 710.117316,19.2474218 C709.719494,31.7936067 709.518127,38.0654723 709.115392,50.6116571 C697.443468,36.8385815 681.785949,29.3324639 662.064253,28.3975731 C660.711165,28.3337748 659.345797,28.3018756 657.970608,28.3018756 C654.834684,28.3018756 651.642278,28.4687328 648.388481,28.8024471 C646.212734,33.7345479 645.142051,38.6028504 645.181342,43.3975395 C645.255013,52.545237 649.869266,58.9569681 658.879215,62.3750857 C666.717797,65.3490689 684.789266,67.0397244 712.717899,68.4334723 C718.233392,73.6354891 721.050076,79.7674891 721.165494,86.8000269 C721.285823,94.166279 717.946076,101.588968 711.116785,109.11717 C707.578127,113.097203 702.251722,117.955691 695.117924,123.741708 C692.166177,126.116968 688.961494,128.536397 685.508785,131.007355 C684.737696,131.024531 683.964152,131.031892 683.185696,131.031892 C681.189215,131.031892 679.16081,130.977909 677.100481,130.865035 C654.296886,129.616061 635.223494,123.780968 619.978532,113.028497 C619.782076,104.256229 619.686304,99.871321 619.489848,91.0990521 C626.225823,96.3992202 635.793215,101.431926 648.204304,106.329674 C660.617848,111.232329 671.125772,113.968296 679.70843,114.451691 C680.50162,114.495859 681.26043,114.517943 681.984861,114.517943 C686.839772,114.517943 690.191797,113.519254 691.972177,111.499792 C694.545747,108.584699 695.785873,104.273405 695.709747,98.6935059 C695.648354,94.1196571 694.612051,90.100363 692.576278,86.787758 C690.228633,82.9696739 686.896253,80.7097412 682.832076,80.1748168 C674.355013,79.0608 658.503494,80.3048672 643.226608,77.9516908 C634.354177,76.5849345 625.454734,71.1179092 619.730506,66.1784471 C619.200076,59.3642958 618.927494,54.5597916 618.912759,51.7673882 C618.853823,40.3916571 621.22357,32.6941445 626.012177,28.7042958 C637.887924,22.3490017 643.813519,19.2179765 655.640152,13.0491697" id="Fill-15"></path>
                    <path d="M724.728463,21.8113782 C721.462387,21.8113782 718.311729,23.1143361 715.991096,25.4601513 C713.370868,28.1126891 712.098818,31.8105378 712.535932,35.5132941 L715.12178,57.4648235 C715.647299,61.9159832 718.56221,65.7291597 722.724615,67.4050924 C724.207856,68.0038151 725.764767,68.2958151 727.314311,68.2958151 C730.106438,68.2958151 732.869096,67.3437479 735.101324,65.5132269 C738.666995,62.5907731 743.087248,61.1700336 748.610109,61.1700336 C749.076691,61.1700336 749.555552,61.1823025 750.04178,61.2019328 C750.687628,68.7939328 751.082995,76.035042 751.225425,82.8197479 C751.714109,106.027613 749.791299,123.034773 745.508565,133.372555 C743.95902,137.112118 744.354387,141.371882 746.564514,144.760555 C748.772185,148.151681 752.51221,150.234941 756.561653,150.330639 C770.316008,150.659445 777.027425,150.877832 790.757223,151.454471 C790.929122,151.461832 791.103476,151.464286 791.272919,151.464286 C795.221678,151.464286 798.944514,149.562605 801.255324,146.338336 C803.666818,142.971748 804.216894,138.618739 802.721375,134.758941 C798.517223,123.930403 796.186767,109.855513 795.793856,92.9219664 C795.587577,84.0245546 795.879805,75.1443193 796.660716,66.3892269 C806.115147,67.6676471 810.643451,68.6074454 812.401729,69.0221345 C813.344716,69.2454286 814.292615,69.3509412 815.228235,69.3509412 C819.913704,69.3509412 824.304489,66.6591429 826.354995,62.2619664 L832.076767,49.9709748 C833.736818,46.4031765 833.584565,42.2562857 831.666666,38.8209916 C829.746311,35.3856975 826.296058,33.0791429 822.38659,32.6153782 C790.32502,28.8267395 757.897552,25.2123193 726.007881,21.8776303 C725.58059,21.8334622 725.153299,21.8113782 724.728463,21.8113782 M724.728463,34.0802857 C756.834235,37.4370588 788.888438,41.0097647 820.942641,44.8008571 C818.658843,49.7084202 817.514489,52.1646555 815.223324,57.0820336 C810.049172,55.8600504 800.280413,54.3288908 785.892489,52.7020336 C783.996691,65.9671765 783.201046,79.4703361 783.520286,93.206605 C783.947577,111.63205 786.521147,126.955916 791.272919,139.195378 C777.518565,138.618739 770.632792,138.392992 756.853881,138.066639 C761.82421,126.065193 764.029425,107.57595 763.501451,82.5621008 C763.292716,72.6267395 762.575653,61.9699664 761.355172,50.5917815 C758.636716,49.8752773 755.923172,49.3869748 753.214539,49.1268739 C751.637982,48.9771933 750.103172,48.9011261 748.610109,48.9011261 C740.189527,48.9011261 733.092565,51.2911092 727.314311,56.0269076 C726.278008,47.2472773 725.762311,42.8574622 724.728463,34.0802857" id="Fill-17"></path>
                    <path d="M862.092742,112.084037 C857.316413,103.976743 854.882818,96.2473311 854.651982,88.4614824 C854.470261,82.3613815 855.459906,76.9164403 857.66021,71.9769782 C860.641425,72.1830958 863.666843,72.5266252 866.706995,73.0051126 C882.681299,75.5226924 892.639147,80.5014151 894.751046,87.0235664 C898.363375,98.1882723 900.354944,108.067197 900.664362,116.38797 C900.900109,122.706457 900.34021,130.509482 896.759805,134.359466 C895.652286,134.256407 894.444084,134.094457 893.140109,133.873617 C879.756565,131.621045 869.602261,124.49281 862.092742,112.084037 M867.635248,36.4535832 L867.632792,36.4535832 C865.373552,36.4535832 863.131501,36.0020874 860.970489,36.2155664 C852.623577,37.0375832 843.616084,40.4581546 835.666995,43.7241378 C831.963805,45.2454824 828.461982,46.541079 825.750894,47.3851798 C818.656387,49.5592303 813.244033,55.536642 809.705375,65.2707933 C806.905881,72.9683059 805.616641,81.6227933 805.872033,91.0624908 C806.350894,108.768978 811.91059,124.323499 822.396413,137.326087 C835.067805,153.03765 853.966843,163.022087 878.572919,167.021751 C882.472565,167.654827 886.536742,168.140676 890.652489,168.471936 C890.984008,168.498928 891.313071,168.511197 891.642134,168.511197 C892.970666,168.511197 894.294286,168.29281 895.55897,167.868306 C916.61902,160.786692 924.209577,158.988071 926.49583,158.543936 C929.796286,157.903499 932.691552,155.93802 934.5014,153.106356 C943.877248,138.43765 948.299957,122.637751 947.64183,106.143432 C946.910033,87.7327092 939.52821,71.6849782 925.702641,57.3426252 C917.154362,48.3789613 892.179932,36.4535832 867.635248,36.4535832 M899.429147,146.763331 C899.79259,146.763331 900.151122,146.758424 900.502286,146.746155 C909.396818,142.064339 913.527299,131.822255 912.935476,115.931566 C912.584311,106.528676 910.42821,95.5921714 906.432792,83.2471966 C902.771349,71.9352639 890.161349,63.8132471 868.619982,60.4172134 C862.650185,59.4749613 856.810539,58.5376168 851.093678,58.5376168 L850.663932,58.5376168 C844.819375,68.3527429 842.051805,77.2869613 842.378413,88.3559697 C842.670641,98.1907261 845.720615,108.258592 851.547982,118.135062 C860.987678,133.770558 874.204235,143.011499 891.099425,145.855432 C894.210792,146.378087 896.988185,146.763331 899.429147,146.763331 M867.632792,47.6035664 C888.896666,47.6035664 910.821122,58.962121 916.859678,65.2953311 C928.583172,77.4562723 934.764159,91.2931462 935.373172,106.631734 C935.930615,120.628104 932.212691,133.893247 924.153096,146.500776 C919.182767,147.465113 908.385071,150.608407 891.642134,156.239835 C887.825982,155.930659 884.125248,155.484071 880.542387,154.902524 C859.165552,151.42797 842.854818,143.124373 831.956438,129.611398 C823.135577,118.67244 818.550792,105.669852 818.145603,90.6968773 C817.931957,82.7638017 818.965805,75.6601042 821.247147,69.3906924 C823.408159,63.4402723 826.126615,59.9632639 829.397603,58.9596672 C838.606463,56.098558 852.083324,48.8599025 862.176235,47.866121 C863.981172,47.686995 865.805754,47.6035664 867.632792,47.6035664" id="Fill-19"></path>
                    <path d="M932.22718,51.7504571 C927.585914,51.7504571 923.290901,54.3809109 921.210927,58.6087765 C918.946775,63.2169782 919.789078,68.7453479 923.327737,72.4677345 C931.799889,81.3823227 936.583585,90.4392303 937.541306,99.3906252 C937.914572,102.882356 938.145408,105.902961 938.270648,108.899029 C938.884572,123.751768 938.378699,142.022625 936.767762,163.206121 C936.274167,169.669382 940.898243,175.401415 947.3248,176.289684 C955.988496,177.489583 960.217205,178.100575 968.8588,179.401079 C969.467813,179.491869 970.079281,179.536037 970.688294,179.536037 C973.770192,179.536037 976.766142,178.377852 979.054851,176.24797 C981.792952,173.698491 983.219711,170.042356 982.927484,166.312608 C981.986952,154.269449 981.269889,145.111936 980.567559,136.077113 C1002.43062,157.464272 1024.26422,179.695533 1040.18204,204.407566 C1042.48794,207.987634 1046.41705,210.036541 1050.50824,210.036541 C1051.78275,210.036541 1053.07445,209.837785 1054.33667,209.423096 C1059.64834,207.680911 1063.11088,202.574592 1062.76217,196.9996 C1062.54361,193.542222 1062.31769,190.077482 1062.09176,186.610289 C1060.67974,164.918861 1059.2186,142.488844 1060.01915,120.910289 C1060.21561,115.573314 1061.17333,109.429045 1062.86531,102.651701 C1063.56764,99.8740202 1064.39275,97.0619866 1065.31118,94.3284739 C1066.40888,91.0624908 1066.07981,87.4848773 1064.40748,84.4691798 C1062.7327,81.4559361 1059.8669,79.2843395 1056.50996,78.4868605 C1045.35374,75.8367765 1039.89718,74.5853479 1028.70166,72.102121 C1027.81761,71.9058185 1026.92619,71.810121 1026.04214,71.810121 C1022.72695,71.810121 1019.50508,73.1547933 1017.16234,75.606121 C1014.19586,78.7101546 1013.0687,83.1392303 1014.19095,87.2836672 C1017.01746,97.7294151 1019.1048,107.367869 1020.43333,116.103331 C1013.63105,109.382424 1005.61812,101.078827 996.431357,91.2219866 C987.703813,81.7528437 978.143787,71.1132471 967.247863,58.7461882 C965.244015,56.4715328 962.469078,55.0188941 959.458395,54.6655496 C949.03642,53.4484739 943.938395,52.8890118 933.486952,51.8142555 C933.064572,51.7725412 932.644648,51.7504571 932.22718,51.7504571 M932.232091,64.0193647 C942.565661,65.0793983 947.725078,65.6462218 958.031635,66.8510286 C968.654977,78.9113647 978.460572,89.8331462 987.445965,99.5844739 C1009.06591,122.777617 1024.58591,137.863466 1033.90528,144.378255 C1034.4308,140.518457 1034.5585,135.954424 1034.29328,130.676339 C1033.62533,117.435734 1030.86513,101.891029 1026.04214,84.0814824 C1037.10996,86.5328101 1042.63528,87.8014151 1053.67118,90.4245076 C1052.6447,93.4794655 1051.73855,96.5663227 1050.95027,99.6826252 C1049.08394,107.17402 1047.98379,114.130491 1047.74804,120.456339 C1046.79769,146.103264 1048.89731,172.071634 1050.50579,197.767634 C1028.01161,162.850323 994.967762,133.43439 965.78918,104.450323 C967.741458,129.574592 968.721281,142.137953 970.685838,167.267129 C962.024597,165.966625 957.690294,165.338457 949.009408,164.138558 C950.67437,142.292541 951.172876,123.712508 950.539306,108.391096 C950.379686,104.590188 950.07518,101.120541 949.748572,98.0876672 C948.533003,86.7217513 942.821053,75.1595328 932.232091,64.0193647" id="Fill-21"></path>
                    <path d="M1105.4682,134.392837 L1105.32086,128.346719 C1112.50377,131.622518 1115.92455,134.71919 1117.50602,136.667492 C1117.86701,137.111627 1118.25501,137.526316 1118.66511,137.906652 C1114.73845,136.905509 1110.36731,135.742417 1105.4682,134.392837 M1063.6747,82.2966017 C1060.51668,82.2966017 1057.43478,83.5136773 1055.11415,85.7711563 C1052.0126,88.7819462 1050.72827,93.2012067 1051.72774,97.4045345 C1055.37936,112.743123 1057.69508,129.090215 1058.61597,145.989408 C1059.50739,162.412568 1059.1243,177.493509 1057.47407,190.819997 C1056.69316,197.145845 1060.88749,203.015291 1067.12741,204.330518 C1081.70443,207.400198 1095.15918,210.727526 1107.12088,214.216803 C1117.29974,217.185879 1122.9282,219.293677 1125.85539,220.540198 C1127.40002,221.195358 1129.03551,221.519257 1130.66118,221.519257 C1133.15863,221.519257 1135.63643,220.758585 1137.74096,219.276501 C1141.21577,216.825173 1143.17541,212.751896 1142.92002,208.509308 L1142.55167,202.438652 L1142.17349,196.186417 C1141.85179,190.861711 1138.12159,186.354114 1132.94989,185.036434 C1122.53283,182.38635 1117.17696,181.061308 1107.2142,178.678686 L1106.96617,171.886618 C1113.15944,173.68524 1118.91805,175.456871 1124.19288,177.184333 C1125.44283,177.594114 1126.73453,177.795324 1128.01886,177.795324 C1130.61207,177.795324 1133.17827,176.973308 1135.31718,175.390618 C1138.51696,173.030081 1140.37101,169.263526 1140.29488,165.290854 L1140.24577,162.670215 L1140.04686,152.452669 C1139.93881,146.796703 1135.97286,141.952938 1130.45491,140.718686 C1130.78397,140.622988 1131.11058,140.512568 1131.43227,140.389879 C1136.39278,138.490652 1139.56554,133.619896 1139.30032,128.319728 L1139.15544,125.424266 L1138.47521,111.830316 C1138.21736,106.662652 1134.74255,102.213946 1129.79187,100.707324 C1104.61607,93.0417109 1092.26392,89.5107193 1066.84746,82.7137445 C1065.79888,82.4340134 1064.73311,82.2966017 1063.6747,82.2966017 M1063.67225,94.5655092 C1088.77929,101.281509 1101.29106,104.856669 1126.21146,112.443761 C1126.54298,119.039526 1126.70751,122.337408 1127.03903,128.933173 C1121.07415,121.596366 1109.6306,115.515896 1092.61508,111.013207 C1092.93678,124.113946 1093.0964,130.663089 1093.41564,143.761375 C1107.38118,147.721778 1118.82473,150.744837 1127.77083,152.690686 C1127.87151,157.823997 1127.92063,160.390652 1128.01886,165.526417 C1118.87875,162.53035 1107.57518,159.171123 1094.08605,155.566518 C1094.46668,166.026988 1094.65822,171.25845 1095.03886,181.718921 C1095.13954,183.519997 1095.98184,185.276904 1097.5584,186.999459 C1099.1325,188.717106 1100.88096,189.801677 1102.79886,190.23845 C1113.66531,192.832097 1119.08994,194.169408 1129.91711,196.927459 C1130.2167,201.857106 1130.36405,204.320703 1130.66364,209.25035 C1126.13779,207.326585 1119.44111,205.029845 1110.56131,202.441106 C1098.75924,198.995997 1085.13749,195.58524 1069.66169,192.326618 C1071.4126,178.178114 1071.81043,162.513173 1070.87481,145.324434 C1069.90972,127.573778 1067.50068,110.647593 1063.67225,94.5655092" id="Fill-23"></path>
                </g>
                <path d="M945.148676,171.705764 C947.851951,167.512742 950.066662,163.248576 951.795263,158.905909 C953.410613,154.84961 954.601299,150.728078 955.37223,146.535415 L955.37223,146.531059 C956.078813,142.690164 956.429653,138.792881 956.429653,134.831859 L956.429653,119.880968 C956.429653,123.841371 956.078489,127.742884 955.371248,131.585506 L955.371248,131.589862 C954.60013,135.779083 953.409444,139.899658 951.794281,143.954037 L951.794281,143.957485 C950.065613,148.297374 947.850902,152.563678 945.147694,156.756397 C940.174472,157.721143 929.389371,160.834949 912.637714,166.421842 L912.637714,181.375187 C929.390473,175.785472 940.175891,172.674077 945.148676,171.707287 L945.148676,171.705764 L945.148676,171.705764 Z M806.883157,78.617442 C821.271081,80.2393916 831.039841,81.750921 836.233638,82.9557277 L836.233638,68.004837 C831.039841,66.8000303 821.271081,65.2860471 806.883157,63.6640975 L806.883157,63.6663066 C805.267471,74.972779 804.452263,86.4755323 804.452263,98.1451261 L804.452263,113.096017 C804.452263,101.428954 805.267461,89.9262757 806.883125,78.6174224 L806.883157,78.617442 Z M866.69016,94.5802723 C867.925227,91.4820406 869.496546,88.5285048 871.406575,85.7172134 L871.406575,70.7663227 C869.496043,73.5783563 867.924397,76.5327092 866.689182,79.6293815 L866.689182,79.6318508 C866.689509,79.6310275 866.689838,79.6302045 866.690165,79.6293815 L866.690165,94.5802723 L866.69016,94.5802723 Z M866.689182,94.5813586 L866.689182,79.6318508 L866.689182,94.5813586 Z M604.325056,96.5675394 C600.152833,95.7087475 594.013673,95.2278252 585.865833,95.2278252 C585.509757,95.2278252 585.151225,95.230279 584.787782,95.2327328 C576.853428,95.252363 568.300238,95.6695059 559.128213,96.5037916 L559.128213,81.5504471 C559.327333,81.5323882 559.526163,81.5145249 559.724701,81.496857 L559.724701,69.253321 C560.454043,56.7611193 560.807663,50.5137916 561.514904,37.9970521 L561.514904,52.9479429 C560.860964,64.5213508 560.509353,70.734733 559.883514,81.4827602 C568.770204,80.6959706 577.071626,80.300865 584.787782,80.2793882 C585.151225,80.2769345 585.509757,80.2769345 585.865833,80.2769345 C594.013833,80.2769345 600.153073,80.7554218 604.325301,81.6166992 L604.325301,81.6211341 C604.43566,83.5048271 604.501866,85.7829772 604.501866,88.4335496 L604.501866,103.38444 C604.501866,100.734356 604.435562,98.4547933 604.325056,96.5678353 L604.325056,96.5675394 Z M367.777909,93.5911976 C368.12165,91.7185778 368.607551,89.9953494 369.23561,88.4166185 L369.23561,73.4657277 C368.606952,75.0435092 368.120724,76.7709714 367.776927,78.6456605 L367.776927,78.6502618 C367.720829,78.955262 367.669573,79.265099 367.620744,79.5773613 C366.869301,84.5094622 366.427276,90.3617311 366.272567,97.0262017 C366.220997,98.9548739 366.196441,100.915445 366.196441,102.907916 L366.196441,117.861261 C366.196441,115.866336 366.220997,113.905765 366.272567,111.977092 C366.427276,105.315076 366.869301,99.4628067 367.620744,94.5307059 C367.669858,94.2141681 367.721428,93.9049916 367.777909,93.5958151 L367.777909,93.5911976 L367.777909,93.5911976 Z M369.84008,72.0828974 C369.89826,69.7171493 369.952867,67.4961065 370.029782,64.367842 L370.029782,49.4169513 C369.897175,54.810363 369.830871,57.5046151 369.698263,62.8980269 L369.698263,72.3849489 C369.536352,72.7368484 369.382149,73.0968081 369.23561,73.4647462 L369.23561,88.4180908 C369.810243,86.9728134 370.502749,85.6551328 371.315585,84.4601412 L371.315585,69.5092504 C370.769733,70.3100867 370.278146,71.1684644 369.84008,72.0828974 L369.84008,72.0828974 Z M391.069451,61.4947092 L391.069451,76.4456 C393.743704,77.0614992 395.931729,78.7914151 397.589324,81.6844235 C399.14378,84.4130286 399.939425,87.5955832 399.939425,91.2320874 L399.939425,76.2811966 C399.939425,72.6446924 399.14378,69.4621378 397.589324,66.7335328 C395.93183,63.8407015 393.743971,62.1083666 391.069942,61.4948219 C390.419182,61.3131294 389.59898,61.2174319 388.606878,61.2174319 C387.914372,61.2174319 387.135916,61.2640538 386.273967,61.362205 C379.501157,62.0860706 374.498904,64.8269445 371.316322,69.5087597 L371.316322,84.4621042 C374.498904,79.7802891 379.501157,77.0369613 386.273967,76.3155496 C387.135916,76.2149445 387.914372,76.1683227 388.606878,76.1683227 C389.59898,76.1683227 390.419182,76.2664739 391.069942,76.4456 L391.069942,61.4948219 L391.069451,61.4947092 Z M420.916965,87.0655041 C421.058904,86.2964561 421.129873,85.5591931 421.129873,84.8512739 L421.129873,69.9003832 C421.129873,70.6070723 421.058658,71.3481143 420.916228,72.1186017 L420.916228,72.121398 C420.71229,73.2342272 420.358927,74.4107043 419.865927,75.6532739 L419.865927,90.6041647 C420.359522,89.3600975 420.713142,88.1822824 420.916965,87.0682655 L420.916965,87.0655046 L420.916965,87.0655041 Z M465.174013,65.6020941 C465.77793,64.0885698 466.484925,62.7344446 467.294997,61.5397185 C468.272365,60.1009613 469.399529,58.8961546 470.678947,57.9220034 C472.424947,56.5846924 477.044111,55.6866084 484.580643,55.2473815 C486.677808,55.1320538 488.723403,55.073163 490.719884,55.073163 C502.607909,55.073163 512.759757,57.1318857 521.180339,61.1659025 L521.180339,76.1167933 C512.759757,72.0827765 502.607909,70.0240538 490.719884,70.0240538 C488.723403,70.0240538 486.677808,70.0829445 484.580643,70.2007261 C477.044111,70.6374992 472.424947,71.538037 470.678947,72.8728941 C469.399851,73.8468007 468.272932,75.0536993 467.295734,76.4886862 C466.485573,77.6841904 465.778497,79.0382675 465.174504,80.5517541 C464.442706,82.3950387 463.863162,84.4709378 463.438327,86.7848538 L463.438327,71.833963 C463.863066,69.5205648 464.442446,67.4426241 465.174013,65.6025932 L465.174013,65.6020941 Z M240.339309,183.343232 C240.464527,182.183956 240.643632,180.965943 240.879071,179.689193 L240.879071,179.682532 C241.888771,174.207049 243.906943,167.66749 246.931134,160.068756 C248.56647,155.962745 250.493946,151.549009 252.716018,146.828642 L252.716018,131.877751 C250.493613,136.598827 248.565891,141.01318 246.930397,145.118356 C243.905389,152.718289 241.887052,159.259453 240.877843,164.738303 L240.877843,164.744951 C240.642702,166.018505 240.463841,167.235814 240.338818,168.394437 C228.18345,171.354966 222.127703,172.910664 210.016372,176.068639 L210.016372,191.019529 C222.127703,187.864009 228.18345,186.305857 240.338818,183.346674 C240.338859,183.347402 240.338899,183.347023 240.338941,183.346644 L240.339309,183.343232 L240.339309,183.343232 Z M285.536397,126.294598 L285.536397,114.868383 C281.668676,106.670299 277.889359,99.3506689 274.242651,92.9045849 L274.242651,107.857929 C277.396771,113.43117 280.650095,119.661575 283.97402,126.545967 C275.509903,127.910188 269.215887,128.966263 261.066593,130.396982 C267.643881,118.799499 272.030498,111.296622 274.242651,107.855966 L274.242651,92.9050756 C271.78941,96.7182521 266.661916,105.529782 258.838068,119.383832 L258.838068,130.789381 C256.924528,131.127248 254.899086,131.487126 252.716018,131.87677 L252.716018,146.830114 C267.811182,144.133408 275.369815,142.86235 290.509182,140.450282 L290.509182,125.499392 C288.757954,125.778405 287.108158,126.042151 285.536397,126.294598 L285.536397,126.294598 Z M167.029656,141.300767 L167.029656,129.75155 C168.068335,116.558584 168.598764,109.982447 169.659461,96.7880497 L169.659461,96.7845042 C177.949891,94.7478655 184.882322,93.7467227 190.456752,93.7467227 C196.453562,93.7467227 200.876271,94.9073613 203.717511,97.179563 L203.717511,112.130454 C200.876271,109.858252 196.453562,108.700067 190.456752,108.700067 C184.882342,108.700067 177.949941,109.698749 169.65955,111.737827 C168.695972,123.724135 168.170002,130.248647 167.303131,141.234711 C180.598762,138.025397 191.793546,135.635973 200.866694,133.960276 L200.866694,148.911166 C191.606263,150.621452 180.135706,153.077687 166.477124,156.387839 L166.477124,141.434494 C166.661701,141.389762 166.845878,141.345186 167.029656,141.300767 L167.029656,141.300767 Z M96.8795013,202.590091 C100.415704,199.017385 103.730894,195.574729 106.780868,192.244948 C114.162691,184.176914 119.73221,177.60078 123.467324,172.494461 C124.31681,171.351247 125.119658,170.22275 125.873414,169.113874 C128.758543,164.866854 130.946405,160.870053 132.444367,157.111219 C133.379218,154.766101 134.041934,152.517756 134.439866,150.360055 L134.439866,150.355708 C134.655967,149.180346 134.793486,148.03443 134.849967,146.915506 C134.872068,146.461556 134.884347,146.017422 134.884347,145.578195 L134.884347,160.529086 C134.884347,160.968313 134.872068,161.414901 134.849967,161.866397 C134.793572,162.983625 134.656384,164.130209 134.440848,165.301264 L134.440848,165.305617 C134.043025,167.464945 133.379987,169.717516 132.444367,172.063331 C130.946405,175.820945 128.758543,179.820198 125.873415,184.064776 C125.119659,185.176092 124.316811,186.302138 123.467324,187.447805 C119.73221,192.554124 114.162691,199.130259 106.780868,207.195839 C103.731106,210.527843 100.416164,213.967798 96.880238,217.540237 C94.1838835,218.485687 91.4433266,219.317519 88.6585671,220.085553 C77.3500861,223.128242 67.0950987,224.676578 57.9009722,224.676578 C49.0211747,224.676578 41.1285671,223.233755 34.2231494,220.303939 L34.2231494,205.353049 C41.1285671,208.28041 49.0211747,209.723234 57.9009722,209.723234 C67.0950987,209.723234 77.3500861,208.177351 88.6585671,205.132208 C91.4430729,204.366698 94.1833843,203.532495 96.8795013,202.590348 L96.8795013,202.590091 Z M128.440846,82.6688807 L128.440846,97.6197714 C127.225276,110.313183 126.606441,116.668477 125.390871,129.381519 L125.390871,114.430629 C126.606441,101.717587 127.225276,95.3598387 128.440846,82.6688807 L128.440846,82.6688807 Z M125.390871,114.430138 L125.390871,129.381029 C118.421605,122.731281 109.573732,119.34997 98.852162,119.34997 C93.3219342,119.34997 87.2956557,120.248054 80.7684152,122.061398 C76.4365671,123.244121 71.9942127,124.843987 67.3971494,126.794743 L67.3971494,111.843852 C71.9942127,109.893096 76.4365671,108.29323 80.7684152,107.108054 C87.2956557,105.297163 93.3219342,104.396625 98.852162,104.399079 C109.573732,104.399079 118.421605,107.777936 125.390871,114.430138 L125.390871,114.430138 Z M67.3971494,111.843607 L67.3971494,126.794497 C67.1319342,127.410397 66.8765418,128.018934 66.6383392,128.622565 L66.6383392,113.66922 C66.8765418,113.06559 67.1319342,112.457052 67.3971494,111.843607 L67.3971494,111.843607 Z M66.637357,113.669466 L66.637357,128.620356 C65.3284709,131.908424 64.4051291,135.044356 63.8550532,138.033062 L63.8550532,123.079718 C64.4051291,120.093466 65.3284709,116.957533 66.637357,113.669466 L66.637357,113.669466 Z M63.8550532,123.079963 L63.8550532,138.030854 C63.5775595,139.549745 63.395838,141.026921 63.3074329,142.467291 C63.2779646,142.989946 63.2632304,143.500333 63.2632304,143.995997 L63.2632304,129.045106 C63.2632304,128.549442 63.2779646,128.039055 63.3074329,127.5164 C63.395838,126.07603 63.5775595,124.5964 63.8550532,123.079963 L63.8550532,123.079963 Z M37.0963139,158.422269 L37.0963139,173.37316 C37.0766684,171.432218 37.0668456,169.653227 37.0668456,168.038639 L37.0668456,153.087748 C37.0668456,154.699882 37.0766684,156.478874 37.0963139,158.422269 L37.0963139,158.422269 Z M109.058281,165.296292 L109.058281,180.247183 C109.058281,176.431553 108.289648,173.288259 106.737648,170.942444 C105.097243,168.466578 102.739775,167.190612 99.827319,167.190612 C99.1249899,167.190612 98.3931924,167.264225 97.6319266,167.411452 C89.3660532,168.991687 74.5582051,175.258645 59.1094203,177.736965 C57.6139013,177.979889 56.0938253,178.092763 54.5786608,178.092763 C47.9335468,178.092763 41.3424582,175.94325 37.0965595,173.374141 L37.0965595,158.42325 C41.3424582,160.99236 47.9335468,163.141872 54.5786608,163.141872 C56.0938253,163.141872 57.6139013,163.028998 59.1094203,162.78362 C74.5582051,160.307755 89.3660532,154.038343 97.6319266,152.460561 C98.3931924,152.310881 99.1249899,152.237267 99.827319,152.237267 C102.739775,152.237267 105.097243,153.515687 106.737648,155.989099 C108.289648,158.337368 109.058281,161.478208 109.058281,165.296292 L109.058281,165.296292 Z M204.601808,80.7836403 L204.601808,95.7345311 C204.248187,102.288582 204.071377,105.576649 203.717757,112.130699 L203.717757,97.1798084 C204.071377,90.625758 204.248187,87.3376908 204.601808,80.7836403 L204.601808,80.7836403 Z M143.847147,128.83359 L143.847147,143.784481 C143.847147,131.667708 143.026944,120.377859 141.391451,109.939472 L141.391451,94.9885815 C143.026944,105.426968 143.847147,116.716817 143.847147,128.83359 L143.847147,128.83359 Z M201.971757,121.006027 L201.971757,135.956918 C201.529732,141.154027 201.308719,143.740313 200.866694,148.912884 L200.866694,133.959539 C201.308719,128.786968 201.529732,126.200682 201.971757,121.006027 L201.971757,121.006027 Z M166.477124,141.434739 L166.477124,156.38563 C165.769884,166.863277 165.416263,172.080017 164.709023,182.557664 L164.709023,167.606773 C165.416263,157.129126 165.769884,151.912387 166.477124,141.434739 L166.477124,141.434739 Z M164.709023,167.606528 L164.709023,182.557418 C164.704111,182.660477 164.701656,182.761082 164.701656,182.859234 L164.701656,167.905889 C164.701656,167.807738 164.704111,167.707133 164.709023,167.606528 L164.709023,167.606528 Z M199.540618,164.998158 L199.540618,179.949049 C199.319605,184.817351 199.209099,187.249049 199.010187,192.114897 L199.010187,177.164007 C199.209099,172.298158 199.319605,169.864007 199.540618,164.998158 L199.540618,164.998158 Z M199.010187,177.163516 L199.010187,192.114407 C194.457327,192.509466 187.694339,193.650474 178.699124,195.623314 C166.742339,198.253768 152.929048,201.826474 137.303453,206.493566 L137.303453,191.542676 C152.929048,186.873129 166.742339,183.300424 178.699124,180.66997 C187.694339,178.697129 194.457327,177.558575 199.010187,177.163516 L199.010187,177.163516 Z M263.439306,78.6395261 L263.439306,93.5904168 C263.439306,89.9882655 260.477737,86.3836605 254.571787,82.7815092 L254.571787,67.8281647 C260.477737,71.4327697 263.439306,75.034921 263.439306,78.6395261 L263.439306,78.6395261 Z M332.589992,153.446491 L332.589992,168.397382 C320.478499,170.173919 314.422752,171.116171 302.333359,173.066928 L302.333359,158.116037 C314.422752,156.165281 320.478499,155.223029 332.589992,153.446491 L332.589992,153.446491 Z M302.333359,158.115301 L302.333359,173.066192 C299.460195,162.919805 295.504068,152.025015 290.509182,140.450528 L290.509182,125.499637 C295.504068,137.071671 299.460195,147.966461 302.333359,158.115301 L302.333359,158.115301 Z M463.438327,71.833963 L463.438327,86.7848538 C462.912808,89.6533244 462.62058,92.8849546 462.566554,96.4821983 C462.564099,96.8306353 462.561643,97.1839798 462.561643,97.5422319 L462.561643,82.5888874 C462.561643,82.2306353 462.564099,81.8772908 462.566554,81.5288538 C462.62058,77.9340639 462.912808,74.7024336 463.438327,71.833963 L463.438327,71.833963 Z M419.865435,75.6522924 L419.865435,90.6031832 C419.118904,92.4754185 418.04822,94.4948807 416.663208,96.6566622 C416.454473,96.9830151 416.240828,97.3069143 416.022271,97.6283597 L416.022271,82.6774689 C416.240828,82.3560235 416.454473,82.0321244 416.663208,81.7033176 C418.04822,79.5415361 419.118904,77.5245277 419.865435,75.6522924 L419.865435,75.6522924 Z M416.022271,82.6764874 L416.022271,97.6273782 C412.110347,103.386403 406.732372,108.274336 399.866246,112.197933 L399.866246,97.2445882 C406.732372,93.3209916 412.110347,88.4330588 416.022271,82.6764874 L416.022271,82.6764874 Z M344.198559,98.3480538 L344.198559,113.298945 C344.198559,93.4134992 341.976154,79.5054655 337.563268,71.6018353 L337.563268,56.6509445 C341.976154,64.552121 344.198559,78.4626084 344.198559,98.3480538 L344.198559,98.3480538 Z M519.146777,130.146363 L519.146777,145.097254 C514.019284,149.810968 511.455537,152.178867 506.328043,156.934296 L506.328043,141.983405 C511.455537,137.225523 514.019284,134.860077 519.146777,130.146363 L519.146777,130.146363 Z M506.328043,141.982914 L506.328043,156.933805 C503.285435,157.122746 500.336144,157.218444 497.485081,157.218444 C476.744271,157.218444 461.079385,152.212729 450.743359,141.789066 C441.942144,132.930914 437.580828,121.221469 437.580828,106.756427 L437.580828,91.8055361 C437.580828,106.268124 441.942144,117.980024 450.743359,126.835721 C461.079385,137.261839 476.744271,142.265099 497.485081,142.265099 C500.336144,142.265099 503.285435,142.171855 506.328043,141.982914 L506.328043,141.982914 Z M369.786668,148.777681 L369.786668,163.728571 C357.697276,166.118555 351.66363,167.367529 339.596339,169.953815 L339.596339,155.002924 C351.66363,152.416639 357.697276,151.167664 369.786668,148.777681 L369.786668,148.777681 Z M461.329866,167.73805 L461.329866,182.688941 C460.821537,182.843529 460.136397,182.95395 459.252347,183.017748 C458.685081,183.057008 458.100625,183.076639 457.503891,183.076639 C448.638828,183.076639 436.431562,178.81442 422.497942,170.108403 C402.275284,157.483697 385.854043,136.089176 370.935689,117.217143 L370.935689,102.263798 C385.854043,121.138286 402.275284,142.530353 422.497942,155.157513 C436.431562,163.863529 448.638828,168.125748 457.503891,168.125748 C458.100625,168.125748 458.685081,168.106118 459.252347,168.066857 C460.136397,168.000605 460.821537,167.892639 461.329866,167.73805 L461.329866,167.73805 Z M604.479765,67.0184168 L604.479765,81.9693076 C603.131587,70.9886353 602.468549,65.5093412 601.120372,54.5482992 L601.120372,39.5974084 C602.468549,50.5559966 603.131587,56.0377445 604.479765,67.0184168 L604.479765,67.0184168 Z M535.530446,79.6654521 L535.530446,94.6163429 C535.530446,79.0078387 534.246116,66.3095193 531.699559,56.4993008 L531.699559,41.5484101 C534.246116,51.3561748 535.530446,64.0569479 535.530446,79.6654521 L535.530446,79.6654521 Z M631.465656,39.9698924 L631.465656,54.9207832 C629.032061,74.8307664 627.79439,92.2010857 627.79439,106.990027 L627.79439,92.0366824 C627.79439,77.2477412 629.032061,59.8798756 631.465656,39.9698924 L631.465656,39.9698924 Z M635.620694,137.028975 L635.620694,151.979866 C626.249757,151.864538 620.002466,151.815462 612.706592,151.815462 C609.059884,151.815462 605.150415,151.827731 600.45758,151.849815 L600.45758,136.896471 C605.150415,136.874387 609.059884,136.864571 612.706592,136.864571 C620.002466,136.864571 626.249757,136.911193 635.620694,137.028975 L635.620694,137.028975 Z M561.161529,135.976793 L561.161529,150.927684 C555.06158,151.806138 544.519276,153.207247 529.534618,155.35676 L529.534618,140.403415 C544.519276,138.256356 555.06158,136.852793 561.161529,135.976793 L561.161529,135.976793 Z M669.391428,39.9478084 L669.391428,54.8986992 C669.15077,55.4360773 668.924846,55.9734555 668.7112,56.5083798 L668.7112,41.5574891 C668.924846,41.0201109 669.15077,40.4851866 669.391428,39.9478084 L669.391428,39.9478084 Z M668.710954,41.5565076 L668.710954,56.5073983 C667.797435,58.8065916 667.131942,61.0886084 666.714473,63.3608101 L666.714473,48.4074655 C667.131942,46.1377176 667.797435,43.8532471 668.710954,41.5565076 L668.710954,41.5565076 Z M666.714228,48.4079563 L666.714228,63.3588471 C666.360608,65.2826118 666.186253,67.1965613 666.186253,69.1006958 L666.186253,54.149805 C666.186253,52.2432168 666.360608,50.3292672 666.714228,48.4079563 L666.714228,48.4079563 Z M731.120263,30.4568269 L731.120263,45.4077176 C730.722441,57.858205 730.523529,64.0834487 730.125706,76.5339361 L730.125706,61.5830454 C730.523529,49.132558 730.722441,42.9073143 731.120263,30.4568269 L731.120263,30.4568269 Z M730.125706,61.5823092 L730.125706,76.5332 C718.434137,62.8779059 702.786441,55.4257714 683.072111,54.4835193 C681.753403,54.4246286 680.422415,54.3951832 679.084061,54.3951832 C675.913757,54.3951832 672.684516,54.5620403 669.391428,54.9006622 L669.391428,39.9473176 C672.684516,39.6086958 675.913757,39.4442924 679.084061,39.4442924 C680.422415,39.4442924 681.753403,39.4737378 683.072111,39.5301748 C702.786441,40.4748807 718.434137,47.9270151 730.125706,61.5823092 L730.125706,61.5823092 Z M640.726086,77.0354891 L640.726086,91.9863798 C640.195656,85.2360269 639.930441,80.4585143 639.908339,77.6955563 L639.908339,62.7446655 C639.930441,65.5051697 640.195656,70.2851361 640.726086,77.0354891 L640.726086,77.0354891 Z M716.712694,109.721822 L716.712694,124.672713 C716.712694,124.535301 716.712694,124.392982 716.710238,124.253116 C716.643934,119.716074 715.605175,115.726225 713.571858,112.438158 C711.229124,108.647066 707.891833,106.411671 703.8252,105.884108 C695.360415,104.767637 679.513808,106.016612 664.219732,103.670797 C655.357124,102.311402 646.450314,96.8983597 640.726086,91.9883429 L640.726086,77.0349983 C646.450314,81.9450151 655.357124,87.3605109 664.219732,88.7174521 C679.513808,91.0632672 695.360415,89.8142924 703.8252,90.9332168 C707.891833,91.4583261 711.229124,93.693721 713.571858,97.4872672 C715.605175,100.775334 716.643934,104.762729 716.710238,109.299771 C716.712694,109.442091 716.712694,109.581956 716.712694,109.721822 L716.712694,109.721822 Z M640.9692,123.526797 L640.9692,138.477687 C640.79239,129.776578 640.681884,125.435839 640.482972,116.734729 L640.482972,101.783839 C640.681884,110.484948 640.79239,114.825687 640.9692,123.526797 L640.9692,123.526797 Z M742.173597,97.8590151 L742.173597,112.809906 C742.173597,114.235553 742.043446,115.6612 741.780686,117.089301 L741.780686,102.13841 C742.043446,100.707855 742.173597,99.2822084 742.173597,97.8590151 L742.173597,97.8590151 Z M741.779949,102.138165 L741.779949,117.089055 C741.470532,118.769896 740.981848,120.45319 740.308987,122.141392 L740.308987,107.190501 C740.981848,105.502299 741.470532,103.819005 741.779949,102.138165 L741.779949,102.138165 Z M740.308251,107.190255 L740.308251,122.141146 C739.416833,124.376541 738.20863,126.621751 736.678732,128.871869 L736.678732,113.920978 C738.20863,111.668407 739.416833,109.42565 740.308251,107.190255 L740.308251,107.190255 Z M736.678241,113.920487 L736.678241,128.871378 C735.386544,130.775513 733.864013,132.682101 732.115557,134.598504 C728.579354,138.566269 723.252949,143.38795 716.114241,149.132252 C713.174772,151.475613 709.970089,153.887681 706.50019,156.343916 L706.50019,141.390571 C709.970089,138.93679 713.174772,136.524723 716.114241,134.178908 C723.252949,128.437059 728.579354,123.615378 732.115557,119.647613 C733.864013,117.73121 735.386544,115.822168 736.678241,113.920487 L736.678241,113.920487 Z M706.499453,141.391062 L706.499453,156.341953 C705.833959,156.354222 705.16601,156.359129 704.495605,156.359129 C702.403352,156.359129 700.276719,156.305146 698.100972,156.189818 C675.292466,154.962928 656.219073,149.152373 640.9692,138.478424 L640.9692,123.527533 C656.219073,134.201482 675.292466,140.009583 698.100972,141.236474 C700.276719,141.354255 702.403352,141.408239 704.495605,141.408239 C705.16601,141.408239 705.833959,141.400877 706.499453,141.391062 L706.499453,141.391062 Z M782.350997,61.5604706 L782.350997,76.5113613 C779.632542,75.8120336 776.914086,75.3286387 774.217732,75.066084 C772.64363,74.9164034 771.111276,74.8427899 769.623124,74.8427899 C761.192719,74.8427899 754.100668,77.2106891 748.315048,81.9047731 L748.315048,66.9514286 C754.100668,62.2597983 761.192719,59.8918992 769.623124,59.8918992 C771.111276,59.8918992 772.64363,59.9655126 774.217732,60.1127395 C776.914086,60.3777479 779.632542,60.8586891 782.350997,61.5604706 L782.350997,61.5604706 Z M748.314803,66.9526555 L748.314803,81.9035462 C747.276043,73.202437 746.767714,68.8396134 745.728954,60.1385042 L745.728954,45.1876134 C746.767714,53.8887227 747.276043,58.2515462 748.314803,66.9526555 L748.314803,66.9526555 Z M841.93601,55.8176403 L841.93601,70.7685311 C839.65958,75.6368336 838.510314,78.0906151 836.233884,82.9564639 L836.233884,68.0055731 C838.510314,63.1397244 839.65958,60.6834891 841.93601,55.8176403 L841.93601,55.8176403 Z M871.662213,70.3938387 L871.662213,85.3447294 C871.576263,85.4698723 871.490314,85.5950151 871.40682,85.7177042 L871.40682,70.7668134 C871.490314,70.6416706 871.576263,70.5165277 871.662213,70.3938387 L871.662213,70.3938387 Z M864.179215,88.3861916 L864.179215,103.337082 C863.624228,106.35278 863.346734,109.483805 863.346734,112.732612 L863.346734,97.7792672 C863.346734,94.5329143 863.624228,91.4018891 864.179215,88.3861916 L864.179215,88.3861916 Z M784.571684,100.32482 L784.571684,115.275711 C784.571684,112.996148 784.547127,110.65524 784.495557,108.250534 C784.296646,98.3887866 783.567304,87.8228034 782.351734,76.5133244 L782.351734,61.5599798 C783.567304,72.8719126 784.296646,83.435442 784.495557,93.2996437 C784.547127,95.7018958 784.571684,98.0428034 784.571684,100.32482 L784.571684,100.32482 Z M933.995886,129.246316 L933.995886,144.197207 C933.995886,143.277039 933.978696,142.334787 933.944316,141.372904 C933.590696,132.033812 931.424772,121.18319 927.424443,108.931459 C923.777734,97.7078622 911.157911,90.1035933 889.631278,86.7271899 C883.646747,85.8045681 877.789911,85.3457109 872.060772,85.3457109 L871.662949,85.3457109 L871.662949,70.3948202 C871.795557,70.3923664 871.928165,70.3923664 872.060772,70.3923664 C877.789911,70.3923664 883.646747,70.8536773 889.631278,71.7738454 C911.157911,75.1502487 923.777734,82.7569714 927.424443,93.9805681 C931.424772,106.232299 933.590696,117.082921 933.944316,126.41956 C933.978696,127.383896 933.995886,128.326148 933.995886,129.246316 L933.995886,129.246316 Z M971.805749,132.413657 L971.805749,147.364548 C971.805749,142.623842 971.717344,138.133422 971.538078,133.898195 C971.38337,130.104649 971.073952,126.664447 970.742433,123.661018 C969.526863,112.373624 963.824737,100.909556 953.23823,89.8405479 L953.23823,74.8872034 C963.824737,85.9562118 969.526863,97.420279 970.742433,108.710128 C971.073952,111.711103 971.38337,115.153758 971.538078,118.94485 C971.717344,123.180077 971.805749,127.670497 971.805749,132.413657 L971.805749,132.413657 Z M1074.66234,101.10316 L1074.66234,116.05405 C1073.64568,119.079563 1072.73953,122.149244 1071.94388,125.238555 C1071.26611,127.954891 1070.68657,130.600067 1070.21507,133.17163 L1070.21507,118.218286 C1070.68657,115.649176 1071.26611,113.004 1071.94388,110.287664 C1072.73953,107.195899 1073.64568,104.128672 1074.66234,101.10316 L1074.66234,101.10316 Z M1070.21483,118.219267 L1070.21483,133.170158 C1069.39463,137.63604 1068.89366,141.873721 1068.73895,145.866024 C1068.57442,150.273015 1068.50075,154.689822 1068.50075,159.11399 L1068.50075,144.160645 C1068.50075,139.736477 1068.57442,135.319671 1068.73895,130.912679 C1068.89366,126.92283 1069.39463,122.682696 1070.21483,118.219267 L1070.21483,118.219267 Z M1055.43424,146.06159 L1055.43424,161.012481 C1055.43424,159.427338 1055.39004,157.76122 1055.30163,156.014128 C1054.61649,142.861859 1051.85383,127.430027 1047.03576,109.765254 L1047.03576,94.8119092 C1051.85383,112.479136 1054.61649,127.910968 1055.30163,141.063237 C1055.39004,142.807876 1055.43424,144.473993 1055.43424,146.06159 L1055.43424,146.06159 Z M812.276111,149.501301 L812.276111,164.452192 C798.529124,163.882914 791.633529,163.664528 777.842339,163.335721 L777.842339,148.382376 C791.633529,148.711183 798.529124,148.932024 812.276111,149.501301 L812.276111,149.501301 Z M912.637714,166.422824 L912.637714,181.373714 C908.836296,181.066992 905.123284,180.630218 901.542878,180.060941 C880.170954,176.596202 863.86022,168.35395 852.964296,154.939126 C844.145891,144.090958 839.548828,131.17916 839.151005,116.319059 C839.131359,115.627092 839.121537,114.942487 839.121537,114.265244 L839.121537,99.3118992 C839.121537,99.9915966 839.131359,100.676202 839.151005,101.365714 C839.548828,116.228269 844.145891,129.137613 852.964296,139.988235 C863.86022,153.403059 880.170954,161.645311 901.542878,165.107597 C905.123284,165.676874 908.836296,166.116101 912.637714,166.422824 L912.637714,166.422824 Z M991.694187,177.382639 L991.694187,192.333529 C983.030491,191.040387 978.698643,190.404857 970.012846,189.222134 L970.012846,174.271244 C978.698643,175.453966 983.030491,176.089496 991.694187,177.382639 L991.694187,177.382639 Z M1071.50161,207.653469 L1071.50161,222.60436 C1049.00252,187.952057 1015.96113,158.754511 986.787461,129.974108 L986.787461,115.020763 C1015.96113,143.801166 1049.00252,172.998713 1071.50161,207.653469 L1071.50161,207.653469 Z M1148.0383,139.330622 L1148.0383,154.281513 C1142.07095,147.00605 1130.6225,140.955025 1113.60452,136.484235 L1113.60452,121.530891 C1130.6225,126.004134 1142.07095,132.052706 1148.0383,139.330622 L1148.0383,139.330622 Z M1092.36545,172.902524 L1092.36545,187.853415 C1092.36545,182.268608 1092.20338,176.497314 1091.87923,170.546894 C1090.90677,152.923835 1088.49773,136.132608 1084.67421,120.175667 L1084.67421,105.224776 C1088.49773,121.181718 1090.90677,137.970491 1091.87923,155.596003 C1092.20338,161.546424 1092.36545,167.315264 1092.36545,172.902524 L1092.36545,172.902524 Z M1149.011,175.651005 L1149.011,190.601896 C1139.88317,187.623005 1128.56733,184.29077 1115.08555,180.718064 L1115.08555,165.764719 C1128.56733,169.337425 1139.88317,172.669661 1149.011,175.651005 L1149.011,175.651005 Z M1151.6629,219.051529 L1151.6629,234.00242 C1147.13214,232.073748 1140.43546,229.816269 1131.55075,227.229983 C1119.74868,223.811866 1106.1343,220.435462 1090.66341,217.191563 L1090.66341,202.238218 C1106.1343,205.484571 1119.74868,208.858521 1131.55075,212.279092 C1140.43546,214.865378 1147.13214,217.122857 1151.6629,219.051529 L1151.6629,219.051529 Z" id="Combined-Shape" fill="url(#linearGradient-2)"></path>
                <path d="M128.440846,82.6688807 C127.225276,95.3598387 126.606441,101.717587 125.390871,114.430629 C118.421605,107.778427 109.573732,104.39957 98.852162,104.397116 C93.3219342,104.397116 87.2956557,105.297654 80.7684152,107.108545 C76.4365671,108.293721 71.9942127,109.893587 67.3971494,111.844343 C64.9439089,117.497855 63.5957316,122.714595 63.3084152,127.516645 C62.7779848,136.656982 66.8888203,141.63325 75.3978076,142.202528 C75.8128203,142.229519 76.259757,142.244242 76.7386177,142.244242 C84.8448709,142.244242 101.875124,138.234763 127.733605,131.177687 C132.816896,134.639973 135.203833,139.900881 134.850213,146.913788 C134.474491,154.257956 130.695175,162.762763 123.468061,172.494461 C119.732947,177.60078 114.163428,184.176914 106.781605,192.244948 C103.73163,195.574729 100.416441,199.017385 96.880238,202.590091 C94.1838835,203.532343 91.4433266,204.366629 88.6585671,205.132208 C77.3500861,208.177351 67.0950987,209.723234 57.9009722,209.723234 C49.0211747,209.723234 41.1285671,208.28041 34.2231494,205.353049 C34.6209722,196.605318 34.8198835,192.244948 35.1956051,183.519301 C41.3839595,186.699402 50.3349722,188.713956 62.0928456,189.678292 C65.7444658,189.985015 69.2315544,190.139603 72.5590228,190.139603 C79.945757,190.139603 86.5294785,189.378931 92.3052759,187.837956 C98.2284152,186.238091 102.339251,183.958528 104.505175,180.977183 C107.22363,177.230259 108.726516,172.516545 109.013833,166.92683 C109.256947,162.367704 108.505504,158.662494 106.737403,155.990326 C105.096997,153.514461 102.739529,152.238494 99.8270734,152.238494 C99.1272,152.238494 98.3929468,152.312108 97.631681,152.459334 C89.3658076,154.03957 74.5579595,160.306528 59.1091747,162.784847 C57.6136557,163.027771 56.0935797,163.140645 54.5784152,163.140645 C47.9333013,163.140645 41.3422127,160.993587 37.0963139,158.422024 C37.0300101,151.760007 37.0742127,147.024208 37.2510228,144.24162 C37.936162,132.841351 40.7430228,124.380713 45.6495038,118.85725 C57.6062886,108.70841 63.5736304,103.690427 75.5083139,93.7378891 C96.6150228,89.0045445 107.201529,86.7887798 128.440846,82.6688807 L128.440846,82.6688807 Z M204.601808,80.7836403 C204.248187,87.3376908 204.071377,90.625758 203.717757,97.1798084 C200.876516,94.9076067 196.453808,93.7469681 190.456997,93.7469681 C184.882567,93.7469681 177.950137,94.7481109 169.659706,96.7847496 C168.598846,109.981187 168.068415,116.557321 167.029656,129.751304 C181.130263,126.551573 192.799732,123.680649 201.971757,121.006027 C201.529732,126.200682 201.308719,128.786968 200.866694,133.959539 C191.606263,135.669825 180.135706,138.126061 166.477124,141.433758 C165.769884,151.911405 165.416263,157.128145 164.709023,167.605792 C164.620618,169.382329 165.305757,170.741724 166.764441,171.683976 C167.682871,172.263069 168.699529,172.557523 169.819327,172.557523 C170.474997,172.557523 171.165048,172.456918 171.891934,172.253254 C182.942567,169.271909 188.467884,167.826632 199.540618,164.997422 C199.319605,169.863271 199.209099,172.297422 199.010187,177.163271 C194.457327,177.558329 187.694339,178.696884 178.699124,180.669724 C166.742339,183.300178 152.929048,186.872884 137.303453,191.54243 C140.596542,176.198934 142.651959,160.043237 143.491808,142.991909 C144.353757,125.410565 143.646516,109.387371 141.392187,94.9885815 C166.609732,88.8713042 179.251656,86.0224639 204.601808,80.7836403 L204.601808,80.7836403 Z M332.589992,153.446982 C320.478499,155.221066 314.422752,156.163318 302.333359,158.114074 C299.460195,147.967687 295.504068,137.072897 290.509182,125.49841 C275.369815,127.910477 267.811182,129.181536 252.716018,131.878242 C245.4226,147.373872 241.289663,159.561805 240.339309,168.395418 C228.183613,171.354679 222.127866,172.910376 210.016372,176.068393 C215.254372,170.039452 220.602878,162.805704 226.061891,154.345066 C241.223359,131.176461 252.207689,106.035015 263.192018,80.7389815 C263.324625,80.1697042 263.41303,79.5341748 263.435132,78.8765613 C263.567739,75.1934353 260.60617,71.512763 254.572524,67.829637 C267.612271,64.6937042 274.154246,63.2042588 287.216094,60.2891664 C293.382347,75.3038555 299.172878,88.6524269 304.543486,100.312797 C317.472727,128.501839 326.887866,146.279486 332.589992,153.446982 L332.589992,153.446982 Z M512.640656,41.1464807 C515.197035,41.1464807 517.726403,41.1931025 520.228757,41.2838924 C520.62658,49.2415059 520.80339,53.2092706 521.179111,61.166884 C512.760985,57.1304134 502.606681,55.0741445 490.721111,55.0741445 C488.722175,55.0716908 486.67658,55.1305815 484.579415,55.248363 C477.042884,55.6851361 472.423719,56.5856739 470.677719,57.9229849 C465.439719,61.9103798 462.743365,69.7796571 462.566554,81.528363 C462.522352,85.0593546 462.699162,89.0467496 463.141187,93.4316571 C464.865086,111.361439 474.678048,122.648834 492.668478,127.691355 C498.657922,129.440901 505.565795,130.292363 513.369997,130.292363 C515.243694,130.292363 517.168959,130.243287 519.145795,130.14759 C514.018301,134.85885 511.454554,137.22675 506.327061,141.982178 C503.286909,142.171119 500.337618,142.264363 497.486554,142.264363 C476.745744,142.264363 461.080858,137.261103 450.742377,126.837439 C441.680858,117.719187 437.326909,105.575422 437.592124,90.5165647 C437.680529,84.6422118 438.542478,79.2046319 440.089567,74.2087328 C441.526149,69.5833546 443.183744,66.557842 445.040251,65.1984471 C463.627415,52.0486319 474.965365,45.2295731 478.987795,44.287321 C484.734124,42.9279261 492.491668,41.8556235 502.105719,41.3943126 C505.656656,41.2299092 509.170757,41.1464807 512.640656,41.1464807 L512.640656,41.1464807 Z M370.029782,49.4169513 C369.897175,54.810363 369.830871,57.5046151 369.698263,62.8980269 C378.826086,55.4017244 388.042314,51.1934891 397.391149,50.2291529 C398.982441,50.0745647 400.507428,49.9641445 401.988213,49.9199765 C411.125858,49.9199765 416.874643,52.2878756 419.359808,56.8911697 C420.420668,58.6897916 421.017403,62.942195 421.127909,69.6925479 C421.194213,73.0026992 419.669225,77.0146319 416.663453,81.7038084 C412.707327,87.884884 407.115706,93.1016235 399.866491,97.2460605 C404.330947,108.072145 411.823276,119.514128 422.36558,131.635808 C429.902111,140.251035 438.632111,148.822094 448.577681,157.371069 C452.75482,160.811271 456.998263,164.273556 461.330111,167.738296 C460.821782,167.89043 460.136643,168.00085 459.252592,168.067103 C458.685327,168.106363 458.100871,168.125993 457.504137,168.125993 C448.639073,168.125993 436.431808,163.861321 422.498187,155.155304 C402.275529,142.530598 385.854289,121.138531 370.935934,102.264044 C375.135175,101.015069 378.870289,99.7660941 382.097073,98.5171193 C389.810415,95.3370185 394.42958,92.4881782 395.976668,89.9018924 C398.518314,85.7599092 399.84439,81.4191697 399.932795,76.8600437 C400.0212,72.9806151 399.225554,69.6042118 397.590061,66.7332874 C395.932466,63.840279 393.744441,62.1079092 391.070187,61.4944639 C390.419428,61.312884 389.599225,61.2171866 388.607124,61.2171866 C387.914618,61.2171866 387.136162,61.2638084 386.274213,61.3619597 C375.5772,62.5029681 369.300441,68.6840437 367.620744,79.5788336 C366.869301,84.5109345 366.427276,90.3632034 366.272567,97.0252202 C365.874744,112.238666 367.046111,129.48875 369.786668,148.777926 C357.697276,151.167909 351.66363,152.416884 339.596339,155.00317 C342.182187,136.985052 343.685073,120.809724 344.082896,106.516447 C344.745934,82.2313714 342.557909,65.592279 337.563023,56.6506992 C350.536466,53.6472706 357.034238,52.1995395 370.029782,49.4169513 L370.029782,49.4169513 Z M561.514904,37.9970521 C560.807663,50.5137916 560.454043,56.7611193 559.724701,69.253321 C563.715208,69.5845815 567.916904,69.7440773 572.3126,69.7440773 C572.857765,69.7440773 573.405385,69.7416235 573.957916,69.736716 C584.456018,69.6262958 594.6226,68.7282118 604.479765,67.0179261 C603.131587,56.0372538 602.468549,50.5579597 601.120372,39.5969176 C613.253967,39.6410857 619.331815,39.7294218 631.46541,39.9698924 C628.967967,60.3976235 627.730296,78.1531866 627.7966,93.1899597 C627.885005,115.678867 630.470853,130.278867 635.620448,137.02922 C626.249511,136.911439 620.00222,136.862363 612.706347,136.862363 C609.059638,136.862363 605.15017,136.874632 600.457334,136.896716 C603.17579,116.20643 604.523967,100.050733 604.501866,88.4345311 C604.501866,85.7819933 604.435562,83.5024303 604.325056,81.6179261 C600.152828,80.7566487 594.013587,80.2757076 585.865587,80.2757076 C585.509511,80.2757076 585.15098,80.2781613 584.787537,80.2806151 C576.853182,80.3026992 568.299992,80.7173882 559.127967,81.5516739 C559.945714,103.316716 560.343537,114.211506 561.161284,135.976548 C555.061334,136.852548 544.51903,138.256111 529.534372,140.405624 C533.424195,119.361993 535.413309,99.7660941 535.523815,81.6179261 C535.634322,65.1113378 534.352448,51.7627664 531.700296,41.5476739 C543.63498,40.0361445 549.58022,39.334363 561.514904,37.9970521 L561.514904,37.9970521 Z M676.640643,24.2973445 C698.432491,26.4444034 709.328415,27.6958319 731.120263,30.4563361 C730.722441,42.9068235 730.523529,49.1320672 730.125706,61.5825546 C718.434137,47.9272605 702.786441,40.4726723 683.072111,39.5304202 C681.753403,39.4715294 680.422415,39.442084 679.084061,39.442084 C675.913757,39.442084 672.684516,39.6089412 669.391428,39.947563 C667.203403,44.8354958 666.142542,49.6571765 666.186744,54.4371429 C666.253048,63.5112269 670.872213,69.8689748 679.889529,73.2650084 C687.713377,76.2242689 705.792213,77.8903866 733.706111,79.2718655 C739.231428,84.444437 742.06039,90.5150924 742.170896,97.5083697 C742.281403,104.80837 738.944111,112.172168 732.11482,119.646387 C728.578618,123.614151 723.252213,128.435832 716.113504,134.180134 C713.174035,136.52595 709.969352,138.935563 706.499453,141.391798 C705.833959,141.401613 705.16601,141.406521 704.495605,141.406521 C702.403352,141.406521 700.276719,141.352538 698.100972,141.23721 C675.292466,140.010319 656.219073,134.202218 640.9692,123.525815 C640.79239,114.824706 640.681884,110.483966 640.482972,101.782857 C647.223858,107.021681 656.793706,112.020034 669.214618,116.885882 C681.613428,121.751731 692.13363,124.468067 700.708922,124.951462 C701.482466,124.993176 702.224086,125.012807 702.933782,125.012807 C707.818162,125.012807 711.18001,124.023933 712.975124,122.014286 C715.538871,119.121277 716.776542,114.84679 716.710238,109.301244 C716.643934,104.764202 715.605175,100.774353 713.571858,97.4862857 C711.229124,93.6951933 707.891833,91.4573445 703.8252,90.9322353 C695.360415,89.8133109 679.513808,91.0647395 664.219732,88.7189244 C655.357124,87.3595294 646.450314,81.9464874 640.726086,77.0364706 C640.195656,70.2836639 639.930441,65.5061513 639.908339,62.7431933 C639.864137,51.4337143 642.228972,43.8049076 647.002846,39.8371429 C658.893327,33.5260168 664.816466,30.4342521 676.640643,24.2973445 L676.640643,24.2973445 Z M745.7292,45.1866319 C777.842339,48.5188672 809.889175,52.047405 841.93601,55.8164134 C839.65958,60.684716 838.510314,63.1384975 836.233884,68.0043462 C831.040086,66.7995395 821.271327,65.2880101 806.883403,63.6636067 C805.004795,76.8158756 804.209149,90.2306992 804.518567,103.863909 C804.938491,122.144582 807.524339,137.358027 812.276111,149.501792 C798.529124,148.932514 791.633529,148.711674 777.842339,148.382867 C782.815124,136.482027 785.025251,118.135103 784.49482,93.3003798 C784.295909,83.4361782 783.566567,72.870195 782.350997,61.560716 C779.632542,60.8589345 776.914086,60.3779933 774.217732,60.1129849 C772.64363,59.965758 771.111276,59.8921445 769.623124,59.8921445 C761.192719,59.8921445 754.100668,62.2575899 748.315048,66.9516739 C747.276289,58.2505647 746.767959,53.8877412 745.7292,45.1866319 L745.7292,45.1866319 Z M956.375873,117.19236 C956.928405,131.088124 953.215392,144.240393 945.14843,156.757133 C940.175646,157.721469 929.390228,160.832864 912.637468,166.422578 C908.836051,166.115855 905.123038,165.676629 901.542633,165.107351 C880.170709,161.645066 863.859975,153.402813 852.964051,139.98799 C844.145646,129.137368 839.548582,116.228024 839.150759,101.365469 C838.929747,93.4961916 839.968506,86.439116 842.244937,80.2359563 C844.410861,74.3174353 847.129316,70.8772336 850.400304,69.8687294 C859.616532,67.0395193 873.076203,59.8499395 883.176481,58.8635193 C884.981418,58.6868471 886.806,58.6034185 888.633038,58.6034185 C909.896911,58.6034185 931.83119,69.8809983 937.855013,76.1577714 C949.590785,88.235284 955.757038,101.95683 956.375873,117.19236 L956.375873,117.19236 Z M953.237739,74.8874487 C963.55903,75.940121 968.730727,76.5093983 979.029916,77.714205 C989.660625,89.6837513 999.451486,100.512289 1008.4467,110.199818 C1030.06174,133.213835 1045.57683,148.18681 1054.90356,154.652524 C1055.43399,150.817264 1055.5666,146.299852 1055.30138,141.061029 C1054.61625,127.911213 1051.85359,112.479382 1047.03551,94.8121546 C1058.10825,97.2463059 1063.63356,98.4952807 1074.66209,101.10365 C1073.64544,104.129163 1072.73928,107.19639 1071.94364,110.288155 C1070.08713,117.718205 1068.98207,124.623146 1068.73895,130.914642 C1067.7886,156.36281 1069.88822,182.139785 1071.50161,207.654205 C1049.00252,172.999449 1015.96113,143.801903 986.787461,115.021499 C988.732372,139.966642 989.726929,152.439213 991.693942,177.381903 C983.030246,176.08876 978.698397,175.45323 970.0126,174.270508 C971.670195,152.591348 972.178524,134.136457 971.537587,118.945096 C971.382878,115.154003 971.073461,111.711348 970.741942,108.707919 C969.526372,97.4205244 963.824246,85.9564571 953.237739,74.8874487 L953.237739,74.8874487 Z M1084.67421,105.223795 C1109.78125,111.888266 1122.29057,115.416803 1147.22079,122.957274 C1147.55231,129.511324 1147.70702,132.777308 1148.03854,139.331358 C1142.0712,132.053442 1130.62274,126.002417 1113.60477,121.531627 C1113.93629,134.529308 1114.091,141.03919 1114.42252,154.039324 C1128.39052,157.962921 1139.81687,160.963896 1148.76788,162.895022 C1148.87839,168.001341 1148.92259,170.543459 1149.011,175.649778 C1139.88317,172.670887 1128.56733,169.338652 1115.08555,165.765946 C1115.46128,176.133173 1115.66019,181.327829 1116.03591,191.717139 C1116.14642,193.493677 1116.98626,195.248131 1118.55545,196.955963 C1120.12464,198.666249 1121.89274,199.741005 1123.79345,200.177778 C1134.66728,202.744434 1140.08209,204.079291 1150.91171,206.820165 C1151.22112,211.708097 1151.37583,214.142249 1151.66315,219.052266 C1147.13239,217.123593 1140.43571,214.863661 1131.551,212.277375 C1119.74892,208.859257 1106.13454,205.482854 1090.66366,202.238955 C1092.40966,188.210686 1092.80748,172.648803 1091.87923,155.595022 C1090.90677,137.971963 1088.49773,121.180736 1084.67421,105.223795 L1084.67421,105.223795 Z M921.500076,156.997603 C930.384785,152.350141 934.517722,142.201301 933.943089,126.421032 C933.589468,117.081939 931.423544,106.231318 927.423215,93.9795866 C923.776506,82.7559899 911.156684,75.151721 889.630051,71.7753176 C883.647975,70.8526958 877.791139,70.3938387 872.062,70.3938387 L871.661722,70.3938387 C865.826987,78.8103092 863.042228,88.5223765 863.373747,99.5251328 C863.661063,109.278914 866.711038,119.032696 872.545772,128.830645 C881.983013,144.350813 895.19957,153.402813 912.107038,156.22957 C915.193848,156.76204 917.966329,157.01478 920.407291,157.01478 C920.780557,157.01478 921.144,157.009872 921.500076,156.997603 L921.500076,156.997603 Z M258.838068,119.383587 C269.51298,117.499082 274.861486,116.600998 285.536397,114.868629 C281.668676,106.670545 277.889359,99.3484605 274.242651,92.9048303 C271.78941,96.7180067 266.661916,105.529536 258.838068,119.383587 L258.838068,119.383587 Z" id="Combined-Shape" fill="#F8DA1C"></path>
            </g>
        </g>
    </g>
</svg>