<?xml version="1.0" encoding="UTF-8"?>
<svg width="1065px" height="250px" viewBox="0 0 1065 250" version="1.1" xmlns="http://www.w3.org/2000/svg" xmlns:xlink="http://www.w3.org/1999/xlink">
    <!-- Generator: Sketch 46.2 (44496) - http://www.bohemiancoding.com/sketch -->
    <title>searchstone</title>
    <desc>Created with Sketch.</desc>
    <defs>
        <linearGradient x1="48.0594244%" y1="10.6558582%" x2="48.0594248%" y2="87.1849289%" id="linearGradient-1">
            <stop stop-color="#3A0EC3" offset="0%"></stop>
            <stop stop-color="#1B0558" offset="100%"></stop>
        </linearGradient>
        <linearGradient x1="50%" y1="0%" x2="50%" y2="97.9850925%" id="linearGradient-2">
            <stop stop-color="#6639F3" offset="0%"></stop>
            <stop stop-color="#362D9B" offset="100%"></stop>
        </linearGradient>
        <polygon id="path-3" points="138.519531 38.1248059 57.0605469 54.9674801 51.2294019 62.0027586 51.2294019 67.060542 44.4753752 70.151494 20.5919978 98.9667969 20.5919978 134.096675 0.78515625 144.169871 5.76571868 161.659874 13.1318359 163.572889 7.44025678 167.540269 11.6298828 171.925776 9.42293326 174.50274 20.5919978 213.724609 91.2384886 216.733862 124.746969 199.846968 146.325262 205.654261 177.685049 196.032168 184.594727 189.838862 193.717686 191.112889 267.871138 168.360458 311.123047 168.360461 315.185547 165.010737 320.248047 168.360462 327.382812 163.572889 332.791016 168.360463 370.787403 168.360465 433.562527 182.673098 452.518383 169.161034 452.518383 165.010737 459.713967 164.031897 467.696463 158.341834 528.686887 154.821369 533.015625 148.714844 539.783342 154.180864 549.998047 148.714844 558.281169 153.11314 583.790721 151.640687 647.984632 158.341834 677.148715 144.169871 691.606086 163.572889 757.959549 158.341834 777.067207 168.367437 783.62207 167.540269 785.483036 172.783141 804.33217 182.673098 852.885462 182.673097 870.11936 194.570445 922.856436 176.948472 950.866803 211.10754 1046.62053 231.074119 1064.54567 106.820252 982.075274 75.3087272 974.139581 76.4414014 974.139581 72.2765386 967.116211 75.3087272 964.25948 68.5014014 940.943999 59.5926726 916.737227 72.5893282 852.885462 43.4024868 773.363578 32.8336032 769.001953 38.1248059 764.247936 31.7441577 691.606103 23.0624521 618.62617 0.687990411 566.484968 16.6569385 536.123047 16.6569384 532.665412 19.1308545 526.711914 16.6569384 522.327148 21.7353467 516.898437 16.6569384 459.928938 16.6569382 406.858 32.8336041 364.259254 23.0624517 302.110728 32.8336041 290.315777 49.8518703 280.261967 38.1248059 229.337871 49.8518703 217.302034 72.589325 209.923323 54.9674801 179.630859 60.6513624 179.630859 63.763667 172.715017 61.8181506 155.375 65.0107374"></polygon>
        <linearGradient x1="48.3434329%" y1="-56.22651%" x2="87.1106328%" y2="225.302479%" id="linearGradient-4">
            <stop stop-color="#D47800" offset="0%"></stop>
            <stop stop-color="#6249ED" offset="100%"></stop>
        </linearGradient>
        <radialGradient cx="44.5215136%" cy="27.9222131%" fx="44.5215136%" fy="27.9222131%" r="121.763322%" gradientTransform="translate(0.445215,0.279222),scale(0.170685,1.000000),rotate(88.526806),scale(1.000000,3.198332),translate(-0.445215,-0.279222)" id="radialGradient-5">
            <stop stop-color="#FFF043" offset="0%"></stop>
            <stop stop-color="#FDBF24" offset="100%"></stop>
        </radialGradient>
    </defs>
    <g id="Page-1" stroke="none" stroke-width="1" fill="none" fill-rule="evenodd">
        <g id="Desktop-HD" transform="translate(-259.000000, -107.000000)">
            <g id="searchstone" transform="translate(258.600000, 107.000000)">
                <path d="M140.079137,74.5779752 L83.5766337,79.2031685 L20.3441848,107.516639 L20.3441848,212.099972 L34.140625,225.264759 L109.852873,230.718033 L129.074461,219.457465 L156.699219,225.264759 L269.376953,182.778315 L372.341797,182.778315 L438.359375,199.010737 L472.576172,172.653362 L530.891487,174.304613 C530.891487,174.304613 534.567449,168.856215 536.441406,168.748047 C537.130404,168.708277 544.125,172.653362 544.125,172.653362 L559.591797,168.748047 L583.867188,168.748047 L647.984632,177.952331 L674.003906,165.001948 L683.030273,179.375972 L752.378906,177.952331 L797.244141,202.283595 L843.041016,202.283595 L859.103516,212.099972 L912.808594,196.190425 L945.213378,225.264754 L1030.9498,248.569969 L1047.33594,230.718033 L1044.0625,120.929688 L940.943999,79.2031694 L916.737227,92.199825 L852.885462,63.0129837 L773.363578,52.4441 L691.606103,42.6729489 L618.62617,20.2984873 L566.484968,36.2674354 L459.928938,36.2674349 L406.858,52.4441009 L364.259254,42.6729485 L302.110728,52.4441009 L290.315777,69.4623672 L280.261967,57.7353027 L229.337871,69.4623672 L217.302034,92.1998218 L209.923323,74.577977 L164.721328,85.547839 L140.079137,74.5779752 Z" id="Stroke-1" fill="#20066A"></path>
                <g id="Stroke-1">
                    <use fill="url(#linearGradient-1)" fill-rule="evenodd" xlink:href="#path-3"></use>
                    <path stroke="url(#linearGradient-2)" stroke-width="3" d="M137.802368,39.8048159 L57.8796079,56.3298565 L52.7294019,62.5435818 L52.7294019,68.0236913 L45.4114125,71.3727384 L22.0919978,99.5076201 L22.0919978,135.016658 L2.56608463,144.946982 L6.97334297,160.42374 L16.662708,162.940114 L9.73404095,167.76982 L13.6518606,171.870813 L11.0861924,174.866637 L21.7379954,212.272064 L90.9121629,215.218602 L124.583542,198.249613 L146.298094,204.093577 L176.929591,194.694944 L184.11228,188.256932 L193.595701,189.581298 L267.646192,166.860458 L310.584386,166.860461 L315.087634,163.147319 L320.242214,166.55797 L327.509332,161.681586 L333.359564,166.860463 L370.956236,166.860465 L433.239847,181.061034 L451.018383,168.388184 L451.018383,163.700972 L459.144844,162.595501 L467.178097,156.869258 L527.880314,153.365429 L532.715569,146.544364 L539.952305,152.389192 L549.995321,147.015044 L558.613851,151.59144 L583.825598,150.136178 L647.714317,156.805466 L677.609753,142.278109 L692.313979,162.012428 L758.273178,156.812455 L777.346891,166.820247 L784.63188,165.900944 L786.700132,171.727802 L804.701794,181.173098 L853.352934,181.173097 L870.354786,192.910252 L923.361122,175.198307 L951.691113,209.747162 L1045.36386,229.279813 L1062.88976,107.793308 L981.90271,76.8485597 L972.639581,78.170701 L972.639581,74.5579538 L966.319474,77.2865236 L963.124652,69.6735578 L941.049284,61.23867 L916.790794,74.2630933 L852.465689,44.8598866 L773.991382,34.4302317 L768.942324,40.555378 L763.430096,33.1570891 L691.294788,24.5359204 L618.62594,2.25683224 L566.709518,18.1569385 L536.604406,18.1569384 L532.859976,20.8360544 L527.138225,18.4584385 L522.442369,23.8971509 L516.306203,18.1569384 L460.15247,18.1569382 L406.912627,34.3850885 L364.206155,24.5892262 L302.977882,34.2156939 L290.441728,52.3033998 L279.713998,39.7902547 L230.342764,51.1597179 L217.143658,76.0947594 L209.008089,56.6653852 L181.130859,61.8960884 L181.130859,65.7438594 L172.644093,63.3564213 L154.645047,66.6703462 L137.802368,39.8048159 Z"></path>
                </g>
                <path d="M976.03789,191.522496 C976.007536,192.083572 975.965046,192.552687 975.908021,192.919917 C974.872712,199.587098 964.649058,207.047969 964.071289,206.151362 C950.045889,184.387431 929.202306,163.230235 909.938477,144.394526 C910.557308,152.351511 911.027344,173.89355 911.027344,173.89355 L883.735352,183.072268 L867.510847,167.033198 C867.510847,167.033198 868.022242,160.301816 868.659114,151.567394 C866.055068,157.771626 863.681377,162.143212 862.647461,162.343745 C860.633014,162.734895 835.310547,167.92187 831.060547,170.439448 C806.755859,165.694331 779.292459,154.991054 768.127531,141.153852 C758.888336,129.70245 753.989615,116.003556 753.567685,100.409422 C753.342655,92.0958636 754.478622,84.4738413 756.945292,77.6946285 C757.71805,75.5699164 758.592217,73.6484336 759.565223,71.9308051 C758.674858,72.1655493 757.749914,72.2880219 756.811557,72.2880219 C755.987169,72.2880219 756.46482,78.4895357 755.259766,78.7783155 C754.054711,79.0670952 738.264648,75.935542 738.264648,75.935542 C734.444336,115.336909 751.957031,151.935542 751.957031,151.935542 L712.989258,155.255855 L699.942383,142.884761 C699.942383,142.884761 706.319541,110.88194 706.71582,101.4873 C707.1121,92.0926595 702.976562,70.9531202 702.976562,70.9531202 C702.976562,70.9531202 692.488516,70.6225403 683.496126,74.2069642 C686.904984,85.6397282 688.781618,97.1668657 686.518555,105.592769 C680.83252,126.763179 664.455078,142.465815 651,151.300776 C650.833256,151.488361 613.870006,140.195166 591.85987,128.596316 C592.374187,133.522662 591.6875,140.044442 591.6875,140.044442 L555.630975,140.044442 C555.630975,140.044442 547.547221,133.853034 547.547221,132.036128 C547.547221,130.219222 549.847656,93.1086036 549.847656,93.1086036 C546.180107,93.1086036 533.792289,92.8968207 529.83047,93.1086036 C530.315149,106.178632 529.83047,140.044442 529.83047,140.044442 C529.83047,140.044442 490.995597,144.90324 485.366888,143.560398 L479.402344,148.6748 C479.402344,148.6748 442.996094,154.114253 413.433594,126.434565 C407.310159,120.701127 401.676622,103.796878 403.354671,87.1135878 C398.97254,97.8196281 392.374279,107.516296 390.339844,109.224049 C393.847276,115.512703 418.523994,137.33713 426.865234,144.561519 C438.011719,152.100738 447.806641,158.364253 447.806641,158.364253 C447.806641,158.364253 436.529297,168.194331 426.865234,168.194331 C416.742569,168.194331 400.181674,156.561612 386.493818,147.949829 C374.619181,140.47908 364.12285,126.574051 354.825234,115.725581 C355.249328,119.740811 361.46875,152.146587 361.46875,152.146587 L338.708984,158.364253 C338.708984,158.364253 328.205353,153.380975 322.609397,150.877803 C322.794409,154.050793 323.113375,156.702144 323.113375,156.702144 L296.943359,159.022456 L281.630859,151.577144 C281.630859,151.577144 278.708984,135.342572 275.974009,128.381831 C269.309672,129.471 261.570221,132.223294 254.488281,133.485347 C248.977221,146.062656 244.669922,168.176606 244.669922,168.176606 L221.851562,172.8623 C221.851562,172.8623 213.397893,170.370114 208.46513,169.02082 C207.536845,172.420576 205.707447,175.125972 205.707447,175.125972 L157.886719,186.661128 C157.886719,186.661128 146.873061,182.397228 145.849609,182.704097 C145.308507,182.866339 142.158177,171.498517 139.414094,158.605837 C139.117208,159.398492 138.788377,160.049254 138.425156,160.542049 C134.90907,165.38064 100.216797,201.463862 100.216797,201.463862 C100.216797,201.463862 58.0019531,212.034175 33.5253906,201.463862 L29.1171875,163.777344 C29.2296016,161.258564 58.8849935,172.080946 64.765625,170.773437 C65.7586174,170.552654 94.7019415,167.200912 104.435547,163.777344 C112.063289,161.094463 100.216797,148.795894 100.216797,148.795894 C100.216797,148.795894 68.9980469,160.542049 52.2128906,158.375972 C35.4277344,156.209894 33.5253906,148.795894 33.5253906,148.795894 L39.9511719,97.4140625 C39.9511719,97.4140625 60.6878762,78.1487049 71.3183594,69.234375 C72.6382443,68.1279176 82.4183789,64.0576642 84.0996094,63.6773194 C102.898233,59.4222126 138.425156,69.234375 138.425156,69.234375 C138.425156,69.234375 139.013404,75.4366683 139.701259,84.6275324 C158.439937,81.2951389 212.761719,80.6162061 212.761719,80.6162061 L212.761719,103.204097 C212.761719,103.204097 183.035718,101.553055 179.329222,103.204097 C178.931169,103.381079 179.329222,118.094722 179.329222,118.094722 L212.761719,112.647456 L209.166016,135.380948 C209.166016,135.380948 184.589288,140.713985 176.496879,142.600581 L176.496879,154.42844 C177.70131,154.104405 198.595737,153.737006 205.463493,158.491486 C210.92911,151.243766 238.116393,103.503644 242.520335,96.629878 C254.938072,77.491622 238.649394,73.6630811 238.649394,70.5447031 C238.649394,66.6408056 279.943138,57.5346445 281.630859,61.6708936 C286.310288,73.138308 311.628378,115.202485 319.427102,127.41362 C320.304006,117.063603 321.440789,105.758633 321.597656,99.989253 C322.294382,74.4413236 309.219398,57.9130915 312.523438,57.1415967 C324.075676,54.4510899 390.242188,47.4521436 403.339844,59.1787061 C406.650138,62.1424708 407.714928,66.5881467 407.392564,71.6321172 C410.054304,65.7944332 414.07997,60.5096647 419.841797,56.3994092 C441.152041,41.1975388 471.841622,46.1081349 483.652951,48.2694686 C483.61229,46.0592662 484.252314,43.8679972 485.51912,42.0062617 C487.260935,39.4410957 490.021875,37.7468328 493.100885,37.3556828 C503.716222,36.0007046 501.319367,40.627512 511.943359,39.4389347 C512.345816,39.3935526 527.179785,44.9208936 527.580078,44.9208936 L527.580078,62.3071624 C527.915459,62.3050014 548.43652,70.8275195 547.757104,65.2412061 C547.382776,62.1617103 545.483007,41.7555799 547.547221,39.4389347 C549.600615,37.1330947 552.54331,36.0979519 555.630975,36.0979519 C555.630975,36.0979519 573.924395,36.7634303 584.064072,38.0585639 C585.906585,36.7299627 587.768937,35.4495867 589.46582,34.0351514 C590.030558,33.5640426 666.163219,33.3495897 666.534668,34.0351514 C667.474533,35.7698069 668.907452,38.5119335 670.592389,41.9661282 C690.463349,42.2157344 772.941367,52.4610005 771.657017,55.2200515 L767.906538,63.2727294 C768.918444,62.7247757 769.977645,62.2813693 771.083207,61.9427373 C773.471983,61.1993362 776.557484,60.058302 779.820413,58.7184512 C786.824458,55.8420941 794.761078,52.8295908 802.11565,52.1056392 C804.019746,51.9176278 805.995246,52.315261 807.988056,52.315261 C829.614695,52.315261 851.61999,62.8179624 859.151989,70.7122769 C860.366968,71.9720815 861.525468,73.2468264 862.627311,74.537086 C869.764528,73.6398816 880.667969,74.2929639 880.667969,74.2929639 C880.667969,74.2929639 937.649979,126.872872 943.643555,132.791987 C942.472968,125.09865 941.110661,111.143891 938.620189,101.944302 C937.631358,98.2942893 938.624517,94.3935946 941.238322,91.6598667 C943.302535,89.5009781 946.14137,88.3167229 949.062427,88.3167229 C949.841375,88.3167229 950.626815,88.4010038 951.405763,88.5738878 C961.270281,90.7608701 966.078124,91.8630054 975.908021,94.1969391 C978.865862,94.8992802 981.390953,96.8118092 982.866628,99.4655782 C983.137106,99.9531013 983.367704,100.457299 983.557968,100.973413 C1001.64396,106.525551 1026.57324,115.3623 1026.57324,115.3623 L1034.56187,125.077144 L1033.46289,139.605464 C1033.46289,139.605464 1022.57227,134.57519 1019.15137,132.80273 C1015.73047,131.030269 1007.10352,128.963862 1007.10352,128.963862 L1007.10352,148.502925 L1038.76172,158.400391 L1037.37988,176.05273 C1037.37988,176.05273 1016.46673,170.476623 1011.00977,168.892573 L1009.70898,181.892573 C1018.4873,183.990953 1041.12891,191.479487 1041.12891,191.479487 L1037.37988,218.029292 L1024.17285,209.648433 L981.75,200.53125 L976.03789,191.522496 Z M486.988698,78.2068346 C473.820121,75.3324602 443.31011,72.0967903 441.378906,77.5165967 C436.950752,89.9439429 440.319632,110.821284 446.185547,110.821284 C447.583436,110.821284 480.600503,113.946584 484.480019,117.773749 C486.096232,105.76841 486.94656,94.3104291 487.014268,83.556764 C487.025607,81.7265031 487.017061,79.9429469 486.988698,78.2068346 Z M796.548332,100.118709 C796.751724,106.97572 798.895996,113.783026 803.104482,120.923134 C809.721216,131.851563 829.319073,140.260794 830.294922,140.351558 C833.449663,136.960871 841.337891,120.923134 831.880137,98.8523339 C829.564211,93.4478429 821.245326,88.723494 807.17016,86.5062571 C804.491443,86.0848524 801.825708,85.7823054 799.19892,85.6007772 C797.260204,89.9509703 796.388215,94.7463395 796.548332,100.118709 Z M619.249819,56.6371442 L618.953385,56.6371442 C618.845198,56.6371442 618.793268,57.9489014 618.79976,58.7333624 C618.823561,61.8366298 619.64362,63.5179264 623.891053,65.1300695 C628.781119,66.9842501 642.036226,68.2808799 653.382909,69.0350863 C645.344593,61.0067867 635.149023,56.9699459 622.343975,56.3626909 C621.327015,56.3129868 620.286253,56.6371442 619.249819,56.6371442 Z M358.608859,80.3828096 C358.396812,81.7615593 358.215058,83.2742941 358.061432,84.9188529 C361.811203,83.2764552 363.397229,82.2110577 363.940329,81.7961361 C365.000565,79.9246671 365.537174,78.0618423 365.578285,76.1147365 C365.602086,75.0190843 365.478752,74.0941551 365.214775,73.3550761 C361.475823,73.8153797 359.415937,75.1033653 358.608859,80.3828096 Z M85.6972656,94.7822217 C96.5341798,91.993849 120.976773,97.9806866 124.867188,101.155269 C113.453428,104.217476 85.7451368,111.626483 80.6004627,112.545239 C56.875,116.782222 74.8603514,97.5705945 85.6972656,94.7822217 Z" id="Combined-Shape" fill="#000000" opacity="0.259853078"></path>
                <path d="M819.040347,157.85775 C818.957785,158.073023 818.916504,158.180659 818.916504,158.180659 C788.381836,149.25146 777.664993,141.080079 768.064453,129.26562 C760.294442,119.71162 754.744141,103.513179 756.549805,83.173335 L762.409668,68.208003 C762.409668,68.8066137 759.369537,86.6657074 759.386847,87.2729624 C759.737374,100.36244 763.787906,111.731723 771.557917,121.287884 C781.158457,133.102343 795.530057,140.361309 814.361137,143.41055 C817.515878,143.911914 820.787462,144.298741 824.13694,144.568873 C824.071618,144.739195 824.006908,144.907919 823.942812,145.075044 C838.630991,140.178542 848.412747,136.902803 852.781905,136.055634 C855.163737,132.363099 857.115148,128.605758 858.6383,124.783609 C860.061441,121.209874 862.173097,111.376461 862.852539,107.687007 C862.949516,107.159753 861.03464,115.247481 857.10791,131.95019 C853.545772,142.541708 850.970739,149.068401 849.382812,151.530269 C845.055605,152.37248 833.543725,153.097971 819.040367,157.857698 Z M706.611814,128.710469 C717.947971,128.984082 724.015132,129.18211 735.707029,129.666058 L732.375977,143.159175 C720.263328,142.657811 713.599839,141.459498 701.448242,141.169917 L701.538557,140.882076 C701.340807,141.231659 701.228353,141.329389 701.223633,141.10937 C701.178194,138.991541 707.372736,120.902695 708.12793,101.872065 C708.679654,87.9687909 706.10059,68.9967874 705.648438,64.7919874 L705.70615,64.5953916 C704.525345,64.3867549 703.346945,64.2250613 702.173296,64.1108319 C700.786335,63.9790079 699.436158,63.9141764 698.124928,63.9141764 C690.696789,63.9141764 681.593879,64.4635634 676.496094,68.5976514 L676.595008,68.1944599 L675.067383,50.6533155 L677.133789,38.8322706 L679.839661,56.5764708 C684.846297,52.7018596 690.932876,50.7469007 698.124928,50.7469007 C699.436158,50.7469007 700.786335,50.8117322 702.173296,50.9413951 C704.549089,51.1747885 706.944356,51.5983542 709.339623,52.2164144 L709.339623,52.2181934 L709.340272,52.2159822 C710.411326,62.1784213 711.053958,71.4817402 711.229222,80.1691599 C711.27466,82.2848275 711.296298,84.3464689 711.296298,86.3562451 L711.296298,117.912105 C711.296298,116.952919 709.007408,122.688894 706.611814,128.710469 Z M787.640684,61.52648 L788.033543,59.9968416 C788.150385,59.9946806 788.267228,59.9946806 788.38407,59.9946806 C793.432089,59.9946806 798.592623,60.4009579 803.865671,61.2113515 C822.833067,64.1849559 835.861056,70.6768774 839.074219,80.5615186 C841.216327,87.1512794 844.711444,96.2173602 849.55957,107.759761 L844.211914,132.246577 C844.211914,131.436184 831.799614,137.466823 832.318848,136.919429 C841.790039,126.934565 839.444176,104.666581 835.919434,93.87646 C832.706271,83.9918188 822.833067,77.3543927 803.865671,74.3807883 C800.53191,73.8670697 794.563268,73.6176166 785.959745,73.6324289 C785.932545,73.8283194 785.918945,73.9262647 785.918945,73.9262647 C785.918945,73.9262647 782.231445,75.9887647 780.481445,111.312007 L778.970703,72.1723584 L781.618164,67.2534131 C782.706528,64.5239938 786.124254,62.8005875 787.807648,60.3240245 C787.696339,61.1256615 787.58995,61.8918656 787.48848,62.6226369 Z M869.904854,165.417252 C870.808889,159.933255 878.342749,110.699938 862.486328,82.1367188 L859.910582,63.9532914 C869.238491,73.7017865 876.311035,72.4609327 879.137207,112.406245 C880.482729,131.423954 875.977602,147.943999 874.917219,151.511803 C882.420073,152.533761 886.236546,153.093609 893.794625,154.221201 L889.875,170.277344 C882.241305,169.138471 877.369966,167.00647 869.716797,165.964844 L869.904854,165.417252 L869.904854,165.417252 Z M286.390778,137.257682 L288.865234,151.256831 C286.333652,142.320891 280.372472,131.888698 275.971413,121.695026 L275.971413,108.52775 C280.372472,118.719261 283.858266,128.314321 286.389849,137.252423 L286.390778,137.257682 L286.389849,137.253071 C297.041969,135.535037 302.377767,134.705194 313.049361,133.140594 L317.304688,147.213862 C306.633093,148.778462 299.827902,149.35325 289.175781,151.071284 L286.390778,137.257682 Z M727.231445,65.7958936 C728.764898,64.6177365 730.006159,60.709448 730.955227,54.0710279 C743.632614,55.4975362 756.83481,47.9672401 761.411133,49.0283155 L757.05957,62.5693311 L753.285156,70.1152295 C750.234275,69.4078459 741.549704,67.9680673 727.231445,65.7958936 Z M552.478654,83.0472013 C548.802454,82.2908618 543.393161,81.8673127 536.213993,81.8673127 C535.90025,81.8673127 535.584343,81.8694738 535.264108,81.8716348 C528.273046,81.8889232 520.736719,82.2563017 512.655128,82.9910586 L512.655128,69.8216218 C512.830576,69.8057173 513.005768,69.7899851 513.180702,69.7744249 L513.180702,58.9915213 C513.823335,47.9896174 514.134914,42.4875849 514.758073,31.4640704 L514.758073,44.6313462 C514.181878,54.8240669 513.872069,60.2962034 513.320634,69.7620099 C521.150812,69.0690829 528.465303,68.7211126 535.264108,68.7021981 C535.584343,68.700037 535.90025,68.700037 536.213993,68.700037 C543.393301,68.700037 548.802666,69.1214417 552.47887,69.8799701 L552.47887,69.883876 C552.576109,71.5428477 552.634443,73.5492186 552.634443,75.8835823 L552.634443,89.050858 C552.634443,86.7169243 552.576022,84.7093092 552.478654,83.047462 L552.478654,83.0472013 Z M364.576371,65.325774 C364.576371,65.325774 352.784218,60.6472149 348.087891,69.9396151 C343.391564,79.2320153 340.742188,117.727534 340.742188,112.485347 C340.742188,107.243159 337.705078,56.7997999 337.705078,56.7997999 C337.705078,56.7997999 368.55778,50.7986376 374.525391,50.161128 C375.284865,50.074686 372.391821,78.3482594 372.391821,78.3482594 C372.391821,75.1455838 366.93269,65.8681975 364.576371,65.325774 Z M390.875403,74.6787426 L390.875403,74.6811742 C390.695812,75.6622908 390.384233,76.6995946 389.94932,77.7952468 L389.94932,64.6279711 C390.383709,63.5336378 390.695061,62.4975124 390.874754,61.5174418 L390.874754,61.514979 C391.000251,60.8364094 391.063,60.1837724 391.063,59.5613901 L391.063,72.7286658 C391.063,73.3521315 391.000468,74.0014402 390.875403,74.6787422 L390.875403,74.6787426 Z M429.870863,55.7758794 C430.402982,54.4429158 431.025924,53.2503354 431.73969,52.198138 C432.600861,50.9310221 433.59402,49.8699467 434.721332,49.01201 C436.259755,47.8342379 440.329761,47.0432937 446.970297,46.6564658 C448.818136,46.5548965 450.620536,46.5030313 452.379661,46.5030313 C462.854355,46.5030313 471.79928,48.316152 479.218764,51.8689177 L479.218764,65.0361934 C471.79928,61.4834277 462.854355,59.670307 452.379661,59.670307 C450.620536,59.670307 448.818136,59.7221722 446.970297,59.8259026 C440.329761,60.2105694 436.259755,61.0036747 434.721332,62.1792857 C433.594304,63.037007 432.601361,64.0999247 431.740339,65.3637201 C431.026496,66.4166028 430.403482,67.6091409 429.871296,68.9420711 C429.226499,70.5654551 428.715855,72.3937031 428.341527,74.431573 L428.341527,61.2642973 C428.715771,59.2268834 429.22627,57.3968374 429.870863,55.7763189 L429.870863,55.7758794 Z M232.241677,156.252588 C232.034229,157.377024 231.876417,158.44973 231.765653,159.473738 C221.0554,162.079895 218.425357,161.024634 207.753906,163.803706 L205.048153,153.063959 C215.719603,150.282725 221.0554,148.912619 231.765653,146.305276 C231.875812,145.284875 232.033409,144.212789 232.240595,143.085312 C233.129823,138.26008 234.908205,132.499265 237.57358,125.805991 C239.014634,122.190555 240.713175,118.302826 242.671365,114.144967 L242.671365,127.312243 C240.713469,131.469478 239.015144,135.356663 237.574229,138.972834 C234.909574,145.665053 233.131337,151.424454 232.241677,156.252588 Z M271.589827,109.227874 C272.974726,109.005543 274.428383,108.773262 275.971413,108.527534 L275.971413,121.69481 C262.63192,123.819122 255.97191,124.938546 242.671365,127.313539 L242.671365,114.144102 C244.594895,113.800942 246.379538,113.483998 248.065583,113.186437 L248.065583,103.14155 C254.959277,90.9402637 259.477178,83.1799343 261.63876,79.8216631 L261.63876,92.9889388 C259.689604,96.0191305 255.824499,102.626928 250.029165,112.840851 C257.209614,111.580814 262.755353,110.650727 270.213196,109.449255 C267.284443,103.386159 264.417897,97.8990308 261.63876,92.9906677 L261.63876,79.8212309 C264.851923,85.4983084 268.181928,91.9447196 271.589827,99.1647866 L271.589827,109.227874 Z M167.171998,112.272417 C168.087192,100.65335 168.55456,94.8617339 169.489154,83.2414051 C176.79396,81.4446114 182.902214,80.5629031 187.813917,80.5629031 C193.097784,80.5629031 200.980469,71.0400342 200.980469,71.0400342 L203.980469,84.2414051 L202.498145,95.7534874 C199.994691,93.7523554 180.271568,91.9365208 172.966797,93.7323399 C172.117775,104.288703 172.371094,115.97905 167.412961,122.385658 C179.127915,119.559209 191.503676,106.793167 199.498145,105.317378 L201.980469,117.749019 L200.980469,127.217769 C193.999036,128.50655 181.597738,130.829606 171.777207,132.742744 C170.574902,132.976966 170.777207,154.969722 170.777207,154.969722 C170.777207,154.969722 163.74252,154.8542 163.265625,154.969722 L166.685156,122.561607 C166.847789,122.522211 167.01007,122.482954 167.171998,122.443833 L167.171998,112.272417 Z M195.35046,144.803706 L198.675781,157.116359 L198.675781,166.69197 C194.664197,167.039899 185.379919,168.548312 177.454119,170.285796 C166.91884,172.602441 159.264008,173.601593 145.496094,177.711909 L140.979855,166.69197 C154.74777,162.579493 166.91884,159.433005 177.454119,157.116359 C185.379919,155.378875 191.338875,154.376148 195.35046,154.028219 L195.35046,144.803706 Z M252.119794,67.2579686 L252.119794,80.4252443 C252.119794,77.2528233 249.510316,74.0782414 244.306507,70.9058204 L244.306507,57.7363837 C249.510316,60.9109656 252.119794,64.0833866 252.119794,67.2579686 Z M428.341527,61.2642973 L428.341527,74.431573 C427.878486,76.9578401 427.621,79.8039425 427.573397,82.9720413 C427.571234,83.2789104 427.56907,83.5901015 427.56907,83.9056148 L427.56907,70.736178 C427.56907,70.4206648 427.571234,70.1094736 427.573397,69.8026046 C427.621,66.6366668 427.878486,63.7905643 428.341527,61.2642973 Z M389.948887,64.6271067 L389.948887,77.7943824 C389.291108,79.4432633 388.347715,81.2218072 387.127363,83.125692 C386.943444,83.4131116 386.755198,83.6983701 386.562625,83.9814676 L386.562625,70.8141919 C386.755198,70.5310944 386.943444,70.2458358 387.127363,69.9562552 C388.347715,68.0523704 389.291108,66.2759876 389.948887,64.6271067 Z M386.562625,70.8133275 L386.562625,83.9806032 C383.115778,89.0525868 378.377174,93.3573978 372.327341,96.8129162 L372.327341,83.6434795 C378.377174,80.187961 383.115778,75.8831501 386.562625,70.8133275 Z M323.27782,84.6153035 L323.27782,97.7825792 C323.27782,80.2694326 321.31963,68.020603 317.431379,61.059862 L317.431379,47.8925862 C321.31963,54.8511662 323.27782,67.1021569 323.27782,84.6153035 Z M477.426966,112.62013 L477.426966,125.787406 C472.909065,129.938782 470.650115,132.024195 466.132213,136.21231 L466.132213,123.045034 C470.650115,118.854759 472.909065,116.771507 477.426966,112.62013 Z M466.132213,123.044602 L466.132213,136.211877 C463.451332,136.378278 460.852674,136.462559 458.340565,136.462559 C440.065568,136.462559 426.263033,132.054018 417.155827,122.873879 C409.400962,115.072489 405.558149,104.75996 405.558149,92.0205725 L405.558149,78.8532967 C405.558149,91.5905236 409.400962,101.905214 417.155827,109.704442 C426.263033,118.886742 440.065568,123.293122 458.340565,123.293122 C460.852674,123.293122 463.451332,123.211003 466.132213,123.044602 Z M348.933594,142.088862 C338.281473,144.193725 332.501788,144.11385 321.869141,146.391597 L319.222744,134.511347 C329.855391,132.233601 335.171714,131.133627 345.823835,129.028764 L348.933594,142.088862 Z M429.585938,159.235917 C429.138042,159.372063 425.432155,159.127864 424.653206,159.184052 C424.153381,159.218628 423.638409,159.235917 423.112619,159.235917 C415.301497,159.235917 404.545516,155.482174 392.268423,147.814769 C374.449976,136.696169 359.981008,117.853976 346.836252,101.233343 L346.836252,88.0639066 C359.981008,104.686701 374.449976,123.526732 392.268423,134.647494 C404.545516,142.314898 415.301497,146.068641 423.112619,146.068641 C423.638409,146.068641 424.153381,146.051353 424.653206,146.016776 C425.432155,145.958428 426.03584,145.863341 426.483735,145.727195 L429.585938,159.235917 Z M552.61497,57.0232373 L552.61497,70.190513 C551.427073,60.5198156 550.842862,55.6941917 549.654965,46.0407828 L549.654965,32.873507 C550.842862,42.5247549 551.427073,47.3525399 552.61497,57.0232373 Z M491.862829,68.1615034 L491.862829,81.3287791 C491.862829,67.5823421 490.73119,56.39891 488.487386,47.7590334 L488.487386,34.5917577 C490.73119,43.2294732 491.862829,54.4150664 491.862829,68.1615034 Z M576.392589,33.2015544 L576.392589,46.3688301 C574.248317,63.9035872 573.157789,79.2016579 573.157789,92.2263044 L573.157789,79.0568676 C573.157789,66.0322212 574.248317,50.7363115 576.392589,33.2015544 Z M580.053647,118.681658 L580.053647,131.848934 C571.796793,131.747365 566.292223,131.704144 559.863734,131.704144 C556.650572,131.704144 553.205889,131.714949 549.07097,131.734399 L549.07097,118.564962 C553.205889,118.545512 556.650572,118.536868 559.863734,118.536868 C566.292223,118.536868 571.796793,118.577928 580.053647,118.681658 Z M514.44671,117.755 L514.44671,130.922276 C509.071965,131.695932 499.783005,132.929891 486.579828,134.822971 L486.579828,121.653534 C499.783005,119.762616 509.071965,118.526495 514.44671,117.755 Z M609.809479,33.1821049 L609.809479,46.3493807 C609.597432,46.8226505 609.398367,47.2959204 609.210121,47.7670293 L609.210121,34.5997535 C609.398367,34.1264837 609.597432,33.6553748 609.809479,33.1821049 Z M609.209905,34.5988891 L609.209905,47.7661648 C608.404992,49.7910684 607.818616,51.8008446 607.45078,53.8019766 L607.45078,40.6325398 C607.818616,38.6335689 608.404992,36.6216316 609.209905,34.5988891 Z M607.450563,40.632972 L607.450563,53.8002478 C607.138984,55.4945107 606.985358,57.1801295 606.985358,58.857104 L606.985358,45.6898283 C606.985358,44.0106927 607.138984,42.3250739 607.450563,40.632972 Z M663.32324,52.2356478 L659.748047,63.482417 C649.446453,51.4561756 639.234258,46.8135741 621.863707,45.9837311 C620.701775,45.9318659 619.529025,45.9059333 618.349784,45.9059333 C615.556388,45.9059333 612.711062,46.0528846 609.809479,46.3511095 L609.809479,33.1816727 C612.711062,32.8834479 615.556388,32.7386575 618.349784,32.7386575 C619.529025,32.7386575 620.701775,32.7645901 621.863707,32.8142943 C639.234258,33.6462984 653.021647,40.2094063 663.32324,52.2356478 Z M584.552074,65.8452904 L584.552074,79.0125661 C584.084705,73.0675184 583.851021,68.8599547 583.831547,66.4266127 L583.831547,53.259337 C583.851021,55.6905179 584.084705,59.9002427 584.552074,65.8452904 Z M651.504861,94.632201 L651.504861,107.799477 C651.504861,107.678458 651.504861,107.553117 651.502697,107.429937 C651.444276,103.434156 650.529011,99.9202896 648.73743,97.024483 C646.673216,93.6856612 643.732686,91.716945 640.149523,91.2523193 C632.691091,90.2690417 618.728439,91.369016 605.25263,89.3030525 C597.443672,88.105831 589.595766,83.3385554 584.552074,79.0142949 L584.552074,65.8448582 C589.595766,70.1691186 597.443672,74.9385552 605.25263,76.1336157 C618.728439,78.1995792 632.691091,77.0996049 640.149523,78.0850436 C643.732686,78.5475082 646.673216,80.5162245 648.73743,83.8572073 C650.529011,86.7530139 651.444276,90.2647196 651.502697,94.2605005 C651.504861,94.3858413 651.504861,94.5090212 651.504861,94.632201 Z M674.239258,85.9794874 L672.137695,103.373863 C670.995117,108.417964 667.234375,113.340347 663.373047,117.931636 C659.511719,122.522924 657.267565,124.282019 650.977556,129.341036 C648.387552,131.404839 645.563864,133.52915 642.506491,135.692361 L642.506491,122.522924 C645.563864,120.361875 648.387552,118.237563 650.977556,116.171599 C657.267565,111.114743 661.96073,106.86828 665.076524,103.373863 C666.617111,101.686083 673.101128,87.6543009 674.239258,85.9794874 Z M642.505842,122.523357 L642.505842,135.690632 C641.919467,135.701437 641.330928,135.70576 640.740225,135.70576 C638.896714,135.70576 637.02291,135.658216 635.105831,135.556647 C615.00896,134.476122 595.970065,128.335132 582.533203,118.934565 L584.766285,106.790915 C598.203146,116.191481 615.00896,121.306686 635.105831,122.38721 C637.02291,122.490941 638.896714,122.538484 640.740225,122.538484 C641.330928,122.538484 641.919467,122.532001 642.505842,122.523357 Z M953.095703,132.839844 C953.095703,137.303448 946.470473,138.689058 946.392578,137.150391 C945.788893,125.567164 943.934722,113.100365 939.689453,97.5429688 L942.921387,82.5815381 C950.516929,98.6234921 953.095703,132.839844 953.095703,132.839844 Z M959.378906,194.105469 C939.554667,163.587125 915.176545,137.815376 889.471245,112.468425 L889.471245,99.2989878 C915.176545,124.64594 944.289745,150.36027 964.113984,180.880774 L959.378906,194.105469 Z M1026.18359,131.966797 C1020.92569,125.559285 1016.20616,122.139338 1001.21141,118.201905 L1001.21141,105.032469 C1016.20616,108.972062 1026.29355,114.29905 1031.55145,120.708723 L1026.18359,131.966797 Z M1027.9375,163.320313 C1019.89486,160.696798 1014.39533,160.305204 1002.51636,157.158716 L1002.51636,143.989279 C1014.39533,147.135767 1024.36587,150.070473 1032.40851,152.696148 L1027.9375,163.320313 Z M1028.03125,202.902344 C1024.03914,201.203759 1024.85249,200.399591 1017.02406,198.121845 C1006.6251,195.111503 987.39527,189.082977 973.763672,186.226069 C973.763672,186.226069 977.530783,157.130497 976.863281,141.648433 C976.293479,128.432418 970.051758,100.131831 970.051758,100.131831 L975.932617,92.1503858 L989.287109,159.458003 C989.287109,159.458003 1013.87342,184.04185 1017.02406,184.954569 C1024.85249,187.232315 1030.75303,189.220481 1034.74514,190.919066 L1028.03125,202.902344 Z M105.533539,163.256063 C113.233533,154.752485 119.043109,147.821344 122.939214,142.439365 C123.825315,141.234437 124.662767,140.045019 125.449011,138.876281 C128.458495,134.399991 130.740659,130.187427 132.303186,126.225676 C133.27833,123.753959 133.969611,121.384239 134.384694,119.110057 C134.61011,117.866663 134.753556,116.658886 134.812472,115.479557 C134.835526,115.001102 134.848333,114.532991 134.848333,114.070053 L134.848333,129.828052 C134.848333,130.29099 134.835526,130.761687 134.812472,131.237556 C134.753646,132.415097 134.610545,133.623579 134.385719,134.857852 C133.970749,137.138336 133.279133,139.51251 132.303186,141.984962 C130.740659,145.945427 128.458495,150.160576 125.449013,154.634293 C124.662768,155.805602 123.825315,156.992436 122.939214,158.199951 C119.043109,163.58193 113.233533,170.51307 105.533539,179.014062 C102.352325,182.525941 98.8945031,186.151599 95.2061713,189.916892 C92.3935986,190.913382 89.5349182,191.790119 86.63013,192.599614 C74.8342308,195.80656 64.1372329,197.438481 54.5468211,197.438481 C45.2842865,197.438481 41.6366488,195.687593 34.4335938,192.599614 L29.8484367,177.071791 C37.0514917,180.157183 45.2842865,181.677896 54.5468211,181.677896 C64.1372329,181.677896 74.8342308,180.048561 86.63013,176.839029 C89.5346536,176.032193 92.3930779,175.152956 95.2054029,174.159949 C98.8940228,170.394103 102.352104,166.765599 105.533539,163.256063 Z M128.220703,94.7216749 C120.951048,87.7129471 105.558594,81.629878 82.5917969,87.4189405 C59.625,93.208003 66.0195313,110.040034 62.9257813,119.686519 C61.4810015,124.191422 55.3270509,116.240032 55.6358472,106.298745 C55.9882856,94.9524583 56.8671875,81.2404997 56.8671875,81.2404997 C61.6623934,79.1844338 73.8813373,74.7722975 78.3998967,73.5231405 C85.2084744,71.6144906 128.220703,49.5615186 128.220703,49.5615186 L132.953125,68.7724561 L128.220703,94.7216749 Z M107.909112,145.717769 C107.909112,145.717769 101.318266,136.849194 98.2802774,136.849194 C97.5476765,136.849194 96.7843371,136.926781 95.9902592,137.081956 C87.3681101,138.747499 71.9220141,145.352772 55.8073557,147.964881 C54.2473769,148.220919 52.6617826,148.339887 51.0813114,148.339887 C44.1497798,148.339887 41.0070305,145.624787 36.578125,142.916987 L32.8456965,127.608536 C37.274602,130.316336 44.1497798,132.581887 51.0813114,132.581887 C52.6617826,132.581887 54.2473769,132.46292 55.8073557,132.204295 C71.9220141,129.594773 87.3681101,122.986913 95.9902592,121.323957 C96.7843371,121.166196 97.5476765,121.088608 98.2802774,121.088608 C101.318266,121.088608 103.777346,122.436043 105.488456,125.042979 C107.10735,127.518017 107.909112,130.828412 107.909112,134.852612 L107.909112,145.717769 Z" id="Combined-Shape" fill="url(#linearGradient-4)"></path>
                <path d="M200.277309,70.0269955 C199.96573,75.7991592 199.80994,78.6949658 199.498361,84.4671295 C196.994907,82.4659975 193.098001,81.443821 187.814134,81.443821 C182.902431,81.443821 176.794176,82.3255293 169.48937,84.1192005 C168.554632,95.7413257 168.087263,101.532939 167.171998,113.152903 C179.596227,110.334894 189.878347,107.806466 197.959938,105.450922 C197.570463,110.025864 197.375726,112.30361 196.986252,116.859103 C188.826767,118.365355 178.71991,120.528566 166.685156,123.441661 C166.061997,132.669343 165.750417,137.263734 165.127259,146.491416 C165.049364,148.056016 165.653049,149.253238 166.938314,150.083081 C167.747555,150.593089 168.643346,150.852415 169.630014,150.852415 C170.207734,150.852415 170.815746,150.763812 171.456215,150.584445 C181.193071,147.958769 186.061499,146.685911 195.817829,144.194221 C195.623092,148.479582 195.525724,150.623343 195.35046,154.908705 C191.338875,155.256634 185.379919,156.259361 177.454119,157.996845 C166.91884,160.31349 154.74777,163.459979 140.979855,167.572456 C143.881439,154.059412 145.692494,139.831061 146.432495,124.813927 C147.19197,109.330006 146.568811,95.2183517 144.582492,82.5373121 C166.801998,77.1498153 177.940961,74.6408366 200.277309,70.0269955 L200.277309,70.0269955 Z M313.049361,134.021728 C302.377767,135.584166 297.041969,136.41401 286.389849,138.132044 C283.858266,129.196104 280.372472,119.601043 275.971413,109.407372 C262.63192,111.531684 255.97191,112.651107 242.671365,115.026101 C236.24504,128.67313 232.603455,139.407063 231.766086,147.186842 C221.055544,149.793068 215.719747,151.163174 205.048153,153.944445 C209.663422,148.634746 214.376061,142.263971 219.186068,134.812672 C232.545034,114.408041 242.223469,92.2659256 251.901904,69.9876644 C252.018747,69.4863009 252.096641,68.926589 252.116115,68.3474277 C252.232957,65.1036921 249.62348,61.8621176 244.307157,58.618382 C255.796647,55.8565605 261.560866,54.5448034 273.06983,51.9774764 C278.502995,65.2009394 283.605108,76.9570496 288.33722,87.2263577 C299.729342,112.052497 308.025143,127.709301 313.049361,134.021728 L313.049361,134.021728 Z M471.694338,35.1184795 C473.946798,35.1184795 476.175456,35.1595394 478.380313,35.2394983 C478.73084,42.2477824 478.886629,45.7421997 479.217682,52.7504838 C471.800362,49.1955571 462.853273,47.3845975 452.380743,47.3845975 C450.619454,47.3824364 448.817054,47.4343016 446.969215,47.538032 C440.328679,47.9226988 436.258673,48.7158041 434.72025,49.8935762 C430.10498,53.4052819 427.729187,60.3357682 427.573397,70.6828741 C427.53445,73.7926246 427.69024,77.3043303 428.079714,81.1661261 C429.598664,96.9569161 438.244992,106.897745 454.096594,111.338702 C459.37397,112.87953 465.460587,113.629414 472.336971,113.629414 C473.987909,113.629414 475.684286,113.586193 477.426101,113.501913 C472.9082,117.651128 470.649249,119.736541 466.131348,123.924655 C463.45263,124.091056 460.853972,124.173176 458.341863,124.173176 C440.066866,124.173176 426.264331,119.766796 417.154961,110.586657 C409.170739,102.556196 405.334418,91.861161 405.568103,78.5987991 C405.645997,73.4252462 406.405472,68.6363601 407.768632,64.2364629 C409.034423,60.1628842 410.494952,57.49831 412.130744,56.3010885 C428.508136,44.7200232 438.49815,38.7144661 442.042366,37.8846231 C447.105531,36.6874015 453.940804,35.7430228 462.411869,35.3367455 C465.540645,35.1919552 468.636965,35.1184795 471.694338,35.1184795 L471.694338,35.1184795 Z M345.74594,54.2751044 C353.788583,47.6730976 361.909121,43.9668974 370.146502,43.1176049 C371.548609,42.9814587 372.892295,42.8842115 374.197034,42.8453126 C382.248332,42.8453126 387.313661,44.9307256 389.503372,48.9848548 C390.43811,50.5689042 390.9639,54.3140033 391.061269,60.259051 C391.11969,63.174307 389.776004,66.7076232 387.127579,70.8373892 C383.641784,76.2810733 378.714935,80.8754649 372.327558,84.5254778 C376.261247,94.060029 382.862836,104.137004 392.151797,114.812589 C398.792333,122.400035 406.484449,129.948581 415.247619,137.477678 C418.928151,140.50747 422.667104,143.556711 426.483951,146.608113 C426.036056,146.742098 425.432371,146.839345 424.653422,146.897694 C424.153597,146.932271 423.638626,146.949559 423.112835,146.949559 C415.301713,146.949559 404.545733,143.193655 392.268639,135.52625 C374.450192,124.40765 359.981224,105.567619 346.836468,88.9448244 C350.536473,87.8448502 353.827531,86.7448759 356.670693,85.6449016 C363.467018,82.8441812 367.537024,80.3352025 368.900184,78.0574561 C371.139661,74.4096043 372.308084,70.5867074 372.385979,66.5714771 C372.463874,63.1548575 371.76282,60.1812532 370.321765,57.652825 C368.861237,55.1049475 366.933339,53.5792464 364.57702,53.038984 C364.003627,52.8790663 363.280936,52.7947854 362.406783,52.7947854 C361.796607,52.7947854 361.110699,52.8358453 360.351224,52.9222873 C350.925948,53.9271754 345.395413,59.3708595 343.915411,68.9659201 C343.253305,73.30963 342.863831,78.4637335 342.727515,84.3309834 C342.376988,97.7294914 343.409095,112.921671 345.823835,129.909682 C335.171714,132.014545 329.855391,133.114519 319.222744,135.392265 C321.501168,119.523677 322.825381,105.278038 323.175908,92.6899236 C323.760119,71.3020148 321.832222,56.6479369 317.431163,48.7730719 C328.862232,46.1279471 334.587503,44.8529278 346.038046,42.4022974 C345.921204,47.1522846 345.862783,49.5251172 345.74594,54.2751044 Z M514.758073,32.3447722 C514.134914,43.3682866 513.823335,48.8703191 513.180702,59.8722231 C516.696789,60.1639648 520.398958,60.304433 524.272063,60.304433 C524.752415,60.304433 525.23493,60.302272 525.721773,60.2979499 C534.971786,60.2007026 543.929694,59.4097584 552.61497,57.9035068 C551.427073,48.2328095 550.842862,43.4071855 549.654965,33.7537766 C560.346033,33.7926755 565.701304,33.8704733 576.392372,34.0822561 C574.191843,52.0729948 573.101315,67.7103503 573.159736,80.9532627 C573.237631,100.759283 575.516055,113.617529 580.05343,119.562576 C571.796576,119.458846 566.292007,119.415625 559.863518,119.415625 C556.650356,119.415625 553.205672,119.42643 549.070754,119.44588 C551.466021,101.223909 552.653917,86.9955576 552.634443,76.7651484 C552.634443,74.4290537 552.576022,72.4214386 552.478654,70.7617524 C548.802449,70.003224 543.393085,69.5796582 536.213776,69.5796582 C535.900033,69.5796582 535.584126,69.5818193 535.263892,69.5839803 C528.272829,69.6034298 520.736503,69.9686472 512.654912,70.7034041 C513.375439,89.8719148 513.725966,99.4669754 514.446494,118.635486 C509.071749,119.406981 499.782788,120.643101 486.579611,122.536181 C490.006985,104.003019 491.759619,86.7448759 491.856987,70.7617524 C491.954356,56.2243712 490.82488,44.4682609 488.488035,35.4718111 C499.00384,34.1406045 504.242268,33.5225443 514.758073,32.3447722 L514.758073,32.3447722 Z M658.388672,22.6630811 C658.388672,22.6630811 663.673767,42.1513996 663.32324,53.1165656 C653.021647,41.0903242 639.234258,34.5250552 621.863707,33.6952121 C620.701775,33.643347 619.529025,33.6174144 618.349784,33.6174144 C615.556388,33.6174144 612.711062,33.7643657 609.809479,34.0625906 C607.881581,38.3674016 606.946843,42.6138642 606.985791,46.823589 C607.044212,54.8151507 611.114218,60.4144304 619.059492,63.4053232 C625.953187,66.0115491 641.882683,67.4789018 666.477982,68.6955728 C671.34641,73.2510655 673.839045,78.5975025 673.936414,84.7564941 C674.033782,91.1856169 671.093252,97.670927 665.075875,104.253484 C661.960081,107.747902 657.266916,111.994364 650.976907,117.053382 C648.386903,119.119345 645.563215,121.241496 642.505842,123.404707 C641.919467,123.413351 641.330928,123.417673 640.740225,123.417673 C638.896714,123.417673 637.024963,123.26856 635.105831,123.26856 C606.985791,123.26856 584.766285,107.670104 584.766285,107.670104 L593.455078,90.083003 C593.455078,90.083003 598.709463,97.5369419 609.653689,101.822303 C620.578442,106.107665 629.847929,108.499947 637.403729,108.925674 C638.085309,108.962412 638.73876,108.9797 639.364083,108.9797 C643.667773,108.9797 646.629941,108.108797 648.21164,106.338897 C650.47059,103.79102 651.561118,100.026471 651.502697,95.1424988 C651.444276,91.146718 650.529011,87.6328512 648.73743,84.7370446 C646.673216,81.3982229 643.732686,79.4273455 640.149523,78.9648809 C632.691091,77.9794423 618.728439,79.0815776 605.25263,77.0156141 C597.443672,75.8183926 589.595766,71.051117 584.552074,66.7268566 C584.084705,60.7796478 583.851021,56.5720841 583.831547,54.1387421 C583.792599,44.1784642 585.876287,37.4597607 590.082608,33.9653434 C600.559466,28.4071236 605.778421,25.684201 616.196857,20.2794157 C635.397937,22.1703342 658.388672,22.6630811 658.388672,22.6630811 Z M677.071681,38.6766478 C705.366985,41.6113532 733.603868,44.7189427 761.840751,48.038315 C759.834959,52.3258376 758.822326,54.4868873 756.816533,58.7722488 C752.240211,57.7111734 743.63283,56.3799668 730.955443,54.9493519 C729.300178,66.5325782 728.599124,78.3470368 728.871756,90.3538288 C729.241757,106.453649 731.520181,119.852157 735.707029,130.547192 C723.59438,130.045828 717.518582,129.851334 705.366985,129.561753 C709.748571,119.080662 711.695942,102.922494 711.228573,81.05051 C711.053309,72.3630902 710.410677,63.0576103 709.339623,53.0973323 C706.944356,52.4792721 704.549089,52.0557064 702.173296,51.822313 C700.786335,51.69265 699.436158,51.6278185 698.124928,51.6278185 C690.696789,51.6278185 684.447891,53.7110704 679.350106,57.8451585 C678.434841,50.1820763 677.986946,46.3397299 677.071681,38.6766478 L677.071681,38.6766478 Z M862.6752,102.092219 C863.162043,114.330243 859.89046,125.913469 852.782555,136.936984 C848.400969,137.786276 838.897798,140.526487 824.136724,145.449358 C820.787245,145.179227 817.515662,144.792399 814.36092,144.291036 C795.52984,141.241795 781.158241,133.982829 771.557701,122.16837 C763.787689,112.612208 759.737157,101.242926 759.38663,88.1534481 C759.191893,81.2229617 760.107158,75.0077828 762.11295,69.5446492 C764.021374,64.3321974 766.416641,61.3024057 769.29875,60.4142143 C777.419288,57.922524 789.278779,51.5906485 798.178265,50.7219065 C799.768618,50.5663109 801.376282,50.4928352 802.986109,50.4928352 C821.721983,50.4928352 841.048561,60.4250196 846.35623,65.9529847 C856.696771,76.5896712 862.129936,88.674261 862.6752,102.092219 L862.6752,102.092219 Z M859.91015,64.8342092 C869.004373,65.7612996 873.561222,66.2626631 882.635972,67.3237385 C892.002828,77.8653388 900.629682,87.4020511 908.555483,95.9338752 C927.600774,116.20236 941.27132,129.389085 949.489226,135.083451 C949.956595,131.705731 950.073438,127.727238 949.839753,123.113397 C949.236068,111.532332 946.801854,97.9414904 942.556585,82.3819327 C952.312915,84.525694 957.181343,85.6256682 966.898725,87.9228641 C966.002934,90.5874383 965.204512,93.2887504 964.503458,96.011673 C962.867667,102.555331 961.893981,108.636525 961.67977,114.177457 C960.842401,136.589703 962.692403,159.29153 964.113984,181.762124 C944.289745,151.24162 915.176545,125.52729 889.471245,100.180338 C891.184932,122.149569 892.061249,133.134184 893.794409,155.101255 C886.160714,153.962381 882.343866,153.402669 874.690697,152.361044 C876.151226,133.26817 876.599121,117.014915 876.034383,103.635856 C875.898067,100.297035 875.625435,97.2650818 875.33333,94.619957 C874.262276,84.6791285 869.238058,74.5827044 859.91015,64.8342092 L859.91015,64.8342092 Z M975.720533,91.5514826 C997.84267,97.4208935 1008.86479,100.528483 1030.83114,107.169389 C1031.12324,112.941552 1031.25956,115.817909 1031.55167,121.590073 C1026.29376,115.1804 1016.20638,109.851251 1001.21162,105.913819 C1001.50373,117.360899 1001.64004,123.094164 1001.93215,134.543405 C1014.23954,137.998923 1024.30745,140.641887 1032.1943,142.342633 C1032.29167,146.839778 1032.33061,149.078625 1032.40851,153.57577 C1024.36587,150.952255 1014.39533,148.01755 1002.51636,144.871061 C1002.84741,154.001496 1003.02268,158.576438 1003.35373,167.726323 C1003.4511,169.290923 1004.1911,170.836073 1005.57373,172.340164 C1006.95637,173.846416 1008.51426,174.792955 1010.189,175.177622 C1019.77007,177.43808 1024.54113,178.613691 1034.08325,181.027584 C1034.35588,185.332395 1034.4922,187.476156 1034.74536,191.800416 C1030.75324,190.101831 1024.85271,188.111505 1017.02428,185.833758 C1006.62531,182.823416 994.629508,179.849812 980.997909,176.992904 C982.536332,164.638183 982.886859,150.932806 982.068963,135.91351 C981.21212,120.392852 979.089485,105.604789 975.720533,91.5514826 L975.720533,91.5514826 Z M831.945682,137.148766 C839.774115,133.055738 843.415699,124.117637 842.909382,110.219926 C842.597803,101.994971 840.689379,92.4388096 837.164637,81.6486885 C833.951475,71.7640473 822.831985,65.0669543 803.864589,62.0933499 C798.593705,61.2807952 793.433171,60.876679 788.385152,60.876679 L788.032461,60.876679 C782.891401,68.2890794 780.437713,76.842514 780.729819,86.5326608 C780.982977,95.1228333 783.67035,103.713006 788.81141,112.342077 C797.126685,126.010716 808.771965,133.982829 823.669355,136.472358 C826.389183,136.941306 828.832052,137.163894 830.982816,137.163894 C831.311705,137.163894 831.631939,137.159572 831.945682,137.148766 L831.945682,137.148766 Z M248.065583,104.022036 C254.959277,91.8207494 259.477178,84.06042 261.63876,80.7021487 C264.851923,86.3770652 268.181928,92.8256375 271.589827,100.045704 C262.184024,101.571406 257.471386,102.36235 248.065583,104.022036 Z M124.94567,82.295001 C117.676014,75.283687 108.44678,71.7224257 97.2630893,71.7198394 C91.4944975,71.7198394 85.2084744,72.6689919 78.3998967,74.5776417 C73.8813373,75.8267987 69.2475085,77.5130314 64.4523025,79.5690973 C61.8933225,85.527809 60.4870361,91.0261688 60.1873357,96.087453 C59.6340427,105.721221 63.9220634,110.966129 72.7978052,111.566138 C73.2307057,111.594586 73.6969063,111.610104 74.1964069,111.610104 C82.6520558,111.610104 100.416347,107.384177 127.38938,99.9461326 C132.691772,103.595326 135.18159,109.140239 134.812728,116.531731 C134.420812,124.272366 130.4786,133.236296 122.939983,143.493349 C119.043878,148.875328 113.234301,155.806469 105.534307,164.310047 C102.352872,167.819583 98.8947913,171.448087 95.2061713,175.213662 C92.3935986,176.20678 89.5349182,177.086104 86.63013,177.893013 C74.8342308,181.102545 64.1372329,182.73188 54.5468211,182.73188 C45.2842865,182.73188 37.0514917,181.211167 29.8484367,178.125775 C30.2634064,168.905807 30.4708913,164.310047 30.8628072,155.113355 C37.3178921,158.46513 46.6547113,160.588438 58.9193726,161.604833 C62.728385,161.928114 66.3657741,162.091047 69.836663,162.091047 C77.5417803,162.091047 84.4092734,161.289311 90.4340193,159.665148 C96.6124577,157.978916 100.900478,155.576293 103.159758,152.434003 C105.995385,148.484805 107.563048,143.516626 107.862749,137.625156 C108.116341,132.819911 107.332509,128.914679 105.488199,126.098256 C103.77709,123.488734 101.31801,122.143885 98.2800213,122.143885 C97.5499819,122.143885 96.784081,122.221473 95.9900031,122.376648 C87.3678539,124.04219 71.9217579,130.647464 55.8070995,133.259572 C54.2471207,133.515611 52.6615264,133.634578 51.0810552,133.634578 C44.1495236,133.634578 37.2743459,131.371613 32.8454404,128.661226 C32.7762788,121.639567 32.8223865,116.648112 33.0068175,113.715308 C33.7214876,101.699608 36.6493297,92.7822301 41.7672899,86.9605895 C54.2394361,76.2638744 60.4639822,70.9750005 72.9130745,60.4851851 C94.9295248,55.4963158 105.972331,53.1609353 128.127104,48.8186276 C126.859141,62.1946939 126.213633,68.8956584 124.94567,82.295001 Z" id="Combined-Shape" fill="url(#radialGradient-5)"></path>
                <polygon id="Path-189-Copy-8" fill="#FFFFFF" opacity="0.0707206157" points="371.307663 170.28764 371.307663 183.53945 438.483398 199.868159 432.325598 183.53945"></polygon>
                <path d="M433.572407,184.298023 L454.285368,169.198593 C454.285368,169.198593 453.818379,165.917024 454.285368,165.576596 C454.752357,165.236168 459.253919,165.576596 459.253919,165.576596 L467.533117,159.541187 L472.34082,173.743159 L439.28418,199.251948 L433.572407,184.298023 Z M95.125,216.933111 L124.714771,202.430674 L127.475133,220.712116 L108.666016,231.435547 L95.125,216.933111 Z M146.88027,206.702234 L180.174544,196.486249 L185.113281,191.028315 L189.291992,206.702234 L193.537492,192.385973 L268.831814,169.28273 L268.831814,183.666987 L155.972656,225.98144 L146.88027,206.702234 Z M647.822266,160.342769 L675.778664,146.196491 L674.206055,165.489253 L647.822266,179.254878 L647.822266,160.342769 Z M530.146484,155.626953 L533.914062,150.486328 L536.027344,168.349609 L530.146484,174.513672 L530.146484,155.626953 Z M541.685547,154.814453 L551.427734,150.083984 L546.556641,165.460938 L541.685547,154.814453 Z M692.09375,164.952144 L757.59668,159.881831 L752.727539,178.826167 L684.519531,180.107417 L692.09375,164.952144 Z M805.952782,184.940488 L850.373268,184.947368 L840.919922,202.881346 L799.699219,202.881346 L805.952782,184.940488 Z M871.155143,195.515789 L921.034399,180.567941 L913.261719,195.515789 L861.240234,212.620112 L871.155143,195.515789 Z M953.095209,214.784581 L1045.14062,233.278817 L1030.0918,249.335938 L948.29039,225.769271 L953.095209,214.784581 Z" id="Combined-Shape" fill="#000000" opacity="0.300664646"></path>
            </g>
        </g>
    </g>
</svg>