<?xml version="1.0" encoding="UTF-8" standalone="no"?>
<svg width="1186px" height="285px" viewBox="0 0 1186 285" version="1.1" xmlns="http://www.w3.org/2000/svg" xmlns:xlink="http://www.w3.org/1999/xlink">
    <!-- Generator: Sketch 3.8.2 (29753) - http://www.bohemiancoding.com/sketch -->
    <title>searchstone</title>
    <desc>Created with Sketch.</desc>
    <defs>
        <linearGradient x1="48.0594244%" y1="10.6558582%" x2="48.0594248%" y2="87.1849289%" id="linearGradient-1">
            <stop stop-color="#3A0EC3" offset="0%"></stop>
            <stop stop-color="#1B0558" offset="100%"></stop>
        </linearGradient>
        <polygon id="path-2" points="136.281202 62.4132723 72.1549164 67.6649858 0.671875 121.289928 25.4375 239.703776 80.8505717 246.092234 118.880292 226.917872 143.370106 233.51181 281.315952 191.166257 398.118527 191.166266 469.363786 207.417661 508.103354 179.790529 639.862005 172.181657 712.717487 179.790529 745.816628 163.698858 762.224706 185.730173 837.531125 179.790529 890.160722 207.417661 945.265223 207.41766 964.82446 220.926601 1024.67726 200.917588 1056.46701 239.70378 1165.14062 262.374995 1185.48436 121.289928 1045.20534 67.6649868 1017.73239 82.4221456 945.265223 49.2817081 855.013592 37.2811829 762.224725 26.1864496 679.397739 0.781184332 620.221217 18.9132569 499.287771 18.9132565 439.056065 37.2811839 390.709546 26.1864491 320.175429 37.2811839 306.789007 56.6047133 295.378653 43.2891222 237.583459 56.6047133 223.923649 82.4221419 215.549341 62.4132743 164.24832 74.8690937"></polygon>
        <linearGradient x1="50.5830646%" y1="0%" x2="50.5830646%" y2="59.5517919%" id="linearGradient-3">
            <stop stop-color="#B56500" offset="0%"></stop>
            <stop stop-color="#EA9321" offset="100%"></stop>
        </linearGradient>
    </defs>
    <g id="Page-1" stroke="none" stroke-width="1" fill="none" fill-rule="evenodd">
        <g id="Desktop-HD" transform="translate(-55.000000, -49.000000)">
            <g id="searchstone" transform="translate(55.000000, 49.000000)">
                <polygon id="Stroke-1" fill="#3A0EC3" points="136.281202 86.9510874 72.1549164 92.2028009 0.390625 124.351562 21.9453125 243.101562 51.0039062 268.972656 101.976562 264.241592 123.791684 251.455687 145.825802 258.049626 281.315952 215.704072 398.118527 215.704081 469.363786 231.955477 508.103354 204.328344 612.292242 198.311586 639.862005 196.719472 712.717487 204.328344 745.816628 188.236673 762.224706 210.267988 837.531125 204.328344 890.160722 231.955477 945.265223 231.955475 965.371094 243.101562 1024.67726 225.455403 1050.05078 258.049621 1147.35547 284.511718 1170.76562 264.241592 1184.54688 146.042968 1184.54686 124.351562 1045.20534 92.2028019 1017.73239 106.959961 945.265223 73.8195233 855.013592 61.8189981 762.224725 50.7242647 679.397739 25.3189995 620.221217 43.451072 499.287771 43.4510715 439.056065 61.818999 390.709546 50.7242642 320.175429 61.818999 306.789007 81.1425285 295.378653 67.8269373 237.583459 81.1425285 223.923649 106.959957 215.549341 86.9510894 164.24832 99.4069088"></polygon>
                <g id="Stroke-1">
                    <use fill="url(#linearGradient-1)" xlink:href="#path-2"></use>
                    <use fill-opacity="0.164317255" fill="#F8DA1C" xlink:href="#path-2"></use>
                </g>
                <path d="M1083.89191,97.3215524 C1082.22706,95.4303875 1080.00407,94.0793639 1077.50996,93.4868605 C1066.35374,90.8367765 1060.89718,89.5853479 1049.70166,87.102121 C1048.81761,86.9058185 1047.92619,86.810121 1047.04214,86.810121 C1043.72695,86.810121 1040.50508,88.1547933 1038.16234,90.606121 C1035.19586,93.7101546 1034.0687,98.1392303 1035.19095,102.283667 C1038.01746,112.729415 1040.1048,122.367869 1041.43333,131.103331 C1034.63105,124.382424 1026.61812,116.078827 1017.43136,106.221987 C1008.70381,96.7528437 999.143787,86.1132471 988.247863,73.7461882 C986.244015,71.4715328 983.469078,70.0188941 980.458395,69.6655496 C970.03642,68.4484739 964.938395,67.8890118 954.486952,66.8142555 C954.064572,66.7725412 953.644648,66.7504571 953.22718,66.7504571 C949.946323,66.7504571 946.838485,68.064872 944.563771,70.3288043 C934.493929,61.6941142 911.380073,51.4535832 888.635248,51.4535832 L888.632792,51.4535832 C886.373552,51.4535832 884.131501,51.0020874 881.970489,51.2155664 C873.623577,52.0375832 864.616084,55.4581546 856.666995,58.7241378 C855.839553,59.0640674 855.022165,59.3927265 854.221405,59.7075966 C854.20657,57.6735683 853.685988,55.6467777 852.666666,53.8209916 C850.746311,50.3856975 847.296058,48.0791429 843.38659,47.6153782 C811.32502,43.8267395 778.897552,40.2123193 747.007881,36.8776303 C746.58059,36.8334622 746.153299,36.8113782 745.728463,36.8113782 C744.911874,36.8113782 744.102499,36.8928271 743.311508,37.0516599 L743.38843,34.6375731 C743.589797,28.3190857 738.953443,22.8839597 732.679139,22.0791193 C710.666278,19.2572706 699.905418,18.0328336 677.855722,15.8416067 C677.450532,15.7998924 677.045342,15.7802622 676.640152,15.7802622 C674.668228,15.7802622 672.718405,16.2562958 670.957671,17.1740101 C659.003342,23.4090689 653.166152,26.4934723 641.214278,32.8880269 C640.480025,33.2806319 639.785063,33.7493042 639.144127,34.2842286 C639.139656,34.2879567 639.135187,34.2916861 639.130719,34.295417 C637.038325,32.7073623 634.437602,31.9438565 631.719329,31.8881109 C619.438392,31.640279 613.444038,31.8243126 601.168013,31.8243126 L601.116443,31.8243126 C597.612165,31.8243126 594.272418,32.9996739 591.941962,35.6178588 C589.599228,38.2483126 588.501532,41.5952706 588.926367,45.0919092 C589.697456,51.4349345 590.247532,55.8787328 590.831987,60.6709681 C585.274747,61.2476067 579.592266,61.5273378 573.83857,61.5837748 C573.455481,61.5886824 573.074848,61.5690521 572.694215,61.5715059 L573.76981,42.5522454 C573.973633,38.9451866 572.573886,35.4289176 569.948747,32.9456908 C567.657582,30.7790017 564.632165,29.5840101 561.510975,29.5840101 C561.056671,29.5840101 560.599911,29.6085479 560.143152,29.6600773 C548.085684,31.0096571 542.196924,31.7138924 530.149278,33.2524134 C528.889265,33.4125573 527.676185,33.7650744 526.547338,34.2869581 C524.825063,33.1861958 522.82823,32.5126644 520.691656,32.4345681 C518.005124,32.333963 515.264567,31.8235765 512.548567,31.8235765 L512.546111,31.8235765 C508.919048,31.8235765 505.213403,32.3732235 501.532314,32.5498958 C491.888795,33.0112067 483.109681,34.3607866 476.142871,36.0170891 C473.456339,36.6550723 467.172213,38.2672067 437.910137,59.1513412 C437.865934,59.1807866 437.824187,59.2691227 437.782441,59.3010218 C435.926272,60.6620326 434.299439,62.402168 432.862123,64.581223 C432.343074,60.3796376 431.446649,57.3511611 430.069344,54.9266655 C426.719775,48.8020269 419.15623,41.6394387 402.113699,41.6394387 L401.963901,41.6394387 C401.865673,41.6394387 401.767446,41.6198084 401.669218,41.6222622 C399.864281,41.668884 397.997952,41.781758 396.1218,41.9756067 C390.692256,42.5350689 385.30937,43.9484471 380.00261,46.2083798 C379.393597,45.3593714 378.674078,44.5815227 377.85142,43.904279 C375.629015,42.0663966 372.854078,41.0824303 370.022661,41.0824303 C369.160711,41.0824303 368.291395,41.1732202 367.431901,41.3597076 C354.293927,44.1938252 347.884559,45.6317412 334.773597,48.6866992 C331.023749,49.5626992 327.902559,52.1416235 326.340737,55.6578924 C324.778914,59.1717076 324.95818,63.2155395 326.822053,66.5796739 C329.019901,70.5449849 332.588028,81.5281109 331.797294,110.536716 C331.625923,116.842466 331.23066,123.568947 330.615617,130.675288 C326.771802,123.186383 321.889847,113.108188 315.722306,99.5479462 C310.39099,87.8900303 304.627471,74.4825681 298.586458,59.6715429 C296.671015,54.975005 292.12061,52.0304672 287.221496,52.0304672 C286.330078,52.0304672 285.428838,52.1286185 284.530053,52.3298286 C271.301218,55.2939966 264.855015,56.7981647 251.675294,59.9880807 C246.854762,61.1560807 243.208053,65.1066689 242.436965,70.0044168 C241.665876,74.9021647 243.920205,79.7827361 248.15137,82.3714756 C249.062433,82.9309378 249.757395,83.4167866 250.282914,83.8192067 C240.312787,106.946097 229.853977,130.671711 215.760737,152.4024 C213.440836,156.025042 211.140409,159.415172 208.868688,162.560643 C208.263638,161.748834 207.554083,161.00668 206.749561,160.355597 C204.539434,158.56679 201.803789,157.622084 199.021485,157.622084 C197.999915,157.622084 196.970978,157.749681 195.959232,158.009782 C188.201687,160.004706 183.199434,161.312571 177.146143,162.941882 L177.612725,155.990319 C186.797029,153.848168 195.170953,152.074084 202.599434,150.697513 C208.036346,149.689008 212.129991,145.17405 212.594118,139.667765 L213.699181,126.611193 C214.040523,122.577176 212.368194,118.63395 209.229814,116.074655 C207.908649,114.997445 206.400852,114.224504 204.809561,113.773008 C205.983384,113.620874 207.144928,113.296975 208.264725,112.798857 C212.471333,110.924168 215.22908,106.816538 215.474649,102.218151 L216.361156,85.711563 C216.564978,81.9106555 214.990877,78.2275294 212.098067,75.7467563 C209.851105,73.818084 207.007409,72.7874958 204.099865,72.7874958 C203.264928,72.7874958 202.42508,72.8709244 201.592599,73.0451429 C177.218625,78.1225902 164.72997,80.9275006 141.719567,86.5219611 C141.633022,83.1929654 140.192388,80.0170527 137.689775,77.7514958 C135.410889,75.6878655 132.466509,74.5738487 129.446003,74.5738487 C128.66018,74.5738487 127.869446,74.6474622 127.086078,74.8020504 C105.586458,79.0102857 95.1276481,81.2162353 73.7925595,86.0477311 C71.8844835,86.4795966 70.1090152,87.3605042 68.6110405,88.6168403 C56.5462051,98.7386891 50.6697241,103.717412 38.6687367,113.984034 C38.2316228,114.357008 37.8215215,114.761882 37.4433443,115.191294 C30.7073696,122.827462 26.8519266,133.913647 25.9899772,148.140672 C25.7984329,151.293782 25.7394962,156.252874 25.8082557,163.302588 C25.8475468,167.54763 28.0822304,171.468773 31.7142051,173.672269 C33.2416481,174.599798 34.8820532,175.441445 36.6010405,176.189849 C36.4684329,176.184941 36.3333696,176.182487 36.200762,176.182487 C34.0765848,176.182487 31.957319,176.732134 30.0590658,177.826521 C26.4295468,179.92205 24.1211924,183.722958 23.9345595,187.906655 L22.9571924,209.912168 C22.7288127,215.020941 25.6952937,219.732202 30.4004076,221.741849 C38.7743316,225.312101 48.3589139,227.125445 58.8938506,227.125445 C69.0776228,227.125445 80.5113443,225.422521 92.8782304,222.063294 C95.9183823,221.238824 98.9609899,220.296571 101.925015,219.261076 C103.700484,218.642723 105.31142,217.62195 106.630129,216.282185 C110.298939,212.557345 113.736914,208.938017 116.853192,205.524807 C119.670892,202.420422 122.21739,199.545996 124.508962,196.881947 C124.577411,200.182743 125.978157,203.363194 128.466877,205.654857 C130.765409,207.770017 133.746624,208.898756 136.786776,208.898756 C137.967966,208.898756 139.158978,208.729445 140.320523,208.381008 C155.066978,203.949479 168.693637,200.347328 180.827232,197.672706 C191.096953,195.407866 196.686118,194.632471 199.566649,194.379731 C201.713451,194.192751 203.69523,193.45952 205.376378,192.321829 C206.834876,192.915067 208.406803,193.228417 210.007041,193.228417 C211.048256,193.228417 212.099294,193.095913 213.140509,192.821089 C225.237268,189.631173 231.153041,188.119644 243.28418,185.123576 C248.2938,183.884417 251.99699,179.646736 252.54461,174.518333 C253.033294,169.951845 254.983116,161.65561 261.237775,147.374602 C269.275268,145.941593 275.291724,144.911005 282.855268,143.674299 C285.959268,151.577929 288.525471,159.120854 290.512129,166.190198 C292.019927,171.554165 296.906762,175.146501 302.324028,175.146501 C302.982154,175.146501 303.650104,175.092518 304.320509,174.982097 C316.111523,173.052027 322.017745,172.129322 333.57137,170.421637 C335.407398,171.452582 337.481548,171.996582 339.589218,171.996582 C340.453623,171.996582 341.322939,171.905792 342.184889,171.719304 C354.237446,169.115842 360.128661,167.891405 372.198408,165.476884 C378.580762,164.200918 382.858585,158.171976 381.947522,151.7308 C381.269749,146.931203 380.690205,142.246934 380.208889,137.687808 C390.761015,150.005792 402.467319,161.779035 415.94418,170.261758 C431.478914,180.040077 445.847192,185.210195 457.492104,185.210195 C458.376154,185.210195 459.257749,185.178296 460.112332,185.119405 C461.843597,184.99917 463.341572,184.753792 464.694661,184.368548 C469.097724,183.112212 472.437471,179.510061 473.353446,175.027002 C474.271876,170.541489 472.614281,165.921018 469.053522,163.037825 C464.812534,159.604985 460.598559,156.147607 456.529471,152.761388 C453.867168,150.454478 451.291682,148.141552 448.808254,145.827631 C460.949194,154.678931 477.265164,159.157661 497.455858,159.157661 C500.554947,159.157661 503.801377,159.054602 507.104289,158.848484 C509.943073,158.669358 512.632061,157.513627 514.712035,155.575139 C516.387447,154.013444 517.788613,152.708178 519.094666,151.492726 C519.547777,152.223806 520.080905,152.91216 520.689937,153.544145 C523.022848,155.961119 526.22262,157.300884 529.532899,157.300884 C530.117354,157.300884 530.704266,157.25917 531.291177,157.173287 C540.541785,155.835976 548.095506,154.785758 553.952342,153.971103 C557.589228,153.465624 560.57781,153.050934 562.920544,152.712313 C569.135911,151.816682 573.674038,146.379103 573.438291,140.109691 C572.777709,122.486632 572.384797,111.397993 571.834722,96.5575227 C576.331101,96.3170521 580.680139,95.6226319 584.842544,95.6226319 L585.716772,95.6226319 C588.179835,95.6226319 590.321203,96.2115395 592.180165,96.2851529 C591.912494,107.118598 590.606063,121.851103 588.280519,139.633657 C587.821304,143.145018 588.904266,147.196212 591.251911,149.851203 C593.582367,152.491472 596.934392,154.513388 600.455861,154.513388 L600.52462,154.513388 C605.394266,154.513388 609.416696,154.407876 613.181278,154.407876 C619.858316,154.407876 625.899329,154.513388 635.471633,154.513388 L635.628797,154.513388 C640.255329,154.513388 644.493861,151.603203 646.583658,147.471035 C646.836183,146.972526 647.052188,146.459875 647.231997,145.937204 C661.602996,152.988304 678.419139,157.073893 697.42762,158.114313 C699.694228,158.239455 701.965747,158.3008 704.185696,158.3008 C705.055013,158.3008 705.919418,158.293439 706.778911,158.273808 C709.246886,158.219825 711.643646,157.422346 713.652405,155.98443 C717.291747,153.383422 720.712532,150.797136 723.818987,148.296733 C731.606,141.983153 737.310582,136.749237 741.293722,132.266178 C750.163696,122.490313 754.615873,112.142716 754.441519,101.598817 C754.334785,95.0194046 752.558628,88.8189287 749.233604,83.261381 C751.707563,83.0758248 754.114541,82.1424724 756.101324,80.5132269 C759.666995,77.5907731 764.087248,76.1700336 769.610109,76.1700336 C770.076691,76.1700336 770.555552,76.1823025 771.04178,76.2019328 C771.687628,83.7939328 772.082995,91.035042 772.225425,97.8197479 C772.714109,121.027613 770.791299,138.034773 766.508565,148.372555 C764.95902,152.112118 765.354387,156.371882 767.564514,159.760555 C769.772185,163.151681 773.51221,165.234941 777.561653,165.330639 C791.316008,165.659445 798.027425,165.877832 811.757223,166.454471 C811.929122,166.461832 812.103476,166.464286 812.272919,166.464286 C816.221678,166.464286 819.944514,164.562605 822.255324,161.338336 C824.666818,157.971748 825.216894,153.618739 823.721375,149.758941 C819.517223,138.930403 817.186767,124.855513 816.793856,107.921966 C816.587577,99.0245546 816.879805,90.1443193 817.660716,81.3892269 C823.249141,82.144889 827.116436,82.7822406 829.707879,83.2627685 C827.60211,90.1889662 826.649218,97.8268946 826.872033,106.062491 C827.350894,123.768978 832.91059,139.323499 843.396413,152.326087 C856.067805,168.03765 874.966843,178.022087 899.572919,182.021751 C903.472565,182.654827 907.536742,183.140676 911.652489,183.471936 C911.984008,183.498928 912.313071,183.511197 912.642134,183.511197 C913.970666,183.511197 915.294286,183.29281 916.55897,182.868306 C937.61902,175.786692 945.209577,173.988071 947.49583,173.543936 C950.796286,172.903499 953.691552,170.93802 955.5014,168.106356 C956.673666,166.272322 957.768502,164.420604 958.785657,162.552057 C958.518621,167.574431 958.179241,172.795261 957.767762,178.206121 C957.274167,184.669382 961.898243,190.401415 968.3248,191.289684 C976.988496,192.489583 981.217205,193.100575 989.8588,194.401079 C990.467813,194.491869 991.079281,194.536037 991.688294,194.536037 C994.770192,194.536037 997.766142,193.377852 1000.05485,191.24797 C1002.79295,188.698491 1004.21971,185.042356 1003.92748,181.312608 C1002.98695,169.269449 1002.26989,160.111936 1001.56756,151.077113 C1023.43062,172.464272 1045.26422,194.695533 1061.18204,219.407566 C1063.48794,222.987634 1067.41705,225.036541 1071.50824,225.036541 C1072.78275,225.036541 1074.07445,224.837785 1075.33667,224.423096 C1079.00471,223.220008 1081.79094,220.412643 1083.04922,216.954515 C1084.49336,218.095896 1086.21424,218.927266 1088.12741,219.330518 C1102.70443,222.400198 1116.15918,225.727526 1128.12088,229.216803 C1138.29974,232.185879 1143.9282,234.293677 1146.85539,235.540198 C1148.40002,236.195358 1150.03551,236.519257 1151.66118,236.519257 C1154.15863,236.519257 1156.63643,235.758585 1158.74096,234.276501 C1162.21577,231.825173 1164.17541,227.751896 1163.92002,223.509308 L1163.55167,217.438652 L1163.17349,211.186417 C1162.85179,205.861711 1159.12159,201.354114 1153.94989,200.036434 C1143.53283,197.38635 1138.17696,196.061308 1128.2142,193.678686 L1127.96617,186.886618 C1134.15944,188.68524 1139.91805,190.456871 1145.19288,192.184333 C1146.44283,192.594114 1147.73453,192.795324 1149.01886,192.795324 C1151.61207,192.795324 1154.17827,191.973308 1156.31718,190.390618 C1159.51696,188.030081 1161.37101,184.263526 1161.29488,180.290854 L1161.24577,177.670215 L1161.04686,167.452669 C1160.93881,161.796703 1156.97286,156.952938 1151.45491,155.718686 C1151.78397,155.622988 1152.11058,155.512568 1152.43227,155.389879 C1157.39278,153.490652 1160.56554,148.619896 1160.30032,143.319728 L1160.15544,140.424266 L1159.47521,126.830316 C1159.21736,121.662652 1155.74255,117.213946 1150.79187,115.707324 C1125.61607,108.041711 1113.26392,104.510719 1087.84746,97.7137445 C1086.79888,97.4340134 1085.73311,97.2966017 1084.6747,97.2966017 C1084.41312,97.2966017 1084.15206,97.304952 1083.89191,97.3215524 Z M520.634964,122.514951 C520.146706,122.455393 519.651629,122.424801 519.151934,122.424551 C518.948111,122.424551 518.744289,122.429459 518.540466,122.441728 C516.787099,122.52761 515.065656,122.571778 513.420339,122.571778 C506.762947,122.571778 500.940491,121.855274 496.117504,120.441896 C482.773251,116.66798 476.597175,109.527476 475.359504,96.5322487 C474.971504,92.5595765 474.799605,88.981963 474.843808,85.8705681 C474.954314,78.043005 476.385985,73.9672739 477.532795,72.3281479 C478.677149,72.0901311 481.012516,71.7220639 485.278061,71.4791395 C487.149301,71.3736269 488.998441,71.3196437 490.773909,71.3196437 C500.650719,71.3196437 509.086035,72.9759462 515.846567,76.2394756 C517.540997,77.0590387 519.368035,77.4639126 521.187706,77.4639126 C521.849176,77.4639126 522.50988,77.4105723 523.163142,77.3043186 C523.233248,80.0015157 523.259406,82.8047781 523.241405,85.7118084 C523.16842,97.309 522.294182,109.627613 520.634964,122.514951 Z M425.30577,94.9928279 C422.52417,98.875477 419.230862,102.415156 415.450585,105.589892 C419.431268,112.730397 424.855901,120.28559 431.65818,128.14996 C433.264982,130.006569 434.941336,131.870986 436.684431,133.740521 C428.947049,123.214315 425.125997,110.216712 425.30577,94.9928279 Z M883.092742,127.084037 C878.316413,118.976743 875.882818,111.247331 875.651982,103.461482 C875.470261,97.3613815 876.459906,91.9164403 878.66021,86.9769782 C881.641425,87.1830958 884.666843,87.5266252 887.706995,88.0051126 C903.681299,90.5226924 913.639147,95.5014151 915.751046,102.023566 C919.363375,113.188272 921.354944,123.067197 921.664362,131.38797 C921.900109,137.706457 921.34021,145.509482 917.759805,149.359466 C916.652286,149.256407 915.444084,149.094457 914.140109,148.873617 C900.756565,146.621045 890.602261,139.49281 883.092742,127.084037 Z M678.634177,56.3609008 L678.970608,56.3609008 C680.146886,56.3609008 681.328076,55.9928336 682.482253,56.0492706 C697.015063,56.7387832 708.586304,61.3224471 717.709215,70.4382454 C704.831544,69.5818756 689.787949,68.1096067 684.238076,66.0042622 C679.417544,64.1737412 678.486835,62.2646992 678.459823,58.7410689 C678.452456,57.8503462 678.511392,56.3609008 678.634177,56.3609008 Z M379.135749,90.7445143 C379.310104,88.8771866 379.516382,87.1595395 379.757041,85.5940269 C380.673015,79.5994387 383.010838,78.1369849 387.254281,77.6143294 C387.553876,78.4535227 387.693851,79.5037412 387.666838,80.7478084 C387.62018,82.9586655 387.011167,85.0738252 385.807876,87.1988 C385.191496,87.6699261 383.391471,88.8796403 379.135749,90.7445143 Z M76.9819772,125.612504 C79.3983823,124.707059 81.7681291,123.92921 84.0642051,123.286319 C89.4716481,121.77479 94.4444329,121.00921 98.8425848,121.00921 C105.52699,121.011664 110.956534,122.768571 115.371876,126.373176 C102.418078,129.850185 83.6393696,134.60316 76.7216734,134.60316 C76.5424076,134.60316 76.3754203,134.600706 76.2207114,134.590891 C75.9702304,134.573714 75.7590405,134.55163 75.5822304,134.524639 C75.5404835,134.114857 75.5183823,133.530857 75.5650405,132.738286 C75.690281,130.57405 76.1642304,128.188975 76.9819772,125.612504" id="Combined-Shape" fill="#000000" opacity="0.259853078"></path>
                <path d="M945.148676,171.705764 C947.851951,167.512742 950.066662,163.248576 951.795263,158.905909 C953.410613,154.84961 954.601299,150.728078 955.37223,146.535415 L955.37223,146.531059 C956.078813,142.690164 956.429653,138.792881 956.429653,134.831859 L956.429653,119.880968 C956.429653,123.841371 956.078489,127.742884 955.371248,131.585506 L955.371248,131.589862 C954.60013,135.779083 953.409444,139.899658 951.794281,143.954037 L951.794281,143.957485 C950.065613,148.297374 947.850902,152.563678 945.147694,156.756397 C940.174472,157.721143 929.389371,160.834949 912.637714,166.421842 L912.637714,181.375187 C929.390473,175.785472 940.175891,172.674077 945.148676,171.707287 L945.148676,171.705764 L945.148676,171.705764 Z M806.883157,78.617442 C821.271081,80.2393916 831.039841,81.750921 836.233638,82.9557277 L836.233638,68.004837 C831.039841,66.8000303 821.271081,65.2860471 806.883157,63.6640975 L806.883157,63.6663066 C805.267471,74.972779 804.452263,86.4755323 804.452263,98.1451261 L804.452263,113.096017 C804.452263,101.428954 805.267461,89.9262757 806.883125,78.6174224 L806.883157,78.617442 Z M866.69016,94.5802723 C867.925227,91.4820406 869.496546,88.5285048 871.406575,85.7172134 L871.406575,70.7663227 C869.496043,73.5783563 867.924397,76.5327092 866.689182,79.6293815 L866.689182,79.6318508 C866.689509,79.6310275 866.689838,79.6302045 866.690165,79.6293815 L866.690165,94.5802723 L866.69016,94.5802723 Z M866.689182,94.5813586 L866.689182,79.6318508 L866.689182,94.5813586 Z M604.325056,96.5675394 C600.152833,95.7087475 594.013673,95.2278252 585.865833,95.2278252 C585.509757,95.2278252 585.151225,95.230279 584.787782,95.2327328 C576.853428,95.252363 568.300238,95.6695059 559.128213,96.5037916 L559.128213,81.5504471 C559.327333,81.5323882 559.526163,81.5145249 559.724701,81.496857 L559.724701,69.253321 C560.454043,56.7611193 560.807663,50.5137916 561.514904,37.9970521 L561.514904,52.9479429 C560.860964,64.5213508 560.509353,70.734733 559.883514,81.4827602 C568.770204,80.6959706 577.071626,80.300865 584.787782,80.2793882 C585.151225,80.2769345 585.509757,80.2769345 585.865833,80.2769345 C594.013833,80.2769345 600.153073,80.7554218 604.325301,81.6166992 L604.325301,81.6211341 C604.43566,83.5048271 604.501866,85.7829772 604.501866,88.4335496 L604.501866,103.38444 C604.501866,100.734356 604.435562,98.4547933 604.325056,96.5678353 L604.325056,96.5675394 Z M367.777909,93.5911976 C368.12165,91.7185778 368.607551,89.9953494 369.23561,88.4166185 L369.23561,73.4657277 C368.606952,75.0435092 368.120724,76.7709714 367.776927,78.6456605 L367.776927,78.6502618 C367.720829,78.955262 367.669573,79.265099 367.620744,79.5773613 C366.869301,84.5094622 366.427276,90.3617311 366.272567,97.0262017 C366.220997,98.9548739 366.196441,100.915445 366.196441,102.907916 L366.196441,117.861261 C366.196441,115.866336 366.220997,113.905765 366.272567,111.977092 C366.427276,105.315076 366.869301,99.4628067 367.620744,94.5307059 C367.669858,94.2141681 367.721428,93.9049916 367.777909,93.5958151 L367.777909,93.5911976 L367.777909,93.5911976 Z M369.84008,72.0828974 C369.89826,69.7171493 369.952867,67.4961065 370.029782,64.367842 L370.029782,49.4169513 C369.897175,54.810363 369.830871,57.5046151 369.698263,62.8980269 L369.698263,72.3849489 C369.536352,72.7368484 369.382149,73.0968081 369.23561,73.4647462 L369.23561,88.4180908 C369.810243,86.9728134 370.502749,85.6551328 371.315585,84.4601412 L371.315585,69.5092504 C370.769733,70.3100867 370.278146,71.1684644 369.84008,72.0828974 L369.84008,72.0828974 Z M391.069451,61.4947092 L391.069451,76.4456 C393.743704,77.0614992 395.931729,78.7914151 397.589324,81.6844235 C399.14378,84.4130286 399.939425,87.5955832 399.939425,91.2320874 L399.939425,76.2811966 C399.939425,72.6446924 399.14378,69.4621378 397.589324,66.7335328 C395.93183,63.8407015 393.743971,62.1083666 391.069942,61.4948219 C390.419182,61.3131294 389.59898,61.2174319 388.606878,61.2174319 C387.914372,61.2174319 387.135916,61.2640538 386.273967,61.362205 C379.501157,62.0860706 374.498904,64.8269445 371.316322,69.5087597 L371.316322,84.4621042 C374.498904,79.7802891 379.501157,77.0369613 386.273967,76.3155496 C387.135916,76.2149445 387.914372,76.1683227 388.606878,76.1683227 C389.59898,76.1683227 390.419182,76.2664739 391.069942,76.4456 L391.069942,61.4948219 L391.069451,61.4947092 Z M420.916965,87.0655041 C421.058904,86.2964561 421.129873,85.5591931 421.129873,84.8512739 L421.129873,69.9003832 C421.129873,70.6070723 421.058658,71.3481143 420.916228,72.1186017 L420.916228,72.121398 C420.71229,73.2342272 420.358927,74.4107043 419.865927,75.6532739 L419.865927,90.6041647 C420.359522,89.3600975 420.713142,88.1822824 420.916965,87.0682655 L420.916965,87.0655046 L420.916965,87.0655041 Z M465.174013,65.6020941 C465.77793,64.0885698 466.484925,62.7344446 467.294997,61.5397185 C468.272365,60.1009613 469.399529,58.8961546 470.678947,57.9220034 C472.424947,56.5846924 477.044111,55.6866084 484.580643,55.2473815 C486.677808,55.1320538 488.723403,55.073163 490.719884,55.073163 C502.607909,55.073163 512.759757,57.1318857 521.180339,61.1659025 L521.180339,76.1167933 C512.759757,72.0827765 502.607909,70.0240538 490.719884,70.0240538 C488.723403,70.0240538 486.677808,70.0829445 484.580643,70.2007261 C477.044111,70.6374992 472.424947,71.538037 470.678947,72.8728941 C469.399851,73.8468007 468.272932,75.0536993 467.295734,76.4886862 C466.485573,77.6841904 465.778497,79.0382675 465.174504,80.5517541 C464.442706,82.3950387 463.863162,84.4709378 463.438327,86.7848538 L463.438327,71.833963 C463.863066,69.5205648 464.442446,67.4426241 465.174013,65.6025932 L465.174013,65.6020941 Z M240.339309,183.343232 C240.464527,182.183956 240.643632,180.965943 240.879071,179.689193 L240.879071,179.682532 C241.888771,174.207049 243.906943,167.66749 246.931134,160.068756 C248.56647,155.962745 250.493946,151.549009 252.716018,146.828642 L252.716018,131.877751 C250.493613,136.598827 248.565891,141.01318 246.930397,145.118356 C243.905389,152.718289 241.887052,159.259453 240.877843,164.738303 L240.877843,164.744951 C240.642702,166.018505 240.463841,167.235814 240.338818,168.394437 C228.18345,171.354966 222.127703,172.910664 210.016372,176.068639 L210.016372,191.019529 C222.127703,187.864009 228.18345,186.305857 240.338818,183.346674 C240.338859,183.347402 240.338899,183.347023 240.338941,183.346644 L240.339309,183.343232 L240.339309,183.343232 Z M285.536397,126.294598 L285.536397,114.868383 C281.668676,106.670299 277.889359,99.3506689 274.242651,92.9045849 L274.242651,107.857929 C277.396771,113.43117 280.650095,119.661575 283.97402,126.545967 C275.509903,127.910188 269.215887,128.966263 261.066593,130.396982 C267.643881,118.799499 272.030498,111.296622 274.242651,107.855966 L274.242651,92.9050756 C271.78941,96.7182521 266.661916,105.529782 258.838068,119.383832 L258.838068,130.789381 C256.924528,131.127248 254.899086,131.487126 252.716018,131.87677 L252.716018,146.830114 C267.811182,144.133408 275.369815,142.86235 290.509182,140.450282 L290.509182,125.499392 C288.757954,125.778405 287.108158,126.042151 285.536397,126.294598 L285.536397,126.294598 Z M167.029656,141.300767 L167.029656,129.75155 C168.068335,116.558584 168.598764,109.982447 169.659461,96.7880497 L169.659461,96.7845042 C177.949891,94.7478655 184.882322,93.7467227 190.456752,93.7467227 C196.453562,93.7467227 200.876271,94.9073613 203.717511,97.179563 L203.717511,112.130454 C200.876271,109.858252 196.453562,108.700067 190.456752,108.700067 C184.882342,108.700067 177.949941,109.698749 169.65955,111.737827 C168.695972,123.724135 168.170002,130.248647 167.303131,141.234711 C180.598762,138.025397 191.793546,135.635973 200.866694,133.960276 L200.866694,148.911166 C191.606263,150.621452 180.135706,153.077687 166.477124,156.387839 L166.477124,141.434494 C166.661701,141.389762 166.845878,141.345186 167.029656,141.300767 L167.029656,141.300767 Z M96.8795013,202.590091 C100.415704,199.017385 103.730894,195.574729 106.780868,192.244948 C114.162691,184.176914 119.73221,177.60078 123.467324,172.494461 C124.31681,171.351247 125.119658,170.22275 125.873414,169.113874 C128.758543,164.866854 130.946405,160.870053 132.444367,157.111219 C133.379218,154.766101 134.041934,152.517756 134.439866,150.360055 L134.439866,150.355708 C134.655967,149.180346 134.793486,148.03443 134.849967,146.915506 C134.872068,146.461556 134.884347,146.017422 134.884347,145.578195 L134.884347,160.529086 C134.884347,160.968313 134.872068,161.414901 134.849967,161.866397 C134.793572,162.983625 134.656384,164.130209 134.440848,165.301264 L134.440848,165.305617 C134.043025,167.464945 133.379987,169.717516 132.444367,172.063331 C130.946405,175.820945 128.758543,179.820198 125.873415,184.064776 C125.119659,185.176092 124.316811,186.302138 123.467324,187.447805 C119.73221,192.554124 114.162691,199.130259 106.780868,207.195839 C103.731106,210.527843 100.416164,213.967798 96.880238,217.540237 C94.1838835,218.485687 91.4433266,219.317519 88.6585671,220.085553 C77.3500861,223.128242 67.0950987,224.676578 57.9009722,224.676578 C49.0211747,224.676578 41.1285671,223.233755 34.2231494,220.303939 L34.2231494,205.353049 C41.1285671,208.28041 49.0211747,209.723234 57.9009722,209.723234 C67.0950987,209.723234 77.3500861,208.177351 88.6585671,205.132208 C91.4430729,204.366698 94.1833843,203.532495 96.8795013,202.590348 L96.8795013,202.590091 Z M128.440846,82.6688807 L128.440846,97.6197714 C127.225276,110.313183 126.606441,116.668477 125.390871,129.381519 L125.390871,114.430629 C126.606441,101.717587 127.225276,95.3598387 128.440846,82.6688807 L128.440846,82.6688807 Z M125.390871,114.430138 L125.390871,129.381029 C118.421605,122.731281 109.573732,119.34997 98.852162,119.34997 C93.3219342,119.34997 87.2956557,120.248054 80.7684152,122.061398 C76.4365671,123.244121 71.9942127,124.843987 67.3971494,126.794743 L67.3971494,111.843852 C71.9942127,109.893096 76.4365671,108.29323 80.7684152,107.108054 C87.2956557,105.297163 93.3219342,104.396625 98.852162,104.399079 C109.573732,104.399079 118.421605,107.777936 125.390871,114.430138 L125.390871,114.430138 Z M67.3971494,111.843607 L67.3971494,126.794497 C67.1319342,127.410397 66.8765418,128.018934 66.6383392,128.622565 L66.6383392,113.66922 C66.8765418,113.06559 67.1319342,112.457052 67.3971494,111.843607 L67.3971494,111.843607 Z M66.637357,113.669466 L66.637357,128.620356 C65.3284709,131.908424 64.4051291,135.044356 63.8550532,138.033062 L63.8550532,123.079718 C64.4051291,120.093466 65.3284709,116.957533 66.637357,113.669466 L66.637357,113.669466 Z M63.8550532,123.079963 L63.8550532,138.030854 C63.5775595,139.549745 63.395838,141.026921 63.3074329,142.467291 C63.2779646,142.989946 63.2632304,143.500333 63.2632304,143.995997 L63.2632304,129.045106 C63.2632304,128.549442 63.2779646,128.039055 63.3074329,127.5164 C63.395838,126.07603 63.5775595,124.5964 63.8550532,123.079963 L63.8550532,123.079963 Z M37.0963139,158.422269 L37.0963139,173.37316 C37.0766684,171.432218 37.0668456,169.653227 37.0668456,168.038639 L37.0668456,153.087748 C37.0668456,154.699882 37.0766684,156.478874 37.0963139,158.422269 L37.0963139,158.422269 Z M109.058281,165.296292 L109.058281,180.247183 C109.058281,176.431553 108.289648,173.288259 106.737648,170.942444 C105.097243,168.466578 102.739775,167.190612 99.827319,167.190612 C99.1249899,167.190612 98.3931924,167.264225 97.6319266,167.411452 C89.3660532,168.991687 74.5582051,175.258645 59.1094203,177.736965 C57.6139013,177.979889 56.0938253,178.092763 54.5786608,178.092763 C47.9335468,178.092763 41.3424582,175.94325 37.0965595,173.374141 L37.0965595,158.42325 C41.3424582,160.99236 47.9335468,163.141872 54.5786608,163.141872 C56.0938253,163.141872 57.6139013,163.028998 59.1094203,162.78362 C74.5582051,160.307755 89.3660532,154.038343 97.6319266,152.460561 C98.3931924,152.310881 99.1249899,152.237267 99.827319,152.237267 C102.739775,152.237267 105.097243,153.515687 106.737648,155.989099 C108.289648,158.337368 109.058281,161.478208 109.058281,165.296292 L109.058281,165.296292 Z M204.601808,80.7836403 L204.601808,95.7345311 C204.248187,102.288582 204.071377,105.576649 203.717757,112.130699 L203.717757,97.1798084 C204.071377,90.625758 204.248187,87.3376908 204.601808,80.7836403 L204.601808,80.7836403 Z M143.847147,128.83359 L143.847147,143.784481 C143.847147,131.667708 143.026944,120.377859 141.391451,109.939472 L141.391451,94.9885815 C143.026944,105.426968 143.847147,116.716817 143.847147,128.83359 L143.847147,128.83359 Z M201.971757,121.006027 L201.971757,135.956918 C201.529732,141.154027 201.308719,143.740313 200.866694,148.912884 L200.866694,133.959539 C201.308719,128.786968 201.529732,126.200682 201.971757,121.006027 L201.971757,121.006027 Z M166.477124,141.434739 L166.477124,156.38563 C165.769884,166.863277 165.416263,172.080017 164.709023,182.557664 L164.709023,167.606773 C165.416263,157.129126 165.769884,151.912387 166.477124,141.434739 L166.477124,141.434739 Z M164.709023,167.606528 L164.709023,182.557418 C164.704111,182.660477 164.701656,182.761082 164.701656,182.859234 L164.701656,167.905889 C164.701656,167.807738 164.704111,167.707133 164.709023,167.606528 L164.709023,167.606528 Z M199.540618,164.998158 L199.540618,179.949049 C199.319605,184.817351 199.209099,187.249049 199.010187,192.114897 L199.010187,177.164007 C199.209099,172.298158 199.319605,169.864007 199.540618,164.998158 L199.540618,164.998158 Z M199.010187,177.163516 L199.010187,192.114407 C194.457327,192.509466 187.694339,193.650474 178.699124,195.623314 C166.742339,198.253768 152.929048,201.826474 137.303453,206.493566 L137.303453,191.542676 C152.929048,186.873129 166.742339,183.300424 178.699124,180.66997 C187.694339,178.697129 194.457327,177.558575 199.010187,177.163516 L199.010187,177.163516 Z M263.439306,78.6395261 L263.439306,93.5904168 C263.439306,89.9882655 260.477737,86.3836605 254.571787,82.7815092 L254.571787,67.8281647 C260.477737,71.4327697 263.439306,75.034921 263.439306,78.6395261 L263.439306,78.6395261 Z M332.589992,153.446491 L332.589992,168.397382 C320.478499,170.173919 314.422752,171.116171 302.333359,173.066928 L302.333359,158.116037 C314.422752,156.165281 320.478499,155.223029 332.589992,153.446491 L332.589992,153.446491 Z M302.333359,158.115301 L302.333359,173.066192 C299.460195,162.919805 295.504068,152.025015 290.509182,140.450528 L290.509182,125.499637 C295.504068,137.071671 299.460195,147.966461 302.333359,158.115301 L302.333359,158.115301 Z M463.438327,71.833963 L463.438327,86.7848538 C462.912808,89.6533244 462.62058,92.8849546 462.566554,96.4821983 C462.564099,96.8306353 462.561643,97.1839798 462.561643,97.5422319 L462.561643,82.5888874 C462.561643,82.2306353 462.564099,81.8772908 462.566554,81.5288538 C462.62058,77.9340639 462.912808,74.7024336 463.438327,71.833963 L463.438327,71.833963 Z M419.865435,75.6522924 L419.865435,90.6031832 C419.118904,92.4754185 418.04822,94.4948807 416.663208,96.6566622 C416.454473,96.9830151 416.240828,97.3069143 416.022271,97.6283597 L416.022271,82.6774689 C416.240828,82.3560235 416.454473,82.0321244 416.663208,81.7033176 C418.04822,79.5415361 419.118904,77.5245277 419.865435,75.6522924 L419.865435,75.6522924 Z M416.022271,82.6764874 L416.022271,97.6273782 C412.110347,103.386403 406.732372,108.274336 399.866246,112.197933 L399.866246,97.2445882 C406.732372,93.3209916 412.110347,88.4330588 416.022271,82.6764874 L416.022271,82.6764874 Z M344.198559,98.3480538 L344.198559,113.298945 C344.198559,93.4134992 341.976154,79.5054655 337.563268,71.6018353 L337.563268,56.6509445 C341.976154,64.552121 344.198559,78.4626084 344.198559,98.3480538 L344.198559,98.3480538 Z M519.146777,130.146363 L519.146777,145.097254 C514.019284,149.810968 511.455537,152.178867 506.328043,156.934296 L506.328043,141.983405 C511.455537,137.225523 514.019284,134.860077 519.146777,130.146363 L519.146777,130.146363 Z M506.328043,141.982914 L506.328043,156.933805 C503.285435,157.122746 500.336144,157.218444 497.485081,157.218444 C476.744271,157.218444 461.079385,152.212729 450.743359,141.789066 C441.942144,132.930914 437.580828,121.221469 437.580828,106.756427 L437.580828,91.8055361 C437.580828,106.268124 441.942144,117.980024 450.743359,126.835721 C461.079385,137.261839 476.744271,142.265099 497.485081,142.265099 C500.336144,142.265099 503.285435,142.171855 506.328043,141.982914 L506.328043,141.982914 Z M369.786668,148.777681 L369.786668,163.728571 C357.697276,166.118555 351.66363,167.367529 339.596339,169.953815 L339.596339,155.002924 C351.66363,152.416639 357.697276,151.167664 369.786668,148.777681 L369.786668,148.777681 Z M461.329866,167.73805 L461.329866,182.688941 C460.821537,182.843529 460.136397,182.95395 459.252347,183.017748 C458.685081,183.057008 458.100625,183.076639 457.503891,183.076639 C448.638828,183.076639 436.431562,178.81442 422.497942,170.108403 C402.275284,157.483697 385.854043,136.089176 370.935689,117.217143 L370.935689,102.263798 C385.854043,121.138286 402.275284,142.530353 422.497942,155.157513 C436.431562,163.863529 448.638828,168.125748 457.503891,168.125748 C458.100625,168.125748 458.685081,168.106118 459.252347,168.066857 C460.136397,168.000605 460.821537,167.892639 461.329866,167.73805 L461.329866,167.73805 Z M604.479765,67.0184168 L604.479765,81.9693076 C603.131587,70.9886353 602.468549,65.5093412 601.120372,54.5482992 L601.120372,39.5974084 C602.468549,50.5559966 603.131587,56.0377445 604.479765,67.0184168 L604.479765,67.0184168 Z M535.530446,79.6654521 L535.530446,94.6163429 C535.530446,79.0078387 534.246116,66.3095193 531.699559,56.4993008 L531.699559,41.5484101 C534.246116,51.3561748 535.530446,64.0569479 535.530446,79.6654521 L535.530446,79.6654521 Z M631.465656,39.9698924 L631.465656,54.9207832 C629.032061,74.8307664 627.79439,92.2010857 627.79439,106.990027 L627.79439,92.0366824 C627.79439,77.2477412 629.032061,59.8798756 631.465656,39.9698924 L631.465656,39.9698924 Z M635.620694,137.028975 L635.620694,151.979866 C626.249757,151.864538 620.002466,151.815462 612.706592,151.815462 C609.059884,151.815462 605.150415,151.827731 600.45758,151.849815 L600.45758,136.896471 C605.150415,136.874387 609.059884,136.864571 612.706592,136.864571 C620.002466,136.864571 626.249757,136.911193 635.620694,137.028975 L635.620694,137.028975 Z M561.161529,135.976793 L561.161529,150.927684 C555.06158,151.806138 544.519276,153.207247 529.534618,155.35676 L529.534618,140.403415 C544.519276,138.256356 555.06158,136.852793 561.161529,135.976793 L561.161529,135.976793 Z M669.391428,39.9478084 L669.391428,54.8986992 C669.15077,55.4360773 668.924846,55.9734555 668.7112,56.5083798 L668.7112,41.5574891 C668.924846,41.0201109 669.15077,40.4851866 669.391428,39.9478084 L669.391428,39.9478084 Z M668.710954,41.5565076 L668.710954,56.5073983 C667.797435,58.8065916 667.131942,61.0886084 666.714473,63.3608101 L666.714473,48.4074655 C667.131942,46.1377176 667.797435,43.8532471 668.710954,41.5565076 L668.710954,41.5565076 Z M666.714228,48.4079563 L666.714228,63.3588471 C666.360608,65.2826118 666.186253,67.1965613 666.186253,69.1006958 L666.186253,54.149805 C666.186253,52.2432168 666.360608,50.3292672 666.714228,48.4079563 L666.714228,48.4079563 Z M731.120263,30.4568269 L731.120263,45.4077176 C730.722441,57.858205 730.523529,64.0834487 730.125706,76.5339361 L730.125706,61.5830454 C730.523529,49.132558 730.722441,42.9073143 731.120263,30.4568269 L731.120263,30.4568269 Z M730.125706,61.5823092 L730.125706,76.5332 C718.434137,62.8779059 702.786441,55.4257714 683.072111,54.4835193 C681.753403,54.4246286 680.422415,54.3951832 679.084061,54.3951832 C675.913757,54.3951832 672.684516,54.5620403 669.391428,54.9006622 L669.391428,39.9473176 C672.684516,39.6086958 675.913757,39.4442924 679.084061,39.4442924 C680.422415,39.4442924 681.753403,39.4737378 683.072111,39.5301748 C702.786441,40.4748807 718.434137,47.9270151 730.125706,61.5823092 L730.125706,61.5823092 Z M640.726086,77.0354891 L640.726086,91.9863798 C640.195656,85.2360269 639.930441,80.4585143 639.908339,77.6955563 L639.908339,62.7446655 C639.930441,65.5051697 640.195656,70.2851361 640.726086,77.0354891 L640.726086,77.0354891 Z M716.712694,109.721822 L716.712694,124.672713 C716.712694,124.535301 716.712694,124.392982 716.710238,124.253116 C716.643934,119.716074 715.605175,115.726225 713.571858,112.438158 C711.229124,108.647066 707.891833,106.411671 703.8252,105.884108 C695.360415,104.767637 679.513808,106.016612 664.219732,103.670797 C655.357124,102.311402 646.450314,96.8983597 640.726086,91.9883429 L640.726086,77.0349983 C646.450314,81.9450151 655.357124,87.3605109 664.219732,88.7174521 C679.513808,91.0632672 695.360415,89.8142924 703.8252,90.9332168 C707.891833,91.4583261 711.229124,93.693721 713.571858,97.4872672 C715.605175,100.775334 716.643934,104.762729 716.710238,109.299771 C716.712694,109.442091 716.712694,109.581956 716.712694,109.721822 L716.712694,109.721822 Z M640.9692,123.526797 L640.9692,138.477687 C640.79239,129.776578 640.681884,125.435839 640.482972,116.734729 L640.482972,101.783839 C640.681884,110.484948 640.79239,114.825687 640.9692,123.526797 L640.9692,123.526797 Z M742.173597,97.8590151 L742.173597,112.809906 C742.173597,114.235553 742.043446,115.6612 741.780686,117.089301 L741.780686,102.13841 C742.043446,100.707855 742.173597,99.2822084 742.173597,97.8590151 L742.173597,97.8590151 Z M741.779949,102.138165 L741.779949,117.089055 C741.470532,118.769896 740.981848,120.45319 740.308987,122.141392 L740.308987,107.190501 C740.981848,105.502299 741.470532,103.819005 741.779949,102.138165 L741.779949,102.138165 Z M740.308251,107.190255 L740.308251,122.141146 C739.416833,124.376541 738.20863,126.621751 736.678732,128.871869 L736.678732,113.920978 C738.20863,111.668407 739.416833,109.42565 740.308251,107.190255 L740.308251,107.190255 Z M736.678241,113.920487 L736.678241,128.871378 C735.386544,130.775513 733.864013,132.682101 732.115557,134.598504 C728.579354,138.566269 723.252949,143.38795 716.114241,149.132252 C713.174772,151.475613 709.970089,153.887681 706.50019,156.343916 L706.50019,141.390571 C709.970089,138.93679 713.174772,136.524723 716.114241,134.178908 C723.252949,128.437059 728.579354,123.615378 732.115557,119.647613 C733.864013,117.73121 735.386544,115.822168 736.678241,113.920487 L736.678241,113.920487 Z M706.499453,141.391062 L706.499453,156.341953 C705.833959,156.354222 705.16601,156.359129 704.495605,156.359129 C702.403352,156.359129 700.276719,156.305146 698.100972,156.189818 C675.292466,154.962928 656.219073,149.152373 640.9692,138.478424 L640.9692,123.527533 C656.219073,134.201482 675.292466,140.009583 698.100972,141.236474 C700.276719,141.354255 702.403352,141.408239 704.495605,141.408239 C705.16601,141.408239 705.833959,141.400877 706.499453,141.391062 L706.499453,141.391062 Z M782.350997,61.5604706 L782.350997,76.5113613 C779.632542,75.8120336 776.914086,75.3286387 774.217732,75.066084 C772.64363,74.9164034 771.111276,74.8427899 769.623124,74.8427899 C761.192719,74.8427899 754.100668,77.2106891 748.315048,81.9047731 L748.315048,66.9514286 C754.100668,62.2597983 761.192719,59.8918992 769.623124,59.8918992 C771.111276,59.8918992 772.64363,59.9655126 774.217732,60.1127395 C776.914086,60.3777479 779.632542,60.8586891 782.350997,61.5604706 L782.350997,61.5604706 Z M748.314803,66.9526555 L748.314803,81.9035462 C747.276043,73.202437 746.767714,68.8396134 745.728954,60.1385042 L745.728954,45.1876134 C746.767714,53.8887227 747.276043,58.2515462 748.314803,66.9526555 L748.314803,66.9526555 Z M841.93601,55.8176403 L841.93601,70.7685311 C839.65958,75.6368336 838.510314,78.0906151 836.233884,82.9564639 L836.233884,68.0055731 C838.510314,63.1397244 839.65958,60.6834891 841.93601,55.8176403 L841.93601,55.8176403 Z M871.662213,70.3938387 L871.662213,85.3447294 C871.576263,85.4698723 871.490314,85.5950151 871.40682,85.7177042 L871.40682,70.7668134 C871.490314,70.6416706 871.576263,70.5165277 871.662213,70.3938387 L871.662213,70.3938387 Z M864.179215,88.3861916 L864.179215,103.337082 C863.624228,106.35278 863.346734,109.483805 863.346734,112.732612 L863.346734,97.7792672 C863.346734,94.5329143 863.624228,91.4018891 864.179215,88.3861916 L864.179215,88.3861916 Z M784.571684,100.32482 L784.571684,115.275711 C784.571684,112.996148 784.547127,110.65524 784.495557,108.250534 C784.296646,98.3887866 783.567304,87.8228034 782.351734,76.5133244 L782.351734,61.5599798 C783.567304,72.8719126 784.296646,83.435442 784.495557,93.2996437 C784.547127,95.7018958 784.571684,98.0428034 784.571684,100.32482 L784.571684,100.32482 Z M933.995886,129.246316 L933.995886,144.197207 C933.995886,143.277039 933.978696,142.334787 933.944316,141.372904 C933.590696,132.033812 931.424772,121.18319 927.424443,108.931459 C923.777734,97.7078622 911.157911,90.1035933 889.631278,86.7271899 C883.646747,85.8045681 877.789911,85.3457109 872.060772,85.3457109 L871.662949,85.3457109 L871.662949,70.3948202 C871.795557,70.3923664 871.928165,70.3923664 872.060772,70.3923664 C877.789911,70.3923664 883.646747,70.8536773 889.631278,71.7738454 C911.157911,75.1502487 923.777734,82.7569714 927.424443,93.9805681 C931.424772,106.232299 933.590696,117.082921 933.944316,126.41956 C933.978696,127.383896 933.995886,128.326148 933.995886,129.246316 L933.995886,129.246316 Z M971.805749,132.413657 L971.805749,147.364548 C971.805749,142.623842 971.717344,138.133422 971.538078,133.898195 C971.38337,130.104649 971.073952,126.664447 970.742433,123.661018 C969.526863,112.373624 963.824737,100.909556 953.23823,89.8405479 L953.23823,74.8872034 C963.824737,85.9562118 969.526863,97.420279 970.742433,108.710128 C971.073952,111.711103 971.38337,115.153758 971.538078,118.94485 C971.717344,123.180077 971.805749,127.670497 971.805749,132.413657 L971.805749,132.413657 Z M1074.66234,101.10316 L1074.66234,116.05405 C1073.64568,119.079563 1072.73953,122.149244 1071.94388,125.238555 C1071.26611,127.954891 1070.68657,130.600067 1070.21507,133.17163 L1070.21507,118.218286 C1070.68657,115.649176 1071.26611,113.004 1071.94388,110.287664 C1072.73953,107.195899 1073.64568,104.128672 1074.66234,101.10316 L1074.66234,101.10316 Z M1070.21483,118.219267 L1070.21483,133.170158 C1069.39463,137.63604 1068.89366,141.873721 1068.73895,145.866024 C1068.57442,150.273015 1068.50075,154.689822 1068.50075,159.11399 L1068.50075,144.160645 C1068.50075,139.736477 1068.57442,135.319671 1068.73895,130.912679 C1068.89366,126.92283 1069.39463,122.682696 1070.21483,118.219267 L1070.21483,118.219267 Z M1055.43424,146.06159 L1055.43424,161.012481 C1055.43424,159.427338 1055.39004,157.76122 1055.30163,156.014128 C1054.61649,142.861859 1051.85383,127.430027 1047.03576,109.765254 L1047.03576,94.8119092 C1051.85383,112.479136 1054.61649,127.910968 1055.30163,141.063237 C1055.39004,142.807876 1055.43424,144.473993 1055.43424,146.06159 L1055.43424,146.06159 Z M812.276111,149.501301 L812.276111,164.452192 C798.529124,163.882914 791.633529,163.664528 777.842339,163.335721 L777.842339,148.382376 C791.633529,148.711183 798.529124,148.932024 812.276111,149.501301 L812.276111,149.501301 Z M912.637714,166.422824 L912.637714,181.373714 C908.836296,181.066992 905.123284,180.630218 901.542878,180.060941 C880.170954,176.596202 863.86022,168.35395 852.964296,154.939126 C844.145891,144.090958 839.548828,131.17916 839.151005,116.319059 C839.131359,115.627092 839.121537,114.942487 839.121537,114.265244 L839.121537,99.3118992 C839.121537,99.9915966 839.131359,100.676202 839.151005,101.365714 C839.548828,116.228269 844.145891,129.137613 852.964296,139.988235 C863.86022,153.403059 880.170954,161.645311 901.542878,165.107597 C905.123284,165.676874 908.836296,166.116101 912.637714,166.422824 L912.637714,166.422824 Z M991.694187,177.382639 L991.694187,192.333529 C983.030491,191.040387 978.698643,190.404857 970.012846,189.222134 L970.012846,174.271244 C978.698643,175.453966 983.030491,176.089496 991.694187,177.382639 L991.694187,177.382639 Z M1071.50161,207.653469 L1071.50161,222.60436 C1049.00252,187.952057 1015.96113,158.754511 986.787461,129.974108 L986.787461,115.020763 C1015.96113,143.801166 1049.00252,172.998713 1071.50161,207.653469 L1071.50161,207.653469 Z M1148.0383,139.330622 L1148.0383,154.281513 C1142.07095,147.00605 1130.6225,140.955025 1113.60452,136.484235 L1113.60452,121.530891 C1130.6225,126.004134 1142.07095,132.052706 1148.0383,139.330622 L1148.0383,139.330622 Z M1092.36545,172.902524 L1092.36545,187.853415 C1092.36545,182.268608 1092.20338,176.497314 1091.87923,170.546894 C1090.90677,152.923835 1088.49773,136.132608 1084.67421,120.175667 L1084.67421,105.224776 C1088.49773,121.181718 1090.90677,137.970491 1091.87923,155.596003 C1092.20338,161.546424 1092.36545,167.315264 1092.36545,172.902524 L1092.36545,172.902524 Z M1149.011,175.651005 L1149.011,190.601896 C1139.88317,187.623005 1128.56733,184.29077 1115.08555,180.718064 L1115.08555,165.764719 C1128.56733,169.337425 1139.88317,172.669661 1149.011,175.651005 L1149.011,175.651005 Z M1151.6629,219.051529 L1151.6629,234.00242 C1147.13214,232.073748 1140.43546,229.816269 1131.55075,227.229983 C1119.74868,223.811866 1106.1343,220.435462 1090.66341,217.191563 L1090.66341,202.238218 C1106.1343,205.484571 1119.74868,208.858521 1131.55075,212.279092 C1140.43546,214.865378 1147.13214,217.122857 1151.6629,219.051529 L1151.6629,219.051529 Z" id="Combined-Shape" fill="url(#linearGradient-3)"></path>
                <path d="M128.440846,83.6688807 C127.225276,96.3598387 126.606441,102.717587 125.390871,115.430629 C118.421605,108.778427 109.573732,105.39957 98.852162,105.397116 C93.3219342,105.397116 87.2956557,106.297654 80.7684152,108.108545 C76.4365671,109.293721 71.9942127,110.893587 67.3971494,112.844343 C64.9439089,118.497855 63.5957316,123.714595 63.3084152,128.516645 C62.7779848,137.656982 66.8888203,142.63325 75.3978076,143.202528 C75.8128203,143.229519 76.259757,143.244242 76.7386177,143.244242 C84.8448709,143.244242 101.875124,139.234763 127.733605,132.177687 C132.816896,135.639973 135.203833,140.900881 134.850213,147.913788 C134.474491,155.257956 130.695175,163.762763 123.468061,173.494461 C119.732947,178.60078 114.163428,185.176914 106.781605,193.244948 C103.73163,196.574729 100.416441,200.017385 96.880238,203.590091 C94.1838835,204.532343 91.4433266,205.366629 88.6585671,206.132208 C77.3500861,209.177351 67.0950987,210.723234 57.9009722,210.723234 C49.0211747,210.723234 41.1285671,209.28041 34.2231494,206.353049 C34.6209722,197.605318 34.8198835,193.244948 35.1956051,184.519301 C41.3839595,187.699402 50.3349722,189.713956 62.0928456,190.678292 C65.7444658,190.985015 69.2315544,191.139603 72.5590228,191.139603 C79.945757,191.139603 86.5294785,190.378931 92.3052759,188.837956 C98.2284152,187.238091 102.339251,184.958528 104.505175,181.977183 C107.22363,178.230259 108.726516,173.516545 109.013833,167.92683 C109.256947,163.367704 108.505504,159.662494 106.737403,156.990326 C105.096997,154.514461 102.739529,153.238494 99.8270734,153.238494 C99.1272,153.238494 98.3929468,153.312108 97.631681,153.459334 C89.3658076,155.03957 74.5579595,161.306528 59.1091747,163.784847 C57.6136557,164.027771 56.0935797,164.140645 54.5784152,164.140645 C47.9333013,164.140645 41.3422127,161.993587 37.0963139,159.422024 C37.0300101,152.760007 37.0742127,148.024208 37.2510228,145.24162 C37.936162,133.841351 40.7430228,125.380713 45.6495038,119.85725 C57.6062886,109.70841 63.5736304,104.690427 75.5083139,94.7378891 C96.6150228,90.0045445 107.201529,87.7887798 128.440846,83.6688807 L128.440846,83.6688807 Z M204.601808,81.7836403 C204.248187,88.3376908 204.071377,91.625758 203.717757,98.1798084 C200.876516,95.9076067 196.453808,94.7469681 190.456997,94.7469681 C184.882567,94.7469681 177.950137,95.7481109 169.659706,97.7847496 C168.598846,110.981187 168.068415,117.557321 167.029656,130.751304 C181.130263,127.551573 192.799732,124.680649 201.971757,122.006027 C201.529732,127.200682 201.308719,129.786968 200.866694,134.959539 C191.606263,136.669825 180.135706,139.126061 166.477124,142.433758 C165.769884,152.911405 165.416263,158.128145 164.709023,168.605792 C164.620618,170.382329 165.305757,171.741724 166.764441,172.683976 C167.682871,173.263069 168.699529,173.557523 169.819327,173.557523 C170.474997,173.557523 171.165048,173.456918 171.891934,173.253254 C182.942567,170.271909 188.467884,168.826632 199.540618,165.997422 C199.319605,170.863271 199.209099,173.297422 199.010187,178.163271 C194.457327,178.558329 187.694339,179.696884 178.699124,181.669724 C166.742339,184.300178 152.929048,187.872884 137.303453,192.54243 C140.596542,177.198934 142.651959,161.043237 143.491808,143.991909 C144.353757,126.410565 143.646516,110.387371 141.392187,95.9885815 C166.609732,89.8713042 179.251656,87.0224639 204.601808,81.7836403 L204.601808,81.7836403 Z M332.589992,154.446982 C320.478499,156.221066 314.422752,157.163318 302.333359,159.114074 C299.460195,148.967687 295.504068,138.072897 290.509182,126.49841 C275.369815,128.910477 267.811182,130.181536 252.716018,132.878242 C245.4226,148.373872 241.289663,160.561805 240.339309,169.395418 C228.183613,172.354679 222.127866,173.910376 210.016372,177.068393 C215.254372,171.039452 220.602878,163.805704 226.061891,155.345066 C241.223359,132.176461 252.207689,107.035015 263.192018,81.7389815 C263.324625,81.1697042 263.41303,80.5341748 263.435132,79.8765613 C263.567739,76.1934353 260.60617,72.512763 254.572524,68.829637 C267.612271,65.6937042 274.154246,64.2042588 287.216094,61.2891664 C293.382347,76.3038555 299.172878,89.6524269 304.543486,101.312797 C317.472727,129.501839 326.887866,147.279486 332.589992,154.446982 L332.589992,154.446982 Z M512.640656,42.1464807 C515.197035,42.1464807 517.726403,42.1931025 520.228757,42.2838924 C520.62658,50.2415059 520.80339,54.2092706 521.179111,62.166884 C512.760985,58.1304134 502.606681,56.0741445 490.721111,56.0741445 C488.722175,56.0716908 486.67658,56.1305815 484.579415,56.248363 C477.042884,56.6851361 472.423719,57.5856739 470.677719,58.9229849 C465.439719,62.9103798 462.743365,70.7796571 462.566554,82.528363 C462.522352,86.0593546 462.699162,90.0467496 463.141187,94.4316571 C464.865086,112.361439 474.678048,123.648834 492.668478,128.691355 C498.657922,130.440901 505.565795,131.292363 513.369997,131.292363 C515.243694,131.292363 517.168959,131.243287 519.145795,131.14759 C514.018301,135.85885 511.454554,138.22675 506.327061,142.982178 C503.286909,143.171119 500.337618,143.264363 497.486554,143.264363 C476.745744,143.264363 461.080858,138.261103 450.742377,127.837439 C441.680858,118.719187 437.326909,106.575422 437.592124,91.5165647 C437.680529,85.6422118 438.542478,80.2046319 440.089567,75.2087328 C441.526149,70.5833546 443.183744,67.557842 445.040251,66.1984471 C463.627415,53.0486319 474.965365,46.2295731 478.987795,45.287321 C484.734124,43.9279261 492.491668,42.8556235 502.105719,42.3943126 C505.656656,42.2299092 509.170757,42.1464807 512.640656,42.1464807 L512.640656,42.1464807 Z M370.029782,50.4169513 C369.897175,55.810363 369.830871,58.5046151 369.698263,63.8980269 C378.826086,56.4017244 388.042314,52.1934891 397.391149,51.2291529 C398.982441,51.0745647 400.507428,50.9641445 401.988213,50.9199765 C411.125858,50.9199765 416.874643,53.2878756 419.359808,57.8911697 C420.420668,59.6897916 421.017403,63.942195 421.127909,70.6925479 C421.194213,74.0026992 419.669225,78.0146319 416.663453,82.7038084 C412.707327,88.884884 407.115706,94.1016235 399.866491,98.2460605 C404.330947,109.072145 411.823276,120.514128 422.36558,132.635808 C429.902111,141.251035 438.632111,149.822094 448.577681,158.371069 C452.75482,161.811271 456.998263,165.273556 461.330111,168.738296 C460.821782,168.89043 460.136643,169.00085 459.252592,169.067103 C458.685327,169.106363 458.100871,169.125993 457.504137,169.125993 C448.639073,169.125993 436.431808,164.861321 422.498187,156.155304 C402.275529,143.530598 385.854289,122.138531 370.935934,103.264044 C375.135175,102.015069 378.870289,100.766094 382.097073,99.5171193 C389.810415,96.3370185 394.42958,93.4881782 395.976668,90.9018924 C398.518314,86.7599092 399.84439,82.4191697 399.932795,77.8600437 C400.0212,73.9806151 399.225554,70.6042118 397.590061,67.7332874 C395.932466,64.840279 393.744441,63.1079092 391.070187,62.4944639 C390.419428,62.312884 389.599225,62.2171866 388.607124,62.2171866 C387.914618,62.2171866 387.136162,62.2638084 386.274213,62.3619597 C375.5772,63.5029681 369.300441,69.6840437 367.620744,80.5788336 C366.869301,85.5109345 366.427276,91.3632034 366.272567,98.0252202 C365.874744,113.238666 367.046111,130.48875 369.786668,149.777926 C357.697276,152.167909 351.66363,153.416884 339.596339,156.00317 C342.182187,137.985052 343.685073,121.809724 344.082896,107.516447 C344.745934,83.2313714 342.557909,66.592279 337.563023,57.6506992 C350.536466,54.6472706 357.034238,53.1995395 370.029782,50.4169513 L370.029782,50.4169513 Z M561.514904,38.9970521 C560.807663,51.5137916 560.454043,57.7611193 559.724701,70.253321 C563.715208,70.5845815 567.916904,70.7440773 572.3126,70.7440773 C572.857765,70.7440773 573.405385,70.7416235 573.957916,70.736716 C584.456018,70.6262958 594.6226,69.7282118 604.479765,68.0179261 C603.131587,57.0372538 602.468549,51.5579597 601.120372,40.5969176 C613.253967,40.6410857 619.331815,40.7294218 631.46541,40.9698924 C628.967967,61.3976235 627.730296,79.1531866 627.7966,94.1899597 C627.885005,116.678867 630.470853,131.278867 635.620448,138.02922 C626.249511,137.911439 620.00222,137.862363 612.706347,137.862363 C609.059638,137.862363 605.15017,137.874632 600.457334,137.896716 C603.17579,117.20643 604.523967,101.050733 604.501866,89.4345311 C604.501866,86.7819933 604.435562,84.5024303 604.325056,82.6179261 C600.152828,81.7566487 594.013587,81.2757076 585.865587,81.2757076 C585.509511,81.2757076 585.15098,81.2781613 584.787537,81.2806151 C576.853182,81.3026992 568.299992,81.7173882 559.127967,82.5516739 C559.945714,104.316716 560.343537,115.211506 561.161284,136.976548 C555.061334,137.852548 544.51903,139.256111 529.534372,141.405624 C533.424195,120.361993 535.413309,100.766094 535.523815,82.6179261 C535.634322,66.1113378 534.352448,52.7627664 531.700296,42.5476739 C543.63498,41.0361445 549.58022,40.334363 561.514904,38.9970521 L561.514904,38.9970521 Z M676.640643,25.2973445 C698.432491,27.4444034 709.328415,28.6958319 731.120263,31.4563361 C730.722441,43.9068235 730.523529,50.1320672 730.125706,62.5825546 C718.434137,48.9272605 702.786441,41.4726723 683.072111,40.5304202 C681.753403,40.4715294 680.422415,40.442084 679.084061,40.442084 C675.913757,40.442084 672.684516,40.6089412 669.391428,40.947563 C667.203403,45.8354958 666.142542,50.6571765 666.186744,55.4371429 C666.253048,64.5112269 670.872213,70.8689748 679.889529,74.2650084 C687.713377,77.2242689 705.792213,78.8903866 733.706111,80.2718655 C739.231428,85.444437 742.06039,91.5150924 742.170896,98.5083697 C742.281403,105.80837 738.944111,113.172168 732.11482,120.646387 C728.578618,124.614151 723.252213,129.435832 716.113504,135.180134 C713.174035,137.52595 709.969352,139.935563 706.499453,142.391798 C705.833959,142.401613 705.16601,142.406521 704.495605,142.406521 C702.403352,142.406521 700.276719,142.352538 698.100972,142.23721 C675.292466,141.010319 656.219073,135.202218 640.9692,124.525815 C640.79239,115.824706 640.681884,111.483966 640.482972,102.782857 C647.223858,108.021681 656.793706,113.020034 669.214618,117.885882 C681.613428,122.751731 692.13363,125.468067 700.708922,125.951462 C701.482466,125.993176 702.224086,126.012807 702.933782,126.012807 C707.818162,126.012807 711.18001,125.023933 712.975124,123.014286 C715.538871,120.121277 716.776542,115.84679 716.710238,110.301244 C716.643934,105.764202 715.605175,101.774353 713.571858,98.4862857 C711.229124,94.6951933 707.891833,92.4573445 703.8252,91.9322353 C695.360415,90.8133109 679.513808,92.0647395 664.219732,89.7189244 C655.357124,88.3595294 646.450314,82.9464874 640.726086,78.0364706 C640.195656,71.2836639 639.930441,66.5061513 639.908339,63.7431933 C639.864137,52.4337143 642.228972,44.8049076 647.002846,40.8371429 C658.893327,34.5260168 664.816466,31.4342521 676.640643,25.2973445 L676.640643,25.2973445 Z M745.7292,46.1866319 C777.842339,49.5188672 809.889175,53.047405 841.93601,56.8164134 C839.65958,61.684716 838.510314,64.1384975 836.233884,69.0043462 C831.040086,67.7995395 821.271327,66.2880101 806.883403,64.6636067 C805.004795,77.8158756 804.209149,91.2306992 804.518567,104.863909 C804.938491,123.144582 807.524339,138.358027 812.276111,150.501792 C798.529124,149.932514 791.633529,149.711674 777.842339,149.382867 C782.815124,137.482027 785.025251,119.135103 784.49482,94.3003798 C784.295909,84.4361782 783.566567,73.870195 782.350997,62.560716 C779.632542,61.8589345 776.914086,61.3779933 774.217732,61.1129849 C772.64363,60.965758 771.111276,60.8921445 769.623124,60.8921445 C761.192719,60.8921445 754.100668,63.2575899 748.315048,67.9516739 C747.276289,59.2505647 746.767959,54.8877412 745.7292,46.1866319 L745.7292,46.1866319 Z M956.375873,118.19236 C956.928405,132.088124 953.215392,145.240393 945.14843,157.757133 C940.175646,158.721469 929.390228,161.832864 912.637468,167.422578 C908.836051,167.115855 905.123038,166.676629 901.542633,166.107351 C880.170709,162.645066 863.859975,154.402813 852.964051,140.98799 C844.145646,130.137368 839.548582,117.228024 839.150759,102.365469 C838.929747,94.4961916 839.968506,87.439116 842.244937,81.2359563 C844.410861,75.3174353 847.129316,71.8772336 850.400304,70.8687294 C859.616532,68.0395193 873.076203,60.8499395 883.176481,59.8635193 C884.981418,59.6868471 886.806,59.6034185 888.633038,59.6034185 C909.896911,59.6034185 931.83119,70.8809983 937.855013,77.1577714 C949.590785,89.235284 955.757038,102.95683 956.375873,118.19236 L956.375873,118.19236 Z M953.237739,75.8874487 C963.55903,76.940121 968.730727,77.5093983 979.029916,78.714205 C989.660625,90.6837513 999.451486,101.512289 1008.4467,111.199818 C1030.06174,134.213835 1045.57683,149.18681 1054.90356,155.652524 C1055.43399,151.817264 1055.5666,147.299852 1055.30138,142.061029 C1054.61625,128.911213 1051.85359,113.479382 1047.03551,95.8121546 C1058.10825,98.2463059 1063.63356,99.4952807 1074.66209,102.10365 C1073.64544,105.129163 1072.73928,108.19639 1071.94364,111.288155 C1070.08713,118.718205 1068.98207,125.623146 1068.73895,131.914642 C1067.7886,157.36281 1069.88822,183.139785 1071.50161,208.654205 C1049.00252,173.999449 1015.96113,144.801903 986.787461,116.021499 C988.732372,140.966642 989.726929,153.439213 991.693942,178.381903 C983.030246,177.08876 978.698397,176.45323 970.0126,175.270508 C971.670195,153.591348 972.178524,135.136457 971.537587,119.945096 C971.382878,116.154003 971.073461,112.711348 970.741942,109.707919 C969.526372,98.4205244 963.824246,86.9564571 953.237739,75.8874487 L953.237739,75.8874487 Z M1084.67421,106.223795 C1109.78125,112.888266 1122.29057,116.416803 1147.22079,123.957274 C1147.55231,130.511324 1147.70702,133.777308 1148.03854,140.331358 C1142.0712,133.053442 1130.62274,127.002417 1113.60477,122.531627 C1113.93629,135.529308 1114.091,142.03919 1114.42252,155.039324 C1128.39052,158.962921 1139.81687,161.963896 1148.76788,163.895022 C1148.87839,169.001341 1148.92259,171.543459 1149.011,176.649778 C1139.88317,173.670887 1128.56733,170.338652 1115.08555,166.765946 C1115.46128,177.133173 1115.66019,182.327829 1116.03591,192.717139 C1116.14642,194.493677 1116.98626,196.248131 1118.55545,197.955963 C1120.12464,199.666249 1121.89274,200.741005 1123.79345,201.177778 C1134.66728,203.744434 1140.08209,205.079291 1150.91171,207.820165 C1151.22112,212.708097 1151.37583,215.142249 1151.66315,220.052266 C1147.13239,218.123593 1140.43571,215.863661 1131.551,213.277375 C1119.74892,209.859257 1106.13454,206.482854 1090.66366,203.238955 C1092.40966,189.210686 1092.80748,173.648803 1091.87923,156.595022 C1090.90677,138.971963 1088.49773,122.180736 1084.67421,106.223795 L1084.67421,106.223795 Z M921.500076,157.997603 C930.384785,153.350141 934.517722,143.201301 933.943089,127.421032 C933.589468,118.081939 931.423544,107.231318 927.423215,94.9795866 C923.776506,83.7559899 911.156684,76.151721 889.630051,72.7753176 C883.647975,71.8526958 877.791139,71.3938387 872.062,71.3938387 L871.661722,71.3938387 C865.826987,79.8103092 863.042228,89.5223765 863.373747,100.525133 C863.661063,110.278914 866.711038,120.032696 872.545772,129.830645 C881.983013,145.350813 895.19957,154.402813 912.107038,157.22957 C915.193848,157.76204 917.966329,158.01478 920.407291,158.01478 C920.780557,158.01478 921.144,158.009872 921.500076,157.997603 L921.500076,157.997603 Z M258.838068,120.383587 C269.51298,118.499082 274.861486,117.600998 285.536397,115.868629 C281.668676,107.670545 277.889359,100.348461 274.242651,93.9048303 C271.78941,97.7180067 266.661916,106.529536 258.838068,120.383587 L258.838068,120.383587 Z" id="Combined-Shape" fill="#F8DA1C"></path>
                <polygon id="Path-189-Copy-8" fill="#FFFFFF" opacity="0.0707206157" points="398.708984 193.354492 399.77832 214.875 467.959961 230.826172 467.959961 208.401367"></polygon>
                <path d="M469.375,209.262695 L469.375,230.923828 L507.917969,203.133789 L507.917969,181.152344 L469.375,209.262695 Z M84.0273438,248.824219 L96.6054688,263.578125 L121.976562,250.609375 L118.84375,229.851562 L84.0273438,248.824219 Z M144,236.972656 L144,255.753906 L282.40625,213.105469 L282.40625,194.484375 L144,236.972656 Z M714,184.199219 L714,201.5625 L745.9375,184.199219 L744.261719,166 L714,184.199219 Z M765,190.199219 L765,208.5625 L837.984375,200.570312 L838.414062,183.207031 L765,190.199219 Z M892,209.992188 L890,229.355469 L944.984375,230.363281 L942.414062,210 L892,209.992188 Z M966,222 L968,240.363281 L1024.60938,223 L1022.60938,205.027344 L966,222 Z M1058.99609,243.878906 L1053.54297,256.351562 L1145.58984,281.335938 L1164.6875,265.107422 L1058.99609,243.878906 Z" id="Combined-Shape" fill="#000000" opacity="0.300664646"></path>
            </g>
        </g>
    </g>
</svg>