<?xml version="1.0" encoding="UTF-8"?>
<svg width="600px" height="300px" viewBox="0 0 600 300" version="1.1" xmlns="http://www.w3.org/2000/svg" xmlns:xlink="http://www.w3.org/1999/xlink">
    <!-- Generator: Sketch 46.2 (44496) - http://www.bohemiancoding.com/sketch -->
    <title>setIcons</title>
    <desc>Created with Sketch.</desc>
    <defs></defs>
    <g id="Page-1" stroke="none" stroke-width="1" fill="none" fill-rule="evenodd">
        <g id="Desktop-HD" transform="translate(-716.000000, -498.000000)" fill="#FFFFFF">
            <g id="Group-9" transform="translate(718.000000, 498.000000)">
                <g id="standard" transform="translate(214.000000, 125.500000)">
                    <path d="M4.23535156,41.9145508 C3.53435156,42.7845508 2.95279607,44.9716264 3.93359375,47.6467285 C4.4839369,49.1477763 5.64909663,49.0225785 6.34380171,49.2351074 C6.88716987,49.4013384 7.15625213,46.8682053 7.96473598,47.072998 C8.77321984,47.2777908 8.41509432,49.9128955 9.22314264,49.9644581 C15.2799149,50.3509488 43.6810713,52.9926761 50.9052734,52.9926761 C50.6492872,51.4924971 45.3886719,47.6467285 45.3886719,47.6467285 C45.3886719,47.6467285 47.7236328,44.536377 46.8847656,44.1081543 C46.0458984,43.6799316 26.5297852,41.9145508 19.3793945,41.9145508 C14.9431001,41.9145508 11.5324689,41.9334395 9.40762395,41.9360597 C8.1076576,41.9376627 7.24394809,44.1267801 6.96606445,44.1081543 C6.40667762,44.07066 6.30713654,42.9469608 6.96606445,40.9033203 C7.62499236,38.8596799 28.4380199,8.12964978 32.5415039,2.06347656 C33.6965039,0.356476563 36.7688017,0.250676107 38.8378017,0.192676107 C49.9808017,-0.116323893 61.1368017,0.0106761071 72.2878017,0.131676107 C73.5828017,0.145676107 75.9096958,0.985652454 76.0228017,2.69067611 C76.1359076,4.39569976 73.4288017,7.83767611 72.8778017,9.02567611 C71.676679,11.6127949 74.5257979,16.6166763 74.5257979,16.6166763 C74.5257979,16.6166763 79.0898434,15.7986878 79.0898437,17.5776367 C79.0898441,19.3565856 76.3248017,22.5706761 74.5258017,25.2886761 C69.1098017,33.4736761 61.2736523,44.6456761 56.1186523,52.9926761 C54.3696523,55.8236761 53.6728017,55.7646761 50.5468017,55.5976761 C41.2581392,55.100921 18.5235095,53.625543 9.13818359,52.9926761 C8.69815341,52.9630042 8.34960571,51.4589207 7.96473598,51.4316406 C6.5773968,51.3333041 6.86601583,53.0527231 6.34380171,52.9926761 C4.5310772,52.7839976 4.00904279,52.1680306 1.95898436,49.8836746 C-0.0910740741,47.5993186 0.293945315,44.89497 0.293945312,43.137104 C0.293945306,39.2749138 5.31683567,35.0057358 9.68554687,27.9799805 C9.6855469,27.9799804 10.7188671,26.9724176 11.9130859,26.9799805 C12.7751934,26.9854401 13.2416289,27.8401423 13.6889648,27.8036679 C14.0112365,28.2224691 7.22735156,38.2055508 4.23535156,41.9145508 Z M71.6577148,14.9370117 C72.2606112,16.7131345 74.1074219,17.6899414 74.1074219,17.6899414 C74.1074219,17.6899414 57.7642813,43.5953438 52.6132813,50.9023438 C52.3721926,51.2445693 48.0395508,49.6230469 47.3747559,47.2658691 C46.956419,45.7825632 47.612455,44.5454634 48.7978516,44.1203613 C49.4962136,43.8699176 49.5664062,44.1987305 51.3586426,44.1203613 C53.1508789,44.0419922 70.0437148,12.8341445 71.6577148,10.4731445 C71.6577148,10.4731445 71.0548185,13.160889 71.6577148,14.9370117 Z M14.2299805,27 C14.2299805,27 12.2314453,25.6171875 10,26.2653419 C13.869503,17.9044132 19.5150772,11.2141126 19.5150772,11.2141126 C19.5150772,11.2141126 21.1166973,10.3232478 22.5053711,10.4956055 C23.1446054,10.5749451 23.5025431,11.4954093 24.06,11.7323419 C20.892,16.8193419 14.2299805,27 14.2299805,27 Z M25.583,2.31503266 C27.8798828,0.814453133 30.267,0.257032659 31.658,0.285032659 C31.526,1.56403266 24.8867188,10.6835938 24.8867188,10.6835938 C24.8867188,10.6835938 24.6886669,9.19238284 23.2958984,9.19238281 C22.1604464,9.19238279 20.4736328,9.85503235 20.4736328,9.85503244 L25.583,2.31503266 Z M35.0039063,12.6176758 C35.0039063,12.6176758 39.1972656,10.28125 44.5771484,10.6640625 C49.9570313,11.046875 54.1503906,13.8251953 54.1503906,13.8251953 C54.1503906,13.8251953 40.3818359,27.8740234 36.1982422,28 C32.0146484,28.1259766 35.0039063,12.6176758 35.0039063,12.6176758 Z" id="Combined-Shape"></path>
                </g>
                <g id="wild" transform="translate(11.000000, 126.000000)">
                    <path d="M55.4180717,9.68164047 C55.4180717,9.68164047 70.8399963,6.62708887 75.0333099,12.1770895 C79.2266235,17.7270902 79.933,18.4010891 80.057,23.3880891 C80.193,28.8420891 77.964,33.6610891 73.248,37.1560891 C71.69,38.3110891 70.584,40.3820891 69.842,42.2600891 C68.693,45.1660891 67.5,45.8250891 64.697,43.9440891 C62.372,42.3830891 59.668,41.1270891 56.954,40.4550891 C50.803,38.9310891 46.557,35.4960891 42.751,30.3540891 C38.685,24.8600891 33.634,19.8270891 28.162,15.7280891 C23.551,12.2720891 17.214,14.1760891 14.424,18.3770891 C11.826,22.2890891 12.875,28.6290891 16.552,32.0100891 C20.021,35.2000891 23.708,34.0510891 27.257,32.5040891 C29.036,31.7280891 30.39,30.0240891 32.116,29.0630891 C33.374,28.3630891 35.73,27.4410891 36.19,27.9330891 C37.39,29.2170891 38.226,31.1720891 38.449,32.9540891 C38.72,35.1170891 38.055,37.3800891 38.08,39.5960891 C38.115,42.8050891 36.635,43.9020891 34.195,41.9360891 C30.95,39.3210891 27.79,39.5360891 23.958,40.1700891 C16.208,41.4530891 7.432,38.8890891 5.338,28.0370891 C4.767,25.0830891 2.063,22.5400891 0,19.2730891 C2.4528835,19.0723835 7.61240959,15.4500895 7.61240959,15.4500895 C7.61240959,15.4500895 9.27433193,11.249136 10.4844799,9.68164063 C11.6946279,8.11414523 14.4239998,6.62708887 14.4239998,6.62708887 L18.0684643,0 C18.0684643,0 21.679,6.45908906 23.251,6.62708906 C31.017,7.45908906 37.025,10.9680891 41.826,17.0520891 C45.014,21.0930891 48.147,25.4040891 52.153,28.4960891 C55.178,30.8320891 59.539,32.4310891 63.318,32.4570891 C65.942,32.4760891 70.166,29.7230891 70.84,27.3880891 C71.761,24.2030891 71.047,19.3730891 69.022,16.8890891 C67.486,15.0060891 62.64,14.8440891 59.57,15.4500891 C56.133,16.1280891 53.038,18.5360891 49.469,20.3580891 C46.899,18.2420891 44.041,16.6110891 47.335,12.1770891 C48.692,10.3510891 47.923,6.94608906 48.048,5.24208906 C51.7330359,7.46186477 55.4180717,9.68164047 55.4180717,9.68164047 Z" id="Fill-18"></path>
                </g>
                <g id="naxx" transform="translate(514.000000, 14.500000)">
                    <path d="M18.477649,6.601 C22.029649,10.678 24.479649,13.489 26.460649,15.763 C29.761649,10.508 33.043649,5.282 36.325649,0.056 C37.066649,0.038 37.808649,0.019 38.549649,0 C41.803649,5.235 45.056649,10.469 48.388649,15.829 C50.356649,13.573 52.816649,10.754 55.636649,7.522 C59.806649,12.591 62.525649,17.795 63.724649,24.006 C65.262649,31.977 65.500649,31.918 72.865649,28.932 C73.435649,28.701 74.139649,28.798 76.585649,28.587 C74.318649,32.158 72.949649,34.961 70.987649,37.258 C67.805649,40.985 67.709649,47.92 71.181649,51.201 C74.149649,54.007 73.949649,56.543 70.814649,58.978 C67.022649,61.923 63.363649,65.039 59.153649,68.485 C54.034649,60.636 46.623649,59.189 37.717649,59.246 C28.858649,59.303 21.305649,60.562 16.329649,68.041 C11.336649,64.459 6.72164901,61.549 2.69064901,57.979 C1.66564901,57.072 1.98064901,53.899 2.58564901,52.067 C3.66364901,48.806 5.76464901,45.873 6.73664901,42.595 C7.08764901,41.412 5.68464901,39.409 4.62664901,38.168 C2.28164901,35.417 -0.403350994,32.934 0.0506490056,28.882 C0.778649006,28.721 1.14264901,28.512 1.39564901,28.604 C9.56664901,31.592 9.23964901,31.503 11.707649,22.847 C13.205649,17.592 15.894649,12.677 18.477649,6.601 Z M45.999649,49.99 C48.333649,49.445 51.719649,50.149 49.928649,45.81 C49.603649,45.022 50.594649,43.49 51.283649,42.518 C54.838649,37.507 54.843649,33.134 51.158649,28.466 C46.007649,21.939 37.109649,20.457 29.236649,24.815 C22.426649,28.584 20.690649,36.115 25.088649,42.515 C25.698649,43.403 26.598649,44.929 26.257649,45.503 C23.064649,50.884 27.931649,49.51 30.232649,50.008 L30.232649,56.23 C34.357649,55.301 37.983649,54.485 41.973649,53.587 C42.809649,54.009 44.513649,54.87 47.465649,56.361 C46.738649,53.2 46.415649,51.798 45.999649,49.99 Z M36.529849,38.35 C35.537849,43.469 33.590849,44.851 30.646849,43.061 C29.462849,42.342 29.100849,40.272 28.364849,38.817 C30.910849,38.672 33.455849,38.526 36.529849,38.35 Z M40.102749,38.0556 C43.529749,38.3316 45.885749,38.5216 48.241749,38.7106 C47.228749,40.1806 46.535749,42.2736 45.136749,42.9936 C41.975749,44.6216 41.320749,42.0486 40.102749,38.0556 Z M39.337949,43.2554 C39.894949,45.0734 40.452949,46.8924 41.104949,49.0194 L35.831949,49.0194 C36.596949,46.6884 37.212949,44.8134 37.827949,42.9394 C38.331949,43.0444 38.834949,43.1504 39.337949,43.2554 Z" id="Combined-Shape"></path>
                </g>
                <g id="og" transform="translate(316.600000, 10.000000)">
                    <path d="M41.3726595,35.5258243 C37.9796595,38.5788243 34.9876595,41.7038243 31.5236595,44.1648243 C30.2016595,45.1038243 27.7976595,44.6108243 25.8866595,44.6068243 C23.3806595,44.6028243 20.8726595,44.3868243 18.3736595,44.4728243 C18.2326595,44.4778243 17.8676595,47.2248243 18.0976595,47.3058243 C20.4746595,48.1468243 23.1746595,49.6658243 25.3656595,49.1648243 C33.7386595,47.2488243 39.8596595,41.5118243 44.4466595,34.7458243 C47.6996595,29.9458243 50.0986595,24.1578243 51.2876595,18.4778243 C52.5506595,12.4398243 49.6386595,8.89682431 44.8526595,7.77682431 C39.6296595,6.55482431 34.6766595,9.25982431 32.4266595,14.5138243 C32.0026595,15.5038243 31.4096595,16.4218243 30.8636595,17.4308243 C26.6356595,14.1628243 26.9256595,8.70682431 31.2046595,4.59982431 C38.1926595,-2.10817569 51.9736595,-1.31417569 58.4176595,5.90382431 C61.8056595,9.69982431 63.1326595,13.1348243 62.9176595,18.8008243 C62.6956595,24.6258243 62.5426595,29.9198243 61.0436595,35.7328243 C59.9086595,40.1328243 60.6186595,44.2248243 55.0926595,45.5038243 C54.6896595,45.5968243 54.1766595,46.1548243 54.0976595,46.5688243 C52.8816595,52.9718243 48.1746595,55.2588243 42.5856595,56.8388243 C41.5406595,57.1348243 41.0376595,59.1348243 40.1486595,60.2398243 C37.8586595,63.0848243 35.7586595,65.8218243 31.1336595,64.3438243 C29.1576595,63.7128243 26.2106595,64.4488243 24.3166595,65.5848243 C20.4526595,67.9028243 17.7886595,67.2148243 15.0306595,63.7458243 C13.4856595,61.8028243 10.4526595,60.3248243 7.93465946,60.0478243 C4.41765946,59.6598243 0.89365946,55.8928243 1.26065946,52.2788243 C1.51165946,49.8068243 0.53465946,47.2328243 0.36165946,44.6878243 C0.21065946,42.4698243 -0.50234054,39.4348243 0.62265946,38.1308243 C5.76565946,32.1658243 11.0486595,26.4898243 20.4696595,27.7038243 C25.9216595,28.4058243 36.1936595,29.6598243 41.3726595,35.5258243 Z M56.9951595,50.5050243 C63.7571595,58.8820243 68.7861595,69.2050243 70.6981595,81.7140243 C62.6691595,81.7140243 55.0771595,81.8310243 47.4991595,81.5690243 C46.5281595,81.5350243 45.2221595,79.6740243 44.7691595,78.4090243 C43.6011595,75.1500243 43.0261595,71.6770243 41.8491595,68.4230243 C39.7951595,62.7460243 41.9471595,59.8750243 47.7931595,57.9840243 C51.0541595,56.9290243 53.5261595,53.4390243 56.9951595,50.5050243 Z" id="Combined-Shape"></path>
                </g>
                <g id="core" transform="translate(421.800000, 18.500000)">
                    <path d="M5.68110528,52.5782652 C7.65510528,53.1162652 9.76510528,53.3692652 11.5791053,54.2392652 C21.3801053,58.9402652 40.6601053,51.5432652 43.8671053,39.2812652 C47.2021053,26.5302652 39.4731053,13.3122652 27.2671053,13.8422652 C22.8861053,14.0322652 18.0871053,15.9922652 14.4411053,18.5282652 C10.8481053,21.0262652 11.9121053,25.9342652 13.9601053,29.0282652 C15.4071053,31.2132652 18.9421053,32.0942652 21.6781053,33.2382652 C21.9931053,33.3692652 23.5701053,31.5442652 23.8501053,30.4462652 C24.2891053,28.7192652 24.1211053,26.8382652 24.2391053,24.4622652 C28.6461053,23.4442652 31.7101053,25.2632652 33.8551053,29.1212652 C36.2261053,33.3862652 35.3061053,38.2142652 31.3061053,41.1282652 C20.1501053,49.2542652 6.53410528,43.4972652 2.29110528,32.0522652 C-2.49789472,19.1332652 -0.0148947168,14.5552652 11.9741053,4.88026522 C22.9121053,-3.94773478 41.4401053,0.199265219 49.8561053,9.37326522 C60.1971053,20.6452652 61.9451053,34.6982652 54.6631053,48.4052652 C46.4651053,63.8362652 22.9701053,69.8282652 8.41610528,59.9882652 C6.63210528,58.7822652 5.78310528,56.1922652 4.50110528,54.2432652 C4.89510528,53.6882652 5.28810528,53.1332652 5.68110528,52.5782652" id="Fill-8"></path>
                </g>
                <g id="tgt" transform="translate(220.400000, 19.000000)">
                    <path d="M0.417886228,6.87558429 C20.9153681,-1.33439114 40.3581659,-1.36228361 59.959602,6.45981209 C62.7270584,30.5092262 52.8592241,53.022811 33.1043793,63.4563396 C31.6138752,64.2434304 28.7915055,63.8171985 27.1990196,62.8976185 C14.4539022,55.5401068 6.28140727,44.5103766 3.27599318,30.17103 C1.57280898,22.0482186 1.20846354,13.6447391 0.417886228,6.87558429 Z M6.47815376,14.9681523 C7.8003327,32.8005913 13.4555437,46.2970024 26.2948598,56.201361 C28.978164,58.2705111 31.462742,59.0304644 34.6843049,56.4879662 C48.6360888,45.4791289 54.6188486,30.8362968 54.8595171,13.495181 C54.8764938,12.3158054 53.8778692,10.3145618 52.9681222,10.0599125 C46.2853265,8.18649279 39.5336258,5.52715555 32.7449759,5.34940038 C26.172029,5.17663833 19.5761137,8.04668535 12.9033043,8.8735465 C7.54268755,9.53763184 5.72718808,11.9572992 6.47815376,14.9681523 Z M30.1185771,30.1182958 L13.5600355,28.0333333 L10.6905973,13.8935923 L29.9703984,10.1333381 L29.9703984,30.2499134 L30.1185771,30.1182958 Z M47.7380787,30.2500877 C44.513883,39.6951768 39.6527477,47.240091 31.0531493,53.2282565 C30.7280277,45.1002153 30.4281836,37.6058561 30.1231096,30.1149836 C30.1187514,30.1184701 29.9705727,30.2500877 29.9705727,30.2500877 L47.7380787,30.2500877 Z" id="Combined-Shape"></path>
                </g>
                <g id="gng" transform="translate(114.200000, 13.000000)">
                    <path d="M25.0258906,73.1209259 C25.0258906,73.1209259 26.8422968,65.9919968 20.4230005,62.0467072 C14.0037043,58.1014175 10.989,63.79 9.291,64.992 C6.257,60.259 3.369,55.754 -1.33226763e-15,50.499 C8.822,48.43 8.7505002,45.9158478 8.7505002,39.7527618 C8.7505002,33.5896759 -1.33226763e-15,31.9021759 -1.33226763e-15,31.9021759 C-1.33226763e-15,31.9021759 2.99,21.124 4.673,17.036 C9.069,19.068 12.6449997,20.6658485 16.534,17.097 C20.4230003,13.5281515 17.5571406,4.72541714 17.5571406,4.72541714 C17.5571406,4.72541714 27.661,1.263 31.514,0 C31.98,0.945 32.1469862,10.2742453 39.6108534,11.2742453 C47.0747206,12.2742453 49.870619,4.72541714 49.870619,4.72541714 L61.7192518,11.8338156 C61.7192518,11.8338156 55.3442518,16.3149776 58.7290175,22.2224884 C62.1137831,28.1299992 68.556,25.14 70.482,24.846 C71.118,29.519 71.2200006,35.3457618 71.4820006,39.7527618 C71.5400006,40.7357618 65.7995665,37.2410431 63.1137831,46.326004 C60.4279997,55.410965 69.1508925,56.9129181 69.1508925,56.9129181 C69.1508925,56.9129181 62.137,65.368 58.371,69.442 C54.499,66.53 52.1588018,63.0856934 46.0747206,64.9919968 C38.2553847,67.4420013 40.3872206,75.2097931 40.3872206,75.2097931 L25.0258906,73.1209259 Z M36.139,62.974 C49.888,62.967 60.538,52.412 60.535,38.795 C60.532,24.876 49.893,14.262 35.952,14.267 C22.037,14.272 11.642,24.848 11.655,38.986 C11.667,52.567 22.297,62.981 36.139,62.974 Z M56.2858665,39.2634134 C56.0170125,50.3538727 46.6339148,59.1355134 35.4067187,58.8047583 C24.5038105,58.4823182 15.7766797,49.202697 16.0483054,38.2194098 C16.3171594,27.3405229 25.6180303,18.3704072 36.4414834,18.5505671 C47.4922151,18.7344226 56.5547205,28.1932798 56.2858665,39.2634134 Z M45.1111,38.7374 C45.2521,33.4034 40.7391,28.7764 35.4051,28.7844 C30.5351,28.7914 25.7931,33.5554 25.8131,38.4194 C25.8351,43.5584 30.1931,47.9144 35.3641,47.9654 C40.7331,48.0184 44.9721,44.0054 45.1111,38.7374 Z" id="Combined-Shape"></path>
                </g>
                <g id="loe" transform="translate(311.000000, 127.500000)">
                    <path d="M52.370524,3.69454451 C53.724524,7.75254451 55.856524,11.5515445 58.009524,16.2545445 C54.072524,17.2665445 50.720524,18.1285445 46.630524,19.1805445 C45.716524,22.2885445 41.455524,24.1725445 37.551524,21.9535445 C35.808524,26.7665445 32.113524,28.1925445 28.175524,25.5735445 C26.509524,28.5515445 24.897524,31.4115445 21.085524,27.6805445 C20.726524,27.3285445 17.800524,28.6275445 17.833524,29.0085445 C17.997524,30.9325445 18.226524,33.3555445 19.457524,34.5255445 C20.449524,35.4685445 23.115524,35.4505445 24.666524,34.8675445 C31.600524,32.2585445 38.406524,29.3085445 45.247524,26.4535445 C50.696524,24.1805445 56.131524,21.8725445 61.567524,19.5675445 C64.465524,18.3375445 67.313524,16.9825445 70.252524,15.8625445 C73.297524,14.7025445 76.848524,13.5985445 78.370524,17.6215445 C79.815524,21.4365445 76.694524,23.8565445 73.676524,24.5165445 C69.012524,25.5365445 64.093524,25.3355445 59.317524,25.9355445 C57.856524,26.1185445 56.424524,27.0935445 55.128524,27.9355445 C46.368524,33.6335445 37.878524,39.7895445 28.843524,45.0055445 C21.576524,49.2015445 13.554524,49.2545445 5.74452405,45.8165445 C-1.26447595,42.7315445 -1.92447595,38.6305445 4.12152405,34.1925445 C7.16652405,31.9585445 10.641524,30.1525445 14.165524,28.7755445 C16.919524,27.6995445 17.637524,26.3815445 17.145524,23.5785445 C16.720524,21.1565445 17.082524,18.6075445 16.907524,16.1275445 C16.749524,13.8775445 16.335524,11.6445445 16.128524,10.1015445 C24.773524,7.10154451 33.291524,4.14654451 41.809524,1.19154451 C43.080524,1.11354451 44.351524,1.03554451 45.622524,0.958544512 C48.953524,-0.796455488 51.043524,-0.285455488 52.370524,3.69454451 Z" id="Combined-Shape"></path>
                </g>
                <g id="expert" transform="translate(7.000000, 8.000000)">
                    <path d="M42.5718,58.6013 C50.6178,58.4823 58.7548,50.2523 58.6318,42.3593 C58.5058,34.2243 50.4358,26.3603 42.3158,26.4573 C34.1348,26.5563 26.1888,34.5543 26.2628,42.6153 C26.3358,50.5703 34.6488,58.7183 42.5718,58.6013 M64.9628,65.7723 C58.6758,62.3183 53.2158,65.3433 47.4978,66.5323 C44.0188,67.2543 40.0258,67.3033 36.6518,66.3223 C31.1888,64.7323 26.0178,62.5263 19.9678,66.1243 C23.0098,59.6883 19.8608,54.6743 18.5468,49.1783 C17.3318,44.0943 17.4188,38.0923 18.9618,33.1253 C20.5288,28.0833 22.7048,23.6353 19.5698,18.7253 C20.2978,18.3343 20.6478,17.9893 20.8508,18.0603 C26.0138,19.8673 30.8478,19.6583 36.1658,17.6873 C39.8238,16.3323 44.5628,16.3913 48.4058,17.3973 C53.8908,18.8333 59.0598,20.7503 65.1068,17.8103 C62.3188,23.5633 64.2838,28.1063 66.5898,33.0393 C69.4468,39.1493 69.2488,45.9763 66.1068,51.9293 C63.7358,56.4213 62.8878,60.4603 64.9628,65.7723 Z M12.834,49.3267 C8.683,46.9247 4.719,44.6307 0,41.9007 C4.62,39.1907 8.637,36.8337 12.834,34.3717 L12.834,49.3267 Z M72.7011,34.8786 C76.7581,37.1666 80.4461,39.2466 84.9651,41.7956 C80.6081,44.3586 76.8941,46.5436 72.7011,49.0106 L72.7011,34.8786 Z M35.3282,12.2664 C37.7342,8.2484 39.9022,4.6274 42.4812,0.3214 C45.0492,4.6194 47.2072,8.2314 49.6182,12.2664 L35.3282,12.2664 Z M35.3513,71.513 L49.5873,71.513 C47.2293,75.477 45.0833,79.085 42.4653,83.485 C39.8713,79.12 37.6683,75.412 35.3513,71.513 Z" id="Combined-Shape"></path>
                </g>
                <g id="reward" transform="translate(124.000000, 119.500000)">
                    <path d="M30.94,14.769333 C31.402,15.393333 31.864,16.018333 32.327,16.642333 C36.673,14.765333 41.147,13.121333 45.289,10.868333 C46.529,10.194333 46.843,7.81933297 47.581,6.22333297 C45.85,5.85733297 43.492,4.59133297 42.497,5.28333297 C38.419,8.12133297 34.756,11.555333 30.94,14.769333 L30.94,14.769333 Z M22.846,16.645333 C23.257,16.022333 23.668,15.399333 24.079,14.776333 C20.26,11.562333 16.596,8.12333297 12.512,5.29133297 C11.481,4.57533297 9.107,5.79733297 7.349,6.12933297 C8.056,7.70033297 8.343,10.051333 9.547,10.699333 C13.81,12.996333 18.388,14.710333 22.846,16.645333 L22.846,16.645333 Z M24.261,37.167333 C16.478,37.167333 -4.4408921e-16,37.1903326 -4.4408921e-16,37.1903326 L-4.4408921e-16,19.755333 L20.915,19.755333 C21.033,19.361333 17.847,17.253333 16.191,16.476333 C12.435,14.715333 8.623,13.043333 5.01,11.020333 C2.353,9.53333297 1.11605787,7.08633306 2.59305787,3.88833306 C4.14105787,0.534333058 6.827,-1.00066703 9.952,0.696332971 C14.384,3.10233297 18.719,6.05233297 22.295,9.58133297 C27.9,15.113333 27.36,15.143333 32.864,9.63533297 C36.311,6.18433297 40.437,3.22433297 44.704,0.840332971 C47.955,-0.975667029 51.402,0.266332971 53.061,3.88833297 C54.622,7.29633297 52.665,9.80233297 49.827,11.304333 C44.869,13.928333 39.729,16.209333 34.613,19.433333 L55.95,19.433333 C55.95,24.996333 55.9500008,37.1903326 55.9500008,37.1903326 C55.9500008,37.1903326 38.5,37.190333 30.454,37.190333 C30.454,32.644333 30.214,28.525333 30.518,24.446333 C30.856,19.911333 28.883,18.796333 24.261,19.996333 L24.261,37.167333 Z M30.7768,62.511333 L30.7768,44.278333 L55.6388,44.278333 L55.6388,62.511333 L30.7768,62.511333 Z M0.3348,62.505333 L0.3348,44.322333 L23.7848,44.322333 L23.7848,62.505333 L0.3348,62.505333 Z" id="Combined-Shape"></path>
                </g>
                <g id="brm" transform="translate(413.000000, 123.500000)">
                    <path d="M41.672,32.4052712 C35.242,34.7992712 29.75,36.8442712 23.545,39.1542712 C26.806,43.1192712 29.478,46.3672712 32.456,49.9892712 L0,49.9892712 C1.496,47.1512712 2.532,44.9702712 3.758,42.9002712 C8.834,34.3312712 14.026,25.8302712 19.048,17.2302712 C20.765,14.2892712 22.28,14.0332712 24.762,16.4732712 C30.065,21.6872712 35.577,26.6892712 41.672,32.4052712 Z M60.6214,23.5633712 C65.2634,32.4203712 69.5504,40.6003712 73.9264,48.9493712 C62.6144,54.4653712 59.5604,45.9193712 55.7074,38.1943712 C53.3814,41.6723712 51.5984,44.4413712 49.7104,47.1363712 C46.9064,51.1373712 42.5714,51.8273712 38.6704,48.7513712 C35.4204,46.1893712 32.3574,43.3913712 28.8874,40.4203712 C39.0344,33.9133712 52.2854,34.5023712 60.6214,23.5633712 Z M27.2069,16.3784712 C30.3019,11.4014712 33.1539,6.72747119 36.0999,2.11347119 C37.7649,-0.49552881 40.0799,-0.83552881 41.5599,1.91947119 C46.0279,10.2344712 50.1569,18.7324712 54.5199,27.3614712 C49.8509,30.1834712 46.1229,31.3454712 41.7399,27.3314712 C37.3569,23.3174712 32.2349,20.1104712 27.2069,16.3784712 Z" id="Combined-Shape"></path>
                </g>
                <g id="gangs" transform="translate(16.000000, 221.000000)">
                    <path d="M9.22940909,26.0935983 C9.22940909,26.0935983 8.52605725,19.9849548 13.8767899,15.8233469 C19.2275225,11.661739 25.281607,12.3466853 25.281607,12.3466853 C25.281607,12.3466853 25.1777476,8.11737159 31.406684,4.64596876 C37.6356204,1.17456592 43.8330046,4.24170579 43.8330046,4.24170579 C43.8330046,4.24170579 55.53954,-6.06075523 64.4964298,5.44660664 C73.4533196,16.9539685 55.4126737,23.1145418 56.5170018,27.2984992 C57.6213299,31.4824566 64.5713663,26.8975229 66.1805302,31.2425282 C67.789694,35.5875334 57.3899469,42.8807003 49.1528424,47.7528908 C40.9157379,52.6250812 26.8756521,59.1531065 23.462095,56.9957227 C20.0485379,54.8383388 28.1042171,47.3249636 23.462095,46.3172642 C18.8199729,45.3095648 9.25175858,57.6228233 2.02564016,43.9547909 C-5.20047826,30.2867585 9.22940909,26.0935983 9.22940909,26.0935983 Z M41.100004,23.6939811 C43.9967071,22.7667787 45.4425299,17.5786623 43.8726563,13.6643155 C42.3027827,9.74996862 37.5926484,7.49848349 34.7481453,8.62187441 C31.9036422,9.74526533 29.3579724,12.8774817 31.4483077,17.6412113 C33.5386431,22.404941 38.2033009,24.6211836 41.100004,23.6939811 Z M58.0748933,19.1836596 C60.9715964,18.2564571 62.4174192,13.0683407 60.8475456,9.15399388 C59.277672,5.23964704 54.5675377,2.98816191 51.7230346,4.11155283 C48.8785315,5.23494375 46.3328617,8.3671601 48.423197,13.1308898 C50.5135324,17.8946194 55.1781902,20.110862 58.0748933,19.1836596 Z M10.3199331,45.3542638 C14.3162537,45.3542638 17.5559116,42.1146059 17.5559116,38.1182853 C17.5559116,34.1219648 14.3162537,30.8823068 10.3199331,30.8823068 C6.32361253,30.8823068 3.0839546,34.1219648 3.0839546,38.1182853 C3.0839546,42.1146059 6.32361253,45.3542638 10.3199331,45.3542638 Z M27.6052974,43.4254664 C28.5324999,46.3221695 35.0864631,49.9196739 45.7767536,43.4254664 C56.4670441,36.9312588 54.1124588,32.8827878 52.9890679,30.0382846 C51.865677,27.1937815 44.8788297,25.0701228 36.4957961,28.7683073 C28.1127625,32.4664918 26.678095,40.5287633 27.6052974,43.4254664 Z M25.7351703,32.1779204 C28.6318734,31.2507179 30.2453176,26.40376 28.675444,22.4894132 C27.1055703,18.5750663 21.9427415,16.4172477 19.0982383,17.5406386 C16.2537352,18.6640295 13.3640661,23.1796183 15.4544015,27.9433479 C17.5447368,32.7070776 22.8384673,33.1051228 25.7351703,32.1779204 Z" id="Combined-Shape"></path>
                </g>
                <g id="kara" transform="translate(526.500000, 119.500000)">
                    <path d="M5.7106094,0 L10.5324755,0 L12.4625007,4.36516352 L17.5839638,4.36516352 L17.5839638,0 L28.4443518,0 L28.4443518,4.36516352 L33.8014734,4.36516352 L35.2784496,0 L40.5515379,0 C40.5515379,0 40.6492723,7.00399118 40.5515379,10.9855245 C40.4538035,14.9670578 39.2974325,18.0050436 33.8014734,18.0050436 L12.4625007,18.0050436 C7.34103771,18.0050436 5.7106094,15.909692 5.7106094,10.9855245 L5.7106094,0 Z M9.93054149,39.0142769 C12.3243582,28.7303413 12.546534,20.5771927 12.546534,20.5771927 L34.2682234,20.5771927 C34.2682234,20.5771927 34.6782042,34.290512 35.8438474,39.0142769 C37.0094907,43.7380419 41.0192014,47.9355056 41.0192014,47.9355056 C41.0192014,47.9355056 9.93054149,47.9355056 6.17827287,47.9355056 C2.42600425,47.9355056 7.53672474,49.2982125 9.93054149,39.0142769 Z M2.32004924,50.273823 L43.4744346,50.273823 C43.4744346,50.273823 46,53.2212719 46,56.1687208 C46,59.1161697 43.4744346,62.0636186 43.4744346,62.0636186 L2.32004924,62.0636186 C2.32004924,62.0636186 6.65510339e-16,59.1161697 0,56.1687208 C0,53.2212719 2.32004924,50.273823 2.32004924,50.273823 Z M19.7136066,31.5672842 L19.7136066,39.2837315 L27.1962221,39.2837315 L27.1962221,31.5672842 L23.4549143,28.0926908 L19.7136066,31.5672842 Z" id="Combined-Shape"></path>
                </g>
                <g id="icecrown" transform="translate(227.000000, 216.000000)">
                    <path d="M18.1105092,54.6263914 C18.1105092,55.3028715 21.6220785,58.9654354 21.6220785,60.1937678 C21.6220785,61.4221001 16.8350883,68.7068486 14.4571668,69.0847203 C12.0792453,69.462592 4.21137532,67.2317531 3.14915112,65.105103 C2.44100165,63.6873363 3.41604971,62.6060649 6.07429532,61.8612887 C2.35131942,52.7484986 0.482134199,47.8537803 0.466739645,47.1771341 C0.451345092,46.5004878 1.65194127,45.0021284 4.06852818,42.6820559 C2.09086506,37.6889647 1.17560514,34.7504056 1.32274843,33.8663786 C1.46989172,32.9823515 3.65036914,31.4150314 7.86418069,29.1644181 C4.12760031,27.3471776 2.25931011,26.1027267 2.25931011,25.4310655 C2.25931011,24.4235738 8.2144547,22.8300875 10.8442383,19.4985352 C12.5974273,17.2775003 13.2626568,12.213864 15.5671857,6.45472687 C14.9002077,20.1524935 15.2715416,24.9814222 15.5671857,26.1811523 C25.6982422,17.3686523 16.6230469,18.3671576 16.6230469,10.7394332 C16.6230469,5.65428357 19.2810323,2.07447251 21.6220785,0 C19.8913876,7.43086161 18.8632813,12.5358686 24,12.5358686 C29.1367188,12.5358686 27.7568409,7.77857338 26.3779215,0 C28.7189677,2.07447251 31.1835938,5.65428357 31.1835938,10.7394332 C31.1835938,18.3671576 22.2109457,15.3046875 31.7724609,26.1811523 C33.0216815,25.6435547 33.0997923,20.1524935 32.4328143,6.45472687 C34.7373432,12.213864 36.2980805,18.3497659 38.0512695,20.5708008 C40.6810531,23.9023531 45.7406899,24.4235738 45.7406899,25.4310655 C45.7406899,26.1027267 43.8723997,27.3471776 40.1358193,29.1644181 C44.3496309,31.4150314 46.5301083,32.9823515 46.6772516,33.8663786 C46.8243949,34.7504056 45.9091349,37.6889647 43.9314718,42.6820559 C46.3480587,45.0021284 47.5486549,46.5004878 47.5332604,47.1771341 C47.5178658,47.8537803 45.6486806,52.7484986 41.9257047,61.8612887 C44.5839503,62.6060649 45.5589984,63.6873363 44.8508489,65.105103 C43.7886247,67.2317531 35.9207547,69.462592 33.5428332,69.0847203 C31.1649117,68.7068486 26.3779215,61.4221001 26.3779215,60.1937678 C26.3779215,58.9654354 29.8894908,55.3028715 29.8894908,54.6263914 C29.8894908,54.1940236 24.68697,44.5880618 24,44.6035156 C23.31303,44.6189695 18.1105092,54.1852311 18.1105092,54.6263914 Z M8.50878906,37.6083984 C10.700323,42.6910933 12.2972185,45.6870165 13.2994755,46.5961681 C14.3017325,47.5053198 16.9618577,47.036719 21.279851,45.1903657 L8.50878906,37.6083984 Z M39.6464844,37.9052734 L26.6022494,45.2498886 C30.4385364,47.0451947 32.9060506,47.6471637 34.0047921,47.0557957 C35.1035337,46.4644278 36.9840977,43.4142537 39.6464844,37.9052734 Z" id="Combined-Shape"></path>
                </g>
                <g id="ungoro" transform="translate(127.000000, 224.000000)">
                    <path d="M3.2120001,55.8092155 C9.0458055,59.9836469 15.2742525,52.652709 20.800488,50.3550178 C26.3267235,48.0573266 39.2008101,45.8911826 41.5999806,44.1234387 C43.9991511,42.3556948 57.9469134,31.5663182 56.6314414,30.3823934 C55.3159693,29.1984685 51.4823079,30.2427027 48.2236956,31.1090351 C44.9650834,31.9753674 43.2029773,31.1090351 40.0533613,31.1090351 C36.9037453,31.1090351 28.748701,36.5588479 26.9381048,34.3225454 C25.1275086,32.0862429 31.3148683,23.6634632 35.1028014,23.0946781 C38.8907346,22.5258931 43.7730152,3.52546513 41.5999806,1.52970609 C39.426946,-0.46605296 25.2849949,8.93894588 23.443334,12.7099658 C21.6016731,16.4809857 23.3268208,17.4913935 21.8547449,20.2388509 C20.382669,22.9863083 17.0445021,26.0288072 14.0258069,26.0288072 C11.0071117,26.0288072 12.7078292,13.6026076 11.4568779,12.7099658 C10.2059266,11.817324 10.7759645,11.0274144 9.85513402,9.4526064 C8.93430358,7.87779842 10.3312096,0 9.00696775,0 C7.68272587,0 1.27387126,2.89529137 1.27387126,12.7099658 C1.27387126,22.5246402 1.27387126,27.2033359 1.27387126,34.3225454 C1.27387126,41.4417549 -2.62180529,51.6347842 3.2120001,55.8092155 Z" id="Path-4"></path>
                </g>
            </g>
            <path d="M1093.25135,720.118229 C1091.70533,719.70579 1090.58409,720.331857 1089.57089,721.718589 C1087.73777,724.227179 1090.05125,726.999408 1090.05125,726.999408 C1090.05125,726.999408 1090.69152,724.598868 1091.97144,724.598868 C1093.25135,724.598868 1098.21235,728.599151 1098.21235,738.361226 C1098.21235,748.123301 1094.53189,751.643229 1092.6117,751.643229 C1090.69152,751.643229 1088.98434,749.242688 1089.73142,747.002678 C1090.50073,744.694751 1088.93124,739.961586 1086.21088,739.641761 L1085.70089,736.752222 C1085.70089,736.752222 1087.13084,734.640635 1086.89066,733.160672 C1086.65048,731.680709 1084.3123,729.674084 1083.94123,728.397254 C1083.1639,725.722577 1081.95683,722.483576 1079.61495,720.237392 C1079.30068,719.936089 1081.40918,718.998841 1080.10951,717.738681 C1078.80921,716.478521 1074.33043,716.709437 1074.33043,716.709437 C1073.17708,716.330956 1071.90951,716.118563 1070.51784,716.118563 C1070.30792,716.01854 1069.64789,713.238285 1068.88784,713.578485 C1068.12779,713.918685 1065.28209,717.287345 1065.28209,717.287345 C1060.75329,719.49031 1058.26755,724.39697 1057.10494,728.397871 C1056.73387,729.675319 1054.40063,731.681327 1054.16045,733.161289 C1053.92027,734.641252 1055.3527,736.752839 1055.3527,736.752839 L1054.84394,739.642379 C1052.12357,739.962204 1050.5547,744.695368 1051.32401,747.003295 C1052.07048,749.243923 1050.36392,751.643846 1048.44373,751.643846 C1046.52355,751.643846 1042.84309,748.123301 1042.84309,738.361843 C1042.84309,728.600386 1047.80408,724.599485 1049.084,724.599485 C1050.36392,724.599485 1051.00419,727.000026 1051.00419,727.000026 C1051.00419,727.000026 1053.31767,724.227796 1051.48454,721.719207 C1050.47073,720.332475 1049.35011,719.706408 1047.80408,720.118846 C1046.20434,720.544868 1035.80261,727.319233 1035.96253,741.561329 C1036.05885,750.127456 1037.93643,754.256781 1040.89635,757.377236 C1040.89635,757.377236 1041.96326,758.923881 1044.04336,758.604056 C1046.12346,758.284231 1051.43083,751.589513 1059.05909,752.336595 L1059.32581,749.723044 C1059.32581,749.723044 1060.24577,748.362861 1060.84591,749.723044 L1060.92617,753.203457 C1060.92617,753.203457 1065.64699,763.524917 1070.92781,766.08537 L1073.00791,767.365288 C1073.00791,767.365288 1073.81673,767.878984 1073.12769,768.885383 C1072.60782,769.645431 1071.32728,768.445161 1071.32728,768.445161 C1071.32728,768.445161 1069.36696,766.765153 1068.64705,767.604848 C1067.92713,768.445161 1069.28732,773.885892 1068.16669,774.36563 C1067.04607,774.845367 1066.56633,774.76572 1066.36629,774.36563 C1066.16624,773.96554 1065.92606,766.804668 1065.92606,766.804668 C1065.92606,766.804668 1062.24561,755.202673 1056.68448,754.842715 C1051.12335,754.482757 1046.24385,759.123926 1046.12407,762.444427 C1046.00429,765.764927 1047.80408,770.965481 1052.5249,770.925966 C1057.24571,770.885834 1057.65692,768.133362 1058.08603,766.524975 C1058.56638,764.72457 1058.36634,762.004204 1056.80611,761.844292 C1056.80611,761.844292 1056.16584,761.724511 1055.6861,763.284739 C1055.6861,763.284739 1055.32615,764.004655 1054.68588,764.044787 C1053.56526,764.114556 1052.08529,763.124827 1052.52552,761.724511 C1053.04662,760.065496 1054.12588,758.804101 1056.04606,759.404236 C1058.60652,760.204416 1060.60697,763.244607 1060.28652,766.60524 C1059.9667,769.965873 1054.76553,772.365797 1055.32553,776.847053 C1055.88553,781.327691 1057.88598,783.888144 1066.92752,783.848012 C1075.96907,783.807879 1082.48967,769.205826 1083.24972,763.965139 C1084.00977,758.724453 1081.24927,749.122908 1081.24927,749.122908 C1081.24927,749.122908 1081.00909,747.682461 1082.44954,749.122908 C1083.88999,750.563356 1085.41008,762.004822 1085.41008,762.004822 L1085.25017,762.044954 C1085.25017,762.044954 1091.17126,761.885041 1094.05153,761.084861 C1096.93181,760.284681 1104.933,755.804042 1105.09291,741.561947 C1105.25282,727.319233 1094.85171,720.544868 1093.25135,720.118229 L1093.25135,720.118229 Z M1070.52772,735.200638 C1070.52772,735.200638 1073.24808,735.560595 1073.88835,737.561046 C1073.88835,737.561046 1070.892,736.970789 1070.52772,737.012774 C1070.16344,736.970789 1067.16708,737.561046 1067.16708,737.561046 C1067.80735,735.560595 1070.52772,735.200638 1070.52772,735.200638 Z M1063.48663,740.73213 L1058.36572,740.73213 C1058.36572,740.73213 1056.97899,736.46512 1058.04589,735.184585 C1059.1128,733.904667 1065.1938,739.497284 1063.48663,740.73213 Z M1075.76161,743.283322 C1074.06308,740.716077 1070.52834,740.953168 1070.52834,740.953168 C1070.52834,740.953168 1066.99297,740.716077 1065.29506,743.283322 C1064.4566,744.550891 1063.82127,743.242572 1064.22815,742.506604 C1064.60046,741.832995 1066.56571,739.481231 1070.52895,739.481231 C1074.49219,739.481231 1076.45745,741.832995 1076.82975,742.506604 C1077.23478,743.242572 1076.59946,744.550891 1075.76161,743.283322 Z M1082.68972,740.73213 L1077.56881,740.73213 C1075.86164,739.497284 1081.94263,733.904667 1083.00954,735.184585 C1084.07645,736.46512 1082.68972,740.73213 1082.68972,740.73213 Z" id="Shape" fill-rule="nonzero"></path>
            <path d="M1193.14796,764.287641 L1190.28273,755.559972 C1191.34923,754.045962 1192.24223,752.401987 1192.93559,750.656186 L1208,741.662561 L1192.75405,732.680324 C1192.12366,731.184401 1191.34186,729.768198 1190.43212,728.447124 L1192.94765,718.537723 L1183.34172,721.691019 C1182.19818,720.982917 1180.98965,720.371284 1179.72753,719.862817 L1170.85315,704.998047 L1162.13151,719.801855 C1160.70928,720.363915 1159.35537,721.057948 1158.0832,721.870556 L1147.19707,718.737358 L1150.43276,729.75882 C1149.80907,730.805899 1149.26577,731.906571 1148.8062,733.049448 L1134.18863,741.662561 L1148.62198,750.279693 C1149.11236,751.58067 1149.71394,752.826044 1150.41467,754.006437 L1147.39804,764.487945 L1157.47492,761.529596 C1158.91792,762.515042 1160.47681,763.341049 1162.12414,763.992207 L1170.85315,778.809414 L1179.7349,763.932585 C1181.12229,763.372535 1182.44404,762.685871 1183.68673,761.885991 L1193.14796,764.287641 L1193.14796,764.287641 Z M1160.19344,754.13707 C1159.99447,753.866424 1159.7044,752.887007 1159.7044,752.887007 L1159.16043,751.745469 C1159.16043,751.745469 1158.67139,750.930181 1159.7044,751.092971 C1160.73741,751.255761 1164.48827,752.723547 1166.55362,752.77848 C1168.61965,752.832743 1169.70692,751.745469 1170.08743,751.636943 C1170.46794,751.528417 1172.69676,750.658195 1173.34925,750.549669 C1174.00175,750.441143 1178.0246,747.97987 1178.62216,742.061831 C1179.2204,736.143791 1173.89256,732.664916 1170.84846,732.610653 C1170.84846,732.610653 1168.9459,732.55639 1168.51112,732.828376 C1168.07634,733.100362 1165.2493,734.404688 1163.99923,734.568148 C1163.99923,734.568148 1162.96622,735.546896 1163.12968,736.742696 C1163.29247,737.938496 1163.29247,742.055132 1167.64157,742.062501 C1167.64157,742.062501 1168.67994,741.501781 1168.56873,737.437399 C1168.56873,737.437399 1173.98166,736.987215 1174.12234,742.062501 C1174.26302,747.137786 1169.27214,747.840528 1166.17914,747.700515 C1163.08614,747.560503 1156.54776,743.27036 1157.04014,736.451952 L1157.42133,734.023506 L1158.5086,732.773443 C1158.5086,732.773443 1161.0094,727.717585 1166.71708,726.195535 C1166.71708,726.195535 1167.20612,725.380247 1167.80436,725.380247 C1168.40259,725.380247 1168.89163,726.032746 1169.76118,726.141272 C1170.63073,726.249799 1170.95698,725.325984 1171.77227,725.380247 C1172.58756,725.434511 1172.64182,726.032746 1173.51204,726.195535 C1174.3816,726.358325 1178.62216,726.848034 1182.04678,731.522709 C1182.04678,731.522709 1182.20957,732.718509 1182.69927,732.936232 C1183.18831,733.153955 1184.32985,733.642994 1184.49331,734.023506 C1184.6561,734.404019 1185.79831,738.481129 1185.68911,740.220901 C1185.57991,741.960673 1185.09088,750.06063 1179.70944,752.560757 L1179.60091,754.028544 C1179.60091,754.028544 1175.57807,757.616615 1169.43493,757.181839 C1163.29247,756.746394 1161.63845,756.099925 1160.19344,754.13707 Z" id="Shape" fill-rule="nonzero"></path>
        </g>
    </g>
</svg>