<?xml version="1.0" encoding="UTF-8"?>
<svg width="606px" height="300px" viewBox="0 0 606 300" version="1.1" xmlns="http://www.w3.org/2000/svg" xmlns:xlink="http://www.w3.org/1999/xlink">
    <!-- Generator: Sketch 49.3 (51167) - http://www.bohemiancoding.com/sketch -->
    <title>setIcons</title>
    <desc>Created with Sketch.</desc>
    <defs></defs>
    <g id="logo-+-icons" stroke="none" stroke-width="1" fill="none" fill-rule="evenodd">
        <g id="Desktop-HD" transform="translate(-716.000000, -498.000000)" fill="#FFFFFF">
            <g id="Group-9" transform="translate(718.000000, 498.000000)">
                <g id="standard" transform="translate(214.000000, 125.500000)">
                    <path d="M4.23535156,41.9145508 C3.53435156,42.7845508 2.95279607,44.9716264 3.93359375,47.6467285 C4.4839369,49.1477763 5.64909663,49.0225785 6.34380171,49.2351074 C6.88716987,49.4013384 7.15625213,46.8682053 7.96473598,47.072998 C8.77321984,47.2777908 8.41509432,49.9128955 9.22314264,49.9644581 C15.2799149,50.3509488 43.6810713,52.9926761 50.9052734,52.9926761 C50.6492872,51.4924971 45.3886719,47.6467285 45.3886719,47.6467285 C45.3886719,47.6467285 47.7236328,44.536377 46.8847656,44.1081543 C46.0458984,43.6799316 26.5297852,41.9145508 19.3793945,41.9145508 C14.9431001,41.9145508 11.5324689,41.9334395 9.40762395,41.9360597 C8.1076576,41.9376627 7.24394809,44.1267801 6.96606445,44.1081543 C6.40667762,44.07066 6.30713654,42.9469608 6.96606445,40.9033203 C7.62499236,38.8596799 28.4380199,8.12964978 32.5415039,2.06347656 C33.6965039,0.356476563 36.7688017,0.250676107 38.8378017,0.192676107 C49.9808017,-0.116323893 61.1368017,0.0106761071 72.2878017,0.131676107 C73.5828017,0.145676107 75.9096958,0.985652454 76.0228017,2.69067611 C76.1359076,4.39569976 73.4288017,7.83767611 72.8778017,9.02567611 C71.676679,11.6127949 74.5257979,16.6166763 74.5257979,16.6166763 C74.5257979,16.6166763 79.0898434,15.7986878 79.0898437,17.5776367 C79.0898441,19.3565856 76.3248017,22.5706761 74.5258017,25.2886761 C69.1098017,33.4736761 61.2736523,44.6456761 56.1186523,52.9926761 C54.3696523,55.8236761 53.6728017,55.7646761 50.5468017,55.5976761 C41.2581392,55.100921 18.5235095,53.625543 9.13818359,52.9926761 C8.69815341,52.9630042 8.34960571,51.4589207 7.96473598,51.4316406 C6.5773968,51.3333041 6.86601583,53.0527231 6.34380171,52.9926761 C4.5310772,52.7839976 4.00904279,52.1680306 1.95898436,49.8836746 C-0.0910740741,47.5993186 0.293945315,44.89497 0.293945312,43.137104 C0.293945306,39.2749138 5.31683567,35.0057358 9.68554687,27.9799805 C9.6855469,27.9799804 10.7188671,26.9724176 11.9130859,26.9799805 C12.7751934,26.9854401 13.2416289,27.8401423 13.6889648,27.8036679 C14.0112365,28.2224691 7.22735156,38.2055508 4.23535156,41.9145508 Z M71.6577148,14.9370117 C72.2606112,16.7131345 74.1074219,17.6899414 74.1074219,17.6899414 C74.1074219,17.6899414 57.7642813,43.5953438 52.6132813,50.9023438 C52.3721926,51.2445693 48.0395508,49.6230469 47.3747559,47.2658691 C46.956419,45.7825632 47.612455,44.5454634 48.7978516,44.1203613 C49.4962136,43.8699176 49.5664062,44.1987305 51.3586426,44.1203613 C53.1508789,44.0419922 70.0437148,12.8341445 71.6577148,10.4731445 C71.6577148,10.4731445 71.0548185,13.160889 71.6577148,14.9370117 Z M14.2299805,27 C14.2299805,27 12.2314453,25.6171875 10,26.2653419 C13.869503,17.9044132 19.5150772,11.2141126 19.5150772,11.2141126 C19.5150772,11.2141126 21.1166973,10.3232478 22.5053711,10.4956055 C23.1446054,10.5749451 23.5025431,11.4954093 24.06,11.7323419 C20.892,16.8193419 14.2299805,27 14.2299805,27 Z M25.583,2.31503266 C27.8798828,0.814453133 30.267,0.257032659 31.658,0.285032659 C31.526,1.56403266 24.8867188,10.6835938 24.8867188,10.6835938 C24.8867188,10.6835938 24.6886669,9.19238284 23.2958984,9.19238281 C22.1604464,9.19238279 20.4736328,9.85503235 20.4736328,9.85503244 L25.583,2.31503266 Z M35.0039063,12.6176758 C35.0039063,12.6176758 39.1972656,10.28125 44.5771484,10.6640625 C49.9570313,11.046875 54.1503906,13.8251953 54.1503906,13.8251953 C54.1503906,13.8251953 40.3818359,27.8740234 36.1982422,28 C32.0146484,28.1259766 35.0039063,12.6176758 35.0039063,12.6176758 Z" id="Combined-Shape"></path>
                </g>
                <g id="wild" transform="translate(11.000000, 131.000000)" fill-rule="nonzero">
                    <path d="M70.3968596,50.1029554 C67.0626066,51.6312341 57.4773442,46.0741458 57.4773442,46.0741458 C47.2254853,45.8345778 40.8702226,38.1127064 40.8702226,38.1127064 L50.7478477,28.5882226 C51.8846838,30.1876727 55.5315689,33.987717 58.5881264,33.987717 C61.6446838,33.987717 64.8397713,32.3209083 65.3951624,27.5975421 C65.9505535,22.8741759 62.1505091,20.3539458 60.8999259,20.3539458 C59.6493428,20.3539458 57.3083121,20.1785591 52.7533425,24.1247591 C47.9918488,28.2488875 36.082713,39.2671098 36.082713,39.2671098 C36.082713,46.7687024 27.7473983,49.1307032 27.7473983,49.1307032 C27.8865638,47.324729 26.9136762,44.9627282 26.9136762,44.9627282 C23.0240321,46.6295369 15.6609695,48.0192856 8.85393352,43.2959194 C2.04689751,38.5725532 2.46375857,29.1258208 2.46375857,29.1258208 L0.102393197,25.0970112 L3.99203728,22.1796193 C4.82575939,18.1508097 9.9827959,13.1906486 9.9827959,13.1906486 C13.87244,-0.145727867 20.8011968,0.368762571 20.8011968,0.368762571 C20.5235012,5.92585088 22.8848666,8.5649118 22.8848666,8.5649118 C34.6929644,8.28721625 40.8702226,17.7746222 40.8702226,17.7746222 L30.5569765,27.0610804 C27.3618891,23.3099664 22.1261286,20.9766955 19.9058352,20.8801058 C15.8763901,20.7047191 13.4908773,23.7244199 13.4235187,28.5882226 C13.3682337,32.5674663 16.9515866,34.4052136 18.7670928,34.2819345 C21.3508688,34.1065479 21.7454888,28.9383604 21.7454888,28.9383604 C21.7454888,28.9383604 24.441741,30.6121592 24.4608047,33.6687167 C24.4690657,35.0438498 27.1920072,32.8769348 27.1920072,32.8769348 L43.7234712,18.2899752 L42.1951924,6.20354643 L54.5593168,10.0931905 C54.5593168,10.0931905 62.4904796,6.02307609 70.3962241,14.6773912 C72.4468501,15.3503422 74.4549003,12.6725183 74.4549003,12.6725183 C75.7938122,15.5181034 73.7298416,19.6790884 73.7298416,19.6790884 C73.7298416,19.6790884 83.4358413,32.9195106 68.8685809,42.4621973 C68.0348587,45.5187547 70.3968596,50.1029554 70.3968596,50.1029554 Z" id="Shape"></path>
                </g>
                <g id="naxx" transform="translate(514.000000, 14.500000)">
                    <path d="M18.477649,6.601 C22.029649,10.678 24.479649,13.489 26.460649,15.763 C29.761649,10.508 33.043649,5.282 36.325649,0.056 C37.066649,0.038 37.808649,0.019 38.549649,0 C41.803649,5.235 45.056649,10.469 48.388649,15.829 C50.356649,13.573 52.816649,10.754 55.636649,7.522 C59.806649,12.591 62.525649,17.795 63.724649,24.006 C65.262649,31.977 65.500649,31.918 72.865649,28.932 C73.435649,28.701 74.139649,28.798 76.585649,28.587 C74.318649,32.158 72.949649,34.961 70.987649,37.258 C67.805649,40.985 67.709649,47.92 71.181649,51.201 C74.149649,54.007 73.949649,56.543 70.814649,58.978 C67.022649,61.923 63.363649,65.039 59.153649,68.485 C54.034649,60.636 46.623649,59.189 37.717649,59.246 C28.858649,59.303 21.305649,60.562 16.329649,68.041 C11.336649,64.459 6.72164901,61.549 2.69064901,57.979 C1.66564901,57.072 1.98064901,53.899 2.58564901,52.067 C3.66364901,48.806 5.76464901,45.873 6.73664901,42.595 C7.08764901,41.412 5.68464901,39.409 4.62664901,38.168 C2.28164901,35.417 -0.403350994,32.934 0.0506490056,28.882 C0.778649006,28.721 1.14264901,28.512 1.39564901,28.604 C9.56664901,31.592 9.23964901,31.503 11.707649,22.847 C13.205649,17.592 15.894649,12.677 18.477649,6.601 Z M45.999649,49.99 C48.333649,49.445 51.719649,50.149 49.928649,45.81 C49.603649,45.022 50.594649,43.49 51.283649,42.518 C54.838649,37.507 54.843649,33.134 51.158649,28.466 C46.007649,21.939 37.109649,20.457 29.236649,24.815 C22.426649,28.584 20.690649,36.115 25.088649,42.515 C25.698649,43.403 26.598649,44.929 26.257649,45.503 C23.064649,50.884 27.931649,49.51 30.232649,50.008 L30.232649,56.23 C34.357649,55.301 37.983649,54.485 41.973649,53.587 C42.809649,54.009 44.513649,54.87 47.465649,56.361 C46.738649,53.2 46.415649,51.798 45.999649,49.99 Z M36.529849,38.35 C35.537849,43.469 33.590849,44.851 30.646849,43.061 C29.462849,42.342 29.100849,40.272 28.364849,38.817 C30.910849,38.672 33.455849,38.526 36.529849,38.35 Z M40.102749,38.0556 C43.529749,38.3316 45.885749,38.5216 48.241749,38.7106 C47.228749,40.1806 46.535749,42.2736 45.136749,42.9936 C41.975749,44.6216 41.320749,42.0486 40.102749,38.0556 Z M39.337949,43.2554 C39.894949,45.0734 40.452949,46.8924 41.104949,49.0194 L35.831949,49.0194 C36.596949,46.6884 37.212949,44.8134 37.827949,42.9394 C38.331949,43.0444 38.834949,43.1504 39.337949,43.2554 Z" id="Combined-Shape"></path>
                </g>
                <g id="og" transform="translate(316.600000, 10.000000)">
                    <path d="M41.3726595,35.5258243 C37.9796595,38.5788243 34.9876595,41.7038243 31.5236595,44.1648243 C30.2016595,45.1038243 27.7976595,44.6108243 25.8866595,44.6068243 C23.3806595,44.6028243 20.8726595,44.3868243 18.3736595,44.4728243 C18.2326595,44.4778243 17.8676595,47.2248243 18.0976595,47.3058243 C20.4746595,48.1468243 23.1746595,49.6658243 25.3656595,49.1648243 C33.7386595,47.2488243 39.8596595,41.5118243 44.4466595,34.7458243 C47.6996595,29.9458243 50.0986595,24.1578243 51.2876595,18.4778243 C52.5506595,12.4398243 49.6386595,8.89682431 44.8526595,7.77682431 C39.6296595,6.55482431 34.6766595,9.25982431 32.4266595,14.5138243 C32.0026595,15.5038243 31.4096595,16.4218243 30.8636595,17.4308243 C26.6356595,14.1628243 26.9256595,8.70682431 31.2046595,4.59982431 C38.1926595,-2.10817569 51.9736595,-1.31417569 58.4176595,5.90382431 C61.8056595,9.69982431 63.1326595,13.1348243 62.9176595,18.8008243 C62.6956595,24.6258243 62.5426595,29.9198243 61.0436595,35.7328243 C59.9086595,40.1328243 60.6186595,44.2248243 55.0926595,45.5038243 C54.6896595,45.5968243 54.1766595,46.1548243 54.0976595,46.5688243 C52.8816595,52.9718243 48.1746595,55.2588243 42.5856595,56.8388243 C41.5406595,57.1348243 41.0376595,59.1348243 40.1486595,60.2398243 C37.8586595,63.0848243 35.7586595,65.8218243 31.1336595,64.3438243 C29.1576595,63.7128243 26.2106595,64.4488243 24.3166595,65.5848243 C20.4526595,67.9028243 17.7886595,67.2148243 15.0306595,63.7458243 C13.4856595,61.8028243 10.4526595,60.3248243 7.93465946,60.0478243 C4.41765946,59.6598243 0.89365946,55.8928243 1.26065946,52.2788243 C1.51165946,49.8068243 0.53465946,47.2328243 0.36165946,44.6878243 C0.21065946,42.4698243 -0.50234054,39.4348243 0.62265946,38.1308243 C5.76565946,32.1658243 11.0486595,26.4898243 20.4696595,27.7038243 C25.9216595,28.4058243 36.1936595,29.6598243 41.3726595,35.5258243 Z M56.9951595,50.5050243 C63.7571595,58.8820243 68.7861595,69.2050243 70.6981595,81.7140243 C62.6691595,81.7140243 55.0771595,81.8310243 47.4991595,81.5690243 C46.5281595,81.5350243 45.2221595,79.6740243 44.7691595,78.4090243 C43.6011595,75.1500243 43.0261595,71.6770243 41.8491595,68.4230243 C39.7951595,62.7460243 41.9471595,59.8750243 47.7931595,57.9840243 C51.0541595,56.9290243 53.5261595,53.4390243 56.9951595,50.5050243 Z" id="Combined-Shape"></path>
                </g>
                <g id="core" transform="translate(22.000000, 26.000000)">
                    <path d="M4.82893949,44.4893013 C6.50683949,44.9445321 8.30033949,45.158609 9.84223949,45.8947629 C18.1730895,49.8725321 34.5610895,43.6135321 37.2870395,33.2379936 C40.1217895,22.448686 33.5521395,11.2642244 23.1770395,11.712686 C19.4531895,11.8734552 15.3740395,13.5319167 12.2749395,15.6777629 C9.22088949,17.7914552 10.1252895,21.9443783 11.8660895,24.5623783 C13.0960395,26.4112244 16.1007895,27.156686 18.4263895,28.124686 C18.6941395,28.2355321 20.0345895,26.6913013 20.2725895,25.7622244 C20.6457395,24.3009167 20.5029395,22.7093013 20.6032395,20.6988398 C24.3491895,19.8374552 26.9535895,21.376609 28.7768395,24.6410706 C30.7921895,28.2499167 30.0101895,32.3351475 26.6101895,34.8008398 C17.1275895,41.676686 5.55398949,36.8053783 1.94743949,27.1211475 C-2.12321051,16.189686 -0.0126605092,12.3159936 10.1779895,4.12945519 C19.4752895,-3.34039097 35.2240895,0.168609032 42.3776895,7.93122442 C51.1675395,17.4690706 52.6533395,29.3600706 46.4636395,40.9583013 C39.4953395,54.0153013 19.5245895,59.0854552 7.15368949,50.7593013 C5.63728949,49.7388398 4.91563949,47.5473013 3.82593949,45.8981475 C4.16083949,45.4285321 4.49488949,44.9589167 4.82893949,44.4893013" id="Fill-8"></path>
                </g>
                <g id="tgt" transform="translate(220.400000, 19.000000)">
                    <path d="M0.417886228,6.87558429 C20.9153681,-1.33439114 40.3581659,-1.36228361 59.959602,6.45981209 C62.7270584,30.5092262 52.8592241,53.022811 33.1043793,63.4563396 C31.6138752,64.2434304 28.7915055,63.8171985 27.1990196,62.8976185 C14.4539022,55.5401068 6.28140727,44.5103766 3.27599318,30.17103 C1.57280898,22.0482186 1.20846354,13.6447391 0.417886228,6.87558429 Z M6.47815376,14.9681523 C7.8003327,32.8005913 13.4555437,46.2970024 26.2948598,56.201361 C28.978164,58.2705111 31.462742,59.0304644 34.6843049,56.4879662 C48.6360888,45.4791289 54.6188486,30.8362968 54.8595171,13.495181 C54.8764938,12.3158054 53.8778692,10.3145618 52.9681222,10.0599125 C46.2853265,8.18649279 39.5336258,5.52715555 32.7449759,5.34940038 C26.172029,5.17663833 19.5761137,8.04668535 12.9033043,8.8735465 C7.54268755,9.53763184 5.72718808,11.9572992 6.47815376,14.9681523 Z M30.1185771,30.1182958 L13.5600355,28.0333333 L10.6905973,13.8935923 L29.9703984,10.1333381 L29.9703984,30.2499134 L30.1185771,30.1182958 Z M47.7380787,30.2500877 C44.513883,39.6951768 39.6527477,47.240091 31.0531493,53.2282565 C30.7280277,45.1002153 30.4281836,37.6058561 30.1231096,30.1149836 C30.1187514,30.1184701 29.9705727,30.2500877 29.9705727,30.2500877 L47.7380787,30.2500877 Z" id="Combined-Shape"></path>
                </g>
                <g id="gng" transform="translate(114.200000, 13.000000)">
                    <path d="M25.0258906,73.1209259 C25.0258906,73.1209259 26.8422968,65.9919968 20.4230005,62.0467072 C14.0037043,58.1014175 10.989,63.79 9.291,64.992 C6.257,60.259 3.369,55.754 -1.33226763e-15,50.499 C8.822,48.43 8.7505002,45.9158478 8.7505002,39.7527618 C8.7505002,33.5896759 -1.33226763e-15,31.9021759 -1.33226763e-15,31.9021759 C-1.33226763e-15,31.9021759 2.99,21.124 4.673,17.036 C9.069,19.068 12.6449997,20.6658485 16.534,17.097 C20.4230003,13.5281515 17.5571406,4.72541714 17.5571406,4.72541714 C17.5571406,4.72541714 27.661,1.263 31.514,0 C31.98,0.945 32.1469862,10.2742453 39.6108534,11.2742453 C47.0747206,12.2742453 49.870619,4.72541714 49.870619,4.72541714 L61.7192518,11.8338156 C61.7192518,11.8338156 55.3442518,16.3149776 58.7290175,22.2224884 C62.1137831,28.1299992 68.556,25.14 70.482,24.846 C71.118,29.519 71.2200006,35.3457618 71.4820006,39.7527618 C71.5400006,40.7357618 65.7995665,37.2410431 63.1137831,46.326004 C60.4279997,55.410965 69.1508925,56.9129181 69.1508925,56.9129181 C69.1508925,56.9129181 62.137,65.368 58.371,69.442 C54.499,66.53 52.1588018,63.0856934 46.0747206,64.9919968 C38.2553847,67.4420013 40.3872206,75.2097931 40.3872206,75.2097931 L25.0258906,73.1209259 Z M36.139,62.974 C49.888,62.967 60.538,52.412 60.535,38.795 C60.532,24.876 49.893,14.262 35.952,14.267 C22.037,14.272 11.642,24.848 11.655,38.986 C11.667,52.567 22.297,62.981 36.139,62.974 Z M56.2858665,39.2634134 C56.0170125,50.3538727 46.6339148,59.1355134 35.4067187,58.8047583 C24.5038105,58.4823182 15.7766797,49.202697 16.0483054,38.2194098 C16.3171594,27.3405229 25.6180303,18.3704072 36.4414834,18.5505671 C47.4922151,18.7344226 56.5547205,28.1932798 56.2858665,39.2634134 Z M45.1111,38.7374 C45.2521,33.4034 40.7391,28.7764 35.4051,28.7844 C30.5351,28.7914 25.7931,33.5554 25.8131,38.4194 C25.8351,43.5584 30.1931,47.9144 35.3641,47.9654 C40.7331,48.0184 44.9721,44.0054 45.1111,38.7374 Z" id="Combined-Shape"></path>
                </g>
                <g id="loe" transform="translate(311.000000, 127.500000)">
                    <path d="M52.370524,3.69454451 C53.724524,7.75254451 55.856524,11.5515445 58.009524,16.2545445 C54.072524,17.2665445 50.720524,18.1285445 46.630524,19.1805445 C45.716524,22.2885445 41.455524,24.1725445 37.551524,21.9535445 C35.808524,26.7665445 32.113524,28.1925445 28.175524,25.5735445 C26.509524,28.5515445 24.897524,31.4115445 21.085524,27.6805445 C20.726524,27.3285445 17.800524,28.6275445 17.833524,29.0085445 C17.997524,30.9325445 18.226524,33.3555445 19.457524,34.5255445 C20.449524,35.4685445 23.115524,35.4505445 24.666524,34.8675445 C31.600524,32.2585445 38.406524,29.3085445 45.247524,26.4535445 C50.696524,24.1805445 56.131524,21.8725445 61.567524,19.5675445 C64.465524,18.3375445 67.313524,16.9825445 70.252524,15.8625445 C73.297524,14.7025445 76.848524,13.5985445 78.370524,17.6215445 C79.815524,21.4365445 76.694524,23.8565445 73.676524,24.5165445 C69.012524,25.5365445 64.093524,25.3355445 59.317524,25.9355445 C57.856524,26.1185445 56.424524,27.0935445 55.128524,27.9355445 C46.368524,33.6335445 37.878524,39.7895445 28.843524,45.0055445 C21.576524,49.2015445 13.554524,49.2545445 5.74452405,45.8165445 C-1.26447595,42.7315445 -1.92447595,38.6305445 4.12152405,34.1925445 C7.16652405,31.9585445 10.641524,30.1525445 14.165524,28.7755445 C16.919524,27.6995445 17.637524,26.3815445 17.145524,23.5785445 C16.720524,21.1565445 17.082524,18.6075445 16.907524,16.1275445 C16.749524,13.8775445 16.335524,11.6445445 16.128524,10.1015445 C24.773524,7.10154451 33.291524,4.14654451 41.809524,1.19154451 C43.080524,1.11354451 44.351524,1.03554451 45.622524,0.958544512 C48.953524,-0.796455488 51.043524,-0.285455488 52.370524,3.69454451 Z" id="Combined-Shape"></path>
                </g>
                <g id="reward" transform="translate(124.000000, 119.500000)">
                    <path d="M30.94,14.769333 C31.402,15.393333 31.864,16.018333 32.327,16.642333 C36.673,14.765333 41.147,13.121333 45.289,10.868333 C46.529,10.194333 46.843,7.81933297 47.581,6.22333297 C45.85,5.85733297 43.492,4.59133297 42.497,5.28333297 C38.419,8.12133297 34.756,11.555333 30.94,14.769333 L30.94,14.769333 Z M22.846,16.645333 C23.257,16.022333 23.668,15.399333 24.079,14.776333 C20.26,11.562333 16.596,8.12333297 12.512,5.29133297 C11.481,4.57533297 9.107,5.79733297 7.349,6.12933297 C8.056,7.70033297 8.343,10.051333 9.547,10.699333 C13.81,12.996333 18.388,14.710333 22.846,16.645333 L22.846,16.645333 Z M24.261,37.167333 C16.478,37.167333 -4.4408921e-16,37.1903326 -4.4408921e-16,37.1903326 L-4.4408921e-16,19.755333 L20.915,19.755333 C21.033,19.361333 17.847,17.253333 16.191,16.476333 C12.435,14.715333 8.623,13.043333 5.01,11.020333 C2.353,9.53333297 1.11605787,7.08633306 2.59305787,3.88833306 C4.14105787,0.534333058 6.827,-1.00066703 9.952,0.696332971 C14.384,3.10233297 18.719,6.05233297 22.295,9.58133297 C27.9,15.113333 27.36,15.143333 32.864,9.63533297 C36.311,6.18433297 40.437,3.22433297 44.704,0.840332971 C47.955,-0.975667029 51.402,0.266332971 53.061,3.88833297 C54.622,7.29633297 52.665,9.80233297 49.827,11.304333 C44.869,13.928333 39.729,16.209333 34.613,19.433333 L55.95,19.433333 C55.95,24.996333 55.9500008,37.1903326 55.9500008,37.1903326 C55.9500008,37.1903326 38.5,37.190333 30.454,37.190333 C30.454,32.644333 30.214,28.525333 30.518,24.446333 C30.856,19.911333 28.883,18.796333 24.261,19.996333 L24.261,37.167333 Z M30.7768,62.511333 L30.7768,44.278333 L55.6388,44.278333 L55.6388,62.511333 L30.7768,62.511333 Z M0.3348,62.505333 L0.3348,44.322333 L23.7848,44.322333 L23.7848,62.505333 L0.3348,62.505333 Z" id="Combined-Shape"></path>
                </g>
                <g id="brm" transform="translate(413.000000, 123.500000)">
                    <path d="M41.672,32.4052712 C35.242,34.7992712 29.75,36.8442712 23.545,39.1542712 C26.806,43.1192712 29.478,46.3672712 32.456,49.9892712 L0,49.9892712 C1.496,47.1512712 2.532,44.9702712 3.758,42.9002712 C8.834,34.3312712 14.026,25.8302712 19.048,17.2302712 C20.765,14.2892712 22.28,14.0332712 24.762,16.4732712 C30.065,21.6872712 35.577,26.6892712 41.672,32.4052712 Z M60.6214,23.5633712 C65.2634,32.4203712 69.5504,40.6003712 73.9264,48.9493712 C62.6144,54.4653712 59.5604,45.9193712 55.7074,38.1943712 C53.3814,41.6723712 51.5984,44.4413712 49.7104,47.1363712 C46.9064,51.1373712 42.5714,51.8273712 38.6704,48.7513712 C35.4204,46.1893712 32.3574,43.3913712 28.8874,40.4203712 C39.0344,33.9133712 52.2854,34.5023712 60.6214,23.5633712 Z M27.2069,16.3784712 C30.3019,11.4014712 33.1539,6.72747119 36.0999,2.11347119 C37.7649,-0.49552881 40.0799,-0.83552881 41.5599,1.91947119 C46.0279,10.2344712 50.1569,18.7324712 54.5199,27.3614712 C49.8509,30.1834712 46.1229,31.3454712 41.7399,27.3314712 C37.3569,23.3174712 32.2349,20.1104712 27.2069,16.3784712 Z" id="Combined-Shape"></path>
                </g>
                <g id="gangs" transform="translate(16.000000, 221.000000)">
                    <path d="M9.22940909,26.0935983 C9.22940909,26.0935983 8.52605725,19.9849548 13.8767899,15.8233469 C19.2275225,11.661739 25.281607,12.3466853 25.281607,12.3466853 C25.281607,12.3466853 25.1777476,8.11737159 31.406684,4.64596876 C37.6356204,1.17456592 43.8330046,4.24170579 43.8330046,4.24170579 C43.8330046,4.24170579 55.53954,-6.06075523 64.4964298,5.44660664 C73.4533196,16.9539685 55.4126737,23.1145418 56.5170018,27.2984992 C57.6213299,31.4824566 64.5713663,26.8975229 66.1805302,31.2425282 C67.789694,35.5875334 57.3899469,42.8807003 49.1528424,47.7528908 C40.9157379,52.6250812 26.8756521,59.1531065 23.462095,56.9957227 C20.0485379,54.8383388 28.1042171,47.3249636 23.462095,46.3172642 C18.8199729,45.3095648 9.25175858,57.6228233 2.02564016,43.9547909 C-5.20047826,30.2867585 9.22940909,26.0935983 9.22940909,26.0935983 Z M41.100004,23.6939811 C43.9967071,22.7667787 45.4425299,17.5786623 43.8726563,13.6643155 C42.3027827,9.74996862 37.5926484,7.49848349 34.7481453,8.62187441 C31.9036422,9.74526533 29.3579724,12.8774817 31.4483077,17.6412113 C33.5386431,22.404941 38.2033009,24.6211836 41.100004,23.6939811 Z M58.0748933,19.1836596 C60.9715964,18.2564571 62.4174192,13.0683407 60.8475456,9.15399388 C59.277672,5.23964704 54.5675377,2.98816191 51.7230346,4.11155283 C48.8785315,5.23494375 46.3328617,8.3671601 48.423197,13.1308898 C50.5135324,17.8946194 55.1781902,20.110862 58.0748933,19.1836596 Z M10.3199331,45.3542638 C14.3162537,45.3542638 17.5559116,42.1146059 17.5559116,38.1182853 C17.5559116,34.1219648 14.3162537,30.8823068 10.3199331,30.8823068 C6.32361253,30.8823068 3.0839546,34.1219648 3.0839546,38.1182853 C3.0839546,42.1146059 6.32361253,45.3542638 10.3199331,45.3542638 Z M27.6052974,43.4254664 C28.5324999,46.3221695 35.0864631,49.9196739 45.7767536,43.4254664 C56.4670441,36.9312588 54.1124588,32.8827878 52.9890679,30.0382846 C51.865677,27.1937815 44.8788297,25.0701228 36.4957961,28.7683073 C28.1127625,32.4664918 26.678095,40.5287633 27.6052974,43.4254664 Z M25.7351703,32.1779204 C28.6318734,31.2507179 30.2453176,26.40376 28.675444,22.4894132 C27.1055703,18.5750663 21.9427415,16.4172477 19.0982383,17.5406386 C16.2537352,18.6640295 13.3640661,23.1796183 15.4544015,27.9433479 C17.5447368,32.7070776 22.8384673,33.1051228 25.7351703,32.1779204 Z" id="Combined-Shape"></path>
                </g>
                <g id="kara" transform="translate(526.500000, 119.500000)">
                    <path d="M5.7106094,0 L10.5324755,0 L12.4625007,4.36516352 L17.5839638,4.36516352 L17.5839638,0 L28.4443518,0 L28.4443518,4.36516352 L33.8014734,4.36516352 L35.2784496,0 L40.5515379,0 C40.5515379,0 40.6492723,7.00399118 40.5515379,10.9855245 C40.4538035,14.9670578 39.2974325,18.0050436 33.8014734,18.0050436 L12.4625007,18.0050436 C7.34103771,18.0050436 5.7106094,15.909692 5.7106094,10.9855245 L5.7106094,0 Z M9.93054149,39.0142769 C12.3243582,28.7303413 12.546534,20.5771927 12.546534,20.5771927 L34.2682234,20.5771927 C34.2682234,20.5771927 34.6782042,34.290512 35.8438474,39.0142769 C37.0094907,43.7380419 41.0192014,47.9355056 41.0192014,47.9355056 C41.0192014,47.9355056 9.93054149,47.9355056 6.17827287,47.9355056 C2.42600425,47.9355056 7.53672474,49.2982125 9.93054149,39.0142769 Z M2.32004924,50.273823 L43.4744346,50.273823 C43.4744346,50.273823 46,53.2212719 46,56.1687208 C46,59.1161697 43.4744346,62.0636186 43.4744346,62.0636186 L2.32004924,62.0636186 C2.32004924,62.0636186 6.65510339e-16,59.1161697 0,56.1687208 C0,53.2212719 2.32004924,50.273823 2.32004924,50.273823 Z M19.7136066,31.5672842 L19.7136066,39.2837315 L27.1962221,39.2837315 L27.1962221,31.5672842 L23.4549143,28.0926908 L19.7136066,31.5672842 Z" id="Combined-Shape"></path>
                </g>
                <g id="icecrown" transform="translate(227.000000, 216.000000)">
                    <path d="M18.1105092,54.6263914 C18.1105092,55.3028715 21.6220785,58.9654354 21.6220785,60.1937678 C21.6220785,61.4221001 16.8350883,68.7068486 14.4571668,69.0847203 C12.0792453,69.462592 4.21137532,67.2317531 3.14915112,65.105103 C2.44100165,63.6873363 3.41604971,62.6060649 6.07429532,61.8612887 C2.35131942,52.7484986 0.482134199,47.8537803 0.466739645,47.1771341 C0.451345092,46.5004878 1.65194127,45.0021284 4.06852818,42.6820559 C2.09086506,37.6889647 1.17560514,34.7504056 1.32274843,33.8663786 C1.46989172,32.9823515 3.65036914,31.4150314 7.86418069,29.1644181 C4.12760031,27.3471776 2.25931011,26.1027267 2.25931011,25.4310655 C2.25931011,24.4235738 8.2144547,22.8300875 10.8442383,19.4985352 C12.5974273,17.2775003 13.2626568,12.213864 15.5671857,6.45472687 C14.9002077,20.1524935 15.2715416,24.9814222 15.5671857,26.1811523 C25.6982422,17.3686523 16.6230469,18.3671576 16.6230469,10.7394332 C16.6230469,5.65428357 19.2810323,2.07447251 21.6220785,0 C19.8913876,7.43086161 18.8632813,12.5358686 24,12.5358686 C29.1367187,12.5358686 27.7568409,7.77857338 26.3779215,0 C28.7189677,2.07447251 31.1835937,5.65428357 31.1835937,10.7394332 C31.1835937,18.3671576 22.2109457,15.3046875 31.7724609,26.1811523 C33.0216815,25.6435547 33.0997923,20.1524935 32.4328143,6.45472687 C34.7373432,12.213864 36.2980805,18.3497659 38.0512695,20.5708008 C40.6810531,23.9023531 45.7406899,24.4235738 45.7406899,25.4310655 C45.7406899,26.1027267 43.8723997,27.3471776 40.1358193,29.1644181 C44.3496309,31.4150314 46.5301083,32.9823515 46.6772516,33.8663786 C46.8243949,34.7504056 45.9091349,37.6889647 43.9314718,42.6820559 C46.3480587,45.0021284 47.5486549,46.5004878 47.5332604,47.1771341 C47.5178658,47.8537803 45.6486806,52.7484986 41.9257047,61.8612887 C44.5839503,62.6060649 45.5589984,63.6873363 44.8508489,65.105103 C43.7886247,67.2317531 35.9207547,69.462592 33.5428332,69.0847203 C31.1649117,68.7068486 26.3779215,61.4221001 26.3779215,60.1937678 C26.3779215,58.9654354 29.8894908,55.3028715 29.8894908,54.6263914 C29.8894908,54.1940236 24.68697,44.5880618 24,44.6035156 C23.31303,44.6189695 18.1105092,54.1852311 18.1105092,54.6263914 Z M8.50878906,37.6083984 C10.700323,42.6910933 12.2972185,45.6870165 13.2994755,46.5961681 C14.3017325,47.5053198 16.9618577,47.036719 21.279851,45.1903657 L8.50878906,37.6083984 Z M39.6464844,37.9052734 L26.6022494,45.2498886 C30.4385364,47.0451947 32.9060506,47.6471637 34.0047921,47.0557957 C35.1035337,46.4644278 36.9840977,43.4142537 39.6464844,37.9052734 Z" id="Combined-Shape"></path>
                </g>
                <g id="ungoro" transform="translate(127.000000, 224.000000)">
                    <path d="M3.2120001,55.8092155 C9.0458055,59.9836469 15.2742525,52.652709 20.800488,50.3550178 C26.3267235,48.0573266 39.2008101,45.8911826 41.5999806,44.1234387 C43.9991511,42.3556948 57.9469134,31.5663182 56.6314414,30.3823934 C55.3159693,29.1984685 51.4823079,30.2427027 48.2236956,31.1090351 C44.9650834,31.9753674 43.2029773,31.1090351 40.0533613,31.1090351 C36.9037453,31.1090351 28.748701,36.5588479 26.9381048,34.3225454 C25.1275086,32.0862429 31.3148683,23.6634632 35.1028014,23.0946781 C38.8907346,22.5258931 43.7730152,3.52546513 41.5999806,1.52970609 C39.426946,-0.46605296 25.2849949,8.93894588 23.443334,12.7099658 C21.6016731,16.4809857 23.3268208,17.4913935 21.8547449,20.2388509 C20.382669,22.9863083 17.0445021,26.0288072 14.0258069,26.0288072 C11.0071117,26.0288072 12.7078292,13.6026076 11.4568779,12.7099658 C10.2059266,11.817324 10.7759645,11.0274144 9.85513402,9.4526064 C8.93430358,7.87779842 10.3312096,0 9.00696775,0 C7.68272587,0 1.27387126,2.89529137 1.27387126,12.7099658 C1.27387126,22.5246402 1.27387126,27.2033359 1.27387126,34.3225454 C1.27387126,41.4417549 -2.62180529,51.6347842 3.2120001,55.8092155 Z" id="Path-4"></path>
                </g>
                <g id="kobolds" transform="translate(327.000000, 212.000000)">
                    <path d="M21.3271716,27.8261719 C15.8392817,26.2036125 12.8470865,23.9028312 12.3505859,20.9238281 C11.6058352,16.4553235 15.494723,15.7100695 16.9628906,11.2675781 C18.4310583,6.82508677 17.6429866,0.82421875 18.9931641,0.82421875 C20.3433415,0.82421875 32.7392578,10.4726563 32.7392578,18.1621094 C32.7392578,23.2884115 30.3320313,26.5097656 25.5175781,27.8261719 C27.125651,26.9456989 27.9296875,25.337626 27.9296875,23.0019531 C27.9296875,19.4984438 24.9962984,21.5809236 23.9746094,19.4984438 C22.9529203,17.4159641 25.5175781,14.9404297 23.9746094,14.9404297 C22.4316406,14.9404297 18.9931641,19.0464146 18.9931641,23.0019531 C18.9931641,25.6389788 19.7711666,27.2470517 21.3271716,27.8261719 Z M1.00878906,65.2070313 C1.78172972,64.1325231 4.96203208,64.8056524 6.0573534,61.1183593 C6.79891911,58.6219502 7.35579341,52.7944021 7.7279763,43.635715 C7.69105061,46.6956289 6.55906893,47.5224609 4.33203125,46.1162109 C0.991474727,44.0068359 7.7279763,41.4511252 7.7279763,33.8857422 C7.7279763,26.3203592 14.6900473,29.5679218 18.4609375,30.5101159 C22.2318277,31.45231 23.265625,34.1533203 23.265625,39.5908203 C23.265625,45.0283203 17.8662109,52.9912109 24.5390625,52.9912109 C31.2119141,52.9912109 27.5175781,45.3203125 27.5175781,39.5908203 C27.5175781,33.8613281 31.5529517,26.8945313 35.15625,28.359375 C38.7595483,29.8242187 39.5190966,32.2586957 36.7048608,35.924758 C33.890625,39.5908203 35.15625,50.8591418 36.7048608,57.663121 C38.2534716,64.4671002 43.0585938,66.054233 41.5710725,69.302813 C40.0835512,72.5513929 37.0827134,68.3961876 31.1972656,69.302813 C25.3118179,70.2094383 26.2841797,73.5566406 18.4609375,73.5566406 C10.6376953,73.5566406 8.62345044,72.2172203 6.0573534,69.302813 C3.49125636,66.3884056 -1.32805646,68.4556112 1.00878906,65.2070313 Z"></path>
                </g>
                <g id="raven" transform="translate(512.000000, 209.000000)">
                    <path d="M0.594435889,50.2839275 C-0.512743843,46.249571 -0.0732719744,42.0818423 1.9128515,37.7807416 C3.89897497,33.4796408 7.38818843,29.139504 12.3804919,24.760331 C11.9979021,24.0510356 11.7349032,23.1311261 11.591495,22.0006026 C11.4480868,20.8700792 11.4480868,19.7167003 11.591495,18.540466 L14.0888784,20.9428065 C13.3686778,19.0678326 13.3686778,16.9041497 14.0888784,14.4517577 C14.809079,11.9993658 15.9878456,10.1491704 17.6251781,8.90117169 C18.0807007,11.0466088 18.5123249,12.0666907 18.9200506,11.9614171 C19.1911544,11.891419 21.6482649,6.83611388 27.1758436,4.40838176 C29.0329143,3.59274971 32.6334043,3.33872699 37.9773136,3.64631359 L43.247354,0 L43.247354,3.64631359 C44.7697229,3.43505837 46.0430645,3.18442794 47.0673787,2.8944223 C48.0916929,2.60441666 50.0520111,1.93952765 52.9483333,0.899755266 L48.391831,6.31025965 C52.33816,6.72941408 55.0866702,7.31228947 56.6373615,8.05888582 C58.1880529,8.80548218 60.6580699,10.9364395 64.0474126,14.4517577 C60.1899793,12.4167252 57.4384508,11.174149 55.792827,10.7240292 C54.1472032,10.2739093 52.7740549,10.2739093 51.6733819,10.7240292 L59.8046803,23.2499634 C58.4815781,23.5753137 57.4258052,23.5753137 56.6373615,23.2499634 C55.8489179,22.9246132 53.1004077,21.3547807 48.391831,18.540466 L52.9483333,30.2869715 L51.6733819,22.0006026 C53.9174529,23.455704 55.5721127,24.328321 56.6373615,24.6184535 C57.7026103,24.9085859 59.425485,24.9558785 61.8059854,24.760331 L54.8420465,13.1024242 C60.8485645,14.4210276 65.0364256,16.2337082 67.4056297,18.540466 C69.7748338,20.8472238 72.3402307,21.6480039 75.1018204,20.9428065 L68.8333096,24.6184535 C69.8968328,25.850181 71.1009535,26.9371109 72.4456718,27.8792432 C73.79039,28.8213755 76.3084994,29.6239516 80,30.2869715 C77.1936175,31.4369681 74.9922337,31.9905102 73.3958486,31.9475977 C71.7994635,31.9046851 69.1014604,31.2194424 65.3018392,29.8918694 L68.8333096,35.039571 C64.0645452,32.6799264 61.7221038,31.6492687 61.8059854,31.9475977 C61.9318077,32.3950911 67.3988969,36.9057606 67.4056297,37.7807416 C67.4226173,39.9884178 65.3260265,46.2493789 64.8916715,48.9347953 C64.7726307,49.6707702 63.7440686,47.9166892 61.8059854,43.6725522 C62.9818954,50.0992078 63.4758988,53.6459476 63.2879956,54.3127718 C63.2145669,54.573353 61.6287254,54.2746319 58.5304711,53.4166084 L61.8059854,57.695684 C61.7681981,59.3101332 61.5142542,60.289308 61.0441536,60.6332083 C60.4428376,61.0730989 58.9023597,58.7325532 58.5304711,59.5592489 C58.189469,60.3172852 60.2025621,63.4696537 59.8046803,64.3060004 C58.9151125,66.1758701 57.2609012,69.421049 54.8420465,74.0415373 C55.7373854,67.0171788 56.0543123,62.1897494 55.792827,59.5592489 C55.5313418,56.9287485 54.8512067,54.4695372 53.7524219,52.1816149 C53.0102072,55.9034022 52.3171938,58.7206 51.6733819,60.6332083 C51.02957,62.5458167 49.9357197,65.0369555 48.391831,68.1066246 C48.5463856,64.7339967 48.5463856,62.2428579 48.391831,60.6332083 C48.2372763,59.0235587 47.7957922,56.9167465 47.0673787,54.3127718 C44.672435,58.3148515 43.3990934,61.3974461 43.247354,63.5605558 C43.0956145,65.7236655 43.6610522,72.7325375 44.9436671,84.5871719 C39.7219203,79.3702276 36.1421563,75.0600227 34.2043751,71.6565573 C32.2665939,68.2530918 31.9138494,62.9477484 33.1461414,55.7405272 L36.6528613,61.8185147 C38.1613512,59.5005823 39.2770641,56.998668 40,54.3127718 C40.7229359,51.6268756 40.8542043,46.4781763 40.3938052,38.8666737 C40.1682276,43.6754862 39.7879154,47.4812374 39.2528686,50.2839275 C38.7178218,53.0866176 37.8511527,55.8128222 36.6528613,58.4625413 L33.1461414,50.2839275 C31.9607868,52.5195068 31.1870828,54.7107272 30.8250296,56.8575886 C30.4629764,59.00445 30.2347891,62.7541287 30.1404677,68.1066246 C27.4171407,63.1922337 25.7741518,59.7219201 25.2115009,57.695684 C24.3675246,54.6563298 27.1758436,49.8872379 27.1758436,48.9347953 C27.1758436,48.4815338 25.7994756,49.563807 23.0467398,52.1816149 C23.5210502,49.4712338 23.968021,47.5703537 24.3876523,46.4789745 C24.8072835,45.3875952 25.7366806,43.7088104 27.1758436,41.4426198 C23.3246853,43.5737608 20.1411301,44.9727815 17.6251781,45.6396818 C15.1092261,46.3065821 10.8211559,47.1121514 4.76096726,48.0563897 C8.02821976,44.1876173 10.9129582,41.5915171 13.4151825,40.268089 C17.168519,38.2829468 24.9374347,35.8890406 27.1758436,35.039571 C29.4142525,34.1901015 31.6346861,29.1182292 33.1461414,27.8792432 C34.1537782,27.0532525 35.3226848,27.0532525 36.6528613,27.8792432 C35.9111519,26.4169663 34.7422452,25.9548165 33.1461414,26.4927939 C30.7519855,27.2997601 27.7330311,32.9940196 26.2836191,33.7465095 C24.8342071,34.4989995 18.17591,35.2275917 12.3804919,38.8666737 C8.51687982,41.2927284 4.58819449,45.0984797 0.594435889,50.2839275 Z M17.8397829,21.0412827 C18.6422617,21.6195686 19.3209882,22.061165 19.8759623,22.3660721 C20.7084234,22.8234327 20.9061254,22.6986164 22.687556,22.6986164 C24.4689866,22.6986164 25.7448435,23.6573376 27.4529282,22.6986164 C29.1610129,21.7398951 29.5367975,20.0238948 29.5367975,18.5216088 C29.5367975,17.0193228 28.4642216,16.2477723 28.165259,14.8519483 C27.9659505,13.9213989 28.1437314,12.7161379 28.6986015,11.2361653 C26.897956,13.2708191 25.6671732,14.7269101 25.0062531,15.6044382 C23.5824304,17.4949004 22.6652345,19.2944337 22.1726254,19.7392417 C21.3370221,20.493761 19.8927413,20.9277746 17.8397829,21.0412827 Z M13.5078459,26.7609845 L14.708244,28.2417194 L16.9333722,26.0123857 C15.7754838,25.8915547 14.9200832,25.8915547 14.3671703,26.0123857 C13.8142575,26.1332167 13.527816,26.3827496 13.5078459,26.7609845 Z"></path>
                </g>
                <g id="witchwood" transform="translate(419.000000, 217.000000)">
                    <path d="M47.5673933,23.5295525 L56.2752229,19.280023 C57.1746688,16.75558 57.7628765,15.0010482 58.0398461,14.0164277 C59.1601305,10.0338416 59.635387,8.05377784 60.3240606,8.05377784 C61.0361677,8.05377784 61.5678123,10.1430848 60.8954691,14.0164277 C60.7494648,14.8575533 60.2864227,16.273852 59.506343,18.2653239 C65.7057117,16.5295763 69.0108901,16.0881495 69.4218784,16.9410436 C70.0383608,18.2203847 60.8954691,22.1022773 59.506343,21.6807046 C58.6995911,21.4358711 54.6592391,23.9170982 47.385287,29.1243859 C47.3862373,29.1520366 47.387216,29.1796782 47.3882229,29.2073106 C47.7026751,37.8363542 50.7624909,44.7798203 56.5676705,50.037709 C55.7984576,54.4184508 53.4721268,57.9963498 49.5886782,60.771406 C49.2679694,61.0005799 48.1155697,56.6993734 46.131479,47.8677867 C45.1567327,50.1548964 44.486422,51.998831 44.1205469,53.3995907 C43.7546717,54.8003503 43.5360605,56.3596699 43.4647131,58.0775495 C42.4322045,57.0139424 41.5982647,56.3049014 40.9628935,55.9504264 C40.3275224,55.5959514 39.1082809,55.1595178 37.305169,54.6411258 C38.2489977,56.2659865 38.9773957,57.411461 39.4903631,58.0775495 C42.1461421,61.5260798 43.8044833,63.3026886 43.4647131,63.4554761 C41.6364314,64.2776157 40.240335,65.2635002 35.5703585,66.3438693 C30.900382,67.4242384 29.9881499,67.1545566 26.0610006,67.4817133 C25.2838402,67.5464558 27.4057719,59.1499079 26.665258,59.1764204 C25.7629286,59.2087263 22.5411789,65.7707159 22.1649721,66.8585304 C21.7887652,67.9463448 11.2954276,64.6034691 10.0518207,60.771406 C9.60562139,59.3964827 10.385218,56.7935323 9.29408333,54.6411258 C8.24054472,52.5628823 5.46773447,48.9098468 0.975652602,43.6820194 C4.39806187,44.1209916 6.90184871,44.6147286 8.48701312,45.1632303 C10.0721775,45.711732 11.6006658,47.0714406 13.072478,49.2423562 C14.8796906,45.1429007 14.8796906,40.6481465 13.072478,35.7580936 C11.2652654,30.8680407 7.09055216,25.2656179 0.548338386,18.9508253 C6.11854912,14.9977452 9.81233318,12.5502183 11.6296906,11.6082447 C11.8707231,11.4833126 15.4537615,11.7170006 15.6796625,11.6082447 C17.014876,10.9654308 15.0401098,10.0561343 16.454507,9.58141932 C17.5679157,9.2077253 18.7058585,8.88611488 19.8683356,8.61658807 C27.1208469,6.93505281 31.8582141,6.22173186 34.0804373,6.47662522 L40.9628935,2.24805862 L42.265776,6.47662522 L54.7320649,0.654499617 C50.6397847,8.82764814 48.2515608,16.4526658 47.5673933,23.5295525 Z M7.27676273,19.3786224 C9.78788442,20.1226317 13.4811001,19.6567794 18.3564099,17.9810655 C19.0202328,17.7529001 22.3009341,27.4215289 23.3475393,27.4650242 C24.8300698,27.5266359 22.4946652,21.2682101 23.8387377,21.2059895 C27.1460423,21.052886 30.8142696,20.3396897 33.5675893,20.0172402 C34.3118073,19.9300825 33.5551873,24.6147357 34.2000427,24.4926158 C34.6734187,24.40297 35.8300188,19.6309767 36.2531493,19.5250034 C42.9289506,17.8530439 43.5250043,14.2813629 43.5250043,12.9874622 C43.5250043,11.4998313 29.5510486,10.5728708 20.5987448,12.0073592 C14.6305423,12.9636848 10.1898816,15.4207726 7.27676273,19.3786224 Z M9.34838489,36.7620928 C10.4377787,37.6141557 11.2889763,38.8282279 11.9019777,40.4043096 C12.5149791,41.9803912 12.8299045,43.7645258 12.8467538,45.7567133 C11.8361977,44.6921107 11.0904681,44.0148124 10.6095652,43.7248186 C10.1286623,43.4348248 9.3829327,43.2127442 8.3723765,43.0585768 L9.34838489,36.7620928 Z" id="Combined-Shape"></path>
                </g>
                <path d="M477.70474,79.0761229 L474.482821,69.2619642 C475.682095,67.5594774 476.686261,65.7108479 477.46594,63.7477148 L494.405684,53.634491 L477.261792,43.5340735 C476.552924,41.8519261 475.673808,40.2594229 474.65081,38.7738902 L477.479499,27.6308878 L466.677747,31.176731 C465.391843,30.3804794 464.032866,29.6927048 462.613625,29.1209404 L452.634491,12.4056836 L442.827112,29.052389 C441.227829,29.6844184 439.705384,30.4648504 438.274843,31.3786188 L426.033511,27.855375 L429.672011,40.2488766 C428.970677,41.4263044 428.359741,42.6639973 427.842968,43.9491488 L411.405684,53.634491 L427.635807,63.324353 C428.187232,64.7872864 428.863707,66.1876948 429.651672,67.5150319 L426.259505,79.3013634 L437.590835,75.9747342 C439.213471,77.0828573 440.96643,78.0116919 442.818826,78.7439119 L452.634491,95.4056836 L462.621912,78.6768671 C464.182022,78.0470976 465.668308,77.2749521 467.065704,76.3754966 L477.70474,79.0761229 Z M440.647778,67.6619279 C440.424044,67.3575896 440.09786,66.2562463 440.09786,66.2562463 L439.48617,64.9726014 C439.48617,64.9726014 438.936252,64.0558197 440.09786,64.2388747 C441.259468,64.4219297 445.477266,66.072438 447.79973,66.1342096 C450.122946,66.195228 451.345573,64.9726014 451.773455,64.8505647 C452.201336,64.728528 454.707608,63.7499748 455.441334,63.6279381 C456.175061,63.5059014 460.698704,60.7382303 461.370659,54.0834654 C462.043367,47.4287005 456.052271,43.5167473 452.629218,43.455729 C452.629218,43.455729 450.48981,43.3947106 450.00091,43.7005556 C449.51201,44.0064006 446.33303,45.4731005 444.927348,45.6569089 C444.927348,45.6569089 443.76574,46.7574988 443.949548,48.1021621 C444.132603,49.4468254 444.132603,54.0759323 449.02311,54.0842187 C449.02311,54.0842187 450.190744,53.4536959 450.065694,48.8833474 C450.065694,48.8833474 456.152462,48.3771212 456.310657,54.0842187 C456.468853,59.7913162 450.856673,60.5815413 447.378628,60.4240989 C443.900583,60.2666565 436.54825,55.4424416 437.101935,47.7752243 L437.53057,45.0444656 L438.753197,43.638784 C438.753197,43.638784 441.565313,37.9535326 447.983538,36.242006 C447.983538,36.242006 448.533456,35.3252243 449.206165,35.3252243 C449.878873,35.3252243 450.428791,36.058951 451.406591,36.1809876 C452.384391,36.3030243 452.751254,35.264206 453.668036,35.3252243 C454.584818,35.3862427 454.645836,36.058951 455.624389,36.242006 C456.602189,36.425061 461.370659,36.9757326 465.221594,42.2323491 C465.221594,42.2323491 465.404649,43.5770123 465.955321,43.821839 C466.505239,44.0666656 467.788884,44.6165839 467.972692,45.0444656 C468.155747,45.4723472 469.440145,50.0570087 469.317355,52.0133619 C469.194565,53.9697152 468.644647,63.0780198 462.593286,65.889383 L462.471249,67.5398913 C462.471249,67.5398913 457.947606,71.5746344 451.039728,71.0857344 C444.132603,70.5960811 442.272674,69.8691343 440.647778,67.6619279 Z" id="Shape" fill-rule="nonzero"></path>
            </g>
        </g>
    </g>
</svg>