<?xml version="1.0" encoding="UTF-8"?>
<svg width="705px" height="300px" viewBox="0 0 705 300" version="1.1" xmlns="http://www.w3.org/2000/svg" xmlns:xlink="http://www.w3.org/1999/xlink">
    <!-- Generator: Sketch 51.2 (57519) - http://www.bohemiancoding.com/sketch -->
    <title>setIcons</title>
    <desc>Created with Sketch.</desc>
    <defs></defs>
    <g id="logo-+-icons" stroke="none" stroke-width="1" fill="none" fill-rule="evenodd">
        <g id="Desktop-HD" transform="translate(-716.000000, -498.000000)" fill="#FFFFFF">
            <g id="wild" transform="translate(927.000000, 525.000000)" fill-rule="nonzero">
                <path d="M70.3968596,50.1029554 C67.0626066,51.6312341 57.4773442,46.0741458 57.4773442,46.0741458 C47.2254853,45.8345778 40.8702226,38.1127064 40.8702226,38.1127064 L50.7478477,28.5882226 C51.8846838,30.1876727 55.5315689,33.987717 58.5881264,33.987717 C61.6446838,33.987717 64.8397713,32.3209083 65.3951624,27.5975421 C65.9505535,22.8741759 62.1505091,20.3539458 60.8999259,20.3539458 C59.6493428,20.3539458 57.3083121,20.1785591 52.7533425,24.1247591 C47.9918488,28.2488875 36.082713,39.2671098 36.082713,39.2671098 C36.082713,46.7687024 27.7473983,49.1307032 27.7473983,49.1307032 C27.8865638,47.324729 26.9136762,44.9627282 26.9136762,44.9627282 C23.0240321,46.6295369 15.6609695,48.0192856 8.85393352,43.2959194 C2.04689751,38.5725532 2.46375857,29.1258208 2.46375857,29.1258208 L0.102393197,25.0970112 L3.99203728,22.1796193 C4.82575939,18.1508097 9.9827959,13.1906486 9.9827959,13.1906486 C13.87244,-0.145727867 20.8011968,0.368762571 20.8011968,0.368762571 C20.5235012,5.92585088 22.8848666,8.5649118 22.8848666,8.5649118 C34.6929644,8.28721625 40.8702226,17.7746222 40.8702226,17.7746222 L30.5569765,27.0610804 C27.3618891,23.3099664 22.1261286,20.9766955 19.9058352,20.8801058 C15.8763901,20.7047191 13.4908773,23.7244199 13.4235187,28.5882226 C13.3682337,32.5674663 16.9515866,34.4052136 18.7670928,34.2819345 C21.3508688,34.1065479 21.7454888,28.9383604 21.7454888,28.9383604 C21.7454888,28.9383604 24.441741,30.6121592 24.4608047,33.6687167 C24.4690657,35.0438498 27.1920072,32.8769348 27.1920072,32.8769348 L43.7234712,18.2899752 L42.1951924,6.20354643 L54.5593168,10.0931905 C54.5593168,10.0931905 62.4904796,6.02307609 70.3962241,14.6773912 C72.4468501,15.3503422 74.4549003,12.6725183 74.4549003,12.6725183 C75.7938122,15.5181034 73.7298416,19.6790884 73.7298416,19.6790884 C73.7298416,19.6790884 83.4358413,32.9195106 68.8685809,42.4621973 C68.0348587,45.5187547 70.3968596,50.1029554 70.3968596,50.1029554 Z" id="Shape"></path>
            </g>
            <g id="naxx" transform="translate(730.000000, 614.000000)">
                <path d="M18.477649,6.601 C22.029649,10.678 24.479649,13.489 26.460649,15.763 C29.761649,10.508 33.043649,5.282 36.325649,0.056 C37.066649,0.038 37.808649,0.019 38.549649,0 C41.803649,5.235 45.056649,10.469 48.388649,15.829 C50.356649,13.573 52.816649,10.754 55.636649,7.522 C59.806649,12.591 62.525649,17.795 63.724649,24.006 C65.262649,31.977 65.500649,31.918 72.865649,28.932 C73.435649,28.701 74.139649,28.798 76.585649,28.587 C74.318649,32.158 72.949649,34.961 70.987649,37.258 C67.805649,40.985 67.709649,47.92 71.181649,51.201 C74.149649,54.007 73.949649,56.543 70.814649,58.978 C67.022649,61.923 63.363649,65.039 59.153649,68.485 C54.034649,60.636 46.623649,59.189 37.717649,59.246 C28.858649,59.303 21.305649,60.562 16.329649,68.041 C11.336649,64.459 6.72164901,61.549 2.69064901,57.979 C1.66564901,57.072 1.98064901,53.899 2.58564901,52.067 C3.66364901,48.806 5.76464901,45.873 6.73664901,42.595 C7.08764901,41.412 5.68464901,39.409 4.62664901,38.168 C2.28164901,35.417 -0.403350994,32.934 0.0506490056,28.882 C0.778649006,28.721 1.14264901,28.512 1.39564901,28.604 C9.56664901,31.592 9.23964901,31.503 11.707649,22.847 C13.205649,17.592 15.894649,12.677 18.477649,6.601 Z M45.999649,49.99 C48.333649,49.445 51.719649,50.149 49.928649,45.81 C49.603649,45.022 50.594649,43.49 51.283649,42.518 C54.838649,37.507 54.843649,33.134 51.158649,28.466 C46.007649,21.939 37.109649,20.457 29.236649,24.815 C22.426649,28.584 20.690649,36.115 25.088649,42.515 C25.698649,43.403 26.598649,44.929 26.257649,45.503 C23.064649,50.884 27.931649,49.51 30.232649,50.008 L30.232649,56.23 C34.357649,55.301 37.983649,54.485 41.973649,53.587 C42.809649,54.009 44.513649,54.87 47.465649,56.361 C46.738649,53.2 46.415649,51.798 45.999649,49.99 Z M36.529849,38.35 C35.537849,43.469 33.590849,44.851 30.646849,43.061 C29.462849,42.342 29.100849,40.272 28.364849,38.817 C30.910849,38.672 33.455849,38.526 36.529849,38.35 Z M40.102749,38.0556 C43.529749,38.3316 45.885749,38.5216 48.241749,38.7106 C47.228749,40.1806 46.535749,42.2736 45.136749,42.9936 C41.975749,44.6216 41.320749,42.0486 40.102749,38.0556 Z M39.337949,43.2554 C39.894949,45.0734 40.452949,46.8924 41.104949,49.0194 L35.831949,49.0194 C36.596949,46.6884 37.212949,44.8134 37.827949,42.9394 C38.331949,43.0444 38.834949,43.1504 39.337949,43.2554 Z" id="Combined-Shape"></path>
            </g>
            <g id="og" transform="translate(1236.000000, 611.000000)">
                <path d="M36.7109514,31.6266485 C33.7002612,34.3445631 31.045388,37.1265753 27.9716978,39.3174655 C26.7986556,40.1534046 24.6655288,39.7145143 22.9698528,39.7109533 C20.746219,39.7073924 18.5208105,39.5150997 16.303388,39.5916607 C16.1782753,39.5961119 15.8544021,42.0416119 16.0584866,42.1137216 C18.1676556,42.8624168 20.5634302,44.2146972 22.507557,43.7686851 C29.9371204,42.0629777 35.3684302,36.9556485 39.4385852,30.9322582 C42.3250499,26.6590875 44.4537401,21.5063558 45.5087683,16.4497704 C46.6294584,11.0744777 44.0455711,7.92034359 39.7988387,6.92327042 C35.1643457,5.83539237 30.7694302,8.24350213 28.7729514,12.9208436 C28.396726,13.8021851 27.8705429,14.619429 27.386064,15.5176851 C23.6344584,12.608368 23.8917823,7.75119725 27.6886415,4.09496554 C33.8892612,-1.87679056 46.1174725,-1.1699369 51.835388,5.25584359 C54.8416415,8.63520944 56.0191204,11.6931972 55.8283457,16.7373192 C55.6313598,21.9229899 55.4955992,26.6359412 54.1655006,31.810929 C53.158388,35.7280021 53.788388,39.3708802 48.8850359,40.5095021 C48.5274443,40.5922948 48.0722471,41.0890509 48.0021485,41.4576119 C46.9231626,47.1578436 42.7465288,49.1938314 37.7872753,50.6004168 C36.8600218,50.863929 36.4136978,52.6444168 35.6248668,53.6281363 C33.592895,56.1608802 31.7295147,58.5974777 27.6256415,57.2816972 C25.8722894,56.7199533 23.2573457,57.3751729 21.5767542,58.3864899 C18.1481345,60.4500753 15.7843035,59.8375875 13.337064,56.7493314 C11.9661485,55.0195875 9.27489501,53.703807 7.04061332,53.4572094 C3.91989501,53.1117948 0.792965436,49.758246 1.11861332,46.5409046 C1.34133163,44.3402216 0.47441614,42.0487338 0.320909098,39.7830631 C0.186923183,37.8085021 -0.445738789,35.1066119 0.552500647,33.9457338 C5.11600769,28.635429 9.80374008,23.5824046 18.163219,24.6631607 C23.0009091,25.2881119 32.1155006,26.4044777 36.7109514,31.6266485 Z M50.5731697,44.9617899 C56.5732542,52.4193631 61.0356063,61.6093509 62.7321697,72.7454119 C55.6078457,72.7454119 48.8712823,72.8495704 42.1471415,72.6163265 C41.2855499,72.5860582 40.1267049,70.9293143 39.7247471,69.8031558 C38.6883528,66.9018509 38.1781415,63.8100338 37.1337612,60.9131802 C35.3111978,55.8592655 37.220719,53.3033753 42.4080147,51.6199241 C45.3015781,50.6807168 47.4950429,47.5737655 50.5731697,44.9617899 Z" id="Combined-Shape"></path>
            </g>
            <g id="core" transform="translate(740.000000, 524.000000)">
                <path d="M4.82893949,44.4893013 C6.50683949,44.9445321 8.30033949,45.158609 9.84223949,45.8947629 C18.1730895,49.8725321 34.5610895,43.6135321 37.2870395,33.2379936 C40.1217895,22.448686 33.5521395,11.2642244 23.1770395,11.712686 C19.4531895,11.8734552 15.3740395,13.5319167 12.2749395,15.6777629 C9.22088949,17.7914552 10.1252895,21.9443783 11.8660895,24.5623783 C13.0960395,26.4112244 16.1007895,27.156686 18.4263895,28.124686 C18.6941395,28.2355321 20.0345895,26.6913013 20.2725895,25.7622244 C20.6457395,24.3009167 20.5029395,22.7093013 20.6032395,20.6988398 C24.3491895,19.8374552 26.9535895,21.376609 28.7768395,24.6410706 C30.7921895,28.2499167 30.0101895,32.3351475 26.6101895,34.8008398 C17.1275895,41.676686 5.55398949,36.8053783 1.94743949,27.1211475 C-2.12321051,16.189686 -0.0126605092,12.3159936 10.1779895,4.12945519 C19.4752895,-3.34039097 35.2240895,0.168609032 42.3776895,7.93122442 C51.1675395,17.4690706 52.6533395,29.3600706 46.4636395,40.9583013 C39.4953395,54.0153013 19.5245895,59.0854552 7.15368949,50.7593013 C5.63728949,49.7388398 4.91563949,47.5473013 3.82593949,45.8981475 C4.16083949,45.4285321 4.49488949,44.9589167 4.82893949,44.4893013" id="Fill-8"></path>
            </g>
            <g id="tgt" transform="translate(1137.000000, 616.000000)">
                <path d="M0.417886228,6.87558429 C20.9153681,-1.33439114 40.3581659,-1.36228361 59.959602,6.45981209 C62.7270584,30.5092262 52.8592241,53.022811 33.1043793,63.4563396 C31.6138752,64.2434304 28.7915055,63.8171985 27.1990196,62.8976185 C14.4539022,55.5401068 6.28140727,44.5103766 3.27599318,30.17103 C1.57280898,22.0482186 1.20846354,13.6447391 0.417886228,6.87558429 Z M6.47815376,14.9681523 C7.8003327,32.8005913 13.4555437,46.2970024 26.2948598,56.201361 C28.978164,58.2705111 31.462742,59.0304644 34.6843049,56.4879662 C48.6360888,45.4791289 54.6188486,30.8362968 54.8595171,13.495181 C54.8764938,12.3158054 53.8778692,10.3145618 52.9681222,10.0599125 C46.2853265,8.18649279 39.5336258,5.52715555 32.7449759,5.34940038 C26.172029,5.17663833 19.5761137,8.04668535 12.9033043,8.8735465 C7.54268755,9.53763184 5.72718808,11.9572992 6.47815376,14.9681523 Z M30.1185771,30.1182958 L13.5600355,28.0333333 L10.6905973,13.8935923 L29.9703984,10.1333381 L29.9703984,30.2499134 L30.1185771,30.1182958 Z M47.7380787,30.2500877 C44.513883,39.6951768 39.6527477,47.240091 31.0531493,53.2282565 C30.7280277,45.1002153 30.4281836,37.6058561 30.1231096,30.1149836 C30.1187514,30.1184701 29.9705727,30.2500877 29.9705727,30.2500877 L47.7380787,30.2500877 Z" id="Combined-Shape"></path>
            </g>
            <g id="gng" transform="translate(834.000000, 610.000000)">
                <path d="M25.0258906,73.1209259 C25.0258906,73.1209259 26.8422968,65.9919968 20.4230005,62.0467072 C14.0037043,58.1014175 10.989,63.79 9.291,64.992 C6.257,60.259 3.369,55.754 -1.33226763e-15,50.499 C8.822,48.43 8.7505002,45.9158478 8.7505002,39.7527618 C8.7505002,33.5896759 -1.33226763e-15,31.9021759 -1.33226763e-15,31.9021759 C-1.33226763e-15,31.9021759 2.99,21.124 4.673,17.036 C9.069,19.068 12.6449997,20.6658485 16.534,17.097 C20.4230003,13.5281515 17.5571406,4.72541714 17.5571406,4.72541714 C17.5571406,4.72541714 27.661,1.263 31.514,0 C31.98,0.945 32.1469862,10.2742453 39.6108534,11.2742453 C47.0747206,12.2742453 49.870619,4.72541714 49.870619,4.72541714 L61.7192518,11.8338156 C61.7192518,11.8338156 55.3442518,16.3149776 58.7290175,22.2224884 C62.1137831,28.1299992 68.556,25.14 70.482,24.846 C71.118,29.519 71.2200006,35.3457618 71.4820006,39.7527618 C71.5400006,40.7357618 65.7995665,37.2410431 63.1137831,46.326004 C60.4279997,55.410965 69.1508925,56.9129181 69.1508925,56.9129181 C69.1508925,56.9129181 62.137,65.368 58.371,69.442 C54.499,66.53 52.1588018,63.0856934 46.0747206,64.9919968 C38.2553847,67.4420013 40.3872206,75.2097931 40.3872206,75.2097931 L25.0258906,73.1209259 Z M36.139,62.974 C49.888,62.967 60.538,52.412 60.535,38.795 C60.532,24.876 49.893,14.262 35.952,14.267 C22.037,14.272 11.642,24.848 11.655,38.986 C11.667,52.567 22.297,62.981 36.139,62.974 Z M56.2858665,39.2634134 C56.0170125,50.3538727 46.6339148,59.1355134 35.4067187,58.8047583 C24.5038105,58.4823182 15.7766797,49.202697 16.0483054,38.2194098 C16.3171594,27.3405229 25.6180303,18.3704072 36.4414834,18.5505671 C47.4922151,18.7344226 56.5547205,28.1932798 56.2858665,39.2634134 Z M45.1111,38.7374 C45.2521,33.4034 40.7391,28.7764 35.4051,28.7844 C30.5351,28.7914 25.7931,33.5554 25.8131,38.4194 C25.8351,43.5584 30.1931,47.9144 35.3641,47.9654 C40.7331,48.0184 44.9721,44.0054 45.1111,38.7374 Z" id="Combined-Shape"></path>
            </g>
            <g id="loe" transform="translate(1029.000000, 625.500000)">
                <path d="M52.370524,3.69454451 C53.724524,7.75254451 55.856524,11.5515445 58.009524,16.2545445 C54.072524,17.2665445 50.720524,18.1285445 46.630524,19.1805445 C45.716524,22.2885445 41.455524,24.1725445 37.551524,21.9535445 C35.808524,26.7665445 32.113524,28.1925445 28.175524,25.5735445 C26.509524,28.5515445 24.897524,31.4115445 21.085524,27.6805445 C20.726524,27.3285445 17.800524,28.6275445 17.833524,29.0085445 C17.997524,30.9325445 18.226524,33.3555445 19.457524,34.5255445 C20.449524,35.4685445 23.115524,35.4505445 24.666524,34.8675445 C31.600524,32.2585445 38.406524,29.3085445 45.247524,26.4535445 C50.696524,24.1805445 56.131524,21.8725445 61.567524,19.5675445 C64.465524,18.3375445 67.313524,16.9825445 70.252524,15.8625445 C73.297524,14.7025445 76.848524,13.5985445 78.370524,17.6215445 C79.815524,21.4365445 76.694524,23.8565445 73.676524,24.5165445 C69.012524,25.5365445 64.093524,25.3355445 59.317524,25.9355445 C57.856524,26.1185445 56.424524,27.0935445 55.128524,27.9355445 C46.368524,33.6335445 37.878524,39.7895445 28.843524,45.0055445 C21.576524,49.2015445 13.554524,49.2545445 5.74452405,45.8165445 C-1.26447595,42.7315445 -1.92447595,38.6305445 4.12152405,34.1925445 C7.16652405,31.9585445 10.641524,30.1525445 14.165524,28.7755445 C16.919524,27.6995445 17.637524,26.3815445 17.145524,23.5785445 C16.720524,21.1565445 17.082524,18.6075445 16.907524,16.1275445 C16.749524,13.8775445 16.335524,11.6445445 16.128524,10.1015445 C24.773524,7.10154451 33.291524,4.14654451 41.809524,1.19154451 C43.080524,1.11354451 44.351524,1.03554451 45.622524,0.958544512 C48.953524,-0.796455488 51.043524,-0.285455488 52.370524,3.69454451 Z" id="Combined-Shape"></path>
            </g>
            <g id="brm" transform="translate(932.000000, 619.000000)">
                <path d="M41.672,32.4052712 C35.242,34.7992712 29.75,36.8442712 23.545,39.1542712 C26.806,43.1192712 29.478,46.3672712 32.456,49.9892712 L0,49.9892712 C1.496,47.1512712 2.532,44.9702712 3.758,42.9002712 C8.834,34.3312712 14.026,25.8302712 19.048,17.2302712 C20.765,14.2892712 22.28,14.0332712 24.762,16.4732712 C30.065,21.6872712 35.577,26.6892712 41.672,32.4052712 Z M60.6214,23.5633712 C65.2634,32.4203712 69.5504,40.6003712 73.9264,48.9493712 C62.6144,54.4653712 59.5604,45.9193712 55.7074,38.1943712 C53.3814,41.6723712 51.5984,44.4413712 49.7104,47.1363712 C46.9064,51.1373712 42.5714,51.8273712 38.6704,48.7513712 C35.4204,46.1893712 32.3574,43.3913712 28.8874,40.4203712 C39.0344,33.9133712 52.2854,34.5023712 60.6214,23.5633712 Z M27.2069,16.3784712 C30.3019,11.4014712 33.1539,6.72747119 36.0999,2.11347119 C37.7649,-0.49552881 40.0799,-0.83552881 41.5599,1.91947119 C46.0279,10.2344712 50.1569,18.7324712 54.5199,27.3614712 C49.8509,30.1834712 46.1229,31.3454712 41.7399,27.3314712 C37.3569,23.3174712 32.2349,20.1104712 27.2069,16.3784712 Z" id="Combined-Shape"></path>
            </g>
            <g id="gangs" transform="translate(734.000000, 719.000000)">
                <path d="M9.22940909,26.0935983 C9.22940909,26.0935983 8.52605725,19.9849548 13.8767899,15.8233469 C19.2275225,11.661739 25.281607,12.3466853 25.281607,12.3466853 C25.281607,12.3466853 25.1777476,8.11737159 31.406684,4.64596876 C37.6356204,1.17456592 43.8330046,4.24170579 43.8330046,4.24170579 C43.8330046,4.24170579 55.53954,-6.06075523 64.4964298,5.44660664 C73.4533196,16.9539685 55.4126737,23.1145418 56.5170018,27.2984992 C57.6213299,31.4824566 64.5713663,26.8975229 66.1805302,31.2425282 C67.789694,35.5875334 57.3899469,42.8807003 49.1528424,47.7528908 C40.9157379,52.6250812 26.8756521,59.1531065 23.462095,56.9957227 C20.0485379,54.8383388 28.1042171,47.3249636 23.462095,46.3172642 C18.8199729,45.3095648 9.25175858,57.6228233 2.02564016,43.9547909 C-5.20047826,30.2867585 9.22940909,26.0935983 9.22940909,26.0935983 Z M41.100004,23.6939811 C43.9967071,22.7667787 45.4425299,17.5786623 43.8726563,13.6643155 C42.3027827,9.74996862 37.5926484,7.49848349 34.7481453,8.62187441 C31.9036422,9.74526533 29.3579724,12.8774817 31.4483077,17.6412113 C33.5386431,22.404941 38.2033009,24.6211836 41.100004,23.6939811 Z M58.0748933,19.1836596 C60.9715964,18.2564571 62.4174192,13.0683407 60.8475456,9.15399388 C59.277672,5.23964704 54.5675377,2.98816191 51.7230346,4.11155283 C48.8785315,5.23494375 46.3328617,8.3671601 48.423197,13.1308898 C50.5135324,17.8946194 55.1781902,20.110862 58.0748933,19.1836596 Z M10.3199331,45.3542638 C14.3162537,45.3542638 17.5559116,42.1146059 17.5559116,38.1182853 C17.5559116,34.1219648 14.3162537,30.8823068 10.3199331,30.8823068 C6.32361253,30.8823068 3.0839546,34.1219648 3.0839546,38.1182853 C3.0839546,42.1146059 6.32361253,45.3542638 10.3199331,45.3542638 Z M27.6052974,43.4254664 C28.5324999,46.3221695 35.0864631,49.9196739 45.7767536,43.4254664 C56.4670441,36.9312588 54.1124588,32.8827878 52.9890679,30.0382846 C51.865677,27.1937815 44.8788297,25.0701228 36.4957961,28.7683073 C28.1127625,32.4664918 26.678095,40.5287633 27.6052974,43.4254664 Z M25.7351703,32.1779204 C28.6318734,31.2507179 30.2453176,26.40376 28.675444,22.4894132 C27.1055703,18.5750663 21.9427415,16.4172477 19.0982383,17.5406386 C16.2537352,18.6640295 13.3640661,23.1796183 15.4544015,27.9433479 C17.5447368,32.7070776 22.8384673,33.1051228 25.7351703,32.1779204 Z" id="Combined-Shape"></path>
            </g>
            <g id="kara" transform="translate(1345.000000, 617.000000)">
                <path d="M5.7106094,0 L10.5324755,0 L12.4625007,4.36516352 L17.5839638,4.36516352 L17.5839638,0 L28.4443518,0 L28.4443518,4.36516352 L33.8014734,4.36516352 L35.2784496,0 L40.5515379,0 C40.5515379,0 40.6492723,7.00399118 40.5515379,10.9855245 C40.4538035,14.9670578 39.2974325,18.0050436 33.8014734,18.0050436 L12.4625007,18.0050436 C7.34103771,18.0050436 5.7106094,15.909692 5.7106094,10.9855245 L5.7106094,0 Z M9.93054149,39.0142769 C12.3243582,28.7303413 12.546534,20.5771927 12.546534,20.5771927 L34.2682234,20.5771927 C34.2682234,20.5771927 34.6782042,34.290512 35.8438474,39.0142769 C37.0094907,43.7380419 41.0192014,47.9355056 41.0192014,47.9355056 C41.0192014,47.9355056 9.93054149,47.9355056 6.17827287,47.9355056 C2.42600425,47.9355056 7.53672474,49.2982125 9.93054149,39.0142769 Z M2.32004924,50.273823 L43.4744346,50.273823 C43.4744346,50.273823 46,53.2212719 46,56.1687208 C46,59.1161697 43.4744346,62.0636186 43.4744346,62.0636186 L2.32004924,62.0636186 C2.32004924,62.0636186 6.65510339e-16,59.1161697 0,56.1687208 C0,53.2212719 2.32004924,50.273823 2.32004924,50.273823 Z M19.7136066,31.5672842 L19.7136066,39.2837315 L27.1962221,39.2837315 L27.1962221,31.5672842 L23.4549143,28.0926908 L19.7136066,31.5672842 Z" id="Combined-Shape"></path>
            </g>
            <g id="icecrown" transform="translate(946.000000, 713.000000)">
                <path d="M18.1105092,54.6263914 C18.1105092,55.3028715 21.6220785,58.9654354 21.6220785,60.1937678 C21.6220785,61.4221001 16.8350883,68.7068486 14.4571668,69.0847203 C12.0792453,69.462592 4.21137532,67.2317531 3.14915112,65.105103 C2.44100165,63.6873363 3.41604971,62.6060649 6.07429532,61.8612887 C2.35131942,52.7484986 0.482134199,47.8537803 0.466739645,47.1771341 C0.451345092,46.5004878 1.65194127,45.0021284 4.06852818,42.6820559 C2.09086506,37.6889647 1.17560514,34.7504056 1.32274843,33.8663786 C1.46989172,32.9823515 3.65036914,31.4150314 7.86418069,29.1644181 C4.12760031,27.3471776 2.25931011,26.1027267 2.25931011,25.4310655 C2.25931011,24.4235738 8.2144547,22.8300875 10.8442383,19.4985352 C12.5974273,17.2775003 13.2626568,12.213864 15.5671857,6.45472687 C14.9002077,20.1524935 15.2715416,24.9814222 15.5671857,26.1811523 C25.6982422,17.3686523 16.6230469,18.3671576 16.6230469,10.7394332 C16.6230469,5.65428357 19.2810323,2.07447251 21.6220785,0 C19.8913876,7.43086161 18.8632813,12.5358686 24,12.5358686 C29.1367188,12.5358686 27.7568409,7.77857338 26.3779215,0 C28.7189677,2.07447251 31.1835938,5.65428357 31.1835938,10.7394332 C31.1835938,18.3671576 22.2109457,15.3046875 31.7724609,26.1811523 C33.0216815,25.6435547 33.0997923,20.1524935 32.4328143,6.45472687 C34.7373432,12.213864 36.2980805,18.3497659 38.0512695,20.5708008 C40.6810531,23.9023531 45.7406899,24.4235738 45.7406899,25.4310655 C45.7406899,26.1027267 43.8723997,27.3471776 40.1358193,29.1644181 C44.3496309,31.4150314 46.5301083,32.9823515 46.6772516,33.8663786 C46.8243949,34.7504056 45.9091349,37.6889647 43.9314718,42.6820559 C46.3480587,45.0021284 47.5486549,46.5004878 47.5332604,47.1771341 C47.5178658,47.8537803 45.6486806,52.7484986 41.9257047,61.8612887 C44.5839503,62.6060649 45.5589984,63.6873363 44.8508489,65.105103 C43.7886247,67.2317531 35.9207547,69.462592 33.5428332,69.0847203 C31.1649117,68.7068486 26.3779215,61.4221001 26.3779215,60.1937678 C26.3779215,58.9654354 29.8894908,55.3028715 29.8894908,54.6263914 C29.8894908,54.1940236 24.68697,44.5880618 24,44.6035156 C23.31303,44.6189695 18.1105092,54.1852311 18.1105092,54.6263914 Z M8.50878906,37.6083984 C10.700323,42.6910933 12.2972185,45.6870165 13.2994755,46.5961681 C14.3017325,47.5053198 16.9618577,47.036719 21.279851,45.1903657 L8.50878906,37.6083984 Z M39.6464844,37.9052734 L26.6022494,45.2498886 C30.4385364,47.0451947 32.9060506,47.6471637 34.0047921,47.0557957 C35.1035337,46.4644278 36.9840977,43.4142537 39.6464844,37.9052734 Z" id="Combined-Shape"></path>
            </g>
            <g id="ungoro" transform="translate(846.000000, 721.000000)">
                <path d="M3.2120001,55.8092155 C9.0458055,59.9836469 15.2742525,52.652709 20.800488,50.3550178 C26.3267235,48.0573266 39.2008101,45.8911826 41.5999806,44.1234387 C43.9991511,42.3556948 57.9469134,31.5663182 56.6314414,30.3823934 C55.3159693,29.1984685 51.4823079,30.2427027 48.2236956,31.1090351 C44.9650834,31.9753674 43.2029773,31.1090351 40.0533613,31.1090351 C36.9037453,31.1090351 28.748701,36.5588479 26.9381048,34.3225454 C25.1275086,32.0862429 31.3148683,23.6634632 35.1028014,23.0946781 C38.8907346,22.5258931 43.7730152,3.52546513 41.5999806,1.52970609 C39.426946,-0.46605296 25.2849949,8.93894588 23.443334,12.7099658 C21.6016731,16.4809857 23.3268208,17.4913935 21.8547449,20.2388509 C20.382669,22.9863083 17.0445021,26.0288072 14.0258069,26.0288072 C11.0071117,26.0288072 12.7078292,13.6026076 11.4568779,12.7099658 C10.2059266,11.817324 10.7759645,11.0274144 9.85513402,9.4526064 C8.93430358,7.87779842 10.3312096,0 9.00696775,0 C7.68272587,0 1.27387126,2.89529137 1.27387126,12.7099658 C1.27387126,22.5246402 1.27387126,27.2033359 1.27387126,34.3225454 C1.27387126,41.4417549 -2.62180529,51.6347842 3.2120001,55.8092155 Z" id="Path-4"></path>
            </g>
            <g id="kobolds" transform="translate(1045.000000, 710.000000)">
                <path d="M21.3271716,27.8261719 C15.8392817,26.2036125 12.8470865,23.9028312 12.3505859,20.9238281 C11.6058352,16.4553235 15.494723,15.7100695 16.9628906,11.2675781 C18.4310583,6.82508677 17.6429866,0.82421875 18.9931641,0.82421875 C20.3433415,0.82421875 32.7392578,10.4726563 32.7392578,18.1621094 C32.7392578,23.2884115 30.3320313,26.5097656 25.5175781,27.8261719 C27.125651,26.9456989 27.9296875,25.337626 27.9296875,23.0019531 C27.9296875,19.4984438 24.9962984,21.5809236 23.9746094,19.4984438 C22.9529203,17.4159641 25.5175781,14.9404297 23.9746094,14.9404297 C22.4316406,14.9404297 18.9931641,19.0464146 18.9931641,23.0019531 C18.9931641,25.6389788 19.7711666,27.2470517 21.3271716,27.8261719 Z M1.00878906,65.2070313 C1.78172972,64.1325231 4.96203208,64.8056524 6.0573534,61.1183593 C6.79891911,58.6219502 7.35579341,52.7944021 7.7279763,43.635715 C7.69105061,46.6956289 6.55906893,47.5224609 4.33203125,46.1162109 C0.991474727,44.0068359 7.7279763,41.4511252 7.7279763,33.8857422 C7.7279763,26.3203592 14.6900473,29.5679218 18.4609375,30.5101159 C22.2318277,31.45231 23.265625,34.1533203 23.265625,39.5908203 C23.265625,45.0283203 17.8662109,52.9912109 24.5390625,52.9912109 C31.2119141,52.9912109 27.5175781,45.3203125 27.5175781,39.5908203 C27.5175781,33.8613281 31.5529517,26.8945313 35.15625,28.359375 C38.7595483,29.8242187 39.5190966,32.2586957 36.7048608,35.924758 C33.890625,39.5908203 35.15625,50.8591418 36.7048608,57.663121 C38.2534716,64.4671002 43.0585938,66.054233 41.5710725,69.302813 C40.0835512,72.5513929 37.0827134,68.3961876 31.1972656,69.302813 C25.3118179,70.2094383 26.2841797,73.5566406 18.4609375,73.5566406 C10.6376953,73.5566406 8.62345044,72.2172203 6.0573534,69.302813 C3.49125636,66.3884056 -1.32805646,68.4556112 1.00878906,65.2070313 Z"></path>
            </g>
            <g id="raven" transform="translate(1330.000000, 509.000000)">
                <path d="M0.594435889,50.2839275 C-0.512743843,46.249571 -0.0732719744,42.0818423 1.9128515,37.7807416 C3.89897497,33.4796408 7.38818843,29.139504 12.3804919,24.760331 C11.9979021,24.0510356 11.7349032,23.1311261 11.591495,22.0006026 C11.4480868,20.8700792 11.4480868,19.7167003 11.591495,18.540466 L14.0888784,20.9428065 C13.3686778,19.0678326 13.3686778,16.9041497 14.0888784,14.4517577 C14.809079,11.9993658 15.9878456,10.1491704 17.6251781,8.90117169 C18.0807007,11.0466088 18.5123249,12.0666907 18.9200506,11.9614171 C19.1911544,11.891419 21.6482649,6.83611388 27.1758436,4.40838176 C29.0329143,3.59274971 32.6334043,3.33872699 37.9773136,3.64631359 L43.247354,0 L43.247354,3.64631359 C44.7697229,3.43505837 46.0430645,3.18442794 47.0673787,2.8944223 C48.0916929,2.60441666 50.0520111,1.93952765 52.9483333,0.899755266 L48.391831,6.31025965 C52.33816,6.72941408 55.0866702,7.31228947 56.6373615,8.05888582 C58.1880529,8.80548218 60.6580699,10.9364395 64.0474126,14.4517577 C60.1899793,12.4167252 57.4384508,11.174149 55.792827,10.7240292 C54.1472032,10.2739093 52.7740549,10.2739093 51.6733819,10.7240292 L59.8046803,23.2499634 C58.4815781,23.5753137 57.4258052,23.5753137 56.6373615,23.2499634 C55.8489179,22.9246132 53.1004077,21.3547807 48.391831,18.540466 L52.9483333,30.2869715 L51.6733819,22.0006026 C53.9174529,23.455704 55.5721127,24.328321 56.6373615,24.6184535 C57.7026103,24.9085859 59.425485,24.9558785 61.8059854,24.760331 L54.8420465,13.1024242 C60.8485645,14.4210276 65.0364256,16.2337082 67.4056297,18.540466 C69.7748338,20.8472238 72.3402307,21.6480039 75.1018204,20.9428065 L68.8333096,24.6184535 C69.8968328,25.850181 71.1009535,26.9371109 72.4456718,27.8792432 C73.79039,28.8213755 76.3084994,29.6239516 80,30.2869715 C77.1936175,31.4369681 74.9922337,31.9905102 73.3958486,31.9475977 C71.7994635,31.9046851 69.1014604,31.2194424 65.3018392,29.8918694 L68.8333096,35.039571 C64.0645452,32.6799264 61.7221038,31.6492687 61.8059854,31.9475977 C61.9318077,32.3950911 67.3988969,36.9057606 67.4056297,37.7807416 C67.4226173,39.9884178 65.3260265,46.2493789 64.8916715,48.9347953 C64.7726307,49.6707702 63.7440686,47.9166892 61.8059854,43.6725522 C62.9818954,50.0992078 63.4758988,53.6459476 63.2879956,54.3127718 C63.2145669,54.573353 61.6287254,54.2746319 58.5304711,53.4166084 L61.8059854,57.695684 C61.7681981,59.3101332 61.5142542,60.289308 61.0441536,60.6332083 C60.4428376,61.0730989 58.9023597,58.7325532 58.5304711,59.5592489 C58.189469,60.3172852 60.2025621,63.4696537 59.8046803,64.3060004 C58.9151125,66.1758701 57.2609012,69.421049 54.8420465,74.0415373 C55.7373854,67.0171788 56.0543123,62.1897494 55.792827,59.5592489 C55.5313418,56.9287485 54.8512067,54.4695372 53.7524219,52.1816149 C53.0102072,55.9034022 52.3171938,58.7206 51.6733819,60.6332083 C51.02957,62.5458167 49.9357197,65.0369555 48.391831,68.1066246 C48.5463856,64.7339967 48.5463856,62.2428579 48.391831,60.6332083 C48.2372763,59.0235587 47.7957922,56.9167465 47.0673787,54.3127718 C44.672435,58.3148515 43.3990934,61.3974461 43.247354,63.5605558 C43.0956145,65.7236655 43.6610522,72.7325375 44.9436671,84.5871719 C39.7219203,79.3702276 36.1421563,75.0600227 34.2043751,71.6565573 C32.2665939,68.2530918 31.9138494,62.9477484 33.1461414,55.7405272 L36.6528613,61.8185147 C38.1613512,59.5005823 39.2770641,56.998668 40,54.3127718 C40.7229359,51.6268756 40.8542043,46.4781763 40.3938052,38.8666737 C40.1682276,43.6754862 39.7879154,47.4812374 39.2528686,50.2839275 C38.7178218,53.0866176 37.8511527,55.8128222 36.6528613,58.4625413 L33.1461414,50.2839275 C31.9607868,52.5195068 31.1870828,54.7107272 30.8250296,56.8575886 C30.4629764,59.00445 30.2347891,62.7541287 30.1404677,68.1066246 C27.4171407,63.1922337 25.7741518,59.7219201 25.2115009,57.695684 C24.3675246,54.6563298 27.1758436,49.8872379 27.1758436,48.9347953 C27.1758436,48.4815338 25.7994756,49.563807 23.0467398,52.1816149 C23.5210502,49.4712338 23.968021,47.5703537 24.3876523,46.4789745 C24.8072835,45.3875952 25.7366806,43.7088104 27.1758436,41.4426198 C23.3246853,43.5737608 20.1411301,44.9727815 17.6251781,45.6396818 C15.1092261,46.3065821 10.8211559,47.1121514 4.76096726,48.0563897 C8.02821976,44.1876173 10.9129582,41.5915171 13.4151825,40.268089 C17.168519,38.2829468 24.9374347,35.8890406 27.1758436,35.039571 C29.4142525,34.1901015 31.6346861,29.1182292 33.1461414,27.8792432 C34.1537782,27.0532525 35.3226848,27.0532525 36.6528613,27.8792432 C35.9111519,26.4169663 34.7422452,25.9548165 33.1461414,26.4927939 C30.7519855,27.2997601 27.7330311,32.9940196 26.2836191,33.7465095 C24.8342071,34.4989995 18.17591,35.2275917 12.3804919,38.8666737 C8.51687982,41.2927284 4.58819449,45.0984797 0.594435889,50.2839275 Z M17.8397829,21.0412827 C18.6422617,21.6195686 19.3209882,22.061165 19.8759623,22.3660721 C20.7084234,22.8234327 20.9061254,22.6986164 22.687556,22.6986164 C24.4689866,22.6986164 25.7448435,23.6573376 27.4529282,22.6986164 C29.1610129,21.7398951 29.5367975,20.0238948 29.5367975,18.5216088 C29.5367975,17.0193228 28.4642216,16.2477723 28.165259,14.8519483 C27.9659505,13.9213989 28.1437314,12.7161379 28.6986015,11.2361653 C26.897956,13.2708191 25.6671732,14.7269101 25.0062531,15.6044382 C23.5824304,17.4949004 22.6652345,19.2944337 22.1726254,19.7392417 C21.3370221,20.493761 19.8927413,20.9277746 17.8397829,21.0412827 Z M13.5078459,26.7609845 L14.708244,28.2417194 L16.9333722,26.0123857 C15.7754838,25.8915547 14.9200832,25.8915547 14.3671703,26.0123857 C13.8142575,26.1332167 13.527816,26.3827496 13.5078459,26.7609845 Z"></path>
            </g>
            <g id="witchwood" transform="translate(1137.000000, 715.000000)">
                <path d="M47.5673933,23.5295525 L56.2752229,19.280023 C57.1746688,16.75558 57.7628765,15.0010482 58.0398461,14.0164277 C59.1601305,10.0338416 59.635387,8.05377784 60.3240606,8.05377784 C61.0361677,8.05377784 61.5678123,10.1430848 60.8954691,14.0164277 C60.7494648,14.8575533 60.2864227,16.273852 59.506343,18.2653239 C65.7057117,16.5295763 69.0108901,16.0881495 69.4218784,16.9410436 C70.0383608,18.2203847 60.8954691,22.1022773 59.506343,21.6807046 C58.6995911,21.4358711 54.6592391,23.9170982 47.385287,29.1243859 C47.3862373,29.1520366 47.387216,29.1796782 47.3882229,29.2073106 C47.7026751,37.8363542 50.7624909,44.7798203 56.5676705,50.037709 C55.7984576,54.4184508 53.4721268,57.9963498 49.5886782,60.771406 C49.2679694,61.0005799 48.1155697,56.6993734 46.131479,47.8677867 C45.1567327,50.1548964 44.486422,51.998831 44.1205469,53.3995907 C43.7546717,54.8003503 43.5360605,56.3596699 43.4647131,58.0775495 C42.4322045,57.0139424 41.5982647,56.3049014 40.9628935,55.9504264 C40.3275224,55.5959514 39.1082809,55.1595178 37.305169,54.6411258 C38.2489977,56.2659865 38.9773957,57.411461 39.4903631,58.0775495 C42.1461421,61.5260798 43.8044833,63.3026886 43.4647131,63.4554761 C41.6364314,64.2776157 40.240335,65.2635002 35.5703585,66.3438693 C30.900382,67.4242384 29.9881499,67.1545566 26.0610006,67.4817133 C25.2838402,67.5464558 27.4057719,59.1499079 26.665258,59.1764204 C25.7629286,59.2087263 22.5411789,65.7707159 22.1649721,66.8585304 C21.7887652,67.9463448 11.2954276,64.6034691 10.0518207,60.771406 C9.60562139,59.3964827 10.385218,56.7935323 9.29408333,54.6411258 C8.24054472,52.5628823 5.46773447,48.9098468 0.975652602,43.6820194 C4.39806187,44.1209916 6.90184871,44.6147286 8.48701312,45.1632303 C10.0721775,45.711732 11.6006658,47.0714406 13.072478,49.2423562 C14.8796906,45.1429007 14.8796906,40.6481465 13.072478,35.7580936 C11.2652654,30.8680407 7.09055216,25.2656179 0.548338386,18.9508253 C6.11854912,14.9977452 9.81233318,12.5502183 11.6296906,11.6082447 C11.8707231,11.4833126 15.4537615,11.7170006 15.6796625,11.6082447 C17.014876,10.9654308 15.0401098,10.0561343 16.454507,9.58141932 C17.5679157,9.2077253 18.7058585,8.88611488 19.8683356,8.61658807 C27.1208469,6.93505281 31.8582141,6.22173186 34.0804373,6.47662522 L40.9628935,2.24805862 L42.265776,6.47662522 L54.7320649,0.654499617 C50.6397847,8.82764814 48.2515608,16.4526658 47.5673933,23.5295525 Z M7.27676273,19.3786224 C9.78788442,20.1226317 13.4811001,19.6567794 18.3564099,17.9810655 C19.0202328,17.7529001 22.3009341,27.4215289 23.3475393,27.4650242 C24.8300698,27.5266359 22.4946652,21.2682101 23.8387377,21.2059895 C27.1460423,21.052886 30.8142696,20.3396897 33.5675893,20.0172402 C34.3118073,19.9300825 33.5551873,24.6147357 34.2000427,24.4926158 C34.6734187,24.40297 35.8300188,19.6309767 36.2531493,19.5250034 C42.9289506,17.8530439 43.5250043,14.2813629 43.5250043,12.9874622 C43.5250043,11.4998313 29.5510486,10.5728708 20.5987448,12.0073592 C14.6305423,12.9636848 10.1898816,15.4207726 7.27676273,19.3786224 Z M9.34838489,36.7620928 C10.4377787,37.6141557 11.2889763,38.8282279 11.9019777,40.4043096 C12.5149791,41.9803912 12.8299045,43.7645258 12.8467538,45.7567133 C11.8361977,44.6921107 11.0904681,44.0148124 10.6095652,43.7248186 C10.1286623,43.4348248 9.3829327,43.2127442 8.3723765,43.0585768 L9.34838489,36.7620928 Z" id="Combined-Shape"></path>
            </g>
            <g id="doomsday" transform="translate(1236.000000, 714.000000)">
                <path d="M49.6228882,15.099896 C50.3308592,15.9612076 51.0995503,16.9808717 51.9289615,18.1588883 C52.3416177,18.7233846 52.5344645,19.2489958 52.507502,19.7357221 C52.4805394,20.2224483 52.23451,20.6568837 51.7694139,21.0390282 L48.3234867,24.0323734 C51.8887609,28.6090687 54.0124805,34.3639505 54.0124805,40.6148535 C54.0124805,55.5299881 41.9213749,67.6210938 27.0062402,67.6210938 C12.0911056,67.6210938 0,55.5299881 0,40.6148535 C0,25.6997189 12.0911056,13.6086133 27.0062402,13.6086133 C34.6737069,13.6086133 41.5948647,16.8039413 46.5107392,21.9356229 C47.0783266,21.547157 47.4276413,21.0719178 47.5586833,20.5099055 C46.6341391,19.4562435 45.6750591,18.4819918 44.6814434,17.5871504 C43.6878276,16.6923089 42.3175513,15.8137667 40.5706144,14.9515237 C42.5399395,12.3534665 44.2323668,11.2542962 45.6478965,11.6540128 C46.161939,11.7991679 46.7654132,12.1775525 47.458319,12.7891667 C49.7465814,10.3775861 52.0346472,8.82488146 54.3225163,8.13105283 C57.4289338,7.18898788 60.0175065,7.18898788 62.0882345,8.13105283 L59.6427507,10.6173727 C57.9143082,10.0385784 56.1408968,10.0385784 54.3225163,10.6173727 C52.956288,11.052246 51.3897453,12.5464204 49.6228882,15.099896 Z M59.2956443,10.8785532 L64.5064943,12.9416245 L66.3075342,9.97633179 L62.2001083,8.43179332 L59.2956443,0 L65.3806409,6.54610369 L75.5637052,0 L69.6224855,8.43179332 L78.53708,10.8785532 L70.6897527,12.9416245 L71.4715928,20.3244418 L66.3075342,15.0046957 L61.1085947,21.7800768 L61.1085947,13.8919133 L54.2098547,15.0046957 L59.2956443,10.8785532 Z M7.34494158,52.205238 C5.47119365,48.8556096 4.40314352,44.9941723 4.40314352,40.8832786 C4.40314352,28.8545783 13.5475717,18.9616736 25.2639022,17.7770903 C25.0495576,16.8480733 24.8371143,16.1598391 24.6314122,16.1598391 C11.8045717,16.1598391 1.97118587,28.8218954 1.97118587,39.8710604 C1.97118587,43.3411954 3.1608258,47.736254 5.54010567,53.0562364 C6.13904702,52.7534645 6.74065899,52.4697984 7.34494158,52.205238 Z" id="Combined-Shape"></path>
            </g>
            <g id="expert" transform="translate(827.000000, 506.000000)" fill-rule="nonzero">
                <path d="M66.7047397,67.0761229 L63.482821,57.2619642 C64.6820949,55.5594774 65.6862608,53.7108479 66.4659395,51.7477148 L83.4056836,41.634491 L66.2617918,31.5340735 C65.5529245,29.8519261 64.6738085,28.2594229 63.6508098,26.7738902 L66.4794992,15.6308878 L55.6777475,19.176731 C54.3918426,18.3804794 53.0328664,17.6927048 51.6136251,17.1209404 L41.634491,0.405683594 L31.8271122,17.052389 C30.2278292,17.6844184 28.7053841,18.4648504 27.2748432,19.3786188 L15.0335108,15.855375 L18.6720114,28.2488766 C17.9706772,29.4263044 17.3597406,30.6639973 16.842968,31.9491488 L0.405683594,41.634491 L16.635807,51.324353 C17.187232,52.7872864 17.8637068,54.1876948 18.651672,55.5150319 L15.2595046,67.3013634 L26.5908352,63.9747342 C28.2134709,65.0828573 29.9664296,66.0116919 31.8188257,66.7439119 L41.634491,83.4056836 L51.6219116,66.6768671 C53.1820223,66.0470976 54.6683084,65.2749521 56.0657036,64.3754966 L66.7047397,67.0761229 Z M29.6477783,55.6619279 C29.4240445,55.3575896 29.09786,54.2562463 29.09786,54.2562463 L28.4861701,52.9726014 C28.4861701,52.9726014 27.9362518,52.0558197 29.09786,52.2388747 C30.2594683,52.4219297 34.4772665,54.072438 36.7997297,54.1342096 C39.1229463,54.195228 40.3455729,52.9726014 40.7734545,52.8505647 C41.2013362,52.728528 43.7076077,51.7499748 44.4413343,51.6279381 C45.175061,51.5059014 49.6987041,48.7382303 50.3706591,42.0834654 C51.0433674,35.4287005 45.052271,31.5167473 41.6292178,31.455729 C41.6292178,31.455729 39.4898096,31.3947106 39.0009096,31.7005556 C38.5120096,32.0064006 35.3330298,33.4731005 33.9273481,33.6569089 C33.9273481,33.6569089 32.7657399,34.7574988 32.9495482,36.1021621 C33.1326032,37.4468254 33.1326032,42.0759323 38.0231096,42.0842187 C38.0231096,42.0842187 39.1907444,41.4536959 39.0656945,36.8833474 C39.0656945,36.8833474 45.1524616,36.3771212 45.3106573,42.0842187 C45.468853,47.7913162 39.8566729,48.5815413 36.3786279,48.4240989 C32.9005828,48.2666565 25.5482503,43.4424416 26.1019352,35.7752243 L26.5305701,33.0444656 L27.7531968,31.638784 C27.7531968,31.638784 30.5653133,25.9535326 36.983538,24.242006 C36.983538,24.242006 37.5334563,23.3252243 38.2061646,23.3252243 C38.8788729,23.3252243 39.4287912,24.058951 40.4065912,24.1809876 C41.3843912,24.3030243 41.7512545,23.264206 42.6680361,23.3252243 C43.5848177,23.3862427 43.6458361,24.058951 44.6243893,24.242006 C45.6021893,24.425061 50.3706591,24.9757326 54.2215939,30.2323491 C54.2215939,30.2323491 54.4046489,31.5770123 54.9553206,31.821839 C55.5052389,32.0666656 56.7888838,32.6165839 56.9726921,33.0444656 C57.1557471,33.4723472 58.4401454,38.0570087 58.3173554,40.0133619 C58.1945654,41.9697152 57.6446471,51.0780198 51.5932857,53.889383 L51.471249,55.5398913 C51.471249,55.5398913 46.9476059,59.5746344 40.0397279,59.0857344 C33.1326032,58.5960811 31.272674,57.8691343 29.6477783,55.6619279 Z" id="Shape"></path>
            </g>
        </g>
    </g>
</svg>