<?xml version="1.0" encoding="UTF-8" standalone="no"?>
<svg width="228px" height="256px" viewBox="0 0 228 256" version="1.1" xmlns="http://www.w3.org/2000/svg" xmlns:xlink="http://www.w3.org/1999/xlink">
    <!-- Generator: Sketch 3.8.2 (29753) - http://www.bohemiancoding.com/sketch -->
    <title>shield</title>
    <desc>Created with Sketch.</desc>
    <defs>
        <linearGradient x1="17.6592219%" y1="25.6203016%" x2="111.64021%" y2="102.361709%" id="linearGradient-1">
            <stop stop-color="#9E9690" offset="0%"></stop>
            <stop stop-color="#403C38" offset="100%"></stop>
        </linearGradient>
        <linearGradient x1="43.9552517%" y1="70.0377838%" x2="26.6744751%" y2="16.5728947%" id="linearGradient-2">
            <stop stop-color="#645F5A" offset="0%"></stop>
            <stop stop-color="#9D9890" offset="100%"></stop>
        </linearGradient>
    </defs>
    <g id="Page-1" stroke="none" stroke-width="1" fill="none" fill-rule="evenodd" opacity="0.697702892">
        <g id="Desktop-HD" transform="translate(-1366.000000, -71.000000)">
            <g id="shield" transform="translate(1369.000000, 74.000000)">
                <path d="M2.13664505,62.7993525 C2.13664505,62.7993525 -14.759286,213.001901 117.742291,248.960099 C120.778646,247.742985 124.326829,250.362449 124.326829,250.362449 L134.953788,240.711658 L135.062268,184.867712 L92.0203692,91.9074297 L102.821932,66.7639996 L87.0567807,21.8104944" id="Path-25" fill="#212322"></path>
                <path d="M0.697679802,63.7304688 C0.697679802,63.7304688 -16.1982513,213.933017 116.303325,249.891215 L130.990295,236.589083 L131.575407,185.091443 L88.0283914,105.598304 L57.5645047,85.0852755 L80.9303449,92.6411362 L97.2608873,63.4672557 L85.6178154,22.7416107 L0.697679802,63.7304688 Z" id="Path-25" stroke="#000000" stroke-width="4" fill="url(#linearGradient-1)"></path>
                <path d="M130.808697,7.03436976 L143.151931,1.36870805 C143.151931,1.36870805 184.887361,22.519279 212.836144,27.2063627 C220.21199,136.800774 153.644502,200.252517 153.644502,200.252517 L144.617998,199.410235 L141.498496,180.679334 L145.676459,174.010172 L124.387257,57.7785628 L134.181309,46.5640402 L136.745283,29.4091273 L130.808697,7.03436976 Z" id="Path-26" fill="#212322"></path>
                <path d="M143.467497,0.305985214 C143.467497,0.305985214 183.65286,21.1590421 221.53722,27.5123479 C230.609744,162.316931 153.319074,199.71622 153.319074,199.71622 L146.833535,181.827601 L151.853007,173.473875 L141.303632,117.761218 L144.309006,110.679458 L138.604401,103.506217 L129.878435,57.4232251 L137.75115,51.0468881 L139.509773,40.8572515 L144.309006,27.5123479 L143.467497,0.305985214 Z" id="Path-26" stroke="#000000" stroke-width="4" fill="url(#linearGradient-2)"></path>
                <path d="M92.9129978,47.1677852 C92.9129978,47.1677852 51.8269571,69.3582936 26.6868628,78.4671115 C17.3480806,191.676705 120.102628,229.804766 120.102628,229.804766 L131.841027,222.035045 L131.694749,212.284645 L120.580908,222.804943 C120.580908,222.804943 71.9327199,205.841905 46.4466295,151.754691 C45.5604133,149.873941 61.0981869,155.730023 61.0981869,155.730023 C61.0981869,155.730023 42.7773984,143.307014 42.2505161,141.940826 C35.8643488,125.381698 31.6706317,105.751172 31.3003725,82.5913315 C75.2807462,65.4397087 93.8481909,53.859978 93.8481909,53.859978 L92.9129978,47.1677852 Z" id="Path-29" fill="#3F3C39"></path>
                <polygon id="Path-30" fill="#FFFFFF" opacity="0.453416511" points="91.2577535 55.6777934 50.9392615 74.5912988 79.3697892 89.7770488 62.6020563 76.6262649 90.1039652 60.5159789"></polygon>
                <polygon id="Path-31" fill="#FFFFFF" opacity="0.453416511" points="32.5000147 82.2343488 44.2006117 78.7155188 74.5508328 99.5077076"></polygon>
                <path d="M89.0077019,44.1688011 L23.4735112,73.1814637 C23.4735112,73.1814637 18.0908093,98.218786 29.4643352,152.268771 C13.1354362,111.806339 18.0908093,69.3533583 18.0908093,69.3533583 L89.0077019,44.1688011 Z" id="Path-32" fill="#FFFFFF" opacity="0.453416511"></path>
                <path d="M146.471949,19.5748283 C146.471949,19.5748283 183.624919,41.9923579 206.439357,44.6935822 C215.811011,130.22303 172.014718,162.854872 151.690293,179.167503 C172.074109,159.916166 184.322699,139.427458 191.573265,120.550801 C192.611374,117.848112 186.466657,117.86682 186.466657,117.86682 C186.466657,117.86682 196.289054,106.259247 197.050893,103.219194 C198.633799,96.9027481 200.177344,77.0737272 200.177344,77.0737272 L197.050892,80.0776465 L200.949737,67.3729104 L200.177344,49.3228424 L167.036335,37.749692 C167.036335,37.749692 165.204852,42.6601658 163.791922,44.6935822 C163.226538,45.507254 163.791922,47.9508442 163.791922,47.9508442 L161.740743,34.0400325 L148.154968,27.4975422 L146.471949,19.5748283 Z" id="Path-33" fill="#4D4C49"></path>
                <polygon id="Path-34" fill="#FFFFFF" opacity="0.453416511" points="169.83041 41.2372654 168.088222 43.2311045 198.139313 56.0084548 199.202705 50.3460833"></polygon>
                <polygon id="Path-34-Copy" fill="#FFFFFF" opacity="0.453416511" points="177.701481 118.939414 179.443669 122.861289 194.14543 104.053069 190.227152 104.987475"></polygon>
                <polygon id="Path-35" fill="#FFFFFF" opacity="0.453416511" points="146.25171 29.6196977 159.947605 36.6195208 164.176518 62.2795066"></polygon>
                <polygon id="Path-35" fill="#FFFFFF" opacity="0.453416511" points="132.31421 58.2589267 140.111321 67.1653995 140.111321 101.531158"></polygon>
                <polygon id="Path-35-Copy" fill="#FFFFFF" opacity="0.453416511" points="143.056604 118.761745 152.25897 104.938123 146.207949 120.051126 152.25897 168.497503"></polygon>
                <polygon id="Path-36" fill="#D8D8D8" opacity="0.686508862" points="76.6726857 101.432453 85.6268721 108.251317 106.375339 147.869822 119.029208 218.855102 130.013208 210.809007 130.013208 184.354446 85.6268721 106.232802"></polygon>
                <path d="M146.588642,5.05698144 L146.588642,16.0280319 C160.268101,28.438529 205.421986,43.5189938 205.421986,43.5189938 L159.249086,16.0280319 L213.590544,33.8228817 C213.590544,33.8228817 218.920652,46.0425493 215.860318,82.2837012 C222.040153,71.921331 218.920652,29.2808109 218.920652,29.2808109 C218.920652,29.2808109 194.477432,26.0844169 146.588642,5.05698144 Z" id="Path-39" fill="#D8D8D8"></path>
            </g>
        </g>
    </g>
</svg>