<?xml version="1.0" encoding="UTF-8" standalone="no"?>
<svg width="34px" height="34px" viewBox="0 0 34 34" version="1.1" xmlns="http://www.w3.org/2000/svg" xmlns:xlink="http://www.w3.org/1999/xlink" xmlns:sketch="http://www.bohemiancoding.com/sketch/ns">
    <!-- Generator: Sketch 3.5.1 (25234) - http://www.bohemiancoding.com/sketch -->
    <title>add-icon</title>
    <desc>Created with Sketch.</desc>
    <defs></defs>
    <g id="Page-1" stroke="none" stroke-width="1" fill="none" fill-rule="evenodd" sketch:type="MSPage">
        <g id="-icon-search" sketch:type="MSArtboardGroup" transform="translate(-334.000000, -598.000000)" fill="#000000">
            <path d="M353,613 L353,604 L349,604 L349,613 L340,613 L340,617 L349,617 L349,626 L353,626 L353,617 L362,617 L362,613 L353,613 Z M351,632 C360.388841,632 368,624.388841 368,615 C368,605.611159 360.388841,598 351,598 C341.611159,598 334,605.611159 334,615 C334,624.388841 341.611159,632 351,632 Z M351.04234,628.02117 C358.21035,628.02117 364.02117,622.21035 364.02117,615.04234 C364.02117,607.87433 358.21035,602.06351 351.04234,602.06351 C343.87433,602.06351 338.06351,607.87433 338.06351,615.04234 C338.06351,622.21035 343.87433,628.02117 351.04234,628.02117 Z" id="add-icon" sketch:type="MSShapeGroup"></path>
        </g>
    </g>
</svg>