<?xml version="1.0" encoding="UTF-8" standalone="no"?>
<svg width="34px" height="34px" viewBox="0 0 34 34" version="1.1" xmlns="http://www.w3.org/2000/svg" xmlns:xlink="http://www.w3.org/1999/xlink" xmlns:sketch="http://www.bohemiancoding.com/sketch/ns">
    <!-- Generator: Sketch 3.5.1 (25234) - http://www.bohemiancoding.com/sketch -->
    <title>clear-icon</title>
    <desc>Created with Sketch.</desc>
    <defs></defs>
    <g id="Page-1" stroke="none" stroke-width="1" fill="none" fill-rule="evenodd" sketch:type="MSPage">
        <g id="-icon-search" sketch:type="MSArtboardGroup" transform="translate(-373.000000, -598.000000)" fill="#000000">
            <path d="M392,613 L392,604 L388,604 L388,613 L379,613 L379,617 L388,617 L388,626 L392,626 L392,617 L401,617 L401,613 L392,613 Z M390,632 C399.388841,632 407,624.388841 407,615 C407,605.611159 399.388841,598 390,598 C380.611159,598 373,605.611159 373,615 C373,624.388841 380.611159,632 390,632 Z M390.04234,628.02117 C397.21035,628.02117 403.02117,622.21035 403.02117,615.04234 C403.02117,607.87433 397.21035,602.06351 390.04234,602.06351 C382.87433,602.06351 377.06351,607.87433 377.06351,615.04234 C377.06351,622.21035 382.87433,628.02117 390.04234,628.02117 Z" id="clear-icon" sketch:type="MSShapeGroup" transform="translate(390.000000, 615.000000) rotate(-315.000000) translate(-390.000000, -615.000000) "></path>
        </g>
    </g>
</svg>