<?xml version="1.0" encoding="UTF-8" standalone="no"?>
<svg width="39px" height="31px" viewBox="0 0 39 31" version="1.1" xmlns="http://www.w3.org/2000/svg" xmlns:xlink="http://www.w3.org/1999/xlink" xmlns:sketch="http://www.bohemiancoding.com/sketch/ns">
    <!-- Generator: Sketch 3.5.1 (25234) - http://www.bohemiancoding.com/sketch -->
    <title>icon-twitter</title>
    <desc>Created with Sketch.</desc>
    <defs></defs>
    <g id="Page-1" stroke="none" stroke-width="1" fill="none" fill-rule="evenodd" sketch:type="MSPage">
        <g id="-icon-search" sketch:type="MSArtboardGroup" transform="translate(-279.000000, -600.000000)" fill="#000000">
            <path d="M317.146401,603.669606 C315.744068,604.292951 314.234875,604.713419 312.651346,604.901584 C314.268172,603.933656 315.507893,602.40046 316.092521,600.571464 C314.580232,601.468926 312.906105,602.120148 311.122796,602.471699 C309.695684,600.950892 307.661488,600 305.410476,600 C301.088874,600 297.584978,603.503897 297.584978,607.826273 C297.584978,608.438777 297.653894,609.035795 297.787855,609.609582 C291.283384,609.28281 285.516086,606.167633 281.655992,601.432532 C280.982315,602.58785 280.596693,603.932108 280.596693,605.367737 C280.596693,608.08258 281.978119,610.478393 284.078134,611.881501 C282.795824,611.840461 281.588625,611.488135 280.533197,610.901958 C280.532422,610.934481 280.532422,610.967777 280.532422,611.001074 C280.532422,614.792252 283.230229,617.954664 286.810786,618.674801 C286.154144,618.8529 285.462657,618.948918 284.748714,618.948918 C284.243843,618.948918 283.753684,618.900135 283.275915,618.807988 C284.272493,621.916971 287.162337,624.180372 290.586476,624.243093 C287.908028,626.342334 284.534221,627.59367 280.866938,627.59367 C280.23585,627.59367 279.612504,627.556502 279,627.483714 C282.464405,629.7053 286.577709,631 290.996878,631 C305.392666,631 313.263851,619.075136 313.263851,608.733027 C313.263851,608.393865 313.256882,608.055478 313.242169,607.719413 C314.77072,606.618299 316.097942,605.239197 317.146401,603.669606 L317.146401,603.669606 Z" id="icon-twitter" sketch:type="MSShapeGroup"></path>
        </g>
    </g>
</svg>