<?xml version="1.0" encoding="UTF-8"?>
<svg width="33px" height="43px" viewBox="0 0 33 43" version="1.1" xmlns="http://www.w3.org/2000/svg" xmlns:xlink="http://www.w3.org/1999/xlink">
    <!-- Generator: Sketch 41.2 (35397) - http://www.bohemiancoding.com/sketch -->
    <title>icons/icon-hot</title>
    <desc>Created with Sketch.</desc>
    <defs></defs>
    <g id="Page-1" stroke="none" stroke-width="1" fill="none" fill-rule="evenodd">
        <g id="icons" transform="translate(-450.000000, -465.000000)" fill="#1D3657">
            <path d="M480.509424,485.232803 C479.387975,483.503903 477.799256,482.289 476.210538,481.02737 C474.528365,479.672286 472.986373,478.177022 471.724743,476.448122 C471.678016,476.354668 471.584562,476.261213 471.537835,476.167759 C469.388392,473.083776 468.080035,468.504527 470.089297,465 C469.949116,465.233635 469.108029,465.46727 468.874394,465.607451 C468.266943,465.887814 467.612765,466.168176 467.005313,466.541992 C465.696956,467.289624 464.482054,468.224165 463.407332,469.252159 C460.276621,472.149235 457.94027,475.887397 457.753362,480.233011 C457.706635,481.868457 457.706635,483.597357 457.986997,485.232803 C458.267359,486.821522 459.248627,488.176605 458.874811,489.858778 C458.828084,490.092413 458.687902,490.372776 458.454267,490.46623 C458.267359,490.512957 458.080451,490.419503 457.893543,490.326049 C454.669378,488.597149 452.940478,483.176813 454.108654,479.812468 C452.893751,483.316995 450.744308,486.21407 450.183584,489.952232 C449.809767,492.241857 449.996675,494.624935 450.837762,496.821105 C451.632121,498.923822 452.893751,500.792903 454.48247,502.381622 C456.164643,504.063794 458.220632,505.465605 460.370075,506.4936 C460.743892,506.680508 461.164435,506.867416 461.584978,507.007597 C462.052248,507.147778 462.519519,507.287959 463.033516,507.381413 C465.556775,507.848684 468.220216,507.895411 470.743475,507.42814 C472.752738,507.054324 474.668546,506.306692 476.397446,505.185243 C478.453435,503.830159 480.135608,502.007805 481.397238,499.858362 C484.013951,495.419295 483.219592,489.438235 480.509424,485.232803 Z M472.892919,497.335103 C469.108029,502.708711 463.968056,498.456551 463.968056,498.456551 C470.369659,497.615465 467.799673,484.531897 467.799673,484.531897 C476.95817,491.40077 472.892919,497.335103 472.892919,497.335103 Z" id="icons/icon-hot"></path>
        </g>
    </g>
</svg>