<?xml version="1.0" encoding="UTF-8"?>
<svg width="40px" height="21px" viewBox="0 0 40 21" version="1.1" xmlns="http://www.w3.org/2000/svg" xmlns:xlink="http://www.w3.org/1999/xlink">
    <!-- Generator: Sketch 41.2 (35397) - http://www.bohemiancoding.com/sketch -->
    <title>icons/icon-link</title>
    <desc>Created with Sketch.</desc>
    <defs></defs>
    <g id="Page-1" stroke="none" stroke-width="1" fill="none" fill-rule="evenodd">
        <g id="icons" transform="translate(-498.000000, -478.000000)" fill="#1D3657">
            <path d="M511.28874,493.696767 L507.186176,493.696767 C504.599777,493.696767 502.459309,491.600892 502.459309,488.9699 L502.459309,487.186176 C502.459309,484.599777 504.555184,482.459309 507.186176,482.459309 L514.544036,482.459309 C517.130435,482.459309 519.270903,484.555184 519.270903,487.186176 L519.270903,489.192865 C519.270903,490.441472 520.251951,491.42252 521.500557,491.42252 C522.749164,491.42252 523.730212,490.441472 523.730212,489.192865 L523.730212,487.186176 C523.730212,482.147157 519.627648,478 514.544036,478 L507.186176,478 C502.147157,478 498,482.102564 498,487.186176 L498,488.9699 C498,494.008919 502.102564,498.156076 507.186176,498.156076 L511.28874,498.156076 C512.537347,498.156076 513.518395,497.175028 513.518395,495.926421 C513.518395,494.677815 512.537347,493.696767 511.28874,493.696767 Z M528.813824,478 L525.246377,478 C523.99777,478 523.016722,478.981048 523.016722,480.229654 C523.016722,481.478261 523.99777,482.459309 525.246377,482.459309 L528.813824,482.459309 C531.400223,482.459309 533.540691,484.555184 533.540691,487.186176 L533.540691,488.9699 C533.540691,491.556299 531.444816,493.696767 528.813824,493.696767 L521.901895,493.696767 C519.315496,493.696767 517.175028,491.600892 517.175028,488.9699 L517.175028,487.409142 C517.175028,486.160535 516.19398,485.179487 514.945373,485.179487 C513.696767,485.179487 512.715719,486.160535 512.715719,487.409142 L512.715719,488.9699 C512.715719,494.008919 516.818283,498.156076 521.901895,498.156076 L528.813824,498.156076 C533.852843,498.156076 538,494.053512 538,488.9699 L538,487.186176 C538,482.147157 533.852843,478 528.813824,478 Z" id="icons/icon-link"></path>
        </g>
    </g>
</svg>