<?xml version="1.0" encoding="UTF-8" standalone="no"?>
<svg width="51px" height="65px" viewBox="0 0 51 65" version="1.1" xmlns="http://www.w3.org/2000/svg" xmlns:xlink="http://www.w3.org/1999/xlink">
    <!-- Generator: Sketch 3.8.2 (29753) - http://www.bohemiancoding.com/sketch -->
    <title>icon-grid</title>
    <desc>Created with Sketch.</desc>
    <defs></defs>
    <g id="Page-1" stroke="none" stroke-width="1" fill="none" fill-rule="evenodd">
        <g id="Desktop-HD" transform="translate(-788.000000, -489.000000)" fill="#1D3657">
            <path d="M788,492.999275 C788,490.790536 789.785633,489 792.006294,489 L806.993706,489 C809.206321,489 811,490.786795 811,492.999275 L811,515.000725 C811,517.209464 809.214367,519 806.993706,519 L792.006294,519 C789.793679,519 788,517.213205 788,515.000725 L788,492.999275 L788,492.999275 Z M816,492.999275 C816,490.790536 817.785633,489 820.006294,489 L834.993706,489 C837.206321,489 839,490.786795 839,492.999275 L839,515.000725 C839,517.209464 837.214367,519 834.993706,519 L820.006294,519 C817.793679,519 816,517.213205 816,515.000725 L816,492.999275 L816,492.999275 Z M788,527.999275 C788,525.790536 789.785633,524 792.006294,524 L806.993706,524 C809.206321,524 811,525.786795 811,527.999275 L811,550.000725 C811,552.209464 809.214367,554 806.993706,554 L792.006294,554 C789.793679,554 788,552.213205 788,550.000725 L788,527.999275 L788,527.999275 Z M816,527.999275 C816,525.790536 817.785633,524 820.006294,524 L834.993706,524 C837.206321,524 839,525.786795 839,527.999275 L839,550.000725 C839,552.209464 837.214367,554 834.993706,554 L820.006294,554 C817.793679,554 816,552.213205 816,550.000725 L816,527.999275 L816,527.999275 Z" id="icon-grid"></path>
        </g>
    </g>
</svg>