<?xml version="1.0" encoding="UTF-8" standalone="no"?>
<svg width="52px" height="65px" viewBox="0 0 52 65" version="1.1" xmlns="http://www.w3.org/2000/svg" xmlns:xlink="http://www.w3.org/1999/xlink">
    <!-- Generator: Sketch 3.8.2 (29753) - http://www.bohemiancoding.com/sketch -->
    <title>icon-row</title>
    <desc>Created with Sketch.</desc>
    <defs></defs>
    <g id="Page-1" stroke="none" stroke-width="1" fill="none" fill-rule="evenodd">
        <g id="Desktop-HD" transform="translate(-907.000000, -489.000000)" fill="#1D3657">
            <path d="M907,489 L959,489 L959,498 L907,498 L907,489 L907,489 Z M907,503 L959,503 L959,512 L907,512 L907,503 L907,503 Z M907,517 L959,517 L959,526 L907,526 L907,517 L907,517 Z M907,531 L959,531 L959,540 L907,540 L907,531 L907,531 Z M907,545 L959,545 L959,554 L907,554 L907,545 L907,545 Z" id="icon-row"></path>
        </g>
    </g>
</svg>